<?xml version="1.0" encoding="utf-8" standalone="no"?>
<!DOCTYPE svg PUBLIC "-//W3C//DTD SVG 1.1//EN"
  "http://www.w3.org/Graphics/SVG/1.1/DTD/svg11.dtd">
<svg xmlns:xlink="http://www.w3.org/1999/xlink" width="1008pt" height="360pt" viewBox="0 0 1008 360" xmlns="http://www.w3.org/2000/svg" version="1.1">
 <metadata>
  <rdf:RDF xmlns:dc="http://purl.org/dc/elements/1.1/" xmlns:cc="http://creativecommons.org/ns#" xmlns:rdf="http://www.w3.org/1999/02/22-rdf-syntax-ns#">
   <cc:Work>
    <dc:type rdf:resource="http://purl.org/dc/dcmitype/StillImage"/>
    <dc:date>2026-03-30T18:45:04.400924</dc:date>
    <dc:format>image/svg+xml</dc:format>
    <dc:creator>
     <cc:Agent>
      <dc:title>Matplotlib v3.10.8, https://matplotlib.org/</dc:title>
     </cc:Agent>
    </dc:creator>
   </cc:Work>
  </rdf:RDF>
 </metadata>
 <defs>
  <style type="text/css">*{stroke-linejoin: round; stroke-linecap: butt}</style>
 </defs>
 <g id="figure_1">
  <g id="patch_1">
   <path d="M 0 360 
L 1008 360 
L 1008 0 
L 0 0 
z
" style="fill: #ffffff"/>
  </g>
  <g id="axes_1">
   <g id="patch_2">
    <path d="M 59.258 317.32 
L 997.2 317.32 
L 997.2 26.88 
L 59.258 26.88 
z
" style="fill: #ffffff"/>
   </g>
   <g id="matplotlib.axis_1">
    <g id="xtick_1">
     <g id="line2d_1">
      <path d="M 101.891727 317.32 
L 101.891727 26.88 
" clip-path="url(#p80e74be024)" style="fill: none; stroke: #b0b0b0; stroke-opacity: 0.3; stroke-width: 0.8; stroke-linecap: square"/>
     </g>
     <g id="line2d_2">
      <defs>
       <path id="m01fb4827aa" d="M 0 0 
L 0 3.5 
" style="stroke: #000000; stroke-width: 0.8"/>
      </defs>
      <g>
       <use xlink:href="#m01fb4827aa" x="101.891727" y="317.32" style="stroke: #000000; stroke-width: 0.8"/>
      </g>
     </g>
     <g id="text_1">
      <!-- 0 -->
      <g transform="translate(98.710477 331.918437) scale(0.1 -0.1)">
       <defs>
        <path id="DejaVuSans-30" d="M 2034 4250 
Q 1547 4250 1301 3770 
Q 1056 3291 1056 2328 
Q 1056 1369 1301 889 
Q 1547 409 2034 409 
Q 2525 409 2770 889 
Q 3016 1369 3016 2328 
Q 3016 3291 2770 3770 
Q 2525 4250 2034 4250 
z
M 2034 4750 
Q 2819 4750 3233 4129 
Q 3647 3509 3647 2328 
Q 3647 1150 3233 529 
Q 2819 -91 2034 -91 
Q 1250 -91 836 529 
Q 422 1150 422 2328 
Q 422 3509 836 4129 
Q 1250 4750 2034 4750 
z
" transform="scale(0.015625)"/>
       </defs>
       <use xlink:href="#DejaVuSans-30"/>
      </g>
     </g>
    </g>
    <g id="xtick_2">
     <g id="line2d_3">
      <path d="M 272.597342 317.32 
L 272.597342 26.88 
" clip-path="url(#p80e74be024)" style="fill: none; stroke: #b0b0b0; stroke-opacity: 0.3; stroke-width: 0.8; stroke-linecap: square"/>
     </g>
     <g id="line2d_4">
      <g>
       <use xlink:href="#m01fb4827aa" x="272.597342" y="317.32" style="stroke: #000000; stroke-width: 0.8"/>
      </g>
     </g>
     <g id="text_2">
      <!-- 20 -->
      <g transform="translate(266.234842 331.918437) scale(0.1 -0.1)">
       <defs>
        <path id="DejaVuSans-32" d="M 1228 531 
L 3431 531 
L 3431 0 
L 469 0 
L 469 531 
Q 828 903 1448 1529 
Q 2069 2156 2228 2338 
Q 2531 2678 2651 2914 
Q 2772 3150 2772 3378 
Q 2772 3750 2511 3984 
Q 2250 4219 1831 4219 
Q 1534 4219 1204 4116 
Q 875 4013 500 3803 
L 500 4441 
Q 881 4594 1212 4672 
Q 1544 4750 1819 4750 
Q 2544 4750 2975 4387 
Q 3406 4025 3406 3419 
Q 3406 3131 3298 2873 
Q 3191 2616 2906 2266 
Q 2828 2175 2409 1742 
Q 1991 1309 1228 531 
z
" transform="scale(0.015625)"/>
       </defs>
       <use xlink:href="#DejaVuSans-32"/>
       <use xlink:href="#DejaVuSans-30" transform="translate(63.623047 0)"/>
      </g>
     </g>
    </g>
    <g id="xtick_3">
     <g id="line2d_5">
      <path d="M 443.302957 317.32 
L 443.302957 26.88 
" clip-path="url(#p80e74be024)" style="fill: none; stroke: #b0b0b0; stroke-opacity: 0.3; stroke-width: 0.8; stroke-linecap: square"/>
     </g>
     <g id="line2d_6">
      <g>
       <use xlink:href="#m01fb4827aa" x="443.302957" y="317.32" style="stroke: #000000; stroke-width: 0.8"/>
      </g>
     </g>
     <g id="text_3">
      <!-- 40 -->
      <g transform="translate(436.940457 331.918437) scale(0.1 -0.1)">
       <defs>
        <path id="DejaVuSans-34" d="M 2419 4116 
L 825 1625 
L 2419 1625 
L 2419 4116 
z
M 2253 4666 
L 3047 4666 
L 3047 1625 
L 3713 1625 
L 3713 1100 
L 3047 1100 
L 3047 0 
L 2419 0 
L 2419 1100 
L 313 1100 
L 313 1709 
L 2253 4666 
z
" transform="scale(0.015625)"/>
       </defs>
       <use xlink:href="#DejaVuSans-34"/>
       <use xlink:href="#DejaVuSans-30" transform="translate(63.623047 0)"/>
      </g>
     </g>
    </g>
    <g id="xtick_4">
     <g id="line2d_7">
      <path d="M 614.008571 317.32 
L 614.008571 26.88 
" clip-path="url(#p80e74be024)" style="fill: none; stroke: #b0b0b0; stroke-opacity: 0.3; stroke-width: 0.8; stroke-linecap: square"/>
     </g>
     <g id="line2d_8">
      <g>
       <use xlink:href="#m01fb4827aa" x="614.008571" y="317.32" style="stroke: #000000; stroke-width: 0.8"/>
      </g>
     </g>
     <g id="text_4">
      <!-- 60 -->
      <g transform="translate(607.646071 331.918437) scale(0.1 -0.1)">
       <defs>
        <path id="DejaVuSans-36" d="M 2113 2584 
Q 1688 2584 1439 2293 
Q 1191 2003 1191 1497 
Q 1191 994 1439 701 
Q 1688 409 2113 409 
Q 2538 409 2786 701 
Q 3034 994 3034 1497 
Q 3034 2003 2786 2293 
Q 2538 2584 2113 2584 
z
M 3366 4563 
L 3366 3988 
Q 3128 4100 2886 4159 
Q 2644 4219 2406 4219 
Q 1781 4219 1451 3797 
Q 1122 3375 1075 2522 
Q 1259 2794 1537 2939 
Q 1816 3084 2150 3084 
Q 2853 3084 3261 2657 
Q 3669 2231 3669 1497 
Q 3669 778 3244 343 
Q 2819 -91 2113 -91 
Q 1303 -91 875 529 
Q 447 1150 447 2328 
Q 447 3434 972 4092 
Q 1497 4750 2381 4750 
Q 2619 4750 2861 4703 
Q 3103 4656 3366 4563 
z
" transform="scale(0.015625)"/>
       </defs>
       <use xlink:href="#DejaVuSans-36"/>
       <use xlink:href="#DejaVuSans-30" transform="translate(63.623047 0)"/>
      </g>
     </g>
    </g>
    <g id="xtick_5">
     <g id="line2d_9">
      <path d="M 784.714186 317.32 
L 784.714186 26.88 
" clip-path="url(#p80e74be024)" style="fill: none; stroke: #b0b0b0; stroke-opacity: 0.3; stroke-width: 0.8; stroke-linecap: square"/>
     </g>
     <g id="line2d_10">
      <g>
       <use xlink:href="#m01fb4827aa" x="784.714186" y="317.32" style="stroke: #000000; stroke-width: 0.8"/>
      </g>
     </g>
     <g id="text_5">
      <!-- 80 -->
      <g transform="translate(778.351686 331.918437) scale(0.1 -0.1)">
       <defs>
        <path id="DejaVuSans-38" d="M 2034 2216 
Q 1584 2216 1326 1975 
Q 1069 1734 1069 1313 
Q 1069 891 1326 650 
Q 1584 409 2034 409 
Q 2484 409 2743 651 
Q 3003 894 3003 1313 
Q 3003 1734 2745 1975 
Q 2488 2216 2034 2216 
z
M 1403 2484 
Q 997 2584 770 2862 
Q 544 3141 544 3541 
Q 544 4100 942 4425 
Q 1341 4750 2034 4750 
Q 2731 4750 3128 4425 
Q 3525 4100 3525 3541 
Q 3525 3141 3298 2862 
Q 3072 2584 2669 2484 
Q 3125 2378 3379 2068 
Q 3634 1759 3634 1313 
Q 3634 634 3220 271 
Q 2806 -91 2034 -91 
Q 1263 -91 848 271 
Q 434 634 434 1313 
Q 434 1759 690 2068 
Q 947 2378 1403 2484 
z
M 1172 3481 
Q 1172 3119 1398 2916 
Q 1625 2713 2034 2713 
Q 2441 2713 2670 2916 
Q 2900 3119 2900 3481 
Q 2900 3844 2670 4047 
Q 2441 4250 2034 4250 
Q 1625 4250 1398 4047 
Q 1172 3844 1172 3481 
z
" transform="scale(0.015625)"/>
       </defs>
       <use xlink:href="#DejaVuSans-38"/>
       <use xlink:href="#DejaVuSans-30" transform="translate(63.623047 0)"/>
      </g>
     </g>
    </g>
    <g id="xtick_6">
     <g id="line2d_11">
      <path d="M 955.419801 317.32 
L 955.419801 26.88 
" clip-path="url(#p80e74be024)" style="fill: none; stroke: #b0b0b0; stroke-opacity: 0.3; stroke-width: 0.8; stroke-linecap: square"/>
     </g>
     <g id="line2d_12">
      <g>
       <use xlink:href="#m01fb4827aa" x="955.419801" y="317.32" style="stroke: #000000; stroke-width: 0.8"/>
      </g>
     </g>
     <g id="text_6">
      <!-- 100 -->
      <g transform="translate(945.876051 331.918437) scale(0.1 -0.1)">
       <defs>
        <path id="DejaVuSans-31" d="M 794 531 
L 1825 531 
L 1825 4091 
L 703 3866 
L 703 4441 
L 1819 4666 
L 2450 4666 
L 2450 531 
L 3481 531 
L 3481 0 
L 794 0 
L 794 531 
z
" transform="scale(0.015625)"/>
       </defs>
       <use xlink:href="#DejaVuSans-31"/>
       <use xlink:href="#DejaVuSans-30" transform="translate(63.623047 0)"/>
       <use xlink:href="#DejaVuSans-30" transform="translate(127.246094 0)"/>
      </g>
     </g>
    </g>
    <g id="text_7">
     <!-- Time [s] -->
     <g transform="translate(505.867203 346.356406) scale(0.11 -0.11)">
      <defs>
       <path id="DejaVuSans-54" d="M -19 4666 
L 3928 4666 
L 3928 4134 
L 2272 4134 
L 2272 0 
L 1638 0 
L 1638 4134 
L -19 4134 
L -19 4666 
z
" transform="scale(0.015625)"/>
       <path id="DejaVuSans-69" d="M 603 3500 
L 1178 3500 
L 1178 0 
L 603 0 
L 603 3500 
z
M 603 4863 
L 1178 4863 
L 1178 4134 
L 603 4134 
L 603 4863 
z
" transform="scale(0.015625)"/>
       <path id="DejaVuSans-6d" d="M 3328 2828 
Q 3544 3216 3844 3400 
Q 4144 3584 4550 3584 
Q 5097 3584 5394 3201 
Q 5691 2819 5691 2113 
L 5691 0 
L 5113 0 
L 5113 2094 
Q 5113 2597 4934 2840 
Q 4756 3084 4391 3084 
Q 3944 3084 3684 2787 
Q 3425 2491 3425 1978 
L 3425 0 
L 2847 0 
L 2847 2094 
Q 2847 2600 2669 2842 
Q 2491 3084 2119 3084 
Q 1678 3084 1418 2786 
Q 1159 2488 1159 1978 
L 1159 0 
L 581 0 
L 581 3500 
L 1159 3500 
L 1159 2956 
Q 1356 3278 1631 3431 
Q 1906 3584 2284 3584 
Q 2666 3584 2933 3390 
Q 3200 3197 3328 2828 
z
" transform="scale(0.015625)"/>
       <path id="DejaVuSans-65" d="M 3597 1894 
L 3597 1613 
L 953 1613 
Q 991 1019 1311 708 
Q 1631 397 2203 397 
Q 2534 397 2845 478 
Q 3156 559 3463 722 
L 3463 178 
Q 3153 47 2828 -22 
Q 2503 -91 2169 -91 
Q 1331 -91 842 396 
Q 353 884 353 1716 
Q 353 2575 817 3079 
Q 1281 3584 2069 3584 
Q 2775 3584 3186 3129 
Q 3597 2675 3597 1894 
z
M 3022 2063 
Q 3016 2534 2758 2815 
Q 2500 3097 2075 3097 
Q 1594 3097 1305 2825 
Q 1016 2553 972 2059 
L 3022 2063 
z
" transform="scale(0.015625)"/>
       <path id="DejaVuSans-20" transform="scale(0.015625)"/>
       <path id="DejaVuSans-5b" d="M 550 4863 
L 1875 4863 
L 1875 4416 
L 1125 4416 
L 1125 -397 
L 1875 -397 
L 1875 -844 
L 550 -844 
L 550 4863 
z
" transform="scale(0.015625)"/>
       <path id="DejaVuSans-73" d="M 2834 3397 
L 2834 2853 
Q 2591 2978 2328 3040 
Q 2066 3103 1784 3103 
Q 1356 3103 1142 2972 
Q 928 2841 928 2578 
Q 928 2378 1081 2264 
Q 1234 2150 1697 2047 
L 1894 2003 
Q 2506 1872 2764 1633 
Q 3022 1394 3022 966 
Q 3022 478 2636 193 
Q 2250 -91 1575 -91 
Q 1294 -91 989 -36 
Q 684 19 347 128 
L 347 722 
Q 666 556 975 473 
Q 1284 391 1588 391 
Q 1994 391 2212 530 
Q 2431 669 2431 922 
Q 2431 1156 2273 1281 
Q 2116 1406 1581 1522 
L 1381 1569 
Q 847 1681 609 1914 
Q 372 2147 372 2553 
Q 372 3047 722 3315 
Q 1072 3584 1716 3584 
Q 2034 3584 2315 3537 
Q 2597 3491 2834 3397 
z
" transform="scale(0.015625)"/>
       <path id="DejaVuSans-5d" d="M 1947 4863 
L 1947 -844 
L 622 -844 
L 622 -397 
L 1369 -397 
L 1369 4416 
L 622 4416 
L 622 4863 
L 1947 4863 
z
" transform="scale(0.015625)"/>
      </defs>
      <use xlink:href="#DejaVuSans-54"/>
      <use xlink:href="#DejaVuSans-69" transform="translate(57.958984 0)"/>
      <use xlink:href="#DejaVuSans-6d" transform="translate(85.742188 0)"/>
      <use xlink:href="#DejaVuSans-65" transform="translate(183.154297 0)"/>
      <use xlink:href="#DejaVuSans-20" transform="translate(244.677734 0)"/>
      <use xlink:href="#DejaVuSans-5b" transform="translate(276.464844 0)"/>
      <use xlink:href="#DejaVuSans-73" transform="translate(315.478516 0)"/>
      <use xlink:href="#DejaVuSans-5d" transform="translate(367.578125 0)"/>
     </g>
    </g>
   </g>
   <g id="matplotlib.axis_2">
    <g id="ytick_1">
     <g id="line2d_13">
      <path d="M 59.258 306.572616 
L 997.2 306.572616 
" clip-path="url(#p80e74be024)" style="fill: none; stroke: #b0b0b0; stroke-opacity: 0.3; stroke-width: 0.8; stroke-linecap: square"/>
     </g>
     <g id="line2d_14">
      <defs>
       <path id="me36af3d1f5" d="M 0 0 
L -3.5 0 
" style="stroke: #000000; stroke-width: 0.8"/>
      </defs>
      <g>
       <use xlink:href="#me36af3d1f5" x="59.258" y="306.572616" style="stroke: #000000; stroke-width: 0.8"/>
      </g>
     </g>
     <g id="text_8">
      <!-- −0.8 -->
      <g transform="translate(27.975188 310.371835) scale(0.1 -0.1)">
       <defs>
        <path id="DejaVuSans-2212" d="M 678 2272 
L 4684 2272 
L 4684 1741 
L 678 1741 
L 678 2272 
z
" transform="scale(0.015625)"/>
        <path id="DejaVuSans-2e" d="M 684 794 
L 1344 794 
L 1344 0 
L 684 0 
L 684 794 
z
" transform="scale(0.015625)"/>
       </defs>
       <use xlink:href="#DejaVuSans-2212"/>
       <use xlink:href="#DejaVuSans-30" transform="translate(83.789062 0)"/>
       <use xlink:href="#DejaVuSans-2e" transform="translate(147.412109 0)"/>
       <use xlink:href="#DejaVuSans-38" transform="translate(179.199219 0)"/>
      </g>
     </g>
    </g>
    <g id="ytick_2">
     <g id="line2d_15">
      <path d="M 59.258 272.954462 
L 997.2 272.954462 
" clip-path="url(#p80e74be024)" style="fill: none; stroke: #b0b0b0; stroke-opacity: 0.3; stroke-width: 0.8; stroke-linecap: square"/>
     </g>
     <g id="line2d_16">
      <g>
       <use xlink:href="#me36af3d1f5" x="59.258" y="272.954462" style="stroke: #000000; stroke-width: 0.8"/>
      </g>
     </g>
     <g id="text_9">
      <!-- −0.6 -->
      <g transform="translate(27.975188 276.753681) scale(0.1 -0.1)">
       <use xlink:href="#DejaVuSans-2212"/>
       <use xlink:href="#DejaVuSans-30" transform="translate(83.789062 0)"/>
       <use xlink:href="#DejaVuSans-2e" transform="translate(147.412109 0)"/>
       <use xlink:href="#DejaVuSans-36" transform="translate(179.199219 0)"/>
      </g>
     </g>
    </g>
    <g id="ytick_3">
     <g id="line2d_17">
      <path d="M 59.258 239.336308 
L 997.2 239.336308 
" clip-path="url(#p80e74be024)" style="fill: none; stroke: #b0b0b0; stroke-opacity: 0.3; stroke-width: 0.8; stroke-linecap: square"/>
     </g>
     <g id="line2d_18">
      <g>
       <use xlink:href="#me36af3d1f5" x="59.258" y="239.336308" style="stroke: #000000; stroke-width: 0.8"/>
      </g>
     </g>
     <g id="text_10">
      <!-- −0.4 -->
      <g transform="translate(27.975188 243.135527) scale(0.1 -0.1)">
       <use xlink:href="#DejaVuSans-2212"/>
       <use xlink:href="#DejaVuSans-30" transform="translate(83.789062 0)"/>
       <use xlink:href="#DejaVuSans-2e" transform="translate(147.412109 0)"/>
       <use xlink:href="#DejaVuSans-34" transform="translate(179.199219 0)"/>
      </g>
     </g>
    </g>
    <g id="ytick_4">
     <g id="line2d_19">
      <path d="M 59.258 205.718154 
L 997.2 205.718154 
" clip-path="url(#p80e74be024)" style="fill: none; stroke: #b0b0b0; stroke-opacity: 0.3; stroke-width: 0.8; stroke-linecap: square"/>
     </g>
     <g id="line2d_20">
      <g>
       <use xlink:href="#me36af3d1f5" x="59.258" y="205.718154" style="stroke: #000000; stroke-width: 0.8"/>
      </g>
     </g>
     <g id="text_11">
      <!-- −0.2 -->
      <g transform="translate(27.975188 209.517373) scale(0.1 -0.1)">
       <use xlink:href="#DejaVuSans-2212"/>
       <use xlink:href="#DejaVuSans-30" transform="translate(83.789062 0)"/>
       <use xlink:href="#DejaVuSans-2e" transform="translate(147.412109 0)"/>
       <use xlink:href="#DejaVuSans-32" transform="translate(179.199219 0)"/>
      </g>
     </g>
    </g>
    <g id="ytick_5">
     <g id="line2d_21">
      <path d="M 59.258 172.1 
L 997.2 172.1 
" clip-path="url(#p80e74be024)" style="fill: none; stroke: #b0b0b0; stroke-opacity: 0.3; stroke-width: 0.8; stroke-linecap: square"/>
     </g>
     <g id="line2d_22">
      <g>
       <use xlink:href="#me36af3d1f5" x="59.258" y="172.1" style="stroke: #000000; stroke-width: 0.8"/>
      </g>
     </g>
     <g id="text_12">
      <!-- 0.0 -->
      <g transform="translate(36.354875 175.899219) scale(0.1 -0.1)">
       <use xlink:href="#DejaVuSans-30"/>
       <use xlink:href="#DejaVuSans-2e" transform="translate(63.623047 0)"/>
       <use xlink:href="#DejaVuSans-30" transform="translate(95.410156 0)"/>
      </g>
     </g>
    </g>
    <g id="ytick_6">
     <g id="line2d_23">
      <path d="M 59.258 138.481846 
L 997.2 138.481846 
" clip-path="url(#p80e74be024)" style="fill: none; stroke: #b0b0b0; stroke-opacity: 0.3; stroke-width: 0.8; stroke-linecap: square"/>
     </g>
     <g id="line2d_24">
      <g>
       <use xlink:href="#me36af3d1f5" x="59.258" y="138.481846" style="stroke: #000000; stroke-width: 0.8"/>
      </g>
     </g>
     <g id="text_13">
      <!-- 0.2 -->
      <g transform="translate(36.354875 142.281065) scale(0.1 -0.1)">
       <use xlink:href="#DejaVuSans-30"/>
       <use xlink:href="#DejaVuSans-2e" transform="translate(63.623047 0)"/>
       <use xlink:href="#DejaVuSans-32" transform="translate(95.410156 0)"/>
      </g>
     </g>
    </g>
    <g id="ytick_7">
     <g id="line2d_25">
      <path d="M 59.258 104.863692 
L 997.2 104.863692 
" clip-path="url(#p80e74be024)" style="fill: none; stroke: #b0b0b0; stroke-opacity: 0.3; stroke-width: 0.8; stroke-linecap: square"/>
     </g>
     <g id="line2d_26">
      <g>
       <use xlink:href="#me36af3d1f5" x="59.258" y="104.863692" style="stroke: #000000; stroke-width: 0.8"/>
      </g>
     </g>
     <g id="text_14">
      <!-- 0.4 -->
      <g transform="translate(36.354875 108.662911) scale(0.1 -0.1)">
       <use xlink:href="#DejaVuSans-30"/>
       <use xlink:href="#DejaVuSans-2e" transform="translate(63.623047 0)"/>
       <use xlink:href="#DejaVuSans-34" transform="translate(95.410156 0)"/>
      </g>
     </g>
    </g>
    <g id="ytick_8">
     <g id="line2d_27">
      <path d="M 59.258 71.245538 
L 997.2 71.245538 
" clip-path="url(#p80e74be024)" style="fill: none; stroke: #b0b0b0; stroke-opacity: 0.3; stroke-width: 0.8; stroke-linecap: square"/>
     </g>
     <g id="line2d_28">
      <g>
       <use xlink:href="#me36af3d1f5" x="59.258" y="71.245538" style="stroke: #000000; stroke-width: 0.8"/>
      </g>
     </g>
     <g id="text_15">
      <!-- 0.6 -->
      <g transform="translate(36.354875 75.044757) scale(0.1 -0.1)">
       <use xlink:href="#DejaVuSans-30"/>
       <use xlink:href="#DejaVuSans-2e" transform="translate(63.623047 0)"/>
       <use xlink:href="#DejaVuSans-36" transform="translate(95.410156 0)"/>
      </g>
     </g>
    </g>
    <g id="ytick_9">
     <g id="line2d_29">
      <path d="M 59.258 37.627384 
L 997.2 37.627384 
" clip-path="url(#p80e74be024)" style="fill: none; stroke: #b0b0b0; stroke-opacity: 0.3; stroke-width: 0.8; stroke-linecap: square"/>
     </g>
     <g id="line2d_30">
      <g>
       <use xlink:href="#me36af3d1f5" x="59.258" y="37.627384" style="stroke: #000000; stroke-width: 0.8"/>
      </g>
     </g>
     <g id="text_16">
      <!-- 0.8 -->
      <g transform="translate(36.354875 41.426603) scale(0.1 -0.1)">
       <use xlink:href="#DejaVuSans-30"/>
       <use xlink:href="#DejaVuSans-2e" transform="translate(63.623047 0)"/>
       <use xlink:href="#DejaVuSans-38" transform="translate(95.410156 0)"/>
      </g>
     </g>
    </g>
    <g id="text_17">
     <!-- $\theta_{des}$ [rad] -->
     <g transform="translate(21.687531 197.62) rotate(-90) scale(0.11 -0.11)">
      <defs>
       <path id="DejaVuSans-Oblique-3b8" d="M 2913 2219 
L 925 2219 
Q 791 1284 928 888 
Q 1100 400 1566 400 
Q 2034 400 2391 891 
Q 2703 1322 2913 2219 
z
M 3009 2750 
Q 3094 3638 2984 3950 
Q 2813 4444 2353 4444 
Q 1875 4444 1525 3956 
Q 1250 3563 1034 2750 
L 3009 2750 
z
M 2444 4913 
Q 3194 4913 3494 4250 
Q 3794 3591 3566 2422 
Q 3341 1256 2781 594 
Q 2225 -72 1475 -72 
Q 722 -72 425 594 
Q 128 1256 353 2422 
Q 581 3591 1134 4250 
Q 1691 4913 2444 4913 
z
" transform="scale(0.015625)"/>
       <path id="DejaVuSans-Oblique-64" d="M 2675 525 
Q 2444 222 2128 65 
Q 1813 -91 1428 -91 
Q 903 -91 598 267 
Q 294 625 294 1247 
Q 294 1766 478 2236 
Q 663 2706 1013 3078 
Q 1244 3325 1534 3454 
Q 1825 3584 2144 3584 
Q 2481 3584 2739 3421 
Q 2997 3259 3138 2956 
L 3513 4863 
L 4091 4863 
L 3144 0 
L 2566 0 
L 2675 525 
z
M 891 1350 
Q 891 897 1095 644 
Q 1300 391 1663 391 
Q 1931 391 2161 520 
Q 2391 650 2566 903 
Q 2750 1166 2856 1509 
Q 2963 1853 2963 2188 
Q 2963 2622 2758 2865 
Q 2553 3109 2194 3109 
Q 1922 3109 1687 2981 
Q 1453 2853 1288 2613 
Q 1106 2353 998 2009 
Q 891 1666 891 1350 
z
" transform="scale(0.015625)"/>
       <path id="DejaVuSans-Oblique-65" d="M 3078 2063 
Q 3088 2113 3092 2166 
Q 3097 2219 3097 2272 
Q 3097 2653 2873 2875 
Q 2650 3097 2266 3097 
Q 1838 3097 1509 2826 
Q 1181 2556 1013 2059 
L 3078 2063 
z
M 3578 1613 
L 903 1613 
Q 884 1494 878 1425 
Q 872 1356 872 1306 
Q 872 872 1139 634 
Q 1406 397 1894 397 
Q 2269 397 2603 481 
Q 2938 566 3225 728 
L 3116 159 
Q 2806 34 2476 -28 
Q 2147 -91 1806 -91 
Q 1078 -91 686 257 
Q 294 606 294 1247 
Q 294 1794 489 2264 
Q 684 2734 1063 3103 
Q 1306 3334 1642 3459 
Q 1978 3584 2356 3584 
Q 2950 3584 3301 3228 
Q 3653 2872 3653 2272 
Q 3653 2128 3634 1964 
Q 3616 1800 3578 1613 
z
" transform="scale(0.015625)"/>
       <path id="DejaVuSans-Oblique-73" d="M 3200 3397 
L 3091 2853 
Q 2863 2978 2609 3040 
Q 2356 3103 2088 3103 
Q 1634 3103 1373 2948 
Q 1113 2794 1113 2528 
Q 1113 2219 1719 2053 
Q 1766 2041 1788 2034 
L 1972 1978 
Q 2547 1819 2739 1644 
Q 2931 1469 2931 1166 
Q 2931 609 2489 259 
Q 2047 -91 1331 -91 
Q 1053 -91 747 -37 
Q 441 16 72 128 
L 184 722 
Q 500 559 806 475 
Q 1113 391 1394 391 
Q 1816 391 2080 572 
Q 2344 753 2344 1031 
Q 2344 1331 1650 1516 
L 1591 1531 
L 1394 1581 
Q 956 1697 753 1886 
Q 550 2075 550 2369 
Q 550 2928 970 3256 
Q 1391 3584 2113 3584 
Q 2397 3584 2667 3537 
Q 2938 3491 3200 3397 
z
" transform="scale(0.015625)"/>
       <path id="DejaVuSans-72" d="M 2631 2963 
Q 2534 3019 2420 3045 
Q 2306 3072 2169 3072 
Q 1681 3072 1420 2755 
Q 1159 2438 1159 1844 
L 1159 0 
L 581 0 
L 581 3500 
L 1159 3500 
L 1159 2956 
Q 1341 3275 1631 3429 
Q 1922 3584 2338 3584 
Q 2397 3584 2469 3576 
Q 2541 3569 2628 3553 
L 2631 2963 
z
" transform="scale(0.015625)"/>
       <path id="DejaVuSans-61" d="M 2194 1759 
Q 1497 1759 1228 1600 
Q 959 1441 959 1056 
Q 959 750 1161 570 
Q 1363 391 1709 391 
Q 2188 391 2477 730 
Q 2766 1069 2766 1631 
L 2766 1759 
L 2194 1759 
z
M 3341 1997 
L 3341 0 
L 2766 0 
L 2766 531 
Q 2569 213 2275 61 
Q 1981 -91 1556 -91 
Q 1019 -91 701 211 
Q 384 513 384 1019 
Q 384 1609 779 1909 
Q 1175 2209 1959 2209 
L 2766 2209 
L 2766 2266 
Q 2766 2663 2505 2880 
Q 2244 3097 1772 3097 
Q 1472 3097 1187 3025 
Q 903 2953 641 2809 
L 641 3341 
Q 956 3463 1253 3523 
Q 1550 3584 1831 3584 
Q 2591 3584 2966 3190 
Q 3341 2797 3341 1997 
z
" transform="scale(0.015625)"/>
       <path id="DejaVuSans-64" d="M 2906 2969 
L 2906 4863 
L 3481 4863 
L 3481 0 
L 2906 0 
L 2906 525 
Q 2725 213 2448 61 
Q 2172 -91 1784 -91 
Q 1150 -91 751 415 
Q 353 922 353 1747 
Q 353 2572 751 3078 
Q 1150 3584 1784 3584 
Q 2172 3584 2448 3432 
Q 2725 3281 2906 2969 
z
M 947 1747 
Q 947 1113 1208 752 
Q 1469 391 1925 391 
Q 2381 391 2643 752 
Q 2906 1113 2906 1747 
Q 2906 2381 2643 2742 
Q 2381 3103 1925 3103 
Q 1469 3103 1208 2742 
Q 947 2381 947 1747 
z
" transform="scale(0.015625)"/>
      </defs>
      <use xlink:href="#DejaVuSans-Oblique-3b8" transform="translate(0 0.234375)"/>
      <use xlink:href="#DejaVuSans-Oblique-64" transform="translate(61.181641 -16.171875) scale(0.7)"/>
      <use xlink:href="#DejaVuSans-Oblique-65" transform="translate(105.615234 -16.171875) scale(0.7)"/>
      <use xlink:href="#DejaVuSans-Oblique-73" transform="translate(148.681641 -16.171875) scale(0.7)"/>
      <use xlink:href="#DejaVuSans-20" transform="translate(187.885742 0.234375)"/>
      <use xlink:href="#DejaVuSans-5b" transform="translate(219.672852 0.234375)"/>
      <use xlink:href="#DejaVuSans-72" transform="translate(258.686523 0.234375)"/>
      <use xlink:href="#DejaVuSans-61" transform="translate(299.799805 0.234375)"/>
      <use xlink:href="#DejaVuSans-64" transform="translate(361.079102 0.234375)"/>
      <use xlink:href="#DejaVuSans-5d" transform="translate(424.555664 0.234375)"/>
     </g>
    </g>
   </g>
   <g id="line2d_31">
    <path d="M 101.891727 40.081818 
L 107.012896 40.081818 
L 107.866424 304.118182 
L 111.280536 304.118182 
L 112.134064 102.411605 
L 112.987592 40.081818 
L 113.84112 40.081818 
L 114.694648 40.648235 
L 115.548176 86.279463 
L 116.401705 150.203511 
L 117.255233 95.890874 
L 118.108761 53.807704 
L 118.962289 56.573469 
L 119.815817 89.450327 
L 121.522873 180.081892 
L 122.376401 230.597512 
L 123.229929 287.85935 
L 124.083457 290.929323 
L 124.936985 266.451078 
L 125.790513 221.449324 
L 126.644041 157.26272 
L 127.497569 64.98016 
L 128.351098 59.675865 
L 129.204626 65.063952 
L 130.058154 93.440388 
L 130.911682 143.753544 
L 131.76521 214.783447 
L 132.618738 240.367933 
L 133.472266 278.481328 
L 134.325794 303.704713 
L 135.179322 279.277944 
L 136.03285 229.799687 
L 136.886378 156.816405 
L 137.739906 47.550017 
L 138.593434 55.362212 
L 139.446963 59.59379 
L 140.300491 84.535094 
L 141.154019 127.49902 
L 142.007547 190.077955 
L 142.861075 210.56226 
L 144.568131 284.746908 
L 145.421659 303.571252 
L 146.275187 279.021444 
L 147.128715 232.048499 
L 147.982243 160.894937 
L 148.835771 51.692106 
L 149.689299 55.393923 
L 150.542827 53.322752 
L 151.396356 72.718592 
L 152.249884 112.858356 
L 153.103412 172.72347 
L 153.95694 243.537139 
L 154.810468 277.222543 
L 155.663996 304.118182 
L 156.517524 276.948352 
L 157.371052 219.198875 
L 159.078108 48.330535 
L 159.931636 40.081818 
L 160.785164 73.163052 
L 163.345749 280.738207 
L 164.199277 301.916833 
L 165.052805 258.593225 
L 165.906333 175.926766 
L 166.759861 80.337923 
L 167.613389 41.241434 
L 168.466917 43.375943 
L 169.320445 70.850031 
L 170.173973 127.434439 
L 171.027501 205.778357 
L 171.881029 268.605901 
L 172.734557 301.111462 
L 173.588085 273.15953 
L 174.441614 208.780824 
L 175.295142 99.565702 
L 176.14867 40.081818 
L 177.002198 51.974711 
L 177.855726 71.780188 
L 178.709254 114.80191 
L 180.41631 252.013373 
L 181.269838 304.118182 
L 182.123366 286.969555 
L 182.976894 236.594301 
L 183.830422 154.129181 
L 184.68395 40.155494 
L 185.537478 41.403833 
L 186.391007 58.061042 
L 187.244535 96.851756 
L 188.098063 157.280999 
L 188.951591 231.385786 
L 189.805119 284.142559 
L 190.658647 302.184447 
L 191.512175 261.736417 
L 192.365703 193.499986 
L 193.219231 107.967551 
L 194.072759 40.081818 
L 194.926287 50.386549 
L 195.779815 86.740341 
L 196.633343 143.693052 
L 197.486872 218.254319 
L 198.3404 276.339825 
L 199.193928 301.542836 
L 200.047456 276.535081 
L 200.900984 219.091246 
L 201.754512 134.972803 
L 202.60804 65.812992 
L 203.461568 54.474223 
L 204.315096 94.63478 
L 205.168624 163.60646 
L 206.022152 206.669933 
L 206.87568 266.346353 
L 207.729208 293.916524 
L 208.582736 266.103934 
L 209.436265 214.720635 
L 210.289793 139.478519 
L 211.996849 40.081818 
L 212.850377 69.246309 
L 214.557433 174.011089 
L 216.264489 285.961183 
L 217.118017 295.428708 
L 217.971545 278.233412 
L 218.825073 243.409824 
L 219.678601 187.927579 
L 220.532129 110.389282 
L 221.385658 69.715041 
L 222.239186 55.640551 
L 223.092714 95.013271 
L 223.946242 161.443401 
L 224.79977 213.276525 
L 225.653298 277.490011 
L 226.506826 293.285015 
L 227.360354 275.405858 
L 228.213882 242.106874 
L 229.06741 192.641981 
L 229.920938 127.227608 
L 230.774466 84.803023 
L 232.481523 40.081818 
L 233.335051 61.235551 
L 234.188579 99.238132 
L 235.042107 152.587991 
L 235.895635 223.593645 
L 237.602691 304.118182 
L 238.456219 275.245082 
L 239.309747 225.411854 
L 240.163275 154.846389 
L 241.016803 111.197814 
L 241.870331 50.611778 
L 242.723859 56.000639 
L 243.577387 85.715152 
L 244.430916 129.073939 
L 245.284444 190.400893 
L 246.9915 294.974744 
L 247.845028 280.942832 
L 248.698556 244.138928 
L 250.405612 141.401119 
L 251.25914 95.143152 
L 252.112668 40.098741 
L 252.966196 62.621105 
L 253.819724 104.341848 
L 254.673252 163.810541 
L 257.233837 304.118182 
L 258.087365 273.809212 
L 258.940893 236.716944 
L 259.794421 183.49393 
L 260.647949 114.083433 
L 261.501477 86.844115 
L 262.355005 43.928005 
L 263.208533 40.081818 
L 264.062061 41.640176 
L 264.915589 59.81764 
L 265.769117 86.796818 
L 266.622645 121.79851 
L 267.476174 166.347378 
L 268.329702 223.687657 
L 269.18323 293.234047 
L 270.036758 298.147737 
L 270.890286 287.920078 
L 271.743814 267.414709 
L 272.597342 235.573557 
L 273.45087 191.527736 
L 275.157926 83.590009 
L 276.011454 41.906166 
L 276.864982 40.548348 
L 277.71851 50.624688 
L 278.572038 77.969357 
L 279.425567 124.062718 
L 281.132623 252.498923 
L 281.986151 301.26785 
L 282.839679 290.818736 
L 283.693207 250.2003 
L 285.400263 132.324779 
L 286.253791 76.912379 
L 287.107319 56.819219 
L 287.960847 49.473526 
L 288.814375 79.612564 
L 289.667903 127.513209 
L 290.521432 193.966379 
L 291.37496 240.356484 
L 292.228488 304.118182 
L 293.082016 289.775112 
L 293.935544 269.724358 
L 294.789072 236.334757 
L 295.6426 189.087452 
L 296.496128 128.361929 
L 298.203184 57.973949 
L 299.056712 40.081818 
L 299.91024 47.051754 
L 300.763768 67.38271 
L 301.617296 101.141234 
L 302.470825 150.19212 
L 303.324353 215.192173 
L 305.031409 302.158757 
L 305.884937 302.600473 
L 306.738465 258.64579 
L 308.445521 136.674723 
L 309.299049 81.149914 
L 310.152577 61.220554 
L 311.006105 44.423237 
L 311.859633 68.536977 
L 312.713161 108.48406 
L 313.56669 167.529376 
L 315.273746 264.585551 
L 316.127274 292.496045 
L 316.980802 265.887048 
L 317.83433 225.559493 
L 318.687858 170.283396 
L 321.248442 46.813514 
L 322.10197 40.081818 
L 322.955498 40.081818 
L 323.809026 44.798242 
L 324.662554 63.561771 
L 325.516083 93.960408 
L 326.369611 137.671747 
L 328.076667 255.301895 
L 328.930195 291.361536 
L 329.783723 294.471049 
L 330.637251 288.449846 
L 331.490779 270.916353 
L 332.344307 239.784564 
L 333.197835 193.594236 
L 334.051363 129.383496 
L 334.904891 104.38414 
L 335.758419 66.673471 
L 336.611947 40.409082 
L 337.465476 58.421345 
L 338.319004 96.818257 
L 340.879588 267.047567 
L 341.733116 297.094357 
L 342.586644 290.427027 
L 343.440172 250.579068 
L 344.2937 187.910715 
L 345.147228 147.516581 
L 346.000756 94.021035 
L 346.854284 86.562696 
L 347.707812 71.736757 
L 348.561341 63.962623 
L 349.414869 65.137751 
L 350.268397 78.063486 
L 351.121925 102.411647 
L 351.975453 139.522972 
L 352.828981 190.683753 
L 353.682509 234.717701 
L 355.389565 295.141056 
L 356.243093 296.876694 
L 357.096621 267.425533 
L 359.657205 125.19765 
L 361.364262 40.081818 
L 362.21779 47.734492 
L 363.071318 64.943149 
L 363.924846 101.931072 
L 364.778374 158.193538 
L 367.338958 292.675058 
L 368.192486 304.118182 
L 369.046014 298.623204 
L 369.899542 279.875884 
L 370.75307 249.081379 
L 371.606599 206.918752 
L 372.460127 152.833181 
L 373.313655 116.871271 
L 375.020711 62.064132 
L 375.874239 43.035867 
L 376.727767 40.081818 
L 377.581295 93.559589 
L 378.434823 167.357434 
L 379.288351 210.339016 
L 380.141879 260.033608 
L 380.995407 283.751751 
L 381.848935 298.779508 
L 382.702463 303.310963 
L 383.555992 297.192053 
L 384.40952 277.39932 
L 385.263048 245.637766 
L 386.116576 202.964135 
L 387.823632 100.028839 
L 388.67716 79.687579 
L 389.530688 82.567886 
L 390.384216 106.198236 
L 391.237744 148.373388 
L 392.091272 204.180408 
L 392.9448 269.929261 
L 393.798328 293.11509 
L 394.651856 302.571983 
L 395.505385 299.681427 
L 396.358913 289.375306 
L 397.212441 272.782548 
L 399.773025 207.939857 
L 401.480081 172.2336 
L 402.333609 152.482185 
L 403.187137 128.311762 
L 404.040665 94.7707 
L 404.894193 53.714579 
L 405.747721 50.167959 
L 406.60125 105.563965 
L 407.454778 176.925362 
L 408.308306 226.373532 
L 410.015362 301.674872 
L 410.86889 299.822763 
L 411.722418 267.130409 
L 412.575946 210.365445 
L 414.283002 112.052468 
L 415.13653 101.527386 
L 415.990058 105.001063 
L 416.843586 127.223687 
L 420.257699 292.180694 
L 421.111227 303.439 
L 421.964755 277.161891 
L 422.818283 225.394595 
L 423.671811 165.221553 
L 425.378867 74.07199 
L 426.232395 49.510632 
L 427.085923 62.853916 
L 427.939451 101.686938 
L 428.792979 167.573967 
L 429.646508 211.25574 
L 430.500036 262.449324 
L 431.353564 304.118182 
L 432.207092 300.587107 
L 433.06062 268.378026 
L 434.767676 159.490958 
L 435.621204 128.125359 
L 436.474732 103.183797 
L 437.32826 85.107078 
L 438.181788 77.69116 
L 439.035316 79.865605 
L 439.888844 90.352073 
L 440.742372 104.924014 
L 445.010013 192.511478 
L 445.863541 214.56115 
L 446.717069 241.448255 
L 447.570597 280.350734 
L 448.424125 286.643573 
L 449.277653 230.487544 
L 450.131181 185.671162 
L 450.984709 150.398794 
L 451.838237 110.007878 
L 452.691765 63.855319 
L 453.545294 40.583708 
L 454.398822 53.79321 
L 455.25235 89.00091 
L 456.959406 205.834035 
L 458.666462 292.408684 
L 459.51999 298.309182 
L 460.373518 279.953784 
L 461.227046 240.281415 
L 462.080574 182.234829 
L 462.934102 146.406557 
L 463.78763 126.561461 
L 464.641159 110.717793 
L 465.494687 104.479023 
L 466.348215 109.787998 
L 467.201743 129.760646 
L 468.055271 164.453438 
L 468.908799 216.697821 
L 469.762327 247.564267 
L 470.615855 265.61362 
L 471.469383 268.011644 
L 472.322911 255.731207 
L 473.176439 230.044529 
L 474.029967 192.169064 
L 474.883495 143.222468 
L 475.737023 131.619125 
L 476.590552 129.178035 
L 477.44408 138.744525 
L 478.297608 160.026544 
L 479.151136 192.185573 
L 480.004664 236.750354 
L 480.858192 258.862595 
L 481.71172 270.320904 
L 482.565248 272.91458 
L 483.418776 266.623319 
L 484.272304 251.381041 
L 485.125832 228.772817 
L 488.539945 90.927962 
L 489.393473 63.298144 
L 490.247001 40.081818 
L 491.100529 80.543588 
L 491.954057 150.445208 
L 493.661113 258.737073 
L 494.514641 304.118182 
L 495.368169 260.295362 
L 496.221697 227.840037 
L 498.782281 194.106247 
L 499.63581 180.475155 
L 500.489338 170.005851 
L 501.342866 162.605752 
L 502.196394 163.074761 
L 503.049922 176.579799 
L 504.756978 223.498758 
L 507.317562 284.821531 
L 508.17109 304.118182 
L 509.024618 274.580172 
L 509.878146 232.74921 
L 510.731674 178.814818 
L 511.585203 168.563496 
L 513.292259 142.817745 
L 514.145787 131.358501 
L 514.999315 121.767006 
L 515.852843 114.586439 
L 516.706371 109.812142 
L 517.559899 106.008733 
L 518.413427 109.480048 
L 519.266955 123.227314 
L 520.120483 147.729957 
L 521.827539 206.377461 
L 524.388124 286.678591 
L 525.241652 294.405365 
L 526.09518 266.598086 
L 526.948708 234.711331 
L 527.802236 217.509718 
L 528.655764 206.942239 
L 529.509292 208.605503 
L 530.36282 220.911652 
L 531.216348 235.678133 
L 532.923404 270.878567 
L 533.776932 279.713526 
L 534.630461 286.741976 
L 535.483989 296.462901 
L 536.337517 304.118182 
L 537.191045 267.453461 
L 538.044573 220.985031 
L 538.898101 189.579375 
L 539.751629 171.753649 
L 540.605157 157.57031 
L 544.872797 106.682396 
L 545.726326 98.07749 
L 546.579854 95.248412 
L 547.433382 97.105684 
L 548.28691 101.466766 
L 549.140438 113.845738 
L 551.701022 179.670257 
L 552.55455 204.054727 
L 553.408078 222.742395 
L 554.261606 233.993329 
L 556.82219 258.7315 
L 557.675719 271.640961 
L 559.382775 304.118182 
L 560.236303 272.114002 
L 561.089831 226.712727 
L 561.943359 217.553341 
L 565.357471 140.551344 
L 567.064527 106.304404 
L 568.771583 75.537373 
L 570.47864 47.158833 
L 571.332168 62.628586 
L 572.185696 114.074579 
L 573.892752 253.031408 
L 574.74628 304.118182 
L 575.599808 304.118182 
L 576.453336 300.128754 
L 577.306864 274.558921 
L 579.01392 178.597132 
L 580.720977 117.260554 
L 582.428033 53.418384 
L 583.281561 50.700695 
L 584.135089 84.042398 
L 584.988617 141.786843 
L 585.842145 213.50441 
L 586.695673 274.043453 
L 587.549201 304.118182 
L 588.402729 273.383572 
L 589.256257 208.059688 
L 590.109785 172.138367 
L 591.816841 117.951401 
L 592.67037 96.433418 
L 593.523898 81.648453 
L 594.377426 73.269245 
L 595.230954 74.753138 
L 596.084482 84.721635 
L 596.93801 101.707103 
L 598.645066 142.634148 
L 600.352122 187.077353 
L 601.20565 205.338141 
L 602.059178 220.9272 
L 604.619763 261.306109 
L 606.326819 295.651988 
L 607.180347 295.176968 
L 608.033875 263.436756 
L 608.887403 213.292599 
L 609.740931 172.506693 
L 611.447987 114.584295 
L 613.155043 64.258365 
L 614.008571 42.654822 
L 614.862099 59.539037 
L 615.715628 91.600302 
L 616.569156 139.755179 
L 618.276212 266.312313 
L 619.12974 304.118182 
L 619.983268 294.645229 
L 620.836796 263.441918 
L 621.690324 204.727978 
L 622.543852 174.611714 
L 623.39738 124.768623 
L 624.250908 92.358178 
L 625.104436 81.176112 
L 625.957964 79.75337 
L 626.811492 89.575885 
L 627.665021 111.688228 
L 628.518549 147.847519 
L 629.372077 199.016712 
L 630.225605 263.747844 
L 631.079133 290.283411 
L 631.932661 304.118182 
L 632.786189 304.118182 
L 633.639717 290.553714 
L 634.493245 259.899326 
L 635.346773 215.139272 
L 636.200301 158.112715 
L 637.053829 109.308 
L 637.907357 89.533786 
L 638.760886 79.415365 
L 639.614414 80.998762 
L 640.467942 93.050418 
L 641.32147 114.766207 
L 643.028526 171.783693 
L 644.735582 235.903259 
L 646.442638 292.663774 
L 647.296166 294.855166 
L 648.149694 268.945705 
L 649.003222 229.041046 
L 649.85675 175.413363 
L 650.710279 128.805624 
L 651.563807 108.466757 
L 653.270863 78.065283 
L 654.124391 64.951873 
L 654.977919 48.528479 
L 655.831447 53.673001 
L 656.684975 79.740468 
L 657.538503 120.527639 
L 658.392031 177.382046 
L 660.099087 259.845337 
L 660.952615 299.939551 
L 661.806144 302.384995 
L 662.659672 277.648474 
L 663.5132 230.922349 
L 665.220256 113.864601 
L 666.927312 67.071374 
L 667.78084 49.167452 
L 668.634368 56.001591 
L 669.487896 104.876145 
L 670.341424 177.220547 
L 672.04848 293.742431 
L 672.902008 299.811411 
L 673.755537 272.422544 
L 675.462593 152.017386 
L 676.316121 116.478771 
L 677.169649 64.900473 
L 678.023177 53.64835 
L 678.876705 96.819257 
L 679.730233 164.542482 
L 680.583761 209.198052 
L 681.437289 269.439222 
L 682.290817 304.118182 
L 683.144345 284.293657 
L 683.997873 249.834863 
L 684.851401 195.887895 
L 685.70493 157.00692 
L 686.558458 110.979585 
L 687.411986 71.984661 
L 688.265514 56.515065 
L 689.119042 44.537286 
L 689.97257 40.081818 
L 690.826098 54.759949 
L 691.679626 103.547817 
L 692.533154 171.567061 
L 694.24021 271.638406 
L 695.093738 304.118182 
L 695.947266 262.75273 
L 696.800795 204.937996 
L 697.654323 167.496618 
L 698.507851 119.769766 
L 700.214907 70.855357 
L 701.068435 44.270792 
L 701.921963 54.744122 
L 702.775491 79.040586 
L 703.629019 115.678533 
L 704.482547 165.014249 
L 705.336075 226.503995 
L 707.043131 297.023578 
L 707.896659 294.034017 
L 708.750188 267.716699 
L 709.603716 224.432748 
L 710.457244 163.856357 
L 713.017828 40.081818 
L 713.871356 55.121049 
L 714.724884 100.061581 
L 717.285468 289.295885 
L 718.138996 298.283376 
L 718.992524 268.583426 
L 720.699581 166.837312 
L 721.553109 132.870562 
L 722.406637 92.16584 
L 723.260165 45.091563 
L 724.113693 72.716639 
L 724.967221 119.592072 
L 725.820749 184.671598 
L 726.674277 219.848358 
L 727.527805 267.228786 
L 728.381333 304.118182 
L 729.234861 261.920571 
L 731.795446 91.67728 
L 732.648974 56.051639 
L 733.502502 49.534738 
L 734.35603 62.790314 
L 735.209558 88.452442 
L 736.063086 126.479535 
L 736.916614 176.296521 
L 737.770142 237.020514 
L 738.62367 276.801626 
L 739.477198 304.118182 
L 740.330726 283.564581 
L 741.184254 239.483686 
L 742.89131 117.400585 
L 743.744839 67.032429 
L 744.598367 40.144881 
L 745.451895 74.182337 
L 746.305423 129.005689 
L 747.158951 196.052969 
L 748.012479 243.624352 
L 748.866007 298.429759 
L 749.719535 293.512134 
L 750.573063 255.388319 
L 753.133647 76.123894 
L 753.987175 54.899647 
L 754.840704 43.802951 
L 755.694232 69.068695 
L 756.54776 111.432774 
L 757.401288 170.908394 
L 758.254816 221.351301 
L 759.961872 304.118182 
L 760.8154 301.689082 
L 761.668928 295.701592 
L 762.522456 277.858912 
L 763.375984 244.80895 
L 764.229512 196.017776 
L 765.08304 131.1045 
L 766.790097 43.704999 
L 767.643625 72.786314 
L 768.497153 135.998843 
L 769.350681 174.685395 
L 771.057737 293.198595 
L 771.911265 288.861507 
L 772.764793 270.596334 
L 773.618321 236.06832 
L 774.471849 184.133647 
L 775.325377 114.565267 
L 777.032433 40.081818 
L 777.885962 79.094285 
L 779.593018 195.196109 
L 780.446546 250.39875 
L 781.300074 285.846969 
L 782.153602 300.828546 
L 783.00713 304.118182 
L 783.860658 304.118182 
L 784.714186 301.031297 
L 785.567714 286.944854 
L 786.421242 265.491998 
L 787.27477 238.190637 
L 788.128298 204.824367 
L 788.981826 164.905857 
L 789.835355 118.54891 
L 790.688883 62.739536 
L 791.542411 54.900209 
L 792.395939 87.327883 
L 793.249467 138.943329 
L 794.102995 210.251507 
L 794.956523 240.891683 
L 795.810051 293.443687 
L 796.663579 291.516491 
L 797.517107 248.716618 
L 798.370635 182.497097 
L 799.224163 139.436306 
L 800.077691 77.595864 
L 800.931219 40.081818 
L 801.784748 61.671369 
L 802.638276 93.067236 
L 803.491804 141.613612 
L 804.345332 208.275121 
L 805.19886 241.923226 
L 806.052388 286.679005 
L 806.905916 304.118182 
L 807.759444 302.635523 
L 808.612972 285.944832 
L 809.4665 254.245279 
L 810.320028 207.163814 
L 812.027084 82.307964 
L 812.880613 42.132337 
L 813.734141 53.352481 
L 814.587669 74.510385 
L 815.441197 112.626088 
L 816.294725 167.273314 
L 817.148253 238.839254 
L 818.001781 274.662619 
L 818.855309 304.118182 
L 819.708837 302.724469 
L 820.562365 279.885476 
L 821.415893 240.58184 
L 822.269421 183.165353 
L 823.122949 107.586857 
L 823.976477 60.943516 
L 824.830006 43.316895 
L 825.683534 45.943013 
L 826.537062 63.454016 
L 827.39059 97.055077 
L 828.244118 146.282719 
L 829.097646 211.245951 
L 830.804702 303.171762 
L 831.65823 296.244673 
L 832.511758 268.560659 
L 833.365286 218.164423 
L 834.218814 145.011112 
L 835.072342 86.34098 
L 835.925871 40.081818 
L 836.779399 69.905318 
L 838.486455 206.300524 
L 839.339983 278.260743 
L 840.193511 302.359789 
L 841.047039 290.013542 
L 841.900567 255.566495 
L 842.754095 197.646328 
L 844.461151 58.60648 
L 845.314679 56.885082 
L 846.168207 89.179991 
L 848.728792 264.649591 
L 849.58232 292.500499 
L 850.435848 262.53057 
L 852.996432 81.008808 
L 853.84996 40.081818 
L 854.703488 66.625019 
L 855.557016 113.984374 
L 856.410544 187.583756 
L 857.264072 223.214909 
L 858.1176 280.992491 
L 858.971128 285.095009 
L 859.824657 239.843407 
L 860.678185 164.239458 
L 861.531713 115.741834 
L 862.385241 60.890855 
L 863.238769 59.906087 
L 864.945825 166.708475 
L 866.652881 291.724534 
L 867.506409 288.732913 
L 868.359937 254.64351 
L 870.066993 140.31537 
L 871.77405 40.081818 
L 872.627578 69.850411 
L 873.481106 135.655175 
L 874.334634 192.443847 
L 875.188162 262.57534 
L 876.04169 298.724962 
L 876.895218 284.362407 
L 877.748746 243.827498 
L 878.602274 175.824299 
L 880.30933 62.592786 
L 881.162858 52.040312 
L 882.869915 166.406361 
L 883.723443 237.839079 
L 884.576971 295.545705 
L 885.430499 285.85699 
L 886.284027 246.618734 
L 887.137555 176.849723 
L 887.991083 130.242579 
L 888.844611 71.907607 
L 889.698139 50.838973 
L 890.551667 99.734993 
L 892.258723 239.584028 
L 893.112251 287.679981 
L 893.96578 295.495172 
L 894.819308 262.843338 
L 895.672836 197.351325 
L 897.379892 79.687195 
L 898.23342 40.081818 
L 899.086948 85.150412 
L 899.940476 165.884904 
L 900.794004 220.651143 
L 901.647532 266.628119 
L 902.50106 295.388313 
L 903.354588 290.883683 
L 904.208116 246.58044 
L 905.061644 169.698089 
L 905.915173 124.712948 
L 906.768701 58.027066 
L 907.622229 56.995964 
L 909.329285 160.508184 
L 910.182813 230.02267 
L 911.036341 260.64335 
L 911.889869 283.354219 
L 912.743397 296.065173 
L 913.596925 298.935535 
L 914.450453 290.946369 
L 915.303981 272.816132 
L 916.157509 244.881489 
L 917.011037 209.074738 
L 917.864566 166.296337 
L 919.571622 63.63894 
L 920.42515 40.081818 
L 921.278678 40.081818 
L 922.132206 61.879779 
L 922.985734 100.72457 
L 923.839262 153.874909 
L 924.69279 220.299583 
L 925.546318 243.638047 
L 926.399846 257.566446 
L 927.253374 259.408522 
L 928.106902 251.084789 
L 928.960431 233.352513 
L 929.813959 207.284487 
L 930.667487 174.13203 
L 932.374543 91.74153 
L 933.228071 42.856084 
L 934.081599 81.231412 
L 936.642183 235.965237 
L 937.495711 254.83539 
L 938.349239 263.313493 
L 939.202767 261.548736 
L 940.056295 249.99102 
L 940.909824 229.234866 
L 941.763352 199.934782 
L 942.61688 162.757758 
L 943.470408 118.356342 
L 944.323936 67.353705 
L 945.177464 52.373431 
L 946.88452 154.520581 
L 947.738048 219.212824 
L 948.591576 242.302199 
L 949.445104 258.80255 
L 950.298632 266.751005 
L 951.15216 265.85447 
L 952.005689 300.33934 
L 952.859217 300.096178 
L 953.712745 287.228141 
L 954.566273 227.158744 
L 954.566273 227.158744 
" clip-path="url(#p80e74be024)" style="fill: none; stroke: #2ca02c; stroke-width: 1.2; stroke-linecap: square"/>
   </g>
   <g id="line2d_32">
    <path d="M 101.891727 40.081818 
L 107.012896 40.081818 
L 107.866424 304.118182 
L 111.280536 304.118182 
L 112.134064 282.673204 
L 112.987592 40.081818 
L 116.401705 40.081818 
L 117.255233 304.118182 
L 118.108761 304.118182 
L 118.962289 40.810164 
L 119.815817 91.247295 
L 120.669345 115.549125 
L 121.522873 124.560571 
L 122.376401 142.51009 
L 123.229929 143.450261 
L 124.083457 154.564697 
L 124.936985 151.916282 
L 125.790513 156.197879 
L 126.644041 147.066258 
L 127.497569 145.544268 
L 128.351098 132.731521 
L 129.204626 128.704433 
L 130.058154 113.586932 
L 130.911682 125.585002 
L 131.76521 140.241066 
L 132.618738 144.03243 
L 133.472266 127.998013 
L 134.325794 141.556999 
L 135.179322 148.937817 
L 136.03285 170.070728 
L 136.886378 172.044432 
L 137.739906 172.859549 
L 138.593434 182.922903 
L 139.446963 178.424144 
L 140.300491 177.885639 
L 141.154019 165.264016 
L 142.007547 158.20638 
L 142.861075 139.53251 
L 143.714603 135.243098 
L 144.568131 132.764313 
L 145.421659 138.226354 
L 146.275187 146.197866 
L 147.982243 173.537696 
L 148.835771 183.426116 
L 149.689299 186.247201 
L 150.542827 182.658859 
L 151.396356 176.331318 
L 152.249884 168.509792 
L 153.103412 169.623384 
L 153.95694 170.544471 
L 156.517524 155.240899 
L 157.371052 156.245248 
L 158.22458 158.567141 
L 159.078108 160.354763 
L 159.931636 168.499241 
L 160.785164 175.136797 
L 162.49222 196.068051 
L 163.345749 193.304005 
L 164.199277 195.65495 
L 165.906333 179.595158 
L 168.466917 139.395023 
L 169.320445 141.121427 
L 170.173973 137.715703 
L 171.027501 136.82634 
L 171.881029 124.296297 
L 172.734557 131.457356 
L 174.441614 132.458966 
L 175.295142 133.00696 
L 176.14867 133.359219 
L 177.002198 133.969757 
L 177.855726 135.516684 
L 178.709254 138.132434 
L 180.41631 147.318456 
L 182.123366 158.203614 
L 182.976894 160.516208 
L 183.830422 152.113114 
L 184.68395 153.209557 
L 185.537478 158.543563 
L 186.391007 154.494271 
L 187.244535 160.267376 
L 188.098063 156.994315 
L 188.951591 163.128871 
L 189.805119 160.609675 
L 190.658647 167.935578 
L 191.512175 166.797523 
L 192.365703 176.02725 
L 193.219231 176.724263 
L 194.072759 188.090571 
L 194.926287 189.846332 
L 195.779815 202.325315 
L 197.486872 208.48261 
L 198.3404 195.92752 
L 199.193928 176.931256 
L 200.047456 174.237907 
L 200.900984 162.792663 
L 201.754512 160.162709 
L 202.60804 149.18477 
L 203.461568 147.715551 
L 204.315096 138.042315 
L 205.168624 137.545922 
L 206.022152 129.289413 
L 206.87568 131.073666 
L 207.729208 125.240575 
L 208.582736 129.4542 
L 209.436265 126.661317 
L 210.289793 134.765795 
L 211.143321 135.17536 
L 211.996849 145.138532 
L 212.850377 147.326537 
L 213.703905 159.618043 
L 214.557433 164.558 
L 215.410961 179.952212 
L 216.264489 187.714896 
L 217.118017 186.257611 
L 217.971545 183.975626 
L 220.532129 148.374676 
L 221.385658 142.089668 
L 222.239186 134.540852 
L 223.092714 129.438937 
L 223.946242 122.421336 
L 224.79977 118.66608 
L 225.653298 114.113088 
L 226.506826 113.150965 
L 227.360354 111.954247 
L 229.06741 119.089475 
L 230.774466 135.033938 
L 233.335051 169.582479 
L 234.188579 167.882274 
L 235.042107 173.191979 
L 235.895635 169.368634 
L 236.749163 172.563879 
L 237.602691 167.713289 
L 238.456219 170.251245 
L 239.309747 165.19697 
L 240.163275 167.510318 
L 241.016803 162.965983 
L 241.870331 166.568338 
L 242.723859 164.017826 
L 243.577387 170.249761 
L 244.430916 170.862512 
L 245.284444 180.039976 
L 246.137972 184.190897 
L 246.9915 184.580297 
L 247.845028 179.537499 
L 248.698556 173.703841 
L 249.552084 164.577426 
L 250.405612 156.78999 
L 251.25914 147.319359 
L 254.673252 116.94853 
L 256.380309 107.211415 
L 257.233837 105.759535 
L 258.087365 104.60147 
L 258.940893 107.589452 
L 259.794421 111.028602 
L 261.501477 126.815986 
L 263.208533 154.011074 
L 264.062061 158.901802 
L 264.915589 152.759903 
L 265.769117 149.032432 
L 266.622645 146.375785 
L 267.476174 151.878747 
L 268.329702 152.687637 
L 269.18323 162.411356 
L 270.036758 167.627344 
L 270.890286 179.240003 
L 271.743814 174.114628 
L 272.597342 173.154744 
L 273.45087 163.637276 
L 274.304398 158.477642 
L 275.157926 145.025626 
L 276.011454 143.387792 
L 276.864982 133.9162 
L 277.71851 135.388122 
L 278.572038 132.302948 
L 279.425567 138.276603 
L 280.279095 140.049711 
L 281.132623 151.314215 
L 281.986151 159.463378 
L 282.839679 164.907798 
L 283.693207 165.166669 
L 284.546735 164.337295 
L 285.400263 162.233282 
L 286.253791 159.625036 
L 287.107319 153.48652 
L 288.814375 145.814698 
L 289.667903 152.054484 
L 290.521432 161.405685 
L 291.37496 165.350492 
L 292.228488 160.667331 
L 293.082016 157.896275 
L 293.935544 152.947887 
L 294.789072 163.069362 
L 295.6426 159.288268 
L 296.496128 149.024987 
L 298.203184 138.625038 
L 299.056712 145.992489 
L 299.91024 150.799895 
L 300.763768 153.221624 
L 301.617296 160.066627 
L 302.470825 167.875504 
L 303.324353 176.809264 
L 304.177881 162.933909 
L 305.031409 160.056932 
L 305.884937 161.65955 
L 306.738465 165.009994 
L 308.445521 167.141949 
L 309.299049 178.055365 
L 310.152577 185.842316 
L 311.006105 184.387691 
L 311.859633 182.621249 
L 312.713161 179.877414 
L 314.420218 173.40743 
L 315.273746 170.705838 
L 316.127274 169.030167 
L 316.980802 168.854816 
L 317.83433 170.624118 
L 318.687858 171.012403 
L 319.541386 169.007747 
L 320.394914 167.362161 
L 321.248442 166.495253 
L 322.10197 166.845901 
L 322.955498 169.217867 
L 323.809026 169.10839 
L 324.662554 168.440089 
L 325.516083 168.15129 
L 326.369611 168.670824 
L 327.223139 170.432093 
L 328.076667 173.857169 
L 330.637251 193.326069 
L 331.490779 187.100421 
L 332.344307 186.289554 
L 333.197835 185.194018 
L 334.051363 184.328774 
L 334.904891 184.211943 
L 335.758419 184.563344 
L 336.611947 180.956915 
L 337.465476 178.672937 
L 338.319004 177.529015 
L 339.172532 177.809414 
L 340.02606 179.026521 
L 340.879588 181.784613 
L 341.733116 176.772462 
L 342.586644 174.441233 
L 343.440172 170.637168 
L 344.2937 168.922321 
L 345.147228 166.602868 
L 346.000756 168.02474 
L 346.854284 171.220156 
L 347.707812 179.395961 
L 348.561341 189.501924 
L 350.268397 195.022667 
L 351.121925 201.822967 
L 351.975453 204.167266 
L 352.828981 214.522775 
L 353.682509 218.502356 
L 355.389565 222.434005 
L 356.243093 226.749956 
L 357.096621 223.341116 
L 357.950149 217.913108 
L 358.803677 202.901833 
L 359.657205 192.041057 
L 360.510734 189.398051 
L 361.364262 190.69359 
L 362.21779 186.1128 
L 363.071318 175.699637 
L 363.924846 171.561735 
L 364.778374 161.51116 
L 365.631902 159.545208 
L 366.48543 153.033496 
L 367.338958 155.040102 
L 368.192486 152.921869 
L 369.046014 160.315217 
L 369.899542 164.814221 
L 370.75307 178.882991 
L 371.606599 189.139346 
L 372.460127 184.316005 
L 373.313655 185.153425 
L 374.167183 185.806252 
L 375.020711 187.60448 
L 375.874239 191.116236 
L 376.727767 183.874356 
L 377.581295 174.994887 
L 378.434823 175.736422 
L 379.288351 181.088647 
L 380.141879 187.798135 
L 380.995407 177.991168 
L 381.848935 172.087079 
L 382.702463 169.232529 
L 383.555992 170.67819 
L 384.40952 183.965311 
L 385.263048 187.892367 
L 386.116576 192.827609 
L 386.970104 196.18992 
L 387.823632 187.828277 
L 388.67716 188.606972 
L 389.530688 188.501625 
L 390.384216 189.85293 
L 391.237744 192.027539 
L 392.091272 192.048414 
L 392.9448 192.655949 
L 393.798328 193.756087 
L 394.651856 195.46496 
L 395.505385 195.049651 
L 398.065969 191.958795 
L 398.919497 191.500189 
L 399.773025 192.448239 
L 400.626553 192.069802 
L 401.480081 181.995103 
L 402.333609 176.573457 
L 403.187137 164.510862 
L 404.040665 160.80798 
L 404.894193 151.112167 
L 405.747721 149.736089 
L 406.60125 143.375023 
L 407.454778 146.177818 
L 408.308306 144.887903 
L 409.161834 152.934424 
L 410.015362 157.368076 
L 410.86889 171.517225 
L 411.722418 181.903209 
L 412.575946 185.9429 
L 413.429474 184.828129 
L 414.283002 182.673746 
L 415.13653 180.061199 
L 415.990058 184.938617 
L 417.697114 183.098114 
L 418.550643 182.81843 
L 419.404171 183.556176 
L 420.257699 186.168885 
L 421.111227 190.393722 
L 421.964755 197.862067 
L 422.818283 194.384025 
L 423.671811 204.803987 
L 424.525339 209.9366 
L 426.232395 196.639413 
L 427.085923 193.232951 
L 427.939451 187.331741 
L 428.792979 183.447061 
L 429.646508 177.429782 
L 431.353564 170.789798 
L 432.207092 170.802123 
L 433.06062 169.993845 
L 433.914148 172.539529 
L 434.767676 174.288227 
L 436.474732 184.984557 
L 438.181788 204.529302 
L 439.035316 218.945538 
L 439.888844 222.468874 
L 440.742372 230.081261 
L 441.595901 234.306211 
L 442.449429 234.721222 
L 443.302957 244.080901 
L 444.156485 245.419176 
L 445.010013 249.624901 
L 445.863541 256.042542 
L 446.717069 261.252979 
L 447.570597 243.106189 
L 448.424125 221.403465 
L 449.277653 220.902667 
L 450.131181 209.547274 
L 450.984709 192.140889 
L 451.838237 179.172521 
L 452.691765 171.541491 
L 453.545294 170.281677 
L 454.398822 175.530578 
L 455.25235 181.802303 
L 456.959406 206.429465 
L 457.812934 202.561374 
L 458.666462 185.813518 
L 459.51999 182.849326 
L 460.373518 182.018311 
L 461.227046 200.202809 
L 462.080574 198.580789 
L 462.934102 206.778667 
L 463.78763 216.35824 
L 464.641159 214.782786 
L 465.494687 215.29023 
L 466.348215 227.8563 
L 467.201743 231.259626 
L 468.055271 245.469546 
L 468.908799 249.846527 
L 469.762327 258.1924 
L 470.615855 250.930755 
L 471.469383 240.085461 
L 472.322911 231.217508 
L 476.590552 196.891344 
L 477.44408 182.630546 
L 478.297608 181.442627 
L 479.151136 167.740618 
L 480.004664 167.309445 
L 480.858192 154.351106 
L 481.71172 154.664537 
L 482.565248 142.462024 
L 483.418776 143.545526 
L 484.272304 132.129395 
L 485.125832 134.014216 
L 485.97936 123.413199 
L 486.832888 126.124049 
L 487.686417 116.357795 
L 488.539945 119.908982 
L 489.393473 110.98633 
L 490.247001 115.381417 
L 491.100529 108.688216 
L 491.954057 117.216818 
L 492.807585 114.049005 
L 493.661113 124.288949 
L 494.514641 121.794516 
L 495.368169 131.939544 
L 496.221697 128.764287 
L 497.075225 139.791295 
L 497.928753 138.874684 
L 498.782281 150.928036 
L 499.63581 152.503441 
L 500.489338 165.069157 
L 501.342866 168.073078 
L 502.196394 181.688184 
L 503.049922 185.747594 
L 503.90345 200.857823 
L 504.756978 206.114831 
L 505.610506 222.479382 
L 506.464034 229.574872 
L 507.317562 238.904371 
L 508.17109 229.506452 
L 509.024618 238.863129 
L 509.878146 237.481167 
L 510.731674 235.505506 
L 512.438731 204.123473 
L 513.292259 182.4162 
L 514.145787 187.725246 
L 514.999315 197.206934 
L 516.706371 189.98282 
L 518.413427 185.354522 
L 519.266955 187.279046 
L 520.120483 165.90701 
L 520.974011 155.055305 
L 521.827539 156.957046 
L 522.681068 147.584807 
L 523.534596 171.388358 
L 524.388124 186.6989 
L 525.241652 182.056016 
L 526.09518 188.985218 
L 526.948708 181.669885 
L 527.802236 186.224095 
L 528.655764 176.773788 
L 529.509292 179.392688 
L 530.36282 168.17612 
L 531.216348 169.172747 
L 532.069876 155.907038 
L 532.923404 153.353623 
L 533.776932 136.01685 
L 534.630461 131.158664 
L 535.483989 110.149077 
L 536.337517 105.479995 
L 537.191045 81.281799 
L 538.044573 77.416534 
L 538.898101 82.261496 
L 540.605157 116.266326 
L 541.458685 128.736576 
L 542.312213 130.128367 
L 543.165741 147.213394 
L 544.019269 134.700988 
L 545.726326 123.362194 
L 546.579854 130.843186 
L 547.433382 124.460977 
L 548.28691 132.037442 
L 549.993966 121.315944 
L 550.847494 128.757167 
L 551.701022 132.766956 
L 555.115134 166.54459 
L 555.968662 175.982115 
L 556.82219 183.550528 
L 557.675719 200.472915 
L 558.529247 207.830041 
L 559.382775 226.13353 
L 561.089831 242.278318 
L 561.943359 242.456789 
L 562.796887 245.188628 
L 563.650415 245.633846 
L 564.503943 229.234184 
L 565.357471 222.549522 
L 567.064527 206.69303 
L 567.918055 203.742061 
L 568.771583 203.231583 
L 569.625112 203.521928 
L 571.332168 204.368042 
L 572.185696 204.559572 
L 573.039224 203.745574 
L 574.74628 200.815139 
L 575.599808 199.012114 
L 576.453336 196.429402 
L 577.306864 193.088009 
L 578.160392 188.99523 
L 579.01392 184.004194 
L 579.867448 192.318482 
L 580.720977 198.008997 
L 581.574505 205.63488 
L 582.428033 201.580937 
L 583.281561 207.290186 
L 584.135089 201.744471 
L 584.988617 206.098293 
L 585.842145 197.706673 
L 586.695673 199.156094 
L 587.549201 185.111397 
L 588.402729 182.789109 
L 589.256257 166.546205 
L 590.109785 162.518586 
L 590.963313 143.69501 
L 591.816841 142.280121 
L 592.67037 142.653066 
L 593.523898 158.926452 
L 594.377426 163.928501 
L 595.230954 181.785779 
L 596.084482 190.950385 
L 596.93801 212.722513 
L 597.791538 224.434723 
L 598.645066 209.377357 
L 599.498594 203.344097 
L 600.352122 205.117468 
L 602.059178 227.863651 
L 602.912706 236.515738 
L 603.766235 228.50322 
L 604.619763 222.819378 
L 605.473291 205.782741 
L 606.326819 211.83599 
L 608.033875 230.359272 
L 608.887403 221.497282 
L 609.740931 200.668582 
L 610.594459 192.048664 
L 611.447987 197.693965 
L 612.301515 193.616661 
L 613.155043 188.91633 
L 614.008571 193.1098 
L 614.862099 199.157619 
L 615.715628 202.883259 
L 616.569156 188.20671 
L 617.422684 176.166968 
L 618.276212 174.056583 
L 619.12974 165.812022 
L 619.983268 152.567893 
L 620.836796 150.987155 
L 621.690324 144.70798 
L 622.543852 142.375122 
L 623.39738 137.447331 
L 624.250908 134.96463 
L 625.104436 129.569796 
L 625.957964 125.922875 
L 626.811492 125.60458 
L 628.518549 149.007639 
L 630.225605 182.076226 
L 631.079133 182.372519 
L 631.932661 173.191446 
L 632.786189 174.143344 
L 633.639717 163.695362 
L 634.493245 159.635353 
L 635.346773 153.327171 
L 636.200301 159.818703 
L 637.053829 160.6961 
L 637.907357 156.363634 
L 638.760886 163.445074 
L 639.614414 169.273646 
L 640.467942 178.007947 
L 641.32147 184.562623 
L 642.174998 192.74927 
L 643.028526 198.784629 
L 643.882054 205.944542 
L 645.58911 213.983707 
L 646.442638 214.009543 
L 647.296166 213.330729 
L 649.003222 202.688967 
L 651.563807 173.539179 
L 652.417335 182.739673 
L 653.270863 194.268998 
L 654.124391 192.574144 
L 654.977919 189.487789 
L 655.831447 185.534849 
L 656.684975 180.254953 
L 657.538503 169.646281 
L 658.392031 166.279471 
L 659.245559 169.278692 
L 660.099087 174.34135 
L 661.806144 179.111746 
L 662.659672 180.794746 
L 663.5132 180.803518 
L 664.366728 184.379232 
L 665.220256 192.364878 
L 666.073784 198.826368 
L 666.927312 208.803809 
L 667.78084 207.326948 
L 668.634368 201.77741 
L 669.487896 203.0778 
L 670.341424 202.026645 
L 672.04848 193.172536 
L 673.755537 175.742653 
L 674.609065 171.803308 
L 675.462593 177.270995 
L 676.316121 190.530139 
L 677.169649 189.012306 
L 678.023177 189.236689 
L 678.876705 199.610004 
L 679.730233 203.72806 
L 680.583761 214.342002 
L 681.437289 217.931604 
L 682.290817 227.281557 
L 683.144345 228.827187 
L 683.997873 235.374165 
L 684.851401 233.085967 
L 685.70493 234.194514 
L 686.558458 225.304167 
L 687.411986 219.404655 
L 688.265514 203.170663 
L 689.119042 199.266822 
L 690.826098 188.366694 
L 691.679626 194.242204 
L 692.533154 197.782713 
L 693.386682 199.618576 
L 694.24021 208.902246 
L 695.093738 211.947709 
L 695.947266 221.385003 
L 696.800795 223.561755 
L 697.654323 231.119406 
L 698.507851 229.562222 
L 699.361379 231.351875 
L 700.214907 223.283034 
L 701.068435 218.864247 
L 701.921963 203.757564 
L 702.775491 190.731028 
L 703.629019 193.082709 
L 704.482547 187.550513 
L 705.336075 183.171641 
L 706.189603 184.229362 
L 707.043131 183.964799 
L 707.896659 185.464494 
L 708.750188 184.806816 
L 709.603716 184.564901 
L 711.310772 177.515752 
L 712.1643 169.896223 
L 713.017828 161.076661 
L 713.871356 155.508604 
L 714.724884 156.886186 
L 715.578412 158.680849 
L 716.43194 157.537188 
L 717.285468 147.388853 
L 718.138996 146.69245 
L 718.992524 151.621354 
L 719.846053 155.223644 
L 721.553109 164.974843 
L 722.406637 168.298487 
L 723.260165 168.736182 
L 724.113693 164.359132 
L 724.967221 156.264997 
L 725.820749 150.927068 
L 726.674277 151.042377 
L 727.527805 162.004875 
L 728.381333 170.483378 
L 729.234861 183.571247 
L 730.088389 189.579929 
L 730.941917 200.916314 
L 731.795446 203.867539 
L 732.648974 211.48672 
L 733.502502 210.47264 
L 734.35603 213.388221 
L 735.209558 207.471216 
L 736.063086 205.906437 
L 736.916614 194.998382 
L 737.770142 186.20922 
L 738.62367 176.071099 
L 739.477198 171.466604 
L 740.330726 167.806367 
L 741.184254 165.320301 
L 744.598367 157.965004 
L 745.451895 157.466026 
L 746.305423 157.956342 
L 748.012479 153.991101 
L 749.719535 142.792678 
L 750.573063 142.94924 
L 751.426591 148.970419 
L 752.280119 149.822808 
L 753.133647 154.641109 
L 753.987175 168.11389 
L 754.840704 176.557872 
L 755.694232 177.892895 
L 756.54776 184.695582 
L 757.401288 184.351114 
L 758.254816 190.277527 
L 759.108344 179.006934 
L 759.961872 175.062881 
L 760.8154 172.424414 
L 761.668928 177.635025 
L 762.522456 176.910079 
L 763.375984 183.864726 
L 764.229512 184.516151 
L 765.08304 191.5259 
L 765.936568 191.256045 
L 766.790097 196.981188 
L 767.643625 195.72226 
L 768.497153 200.152202 
L 769.350681 196.59671 
L 770.204209 197.230679 
L 771.057737 188.15296 
L 771.911265 182.402292 
L 772.764793 166.572817 
L 773.618321 161.419084 
L 774.471849 155.10707 
L 775.325377 157.302038 
L 776.178905 153.893713 
L 777.032433 157.75676 
L 777.885962 155.887982 
L 778.73949 161.99433 
L 779.593018 161.491771 
L 780.446546 167.074429 
L 781.300074 165.244181 
L 782.153602 169.50645 
L 783.00713 165.966743 
L 783.860658 166.929921 
L 784.714186 158.57249 
L 785.567714 153.900455 
L 786.421242 142.489428 
L 787.27477 155.911886 
L 788.128298 152.387147 
L 788.981826 152.198595 
L 789.835355 148.432607 
L 790.688883 144.093117 
L 791.542411 135.847168 
L 792.395939 130.596366 
L 793.249467 141.223308 
L 794.102995 141.796747 
L 794.956523 136.152412 
L 795.810051 135.106666 
L 796.663579 125.090031 
L 797.517107 125.740739 
L 798.370635 118.939003 
L 799.224163 124.361374 
L 800.077691 127.45859 
L 802.638276 137.680124 
L 803.491804 140.014395 
L 804.345332 141.224728 
L 805.19886 141.352289 
L 806.052388 140.392837 
L 806.905916 139.781926 
L 807.759444 138.640868 
L 808.612972 131.596825 
L 810.320028 122.654018 
L 811.173556 113.281622 
L 812.027084 121.203555 
L 812.880613 126.481996 
L 813.734141 141.607199 
L 814.587669 152.496538 
L 815.441197 154.299438 
L 816.294725 164.725432 
L 817.148253 164.542411 
L 818.855309 159.70059 
L 820.562365 153.517019 
L 823.976477 146.73805 
L 824.830006 145.832109 
L 825.683534 144.606744 
L 826.537062 143.082567 
L 827.39059 143.784612 
L 828.244118 144.330333 
L 829.097646 145.519422 
L 829.951174 147.458705 
L 830.804702 149.68625 
L 831.65823 151.579917 
L 832.511758 152.94357 
L 833.365286 153.633045 
L 834.218814 153.386811 
L 835.072342 152.624504 
L 835.925871 151.483173 
L 836.779399 150.046748 
L 837.632927 148.099458 
L 838.486455 145.51001 
L 839.339983 141.609306 
L 840.193511 140.035668 
L 841.047039 139.60011 
L 841.900567 141.942043 
L 842.754095 154.959483 
L 843.607623 162.411299 
L 844.461151 167.176693 
L 845.314679 169.407903 
L 846.168207 161.09042 
L 847.021735 156.703731 
L 847.875264 141.560175 
L 848.728792 147.888476 
L 849.58232 149.680943 
L 850.435848 153.12555 
L 851.289376 146.255457 
L 852.142904 149.117795 
L 852.996432 152.896657 
L 853.84996 155.301817 
L 854.703488 154.057873 
L 855.557016 153.759223 
L 856.410544 150.587698 
L 857.264072 148.107374 
L 858.1176 142.572465 
L 858.971128 138.300764 
L 859.824657 131.905234 
L 860.678185 126.487062 
L 861.531713 118.728096 
L 862.385241 111.99421 
L 863.238769 113.153513 
L 864.092297 124.750967 
L 865.799353 136.68912 
L 866.652881 143.210385 
L 867.506409 150.922845 
L 868.359937 166.07757 
L 870.066993 182.383602 
L 870.920522 186.149189 
L 871.77405 179.750431 
L 872.627578 170.641861 
L 873.481106 155.698231 
L 874.334634 147.875101 
L 875.188162 149.477605 
L 876.895218 144.356341 
L 878.602274 140.091629 
L 879.455802 138.285864 
L 880.30933 136.844473 
L 881.162858 135.024717 
L 882.016386 133.516634 
L 882.869915 132.943884 
L 883.723443 141.395389 
L 884.576971 140.698682 
L 885.430499 138.388218 
L 886.284027 134.829211 
L 887.137555 123.965675 
L 887.991083 120.70738 
L 888.844611 107.62761 
L 890.551667 122.198062 
L 891.405195 139.284226 
L 893.112251 163.969268 
L 893.96578 166.71174 
L 894.819308 176.845893 
L 895.672836 176.917289 
L 896.526364 184.406107 
L 897.379892 181.883281 
L 898.23342 186.842809 
L 899.086948 182.243027 
L 899.940476 184.580843 
L 900.794004 177.904282 
L 901.647532 177.880421 
L 902.50106 168.920381 
L 903.354588 166.68856 
L 904.208116 155.607218 
L 905.061644 151.966919 
L 905.915173 140.127494 
L 906.768701 137.238825 
L 907.622229 125.834123 
L 908.475757 122.392982 
L 909.329285 109.432526 
L 910.182813 104.262814 
L 911.036341 107.74081 
L 911.889869 115.575992 
L 912.743397 125.831156 
L 914.450453 120.478637 
L 915.303981 114.683607 
L 916.157509 111.103294 
L 917.011037 104.435443 
L 917.864566 99.000857 
L 918.718094 95.689068 
L 919.571622 88.234137 
L 920.42515 90.922577 
L 921.278678 94.728405 
L 922.985734 111.481292 
L 925.546318 148.703097 
L 926.399846 161.673825 
L 927.253374 178.421915 
L 928.106902 182.735154 
L 928.960431 173.697188 
L 929.813959 170.581851 
L 931.521015 159.854339 
L 932.374543 158.523992 
L 933.228071 158.196647 
L 934.081599 158.675653 
L 934.935127 159.982578 
L 935.788655 160.588571 
L 936.642183 167.849877 
L 937.495711 169.711681 
L 938.349239 169.419214 
L 939.202767 162.31014 
L 940.056295 158.523087 
L 940.909824 156.881008 
L 941.763352 152.43657 
L 942.61688 149.089795 
L 943.470408 142.834554 
L 944.323936 138.142461 
L 945.177464 130.877775 
L 946.030992 124.990817 
L 946.88452 116.268437 
L 947.738048 109.436746 
L 948.591576 100.367262 
L 949.445104 93.391569 
L 950.298632 107.394736 
L 951.15216 116.250492 
L 952.005689 152.11246 
L 952.859217 174.725671 
L 953.712745 206.320804 
L 954.566273 223.332689 
L 954.566273 223.332689 
" clip-path="url(#p80e74be024)" style="fill: none; stroke-dasharray: 3.7,1.6; stroke-dashoffset: 0; stroke: #1f77b4"/>
   </g>
   <g id="patch_3">
    <path d="M 59.258 317.32 
L 59.258 26.88 
" style="fill: none; stroke: #000000; stroke-width: 0.8; stroke-linejoin: miter; stroke-linecap: square"/>
   </g>
   <g id="patch_4">
    <path d="M 997.2 317.32 
L 997.2 26.88 
" style="fill: none; stroke: #000000; stroke-width: 0.8; stroke-linejoin: miter; stroke-linecap: square"/>
   </g>
   <g id="patch_5">
    <path d="M 59.258 317.32 
L 997.2 317.32 
" style="fill: none; stroke: #000000; stroke-width: 0.8; stroke-linejoin: miter; stroke-linecap: square"/>
   </g>
   <g id="patch_6">
    <path d="M 59.258 26.88 
L 997.2 26.88 
" style="fill: none; stroke: #000000; stroke-width: 0.8; stroke-linejoin: miter; stroke-linecap: square"/>
   </g>
   <g id="text_18">
    <!-- Control Input — Theta_des — figure-8_1 -->
    <g transform="translate(383.527828 20.88) scale(0.13 -0.13)">
     <defs>
      <path id="DejaVuSans-Bold-43" d="M 4288 256 
Q 3956 84 3597 -3 
Q 3238 -91 2847 -91 
Q 1681 -91 1000 561 
Q 319 1213 319 2328 
Q 319 3447 1000 4098 
Q 1681 4750 2847 4750 
Q 3238 4750 3597 4662 
Q 3956 4575 4288 4403 
L 4288 3438 
Q 3953 3666 3628 3772 
Q 3303 3878 2944 3878 
Q 2300 3878 1931 3465 
Q 1563 3053 1563 2328 
Q 1563 1606 1931 1193 
Q 2300 781 2944 781 
Q 3303 781 3628 887 
Q 3953 994 4288 1222 
L 4288 256 
z
" transform="scale(0.015625)"/>
      <path id="DejaVuSans-Bold-6f" d="M 2203 2784 
Q 1831 2784 1636 2517 
Q 1441 2250 1441 1747 
Q 1441 1244 1636 976 
Q 1831 709 2203 709 
Q 2569 709 2762 976 
Q 2956 1244 2956 1747 
Q 2956 2250 2762 2517 
Q 2569 2784 2203 2784 
z
M 2203 3584 
Q 3106 3584 3614 3096 
Q 4122 2609 4122 1747 
Q 4122 884 3614 396 
Q 3106 -91 2203 -91 
Q 1297 -91 786 396 
Q 275 884 275 1747 
Q 275 2609 786 3096 
Q 1297 3584 2203 3584 
z
" transform="scale(0.015625)"/>
      <path id="DejaVuSans-Bold-6e" d="M 4056 2131 
L 4056 0 
L 2931 0 
L 2931 347 
L 2931 1631 
Q 2931 2084 2911 2256 
Q 2891 2428 2841 2509 
Q 2775 2619 2662 2680 
Q 2550 2741 2406 2741 
Q 2056 2741 1856 2470 
Q 1656 2200 1656 1722 
L 1656 0 
L 538 0 
L 538 3500 
L 1656 3500 
L 1656 2988 
Q 1909 3294 2193 3439 
Q 2478 3584 2822 3584 
Q 3428 3584 3742 3212 
Q 4056 2841 4056 2131 
z
" transform="scale(0.015625)"/>
      <path id="DejaVuSans-Bold-74" d="M 1759 4494 
L 1759 3500 
L 2913 3500 
L 2913 2700 
L 1759 2700 
L 1759 1216 
Q 1759 972 1856 886 
Q 1953 800 2241 800 
L 2816 800 
L 2816 0 
L 1856 0 
Q 1194 0 917 276 
Q 641 553 641 1216 
L 641 2700 
L 84 2700 
L 84 3500 
L 641 3500 
L 641 4494 
L 1759 4494 
z
" transform="scale(0.015625)"/>
      <path id="DejaVuSans-Bold-72" d="M 3138 2547 
Q 2991 2616 2845 2648 
Q 2700 2681 2553 2681 
Q 2122 2681 1889 2404 
Q 1656 2128 1656 1613 
L 1656 0 
L 538 0 
L 538 3500 
L 1656 3500 
L 1656 2925 
Q 1872 3269 2151 3426 
Q 2431 3584 2822 3584 
Q 2878 3584 2943 3579 
Q 3009 3575 3134 3559 
L 3138 2547 
z
" transform="scale(0.015625)"/>
      <path id="DejaVuSans-Bold-6c" d="M 538 4863 
L 1656 4863 
L 1656 0 
L 538 0 
L 538 4863 
z
" transform="scale(0.015625)"/>
      <path id="DejaVuSans-Bold-20" transform="scale(0.015625)"/>
      <path id="DejaVuSans-Bold-49" d="M 588 4666 
L 1791 4666 
L 1791 0 
L 588 0 
L 588 4666 
z
" transform="scale(0.015625)"/>
      <path id="DejaVuSans-Bold-70" d="M 1656 506 
L 1656 -1331 
L 538 -1331 
L 538 3500 
L 1656 3500 
L 1656 2988 
Q 1888 3294 2169 3439 
Q 2450 3584 2816 3584 
Q 3463 3584 3878 3070 
Q 4294 2556 4294 1747 
Q 4294 938 3878 423 
Q 3463 -91 2816 -91 
Q 2450 -91 2169 54 
Q 1888 200 1656 506 
z
M 2400 2772 
Q 2041 2772 1848 2508 
Q 1656 2244 1656 1747 
Q 1656 1250 1848 986 
Q 2041 722 2400 722 
Q 2759 722 2948 984 
Q 3138 1247 3138 1747 
Q 3138 2247 2948 2509 
Q 2759 2772 2400 2772 
z
" transform="scale(0.015625)"/>
      <path id="DejaVuSans-Bold-75" d="M 500 1363 
L 500 3500 
L 1625 3500 
L 1625 3150 
Q 1625 2866 1622 2436 
Q 1619 2006 1619 1863 
Q 1619 1441 1641 1255 
Q 1663 1069 1716 984 
Q 1784 875 1895 815 
Q 2006 756 2150 756 
Q 2500 756 2700 1025 
Q 2900 1294 2900 1772 
L 2900 3500 
L 4019 3500 
L 4019 0 
L 2900 0 
L 2900 506 
Q 2647 200 2364 54 
Q 2081 -91 1741 -91 
Q 1134 -91 817 281 
Q 500 653 500 1363 
z
" transform="scale(0.015625)"/>
      <path id="DejaVuSans-Bold-2014" d="M 344 2156 
L 6056 2156 
L 6056 1350 
L 344 1350 
L 344 2156 
z
" transform="scale(0.015625)"/>
      <path id="DejaVuSans-Bold-54" d="M 31 4666 
L 4331 4666 
L 4331 3756 
L 2784 3756 
L 2784 0 
L 1581 0 
L 1581 3756 
L 31 3756 
L 31 4666 
z
" transform="scale(0.015625)"/>
      <path id="DejaVuSans-Bold-68" d="M 4056 2131 
L 4056 0 
L 2931 0 
L 2931 347 
L 2931 1625 
Q 2931 2084 2911 2256 
Q 2891 2428 2841 2509 
Q 2775 2619 2662 2680 
Q 2550 2741 2406 2741 
Q 2056 2741 1856 2470 
Q 1656 2200 1656 1722 
L 1656 0 
L 538 0 
L 538 4863 
L 1656 4863 
L 1656 2988 
Q 1909 3294 2193 3439 
Q 2478 3584 2822 3584 
Q 3428 3584 3742 3212 
Q 4056 2841 4056 2131 
z
" transform="scale(0.015625)"/>
      <path id="DejaVuSans-Bold-65" d="M 4031 1759 
L 4031 1441 
L 1416 1441 
Q 1456 1047 1700 850 
Q 1944 653 2381 653 
Q 2734 653 3104 758 
Q 3475 863 3866 1075 
L 3866 213 
Q 3469 63 3072 -14 
Q 2675 -91 2278 -91 
Q 1328 -91 801 392 
Q 275 875 275 1747 
Q 275 2603 792 3093 
Q 1309 3584 2216 3584 
Q 3041 3584 3536 3087 
Q 4031 2591 4031 1759 
z
M 2881 2131 
Q 2881 2450 2695 2645 
Q 2509 2841 2209 2841 
Q 1884 2841 1681 2658 
Q 1478 2475 1428 2131 
L 2881 2131 
z
" transform="scale(0.015625)"/>
      <path id="DejaVuSans-Bold-61" d="M 2106 1575 
Q 1756 1575 1579 1456 
Q 1403 1338 1403 1106 
Q 1403 894 1545 773 
Q 1688 653 1941 653 
Q 2256 653 2472 879 
Q 2688 1106 2688 1447 
L 2688 1575 
L 2106 1575 
z
M 3816 1997 
L 3816 0 
L 2688 0 
L 2688 519 
Q 2463 200 2181 54 
Q 1900 -91 1497 -91 
Q 953 -91 614 226 
Q 275 544 275 1050 
Q 275 1666 698 1953 
Q 1122 2241 2028 2241 
L 2688 2241 
L 2688 2328 
Q 2688 2594 2478 2717 
Q 2269 2841 1825 2841 
Q 1466 2841 1156 2769 
Q 847 2697 581 2553 
L 581 3406 
Q 941 3494 1303 3539 
Q 1666 3584 2028 3584 
Q 2975 3584 3395 3211 
Q 3816 2838 3816 1997 
z
" transform="scale(0.015625)"/>
      <path id="DejaVuSans-Bold-5f" d="M 3200 -916 
L 3200 -1509 
L 0 -1509 
L 0 -916 
L 3200 -916 
z
" transform="scale(0.015625)"/>
      <path id="DejaVuSans-Bold-64" d="M 2919 2988 
L 2919 4863 
L 4044 4863 
L 4044 0 
L 2919 0 
L 2919 506 
Q 2688 197 2409 53 
Q 2131 -91 1766 -91 
Q 1119 -91 703 423 
Q 288 938 288 1747 
Q 288 2556 703 3070 
Q 1119 3584 1766 3584 
Q 2128 3584 2408 3439 
Q 2688 3294 2919 2988 
z
M 2181 722 
Q 2541 722 2730 984 
Q 2919 1247 2919 1747 
Q 2919 2247 2730 2509 
Q 2541 2772 2181 2772 
Q 1825 2772 1636 2509 
Q 1447 2247 1447 1747 
Q 1447 1247 1636 984 
Q 1825 722 2181 722 
z
" transform="scale(0.015625)"/>
      <path id="DejaVuSans-Bold-73" d="M 3272 3391 
L 3272 2541 
Q 2913 2691 2578 2766 
Q 2244 2841 1947 2841 
Q 1628 2841 1473 2761 
Q 1319 2681 1319 2516 
Q 1319 2381 1436 2309 
Q 1553 2238 1856 2203 
L 2053 2175 
Q 2913 2066 3209 1816 
Q 3506 1566 3506 1031 
Q 3506 472 3093 190 
Q 2681 -91 1863 -91 
Q 1516 -91 1145 -36 
Q 775 19 384 128 
L 384 978 
Q 719 816 1070 734 
Q 1422 653 1784 653 
Q 2113 653 2278 743 
Q 2444 834 2444 1013 
Q 2444 1163 2330 1236 
Q 2216 1309 1875 1350 
L 1678 1375 
Q 931 1469 631 1722 
Q 331 1975 331 2491 
Q 331 3047 712 3315 
Q 1094 3584 1881 3584 
Q 2191 3584 2531 3537 
Q 2872 3491 3272 3391 
z
" transform="scale(0.015625)"/>
      <path id="DejaVuSans-Bold-66" d="M 2841 4863 
L 2841 4128 
L 2222 4128 
Q 1984 4128 1890 4042 
Q 1797 3956 1797 3744 
L 1797 3500 
L 2753 3500 
L 2753 2700 
L 1797 2700 
L 1797 0 
L 678 0 
L 678 2700 
L 122 2700 
L 122 3500 
L 678 3500 
L 678 3744 
Q 678 4316 997 4589 
Q 1316 4863 1984 4863 
L 2841 4863 
z
" transform="scale(0.015625)"/>
      <path id="DejaVuSans-Bold-69" d="M 538 3500 
L 1656 3500 
L 1656 0 
L 538 0 
L 538 3500 
z
M 538 4863 
L 1656 4863 
L 1656 3950 
L 538 3950 
L 538 4863 
z
" transform="scale(0.015625)"/>
      <path id="DejaVuSans-Bold-67" d="M 2919 594 
Q 2688 288 2409 144 
Q 2131 0 1766 0 
Q 1125 0 706 504 
Q 288 1009 288 1791 
Q 288 2575 706 3076 
Q 1125 3578 1766 3578 
Q 2131 3578 2409 3434 
Q 2688 3291 2919 2981 
L 2919 3500 
L 4044 3500 
L 4044 353 
Q 4044 -491 3511 -936 
Q 2978 -1381 1966 -1381 
Q 1638 -1381 1331 -1331 
Q 1025 -1281 716 -1178 
L 716 -306 
Q 1009 -475 1290 -558 
Q 1572 -641 1856 -641 
Q 2406 -641 2662 -400 
Q 2919 -159 2919 353 
L 2919 594 
z
M 2181 2772 
Q 1834 2772 1640 2515 
Q 1447 2259 1447 1791 
Q 1447 1309 1634 1061 
Q 1822 813 2181 813 
Q 2531 813 2725 1069 
Q 2919 1325 2919 1791 
Q 2919 2259 2725 2515 
Q 2531 2772 2181 2772 
z
" transform="scale(0.015625)"/>
      <path id="DejaVuSans-Bold-2d" d="M 347 2297 
L 2309 2297 
L 2309 1388 
L 347 1388 
L 347 2297 
z
" transform="scale(0.015625)"/>
      <path id="DejaVuSans-Bold-38" d="M 2228 2088 
Q 1891 2088 1709 1903 
Q 1528 1719 1528 1375 
Q 1528 1031 1709 848 
Q 1891 666 2228 666 
Q 2563 666 2741 848 
Q 2919 1031 2919 1375 
Q 2919 1722 2741 1905 
Q 2563 2088 2228 2088 
z
M 1350 2484 
Q 925 2613 709 2878 
Q 494 3144 494 3541 
Q 494 4131 934 4440 
Q 1375 4750 2228 4750 
Q 3075 4750 3515 4442 
Q 3956 4134 3956 3541 
Q 3956 3144 3739 2878 
Q 3522 2613 3097 2484 
Q 3572 2353 3814 2058 
Q 4056 1763 4056 1313 
Q 4056 619 3595 264 
Q 3134 -91 2228 -91 
Q 1319 -91 855 264 
Q 391 619 391 1313 
Q 391 1763 633 2058 
Q 875 2353 1350 2484 
z
M 1631 3419 
Q 1631 3141 1786 2991 
Q 1941 2841 2228 2841 
Q 2509 2841 2662 2991 
Q 2816 3141 2816 3419 
Q 2816 3697 2662 3845 
Q 2509 3994 2228 3994 
Q 1941 3994 1786 3844 
Q 1631 3694 1631 3419 
z
" transform="scale(0.015625)"/>
      <path id="DejaVuSans-Bold-31" d="M 750 831 
L 1813 831 
L 1813 3847 
L 722 3622 
L 722 4441 
L 1806 4666 
L 2950 4666 
L 2950 831 
L 4013 831 
L 4013 0 
L 750 0 
L 750 831 
z
" transform="scale(0.015625)"/>
     </defs>
     <use xlink:href="#DejaVuSans-Bold-43"/>
     <use xlink:href="#DejaVuSans-Bold-6f" transform="translate(73.388672 0)"/>
     <use xlink:href="#DejaVuSans-Bold-6e" transform="translate(142.089844 0)"/>
     <use xlink:href="#DejaVuSans-Bold-74" transform="translate(213.28125 0)"/>
     <use xlink:href="#DejaVuSans-Bold-72" transform="translate(261.083984 0)"/>
     <use xlink:href="#DejaVuSans-Bold-6f" transform="translate(310.400391 0)"/>
     <use xlink:href="#DejaVuSans-Bold-6c" transform="translate(379.101562 0)"/>
     <use xlink:href="#DejaVuSans-Bold-20" transform="translate(413.378906 0)"/>
     <use xlink:href="#DejaVuSans-Bold-49" transform="translate(448.193359 0)"/>
     <use xlink:href="#DejaVuSans-Bold-6e" transform="translate(485.400391 0)"/>
     <use xlink:href="#DejaVuSans-Bold-70" transform="translate(556.591797 0)"/>
     <use xlink:href="#DejaVuSans-Bold-75" transform="translate(628.173828 0)"/>
     <use xlink:href="#DejaVuSans-Bold-74" transform="translate(699.365234 0)"/>
     <use xlink:href="#DejaVuSans-Bold-20" transform="translate(747.167969 0)"/>
     <use xlink:href="#DejaVuSans-Bold-2014" transform="translate(781.982422 0)"/>
     <use xlink:href="#DejaVuSans-Bold-20" transform="translate(881.982422 0)"/>
     <use xlink:href="#DejaVuSans-Bold-54" transform="translate(916.796875 0)"/>
     <use xlink:href="#DejaVuSans-Bold-68" transform="translate(985.009766 0)"/>
     <use xlink:href="#DejaVuSans-Bold-65" transform="translate(1056.201172 0)"/>
     <use xlink:href="#DejaVuSans-Bold-74" transform="translate(1124.023438 0)"/>
     <use xlink:href="#DejaVuSans-Bold-61" transform="translate(1171.826172 0)"/>
     <use xlink:href="#DejaVuSans-Bold-5f" transform="translate(1239.306641 0)"/>
     <use xlink:href="#DejaVuSans-Bold-64" transform="translate(1289.306641 0)"/>
     <use xlink:href="#DejaVuSans-Bold-65" transform="translate(1360.888672 0)"/>
     <use xlink:href="#DejaVuSans-Bold-73" transform="translate(1428.710938 0)"/>
     <use xlink:href="#DejaVuSans-Bold-20" transform="translate(1488.232422 0)"/>
     <use xlink:href="#DejaVuSans-Bold-2014" transform="translate(1523.046875 0)"/>
     <use xlink:href="#DejaVuSans-Bold-20" transform="translate(1623.046875 0)"/>
     <use xlink:href="#DejaVuSans-Bold-66" transform="translate(1657.861328 0)"/>
     <use xlink:href="#DejaVuSans-Bold-69" transform="translate(1701.367188 0)"/>
     <use xlink:href="#DejaVuSans-Bold-67" transform="translate(1735.644531 0)"/>
     <use xlink:href="#DejaVuSans-Bold-75" transform="translate(1807.226562 0)"/>
     <use xlink:href="#DejaVuSans-Bold-72" transform="translate(1878.417969 0)"/>
     <use xlink:href="#DejaVuSans-Bold-65" transform="translate(1927.734375 0)"/>
     <use xlink:href="#DejaVuSans-Bold-2d" transform="translate(1995.556641 0)"/>
     <use xlink:href="#DejaVuSans-Bold-38" transform="translate(2037.060547 0)"/>
     <use xlink:href="#DejaVuSans-Bold-5f" transform="translate(2106.640625 0)"/>
     <use xlink:href="#DejaVuSans-Bold-31" transform="translate(2156.640625 0)"/>
    </g>
   </g>
   <g id="legend_1">
    <g id="patch_7">
     <path d="M 481.896969 64.23625 
L 574.561031 64.23625 
Q 576.561031 64.23625 576.561031 62.23625 
L 576.561031 33.88 
Q 576.561031 31.88 574.561031 31.88 
L 481.896969 31.88 
Q 479.896969 31.88 479.896969 33.88 
L 479.896969 62.23625 
Q 479.896969 64.23625 481.896969 64.23625 
z
" style="fill: #ffffff; opacity: 0.8; stroke: #cccccc; stroke-linejoin: miter"/>
    </g>
    <g id="line2d_33">
     <path d="M 483.896969 39.978437 
L 493.896969 39.978437 
L 503.896969 39.978437 
" style="fill: none; stroke: #2ca02c; stroke-width: 1.2; stroke-linecap: square"/>
    </g>
    <g id="text_19">
     <!-- EDMDc MPC -->
     <g transform="translate(511.896969 43.478437) scale(0.1 -0.1)">
      <defs>
       <path id="DejaVuSans-45" d="M 628 4666 
L 3578 4666 
L 3578 4134 
L 1259 4134 
L 1259 2753 
L 3481 2753 
L 3481 2222 
L 1259 2222 
L 1259 531 
L 3634 531 
L 3634 0 
L 628 0 
L 628 4666 
z
" transform="scale(0.015625)"/>
       <path id="DejaVuSans-44" d="M 1259 4147 
L 1259 519 
L 2022 519 
Q 2988 519 3436 956 
Q 3884 1394 3884 2338 
Q 3884 3275 3436 3711 
Q 2988 4147 2022 4147 
L 1259 4147 
z
M 628 4666 
L 1925 4666 
Q 3281 4666 3915 4102 
Q 4550 3538 4550 2338 
Q 4550 1131 3912 565 
Q 3275 0 1925 0 
L 628 0 
L 628 4666 
z
" transform="scale(0.015625)"/>
       <path id="DejaVuSans-4d" d="M 628 4666 
L 1569 4666 
L 2759 1491 
L 3956 4666 
L 4897 4666 
L 4897 0 
L 4281 0 
L 4281 4097 
L 3078 897 
L 2444 897 
L 1241 4097 
L 1241 0 
L 628 0 
L 628 4666 
z
" transform="scale(0.015625)"/>
       <path id="DejaVuSans-63" d="M 3122 3366 
L 3122 2828 
Q 2878 2963 2633 3030 
Q 2388 3097 2138 3097 
Q 1578 3097 1268 2742 
Q 959 2388 959 1747 
Q 959 1106 1268 751 
Q 1578 397 2138 397 
Q 2388 397 2633 464 
Q 2878 531 3122 666 
L 3122 134 
Q 2881 22 2623 -34 
Q 2366 -91 2075 -91 
Q 1284 -91 818 406 
Q 353 903 353 1747 
Q 353 2603 823 3093 
Q 1294 3584 2113 3584 
Q 2378 3584 2631 3529 
Q 2884 3475 3122 3366 
z
" transform="scale(0.015625)"/>
       <path id="DejaVuSans-50" d="M 1259 4147 
L 1259 2394 
L 2053 2394 
Q 2494 2394 2734 2622 
Q 2975 2850 2975 3272 
Q 2975 3691 2734 3919 
Q 2494 4147 2053 4147 
L 1259 4147 
z
M 628 4666 
L 2053 4666 
Q 2838 4666 3239 4311 
Q 3641 3956 3641 3272 
Q 3641 2581 3239 2228 
Q 2838 1875 2053 1875 
L 1259 1875 
L 1259 0 
L 628 0 
L 628 4666 
z
" transform="scale(0.015625)"/>
       <path id="DejaVuSans-43" d="M 4122 4306 
L 4122 3641 
Q 3803 3938 3442 4084 
Q 3081 4231 2675 4231 
Q 1875 4231 1450 3742 
Q 1025 3253 1025 2328 
Q 1025 1406 1450 917 
Q 1875 428 2675 428 
Q 3081 428 3442 575 
Q 3803 722 4122 1019 
L 4122 359 
Q 3791 134 3420 21 
Q 3050 -91 2638 -91 
Q 1578 -91 968 557 
Q 359 1206 359 2328 
Q 359 3453 968 4101 
Q 1578 4750 2638 4750 
Q 3056 4750 3426 4639 
Q 3797 4528 4122 4306 
z
" transform="scale(0.015625)"/>
      </defs>
      <use xlink:href="#DejaVuSans-45"/>
      <use xlink:href="#DejaVuSans-44" transform="translate(63.183594 0)"/>
      <use xlink:href="#DejaVuSans-4d" transform="translate(140.185547 0)"/>
      <use xlink:href="#DejaVuSans-44" transform="translate(226.464844 0)"/>
      <use xlink:href="#DejaVuSans-63" transform="translate(303.466797 0)"/>
      <use xlink:href="#DejaVuSans-20" transform="translate(358.447266 0)"/>
      <use xlink:href="#DejaVuSans-4d" transform="translate(390.234375 0)"/>
      <use xlink:href="#DejaVuSans-50" transform="translate(476.513672 0)"/>
      <use xlink:href="#DejaVuSans-43" transform="translate(536.816406 0)"/>
     </g>
    </g>
    <g id="line2d_34">
     <path d="M 483.896969 54.656563 
L 493.896969 54.656563 
L 503.896969 54.656563 
" style="fill: none; stroke-dasharray: 3.7,1.6; stroke-dashoffset: 0; stroke: #1f77b4"/>
    </g>
    <g id="text_20">
     <!-- Linear MPC -->
     <g transform="translate(511.896969 58.156563) scale(0.1 -0.1)">
      <defs>
       <path id="DejaVuSans-4c" d="M 628 4666 
L 1259 4666 
L 1259 531 
L 3531 531 
L 3531 0 
L 628 0 
L 628 4666 
z
" transform="scale(0.015625)"/>
       <path id="DejaVuSans-6e" d="M 3513 2113 
L 3513 0 
L 2938 0 
L 2938 2094 
Q 2938 2591 2744 2837 
Q 2550 3084 2163 3084 
Q 1697 3084 1428 2787 
Q 1159 2491 1159 1978 
L 1159 0 
L 581 0 
L 581 3500 
L 1159 3500 
L 1159 2956 
Q 1366 3272 1645 3428 
Q 1925 3584 2291 3584 
Q 2894 3584 3203 3211 
Q 3513 2838 3513 2113 
z
" transform="scale(0.015625)"/>
      </defs>
      <use xlink:href="#DejaVuSans-4c"/>
      <use xlink:href="#DejaVuSans-69" transform="translate(55.712891 0)"/>
      <use xlink:href="#DejaVuSans-6e" transform="translate(83.496094 0)"/>
      <use xlink:href="#DejaVuSans-65" transform="translate(146.875 0)"/>
      <use xlink:href="#DejaVuSans-61" transform="translate(208.398438 0)"/>
      <use xlink:href="#DejaVuSans-72" transform="translate(269.677734 0)"/>
      <use xlink:href="#DejaVuSans-20" transform="translate(310.791016 0)"/>
      <use xlink:href="#DejaVuSans-4d" transform="translate(342.578125 0)"/>
      <use xlink:href="#DejaVuSans-50" transform="translate(428.857422 0)"/>
      <use xlink:href="#DejaVuSans-43" transform="translate(489.160156 0)"/>
     </g>
    </g>
   </g>
  </g>
 </g>
 <defs>
  <clipPath id="p80e74be024">
   <rect x="59.258" y="26.88" width="937.942" height="290.44"/>
  </clipPath>
 </defs>
</svg>
