<?xml version="1.0" encoding="utf-8" standalone="no"?>
<!DOCTYPE svg PUBLIC "-//W3C//DTD SVG 1.1//EN"
  "http://www.w3.org/Graphics/SVG/1.1/DTD/svg11.dtd">
<svg xmlns:xlink="http://www.w3.org/1999/xlink" width="1008pt" height="360pt" viewBox="0 0 1008 360" xmlns="http://www.w3.org/2000/svg" version="1.1">
 <metadata>
  <rdf:RDF xmlns:dc="http://purl.org/dc/elements/1.1/" xmlns:cc="http://creativecommons.org/ns#" xmlns:rdf="http://www.w3.org/1999/02/22-rdf-syntax-ns#">
   <cc:Work>
    <dc:type rdf:resource="http://purl.org/dc/dcmitype/StillImage"/>
    <dc:date>2026-03-30T18:18:24.028557</dc:date>
    <dc:format>image/svg+xml</dc:format>
    <dc:creator>
     <cc:Agent>
      <dc:title>Matplotlib v3.10.8, https://matplotlib.org/</dc:title>
     </cc:Agent>
    </dc:creator>
   </cc:Work>
  </rdf:RDF>
 </metadata>
 <defs>
  <style type="text/css">*{stroke-linejoin: round; stroke-linecap: butt}</style>
 </defs>
 <g id="figure_1">
  <g id="patch_1">
   <path d="M 0 360 
L 1008 360 
L 1008 0 
L 0 0 
z
" style="fill: #ffffff"/>
  </g>
  <g id="axes_1">
   <g id="patch_2">
    <path d="M 48.44 317.32 
L 997.2 317.32 
L 997.2 26.88 
L 48.44 26.88 
z
" style="fill: #ffffff"/>
   </g>
   <g id="matplotlib.axis_1">
    <g id="xtick_1">
     <g id="line2d_1">
      <path d="M 91.565455 317.32 
L 91.565455 26.88 
" clip-path="url(#pc16a8e7b05)" style="fill: none; stroke: #b0b0b0; stroke-opacity: 0.3; stroke-width: 0.8; stroke-linecap: square"/>
     </g>
     <g id="line2d_2">
      <defs>
       <path id="m180a9d74df" d="M 0 0 
L 0 3.5 
" style="stroke: #000000; stroke-width: 0.8"/>
      </defs>
      <g>
       <use xlink:href="#m180a9d74df" x="91.565455" y="317.32" style="stroke: #000000; stroke-width: 0.8"/>
      </g>
     </g>
     <g id="text_1">
      <!-- 0 -->
      <g transform="translate(88.384205 331.918437) scale(0.1 -0.1)">
       <defs>
        <path id="DejaVuSans-30" d="M 2034 4250 
Q 1547 4250 1301 3770 
Q 1056 3291 1056 2328 
Q 1056 1369 1301 889 
Q 1547 409 2034 409 
Q 2525 409 2770 889 
Q 3016 1369 3016 2328 
Q 3016 3291 2770 3770 
Q 2525 4250 2034 4250 
z
M 2034 4750 
Q 2819 4750 3233 4129 
Q 3647 3509 3647 2328 
Q 3647 1150 3233 529 
Q 2819 -91 2034 -91 
Q 1250 -91 836 529 
Q 422 1150 422 2328 
Q 422 3509 836 4129 
Q 1250 4750 2034 4750 
z
" transform="scale(0.015625)"/>
       </defs>
       <use xlink:href="#DejaVuSans-30"/>
      </g>
     </g>
    </g>
    <g id="xtick_2">
     <g id="line2d_3">
      <path d="M 264.239947 317.32 
L 264.239947 26.88 
" clip-path="url(#pc16a8e7b05)" style="fill: none; stroke: #b0b0b0; stroke-opacity: 0.3; stroke-width: 0.8; stroke-linecap: square"/>
     </g>
     <g id="line2d_4">
      <g>
       <use xlink:href="#m180a9d74df" x="264.239947" y="317.32" style="stroke: #000000; stroke-width: 0.8"/>
      </g>
     </g>
     <g id="text_2">
      <!-- 20 -->
      <g transform="translate(257.877447 331.918437) scale(0.1 -0.1)">
       <defs>
        <path id="DejaVuSans-32" d="M 1228 531 
L 3431 531 
L 3431 0 
L 469 0 
L 469 531 
Q 828 903 1448 1529 
Q 2069 2156 2228 2338 
Q 2531 2678 2651 2914 
Q 2772 3150 2772 3378 
Q 2772 3750 2511 3984 
Q 2250 4219 1831 4219 
Q 1534 4219 1204 4116 
Q 875 4013 500 3803 
L 500 4441 
Q 881 4594 1212 4672 
Q 1544 4750 1819 4750 
Q 2544 4750 2975 4387 
Q 3406 4025 3406 3419 
Q 3406 3131 3298 2873 
Q 3191 2616 2906 2266 
Q 2828 2175 2409 1742 
Q 1991 1309 1228 531 
z
" transform="scale(0.015625)"/>
       </defs>
       <use xlink:href="#DejaVuSans-32"/>
       <use xlink:href="#DejaVuSans-30" transform="translate(63.623047 0)"/>
      </g>
     </g>
    </g>
    <g id="xtick_3">
     <g id="line2d_5">
      <path d="M 436.91444 317.32 
L 436.91444 26.88 
" clip-path="url(#pc16a8e7b05)" style="fill: none; stroke: #b0b0b0; stroke-opacity: 0.3; stroke-width: 0.8; stroke-linecap: square"/>
     </g>
     <g id="line2d_6">
      <g>
       <use xlink:href="#m180a9d74df" x="436.91444" y="317.32" style="stroke: #000000; stroke-width: 0.8"/>
      </g>
     </g>
     <g id="text_3">
      <!-- 40 -->
      <g transform="translate(430.55194 331.918437) scale(0.1 -0.1)">
       <defs>
        <path id="DejaVuSans-34" d="M 2419 4116 
L 825 1625 
L 2419 1625 
L 2419 4116 
z
M 2253 4666 
L 3047 4666 
L 3047 1625 
L 3713 1625 
L 3713 1100 
L 3047 1100 
L 3047 0 
L 2419 0 
L 2419 1100 
L 313 1100 
L 313 1709 
L 2253 4666 
z
" transform="scale(0.015625)"/>
       </defs>
       <use xlink:href="#DejaVuSans-34"/>
       <use xlink:href="#DejaVuSans-30" transform="translate(63.623047 0)"/>
      </g>
     </g>
    </g>
    <g id="xtick_4">
     <g id="line2d_7">
      <path d="M 609.588933 317.32 
L 609.588933 26.88 
" clip-path="url(#pc16a8e7b05)" style="fill: none; stroke: #b0b0b0; stroke-opacity: 0.3; stroke-width: 0.8; stroke-linecap: square"/>
     </g>
     <g id="line2d_8">
      <g>
       <use xlink:href="#m180a9d74df" x="609.588933" y="317.32" style="stroke: #000000; stroke-width: 0.8"/>
      </g>
     </g>
     <g id="text_4">
      <!-- 60 -->
      <g transform="translate(603.226433 331.918437) scale(0.1 -0.1)">
       <defs>
        <path id="DejaVuSans-36" d="M 2113 2584 
Q 1688 2584 1439 2293 
Q 1191 2003 1191 1497 
Q 1191 994 1439 701 
Q 1688 409 2113 409 
Q 2538 409 2786 701 
Q 3034 994 3034 1497 
Q 3034 2003 2786 2293 
Q 2538 2584 2113 2584 
z
M 3366 4563 
L 3366 3988 
Q 3128 4100 2886 4159 
Q 2644 4219 2406 4219 
Q 1781 4219 1451 3797 
Q 1122 3375 1075 2522 
Q 1259 2794 1537 2939 
Q 1816 3084 2150 3084 
Q 2853 3084 3261 2657 
Q 3669 2231 3669 1497 
Q 3669 778 3244 343 
Q 2819 -91 2113 -91 
Q 1303 -91 875 529 
Q 447 1150 447 2328 
Q 447 3434 972 4092 
Q 1497 4750 2381 4750 
Q 2619 4750 2861 4703 
Q 3103 4656 3366 4563 
z
" transform="scale(0.015625)"/>
       </defs>
       <use xlink:href="#DejaVuSans-36"/>
       <use xlink:href="#DejaVuSans-30" transform="translate(63.623047 0)"/>
      </g>
     </g>
    </g>
    <g id="xtick_5">
     <g id="line2d_9">
      <path d="M 782.263425 317.32 
L 782.263425 26.88 
" clip-path="url(#pc16a8e7b05)" style="fill: none; stroke: #b0b0b0; stroke-opacity: 0.3; stroke-width: 0.8; stroke-linecap: square"/>
     </g>
     <g id="line2d_10">
      <g>
       <use xlink:href="#m180a9d74df" x="782.263425" y="317.32" style="stroke: #000000; stroke-width: 0.8"/>
      </g>
     </g>
     <g id="text_5">
      <!-- 80 -->
      <g transform="translate(775.900925 331.918437) scale(0.1 -0.1)">
       <defs>
        <path id="DejaVuSans-38" d="M 2034 2216 
Q 1584 2216 1326 1975 
Q 1069 1734 1069 1313 
Q 1069 891 1326 650 
Q 1584 409 2034 409 
Q 2484 409 2743 651 
Q 3003 894 3003 1313 
Q 3003 1734 2745 1975 
Q 2488 2216 2034 2216 
z
M 1403 2484 
Q 997 2584 770 2862 
Q 544 3141 544 3541 
Q 544 4100 942 4425 
Q 1341 4750 2034 4750 
Q 2731 4750 3128 4425 
Q 3525 4100 3525 3541 
Q 3525 3141 3298 2862 
Q 3072 2584 2669 2484 
Q 3125 2378 3379 2068 
Q 3634 1759 3634 1313 
Q 3634 634 3220 271 
Q 2806 -91 2034 -91 
Q 1263 -91 848 271 
Q 434 634 434 1313 
Q 434 1759 690 2068 
Q 947 2378 1403 2484 
z
M 1172 3481 
Q 1172 3119 1398 2916 
Q 1625 2713 2034 2713 
Q 2441 2713 2670 2916 
Q 2900 3119 2900 3481 
Q 2900 3844 2670 4047 
Q 2441 4250 2034 4250 
Q 1625 4250 1398 4047 
Q 1172 3844 1172 3481 
z
" transform="scale(0.015625)"/>
       </defs>
       <use xlink:href="#DejaVuSans-38"/>
       <use xlink:href="#DejaVuSans-30" transform="translate(63.623047 0)"/>
      </g>
     </g>
    </g>
    <g id="xtick_6">
     <g id="line2d_11">
      <path d="M 954.937918 317.32 
L 954.937918 26.88 
" clip-path="url(#pc16a8e7b05)" style="fill: none; stroke: #b0b0b0; stroke-opacity: 0.3; stroke-width: 0.8; stroke-linecap: square"/>
     </g>
     <g id="line2d_12">
      <g>
       <use xlink:href="#m180a9d74df" x="954.937918" y="317.32" style="stroke: #000000; stroke-width: 0.8"/>
      </g>
     </g>
     <g id="text_6">
      <!-- 100 -->
      <g transform="translate(945.394168 331.918437) scale(0.1 -0.1)">
       <defs>
        <path id="DejaVuSans-31" d="M 794 531 
L 1825 531 
L 1825 4091 
L 703 3866 
L 703 4441 
L 1819 4666 
L 2450 4666 
L 2450 531 
L 3481 531 
L 3481 0 
L 794 0 
L 794 531 
z
" transform="scale(0.015625)"/>
       </defs>
       <use xlink:href="#DejaVuSans-31"/>
       <use xlink:href="#DejaVuSans-30" transform="translate(63.623047 0)"/>
       <use xlink:href="#DejaVuSans-30" transform="translate(127.246094 0)"/>
      </g>
     </g>
    </g>
    <g id="text_7">
     <!-- Time [s] -->
     <g transform="translate(500.458203 346.356406) scale(0.11 -0.11)">
      <defs>
       <path id="DejaVuSans-54" d="M -19 4666 
L 3928 4666 
L 3928 4134 
L 2272 4134 
L 2272 0 
L 1638 0 
L 1638 4134 
L -19 4134 
L -19 4666 
z
" transform="scale(0.015625)"/>
       <path id="DejaVuSans-69" d="M 603 3500 
L 1178 3500 
L 1178 0 
L 603 0 
L 603 3500 
z
M 603 4863 
L 1178 4863 
L 1178 4134 
L 603 4134 
L 603 4863 
z
" transform="scale(0.015625)"/>
       <path id="DejaVuSans-6d" d="M 3328 2828 
Q 3544 3216 3844 3400 
Q 4144 3584 4550 3584 
Q 5097 3584 5394 3201 
Q 5691 2819 5691 2113 
L 5691 0 
L 5113 0 
L 5113 2094 
Q 5113 2597 4934 2840 
Q 4756 3084 4391 3084 
Q 3944 3084 3684 2787 
Q 3425 2491 3425 1978 
L 3425 0 
L 2847 0 
L 2847 2094 
Q 2847 2600 2669 2842 
Q 2491 3084 2119 3084 
Q 1678 3084 1418 2786 
Q 1159 2488 1159 1978 
L 1159 0 
L 581 0 
L 581 3500 
L 1159 3500 
L 1159 2956 
Q 1356 3278 1631 3431 
Q 1906 3584 2284 3584 
Q 2666 3584 2933 3390 
Q 3200 3197 3328 2828 
z
" transform="scale(0.015625)"/>
       <path id="DejaVuSans-65" d="M 3597 1894 
L 3597 1613 
L 953 1613 
Q 991 1019 1311 708 
Q 1631 397 2203 397 
Q 2534 397 2845 478 
Q 3156 559 3463 722 
L 3463 178 
Q 3153 47 2828 -22 
Q 2503 -91 2169 -91 
Q 1331 -91 842 396 
Q 353 884 353 1716 
Q 353 2575 817 3079 
Q 1281 3584 2069 3584 
Q 2775 3584 3186 3129 
Q 3597 2675 3597 1894 
z
M 3022 2063 
Q 3016 2534 2758 2815 
Q 2500 3097 2075 3097 
Q 1594 3097 1305 2825 
Q 1016 2553 972 2059 
L 3022 2063 
z
" transform="scale(0.015625)"/>
       <path id="DejaVuSans-20" transform="scale(0.015625)"/>
       <path id="DejaVuSans-5b" d="M 550 4863 
L 1875 4863 
L 1875 4416 
L 1125 4416 
L 1125 -397 
L 1875 -397 
L 1875 -844 
L 550 -844 
L 550 4863 
z
" transform="scale(0.015625)"/>
       <path id="DejaVuSans-73" d="M 2834 3397 
L 2834 2853 
Q 2591 2978 2328 3040 
Q 2066 3103 1784 3103 
Q 1356 3103 1142 2972 
Q 928 2841 928 2578 
Q 928 2378 1081 2264 
Q 1234 2150 1697 2047 
L 1894 2003 
Q 2506 1872 2764 1633 
Q 3022 1394 3022 966 
Q 3022 478 2636 193 
Q 2250 -91 1575 -91 
Q 1294 -91 989 -36 
Q 684 19 347 128 
L 347 722 
Q 666 556 975 473 
Q 1284 391 1588 391 
Q 1994 391 2212 530 
Q 2431 669 2431 922 
Q 2431 1156 2273 1281 
Q 2116 1406 1581 1522 
L 1381 1569 
Q 847 1681 609 1914 
Q 372 2147 372 2553 
Q 372 3047 722 3315 
Q 1072 3584 1716 3584 
Q 2034 3584 2315 3537 
Q 2597 3491 2834 3397 
z
" transform="scale(0.015625)"/>
       <path id="DejaVuSans-5d" d="M 1947 4863 
L 1947 -844 
L 622 -844 
L 622 -397 
L 1369 -397 
L 1369 4416 
L 622 4416 
L 622 4863 
L 1947 4863 
z
" transform="scale(0.015625)"/>
      </defs>
      <use xlink:href="#DejaVuSans-54"/>
      <use xlink:href="#DejaVuSans-69" transform="translate(57.958984 0)"/>
      <use xlink:href="#DejaVuSans-6d" transform="translate(85.742188 0)"/>
      <use xlink:href="#DejaVuSans-65" transform="translate(183.154297 0)"/>
      <use xlink:href="#DejaVuSans-20" transform="translate(244.677734 0)"/>
      <use xlink:href="#DejaVuSans-5b" transform="translate(276.464844 0)"/>
      <use xlink:href="#DejaVuSans-73" transform="translate(315.478516 0)"/>
      <use xlink:href="#DejaVuSans-5d" transform="translate(367.578125 0)"/>
     </g>
    </g>
   </g>
   <g id="matplotlib.axis_2">
    <g id="ytick_1">
     <g id="line2d_13">
      <path d="M 48.44 284.743101 
L 997.2 284.743101 
" clip-path="url(#pc16a8e7b05)" style="fill: none; stroke: #b0b0b0; stroke-opacity: 0.3; stroke-width: 0.8; stroke-linecap: square"/>
     </g>
     <g id="line2d_14">
      <defs>
       <path id="md0eefbc244" d="M 0 0 
L -3.5 0 
" style="stroke: #000000; stroke-width: 0.8"/>
      </defs>
      <g>
       <use xlink:href="#md0eefbc244" x="48.44" y="284.743101" style="stroke: #000000; stroke-width: 0.8"/>
      </g>
     </g>
     <g id="text_8">
      <!-- 4.0 -->
      <g transform="translate(25.536875 288.54232) scale(0.1 -0.1)">
       <defs>
        <path id="DejaVuSans-2e" d="M 684 794 
L 1344 794 
L 1344 0 
L 684 0 
L 684 794 
z
" transform="scale(0.015625)"/>
       </defs>
       <use xlink:href="#DejaVuSans-34"/>
       <use xlink:href="#DejaVuSans-2e" transform="translate(63.623047 0)"/>
       <use xlink:href="#DejaVuSans-30" transform="translate(95.410156 0)"/>
      </g>
     </g>
    </g>
    <g id="ytick_2">
     <g id="line2d_15">
      <path d="M 48.44 244.509783 
L 997.2 244.509783 
" clip-path="url(#pc16a8e7b05)" style="fill: none; stroke: #b0b0b0; stroke-opacity: 0.3; stroke-width: 0.8; stroke-linecap: square"/>
     </g>
     <g id="line2d_16">
      <g>
       <use xlink:href="#md0eefbc244" x="48.44" y="244.509783" style="stroke: #000000; stroke-width: 0.8"/>
      </g>
     </g>
     <g id="text_9">
      <!-- 4.5 -->
      <g transform="translate(25.536875 248.309002) scale(0.1 -0.1)">
       <defs>
        <path id="DejaVuSans-35" d="M 691 4666 
L 3169 4666 
L 3169 4134 
L 1269 4134 
L 1269 2991 
Q 1406 3038 1543 3061 
Q 1681 3084 1819 3084 
Q 2600 3084 3056 2656 
Q 3513 2228 3513 1497 
Q 3513 744 3044 326 
Q 2575 -91 1722 -91 
Q 1428 -91 1123 -41 
Q 819 9 494 109 
L 494 744 
Q 775 591 1075 516 
Q 1375 441 1709 441 
Q 2250 441 2565 725 
Q 2881 1009 2881 1497 
Q 2881 1984 2565 2268 
Q 2250 2553 1709 2553 
Q 1456 2553 1204 2497 
Q 953 2441 691 2322 
L 691 4666 
z
" transform="scale(0.015625)"/>
       </defs>
       <use xlink:href="#DejaVuSans-34"/>
       <use xlink:href="#DejaVuSans-2e" transform="translate(63.623047 0)"/>
       <use xlink:href="#DejaVuSans-35" transform="translate(95.410156 0)"/>
      </g>
     </g>
    </g>
    <g id="ytick_3">
     <g id="line2d_17">
      <path d="M 48.44 204.276466 
L 997.2 204.276466 
" clip-path="url(#pc16a8e7b05)" style="fill: none; stroke: #b0b0b0; stroke-opacity: 0.3; stroke-width: 0.8; stroke-linecap: square"/>
     </g>
     <g id="line2d_18">
      <g>
       <use xlink:href="#md0eefbc244" x="48.44" y="204.276466" style="stroke: #000000; stroke-width: 0.8"/>
      </g>
     </g>
     <g id="text_10">
      <!-- 5.0 -->
      <g transform="translate(25.536875 208.075684) scale(0.1 -0.1)">
       <use xlink:href="#DejaVuSans-35"/>
       <use xlink:href="#DejaVuSans-2e" transform="translate(63.623047 0)"/>
       <use xlink:href="#DejaVuSans-30" transform="translate(95.410156 0)"/>
      </g>
     </g>
    </g>
    <g id="ytick_4">
     <g id="line2d_19">
      <path d="M 48.44 164.043148 
L 997.2 164.043148 
" clip-path="url(#pc16a8e7b05)" style="fill: none; stroke: #b0b0b0; stroke-opacity: 0.3; stroke-width: 0.8; stroke-linecap: square"/>
     </g>
     <g id="line2d_20">
      <g>
       <use xlink:href="#md0eefbc244" x="48.44" y="164.043148" style="stroke: #000000; stroke-width: 0.8"/>
      </g>
     </g>
     <g id="text_11">
      <!-- 5.5 -->
      <g transform="translate(25.536875 167.842367) scale(0.1 -0.1)">
       <use xlink:href="#DejaVuSans-35"/>
       <use xlink:href="#DejaVuSans-2e" transform="translate(63.623047 0)"/>
       <use xlink:href="#DejaVuSans-35" transform="translate(95.410156 0)"/>
      </g>
     </g>
    </g>
    <g id="ytick_5">
     <g id="line2d_21">
      <path d="M 48.44 123.80983 
L 997.2 123.80983 
" clip-path="url(#pc16a8e7b05)" style="fill: none; stroke: #b0b0b0; stroke-opacity: 0.3; stroke-width: 0.8; stroke-linecap: square"/>
     </g>
     <g id="line2d_22">
      <g>
       <use xlink:href="#md0eefbc244" x="48.44" y="123.80983" style="stroke: #000000; stroke-width: 0.8"/>
      </g>
     </g>
     <g id="text_12">
      <!-- 6.0 -->
      <g transform="translate(25.536875 127.609049) scale(0.1 -0.1)">
       <use xlink:href="#DejaVuSans-36"/>
       <use xlink:href="#DejaVuSans-2e" transform="translate(63.623047 0)"/>
       <use xlink:href="#DejaVuSans-30" transform="translate(95.410156 0)"/>
      </g>
     </g>
    </g>
    <g id="ytick_6">
     <g id="line2d_23">
      <path d="M 48.44 83.576513 
L 997.2 83.576513 
" clip-path="url(#pc16a8e7b05)" style="fill: none; stroke: #b0b0b0; stroke-opacity: 0.3; stroke-width: 0.8; stroke-linecap: square"/>
     </g>
     <g id="line2d_24">
      <g>
       <use xlink:href="#md0eefbc244" x="48.44" y="83.576513" style="stroke: #000000; stroke-width: 0.8"/>
      </g>
     </g>
     <g id="text_13">
      <!-- 6.5 -->
      <g transform="translate(25.536875 87.375731) scale(0.1 -0.1)">
       <use xlink:href="#DejaVuSans-36"/>
       <use xlink:href="#DejaVuSans-2e" transform="translate(63.623047 0)"/>
       <use xlink:href="#DejaVuSans-35" transform="translate(95.410156 0)"/>
      </g>
     </g>
    </g>
    <g id="ytick_7">
     <g id="line2d_25">
      <path d="M 48.44 43.343195 
L 997.2 43.343195 
" clip-path="url(#pc16a8e7b05)" style="fill: none; stroke: #b0b0b0; stroke-opacity: 0.3; stroke-width: 0.8; stroke-linecap: square"/>
     </g>
     <g id="line2d_26">
      <g>
       <use xlink:href="#md0eefbc244" x="48.44" y="43.343195" style="stroke: #000000; stroke-width: 0.8"/>
      </g>
     </g>
     <g id="text_14">
      <!-- 7.0 -->
      <g transform="translate(25.536875 47.142414) scale(0.1 -0.1)">
       <defs>
        <path id="DejaVuSans-37" d="M 525 4666 
L 3525 4666 
L 3525 4397 
L 1831 0 
L 1172 0 
L 2766 4134 
L 525 4134 
L 525 4666 
z
" transform="scale(0.015625)"/>
       </defs>
       <use xlink:href="#DejaVuSans-37"/>
       <use xlink:href="#DejaVuSans-2e" transform="translate(63.623047 0)"/>
       <use xlink:href="#DejaVuSans-30" transform="translate(95.410156 0)"/>
      </g>
     </g>
    </g>
    <g id="text_15">
     <!-- Thrust [N] -->
     <g transform="translate(19.249219 199.867266) rotate(-90) scale(0.11 -0.11)">
      <defs>
       <path id="DejaVuSans-68" d="M 3513 2113 
L 3513 0 
L 2938 0 
L 2938 2094 
Q 2938 2591 2744 2837 
Q 2550 3084 2163 3084 
Q 1697 3084 1428 2787 
Q 1159 2491 1159 1978 
L 1159 0 
L 581 0 
L 581 4863 
L 1159 4863 
L 1159 2956 
Q 1366 3272 1645 3428 
Q 1925 3584 2291 3584 
Q 2894 3584 3203 3211 
Q 3513 2838 3513 2113 
z
" transform="scale(0.015625)"/>
       <path id="DejaVuSans-72" d="M 2631 2963 
Q 2534 3019 2420 3045 
Q 2306 3072 2169 3072 
Q 1681 3072 1420 2755 
Q 1159 2438 1159 1844 
L 1159 0 
L 581 0 
L 581 3500 
L 1159 3500 
L 1159 2956 
Q 1341 3275 1631 3429 
Q 1922 3584 2338 3584 
Q 2397 3584 2469 3576 
Q 2541 3569 2628 3553 
L 2631 2963 
z
" transform="scale(0.015625)"/>
       <path id="DejaVuSans-75" d="M 544 1381 
L 544 3500 
L 1119 3500 
L 1119 1403 
Q 1119 906 1312 657 
Q 1506 409 1894 409 
Q 2359 409 2629 706 
Q 2900 1003 2900 1516 
L 2900 3500 
L 3475 3500 
L 3475 0 
L 2900 0 
L 2900 538 
Q 2691 219 2414 64 
Q 2138 -91 1772 -91 
Q 1169 -91 856 284 
Q 544 659 544 1381 
z
M 1991 3584 
L 1991 3584 
z
" transform="scale(0.015625)"/>
       <path id="DejaVuSans-74" d="M 1172 4494 
L 1172 3500 
L 2356 3500 
L 2356 3053 
L 1172 3053 
L 1172 1153 
Q 1172 725 1289 603 
Q 1406 481 1766 481 
L 2356 481 
L 2356 0 
L 1766 0 
Q 1100 0 847 248 
Q 594 497 594 1153 
L 594 3053 
L 172 3053 
L 172 3500 
L 594 3500 
L 594 4494 
L 1172 4494 
z
" transform="scale(0.015625)"/>
       <path id="DejaVuSans-4e" d="M 628 4666 
L 1478 4666 
L 3547 763 
L 3547 4666 
L 4159 4666 
L 4159 0 
L 3309 0 
L 1241 3903 
L 1241 0 
L 628 0 
L 628 4666 
z
" transform="scale(0.015625)"/>
      </defs>
      <use xlink:href="#DejaVuSans-54"/>
      <use xlink:href="#DejaVuSans-68" transform="translate(61.083984 0)"/>
      <use xlink:href="#DejaVuSans-72" transform="translate(124.462891 0)"/>
      <use xlink:href="#DejaVuSans-75" transform="translate(165.576172 0)"/>
      <use xlink:href="#DejaVuSans-73" transform="translate(228.955078 0)"/>
      <use xlink:href="#DejaVuSans-74" transform="translate(281.054688 0)"/>
      <use xlink:href="#DejaVuSans-20" transform="translate(320.263672 0)"/>
      <use xlink:href="#DejaVuSans-5b" transform="translate(352.050781 0)"/>
      <use xlink:href="#DejaVuSans-4e" transform="translate(391.064453 0)"/>
      <use xlink:href="#DejaVuSans-5d" transform="translate(465.869141 0)"/>
     </g>
    </g>
   </g>
   <g id="line2d_27">
    <path d="M 91.565455 40.094582 
L 106.242786 40.081818 
L 107.106159 304.118182 
L 107.969531 222.807288 
L 108.832904 174.071966 
L 109.696276 134.859314 
L 110.559649 121.145268 
L 111.423021 122.236602 
L 112.286394 136.558175 
L 113.149766 136.170813 
L 114.013139 140.631842 
L 114.876511 122.726647 
L 116.603256 123.182906 
L 117.466628 146.260706 
L 118.330001 140.938404 
L 119.193373 138.661075 
L 120.056746 137.321685 
L 120.920118 136.576306 
L 121.783491 136.223359 
L 122.646863 166.53791 
L 123.510236 166.749935 
L 124.373608 144.14993 
L 125.236981 146.871608 
L 126.100353 148.654518 
L 126.963726 150.054035 
L 127.827098 151.172972 
L 128.69047 146.007682 
L 129.553843 144.244194 
L 130.417215 127.799821 
L 131.280588 128.477628 
L 132.14396 125.04618 
L 133.007333 156.039627 
L 133.870705 152.921728 
L 134.734078 152.176493 
L 135.59745 148.314553 
L 136.460823 150.092528 
L 137.324195 155.563097 
L 139.05094 158.723146 
L 139.914312 158.683551 
L 141.641057 158.403075 
L 142.50443 158.486336 
L 144.231175 159.021841 
L 145.95792 161.450604 
L 146.821292 165.882883 
L 147.684665 166.890387 
L 148.548037 167.650395 
L 149.41141 169.44182 
L 150.274782 168.186786 
L 151.138155 163.316684 
L 152.001527 162.456895 
L 152.864899 168.043191 
L 153.728272 167.758463 
L 154.591644 166.882942 
L 155.455017 173.076196 
L 156.318389 174.505709 
L 157.181762 174.716579 
L 158.045134 178.440718 
L 158.908507 173.461684 
L 159.771879 171.41899 
L 160.635252 170.894554 
L 161.498624 177.655734 
L 162.361997 179.09438 
L 163.225369 179.550726 
L 164.088741 179.79393 
L 164.952114 183.97434 
L 165.815486 185.377251 
L 166.678859 187.177586 
L 167.542231 182.636246 
L 168.405604 182.242413 
L 170.132349 182.178102 
L 170.995721 186.085444 
L 171.859094 187.091565 
L 172.722466 189.207493 
L 173.585839 190.811197 
L 174.449211 193.190865 
L 175.312583 192.956113 
L 176.175956 192.854941 
L 177.039328 191.884752 
L 177.902701 191.733736 
L 178.766073 191.711584 
L 179.629446 195.267493 
L 180.492818 197.295903 
L 181.356191 196.787885 
L 182.219563 201.330428 
L 183.082936 201.652976 
L 183.946308 201.172427 
L 184.809681 202.875603 
L 186.536426 201.429011 
L 187.399798 201.51742 
L 188.26317 201.747046 
L 189.126543 206.163074 
L 189.989915 205.529758 
L 190.853288 210.262892 
L 191.71666 211.915371 
L 192.580033 213.135644 
L 193.443405 212.421571 
L 194.306778 215.476388 
L 195.17015 214.293377 
L 196.033523 213.981916 
L 196.896895 211.800212 
L 198.62364 214.07599 
L 199.487012 217.794126 
L 201.213757 220.777738 
L 202.07713 223.080851 
L 202.940502 223.449599 
L 203.803875 223.280897 
L 204.667247 223.502639 
L 205.53062 218.323284 
L 206.393992 221.373349 
L 207.257365 226.197609 
L 208.120737 224.525573 
L 208.98411 227.927407 
L 209.847482 228.947164 
L 210.710854 230.411443 
L 211.574227 231.274666 
L 212.437599 233.389283 
L 213.300972 233.934121 
L 215.027717 233.196481 
L 215.891089 229.518043 
L 216.754462 230.466755 
L 217.617834 232.54502 
L 218.481207 236.750027 
L 219.344579 238.455464 
L 220.207952 239.726198 
L 221.071324 240.697381 
L 221.934697 240.628975 
L 222.798069 240.201802 
L 223.661441 240.429203 
L 224.524814 246.217334 
L 225.388186 245.968373 
L 226.251559 245.918839 
L 227.114931 244.08906 
L 227.978304 241.002035 
L 228.841676 247.092378 
L 229.705049 247.717123 
L 230.568421 249.657656 
L 232.295166 252.17519 
L 233.158539 252.75539 
L 234.021911 256.232353 
L 234.885283 252.072981 
L 235.748656 253.525736 
L 236.612028 254.240872 
L 237.475401 248.107249 
L 238.338773 251.097451 
L 239.202146 255.025535 
L 240.065518 257.570604 
L 240.928891 258.340042 
L 241.792263 260.263056 
L 242.655636 260.567251 
L 243.519008 260.256433 
L 244.382381 262.07075 
L 245.245753 259.127206 
L 246.109125 258.191592 
L 246.972498 257.871544 
L 248.699243 261.272972 
L 249.562615 265.681968 
L 250.425988 267.830358 
L 252.152733 268.685648 
L 253.016105 267.306382 
L 253.879478 267.631628 
L 254.74285 267.289885 
L 255.606223 267.344083 
L 256.469595 271.129303 
L 257.332968 270.973326 
L 258.19634 271.063305 
L 259.059712 267.222348 
L 260.786457 268.523992 
L 261.64983 286.937844 
L 262.513202 284.268028 
L 263.376575 282.907488 
L 264.239947 282.427834 
L 265.10332 269.37311 
L 265.966692 268.711597 
L 266.830065 259.198097 
L 267.693437 253.661339 
L 268.55681 291.765414 
L 269.420182 270.187382 
L 270.283554 272.313156 
L 271.146927 273.62112 
L 272.010299 274.635555 
L 272.873672 257.868257 
L 273.737044 276.694364 
L 274.600417 280.324927 
L 275.463789 282.393786 
L 276.327162 269.981713 
L 277.190534 287.601681 
L 278.053907 288.457143 
L 278.917279 284.798696 
L 279.780652 293.716524 
L 280.644024 295.330918 
L 281.507396 296.490411 
L 282.370769 297.303585 
L 283.234141 275.690623 
L 284.097514 276.230983 
L 284.960886 273.704721 
L 285.824259 272.282906 
L 286.687631 271.490686 
L 287.551004 271.046931 
L 288.414376 270.804755 
L 289.277749 271.212637 
L 290.141121 288.429477 
L 291.004494 269.376705 
L 292.731239 269.49427 
L 293.594611 297.427153 
L 295.321356 297.384479 
L 296.184728 286.066362 
L 297.048101 267.975646 
L 297.911473 274.691838 
L 298.774846 274.791433 
L 299.638218 276.621528 
L 300.501591 287.602187 
L 301.364963 288.142538 
L 302.228336 266.899314 
L 303.955081 267.972646 
L 304.818453 268.353272 
L 305.681825 296.830298 
L 306.545198 295.428182 
L 307.40857 294.496102 
L 308.271943 290.744944 
L 309.135315 269.400336 
L 309.998688 268.24347 
L 310.86206 267.526806 
L 311.725433 275.830761 
L 312.588805 291.27537 
L 313.452178 291.122542 
L 314.31555 265.052016 
L 316.042295 264.058067 
L 316.905667 291.703907 
L 317.76904 291.12794 
L 319.495785 290.419438 
L 320.359157 286.335637 
L 321.22253 269.973136 
L 322.085902 268.289718 
L 322.949275 280.792965 
L 323.812647 279.635178 
L 324.67602 278.910596 
L 325.539392 278.67531 
L 326.402765 278.804258 
L 327.266137 263.942371 
L 328.12951 262.801707 
L 328.992882 282.701923 
L 329.856254 283.992827 
L 331.582999 283.845687 
L 332.446372 281.419159 
L 333.309744 266.356501 
L 334.173117 263.6047 
L 335.036489 270.795537 
L 335.899862 284.069076 
L 337.626607 250.356801 
L 338.489979 248.993334 
L 339.353352 259.520397 
L 340.216724 257.670098 
L 341.080096 280.48316 
L 341.943469 280.030875 
L 342.806841 278.747003 
L 343.670214 277.744033 
L 344.533586 261.1507 
L 345.396959 261.308587 
L 346.260331 256.183744 
L 347.123704 254.433566 
L 347.987076 253.322377 
L 349.713821 276.770452 
L 351.440566 238.233476 
L 352.303938 250.78549 
L 353.167311 260.506215 
L 354.030683 258.964695 
L 354.894056 261.305326 
L 355.757428 257.316265 
L 356.620801 257.084272 
L 357.484173 256.708261 
L 358.347546 254.75281 
L 360.074291 252.972206 
L 360.937663 254.711737 
L 361.801036 253.756449 
L 363.527781 251.386679 
L 364.391153 250.425053 
L 365.254525 249.093239 
L 366.117898 250.106302 
L 366.98127 246.613208 
L 367.844643 246.219531 
L 368.708015 248.375066 
L 369.571388 248.134118 
L 370.43476 245.783922 
L 371.298133 245.804737 
L 372.161505 246.363718 
L 373.024878 243.57296 
L 373.88825 242.710818 
L 375.614995 239.95288 
L 376.478367 236.371717 
L 377.34174 234.530542 
L 378.205112 233.132392 
L 379.068485 234.181019 
L 379.931857 234.184872 
L 380.79523 233.58492 
L 381.658602 235.590129 
L 382.521975 236.730814 
L 383.385347 236.095328 
L 384.24872 234.93828 
L 385.112092 234.009809 
L 385.975465 232.549183 
L 386.838837 227.716149 
L 387.702209 225.55453 
L 390.292327 222.974853 
L 391.155699 223.427985 
L 392.019072 222.61872 
L 392.882444 221.966893 
L 394.609189 220.117083 
L 395.472562 218.910117 
L 396.335934 218.888287 
L 397.199307 217.486279 
L 398.062679 214.813017 
L 398.926052 217.79801 
L 399.789424 218.50005 
L 400.652796 216.20067 
L 401.516169 218.653763 
L 402.379541 215.946205 
L 403.242914 214.575619 
L 404.106286 209.787839 
L 404.969659 207.85662 
L 405.833031 207.161106 
L 406.696404 208.866592 
L 407.559776 206.8284 
L 408.423149 205.347818 
L 409.286521 205.568897 
L 411.013266 204.315695 
L 411.876638 206.352569 
L 413.603383 202.837327 
L 414.466756 198.768235 
L 416.193501 194.679859 
L 417.056873 196.541114 
L 417.920246 196.575394 
L 418.783618 196.340479 
L 419.646991 192.017904 
L 420.510363 193.907642 
L 421.373736 193.621703 
L 422.237108 192.920715 
L 423.10048 192.947936 
L 423.963853 191.975355 
L 424.827225 188.50922 
L 426.55397 184.830901 
L 427.417343 182.371312 
L 428.280715 185.800051 
L 429.144088 185.598877 
L 430.00746 185.808446 
L 430.870833 185.171098 
L 432.597578 183.34573 
L 433.46095 181.638826 
L 434.324323 181.086339 
L 435.187695 180.677576 
L 436.051067 180.055574 
L 437.777812 178.295244 
L 438.641185 177.765778 
L 439.504557 176.965232 
L 441.231302 173.556464 
L 442.094675 174.693857 
L 442.958047 171.018782 
L 443.82142 161.072288 
L 444.684792 164.757854 
L 445.548165 164.705738 
L 446.411537 164.220947 
L 447.274909 169.278622 
L 448.138282 170.355357 
L 449.865027 169.05499 
L 450.728399 163.526038 
L 451.591772 162.03023 
L 452.455144 160.780772 
L 453.318517 164.509548 
L 454.181889 162.677962 
L 456.772007 153.772694 
L 457.635379 155.051933 
L 458.498751 154.917309 
L 460.225496 155.616463 
L 461.088869 155.025521 
L 461.952241 152.296667 
L 462.815614 151.015527 
L 463.678986 153.25951 
L 464.542359 153.593104 
L 465.405731 151.209496 
L 466.269104 149.931318 
L 468.859221 147.859533 
L 469.722594 148.052112 
L 470.585966 148.366086 
L 471.449338 148.356801 
L 473.176083 147.92696 
L 474.039456 149.169845 
L 474.902828 143.52667 
L 475.766201 142.032445 
L 477.492946 139.631069 
L 478.356318 131.04572 
L 479.219691 128.395278 
L 480.083063 127.303097 
L 480.946436 149.530679 
L 481.809808 154.234531 
L 482.67318 151.928961 
L 483.536553 150.767789 
L 484.399925 161.592575 
L 485.263298 134.645219 
L 486.12667 136.025146 
L 486.990043 160.486043 
L 487.853415 145.166857 
L 488.716788 145.621064 
L 489.58016 144.950862 
L 490.443533 144.954058 
L 491.306905 146.39937 
L 492.170278 155.268978 
L 493.03365 154.436165 
L 493.897022 147.19782 
L 494.760395 146.358793 
L 495.623767 156.111158 
L 496.48714 138.991059 
L 497.350512 156.633195 
L 498.213885 142.197016 
L 499.077257 143.137187 
L 499.94063 143.778337 
L 500.804002 144.184458 
L 501.667375 144.42092 
L 502.530747 144.540667 
L 503.39412 106.937939 
L 504.257492 103.342214 
L 505.120865 119.835581 
L 505.984237 154.805912 
L 506.847609 141.854043 
L 507.710982 142.533323 
L 508.574354 143.015221 
L 510.301099 143.56978 
L 511.164472 143.719535 
L 512.027844 153.440794 
L 512.891217 137.702988 
L 513.754589 135.576413 
L 514.617962 154.377637 
L 515.481334 140.196166 
L 516.344707 141.175411 
L 517.208079 141.889908 
L 518.071451 142.410675 
L 518.934824 142.795189 
L 519.798196 113.425419 
L 520.661569 110.044688 
L 521.524941 142.38214 
L 522.388314 154.1775 
L 523.251686 137.958631 
L 524.115059 155.240093 
L 524.978431 139.701934 
L 525.841804 140.351277 
L 526.705176 153.478478 
L 527.568549 146.10912 
L 528.431921 152.924374 
L 529.295293 145.168207 
L 530.158666 144.404335 
L 531.022038 143.993109 
L 531.885411 123.456646 
L 532.748783 122.686588 
L 533.612156 142.721589 
L 535.338901 143.432472 
L 536.202273 156.2246 
L 537.065646 156.014255 
L 537.929018 156.014798 
L 538.792391 156.140499 
L 539.655763 149.219916 
L 540.519135 147.996793 
L 541.382508 147.63396 
L 542.24588 147.524939 
L 543.109253 160.502765 
L 543.972625 161.16702 
L 544.835998 146.491806 
L 546.562743 147.91423 
L 547.426115 151.950191 
L 548.289488 153.963184 
L 549.15286 160.913293 
L 550.879605 161.964543 
L 551.742978 152.711121 
L 552.60635 152.114632 
L 553.469722 151.893131 
L 554.333095 151.912628 
L 555.196467 118.841476 
L 556.05984 120.725258 
L 556.923212 156.68471 
L 559.51333 159.028067 
L 562.103447 161.525974 
L 562.96682 162.399592 
L 563.830192 163.445085 
L 564.693564 156.826747 
L 565.556937 154.398347 
L 566.420309 150.153186 
L 567.283682 151.86631 
L 568.147054 156.287843 
L 569.010427 157.075898 
L 569.873799 157.134184 
L 570.737172 157.036276 
L 571.600544 157.347466 
L 572.463917 155.24154 
L 573.327289 155.769955 
L 575.054034 159.587778 
L 575.917406 162.453126 
L 576.780779 163.629468 
L 577.644151 165.107336 
L 578.507524 162.641375 
L 579.370896 164.654442 
L 580.234269 165.551927 
L 581.097641 166.618389 
L 581.961014 164.124679 
L 582.824386 165.721087 
L 583.687759 162.552837 
L 584.551131 168.383457 
L 585.414504 164.824573 
L 586.277876 167.085876 
L 588.004621 169.694552 
L 588.867993 171.928728 
L 589.731366 172.539604 
L 591.458111 174.075556 
L 592.321483 173.950038 
L 593.184856 175.192571 
L 594.048228 176.160094 
L 594.911601 177.678279 
L 596.638346 179.288516 
L 597.501718 180.048788 
L 600.091835 182.887848 
L 601.81858 184.521995 
L 602.681953 190.832215 
L 603.545325 189.098893 
L 604.408698 189.318057 
L 605.27207 186.006371 
L 606.135443 187.833022 
L 607.862188 190.60154 
L 608.72556 192.388546 
L 609.588933 195.959748 
L 610.452305 196.838746 
L 612.17905 199.717022 
L 613.042422 200.90845 
L 613.905795 199.822557 
L 614.769167 199.738747 
L 615.63254 202.067281 
L 616.495912 202.115582 
L 617.359285 202.31409 
L 618.222657 200.378786 
L 619.08603 202.472589 
L 619.949402 206.563326 
L 620.812775 207.066625 
L 624.266264 212.953768 
L 625.129637 213.900628 
L 625.993009 214.386129 
L 626.856382 212.540989 
L 627.719754 212.894067 
L 628.583127 213.993096 
L 630.309872 214.757606 
L 631.173244 215.323202 
L 632.036617 215.329535 
L 632.899989 219.382183 
L 633.763362 221.550563 
L 634.626734 223.180762 
L 636.353479 225.33259 
L 638.080224 226.929918 
L 638.943596 229.029061 
L 641.533714 230.720863 
L 642.397086 229.801808 
L 643.260459 227.827535 
L 644.987204 228.779865 
L 645.850576 230.529937 
L 646.713948 235.111347 
L 647.577321 236.678968 
L 648.440693 236.910418 
L 649.304066 237.761831 
L 650.167438 237.732651 
L 651.030811 237.480898 
L 651.894183 237.920278 
L 652.757556 239.544057 
L 653.620928 238.888966 
L 654.484301 240.402969 
L 655.347673 245.336068 
L 656.211046 246.252579 
L 657.074418 246.178983 
L 657.937791 242.756173 
L 658.801163 242.222474 
L 659.664535 244.647358 
L 660.527908 248.740853 
L 661.39128 249.139005 
L 663.118025 244.520801 
L 663.981398 246.449229 
L 665.708143 253.838087 
L 666.571515 254.636598 
L 667.434888 254.422986 
L 668.29826 255.12822 
L 669.161633 257.291494 
L 670.025005 253.292215 
L 670.888377 252.638257 
L 671.75175 254.816234 
L 672.615122 251.923807 
L 673.478495 252.68541 
L 674.341867 255.177834 
L 675.20524 257.292619 
L 676.068612 259.905033 
L 676.931985 260.460441 
L 677.795357 261.657725 
L 679.522102 263.302211 
L 680.385475 263.480667 
L 681.248847 263.858383 
L 682.112219 263.377525 
L 682.975592 266.137939 
L 683.838964 262.433402 
L 684.702337 261.747352 
L 685.565709 261.403334 
L 686.429082 261.79007 
L 687.292454 270.275085 
L 688.155827 269.94757 
L 689.019199 270.438654 
L 689.882572 275.552071 
L 690.745944 278.264793 
L 691.609317 268.386446 
L 692.472689 256.89088 
L 693.336062 268.658949 
L 694.199434 287.667376 
L 695.062806 254.529635 
L 696.789551 255.580448 
L 697.652924 256.06147 
L 698.516296 262.208162 
L 699.379669 261.219414 
L 700.243041 260.69264 
L 701.106414 285.45381 
L 701.969786 284.536551 
L 702.833159 284.603603 
L 703.696531 283.858293 
L 704.559904 288.39168 
L 705.423276 289.742532 
L 706.286648 290.774382 
L 707.150021 291.562157 
L 708.013393 281.734038 
L 708.876766 263.9666 
L 709.740138 283.844582 
L 710.603511 289.168076 
L 711.466883 265.743595 
L 712.330256 267.394165 
L 713.193628 286.550885 
L 714.057001 287.255232 
L 714.920373 289.615401 
L 715.783746 291.267013 
L 716.647118 292.589231 
L 717.51049 292.734041 
L 718.373863 292.437053 
L 719.237235 271.406895 
L 720.100608 270.489767 
L 720.96398 265.604202 
L 721.827353 263.413786 
L 722.690725 262.022904 
L 723.554098 270.950428 
L 724.41747 270.478063 
L 725.280843 265.497695 
L 726.144215 265.528305 
L 727.007588 263.624525 
L 727.87096 269.800131 
L 728.734333 289.92725 
L 729.597705 290.233346 
L 730.461077 289.534845 
L 731.32445 287.546689 
L 732.187822 286.267128 
L 733.051195 285.41232 
L 733.914567 284.820404 
L 734.77794 284.394714 
L 735.641312 275.594994 
L 736.504685 293.444639 
L 737.368057 289.915645 
L 738.23143 266.994886 
L 739.094802 267.625529 
L 739.958175 265.572324 
L 740.821547 290.074764 
L 741.684919 288.53632 
L 742.548292 294.237021 
L 743.411664 295.130191 
L 744.275037 281.157916 
L 745.138409 281.385154 
L 746.001782 281.309797 
L 746.865154 284.736321 
L 747.728527 286.371384 
L 748.591899 287.512951 
L 749.455272 287.325327 
L 750.318644 287.906959 
L 751.182017 284.80489 
L 752.045389 267.211527 
L 752.908761 268.402313 
L 753.772134 294.095241 
L 754.635506 293.733863 
L 755.498879 277.470132 
L 756.362251 277.376302 
L 757.225624 262.369084 
L 758.088996 274.267384 
L 758.952369 272.889285 
L 759.815741 285.060943 
L 761.542486 284.532382 
L 762.405859 261.801071 
L 763.269231 254.52762 
L 764.132604 278.762107 
L 764.995976 272.322313 
L 765.859348 268.844365 
L 766.722721 271.159425 
L 767.586093 271.49426 
L 768.449466 253.944514 
L 769.312838 269.059816 
L 770.176211 267.126874 
L 771.039583 265.765592 
L 771.902956 264.72483 
L 772.766328 263.869666 
L 773.629701 257.061089 
L 774.493073 265.603263 
L 775.356446 248.55639 
L 776.219818 245.804239 
L 777.08319 282.945775 
L 777.946563 282.691443 
L 778.809935 262.78523 
L 779.673308 263.410393 
L 780.53668 246.536968 
L 781.400053 246.920895 
L 782.263425 246.988443 
L 783.126798 261.345234 
L 783.99017 259.806577 
L 784.853543 258.668446 
L 785.716915 257.72194 
L 786.580288 251.169819 
L 787.44366 257.703303 
L 788.307032 258.910628 
L 790.033777 254.026032 
L 790.89715 254.102297 
L 791.760522 252.319095 
L 792.623895 252.111531 
L 793.487267 251.383005 
L 794.35064 251.927886 
L 795.214012 253.272361 
L 796.077385 252.987627 
L 797.80413 251.116477 
L 798.667502 248.311676 
L 799.530875 248.388389 
L 800.394247 246.334809 
L 801.257619 244.841919 
L 802.120992 246.324271 
L 802.984364 241.634466 
L 803.847737 240.315826 
L 804.711109 244.467248 
L 805.574482 244.708688 
L 806.437854 244.044285 
L 807.301227 244.043946 
L 809.027972 242.426912 
L 809.891344 238.682194 
L 810.754717 237.293012 
L 811.618089 239.389874 
L 814.208206 234.845474 
L 815.071579 232.840782 
L 815.934951 228.715556 
L 816.798324 231.987687 
L 817.661696 232.43159 
L 820.251814 230.628271 
L 821.115186 229.793442 
L 821.978559 226.715961 
L 822.841931 228.095795 
L 825.432048 222.507407 
L 826.295421 221.278027 
L 827.158793 220.884609 
L 828.022166 217.271614 
L 828.885538 216.15276 
L 829.748911 219.035281 
L 830.612283 219.185842 
L 831.475656 218.619604 
L 832.339028 218.367073 
L 833.202401 215.126397 
L 834.065773 212.793968 
L 834.929146 210.077147 
L 835.792518 207.753003 
L 836.65589 209.608853 
L 837.519263 209.227476 
L 838.382635 206.498925 
L 839.246008 208.376389 
L 840.10938 208.330596 
L 840.972753 208.017205 
L 841.836125 207.998676 
L 843.56287 205.06129 
L 845.289615 201.057255 
L 846.152988 196.570792 
L 847.01636 195.376762 
L 847.879732 194.49851 
L 848.743105 196.284234 
L 849.606477 197.548105 
L 850.46985 198.405263 
L 851.333222 197.358615 
L 852.196595 193.983345 
L 853.059967 194.404994 
L 853.92334 192.322083 
L 854.786712 190.831547 
L 855.650085 186.846538 
L 856.513457 186.31506 
L 857.37683 186.368637 
L 858.240202 186.884677 
L 859.103574 186.48901 
L 860.830319 187.275137 
L 861.693692 186.334387 
L 862.557064 183.330259 
L 863.420437 177.555279 
L 864.283809 177.09812 
L 865.147182 180.352165 
L 866.010554 178.448127 
L 866.873927 179.206401 
L 867.737299 179.355202 
L 868.600672 176.988358 
L 869.464044 176.778305 
L 870.327417 174.383508 
L 871.190789 176.610656 
L 872.054161 174.563508 
L 872.917534 168.080403 
L 873.780906 167.522707 
L 874.644279 172.69748 
L 875.507651 169.768691 
L 876.371024 170.224077 
L 877.234396 170.140999 
L 878.097769 170.765602 
L 878.961141 171.54686 
L 879.824514 171.811124 
L 881.551259 156.382007 
L 882.414631 155.905432 
L 883.278003 163.980297 
L 884.141376 160.629915 
L 885.004748 163.129683 
L 885.868121 162.73272 
L 886.731493 162.991878 
L 887.594866 161.716472 
L 888.458238 164.434894 
L 889.321611 158.472529 
L 890.184983 148.355415 
L 891.048356 149.071516 
L 891.911728 153.810598 
L 892.775101 150.646844 
L 893.638473 154.932156 
L 894.501845 156.076792 
L 895.365218 156.46714 
L 896.22859 155.041331 
L 897.091963 150.593089 
L 897.955335 149.505718 
L 898.818708 144.58575 
L 899.68208 145.045372 
L 901.408825 146.940858 
L 902.272198 146.034295 
L 903.13557 149.126521 
L 903.998943 149.735171 
L 904.862315 149.111976 
L 905.725688 148.130637 
L 906.58906 143.28872 
L 907.452432 140.618337 
L 908.315805 155.241366 
L 909.179177 143.993171 
L 910.04255 136.502503 
L 911.769295 137.246393 
L 912.632667 137.434873 
L 913.49604 126.258158 
L 914.359412 124.815682 
L 915.222785 122.667924 
L 916.086157 136.301276 
L 916.94953 136.28219 
L 918.676274 135.939979 
L 919.539647 139.655892 
L 920.403019 138.466386 
L 921.266392 137.51942 
L 922.129764 159.302705 
L 923.856509 158.140502 
L 924.719882 115.620022 
L 925.583254 117.698995 
L 926.446627 119.09432 
L 927.309999 131.698008 
L 928.173372 131.960974 
L 929.036744 132.079883 
L 929.900116 113.934358 
L 930.763489 112.41097 
L 931.626861 111.331869 
L 932.490234 132.636305 
L 933.353606 124.868878 
L 934.216979 153.982508 
L 935.080351 155.377287 
L 935.943724 127.337135 
L 936.807096 128.421853 
L 937.670469 129.169009 
L 938.533841 129.670516 
L 940.260586 130.212788 
L 941.987331 130.432275 
L 943.714076 130.521225 
L 944.577448 126.862397 
L 945.440821 121.773433 
L 946.304193 154.427761 
L 947.167566 154.352478 
L 948.030938 127.043366 
L 948.894311 108.569972 
L 949.757683 108.393162 
L 950.621056 129.188431 
L 951.484428 182.766518 
L 952.347801 171.392905 
L 954.074545 301.666992 
L 954.074545 301.666992 
" clip-path="url(#pc16a8e7b05)" style="fill: none; stroke: #2ca02c; stroke-width: 1.2; stroke-linecap: square"/>
   </g>
   <g id="line2d_28">
    <path d="M 91.565455 40.094601 
L 104.516041 40.118744 
L 105.379414 179.505116 
L 106.242786 157.618182 
L 107.106159 143.396754 
L 107.969531 160.888962 
L 108.832904 184.878895 
L 109.696276 160.330684 
L 110.559649 149.55656 
L 111.423021 144.74771 
L 112.286394 142.526699 
L 113.149766 141.674014 
L 114.013139 141.370736 
L 115.739884 141.744683 
L 117.466628 142.510377 
L 119.193373 143.010975 
L 120.056746 143.753302 
L 121.783491 144.177159 
L 122.646863 144.887787 
L 123.510236 145.815689 
L 124.373608 146.03027 
L 126.963726 147.42383 
L 128.69047 148.730388 
L 130.417215 150.069805 
L 131.280588 150.968038 
L 133.007333 152.434748 
L 136.460823 154.355412 
L 137.324195 154.990309 
L 139.05094 156.675174 
L 142.50443 159.976332 
L 143.367802 160.47809 
L 146.821292 163.439108 
L 147.684665 164.342635 
L 148.548037 165.072058 
L 149.41141 165.648346 
L 152.001527 168.122683 
L 152.864899 168.595484 
L 153.728272 169.760053 
L 157.181762 173.541557 
L 158.908507 175.222476 
L 159.771879 175.761166 
L 164.088741 179.976288 
L 167.542231 183.721417 
L 170.995721 187.195755 
L 173.585839 189.942212 
L 174.449211 191.181401 
L 175.312583 191.925942 
L 180.492818 197.447298 
L 185.673053 202.973694 
L 188.26317 205.826989 
L 189.126543 207.117046 
L 189.989915 208.185136 
L 191.71666 209.824102 
L 201.213757 219.71707 
L 208.120737 227.030988 
L 210.710854 230.157963 
L 213.300972 232.456236 
L 230.568421 248.597772 
L 244.382381 259.876243 
L 246.109125 260.875912 
L 250.425988 263.858823 
L 251.28936 264.278931 
L 253.879478 265.900829 
L 255.606223 266.709682 
L 256.469595 267.494863 
L 258.19634 268.616228 
L 260.786457 270.014736 
L 262.513202 270.665875 
L 264.239947 271.755201 
L 265.10332 272.215737 
L 265.966692 272.411293 
L 266.830065 272.771425 
L 268.55681 273.886172 
L 269.420182 274.312304 
L 272.010299 274.936466 
L 273.737044 275.574273 
L 276.327162 276.818142 
L 280.644024 277.813644 
L 283.234141 278.345378 
L 284.097514 278.646892 
L 289.277749 279.699797 
L 291.004494 279.879905 
L 291.867866 279.635237 
L 297.048101 280.079543 
L 303.955081 280.041546 
L 307.40857 279.704016 
L 310.86206 279.165717 
L 316.905667 277.963591 
L 324.67602 275.42116 
L 327.266137 274.179863 
L 328.992882 273.81339 
L 330.719627 273.256606 
L 337.626607 269.306212 
L 338.489979 269.146613 
L 340.216724 268.426995 
L 341.943469 267.438944 
L 345.396959 265.152018 
L 346.260331 264.165277 
L 350.577194 261.488081 
L 352.303938 260.20586 
L 354.030683 259.113512 
L 356.620801 256.931569 
L 358.347546 255.85489 
L 362.664408 252.673701 
L 366.98127 248.636741 
L 368.708015 247.277118 
L 370.43476 245.467507 
L 372.161505 244.136506 
L 375.614995 240.756626 
L 377.34174 239.505548 
L 378.205112 238.533512 
L 379.068485 237.784312 
L 379.931857 236.837439 
L 380.79523 235.702551 
L 384.24872 232.572323 
L 392.019072 224.498391 
L 393.745817 222.768068 
L 396.335934 219.810076 
L 404.969659 211.040202 
L 407.559776 207.839025 
L 408.423149 206.863407 
L 409.286521 206.084656 
L 411.876638 203.264898 
L 415.330128 199.720284 
L 416.193501 198.600564 
L 417.920246 196.915088 
L 418.783618 195.661017 
L 423.963853 190.201887 
L 426.55397 187.593609 
L 429.144088 184.90606 
L 431.734205 182.343229 
L 436.051067 177.729631 
L 438.641185 175.095368 
L 439.504557 174.169041 
L 440.36793 173.416028 
L 441.231302 172.076925 
L 442.094675 171.09312 
L 442.958047 170.613832 
L 446.411537 167.431456 
L 447.274909 166.935553 
L 448.138282 166.188605 
L 449.001654 165.588787 
L 450.728399 164.106078 
L 451.591772 162.792878 
L 452.455144 161.736179 
L 455.045262 160.146919 
L 458.498751 156.962433 
L 460.225496 155.536954 
L 463.678986 153.046833 
L 465.405731 151.278267 
L 467.132476 150.05224 
L 470.585966 147.691296 
L 472.312711 146.555978 
L 474.039456 145.488838 
L 475.766201 144.474281 
L 478.356318 142.986939 
L 480.946436 141.692432 
L 482.67318 140.848019 
L 486.990043 138.60239 
L 488.716788 137.919949 
L 489.58016 137.833488 
L 492.170278 136.683365 
L 496.48714 135.254605 
L 499.94063 134.330102 
L 501.667375 133.672876 
L 502.530747 133.290774 
L 504.257492 133.301515 
L 505.984237 132.804737 
L 506.847609 132.465874 
L 507.710982 132.41411 
L 508.574354 132.722041 
L 509.437727 132.893723 
L 512.027844 132.181814 
L 512.891217 132.241531 
L 513.754589 132.512436 
L 514.617962 132.210473 
L 515.481334 132.062272 
L 516.344707 132.467653 
L 517.208079 132.338019 
L 518.071451 132.825099 
L 518.934824 132.968879 
L 519.798196 132.750182 
L 521.524941 132.688773 
L 524.115059 132.904959 
L 525.841804 133.151965 
L 528.431921 133.890912 
L 529.295293 134.048769 
L 530.158666 134.066029 
L 533.612156 135.246763 
L 534.475528 135.938118 
L 536.202273 136.59316 
L 537.065646 136.430703 
L 537.929018 136.974194 
L 538.792391 137.089713 
L 540.519135 137.744718 
L 541.382508 138.224301 
L 542.24588 138.562547 
L 543.109253 139.122357 
L 544.835998 139.659687 
L 546.562743 140.620545 
L 547.426115 141.055918 
L 549.15286 142.217154 
L 551.742978 143.588804 
L 554.333095 145.165733 
L 556.05984 146.057294 
L 556.923212 146.45196 
L 557.786585 146.992526 
L 558.649957 147.700644 
L 559.51333 147.995503 
L 561.240075 149.435583 
L 562.96682 150.782302 
L 563.830192 151.320173 
L 568.147054 154.858172 
L 570.737172 156.804624 
L 574.190662 159.605817 
L 575.054034 160.592196 
L 581.097641 165.717695 
L 582.824386 167.363173 
L 586.277876 170.458743 
L 592.321483 177.02662 
L 593.184856 177.792118 
L 594.048228 178.175078 
L 594.911601 179.029187 
L 598.365091 183.056797 
L 599.228463 183.651764 
L 600.955208 185.096002 
L 603.545325 188.490515 
L 604.408698 189.065703 
L 605.27207 189.789292 
L 606.135443 190.745061 
L 606.998815 191.919277 
L 608.72556 193.729544 
L 610.452305 195.785013 
L 611.315677 196.646657 
L 612.17905 197.337157 
L 613.042422 198.212427 
L 613.905795 199.290732 
L 615.63254 201.048555 
L 619.08603 205.017361 
L 621.676147 207.749458 
L 625.129637 211.904267 
L 625.993009 212.854924 
L 627.719754 214.100263 
L 632.899989 219.969916 
L 633.763362 220.732858 
L 635.490106 222.814749 
L 641.533714 228.85014 
L 644.123831 231.251649 
L 647.577321 234.73827 
L 649.304066 236.927865 
L 651.030811 238.383455 
L 651.894183 239.206667 
L 652.757556 239.742274 
L 655.347673 242.433075 
L 657.074418 244.087882 
L 658.801163 245.638463 
L 660.527908 247.001358 
L 662.254653 248.600048 
L 663.981398 249.989098 
L 664.84477 250.644476 
L 666.571515 252.198963 
L 669.161633 254.419698 
L 676.068612 259.724874 
L 681.248847 263.232122 
L 684.702337 265.22724 
L 688.155827 267.621644 
L 692.472689 270.192654 
L 694.199434 271.090406 
L 695.926179 271.57874 
L 697.652924 272.41092 
L 699.379669 272.927271 
L 701.969786 274.517654 
L 702.833159 274.951148 
L 706.286648 276.100287 
L 708.013393 276.6789 
L 710.603511 277.567564 
L 714.057001 278.056391 
L 715.783746 278.458414 
L 717.51049 279.125588 
L 720.100608 279.699302 
L 720.96398 279.495185 
L 722.690725 279.418751 
L 723.554098 279.522067 
L 725.280843 280.237268 
L 727.87096 279.990132 
L 728.734333 279.933751 
L 729.597705 280.109948 
L 730.461077 280.023738 
L 732.187822 280.350241 
L 733.051195 280.519706 
L 733.914567 280.478533 
L 735.641312 279.873535 
L 736.504685 279.650579 
L 738.23143 279.814318 
L 740.821547 279.754641 
L 743.411664 278.926271 
L 748.591899 277.584038 
L 749.455272 277.494348 
L 753.772134 276.231098 
L 754.635506 276.280709 
L 756.362251 275.82954 
L 759.815741 273.933685 
L 761.542486 273.228277 
L 763.269231 272.41972 
L 764.995976 271.972037 
L 766.722721 271.268512 
L 768.449466 270.128715 
L 775.356446 265.995283 
L 777.08319 265.00721 
L 778.809935 263.96848 
L 780.53668 262.918446 
L 784.853543 259.557503 
L 786.580288 258.596516 
L 787.44366 257.790999 
L 789.170405 256.424387 
L 790.89715 254.953199 
L 792.623895 253.781247 
L 794.35064 252.407814 
L 796.940757 249.991672 
L 798.667502 248.640033 
L 805.574482 242.495486 
L 808.164599 240.077205 
L 809.027972 239.28851 
L 811.618089 236.45075 
L 812.481461 235.623857 
L 813.344834 235.076115 
L 814.208206 234.020152 
L 815.934951 232.575239 
L 830.612283 217.179208 
L 839.246008 207.949568 
L 841.836125 204.831233 
L 843.56287 203.244192 
L 846.152988 200.734812 
L 847.01636 199.487257 
L 848.743105 197.47959 
L 849.606477 196.71404 
L 853.059967 192.943859 
L 855.650085 190.370261 
L 859.966947 185.687299 
L 860.830319 184.864894 
L 862.557064 182.641563 
L 866.010554 179.253956 
L 867.737299 177.329008 
L 869.464044 175.975348 
L 872.054161 173.717095 
L 872.917534 172.784757 
L 873.780906 171.622459 
L 880.687886 165.145055 
L 881.551259 164.430186 
L 882.414631 163.339317 
L 884.141376 162.135103 
L 887.594866 159.322927 
L 888.458238 158.386534 
L 889.321611 157.270589 
L 891.048356 155.638702 
L 893.638473 153.99974 
L 897.955335 150.998574 
L 903.13557 147.600163 
L 904.862315 146.2884 
L 905.725688 145.447864 
L 907.452432 144.519685 
L 909.179177 143.766001 
L 911.769295 141.520529 
L 913.49604 141.153132 
L 918.676274 138.721573 
L 921.266392 137.041881 
L 922.993137 136.639638 
L 923.856509 136.238362 
L 924.719882 136.011171 
L 926.446627 135.398184 
L 927.309999 135.212542 
L 928.173372 135.400302 
L 929.036744 135.113397 
L 929.900116 134.950613 
L 935.080351 133.251608 
L 938.533841 132.895317 
L 939.397214 132.572363 
L 940.260586 132.468821 
L 941.987331 132.634445 
L 942.850703 132.545413 
L 947.167566 132.575526 
L 948.894311 132.580427 
L 949.757683 132.22129 
L 950.621056 132.230523 
L 951.484428 141.575251 
L 952.347801 180.058354 
L 953.211173 266.967868 
L 954.074545 274.707733 
L 954.074545 274.707733 
" clip-path="url(#pc16a8e7b05)" style="fill: none; stroke-dasharray: 3.7,1.6; stroke-dashoffset: 0; stroke: #1f77b4"/>
   </g>
   <g id="patch_3">
    <path d="M 48.44 317.32 
L 48.44 26.88 
" style="fill: none; stroke: #000000; stroke-width: 0.8; stroke-linejoin: miter; stroke-linecap: square"/>
   </g>
   <g id="patch_4">
    <path d="M 997.2 317.32 
L 997.2 26.88 
" style="fill: none; stroke: #000000; stroke-width: 0.8; stroke-linejoin: miter; stroke-linecap: square"/>
   </g>
   <g id="patch_5">
    <path d="M 48.44 317.32 
L 997.2 317.32 
" style="fill: none; stroke: #000000; stroke-width: 0.8; stroke-linejoin: miter; stroke-linecap: square"/>
   </g>
   <g id="patch_6">
    <path d="M 48.44 26.88 
L 997.2 26.88 
" style="fill: none; stroke: #000000; stroke-width: 0.8; stroke-linejoin: miter; stroke-linecap: square"/>
   </g>
   <g id="text_16">
    <!-- Control Input — Thrust — figure-8_1 -->
    <g transform="translate(391.393047 20.88) scale(0.13 -0.13)">
     <defs>
      <path id="DejaVuSans-Bold-43" d="M 4288 256 
Q 3956 84 3597 -3 
Q 3238 -91 2847 -91 
Q 1681 -91 1000 561 
Q 319 1213 319 2328 
Q 319 3447 1000 4098 
Q 1681 4750 2847 4750 
Q 3238 4750 3597 4662 
Q 3956 4575 4288 4403 
L 4288 3438 
Q 3953 3666 3628 3772 
Q 3303 3878 2944 3878 
Q 2300 3878 1931 3465 
Q 1563 3053 1563 2328 
Q 1563 1606 1931 1193 
Q 2300 781 2944 781 
Q 3303 781 3628 887 
Q 3953 994 4288 1222 
L 4288 256 
z
" transform="scale(0.015625)"/>
      <path id="DejaVuSans-Bold-6f" d="M 2203 2784 
Q 1831 2784 1636 2517 
Q 1441 2250 1441 1747 
Q 1441 1244 1636 976 
Q 1831 709 2203 709 
Q 2569 709 2762 976 
Q 2956 1244 2956 1747 
Q 2956 2250 2762 2517 
Q 2569 2784 2203 2784 
z
M 2203 3584 
Q 3106 3584 3614 3096 
Q 4122 2609 4122 1747 
Q 4122 884 3614 396 
Q 3106 -91 2203 -91 
Q 1297 -91 786 396 
Q 275 884 275 1747 
Q 275 2609 786 3096 
Q 1297 3584 2203 3584 
z
" transform="scale(0.015625)"/>
      <path id="DejaVuSans-Bold-6e" d="M 4056 2131 
L 4056 0 
L 2931 0 
L 2931 347 
L 2931 1631 
Q 2931 2084 2911 2256 
Q 2891 2428 2841 2509 
Q 2775 2619 2662 2680 
Q 2550 2741 2406 2741 
Q 2056 2741 1856 2470 
Q 1656 2200 1656 1722 
L 1656 0 
L 538 0 
L 538 3500 
L 1656 3500 
L 1656 2988 
Q 1909 3294 2193 3439 
Q 2478 3584 2822 3584 
Q 3428 3584 3742 3212 
Q 4056 2841 4056 2131 
z
" transform="scale(0.015625)"/>
      <path id="DejaVuSans-Bold-74" d="M 1759 4494 
L 1759 3500 
L 2913 3500 
L 2913 2700 
L 1759 2700 
L 1759 1216 
Q 1759 972 1856 886 
Q 1953 800 2241 800 
L 2816 800 
L 2816 0 
L 1856 0 
Q 1194 0 917 276 
Q 641 553 641 1216 
L 641 2700 
L 84 2700 
L 84 3500 
L 641 3500 
L 641 4494 
L 1759 4494 
z
" transform="scale(0.015625)"/>
      <path id="DejaVuSans-Bold-72" d="M 3138 2547 
Q 2991 2616 2845 2648 
Q 2700 2681 2553 2681 
Q 2122 2681 1889 2404 
Q 1656 2128 1656 1613 
L 1656 0 
L 538 0 
L 538 3500 
L 1656 3500 
L 1656 2925 
Q 1872 3269 2151 3426 
Q 2431 3584 2822 3584 
Q 2878 3584 2943 3579 
Q 3009 3575 3134 3559 
L 3138 2547 
z
" transform="scale(0.015625)"/>
      <path id="DejaVuSans-Bold-6c" d="M 538 4863 
L 1656 4863 
L 1656 0 
L 538 0 
L 538 4863 
z
" transform="scale(0.015625)"/>
      <path id="DejaVuSans-Bold-20" transform="scale(0.015625)"/>
      <path id="DejaVuSans-Bold-49" d="M 588 4666 
L 1791 4666 
L 1791 0 
L 588 0 
L 588 4666 
z
" transform="scale(0.015625)"/>
      <path id="DejaVuSans-Bold-70" d="M 1656 506 
L 1656 -1331 
L 538 -1331 
L 538 3500 
L 1656 3500 
L 1656 2988 
Q 1888 3294 2169 3439 
Q 2450 3584 2816 3584 
Q 3463 3584 3878 3070 
Q 4294 2556 4294 1747 
Q 4294 938 3878 423 
Q 3463 -91 2816 -91 
Q 2450 -91 2169 54 
Q 1888 200 1656 506 
z
M 2400 2772 
Q 2041 2772 1848 2508 
Q 1656 2244 1656 1747 
Q 1656 1250 1848 986 
Q 2041 722 2400 722 
Q 2759 722 2948 984 
Q 3138 1247 3138 1747 
Q 3138 2247 2948 2509 
Q 2759 2772 2400 2772 
z
" transform="scale(0.015625)"/>
      <path id="DejaVuSans-Bold-75" d="M 500 1363 
L 500 3500 
L 1625 3500 
L 1625 3150 
Q 1625 2866 1622 2436 
Q 1619 2006 1619 1863 
Q 1619 1441 1641 1255 
Q 1663 1069 1716 984 
Q 1784 875 1895 815 
Q 2006 756 2150 756 
Q 2500 756 2700 1025 
Q 2900 1294 2900 1772 
L 2900 3500 
L 4019 3500 
L 4019 0 
L 2900 0 
L 2900 506 
Q 2647 200 2364 54 
Q 2081 -91 1741 -91 
Q 1134 -91 817 281 
Q 500 653 500 1363 
z
" transform="scale(0.015625)"/>
      <path id="DejaVuSans-Bold-2014" d="M 344 2156 
L 6056 2156 
L 6056 1350 
L 344 1350 
L 344 2156 
z
" transform="scale(0.015625)"/>
      <path id="DejaVuSans-Bold-54" d="M 31 4666 
L 4331 4666 
L 4331 3756 
L 2784 3756 
L 2784 0 
L 1581 0 
L 1581 3756 
L 31 3756 
L 31 4666 
z
" transform="scale(0.015625)"/>
      <path id="DejaVuSans-Bold-68" d="M 4056 2131 
L 4056 0 
L 2931 0 
L 2931 347 
L 2931 1625 
Q 2931 2084 2911 2256 
Q 2891 2428 2841 2509 
Q 2775 2619 2662 2680 
Q 2550 2741 2406 2741 
Q 2056 2741 1856 2470 
Q 1656 2200 1656 1722 
L 1656 0 
L 538 0 
L 538 4863 
L 1656 4863 
L 1656 2988 
Q 1909 3294 2193 3439 
Q 2478 3584 2822 3584 
Q 3428 3584 3742 3212 
Q 4056 2841 4056 2131 
z
" transform="scale(0.015625)"/>
      <path id="DejaVuSans-Bold-73" d="M 3272 3391 
L 3272 2541 
Q 2913 2691 2578 2766 
Q 2244 2841 1947 2841 
Q 1628 2841 1473 2761 
Q 1319 2681 1319 2516 
Q 1319 2381 1436 2309 
Q 1553 2238 1856 2203 
L 2053 2175 
Q 2913 2066 3209 1816 
Q 3506 1566 3506 1031 
Q 3506 472 3093 190 
Q 2681 -91 1863 -91 
Q 1516 -91 1145 -36 
Q 775 19 384 128 
L 384 978 
Q 719 816 1070 734 
Q 1422 653 1784 653 
Q 2113 653 2278 743 
Q 2444 834 2444 1013 
Q 2444 1163 2330 1236 
Q 2216 1309 1875 1350 
L 1678 1375 
Q 931 1469 631 1722 
Q 331 1975 331 2491 
Q 331 3047 712 3315 
Q 1094 3584 1881 3584 
Q 2191 3584 2531 3537 
Q 2872 3491 3272 3391 
z
" transform="scale(0.015625)"/>
      <path id="DejaVuSans-Bold-66" d="M 2841 4863 
L 2841 4128 
L 2222 4128 
Q 1984 4128 1890 4042 
Q 1797 3956 1797 3744 
L 1797 3500 
L 2753 3500 
L 2753 2700 
L 1797 2700 
L 1797 0 
L 678 0 
L 678 2700 
L 122 2700 
L 122 3500 
L 678 3500 
L 678 3744 
Q 678 4316 997 4589 
Q 1316 4863 1984 4863 
L 2841 4863 
z
" transform="scale(0.015625)"/>
      <path id="DejaVuSans-Bold-69" d="M 538 3500 
L 1656 3500 
L 1656 0 
L 538 0 
L 538 3500 
z
M 538 4863 
L 1656 4863 
L 1656 3950 
L 538 3950 
L 538 4863 
z
" transform="scale(0.015625)"/>
      <path id="DejaVuSans-Bold-67" d="M 2919 594 
Q 2688 288 2409 144 
Q 2131 0 1766 0 
Q 1125 0 706 504 
Q 288 1009 288 1791 
Q 288 2575 706 3076 
Q 1125 3578 1766 3578 
Q 2131 3578 2409 3434 
Q 2688 3291 2919 2981 
L 2919 3500 
L 4044 3500 
L 4044 353 
Q 4044 -491 3511 -936 
Q 2978 -1381 1966 -1381 
Q 1638 -1381 1331 -1331 
Q 1025 -1281 716 -1178 
L 716 -306 
Q 1009 -475 1290 -558 
Q 1572 -641 1856 -641 
Q 2406 -641 2662 -400 
Q 2919 -159 2919 353 
L 2919 594 
z
M 2181 2772 
Q 1834 2772 1640 2515 
Q 1447 2259 1447 1791 
Q 1447 1309 1634 1061 
Q 1822 813 2181 813 
Q 2531 813 2725 1069 
Q 2919 1325 2919 1791 
Q 2919 2259 2725 2515 
Q 2531 2772 2181 2772 
z
" transform="scale(0.015625)"/>
      <path id="DejaVuSans-Bold-65" d="M 4031 1759 
L 4031 1441 
L 1416 1441 
Q 1456 1047 1700 850 
Q 1944 653 2381 653 
Q 2734 653 3104 758 
Q 3475 863 3866 1075 
L 3866 213 
Q 3469 63 3072 -14 
Q 2675 -91 2278 -91 
Q 1328 -91 801 392 
Q 275 875 275 1747 
Q 275 2603 792 3093 
Q 1309 3584 2216 3584 
Q 3041 3584 3536 3087 
Q 4031 2591 4031 1759 
z
M 2881 2131 
Q 2881 2450 2695 2645 
Q 2509 2841 2209 2841 
Q 1884 2841 1681 2658 
Q 1478 2475 1428 2131 
L 2881 2131 
z
" transform="scale(0.015625)"/>
      <path id="DejaVuSans-Bold-2d" d="M 347 2297 
L 2309 2297 
L 2309 1388 
L 347 1388 
L 347 2297 
z
" transform="scale(0.015625)"/>
      <path id="DejaVuSans-Bold-38" d="M 2228 2088 
Q 1891 2088 1709 1903 
Q 1528 1719 1528 1375 
Q 1528 1031 1709 848 
Q 1891 666 2228 666 
Q 2563 666 2741 848 
Q 2919 1031 2919 1375 
Q 2919 1722 2741 1905 
Q 2563 2088 2228 2088 
z
M 1350 2484 
Q 925 2613 709 2878 
Q 494 3144 494 3541 
Q 494 4131 934 4440 
Q 1375 4750 2228 4750 
Q 3075 4750 3515 4442 
Q 3956 4134 3956 3541 
Q 3956 3144 3739 2878 
Q 3522 2613 3097 2484 
Q 3572 2353 3814 2058 
Q 4056 1763 4056 1313 
Q 4056 619 3595 264 
Q 3134 -91 2228 -91 
Q 1319 -91 855 264 
Q 391 619 391 1313 
Q 391 1763 633 2058 
Q 875 2353 1350 2484 
z
M 1631 3419 
Q 1631 3141 1786 2991 
Q 1941 2841 2228 2841 
Q 2509 2841 2662 2991 
Q 2816 3141 2816 3419 
Q 2816 3697 2662 3845 
Q 2509 3994 2228 3994 
Q 1941 3994 1786 3844 
Q 1631 3694 1631 3419 
z
" transform="scale(0.015625)"/>
      <path id="DejaVuSans-Bold-5f" d="M 3200 -916 
L 3200 -1509 
L 0 -1509 
L 0 -916 
L 3200 -916 
z
" transform="scale(0.015625)"/>
      <path id="DejaVuSans-Bold-31" d="M 750 831 
L 1813 831 
L 1813 3847 
L 722 3622 
L 722 4441 
L 1806 4666 
L 2950 4666 
L 2950 831 
L 4013 831 
L 4013 0 
L 750 0 
L 750 831 
z
" transform="scale(0.015625)"/>
     </defs>
     <use xlink:href="#DejaVuSans-Bold-43"/>
     <use xlink:href="#DejaVuSans-Bold-6f" transform="translate(73.388672 0)"/>
     <use xlink:href="#DejaVuSans-Bold-6e" transform="translate(142.089844 0)"/>
     <use xlink:href="#DejaVuSans-Bold-74" transform="translate(213.28125 0)"/>
     <use xlink:href="#DejaVuSans-Bold-72" transform="translate(261.083984 0)"/>
     <use xlink:href="#DejaVuSans-Bold-6f" transform="translate(310.400391 0)"/>
     <use xlink:href="#DejaVuSans-Bold-6c" transform="translate(379.101562 0)"/>
     <use xlink:href="#DejaVuSans-Bold-20" transform="translate(413.378906 0)"/>
     <use xlink:href="#DejaVuSans-Bold-49" transform="translate(448.193359 0)"/>
     <use xlink:href="#DejaVuSans-Bold-6e" transform="translate(485.400391 0)"/>
     <use xlink:href="#DejaVuSans-Bold-70" transform="translate(556.591797 0)"/>
     <use xlink:href="#DejaVuSans-Bold-75" transform="translate(628.173828 0)"/>
     <use xlink:href="#DejaVuSans-Bold-74" transform="translate(699.365234 0)"/>
     <use xlink:href="#DejaVuSans-Bold-20" transform="translate(747.167969 0)"/>
     <use xlink:href="#DejaVuSans-Bold-2014" transform="translate(781.982422 0)"/>
     <use xlink:href="#DejaVuSans-Bold-20" transform="translate(881.982422 0)"/>
     <use xlink:href="#DejaVuSans-Bold-54" transform="translate(916.796875 0)"/>
     <use xlink:href="#DejaVuSans-Bold-68" transform="translate(985.009766 0)"/>
     <use xlink:href="#DejaVuSans-Bold-72" transform="translate(1056.201172 0)"/>
     <use xlink:href="#DejaVuSans-Bold-75" transform="translate(1105.517578 0)"/>
     <use xlink:href="#DejaVuSans-Bold-73" transform="translate(1176.708984 0)"/>
     <use xlink:href="#DejaVuSans-Bold-74" transform="translate(1236.230469 0)"/>
     <use xlink:href="#DejaVuSans-Bold-20" transform="translate(1284.033203 0)"/>
     <use xlink:href="#DejaVuSans-Bold-2014" transform="translate(1318.847656 0)"/>
     <use xlink:href="#DejaVuSans-Bold-20" transform="translate(1418.847656 0)"/>
     <use xlink:href="#DejaVuSans-Bold-66" transform="translate(1453.662109 0)"/>
     <use xlink:href="#DejaVuSans-Bold-69" transform="translate(1497.167969 0)"/>
     <use xlink:href="#DejaVuSans-Bold-67" transform="translate(1531.445312 0)"/>
     <use xlink:href="#DejaVuSans-Bold-75" transform="translate(1603.027344 0)"/>
     <use xlink:href="#DejaVuSans-Bold-72" transform="translate(1674.21875 0)"/>
     <use xlink:href="#DejaVuSans-Bold-65" transform="translate(1723.535156 0)"/>
     <use xlink:href="#DejaVuSans-Bold-2d" transform="translate(1791.357422 0)"/>
     <use xlink:href="#DejaVuSans-Bold-38" transform="translate(1832.861328 0)"/>
     <use xlink:href="#DejaVuSans-Bold-5f" transform="translate(1902.441406 0)"/>
     <use xlink:href="#DejaVuSans-Bold-31" transform="translate(1952.441406 0)"/>
    </g>
   </g>
   <g id="legend_1">
    <g id="patch_7">
     <path d="M 897.535938 64.23625 
L 990.2 64.23625 
Q 992.2 64.23625 992.2 62.23625 
L 992.2 33.88 
Q 992.2 31.88 990.2 31.88 
L 897.535938 31.88 
Q 895.535938 31.88 895.535938 33.88 
L 895.535938 62.23625 
Q 895.535938 64.23625 897.535938 64.23625 
z
" style="fill: #ffffff; opacity: 0.8; stroke: #cccccc; stroke-linejoin: miter"/>
    </g>
    <g id="line2d_29">
     <path d="M 899.535938 39.978437 
L 909.535938 39.978437 
L 919.535938 39.978437 
" style="fill: none; stroke: #2ca02c; stroke-width: 1.2; stroke-linecap: square"/>
    </g>
    <g id="text_17">
     <!-- EDMDc MPC -->
     <g transform="translate(927.535938 43.478437) scale(0.1 -0.1)">
      <defs>
       <path id="DejaVuSans-45" d="M 628 4666 
L 3578 4666 
L 3578 4134 
L 1259 4134 
L 1259 2753 
L 3481 2753 
L 3481 2222 
L 1259 2222 
L 1259 531 
L 3634 531 
L 3634 0 
L 628 0 
L 628 4666 
z
" transform="scale(0.015625)"/>
       <path id="DejaVuSans-44" d="M 1259 4147 
L 1259 519 
L 2022 519 
Q 2988 519 3436 956 
Q 3884 1394 3884 2338 
Q 3884 3275 3436 3711 
Q 2988 4147 2022 4147 
L 1259 4147 
z
M 628 4666 
L 1925 4666 
Q 3281 4666 3915 4102 
Q 4550 3538 4550 2338 
Q 4550 1131 3912 565 
Q 3275 0 1925 0 
L 628 0 
L 628 4666 
z
" transform="scale(0.015625)"/>
       <path id="DejaVuSans-4d" d="M 628 4666 
L 1569 4666 
L 2759 1491 
L 3956 4666 
L 4897 4666 
L 4897 0 
L 4281 0 
L 4281 4097 
L 3078 897 
L 2444 897 
L 1241 4097 
L 1241 0 
L 628 0 
L 628 4666 
z
" transform="scale(0.015625)"/>
       <path id="DejaVuSans-63" d="M 3122 3366 
L 3122 2828 
Q 2878 2963 2633 3030 
Q 2388 3097 2138 3097 
Q 1578 3097 1268 2742 
Q 959 2388 959 1747 
Q 959 1106 1268 751 
Q 1578 397 2138 397 
Q 2388 397 2633 464 
Q 2878 531 3122 666 
L 3122 134 
Q 2881 22 2623 -34 
Q 2366 -91 2075 -91 
Q 1284 -91 818 406 
Q 353 903 353 1747 
Q 353 2603 823 3093 
Q 1294 3584 2113 3584 
Q 2378 3584 2631 3529 
Q 2884 3475 3122 3366 
z
" transform="scale(0.015625)"/>
       <path id="DejaVuSans-50" d="M 1259 4147 
L 1259 2394 
L 2053 2394 
Q 2494 2394 2734 2622 
Q 2975 2850 2975 3272 
Q 2975 3691 2734 3919 
Q 2494 4147 2053 4147 
L 1259 4147 
z
M 628 4666 
L 2053 4666 
Q 2838 4666 3239 4311 
Q 3641 3956 3641 3272 
Q 3641 2581 3239 2228 
Q 2838 1875 2053 1875 
L 1259 1875 
L 1259 0 
L 628 0 
L 628 4666 
z
" transform="scale(0.015625)"/>
       <path id="DejaVuSans-43" d="M 4122 4306 
L 4122 3641 
Q 3803 3938 3442 4084 
Q 3081 4231 2675 4231 
Q 1875 4231 1450 3742 
Q 1025 3253 1025 2328 
Q 1025 1406 1450 917 
Q 1875 428 2675 428 
Q 3081 428 3442 575 
Q 3803 722 4122 1019 
L 4122 359 
Q 3791 134 3420 21 
Q 3050 -91 2638 -91 
Q 1578 -91 968 557 
Q 359 1206 359 2328 
Q 359 3453 968 4101 
Q 1578 4750 2638 4750 
Q 3056 4750 3426 4639 
Q 3797 4528 4122 4306 
z
" transform="scale(0.015625)"/>
      </defs>
      <use xlink:href="#DejaVuSans-45"/>
      <use xlink:href="#DejaVuSans-44" transform="translate(63.183594 0)"/>
      <use xlink:href="#DejaVuSans-4d" transform="translate(140.185547 0)"/>
      <use xlink:href="#DejaVuSans-44" transform="translate(226.464844 0)"/>
      <use xlink:href="#DejaVuSans-63" transform="translate(303.466797 0)"/>
      <use xlink:href="#DejaVuSans-20" transform="translate(358.447266 0)"/>
      <use xlink:href="#DejaVuSans-4d" transform="translate(390.234375 0)"/>
      <use xlink:href="#DejaVuSans-50" transform="translate(476.513672 0)"/>
      <use xlink:href="#DejaVuSans-43" transform="translate(536.816406 0)"/>
     </g>
    </g>
    <g id="line2d_30">
     <path d="M 899.535938 54.656563 
L 909.535938 54.656563 
L 919.535938 54.656563 
" style="fill: none; stroke-dasharray: 3.7,1.6; stroke-dashoffset: 0; stroke: #1f77b4"/>
    </g>
    <g id="text_18">
     <!-- Linear MPC -->
     <g transform="translate(927.535938 58.156563) scale(0.1 -0.1)">
      <defs>
       <path id="DejaVuSans-4c" d="M 628 4666 
L 1259 4666 
L 1259 531 
L 3531 531 
L 3531 0 
L 628 0 
L 628 4666 
z
" transform="scale(0.015625)"/>
       <path id="DejaVuSans-6e" d="M 3513 2113 
L 3513 0 
L 2938 0 
L 2938 2094 
Q 2938 2591 2744 2837 
Q 2550 3084 2163 3084 
Q 1697 3084 1428 2787 
Q 1159 2491 1159 1978 
L 1159 0 
L 581 0 
L 581 3500 
L 1159 3500 
L 1159 2956 
Q 1366 3272 1645 3428 
Q 1925 3584 2291 3584 
Q 2894 3584 3203 3211 
Q 3513 2838 3513 2113 
z
" transform="scale(0.015625)"/>
       <path id="DejaVuSans-61" d="M 2194 1759 
Q 1497 1759 1228 1600 
Q 959 1441 959 1056 
Q 959 750 1161 570 
Q 1363 391 1709 391 
Q 2188 391 2477 730 
Q 2766 1069 2766 1631 
L 2766 1759 
L 2194 1759 
z
M 3341 1997 
L 3341 0 
L 2766 0 
L 2766 531 
Q 2569 213 2275 61 
Q 1981 -91 1556 -91 
Q 1019 -91 701 211 
Q 384 513 384 1019 
Q 384 1609 779 1909 
Q 1175 2209 1959 2209 
L 2766 2209 
L 2766 2266 
Q 2766 2663 2505 2880 
Q 2244 3097 1772 3097 
Q 1472 3097 1187 3025 
Q 903 2953 641 2809 
L 641 3341 
Q 956 3463 1253 3523 
Q 1550 3584 1831 3584 
Q 2591 3584 2966 3190 
Q 3341 2797 3341 1997 
z
" transform="scale(0.015625)"/>
      </defs>
      <use xlink:href="#DejaVuSans-4c"/>
      <use xlink:href="#DejaVuSans-69" transform="translate(55.712891 0)"/>
      <use xlink:href="#DejaVuSans-6e" transform="translate(83.496094 0)"/>
      <use xlink:href="#DejaVuSans-65" transform="translate(146.875 0)"/>
      <use xlink:href="#DejaVuSans-61" transform="translate(208.398438 0)"/>
      <use xlink:href="#DejaVuSans-72" transform="translate(269.677734 0)"/>
      <use xlink:href="#DejaVuSans-20" transform="translate(310.791016 0)"/>
      <use xlink:href="#DejaVuSans-4d" transform="translate(342.578125 0)"/>
      <use xlink:href="#DejaVuSans-50" transform="translate(428.857422 0)"/>
      <use xlink:href="#DejaVuSans-43" transform="translate(489.160156 0)"/>
     </g>
    </g>
   </g>
  </g>
 </g>
 <defs>
  <clipPath id="pc16a8e7b05">
   <rect x="48.44" y="26.88" width="948.76" height="290.44"/>
  </clipPath>
 </defs>
</svg>
