<?xml version="1.0" encoding="utf-8" standalone="no"?>
<!DOCTYPE svg PUBLIC "-//W3C//DTD SVG 1.1//EN"
  "http://www.w3.org/Graphics/SVG/1.1/DTD/svg11.dtd">
<svg xmlns:xlink="http://www.w3.org/1999/xlink" width="1008pt" height="360pt" viewBox="0 0 1008 360" xmlns="http://www.w3.org/2000/svg" version="1.1">
 <metadata>
  <rdf:RDF xmlns:dc="http://purl.org/dc/elements/1.1/" xmlns:cc="http://creativecommons.org/ns#" xmlns:rdf="http://www.w3.org/1999/02/22-rdf-syntax-ns#">
   <cc:Work>
    <dc:type rdf:resource="http://purl.org/dc/dcmitype/StillImage"/>
    <dc:date>2026-03-30T18:16:49.937673</dc:date>
    <dc:format>image/svg+xml</dc:format>
    <dc:creator>
     <cc:Agent>
      <dc:title>Matplotlib v3.10.8, https://matplotlib.org/</dc:title>
     </cc:Agent>
    </dc:creator>
   </cc:Work>
  </rdf:RDF>
 </metadata>
 <defs>
  <style type="text/css">*{stroke-linejoin: round; stroke-linecap: butt}</style>
 </defs>
 <g id="figure_1">
  <g id="patch_1">
   <path d="M 0 360 
L 1008 360 
L 1008 0 
L 0 0 
z
" style="fill: #ffffff"/>
  </g>
  <g id="axes_1">
   <g id="patch_2">
    <path d="M 59.69 317.32 
L 997.2 317.32 
L 997.2 26.88 
L 59.69 26.88 
z
" style="fill: #ffffff"/>
   </g>
   <g id="matplotlib.axis_1">
    <g id="xtick_1">
     <g id="line2d_1">
      <path d="M 102.304091 317.32 
L 102.304091 26.88 
" clip-path="url(#p5b43758fe9)" style="fill: none; stroke: #b0b0b0; stroke-opacity: 0.3; stroke-width: 0.8; stroke-linecap: square"/>
     </g>
     <g id="line2d_2">
      <defs>
       <path id="m8ff0a90be7" d="M 0 0 
L 0 3.5 
" style="stroke: #000000; stroke-width: 0.8"/>
      </defs>
      <g>
       <use xlink:href="#m8ff0a90be7" x="102.304091" y="317.32" style="stroke: #000000; stroke-width: 0.8"/>
      </g>
     </g>
     <g id="text_1">
      <!-- 0 -->
      <g transform="translate(99.122841 331.918437) scale(0.1 -0.1)">
       <defs>
        <path id="DejaVuSans-30" d="M 2034 4250 
Q 1547 4250 1301 3770 
Q 1056 3291 1056 2328 
Q 1056 1369 1301 889 
Q 1547 409 2034 409 
Q 2525 409 2770 889 
Q 3016 1369 3016 2328 
Q 3016 3291 2770 3770 
Q 2525 4250 2034 4250 
z
M 2034 4750 
Q 2819 4750 3233 4129 
Q 3647 3509 3647 2328 
Q 3647 1150 3233 529 
Q 2819 -91 2034 -91 
Q 1250 -91 836 529 
Q 422 1150 422 2328 
Q 422 3509 836 4129 
Q 1250 4750 2034 4750 
z
" transform="scale(0.015625)"/>
       </defs>
       <use xlink:href="#DejaVuSans-30"/>
      </g>
     </g>
    </g>
    <g id="xtick_2">
     <g id="line2d_3">
      <path d="M 272.931082 317.32 
L 272.931082 26.88 
" clip-path="url(#p5b43758fe9)" style="fill: none; stroke: #b0b0b0; stroke-opacity: 0.3; stroke-width: 0.8; stroke-linecap: square"/>
     </g>
     <g id="line2d_4">
      <g>
       <use xlink:href="#m8ff0a90be7" x="272.931082" y="317.32" style="stroke: #000000; stroke-width: 0.8"/>
      </g>
     </g>
     <g id="text_2">
      <!-- 20 -->
      <g transform="translate(266.568582 331.918437) scale(0.1 -0.1)">
       <defs>
        <path id="DejaVuSans-32" d="M 1228 531 
L 3431 531 
L 3431 0 
L 469 0 
L 469 531 
Q 828 903 1448 1529 
Q 2069 2156 2228 2338 
Q 2531 2678 2651 2914 
Q 2772 3150 2772 3378 
Q 2772 3750 2511 3984 
Q 2250 4219 1831 4219 
Q 1534 4219 1204 4116 
Q 875 4013 500 3803 
L 500 4441 
Q 881 4594 1212 4672 
Q 1544 4750 1819 4750 
Q 2544 4750 2975 4387 
Q 3406 4025 3406 3419 
Q 3406 3131 3298 2873 
Q 3191 2616 2906 2266 
Q 2828 2175 2409 1742 
Q 1991 1309 1228 531 
z
" transform="scale(0.015625)"/>
       </defs>
       <use xlink:href="#DejaVuSans-32"/>
       <use xlink:href="#DejaVuSans-30" transform="translate(63.623047 0)"/>
      </g>
     </g>
    </g>
    <g id="xtick_3">
     <g id="line2d_5">
      <path d="M 443.558072 317.32 
L 443.558072 26.88 
" clip-path="url(#p5b43758fe9)" style="fill: none; stroke: #b0b0b0; stroke-opacity: 0.3; stroke-width: 0.8; stroke-linecap: square"/>
     </g>
     <g id="line2d_6">
      <g>
       <use xlink:href="#m8ff0a90be7" x="443.558072" y="317.32" style="stroke: #000000; stroke-width: 0.8"/>
      </g>
     </g>
     <g id="text_3">
      <!-- 40 -->
      <g transform="translate(437.195572 331.918437) scale(0.1 -0.1)">
       <defs>
        <path id="DejaVuSans-34" d="M 2419 4116 
L 825 1625 
L 2419 1625 
L 2419 4116 
z
M 2253 4666 
L 3047 4666 
L 3047 1625 
L 3713 1625 
L 3713 1100 
L 3047 1100 
L 3047 0 
L 2419 0 
L 2419 1100 
L 313 1100 
L 313 1709 
L 2253 4666 
z
" transform="scale(0.015625)"/>
       </defs>
       <use xlink:href="#DejaVuSans-34"/>
       <use xlink:href="#DejaVuSans-30" transform="translate(63.623047 0)"/>
      </g>
     </g>
    </g>
    <g id="xtick_4">
     <g id="line2d_7">
      <path d="M 614.185063 317.32 
L 614.185063 26.88 
" clip-path="url(#p5b43758fe9)" style="fill: none; stroke: #b0b0b0; stroke-opacity: 0.3; stroke-width: 0.8; stroke-linecap: square"/>
     </g>
     <g id="line2d_8">
      <g>
       <use xlink:href="#m8ff0a90be7" x="614.185063" y="317.32" style="stroke: #000000; stroke-width: 0.8"/>
      </g>
     </g>
     <g id="text_4">
      <!-- 60 -->
      <g transform="translate(607.822563 331.918437) scale(0.1 -0.1)">
       <defs>
        <path id="DejaVuSans-36" d="M 2113 2584 
Q 1688 2584 1439 2293 
Q 1191 2003 1191 1497 
Q 1191 994 1439 701 
Q 1688 409 2113 409 
Q 2538 409 2786 701 
Q 3034 994 3034 1497 
Q 3034 2003 2786 2293 
Q 2538 2584 2113 2584 
z
M 3366 4563 
L 3366 3988 
Q 3128 4100 2886 4159 
Q 2644 4219 2406 4219 
Q 1781 4219 1451 3797 
Q 1122 3375 1075 2522 
Q 1259 2794 1537 2939 
Q 1816 3084 2150 3084 
Q 2853 3084 3261 2657 
Q 3669 2231 3669 1497 
Q 3669 778 3244 343 
Q 2819 -91 2113 -91 
Q 1303 -91 875 529 
Q 447 1150 447 2328 
Q 447 3434 972 4092 
Q 1497 4750 2381 4750 
Q 2619 4750 2861 4703 
Q 3103 4656 3366 4563 
z
" transform="scale(0.015625)"/>
       </defs>
       <use xlink:href="#DejaVuSans-36"/>
       <use xlink:href="#DejaVuSans-30" transform="translate(63.623047 0)"/>
      </g>
     </g>
    </g>
    <g id="xtick_5">
     <g id="line2d_9">
      <path d="M 784.812053 317.32 
L 784.812053 26.88 
" clip-path="url(#p5b43758fe9)" style="fill: none; stroke: #b0b0b0; stroke-opacity: 0.3; stroke-width: 0.8; stroke-linecap: square"/>
     </g>
     <g id="line2d_10">
      <g>
       <use xlink:href="#m8ff0a90be7" x="784.812053" y="317.32" style="stroke: #000000; stroke-width: 0.8"/>
      </g>
     </g>
     <g id="text_5">
      <!-- 80 -->
      <g transform="translate(778.449553 331.918437) scale(0.1 -0.1)">
       <defs>
        <path id="DejaVuSans-38" d="M 2034 2216 
Q 1584 2216 1326 1975 
Q 1069 1734 1069 1313 
Q 1069 891 1326 650 
Q 1584 409 2034 409 
Q 2484 409 2743 651 
Q 3003 894 3003 1313 
Q 3003 1734 2745 1975 
Q 2488 2216 2034 2216 
z
M 1403 2484 
Q 997 2584 770 2862 
Q 544 3141 544 3541 
Q 544 4100 942 4425 
Q 1341 4750 2034 4750 
Q 2731 4750 3128 4425 
Q 3525 4100 3525 3541 
Q 3525 3141 3298 2862 
Q 3072 2584 2669 2484 
Q 3125 2378 3379 2068 
Q 3634 1759 3634 1313 
Q 3634 634 3220 271 
Q 2806 -91 2034 -91 
Q 1263 -91 848 271 
Q 434 634 434 1313 
Q 434 1759 690 2068 
Q 947 2378 1403 2484 
z
M 1172 3481 
Q 1172 3119 1398 2916 
Q 1625 2713 2034 2713 
Q 2441 2713 2670 2916 
Q 2900 3119 2900 3481 
Q 2900 3844 2670 4047 
Q 2441 4250 2034 4250 
Q 1625 4250 1398 4047 
Q 1172 3844 1172 3481 
z
" transform="scale(0.015625)"/>
       </defs>
       <use xlink:href="#DejaVuSans-38"/>
       <use xlink:href="#DejaVuSans-30" transform="translate(63.623047 0)"/>
      </g>
     </g>
    </g>
    <g id="xtick_6">
     <g id="line2d_11">
      <path d="M 955.439044 317.32 
L 955.439044 26.88 
" clip-path="url(#p5b43758fe9)" style="fill: none; stroke: #b0b0b0; stroke-opacity: 0.3; stroke-width: 0.8; stroke-linecap: square"/>
     </g>
     <g id="line2d_12">
      <g>
       <use xlink:href="#m8ff0a90be7" x="955.439044" y="317.32" style="stroke: #000000; stroke-width: 0.8"/>
      </g>
     </g>
     <g id="text_6">
      <!-- 100 -->
      <g transform="translate(945.895294 331.918437) scale(0.1 -0.1)">
       <defs>
        <path id="DejaVuSans-31" d="M 794 531 
L 1825 531 
L 1825 4091 
L 703 3866 
L 703 4441 
L 1819 4666 
L 2450 4666 
L 2450 531 
L 3481 531 
L 3481 0 
L 794 0 
L 794 531 
z
" transform="scale(0.015625)"/>
       </defs>
       <use xlink:href="#DejaVuSans-31"/>
       <use xlink:href="#DejaVuSans-30" transform="translate(63.623047 0)"/>
       <use xlink:href="#DejaVuSans-30" transform="translate(127.246094 0)"/>
      </g>
     </g>
    </g>
    <g id="text_7">
     <!-- Time [s] -->
     <g transform="translate(506.083203 346.356406) scale(0.11 -0.11)">
      <defs>
       <path id="DejaVuSans-54" d="M -19 4666 
L 3928 4666 
L 3928 4134 
L 2272 4134 
L 2272 0 
L 1638 0 
L 1638 4134 
L -19 4134 
L -19 4666 
z
" transform="scale(0.015625)"/>
       <path id="DejaVuSans-69" d="M 603 3500 
L 1178 3500 
L 1178 0 
L 603 0 
L 603 3500 
z
M 603 4863 
L 1178 4863 
L 1178 4134 
L 603 4134 
L 603 4863 
z
" transform="scale(0.015625)"/>
       <path id="DejaVuSans-6d" d="M 3328 2828 
Q 3544 3216 3844 3400 
Q 4144 3584 4550 3584 
Q 5097 3584 5394 3201 
Q 5691 2819 5691 2113 
L 5691 0 
L 5113 0 
L 5113 2094 
Q 5113 2597 4934 2840 
Q 4756 3084 4391 3084 
Q 3944 3084 3684 2787 
Q 3425 2491 3425 1978 
L 3425 0 
L 2847 0 
L 2847 2094 
Q 2847 2600 2669 2842 
Q 2491 3084 2119 3084 
Q 1678 3084 1418 2786 
Q 1159 2488 1159 1978 
L 1159 0 
L 581 0 
L 581 3500 
L 1159 3500 
L 1159 2956 
Q 1356 3278 1631 3431 
Q 1906 3584 2284 3584 
Q 2666 3584 2933 3390 
Q 3200 3197 3328 2828 
z
" transform="scale(0.015625)"/>
       <path id="DejaVuSans-65" d="M 3597 1894 
L 3597 1613 
L 953 1613 
Q 991 1019 1311 708 
Q 1631 397 2203 397 
Q 2534 397 2845 478 
Q 3156 559 3463 722 
L 3463 178 
Q 3153 47 2828 -22 
Q 2503 -91 2169 -91 
Q 1331 -91 842 396 
Q 353 884 353 1716 
Q 353 2575 817 3079 
Q 1281 3584 2069 3584 
Q 2775 3584 3186 3129 
Q 3597 2675 3597 1894 
z
M 3022 2063 
Q 3016 2534 2758 2815 
Q 2500 3097 2075 3097 
Q 1594 3097 1305 2825 
Q 1016 2553 972 2059 
L 3022 2063 
z
" transform="scale(0.015625)"/>
       <path id="DejaVuSans-20" transform="scale(0.015625)"/>
       <path id="DejaVuSans-5b" d="M 550 4863 
L 1875 4863 
L 1875 4416 
L 1125 4416 
L 1125 -397 
L 1875 -397 
L 1875 -844 
L 550 -844 
L 550 4863 
z
" transform="scale(0.015625)"/>
       <path id="DejaVuSans-73" d="M 2834 3397 
L 2834 2853 
Q 2591 2978 2328 3040 
Q 2066 3103 1784 3103 
Q 1356 3103 1142 2972 
Q 928 2841 928 2578 
Q 928 2378 1081 2264 
Q 1234 2150 1697 2047 
L 1894 2003 
Q 2506 1872 2764 1633 
Q 3022 1394 3022 966 
Q 3022 478 2636 193 
Q 2250 -91 1575 -91 
Q 1294 -91 989 -36 
Q 684 19 347 128 
L 347 722 
Q 666 556 975 473 
Q 1284 391 1588 391 
Q 1994 391 2212 530 
Q 2431 669 2431 922 
Q 2431 1156 2273 1281 
Q 2116 1406 1581 1522 
L 1381 1569 
Q 847 1681 609 1914 
Q 372 2147 372 2553 
Q 372 3047 722 3315 
Q 1072 3584 1716 3584 
Q 2034 3584 2315 3537 
Q 2597 3491 2834 3397 
z
" transform="scale(0.015625)"/>
       <path id="DejaVuSans-5d" d="M 1947 4863 
L 1947 -844 
L 622 -844 
L 622 -397 
L 1369 -397 
L 1369 4416 
L 622 4416 
L 622 4863 
L 1947 4863 
z
" transform="scale(0.015625)"/>
      </defs>
      <use xlink:href="#DejaVuSans-54"/>
      <use xlink:href="#DejaVuSans-69" transform="translate(57.958984 0)"/>
      <use xlink:href="#DejaVuSans-6d" transform="translate(85.742188 0)"/>
      <use xlink:href="#DejaVuSans-65" transform="translate(183.154297 0)"/>
      <use xlink:href="#DejaVuSans-20" transform="translate(244.677734 0)"/>
      <use xlink:href="#DejaVuSans-5b" transform="translate(276.464844 0)"/>
      <use xlink:href="#DejaVuSans-73" transform="translate(315.478516 0)"/>
      <use xlink:href="#DejaVuSans-5d" transform="translate(367.578125 0)"/>
     </g>
    </g>
   </g>
   <g id="matplotlib.axis_2">
    <g id="ytick_1">
     <g id="line2d_13">
      <path d="M 59.69 306.572616 
L 997.2 306.572616 
" clip-path="url(#p5b43758fe9)" style="fill: none; stroke: #b0b0b0; stroke-opacity: 0.3; stroke-width: 0.8; stroke-linecap: square"/>
     </g>
     <g id="line2d_14">
      <defs>
       <path id="mf09f69618d" d="M 0 0 
L -3.5 0 
" style="stroke: #000000; stroke-width: 0.8"/>
      </defs>
      <g>
       <use xlink:href="#mf09f69618d" x="59.69" y="306.572616" style="stroke: #000000; stroke-width: 0.8"/>
      </g>
     </g>
     <g id="text_8">
      <!-- −0.8 -->
      <g transform="translate(28.407188 310.371835) scale(0.1 -0.1)">
       <defs>
        <path id="DejaVuSans-2212" d="M 678 2272 
L 4684 2272 
L 4684 1741 
L 678 1741 
L 678 2272 
z
" transform="scale(0.015625)"/>
        <path id="DejaVuSans-2e" d="M 684 794 
L 1344 794 
L 1344 0 
L 684 0 
L 684 794 
z
" transform="scale(0.015625)"/>
       </defs>
       <use xlink:href="#DejaVuSans-2212"/>
       <use xlink:href="#DejaVuSans-30" transform="translate(83.789062 0)"/>
       <use xlink:href="#DejaVuSans-2e" transform="translate(147.412109 0)"/>
       <use xlink:href="#DejaVuSans-38" transform="translate(179.199219 0)"/>
      </g>
     </g>
    </g>
    <g id="ytick_2">
     <g id="line2d_15">
      <path d="M 59.69 272.954462 
L 997.2 272.954462 
" clip-path="url(#p5b43758fe9)" style="fill: none; stroke: #b0b0b0; stroke-opacity: 0.3; stroke-width: 0.8; stroke-linecap: square"/>
     </g>
     <g id="line2d_16">
      <g>
       <use xlink:href="#mf09f69618d" x="59.69" y="272.954462" style="stroke: #000000; stroke-width: 0.8"/>
      </g>
     </g>
     <g id="text_9">
      <!-- −0.6 -->
      <g transform="translate(28.407188 276.753681) scale(0.1 -0.1)">
       <use xlink:href="#DejaVuSans-2212"/>
       <use xlink:href="#DejaVuSans-30" transform="translate(83.789062 0)"/>
       <use xlink:href="#DejaVuSans-2e" transform="translate(147.412109 0)"/>
       <use xlink:href="#DejaVuSans-36" transform="translate(179.199219 0)"/>
      </g>
     </g>
    </g>
    <g id="ytick_3">
     <g id="line2d_17">
      <path d="M 59.69 239.336308 
L 997.2 239.336308 
" clip-path="url(#p5b43758fe9)" style="fill: none; stroke: #b0b0b0; stroke-opacity: 0.3; stroke-width: 0.8; stroke-linecap: square"/>
     </g>
     <g id="line2d_18">
      <g>
       <use xlink:href="#mf09f69618d" x="59.69" y="239.336308" style="stroke: #000000; stroke-width: 0.8"/>
      </g>
     </g>
     <g id="text_10">
      <!-- −0.4 -->
      <g transform="translate(28.407188 243.135527) scale(0.1 -0.1)">
       <use xlink:href="#DejaVuSans-2212"/>
       <use xlink:href="#DejaVuSans-30" transform="translate(83.789062 0)"/>
       <use xlink:href="#DejaVuSans-2e" transform="translate(147.412109 0)"/>
       <use xlink:href="#DejaVuSans-34" transform="translate(179.199219 0)"/>
      </g>
     </g>
    </g>
    <g id="ytick_4">
     <g id="line2d_19">
      <path d="M 59.69 205.718154 
L 997.2 205.718154 
" clip-path="url(#p5b43758fe9)" style="fill: none; stroke: #b0b0b0; stroke-opacity: 0.3; stroke-width: 0.8; stroke-linecap: square"/>
     </g>
     <g id="line2d_20">
      <g>
       <use xlink:href="#mf09f69618d" x="59.69" y="205.718154" style="stroke: #000000; stroke-width: 0.8"/>
      </g>
     </g>
     <g id="text_11">
      <!-- −0.2 -->
      <g transform="translate(28.407188 209.517373) scale(0.1 -0.1)">
       <use xlink:href="#DejaVuSans-2212"/>
       <use xlink:href="#DejaVuSans-30" transform="translate(83.789062 0)"/>
       <use xlink:href="#DejaVuSans-2e" transform="translate(147.412109 0)"/>
       <use xlink:href="#DejaVuSans-32" transform="translate(179.199219 0)"/>
      </g>
     </g>
    </g>
    <g id="ytick_5">
     <g id="line2d_21">
      <path d="M 59.69 172.1 
L 997.2 172.1 
" clip-path="url(#p5b43758fe9)" style="fill: none; stroke: #b0b0b0; stroke-opacity: 0.3; stroke-width: 0.8; stroke-linecap: square"/>
     </g>
     <g id="line2d_22">
      <g>
       <use xlink:href="#mf09f69618d" x="59.69" y="172.1" style="stroke: #000000; stroke-width: 0.8"/>
      </g>
     </g>
     <g id="text_12">
      <!-- 0.0 -->
      <g transform="translate(36.786875 175.899219) scale(0.1 -0.1)">
       <use xlink:href="#DejaVuSans-30"/>
       <use xlink:href="#DejaVuSans-2e" transform="translate(63.623047 0)"/>
       <use xlink:href="#DejaVuSans-30" transform="translate(95.410156 0)"/>
      </g>
     </g>
    </g>
    <g id="ytick_6">
     <g id="line2d_23">
      <path d="M 59.69 138.481846 
L 997.2 138.481846 
" clip-path="url(#p5b43758fe9)" style="fill: none; stroke: #b0b0b0; stroke-opacity: 0.3; stroke-width: 0.8; stroke-linecap: square"/>
     </g>
     <g id="line2d_24">
      <g>
       <use xlink:href="#mf09f69618d" x="59.69" y="138.481846" style="stroke: #000000; stroke-width: 0.8"/>
      </g>
     </g>
     <g id="text_13">
      <!-- 0.2 -->
      <g transform="translate(36.786875 142.281065) scale(0.1 -0.1)">
       <use xlink:href="#DejaVuSans-30"/>
       <use xlink:href="#DejaVuSans-2e" transform="translate(63.623047 0)"/>
       <use xlink:href="#DejaVuSans-32" transform="translate(95.410156 0)"/>
      </g>
     </g>
    </g>
    <g id="ytick_7">
     <g id="line2d_25">
      <path d="M 59.69 104.863692 
L 997.2 104.863692 
" clip-path="url(#p5b43758fe9)" style="fill: none; stroke: #b0b0b0; stroke-opacity: 0.3; stroke-width: 0.8; stroke-linecap: square"/>
     </g>
     <g id="line2d_26">
      <g>
       <use xlink:href="#mf09f69618d" x="59.69" y="104.863692" style="stroke: #000000; stroke-width: 0.8"/>
      </g>
     </g>
     <g id="text_14">
      <!-- 0.4 -->
      <g transform="translate(36.786875 108.662911) scale(0.1 -0.1)">
       <use xlink:href="#DejaVuSans-30"/>
       <use xlink:href="#DejaVuSans-2e" transform="translate(63.623047 0)"/>
       <use xlink:href="#DejaVuSans-34" transform="translate(95.410156 0)"/>
      </g>
     </g>
    </g>
    <g id="ytick_8">
     <g id="line2d_27">
      <path d="M 59.69 71.245538 
L 997.2 71.245538 
" clip-path="url(#p5b43758fe9)" style="fill: none; stroke: #b0b0b0; stroke-opacity: 0.3; stroke-width: 0.8; stroke-linecap: square"/>
     </g>
     <g id="line2d_28">
      <g>
       <use xlink:href="#mf09f69618d" x="59.69" y="71.245538" style="stroke: #000000; stroke-width: 0.8"/>
      </g>
     </g>
     <g id="text_15">
      <!-- 0.6 -->
      <g transform="translate(36.786875 75.044757) scale(0.1 -0.1)">
       <use xlink:href="#DejaVuSans-30"/>
       <use xlink:href="#DejaVuSans-2e" transform="translate(63.623047 0)"/>
       <use xlink:href="#DejaVuSans-36" transform="translate(95.410156 0)"/>
      </g>
     </g>
    </g>
    <g id="ytick_9">
     <g id="line2d_29">
      <path d="M 59.69 37.627384 
L 997.2 37.627384 
" clip-path="url(#p5b43758fe9)" style="fill: none; stroke: #b0b0b0; stroke-opacity: 0.3; stroke-width: 0.8; stroke-linecap: square"/>
     </g>
     <g id="line2d_30">
      <g>
       <use xlink:href="#mf09f69618d" x="59.69" y="37.627384" style="stroke: #000000; stroke-width: 0.8"/>
      </g>
     </g>
     <g id="text_16">
      <!-- 0.8 -->
      <g transform="translate(36.786875 41.426603) scale(0.1 -0.1)">
       <use xlink:href="#DejaVuSans-30"/>
       <use xlink:href="#DejaVuSans-2e" transform="translate(63.623047 0)"/>
       <use xlink:href="#DejaVuSans-38" transform="translate(95.410156 0)"/>
      </g>
     </g>
    </g>
    <g id="text_17">
     <!-- $\phi_{des}$ [rad] -->
     <g transform="translate(22.097188 197.895) rotate(-90) scale(0.11 -0.11)">
      <defs>
       <path id="DejaVuSans-Oblique-3d5" d="M 2991 4863 
L 2738 3572 
Q 3363 3572 3684 3094 
Q 4016 2606 3850 1747 
Q 3681 888 3159 400 
Q 2653 -78 2028 -78 
L 1784 -1331 
L 1213 -1331 
L 1456 -78 
Q 834 -78 509 400 
Q 178 888 347 1747 
Q 513 2606 1034 3094 
Q 1544 3572 2166 3572 
L 2419 4863 
L 2991 4863 
z
M 2128 434 
Q 2481 434 2784 756 
Q 3116 1116 3244 1747 
Q 3369 2372 3169 2738 
Q 2991 3059 2638 3059 
L 2128 434 
z
M 1556 434 
L 2066 3059 
Q 1716 3059 1413 2738 
Q 1072 2372 953 1747 
Q 834 1116 1028 756 
Q 1203 434 1556 434 
z
" transform="scale(0.015625)"/>
       <path id="DejaVuSans-Oblique-64" d="M 2675 525 
Q 2444 222 2128 65 
Q 1813 -91 1428 -91 
Q 903 -91 598 267 
Q 294 625 294 1247 
Q 294 1766 478 2236 
Q 663 2706 1013 3078 
Q 1244 3325 1534 3454 
Q 1825 3584 2144 3584 
Q 2481 3584 2739 3421 
Q 2997 3259 3138 2956 
L 3513 4863 
L 4091 4863 
L 3144 0 
L 2566 0 
L 2675 525 
z
M 891 1350 
Q 891 897 1095 644 
Q 1300 391 1663 391 
Q 1931 391 2161 520 
Q 2391 650 2566 903 
Q 2750 1166 2856 1509 
Q 2963 1853 2963 2188 
Q 2963 2622 2758 2865 
Q 2553 3109 2194 3109 
Q 1922 3109 1687 2981 
Q 1453 2853 1288 2613 
Q 1106 2353 998 2009 
Q 891 1666 891 1350 
z
" transform="scale(0.015625)"/>
       <path id="DejaVuSans-Oblique-65" d="M 3078 2063 
Q 3088 2113 3092 2166 
Q 3097 2219 3097 2272 
Q 3097 2653 2873 2875 
Q 2650 3097 2266 3097 
Q 1838 3097 1509 2826 
Q 1181 2556 1013 2059 
L 3078 2063 
z
M 3578 1613 
L 903 1613 
Q 884 1494 878 1425 
Q 872 1356 872 1306 
Q 872 872 1139 634 
Q 1406 397 1894 397 
Q 2269 397 2603 481 
Q 2938 566 3225 728 
L 3116 159 
Q 2806 34 2476 -28 
Q 2147 -91 1806 -91 
Q 1078 -91 686 257 
Q 294 606 294 1247 
Q 294 1794 489 2264 
Q 684 2734 1063 3103 
Q 1306 3334 1642 3459 
Q 1978 3584 2356 3584 
Q 2950 3584 3301 3228 
Q 3653 2872 3653 2272 
Q 3653 2128 3634 1964 
Q 3616 1800 3578 1613 
z
" transform="scale(0.015625)"/>
       <path id="DejaVuSans-Oblique-73" d="M 3200 3397 
L 3091 2853 
Q 2863 2978 2609 3040 
Q 2356 3103 2088 3103 
Q 1634 3103 1373 2948 
Q 1113 2794 1113 2528 
Q 1113 2219 1719 2053 
Q 1766 2041 1788 2034 
L 1972 1978 
Q 2547 1819 2739 1644 
Q 2931 1469 2931 1166 
Q 2931 609 2489 259 
Q 2047 -91 1331 -91 
Q 1053 -91 747 -37 
Q 441 16 72 128 
L 184 722 
Q 500 559 806 475 
Q 1113 391 1394 391 
Q 1816 391 2080 572 
Q 2344 753 2344 1031 
Q 2344 1331 1650 1516 
L 1591 1531 
L 1394 1581 
Q 956 1697 753 1886 
Q 550 2075 550 2369 
Q 550 2928 970 3256 
Q 1391 3584 2113 3584 
Q 2397 3584 2667 3537 
Q 2938 3491 3200 3397 
z
" transform="scale(0.015625)"/>
       <path id="DejaVuSans-72" d="M 2631 2963 
Q 2534 3019 2420 3045 
Q 2306 3072 2169 3072 
Q 1681 3072 1420 2755 
Q 1159 2438 1159 1844 
L 1159 0 
L 581 0 
L 581 3500 
L 1159 3500 
L 1159 2956 
Q 1341 3275 1631 3429 
Q 1922 3584 2338 3584 
Q 2397 3584 2469 3576 
Q 2541 3569 2628 3553 
L 2631 2963 
z
" transform="scale(0.015625)"/>
       <path id="DejaVuSans-61" d="M 2194 1759 
Q 1497 1759 1228 1600 
Q 959 1441 959 1056 
Q 959 750 1161 570 
Q 1363 391 1709 391 
Q 2188 391 2477 730 
Q 2766 1069 2766 1631 
L 2766 1759 
L 2194 1759 
z
M 3341 1997 
L 3341 0 
L 2766 0 
L 2766 531 
Q 2569 213 2275 61 
Q 1981 -91 1556 -91 
Q 1019 -91 701 211 
Q 384 513 384 1019 
Q 384 1609 779 1909 
Q 1175 2209 1959 2209 
L 2766 2209 
L 2766 2266 
Q 2766 2663 2505 2880 
Q 2244 3097 1772 3097 
Q 1472 3097 1187 3025 
Q 903 2953 641 2809 
L 641 3341 
Q 956 3463 1253 3523 
Q 1550 3584 1831 3584 
Q 2591 3584 2966 3190 
Q 3341 2797 3341 1997 
z
" transform="scale(0.015625)"/>
       <path id="DejaVuSans-64" d="M 2906 2969 
L 2906 4863 
L 3481 4863 
L 3481 0 
L 2906 0 
L 2906 525 
Q 2725 213 2448 61 
Q 2172 -91 1784 -91 
Q 1150 -91 751 415 
Q 353 922 353 1747 
Q 353 2572 751 3078 
Q 1150 3584 1784 3584 
Q 2172 3584 2448 3432 
Q 2725 3281 2906 2969 
z
M 947 1747 
Q 947 1113 1208 752 
Q 1469 391 1925 391 
Q 2381 391 2643 752 
Q 2906 1113 2906 1747 
Q 2906 2381 2643 2742 
Q 2381 3103 1925 3103 
Q 1469 3103 1208 2742 
Q 947 2381 947 1747 
z
" transform="scale(0.015625)"/>
      </defs>
      <use xlink:href="#DejaVuSans-Oblique-3d5" transform="translate(0 0.015625)"/>
      <use xlink:href="#DejaVuSans-Oblique-64" transform="translate(65.966797 -16.390625) scale(0.7)"/>
      <use xlink:href="#DejaVuSans-Oblique-65" transform="translate(110.400391 -16.390625) scale(0.7)"/>
      <use xlink:href="#DejaVuSans-Oblique-73" transform="translate(153.466797 -16.390625) scale(0.7)"/>
      <use xlink:href="#DejaVuSans-20" transform="translate(192.670898 0.015625)"/>
      <use xlink:href="#DejaVuSans-5b" transform="translate(224.458008 0.015625)"/>
      <use xlink:href="#DejaVuSans-72" transform="translate(263.47168 0.015625)"/>
      <use xlink:href="#DejaVuSans-61" transform="translate(304.584961 0.015625)"/>
      <use xlink:href="#DejaVuSans-64" transform="translate(365.864258 0.015625)"/>
      <use xlink:href="#DejaVuSans-5d" transform="translate(429.34082 0.015625)"/>
     </g>
    </g>
   </g>
   <g id="line2d_31">
    <path d="M 102.304091 304.118182 
L 106.569766 304.118182 
L 107.422901 40.081818 
L 110.83544 40.081818 
L 111.688575 304.118182 
L 112.54171 304.118182 
L 113.394845 241.404971 
L 115.95425 101.75994 
L 116.807385 72.681631 
L 117.66052 118.368737 
L 118.513655 114.84954 
L 119.36679 57.753359 
L 120.219925 44.087498 
L 121.07306 71.58858 
L 124.4856 297.703943 
L 125.338735 294.835817 
L 126.19187 267.838467 
L 127.045005 211.655151 
L 127.89814 181.806115 
L 128.751274 144.91392 
L 129.604409 117.789769 
L 130.457544 101.104736 
L 131.310679 93.808677 
L 132.163814 94.75001 
L 134.723219 114.314715 
L 135.576354 115.826334 
L 136.429489 110.370918 
L 137.282624 98.572085 
L 138.135759 80.811715 
L 138.988894 59.437139 
L 139.842029 44.011057 
L 140.695164 76.15464 
L 141.548299 143.140632 
L 142.401434 173.185509 
L 143.254569 193.191922 
L 144.107704 198.454235 
L 144.960839 188.132626 
L 145.813974 163.136284 
L 146.667108 118.912024 
L 147.520243 87.093728 
L 148.373378 66.082268 
L 149.226513 51.289985 
L 150.079648 46.274482 
L 150.932783 58.151661 
L 151.785918 86.230615 
L 152.639053 128.453239 
L 153.492188 182.88823 
L 154.345323 247.679593 
L 155.198458 287.790074 
L 156.051593 299.085577 
L 156.904728 283.785192 
L 157.757863 239.333269 
L 158.610998 167.190193 
L 159.464133 134.53312 
L 160.317268 92.154696 
L 161.170403 62.400779 
L 162.023538 47.221591 
L 162.876673 44.18456 
L 163.729808 47.242688 
L 164.582942 52.649895 
L 165.436077 52.036332 
L 166.289212 40.917946 
L 167.142347 73.804834 
L 167.995482 125.428907 
L 168.848617 202.088397 
L 170.554887 304.118182 
L 171.408022 297.137932 
L 172.261157 273.920321 
L 173.967427 161.919281 
L 174.820562 103.552147 
L 175.673697 59.070846 
L 176.526832 49.484431 
L 177.379967 79.119768 
L 178.233102 146.972412 
L 179.086237 198.611065 
L 179.939372 267.871963 
L 180.792507 292.650537 
L 181.645642 297.709071 
L 182.498777 278.050097 
L 183.351911 226.773871 
L 184.205046 153.893494 
L 185.911316 45.984926 
L 186.764451 51.143595 
L 187.617586 79.98706 
L 189.323856 189.418879 
L 191.030126 275.297004 
L 191.883261 303.267855 
L 192.736396 262.864923 
L 193.589531 186.975742 
L 195.295801 68.989958 
L 196.148936 47.514235 
L 197.002071 100.578176 
L 198.708341 246.049712 
L 200.414611 280.782768 
L 201.267745 275.08549 
L 202.12088 247.808643 
L 202.974015 201.119689 
L 204.680285 72.154996 
L 206.386555 52.62759 
L 207.23969 50.657476 
L 208.092825 55.10806 
L 208.94596 58.751354 
L 209.799095 57.408926 
L 210.65223 51.461283 
L 211.505365 42.52327 
L 212.3585 72.436432 
L 213.211635 132.587386 
L 214.06477 201.671835 
L 215.77104 304.118182 
L 216.624175 299.401056 
L 217.47731 274.582618 
L 219.183579 161.589417 
L 220.036714 98.060917 
L 220.889849 61.568916 
L 221.742984 42.243153 
L 222.596119 40.081818 
L 223.449254 50.226542 
L 224.302389 85.551672 
L 225.155524 138.963459 
L 226.008659 204.225348 
L 226.861794 249.074665 
L 227.714929 261.602003 
L 228.568064 254.017279 
L 229.421199 226.522518 
L 230.274334 179.535945 
L 231.127469 114.372792 
L 231.980604 74.773776 
L 232.833739 48.205033 
L 233.686874 58.318175 
L 234.540009 101.46889 
L 235.393144 170.436437 
L 236.246279 213.258722 
L 237.099414 266.264733 
L 237.952548 304.118182 
L 238.805683 301.277906 
L 239.658818 264.403577 
L 241.365088 133.4584 
L 242.218223 76.643955 
L 243.071358 40.081818 
L 243.924493 82.346816 
L 245.630763 219.206431 
L 247.337033 284.234803 
L 248.190168 299.404979 
L 249.043303 253.14202 
L 249.896438 182.328108 
L 250.749573 122.699625 
L 251.602708 88.897687 
L 252.455843 61.591242 
L 253.308978 43.227532 
L 254.162113 78.057375 
L 255.015248 151.610432 
L 255.868382 204.844663 
L 256.721517 265.836138 
L 257.574652 281.442302 
L 258.427787 294.917082 
L 259.280922 289.46526 
L 260.134057 265.586608 
L 260.987192 223.860879 
L 261.840327 166.977773 
L 262.693462 97.813792 
L 263.546597 79.182182 
L 264.399732 55.079538 
L 265.252867 48.177289 
L 266.106002 92.607835 
L 266.959137 159.300863 
L 269.518542 304.118182 
L 270.371677 295.132557 
L 271.224812 275.816716 
L 272.077947 234.252656 
L 272.931082 170.492035 
L 274.637351 75.286556 
L 275.490486 52.250015 
L 278.049891 189.893486 
L 278.903026 214.984232 
L 281.462431 299.407977 
L 282.315566 281.354495 
L 283.168701 238.343731 
L 284.021836 168.1239 
L 284.874971 129.844657 
L 285.728106 75.204228 
L 286.581241 55.771381 
L 287.434376 46.111338 
L 288.287511 50.822067 
L 289.140646 72.909368 
L 289.993781 112.359692 
L 290.846916 167.626842 
L 291.700051 203.90014 
L 292.553185 222.911973 
L 293.40632 232.346366 
L 294.259455 229.083443 
L 295.11259 211.812683 
L 295.965725 181.124938 
L 296.81886 137.830482 
L 297.671995 83.629979 
L 298.52513 40.081818 
L 299.378265 58.525823 
L 300.2314 93.334275 
L 301.084535 149.990452 
L 301.93767 176.973366 
L 302.790805 214.94336 
L 304.497075 302.79984 
L 305.35021 295.286767 
L 306.203345 273.239083 
L 307.05648 230.403204 
L 308.76275 103.919688 
L 309.615885 55.736128 
L 310.469019 47.972874 
L 311.322154 60.881669 
L 312.175289 96.159027 
L 313.028424 155.466954 
L 313.881559 175.515427 
L 315.587829 256.686036 
L 316.440964 298.843785 
L 317.294099 297.024024 
L 318.147234 267.492112 
L 319.000369 216.835936 
L 319.853504 146.286525 
L 320.706639 97.690706 
L 321.559774 56.379515 
L 322.412909 47.60745 
L 323.266044 69.844722 
L 324.119179 113.640397 
L 326.678584 219.191562 
L 327.531719 263.166627 
L 328.384853 297.298195 
L 329.237988 276.49792 
L 330.091123 226.485888 
L 330.944258 160.531559 
L 331.797393 110.738411 
L 332.650528 50.258112 
L 333.503663 51.226902 
L 336.916203 210.331141 
L 337.769338 230.102072 
L 340.328743 303.42502 
L 341.181878 274.025886 
L 342.035013 226.775439 
L 342.888148 158.932057 
L 343.741283 104.143907 
L 344.594418 69.251 
L 345.447553 58.769235 
L 346.300688 64.515716 
L 347.153822 88.796543 
L 348.860092 180.136329 
L 349.713227 215.832688 
L 351.419497 301.925369 
L 352.272632 298.782287 
L 353.125767 284.887414 
L 353.978902 257.700971 
L 354.832037 216.661564 
L 355.685172 159.612882 
L 356.538307 88.374287 
L 357.391442 50.313083 
L 358.244577 52.021998 
L 359.097712 72.881033 
L 361.657117 209.724783 
L 362.510252 264.202846 
L 363.363387 280.409238 
L 364.216522 292.804944 
L 365.069656 299.472104 
L 365.922791 299.25541 
L 366.775926 290.703977 
L 367.629061 272.532664 
L 368.482196 245.327995 
L 369.335331 206.603583 
L 370.188466 158.372503 
L 371.894736 40.224544 
L 372.747871 73.019177 
L 373.601006 130.629277 
L 374.454141 173.159744 
L 375.307276 240.016 
L 376.160411 275.045554 
L 377.013546 304.118182 
L 377.866681 285.731747 
L 378.719816 260.35261 
L 379.572951 219.042885 
L 380.426086 159.736335 
L 382.98549 40.081818 
L 383.838625 46.695143 
L 384.69176 77.277962 
L 385.544895 129.896392 
L 386.39803 196.46786 
L 388.1043 288.720312 
L 388.957435 301.868441 
L 389.81057 254.086904 
L 390.663705 179.344516 
L 391.51684 127.157114 
L 392.369975 65.53852 
L 393.22311 45.214676 
L 394.076245 80.35205 
L 394.92938 141.827649 
L 395.782515 181.405973 
L 396.63565 228.410952 
L 397.488785 283.791591 
L 398.34192 304.118182 
L 399.195055 263.54766 
L 400.04819 196.251646 
L 400.901325 151.61405 
L 402.607594 40.081818 
L 403.460729 78.865969 
L 404.313864 143.929709 
L 405.166999 193.309196 
L 406.020134 257.216726 
L 406.873269 297.472946 
L 407.726404 290.947424 
L 408.579539 270.004209 
L 409.432674 225.441192 
L 410.285809 155.302929 
L 411.138944 111.266901 
L 411.992079 54.155656 
L 412.845214 53.873892 
L 414.551484 162.688115 
L 415.404619 216.982731 
L 416.257754 264.048454 
L 417.110889 296.564983 
L 417.964024 285.357496 
L 419.670293 154.334103 
L 420.523428 101.427902 
L 421.376563 63.500043 
L 422.229698 45.555002 
L 423.082833 73.031332 
L 423.935968 126.955028 
L 424.789103 203.019452 
L 425.642238 263.499046 
L 426.495373 293.266294 
L 427.348508 288.569953 
L 428.201643 253.714046 
L 429.907913 140.317038 
L 430.761048 86.22196 
L 431.614183 40.081818 
L 432.467318 78.558434 
L 433.320453 151.340406 
L 435.026723 248.216156 
L 435.879858 282.257564 
L 436.732993 293.395653 
L 437.586127 270.150205 
L 438.439262 223.721878 
L 439.292397 154.660926 
L 441.851802 43.461085 
L 442.704937 66.186583 
L 443.558072 116.403566 
L 444.411207 194.279967 
L 446.117477 303.805482 
L 446.970612 283.50885 
L 447.823747 213.285863 
L 448.676882 153.556604 
L 450.383152 64.887181 
L 451.236287 44.935554 
L 452.089422 79.119991 
L 453.795692 207.566437 
L 454.648827 252.959591 
L 455.501962 277.846454 
L 456.355096 291.631789 
L 457.208231 292.995715 
L 458.061366 277.661974 
L 458.914501 246.788914 
L 459.767636 200.398955 
L 460.620771 137.12398 
L 461.473906 88.976758 
L 462.327041 56.550914 
L 463.180176 46.555773 
L 464.033311 103.788175 
L 465.739581 249.42301 
L 467.445851 304.118182 
L 468.298986 276.771269 
L 469.152121 213.195684 
L 470.005256 138.563086 
L 470.858391 102.963297 
L 471.711526 73.433302 
L 472.564661 51.591191 
L 473.417796 40.081818 
L 474.27093 40.081818 
L 475.124065 40.355562 
L 475.9772 57.773765 
L 476.830335 88.909646 
L 477.68347 133.820893 
L 479.38974 252.815901 
L 480.242875 275.48908 
L 481.09601 282.898183 
L 481.949145 272.707604 
L 482.80228 244.842861 
L 483.655415 200.77864 
L 484.50855 141.712791 
L 485.361685 108.417756 
L 486.21482 121.283085 
L 487.067955 162.317851 
L 488.774225 251.758291 
L 489.62736 296.705207 
L 490.480495 301.558224 
L 491.33363 280.791484 
L 492.186764 241.0142 
L 493.039899 179.818071 
L 493.893034 140.671036 
L 496.452439 54.764587 
L 497.305574 40.081818 
L 498.158709 83.750657 
L 499.011844 154.691866 
L 499.864979 203.482493 
L 500.718114 264.168714 
L 501.571249 304.118182 
L 503.277519 190.819691 
L 504.130654 153.235233 
L 504.983789 149.071896 
L 505.836924 160.395557 
L 506.690059 187.609089 
L 507.543194 230.459329 
L 508.396329 288.323917 
L 509.249464 284.129824 
L 510.102599 223.844256 
L 510.955733 187.100225 
L 511.808868 126.594608 
L 512.662003 99.968143 
L 513.515138 98.143282 
L 514.368273 114.169554 
L 515.221408 147.577393 
L 516.074543 197.522007 
L 516.927678 262.967297 
L 517.780813 303.82647 
L 518.633948 272.880209 
L 519.487083 199.441507 
L 520.340218 151.307889 
L 521.193353 118.419736 
L 522.046488 104.876785 
L 522.899623 104.422037 
L 523.752758 117.059855 
L 524.605893 142.334342 
L 525.459028 178.538741 
L 526.312163 222.270228 
L 527.165298 271.884742 
L 528.018433 304.118182 
L 529.724702 186.858555 
L 530.577837 123.697805 
L 531.430972 71.730562 
L 532.284107 40.928775 
L 533.137242 99.705533 
L 533.990377 177.92534 
L 535.696647 265.064892 
L 536.549782 301.334937 
L 537.402917 284.800696 
L 540.815457 49.088733 
L 541.668592 44.222021 
L 542.521727 56.395956 
L 543.374862 91.568868 
L 545.081132 203.679668 
L 545.934267 243.027789 
L 546.787401 274.624208 
L 547.640536 297.694366 
L 548.493671 281.400064 
L 549.346806 216.903195 
L 551.906211 47.125198 
L 552.759346 49.094073 
L 553.612481 94.813432 
L 554.465616 167.393435 
L 555.318751 224.544384 
L 556.171886 289.53431 
L 557.025021 295.584519 
L 557.878156 295.667428 
L 558.731291 275.82319 
L 559.584426 236.303226 
L 560.437561 173.338633 
L 562.143831 112.422166 
L 562.996966 91.349453 
L 563.850101 78.154053 
L 564.703236 72.20415 
L 565.55637 72.707419 
L 566.409505 78.801629 
L 567.26264 89.608281 
L 568.115775 104.264752 
L 569.822045 141.863487 
L 571.528315 186.172813 
L 572.38145 214.394537 
L 574.08772 281.57517 
L 574.940855 296.77179 
L 575.79399 261.988039 
L 578.353395 70.900212 
L 579.20653 51.222277 
L 580.059665 56.579737 
L 580.9128 86.565461 
L 582.61907 192.49294 
L 584.325339 269.080321 
L 585.178474 304.036303 
L 586.031609 282.273627 
L 586.884744 231.347942 
L 587.737879 156.990678 
L 588.591014 109.659288 
L 589.444149 109.515733 
L 590.297284 133.9995 
L 592.003554 236.813977 
L 592.856689 276.169066 
L 593.709824 294.804469 
L 594.562959 280.042126 
L 595.416094 241.581247 
L 596.269229 179.051546 
L 597.122364 144.912945 
L 598.828634 61.14887 
L 599.681769 40.081818 
L 600.534904 54.236808 
L 601.388038 92.120024 
L 602.241173 149.249805 
L 603.094308 215.308999 
L 603.947443 249.587067 
L 604.800578 276.649858 
L 605.653713 295.178291 
L 606.506848 304.118182 
L 607.359983 302.867984 
L 608.213118 289.406109 
L 609.066253 261.245345 
L 609.919388 220.110432 
L 610.772523 168.174968 
L 612.478793 46.707807 
L 613.331928 64.882682 
L 615.038198 169.850721 
L 616.744468 284.92975 
L 617.597603 304.118182 
L 618.450738 272.285313 
L 619.303873 202.12937 
L 620.157007 154.563512 
L 621.010142 93.442236 
L 621.863277 63.767542 
L 622.716412 42.748206 
L 623.569547 62.592956 
L 624.422682 119.620897 
L 625.275817 168.736567 
L 626.982087 287.741154 
L 627.835222 304.118182 
L 628.688357 261.17536 
L 629.541492 185.692411 
L 630.394627 137.115278 
L 631.247762 75.109954 
L 632.100897 40.081818 
L 632.954032 56.634849 
L 633.807167 86.573999 
L 634.660302 137.343204 
L 635.513437 207.965001 
L 636.366572 234.581654 
L 637.219707 272.308503 
L 638.072841 300.211553 
L 638.925976 280.755615 
L 639.779111 239.795882 
L 641.485381 118.754798 
L 642.338516 72.016749 
L 643.191651 43.439161 
L 644.044786 59.462719 
L 644.897921 97.760698 
L 645.751056 157.669443 
L 647.457326 237.249662 
L 648.310461 272.504382 
L 649.163596 301.740231 
L 650.016731 273.869034 
L 650.869866 221.291871 
L 651.723001 146.424515 
L 653.429271 50.071638 
L 654.282406 54.56471 
L 655.135541 113.259416 
L 656.84181 252.466685 
L 657.694945 272.254065 
L 658.54808 301.019747 
L 659.401215 284.045441 
L 660.25435 232.52366 
L 661.107485 160.340507 
L 661.96062 102.486145 
L 662.813755 59.877935 
L 663.66689 50.631412 
L 664.520025 66.396084 
L 665.37316 102.097233 
L 666.226295 159.455295 
L 668.7857 298.934021 
L 669.638835 304.118182 
L 670.49197 297.06064 
L 671.345105 267.748909 
L 672.19824 217.830057 
L 673.051375 145.5458 
L 673.90451 99.128318 
L 674.757644 43.176506 
L 675.610779 57.908297 
L 676.463914 111.967999 
L 677.317049 144.482661 
L 678.170184 170.46698 
L 679.023319 204.099126 
L 680.729589 293.471234 
L 681.582724 304.118182 
L 682.435859 290.798742 
L 683.288994 256.751385 
L 684.142129 200.664125 
L 684.995264 130.92192 
L 686.701534 40.081818 
L 687.554669 44.681756 
L 688.407804 58.924351 
L 689.260939 91.324571 
L 690.967209 186.037799 
L 693.526613 276.431688 
L 694.379748 300.54465 
L 695.232883 278.736712 
L 696.086018 225.488719 
L 696.939153 164.157565 
L 697.792288 113.21523 
L 698.645423 82.556208 
L 699.498558 70.799069 
L 700.351693 71.053347 
L 701.204828 83.488945 
L 702.057963 108.338259 
L 702.911098 145.696047 
L 703.764233 195.958723 
L 704.617368 227.095745 
L 705.470503 243.987623 
L 706.323638 255.068281 
L 707.176773 257.436179 
L 708.029908 249.558953 
L 708.883043 228.540478 
L 709.736178 194.81647 
L 710.589312 149.056011 
L 711.442447 91.331796 
L 712.295582 47.61943 
L 713.148717 56.193893 
L 715.708122 197.568993 
L 716.561257 231.460655 
L 717.414392 242.74618 
L 718.267527 245.984619 
L 719.120662 236.812607 
L 719.973797 212.759944 
L 720.826932 173.961387 
L 721.680067 122.240683 
L 722.533202 91.326019 
L 723.386337 74.488127 
L 724.239472 63.850727 
L 725.092607 64.427716 
L 725.945742 76.564103 
L 726.798877 98.322314 
L 727.652012 127.949863 
L 729.358281 204.618104 
L 731.064551 290.950976 
L 731.917686 295.685792 
L 732.770821 288.186412 
L 733.623956 272.625877 
L 734.477091 248.821148 
L 735.330226 217.816083 
L 736.183361 179.32396 
L 737.036496 133.489336 
L 737.889631 80.690795 
L 738.742766 42.228491 
L 739.595901 66.809051 
L 740.449036 117.853051 
L 741.302171 157.65658 
L 742.155306 189.85009 
L 743.008441 228.262821 
L 743.861576 253.837431 
L 744.714711 256.70982 
L 745.567846 256.207479 
L 746.420981 252.883993 
L 747.274115 244.468101 
L 748.12725 230.383695 
L 748.980385 209.224561 
L 749.83352 180.128847 
L 750.686655 141.804201 
L 752.392925 40.081818 
L 753.24606 55.121918 
L 755.805465 213.73645 
L 756.6586 233.573895 
L 758.36487 281.840449 
L 759.218005 301.591328 
L 760.07114 265.922803 
L 760.924275 212.118396 
L 761.77741 144.646347 
L 762.630545 92.239066 
L 763.48368 63.761752 
L 764.336815 40.081818 
L 765.189949 71.383254 
L 766.043084 121.346213 
L 766.896219 155.275516 
L 767.749354 199.627619 
L 768.602489 258.719206 
L 769.455624 278.216082 
L 770.308759 294.392521 
L 771.161894 303.04176 
L 772.015029 303.460538 
L 772.868164 293.510997 
L 773.721299 273.590975 
L 774.574434 244.816726 
L 775.427569 208.3984 
L 777.133839 121.269231 
L 777.986974 76.320334 
L 778.840109 40.081818 
L 779.693244 47.133745 
L 780.546379 75.936502 
L 781.399514 120.164816 
L 782.252649 181.147015 
L 783.105784 227.977524 
L 784.812053 292.909555 
L 785.665188 293.816344 
L 786.518323 269.865492 
L 787.371458 229.857765 
L 789.077728 118.543795 
L 789.930863 108.185351 
L 790.783998 108.225678 
L 791.637133 121.149408 
L 792.490268 152.023145 
L 794.196538 253.188926 
L 795.049673 283.738269 
L 795.902808 291.923401 
L 796.755943 267.928708 
L 797.609078 222.824538 
L 798.462213 155.568326 
L 799.315348 118.80787 
L 800.168483 75.449354 
L 801.021618 42.919429 
L 801.874752 61.312811 
L 802.727887 105.420938 
L 803.581022 176.362177 
L 804.434157 223.737845 
L 805.287292 279.178887 
L 806.140427 299.784158 
L 806.993562 267.87173 
L 808.699832 132.586778 
L 809.552967 93.692041 
L 810.406102 67.954352 
L 811.259237 50.383511 
L 812.112372 42.891231 
L 812.965507 48.804953 
L 813.818642 69.835576 
L 814.671777 107.273031 
L 815.524912 161.327907 
L 816.378047 231.494681 
L 817.231182 255.177055 
L 818.084317 289.041652 
L 818.937452 299.369936 
L 819.790586 263.367772 
L 822.349991 86.600708 
L 823.203126 40.081818 
L 824.056261 47.575302 
L 824.909396 68.927198 
L 825.762531 114.821056 
L 826.615666 186.811421 
L 827.468801 221.88821 
L 828.321936 276.408281 
L 829.175071 286.812875 
L 830.881341 180.494308 
L 831.734476 115.561263 
L 832.587611 73.233604 
L 833.440746 43.479801 
L 834.293881 61.606858 
L 835.147016 108.787126 
L 837.706421 279.687983 
L 838.559555 304.118182 
L 839.41269 267.102802 
L 840.265825 209.766472 
L 841.11896 163.00077 
L 842.82523 52.423427 
L 843.678365 50.503225 
L 844.5315 94.414177 
L 845.384635 163.82824 
L 846.23777 223.504577 
L 847.090905 259.05418 
L 847.94404 288.986869 
L 848.797175 293.356047 
L 849.65031 247.486451 
L 850.503445 171.795237 
L 851.35658 117.433493 
L 852.209715 55.534877 
L 853.06285 52.575765 
L 853.915985 54.944514 
L 854.76912 79.881588 
L 855.622255 128.73726 
L 856.475389 201.516832 
L 857.328524 233.160366 
L 858.181659 277.426016 
L 859.034794 301.490936 
L 859.887929 279.143265 
L 860.741064 230.92264 
L 861.594199 158.812604 
L 862.447334 105.840526 
L 863.300469 64.270545 
L 864.153604 51.527833 
L 865.006739 80.706985 
L 865.859874 141.007035 
L 867.566144 243.864752 
L 868.419279 301.191104 
L 869.272414 267.955275 
L 870.125549 213.530641 
L 871.831819 93.779047 
L 872.684954 66.373562 
L 873.538089 52.238931 
L 874.391223 53.113056 
L 875.244358 68.005498 
L 876.097493 95.527981 
L 876.950628 134.06742 
L 877.803763 182.480638 
L 879.510033 298.794763 
L 880.363168 287.698336 
L 882.922573 129.745149 
L 883.775708 70.602082 
L 884.628843 40.081818 
L 885.481978 84.734925 
L 888.041383 267.291312 
L 888.894518 299.482609 
L 889.747653 282.99876 
L 890.600788 236.56035 
L 891.453923 162.921283 
L 892.307058 128.232869 
L 893.160192 77.369477 
L 894.013327 40.081818 
L 896.572732 228.191809 
L 897.425867 269.872443 
L 898.279002 304.118182 
L 899.132137 280.781367 
L 899.985272 241.751694 
L 900.838407 178.716692 
L 903.397812 42.682989 
L 904.250947 54.21906 
L 905.104082 91.205883 
L 906.810352 215.478205 
L 907.663487 262.912439 
L 908.516622 304.118182 
L 909.369757 271.574451 
L 910.222892 211.004443 
L 911.929161 130.735918 
L 913.635431 44.696786 
L 914.488566 45.158838 
L 915.341701 79.302924 
L 917.047971 195.152245 
L 918.754241 274.802951 
L 919.607376 304.118182 
L 920.460511 279.153838 
L 921.313646 235.130441 
L 922.166781 166.586081 
L 924.726186 53.640259 
L 925.579321 45.109355 
L 926.432456 83.378212 
L 927.285591 149.983154 
L 928.99186 247.852299 
L 929.844995 294.147075 
L 930.69813 298.005789 
L 931.551265 275.554967 
L 932.4044 227.555694 
L 933.257535 187.099795 
L 934.11067 153.139645 
L 934.963805 126.618444 
L 935.81694 109.013423 
L 936.670075 99.435092 
L 937.52321 92.515501 
L 938.376345 89.150054 
L 939.22948 89.476488 
L 940.082615 93.456827 
L 940.93575 100.955958 
L 941.788885 111.785795 
L 942.64202 125.730916 
L 943.495155 142.563753 
L 945.201425 182.715779 
L 946.05456 207.392716 
L 946.907695 238.280979 
L 947.760829 273.753624 
L 948.613964 304.118182 
L 949.467099 285.116984 
L 951.173369 202.256456 
L 952.026504 136.740659 
L 953.732774 43.09331 
L 954.585909 86.479797 
L 954.585909 86.479797 
" clip-path="url(#p5b43758fe9)" style="fill: none; stroke: #2ca02c; stroke-width: 1.2; stroke-linecap: square"/>
   </g>
   <g id="line2d_32">
    <path d="M 102.304091 304.118182 
L 106.569766 304.118182 
L 107.422901 40.081818 
L 109.129171 40.081818 
L 109.982305 304.118182 
L 110.83544 304.118182 
L 111.688575 212.09656 
L 112.54171 199.436993 
L 113.394845 184.764099 
L 114.24798 186.618828 
L 115.101115 187.969406 
L 115.95425 195.381549 
L 116.807385 191.470359 
L 117.66052 186.51871 
L 118.513655 182.303836 
L 119.36679 167.668355 
L 120.219925 173.267351 
L 121.926195 179.591556 
L 122.77933 185.828942 
L 123.632465 188.983211 
L 125.338735 202.102817 
L 127.89814 230.490416 
L 128.751274 225.254164 
L 129.604409 211.870587 
L 130.457544 213.782152 
L 132.163814 222.202493 
L 133.016949 230.134288 
L 133.870084 235.643117 
L 134.723219 242.922959 
L 135.576354 248.950963 
L 136.429489 256.570667 
L 138.135759 247.287089 
L 138.988894 241.710771 
L 139.842029 230.626787 
L 140.695164 211.766329 
L 141.548299 208.251236 
L 142.401434 196.484135 
L 143.254569 192.848051 
L 144.107704 180.976437 
L 144.960839 177.650082 
L 145.813974 166.037929 
L 146.667108 161.475202 
L 147.520243 148.336047 
L 148.373378 153.959213 
L 149.226513 167.870055 
L 150.079648 171.738221 
L 151.785918 181.411354 
L 153.492188 184.881615 
L 154.345323 183.202869 
L 155.198458 180.085459 
L 156.051593 172.102196 
L 156.904728 162.070809 
L 158.610998 179.067806 
L 159.464133 172.24729 
L 161.170403 183.479163 
L 162.023538 196.371944 
L 162.876673 183.001352 
L 163.729808 184.77786 
L 164.582942 186.216646 
L 165.436077 195.610899 
L 166.289212 203.67055 
L 167.142347 207.036707 
L 167.995482 214.606685 
L 168.848617 212.827698 
L 169.701752 215.948374 
L 170.554887 209.70842 
L 171.408022 206.905691 
L 172.261157 192.469086 
L 173.114292 181.01976 
L 173.967427 176.326744 
L 174.820562 172.939579 
L 175.673697 173.676458 
L 176.526832 186.88564 
L 177.379967 196.139078 
L 178.233102 197.212776 
L 179.086237 199.448608 
L 179.939372 193.025842 
L 180.792507 193.418615 
L 181.645642 193.622915 
L 182.498777 192.912566 
L 183.351911 190.859964 
L 184.205046 193.027885 
L 185.058181 189.441447 
L 185.911316 193.336792 
L 187.617586 185.879948 
L 188.470721 190.426586 
L 189.323856 187.986459 
L 190.176991 191.669645 
L 191.030126 186.812493 
L 191.883261 186.549664 
L 192.736396 176.284488 
L 194.442666 162.999213 
L 195.295801 156.814845 
L 196.148936 158.387956 
L 197.002071 153.124651 
L 197.855206 153.925434 
L 198.708341 144.662485 
L 199.561476 139.379152 
L 200.414611 141.028396 
L 201.267745 136.052763 
L 202.12088 143.171067 
L 202.974015 144.100632 
L 203.82715 144.525241 
L 204.680285 149.267038 
L 205.53342 162.49209 
L 206.386555 168.068496 
L 207.23969 178.89483 
L 208.092825 181.259675 
L 208.94596 189.154856 
L 209.799095 182.826528 
L 210.65223 172.272498 
L 211.505365 173.401942 
L 212.3585 181.178568 
L 213.211635 183.608752 
L 214.06477 193.703305 
L 214.917905 196.744952 
L 215.77104 205.715171 
L 216.624175 205.750023 
L 217.47731 209.39462 
L 218.330445 201.891472 
L 219.183579 195.587546 
L 220.036714 177.627184 
L 220.889849 170.998615 
L 221.742984 156.925113 
L 222.596119 148.720449 
L 223.449254 149.578178 
L 224.302389 155.699167 
L 225.155524 162.696951 
L 226.008659 172.584523 
L 226.861794 181.044519 
L 227.714929 187.830148 
L 228.568064 183.401203 
L 229.421199 174.016196 
L 231.980604 159.067653 
L 232.833739 160.412938 
L 233.686874 155.899118 
L 234.540009 152.661003 
L 235.393144 156.732499 
L 236.246279 156.90657 
L 237.099414 157.5085 
L 237.952548 156.614495 
L 238.805683 156.01325 
L 241.365088 165.740305 
L 242.218223 167.59433 
L 243.071358 167.540756 
L 243.924493 165.015528 
L 244.777628 160.745259 
L 245.630763 164.710855 
L 246.483898 155.181124 
L 247.337033 151.618367 
L 248.190168 160.647535 
L 249.043303 167.252728 
L 249.896438 175.301033 
L 250.749573 170.572587 
L 251.602708 167.287483 
L 252.455843 158.469691 
L 253.308978 146.957534 
L 254.162113 147.006863 
L 255.015248 148.690393 
L 255.868382 143.227442 
L 256.721517 143.980808 
L 257.574652 136.453905 
L 258.427787 134.02394 
L 259.280922 122.246786 
L 260.134057 123.841 
L 260.987192 119.100914 
L 261.840327 115.359289 
L 262.693462 113.958995 
L 263.546597 111.112042 
L 264.399732 126.022594 
L 265.252867 132.16073 
L 266.106002 130.047913 
L 266.959137 133.151608 
L 267.812272 126.735258 
L 268.665407 124.694092 
L 269.518542 119.925566 
L 270.371677 125.222548 
L 271.224812 128.711209 
L 272.077947 131.262895 
L 272.931082 132.321359 
L 273.784216 135.185426 
L 275.490486 158.081601 
L 276.343621 155.786374 
L 277.196756 144.905295 
L 278.049891 137.068933 
L 278.903026 134.649248 
L 279.756161 139.629447 
L 280.609296 143.512827 
L 281.462431 148.120264 
L 282.315566 147.780809 
L 283.168701 145.376324 
L 284.021836 138.870628 
L 287.434376 106.765464 
L 288.287511 109.315138 
L 289.140646 103.642858 
L 289.993781 107.794486 
L 290.846916 104.014286 
L 291.700051 109.540014 
L 292.553185 105.012334 
L 293.40632 108.261323 
L 294.259455 101.620217 
L 295.11259 104.599893 
L 295.965725 96.93685 
L 296.81886 97.604029 
L 297.671995 86.419813 
L 298.52513 84.502726 
L 299.378265 71.825307 
L 300.2314 89.040384 
L 301.084535 93.980591 
L 301.93767 99.714184 
L 307.909615 145.759176 
L 310.469019 158.038224 
L 311.322154 160.97568 
L 312.175289 162.838131 
L 313.028424 163.866887 
L 313.881559 164.300566 
L 314.734694 164.353084 
L 316.440964 164.084391 
L 317.294099 164.117769 
L 318.147234 164.484811 
L 319.853504 165.976065 
L 320.706639 166.992707 
L 321.559774 168.504364 
L 322.412909 169.30888 
L 324.119179 155.659409 
L 324.972314 153.321695 
L 325.825449 151.330309 
L 326.678584 150.022202 
L 327.531719 149.685904 
L 328.384853 150.575156 
L 329.237988 152.942731 
L 330.091123 156.936001 
L 330.944258 152.858652 
L 331.797393 147.130928 
L 332.650528 152.515055 
L 333.503663 154.625703 
L 334.356798 169.857767 
L 335.209933 177.500969 
L 336.063068 178.753448 
L 336.916203 171.692359 
L 337.769338 166.002375 
L 338.622473 146.555074 
L 339.475608 143.519983 
L 340.328743 148.246166 
L 341.181878 144.418853 
L 342.035013 152.988721 
L 342.888148 153.089267 
L 343.741283 166.254143 
L 344.594418 171.671729 
L 345.447553 190.753764 
L 346.300688 180.236512 
L 347.153822 171.860356 
L 348.006957 165.492573 
L 349.713227 147.129056 
L 350.566362 134.970345 
L 351.419497 124.699918 
L 352.272632 112.385854 
L 353.125767 109.71172 
L 353.978902 129.080191 
L 354.832037 132.487458 
L 356.538307 143.516689 
L 357.391442 142.906719 
L 358.244577 143.882895 
L 359.097712 142.501931 
L 359.950847 143.690263 
L 360.803982 144.051975 
L 362.510252 155.435824 
L 364.216522 176.199194 
L 365.922791 177.929812 
L 366.775926 177.891647 
L 367.629061 178.206013 
L 368.482196 178.842894 
L 369.335331 172.917505 
L 370.188466 161.562983 
L 371.041601 160.59112 
L 371.894736 158.741362 
L 372.747871 158.442211 
L 373.601006 164.917323 
L 374.454141 161.539789 
L 375.307276 159.432266 
L 376.160411 149.535354 
L 377.013546 150.776594 
L 377.866681 145.850622 
L 378.719816 150.428176 
L 379.572951 152.277745 
L 380.426086 166.028399 
L 381.279221 174.467184 
L 382.132356 178.396667 
L 382.98549 190.489312 
L 383.838625 189.560762 
L 384.69176 192.704892 
L 385.544895 199.135766 
L 386.39803 186.040256 
L 387.251165 187.468111 
L 388.1043 189.181216 
L 388.957435 195.695902 
L 389.81057 196.875736 
L 390.663705 195.497829 
L 391.51684 191.017711 
L 393.22311 184.695633 
L 394.076245 182.968957 
L 394.92938 184.916552 
L 395.782515 180.703158 
L 396.63565 184.507477 
L 397.488785 183.341698 
L 398.34192 191.78907 
L 399.195055 196.746348 
L 400.04819 193.367906 
L 401.754459 175.820201 
L 402.607594 174.745553 
L 403.460729 177.441785 
L 404.313864 182.747841 
L 405.166999 188.961133 
L 406.020134 191.930277 
L 406.873269 197.403433 
L 407.726404 201.305576 
L 408.579539 210.227751 
L 410.285809 216.436921 
L 411.138944 212.320057 
L 411.992079 215.486557 
L 412.845214 205.643972 
L 415.404619 166.334595 
L 416.257754 167.71692 
L 417.110889 174.018979 
L 417.964024 175.98097 
L 418.817159 181.257529 
L 419.670293 180.533073 
L 422.229698 152.956085 
L 423.082833 152.568386 
L 423.935968 141.23003 
L 424.789103 140.196724 
L 425.642238 132.783917 
L 426.495373 134.332575 
L 427.348508 131.978455 
L 428.201643 140.381369 
L 429.054778 146.150172 
L 429.907913 163.808205 
L 430.761048 170.326485 
L 431.614183 172.516865 
L 432.467318 175.966297 
L 434.173588 186.842919 
L 435.026723 195.710369 
L 435.879858 202.152768 
L 436.732993 199.531578 
L 437.586127 200.280226 
L 438.439262 194.399799 
L 439.292397 186.826504 
L 440.145532 183.450897 
L 440.998667 183.751889 
L 441.851802 185.458988 
L 443.558072 199.046749 
L 444.411207 202.182995 
L 445.264342 199.057727 
L 446.117477 188.994165 
L 446.970612 184.18608 
L 447.823747 169.87492 
L 448.676882 160.986281 
L 449.530017 154.436859 
L 450.383152 142.356007 
L 451.236287 148.277125 
L 452.089422 160.006427 
L 452.942557 160.847191 
L 453.795692 169.102207 
L 454.648827 173.967767 
L 456.355096 192.918832 
L 457.208231 197.708805 
L 458.061366 188.566569 
L 458.914501 182.621215 
L 459.767636 184.600261 
L 460.620771 182.844448 
L 461.473906 192.843657 
L 462.327041 200.803508 
L 463.180176 203.417072 
L 464.033311 200.170238 
L 464.886446 202.000121 
L 466.592716 183.532699 
L 467.445851 172.553709 
L 468.298986 164.05001 
L 469.152121 165.873906 
L 470.005256 168.043274 
L 470.858391 173.715067 
L 471.711526 175.998106 
L 472.564661 176.585948 
L 473.417796 177.671212 
L 474.27093 179.689161 
L 475.124065 183.019456 
L 475.9772 183.602792 
L 477.68347 175.504521 
L 481.949145 141.218669 
L 483.655415 131.81715 
L 484.50855 130.097914 
L 485.361685 128.895775 
L 486.21482 131.198607 
L 487.067955 134.455247 
L 487.92109 141.592339 
L 488.774225 150.006817 
L 490.480495 176.645674 
L 491.33363 173.670196 
L 493.039899 159.93691 
L 493.893034 157.827174 
L 494.746169 152.851064 
L 495.599304 165.784163 
L 496.452439 171.538011 
L 497.305574 176.417811 
L 498.158709 180.391702 
L 499.011844 183.793198 
L 501.571249 192.478325 
L 502.424384 192.895732 
L 503.277519 196.640316 
L 504.130654 199.554428 
L 504.983789 196.006211 
L 505.836924 196.974689 
L 506.690059 184.90434 
L 507.543194 175.540874 
L 508.396329 173.854335 
L 509.249464 171.823031 
L 510.102599 170.240623 
L 510.955733 171.912016 
L 511.808868 173.052916 
L 512.662003 176.333922 
L 513.515138 179.08404 
L 514.368273 185.142484 
L 515.221408 193.698462 
L 516.074543 205.010529 
L 516.927678 199.862952 
L 517.780813 190.902513 
L 518.633948 185.63648 
L 519.487083 193.024209 
L 520.340218 196.750877 
L 521.193353 194.917143 
L 522.046488 202.385758 
L 522.899623 200.311091 
L 523.752758 205.587871 
L 524.605893 204.733408 
L 525.459028 208.929989 
L 526.312163 204.628202 
L 527.165298 205.540402 
L 528.018433 198.053854 
L 528.871567 195.845405 
L 529.724702 185.278272 
L 530.577837 180.004012 
L 531.430972 166.364785 
L 532.284107 167.968532 
L 533.137242 171.985343 
L 534.843512 192.822432 
L 535.696647 187.633971 
L 536.549782 189.032266 
L 537.402917 190.873071 
L 538.256052 180.35878 
L 539.109187 179.147844 
L 539.962322 188.258664 
L 540.815457 186.472152 
L 541.668592 184.402664 
L 542.521727 169.497875 
L 543.374862 167.538061 
L 544.227997 168.480743 
L 545.081132 178.27646 
L 545.934267 177.759042 
L 547.640536 188.729972 
L 549.346806 207.376027 
L 550.199941 203.040257 
L 551.053076 210.708091 
L 552.759346 193.414231 
L 553.612481 192.683136 
L 554.465616 195.554043 
L 555.318751 199.048178 
L 556.171886 195.014975 
L 557.025021 196.858339 
L 557.878156 190.743967 
L 558.731291 189.92234 
L 559.584426 180.364471 
L 560.437561 175.435219 
L 561.290696 160.978596 
L 562.143831 153.508422 
L 562.996966 153.164679 
L 564.703236 144.745398 
L 565.55637 141.08215 
L 566.409505 148.00407 
L 567.26264 162.046456 
L 568.115775 163.749242 
L 568.96891 156.44781 
L 569.822045 156.788736 
L 570.67518 153.329032 
L 571.528315 151.285332 
L 572.38145 151.722509 
L 573.234585 160.726767 
L 574.08772 163.776606 
L 574.940855 164.475748 
L 576.647125 168.487331 
L 577.50026 169.60143 
L 578.353395 169.254292 
L 579.20653 169.75984 
L 580.9128 173.930331 
L 581.765935 174.747218 
L 582.61907 173.522044 
L 583.472204 167.65923 
L 584.325339 165.057846 
L 585.178474 152.719925 
L 586.031609 151.18126 
L 586.884744 156.261866 
L 587.737879 164.346691 
L 588.591014 166.62877 
L 589.444149 166.627966 
L 590.297284 158.807253 
L 591.150419 161.126504 
L 592.003554 169.411538 
L 592.856689 169.909442 
L 593.709824 168.545048 
L 594.562959 174.935337 
L 595.416094 179.63699 
L 596.269229 177.847452 
L 597.122364 173.165568 
L 597.975499 173.506548 
L 598.828634 172.223186 
L 599.681769 176.221722 
L 600.534904 170.921549 
L 601.388038 180.085993 
L 602.241173 183.451227 
L 603.094308 185.991556 
L 603.947443 187.870053 
L 604.800578 177.093711 
L 605.653713 169.653559 
L 606.506848 165.953899 
L 607.359983 161.491837 
L 608.213118 154.231178 
L 609.066253 154.145849 
L 609.919388 159.787799 
L 610.772523 170.128165 
L 612.478793 179.090673 
L 613.331928 179.613594 
L 614.185063 179.005874 
L 615.038198 174.663247 
L 615.891333 168.114417 
L 616.744468 158.706353 
L 617.597603 155.074302 
L 618.450738 147.903694 
L 619.303873 142.657323 
L 620.157007 147.79401 
L 621.010142 148.303092 
L 621.863277 157.793284 
L 622.716412 161.205573 
L 623.569547 171.551312 
L 624.422682 173.917191 
L 625.275817 181.410778 
L 626.128952 179.243008 
L 626.982087 180.799071 
L 627.835222 172.515802 
L 628.688357 167.823228 
L 629.541492 160.118505 
L 630.394627 163.092578 
L 631.247762 169.95198 
L 632.100897 175.443114 
L 632.954032 182.990425 
L 634.660302 194.955464 
L 636.366572 200.696581 
L 637.219707 200.265699 
L 638.072841 197.165063 
L 638.925976 188.536108 
L 640.632246 165.125339 
L 641.485381 161.983702 
L 642.338516 157.879275 
L 643.191651 144.818839 
L 644.897921 141.123483 
L 645.751056 134.54163 
L 646.604191 143.005442 
L 648.310461 167.762204 
L 649.163596 174.353698 
L 650.016731 182.055097 
L 650.869866 187.036475 
L 651.723001 190.986962 
L 652.576136 191.775868 
L 653.429271 192.272723 
L 654.282406 187.332727 
L 655.135541 178.66198 
L 655.988675 167.502491 
L 656.84181 172.275199 
L 657.694945 172.281845 
L 658.54808 162.800911 
L 659.401215 158.460775 
L 660.25435 155.458877 
L 661.96062 142.929534 
L 662.813755 136.193493 
L 663.66689 137.188553 
L 664.520025 137.694727 
L 665.37316 148.106584 
L 666.226295 153.274161 
L 667.07943 166.188938 
L 667.932565 171.856133 
L 668.7857 182.28475 
L 669.638835 183.946264 
L 670.49197 190.142782 
L 671.345105 186.439865 
L 672.19824 185.931363 
L 673.051375 174.398743 
L 673.90451 165.054498 
L 674.757644 153.025485 
L 675.610779 152.75954 
L 676.463914 147.427738 
L 677.317049 142.943016 
L 679.023319 125.837478 
L 679.876454 123.510919 
L 680.729589 124.757005 
L 681.582724 118.908719 
L 682.435859 119.341234 
L 683.288994 111.167733 
L 684.142129 108.313887 
L 684.995264 108.280712 
L 685.848399 107.902307 
L 686.701534 116.136059 
L 687.554669 117.329345 
L 688.407804 126.306591 
L 689.260939 127.090943 
L 690.114074 136.371889 
L 690.967209 137.045998 
L 691.820344 145.098048 
L 692.673478 144.270762 
L 693.526613 149.525351 
L 694.379748 145.287821 
L 695.232883 146.33913 
L 696.086018 137.198101 
L 696.939153 133.020494 
L 697.792288 123.73329 
L 698.645423 127.385253 
L 699.498558 132.786577 
L 700.351693 129.547749 
L 702.057963 143.699879 
L 702.911098 160.947478 
L 703.764233 165.198301 
L 704.617368 164.902289 
L 705.470503 161.802517 
L 706.323638 155.974508 
L 707.176773 158.568352 
L 708.029908 155.076861 
L 708.883043 153.852914 
L 709.736178 149.065209 
L 710.589312 145.253269 
L 712.295582 130.787977 
L 714.001852 109.948366 
L 714.854987 112.20296 
L 715.708122 119.206259 
L 717.414392 130.233663 
L 718.267527 136.726941 
L 719.120662 148.551947 
L 719.973797 144.161907 
L 720.826932 137.312031 
L 721.680067 133.962159 
L 722.533202 126.870977 
L 723.386337 117.564695 
L 724.239472 126.852745 
L 725.092607 144.063814 
L 725.945742 153.457957 
L 726.798877 165.797371 
L 727.652012 158.627776 
L 728.505147 143.644854 
L 729.358281 149.088335 
L 730.211416 151.174568 
L 731.064551 168.00129 
L 731.917686 176.141661 
L 732.770821 177.068117 
L 733.623956 194.530391 
L 734.477091 191.318513 
L 735.330226 184.409831 
L 736.183361 162.540515 
L 737.036496 157.136953 
L 737.889631 158.352232 
L 738.742766 172.619416 
L 739.595901 180.163766 
L 740.449036 175.534337 
L 741.302171 168.418785 
L 742.155306 160.302836 
L 743.861576 135.197091 
L 744.714711 134.604369 
L 745.567846 129.143912 
L 746.420981 136.170491 
L 747.274115 134.926488 
L 748.12725 146.41428 
L 748.980385 149.805863 
L 749.83352 166.062831 
L 750.686655 174.667309 
L 751.53979 184.803491 
L 752.392925 184.055771 
L 753.24606 194.246556 
L 754.099195 194.955269 
L 754.95233 207.058747 
L 755.805465 209.075719 
L 756.6586 222.223931 
L 757.511735 204.514525 
L 758.36487 195.599517 
L 759.218005 184.416792 
L 760.07114 185.126403 
L 760.924275 186.44246 
L 761.77741 193.713832 
L 762.630545 195.293118 
L 763.48368 192.302201 
L 764.336815 199.75209 
L 765.189949 199.997819 
L 766.043084 211.090704 
L 766.896219 199.468201 
L 767.749354 191.796859 
L 768.602489 173.504107 
L 769.455624 160.089424 
L 770.308759 153.669264 
L 771.161894 149.495374 
L 772.015029 148.154766 
L 772.868164 149.946975 
L 773.721299 146.693331 
L 774.574434 144.546777 
L 775.427569 152.302811 
L 776.280704 161.165559 
L 777.133839 174.9765 
L 777.986974 167.245846 
L 779.693244 168.123581 
L 780.546379 169.211239 
L 781.399514 165.747684 
L 782.252649 152.234481 
L 783.105784 146.281962 
L 783.958918 145.985299 
L 784.812053 149.210128 
L 785.665188 158.821858 
L 786.518323 166.958275 
L 787.371458 160.994019 
L 788.224593 154.176366 
L 789.077728 144.0441 
L 789.930863 150.334483 
L 790.783998 152.356636 
L 791.637133 159.198486 
L 792.490268 168.660381 
L 793.343403 166.366573 
L 794.196538 162.978489 
L 795.049673 166.360937 
L 795.902808 163.650922 
L 796.755943 169.32353 
L 797.609078 170.623434 
L 798.462213 182.466642 
L 799.315348 181.215078 
L 800.168483 176.06159 
L 801.874752 169.961577 
L 802.727887 168.148846 
L 803.581022 168.20479 
L 804.434157 171.743906 
L 805.287292 166.646339 
L 806.140427 168.969736 
L 806.993562 165.672643 
L 807.846697 171.381905 
L 808.699832 172.561934 
L 809.552967 184.372017 
L 811.259237 194.724502 
L 812.112372 191.772159 
L 812.965507 194.376285 
L 813.818642 193.309863 
L 814.671777 187.258253 
L 815.524912 169.58351 
L 816.378047 174.009361 
L 817.231182 174.720156 
L 818.084317 173.091059 
L 818.937452 176.762859 
L 819.790586 182.839071 
L 820.643721 191.280996 
L 821.496856 195.783335 
L 822.349991 203.145256 
L 823.203126 207.519203 
L 824.056261 197.998169 
L 824.909396 186.528606 
L 825.762531 178.668155 
L 826.615666 173.818644 
L 827.468801 177.123364 
L 828.321936 184.85457 
L 829.175071 175.768267 
L 830.028206 173.657934 
L 830.881341 169.804172 
L 831.734476 170.022832 
L 832.587611 169.372648 
L 833.440746 180.675822 
L 834.293881 183.304579 
L 835.147016 192.228852 
L 836.000151 188.865719 
L 836.853286 187.138719 
L 837.706421 175.907146 
L 838.559555 169.732588 
L 839.41269 155.738183 
L 841.11896 144.575811 
L 842.82523 156.972006 
L 843.678365 169.439221 
L 844.5315 166.612401 
L 845.384635 170.01122 
L 846.23777 169.485446 
L 847.090905 168.464287 
L 847.94404 167.840743 
L 848.797175 169.238651 
L 849.65031 173.760301 
L 850.503445 164.175602 
L 851.35658 157.947833 
L 852.209715 159.321604 
L 853.06285 158.096009 
L 853.915985 162.903698 
L 855.622255 169.252498 
L 856.475389 176.263267 
L 858.181659 193.520255 
L 859.034794 196.09921 
L 859.887929 198.243261 
L 860.741064 194.698863 
L 861.594199 186.091311 
L 862.447334 183.738655 
L 863.300469 174.989718 
L 864.153604 175.827243 
L 865.006739 172.172889 
L 865.859874 178.156044 
L 866.713009 180.620774 
L 867.566144 194.105251 
L 868.419279 194.598351 
L 869.272414 192.012368 
L 870.125549 194.940415 
L 871.831819 209.398181 
L 872.684954 211.572102 
L 873.538089 212.108961 
L 874.391223 205.931775 
L 876.950628 196.775726 
L 877.803763 195.364209 
L 878.656898 195.831891 
L 879.510033 188.463719 
L 880.363168 187.570307 
L 881.216303 191.673778 
L 882.069438 188.030398 
L 882.922573 195.469129 
L 883.775708 189.339961 
L 884.628843 190.539263 
L 886.335113 196.392628 
L 887.188248 199.647903 
L 888.041383 202.430949 
L 889.747653 205.831567 
L 890.600788 204.017363 
L 892.307058 195.34148 
L 894.013327 181.398898 
L 894.866462 172.491739 
L 897.425867 151.398879 
L 898.279002 145.888596 
L 899.132137 143.927254 
L 899.985272 142.797101 
L 900.838407 145.910453 
L 901.691542 150.472254 
L 902.544677 159.817531 
L 905.104082 194.514106 
L 905.957217 199.01003 
L 906.810352 184.835497 
L 907.663487 180.571653 
L 908.516622 177.390249 
L 909.369757 176.336178 
L 910.222892 184.840444 
L 911.076026 191.801542 
L 911.929161 202.623949 
L 912.782296 198.313042 
L 914.488566 203.995609 
L 916.194836 208.97635 
L 917.047971 203.580151 
L 917.901106 208.304901 
L 918.754241 214.653678 
L 919.607376 219.764667 
L 920.460511 212.436481 
L 921.313646 202.160859 
L 922.166781 187.890292 
L 923.019916 186.260371 
L 923.873051 186.74425 
L 924.726186 186.684889 
L 925.579321 188.466221 
L 926.432456 192.214365 
L 927.285591 190.821105 
L 928.138726 194.07996 
L 928.99186 195.337461 
L 929.844995 198.492131 
L 930.69813 200.712088 
L 931.551265 205.340187 
L 932.4044 209.274487 
L 934.11067 223.094535 
L 934.963805 232.915355 
L 935.81694 227.979594 
L 936.670075 228.659017 
L 937.52321 226.940194 
L 938.376345 230.886377 
L 939.22948 224.815148 
L 940.082615 206.071941 
L 940.93575 192.010342 
L 941.788885 187.050764 
L 942.64202 175.12044 
L 943.495155 173.501388 
L 944.34829 164.511398 
L 945.201425 164.603694 
L 946.05456 167.258639 
L 946.907695 172.793467 
L 947.760829 171.007344 
L 948.613964 173.71505 
L 949.467099 174.078324 
L 950.320234 176.409828 
L 951.173369 182.353542 
L 952.026504 172.385092 
L 952.879639 153.517831 
L 953.732774 128.681778 
L 954.585909 111.291503 
L 954.585909 111.291503 
" clip-path="url(#p5b43758fe9)" style="fill: none; stroke-dasharray: 3.7,1.6; stroke-dashoffset: 0; stroke: #1f77b4"/>
   </g>
   <g id="patch_3">
    <path d="M 59.69 317.32 
L 59.69 26.88 
" style="fill: none; stroke: #000000; stroke-width: 0.8; stroke-linejoin: miter; stroke-linecap: square"/>
   </g>
   <g id="patch_4">
    <path d="M 997.2 317.32 
L 997.2 26.88 
" style="fill: none; stroke: #000000; stroke-width: 0.8; stroke-linejoin: miter; stroke-linecap: square"/>
   </g>
   <g id="patch_5">
    <path d="M 59.69 317.32 
L 997.2 317.32 
" style="fill: none; stroke: #000000; stroke-width: 0.8; stroke-linejoin: miter; stroke-linecap: square"/>
   </g>
   <g id="patch_6">
    <path d="M 59.69 26.88 
L 997.2 26.88 
" style="fill: none; stroke: #000000; stroke-width: 0.8; stroke-linejoin: miter; stroke-linecap: square"/>
   </g>
   <g id="text_18">
    <!-- Control Input — Phi_des — figure-8_1 -->
    <g transform="translate(393.087578 20.88) scale(0.13 -0.13)">
     <defs>
      <path id="DejaVuSans-Bold-43" d="M 4288 256 
Q 3956 84 3597 -3 
Q 3238 -91 2847 -91 
Q 1681 -91 1000 561 
Q 319 1213 319 2328 
Q 319 3447 1000 4098 
Q 1681 4750 2847 4750 
Q 3238 4750 3597 4662 
Q 3956 4575 4288 4403 
L 4288 3438 
Q 3953 3666 3628 3772 
Q 3303 3878 2944 3878 
Q 2300 3878 1931 3465 
Q 1563 3053 1563 2328 
Q 1563 1606 1931 1193 
Q 2300 781 2944 781 
Q 3303 781 3628 887 
Q 3953 994 4288 1222 
L 4288 256 
z
" transform="scale(0.015625)"/>
      <path id="DejaVuSans-Bold-6f" d="M 2203 2784 
Q 1831 2784 1636 2517 
Q 1441 2250 1441 1747 
Q 1441 1244 1636 976 
Q 1831 709 2203 709 
Q 2569 709 2762 976 
Q 2956 1244 2956 1747 
Q 2956 2250 2762 2517 
Q 2569 2784 2203 2784 
z
M 2203 3584 
Q 3106 3584 3614 3096 
Q 4122 2609 4122 1747 
Q 4122 884 3614 396 
Q 3106 -91 2203 -91 
Q 1297 -91 786 396 
Q 275 884 275 1747 
Q 275 2609 786 3096 
Q 1297 3584 2203 3584 
z
" transform="scale(0.015625)"/>
      <path id="DejaVuSans-Bold-6e" d="M 4056 2131 
L 4056 0 
L 2931 0 
L 2931 347 
L 2931 1631 
Q 2931 2084 2911 2256 
Q 2891 2428 2841 2509 
Q 2775 2619 2662 2680 
Q 2550 2741 2406 2741 
Q 2056 2741 1856 2470 
Q 1656 2200 1656 1722 
L 1656 0 
L 538 0 
L 538 3500 
L 1656 3500 
L 1656 2988 
Q 1909 3294 2193 3439 
Q 2478 3584 2822 3584 
Q 3428 3584 3742 3212 
Q 4056 2841 4056 2131 
z
" transform="scale(0.015625)"/>
      <path id="DejaVuSans-Bold-74" d="M 1759 4494 
L 1759 3500 
L 2913 3500 
L 2913 2700 
L 1759 2700 
L 1759 1216 
Q 1759 972 1856 886 
Q 1953 800 2241 800 
L 2816 800 
L 2816 0 
L 1856 0 
Q 1194 0 917 276 
Q 641 553 641 1216 
L 641 2700 
L 84 2700 
L 84 3500 
L 641 3500 
L 641 4494 
L 1759 4494 
z
" transform="scale(0.015625)"/>
      <path id="DejaVuSans-Bold-72" d="M 3138 2547 
Q 2991 2616 2845 2648 
Q 2700 2681 2553 2681 
Q 2122 2681 1889 2404 
Q 1656 2128 1656 1613 
L 1656 0 
L 538 0 
L 538 3500 
L 1656 3500 
L 1656 2925 
Q 1872 3269 2151 3426 
Q 2431 3584 2822 3584 
Q 2878 3584 2943 3579 
Q 3009 3575 3134 3559 
L 3138 2547 
z
" transform="scale(0.015625)"/>
      <path id="DejaVuSans-Bold-6c" d="M 538 4863 
L 1656 4863 
L 1656 0 
L 538 0 
L 538 4863 
z
" transform="scale(0.015625)"/>
      <path id="DejaVuSans-Bold-20" transform="scale(0.015625)"/>
      <path id="DejaVuSans-Bold-49" d="M 588 4666 
L 1791 4666 
L 1791 0 
L 588 0 
L 588 4666 
z
" transform="scale(0.015625)"/>
      <path id="DejaVuSans-Bold-70" d="M 1656 506 
L 1656 -1331 
L 538 -1331 
L 538 3500 
L 1656 3500 
L 1656 2988 
Q 1888 3294 2169 3439 
Q 2450 3584 2816 3584 
Q 3463 3584 3878 3070 
Q 4294 2556 4294 1747 
Q 4294 938 3878 423 
Q 3463 -91 2816 -91 
Q 2450 -91 2169 54 
Q 1888 200 1656 506 
z
M 2400 2772 
Q 2041 2772 1848 2508 
Q 1656 2244 1656 1747 
Q 1656 1250 1848 986 
Q 2041 722 2400 722 
Q 2759 722 2948 984 
Q 3138 1247 3138 1747 
Q 3138 2247 2948 2509 
Q 2759 2772 2400 2772 
z
" transform="scale(0.015625)"/>
      <path id="DejaVuSans-Bold-75" d="M 500 1363 
L 500 3500 
L 1625 3500 
L 1625 3150 
Q 1625 2866 1622 2436 
Q 1619 2006 1619 1863 
Q 1619 1441 1641 1255 
Q 1663 1069 1716 984 
Q 1784 875 1895 815 
Q 2006 756 2150 756 
Q 2500 756 2700 1025 
Q 2900 1294 2900 1772 
L 2900 3500 
L 4019 3500 
L 4019 0 
L 2900 0 
L 2900 506 
Q 2647 200 2364 54 
Q 2081 -91 1741 -91 
Q 1134 -91 817 281 
Q 500 653 500 1363 
z
" transform="scale(0.015625)"/>
      <path id="DejaVuSans-Bold-2014" d="M 344 2156 
L 6056 2156 
L 6056 1350 
L 344 1350 
L 344 2156 
z
" transform="scale(0.015625)"/>
      <path id="DejaVuSans-Bold-50" d="M 588 4666 
L 2584 4666 
Q 3475 4666 3951 4270 
Q 4428 3875 4428 3144 
Q 4428 2409 3951 2014 
Q 3475 1619 2584 1619 
L 1791 1619 
L 1791 0 
L 588 0 
L 588 4666 
z
M 1791 3794 
L 1791 2491 
L 2456 2491 
Q 2806 2491 2997 2661 
Q 3188 2831 3188 3144 
Q 3188 3456 2997 3625 
Q 2806 3794 2456 3794 
L 1791 3794 
z
" transform="scale(0.015625)"/>
      <path id="DejaVuSans-Bold-68" d="M 4056 2131 
L 4056 0 
L 2931 0 
L 2931 347 
L 2931 1625 
Q 2931 2084 2911 2256 
Q 2891 2428 2841 2509 
Q 2775 2619 2662 2680 
Q 2550 2741 2406 2741 
Q 2056 2741 1856 2470 
Q 1656 2200 1656 1722 
L 1656 0 
L 538 0 
L 538 4863 
L 1656 4863 
L 1656 2988 
Q 1909 3294 2193 3439 
Q 2478 3584 2822 3584 
Q 3428 3584 3742 3212 
Q 4056 2841 4056 2131 
z
" transform="scale(0.015625)"/>
      <path id="DejaVuSans-Bold-69" d="M 538 3500 
L 1656 3500 
L 1656 0 
L 538 0 
L 538 3500 
z
M 538 4863 
L 1656 4863 
L 1656 3950 
L 538 3950 
L 538 4863 
z
" transform="scale(0.015625)"/>
      <path id="DejaVuSans-Bold-5f" d="M 3200 -916 
L 3200 -1509 
L 0 -1509 
L 0 -916 
L 3200 -916 
z
" transform="scale(0.015625)"/>
      <path id="DejaVuSans-Bold-64" d="M 2919 2988 
L 2919 4863 
L 4044 4863 
L 4044 0 
L 2919 0 
L 2919 506 
Q 2688 197 2409 53 
Q 2131 -91 1766 -91 
Q 1119 -91 703 423 
Q 288 938 288 1747 
Q 288 2556 703 3070 
Q 1119 3584 1766 3584 
Q 2128 3584 2408 3439 
Q 2688 3294 2919 2988 
z
M 2181 722 
Q 2541 722 2730 984 
Q 2919 1247 2919 1747 
Q 2919 2247 2730 2509 
Q 2541 2772 2181 2772 
Q 1825 2772 1636 2509 
Q 1447 2247 1447 1747 
Q 1447 1247 1636 984 
Q 1825 722 2181 722 
z
" transform="scale(0.015625)"/>
      <path id="DejaVuSans-Bold-65" d="M 4031 1759 
L 4031 1441 
L 1416 1441 
Q 1456 1047 1700 850 
Q 1944 653 2381 653 
Q 2734 653 3104 758 
Q 3475 863 3866 1075 
L 3866 213 
Q 3469 63 3072 -14 
Q 2675 -91 2278 -91 
Q 1328 -91 801 392 
Q 275 875 275 1747 
Q 275 2603 792 3093 
Q 1309 3584 2216 3584 
Q 3041 3584 3536 3087 
Q 4031 2591 4031 1759 
z
M 2881 2131 
Q 2881 2450 2695 2645 
Q 2509 2841 2209 2841 
Q 1884 2841 1681 2658 
Q 1478 2475 1428 2131 
L 2881 2131 
z
" transform="scale(0.015625)"/>
      <path id="DejaVuSans-Bold-73" d="M 3272 3391 
L 3272 2541 
Q 2913 2691 2578 2766 
Q 2244 2841 1947 2841 
Q 1628 2841 1473 2761 
Q 1319 2681 1319 2516 
Q 1319 2381 1436 2309 
Q 1553 2238 1856 2203 
L 2053 2175 
Q 2913 2066 3209 1816 
Q 3506 1566 3506 1031 
Q 3506 472 3093 190 
Q 2681 -91 1863 -91 
Q 1516 -91 1145 -36 
Q 775 19 384 128 
L 384 978 
Q 719 816 1070 734 
Q 1422 653 1784 653 
Q 2113 653 2278 743 
Q 2444 834 2444 1013 
Q 2444 1163 2330 1236 
Q 2216 1309 1875 1350 
L 1678 1375 
Q 931 1469 631 1722 
Q 331 1975 331 2491 
Q 331 3047 712 3315 
Q 1094 3584 1881 3584 
Q 2191 3584 2531 3537 
Q 2872 3491 3272 3391 
z
" transform="scale(0.015625)"/>
      <path id="DejaVuSans-Bold-66" d="M 2841 4863 
L 2841 4128 
L 2222 4128 
Q 1984 4128 1890 4042 
Q 1797 3956 1797 3744 
L 1797 3500 
L 2753 3500 
L 2753 2700 
L 1797 2700 
L 1797 0 
L 678 0 
L 678 2700 
L 122 2700 
L 122 3500 
L 678 3500 
L 678 3744 
Q 678 4316 997 4589 
Q 1316 4863 1984 4863 
L 2841 4863 
z
" transform="scale(0.015625)"/>
      <path id="DejaVuSans-Bold-67" d="M 2919 594 
Q 2688 288 2409 144 
Q 2131 0 1766 0 
Q 1125 0 706 504 
Q 288 1009 288 1791 
Q 288 2575 706 3076 
Q 1125 3578 1766 3578 
Q 2131 3578 2409 3434 
Q 2688 3291 2919 2981 
L 2919 3500 
L 4044 3500 
L 4044 353 
Q 4044 -491 3511 -936 
Q 2978 -1381 1966 -1381 
Q 1638 -1381 1331 -1331 
Q 1025 -1281 716 -1178 
L 716 -306 
Q 1009 -475 1290 -558 
Q 1572 -641 1856 -641 
Q 2406 -641 2662 -400 
Q 2919 -159 2919 353 
L 2919 594 
z
M 2181 2772 
Q 1834 2772 1640 2515 
Q 1447 2259 1447 1791 
Q 1447 1309 1634 1061 
Q 1822 813 2181 813 
Q 2531 813 2725 1069 
Q 2919 1325 2919 1791 
Q 2919 2259 2725 2515 
Q 2531 2772 2181 2772 
z
" transform="scale(0.015625)"/>
      <path id="DejaVuSans-Bold-2d" d="M 347 2297 
L 2309 2297 
L 2309 1388 
L 347 1388 
L 347 2297 
z
" transform="scale(0.015625)"/>
      <path id="DejaVuSans-Bold-38" d="M 2228 2088 
Q 1891 2088 1709 1903 
Q 1528 1719 1528 1375 
Q 1528 1031 1709 848 
Q 1891 666 2228 666 
Q 2563 666 2741 848 
Q 2919 1031 2919 1375 
Q 2919 1722 2741 1905 
Q 2563 2088 2228 2088 
z
M 1350 2484 
Q 925 2613 709 2878 
Q 494 3144 494 3541 
Q 494 4131 934 4440 
Q 1375 4750 2228 4750 
Q 3075 4750 3515 4442 
Q 3956 4134 3956 3541 
Q 3956 3144 3739 2878 
Q 3522 2613 3097 2484 
Q 3572 2353 3814 2058 
Q 4056 1763 4056 1313 
Q 4056 619 3595 264 
Q 3134 -91 2228 -91 
Q 1319 -91 855 264 
Q 391 619 391 1313 
Q 391 1763 633 2058 
Q 875 2353 1350 2484 
z
M 1631 3419 
Q 1631 3141 1786 2991 
Q 1941 2841 2228 2841 
Q 2509 2841 2662 2991 
Q 2816 3141 2816 3419 
Q 2816 3697 2662 3845 
Q 2509 3994 2228 3994 
Q 1941 3994 1786 3844 
Q 1631 3694 1631 3419 
z
" transform="scale(0.015625)"/>
      <path id="DejaVuSans-Bold-31" d="M 750 831 
L 1813 831 
L 1813 3847 
L 722 3622 
L 722 4441 
L 1806 4666 
L 2950 4666 
L 2950 831 
L 4013 831 
L 4013 0 
L 750 0 
L 750 831 
z
" transform="scale(0.015625)"/>
     </defs>
     <use xlink:href="#DejaVuSans-Bold-43"/>
     <use xlink:href="#DejaVuSans-Bold-6f" transform="translate(73.388672 0)"/>
     <use xlink:href="#DejaVuSans-Bold-6e" transform="translate(142.089844 0)"/>
     <use xlink:href="#DejaVuSans-Bold-74" transform="translate(213.28125 0)"/>
     <use xlink:href="#DejaVuSans-Bold-72" transform="translate(261.083984 0)"/>
     <use xlink:href="#DejaVuSans-Bold-6f" transform="translate(310.400391 0)"/>
     <use xlink:href="#DejaVuSans-Bold-6c" transform="translate(379.101562 0)"/>
     <use xlink:href="#DejaVuSans-Bold-20" transform="translate(413.378906 0)"/>
     <use xlink:href="#DejaVuSans-Bold-49" transform="translate(448.193359 0)"/>
     <use xlink:href="#DejaVuSans-Bold-6e" transform="translate(485.400391 0)"/>
     <use xlink:href="#DejaVuSans-Bold-70" transform="translate(556.591797 0)"/>
     <use xlink:href="#DejaVuSans-Bold-75" transform="translate(628.173828 0)"/>
     <use xlink:href="#DejaVuSans-Bold-74" transform="translate(699.365234 0)"/>
     <use xlink:href="#DejaVuSans-Bold-20" transform="translate(747.167969 0)"/>
     <use xlink:href="#DejaVuSans-Bold-2014" transform="translate(781.982422 0)"/>
     <use xlink:href="#DejaVuSans-Bold-20" transform="translate(881.982422 0)"/>
     <use xlink:href="#DejaVuSans-Bold-50" transform="translate(916.796875 0)"/>
     <use xlink:href="#DejaVuSans-Bold-68" transform="translate(990.087891 0)"/>
     <use xlink:href="#DejaVuSans-Bold-69" transform="translate(1061.279297 0)"/>
     <use xlink:href="#DejaVuSans-Bold-5f" transform="translate(1095.556641 0)"/>
     <use xlink:href="#DejaVuSans-Bold-64" transform="translate(1145.556641 0)"/>
     <use xlink:href="#DejaVuSans-Bold-65" transform="translate(1217.138672 0)"/>
     <use xlink:href="#DejaVuSans-Bold-73" transform="translate(1284.960938 0)"/>
     <use xlink:href="#DejaVuSans-Bold-20" transform="translate(1344.482422 0)"/>
     <use xlink:href="#DejaVuSans-Bold-2014" transform="translate(1379.296875 0)"/>
     <use xlink:href="#DejaVuSans-Bold-20" transform="translate(1479.296875 0)"/>
     <use xlink:href="#DejaVuSans-Bold-66" transform="translate(1514.111328 0)"/>
     <use xlink:href="#DejaVuSans-Bold-69" transform="translate(1557.617188 0)"/>
     <use xlink:href="#DejaVuSans-Bold-67" transform="translate(1591.894531 0)"/>
     <use xlink:href="#DejaVuSans-Bold-75" transform="translate(1663.476562 0)"/>
     <use xlink:href="#DejaVuSans-Bold-72" transform="translate(1734.667969 0)"/>
     <use xlink:href="#DejaVuSans-Bold-65" transform="translate(1783.984375 0)"/>
     <use xlink:href="#DejaVuSans-Bold-2d" transform="translate(1851.806641 0)"/>
     <use xlink:href="#DejaVuSans-Bold-38" transform="translate(1893.310547 0)"/>
     <use xlink:href="#DejaVuSans-Bold-5f" transform="translate(1962.890625 0)"/>
     <use xlink:href="#DejaVuSans-Bold-31" transform="translate(2012.890625 0)"/>
    </g>
   </g>
   <g id="legend_1">
    <g id="patch_7">
     <path d="M 897.535938 64.23625 
L 990.2 64.23625 
Q 992.2 64.23625 992.2 62.23625 
L 992.2 33.88 
Q 992.2 31.88 990.2 31.88 
L 897.535938 31.88 
Q 895.535938 31.88 895.535938 33.88 
L 895.535938 62.23625 
Q 895.535938 64.23625 897.535938 64.23625 
z
" style="fill: #ffffff; opacity: 0.8; stroke: #cccccc; stroke-linejoin: miter"/>
    </g>
    <g id="line2d_33">
     <path d="M 899.535938 39.978437 
L 909.535938 39.978437 
L 919.535938 39.978437 
" style="fill: none; stroke: #2ca02c; stroke-width: 1.2; stroke-linecap: square"/>
    </g>
    <g id="text_19">
     <!-- EDMDc MPC -->
     <g transform="translate(927.535938 43.478437) scale(0.1 -0.1)">
      <defs>
       <path id="DejaVuSans-45" d="M 628 4666 
L 3578 4666 
L 3578 4134 
L 1259 4134 
L 1259 2753 
L 3481 2753 
L 3481 2222 
L 1259 2222 
L 1259 531 
L 3634 531 
L 3634 0 
L 628 0 
L 628 4666 
z
" transform="scale(0.015625)"/>
       <path id="DejaVuSans-44" d="M 1259 4147 
L 1259 519 
L 2022 519 
Q 2988 519 3436 956 
Q 3884 1394 3884 2338 
Q 3884 3275 3436 3711 
Q 2988 4147 2022 4147 
L 1259 4147 
z
M 628 4666 
L 1925 4666 
Q 3281 4666 3915 4102 
Q 4550 3538 4550 2338 
Q 4550 1131 3912 565 
Q 3275 0 1925 0 
L 628 0 
L 628 4666 
z
" transform="scale(0.015625)"/>
       <path id="DejaVuSans-4d" d="M 628 4666 
L 1569 4666 
L 2759 1491 
L 3956 4666 
L 4897 4666 
L 4897 0 
L 4281 0 
L 4281 4097 
L 3078 897 
L 2444 897 
L 1241 4097 
L 1241 0 
L 628 0 
L 628 4666 
z
" transform="scale(0.015625)"/>
       <path id="DejaVuSans-63" d="M 3122 3366 
L 3122 2828 
Q 2878 2963 2633 3030 
Q 2388 3097 2138 3097 
Q 1578 3097 1268 2742 
Q 959 2388 959 1747 
Q 959 1106 1268 751 
Q 1578 397 2138 397 
Q 2388 397 2633 464 
Q 2878 531 3122 666 
L 3122 134 
Q 2881 22 2623 -34 
Q 2366 -91 2075 -91 
Q 1284 -91 818 406 
Q 353 903 353 1747 
Q 353 2603 823 3093 
Q 1294 3584 2113 3584 
Q 2378 3584 2631 3529 
Q 2884 3475 3122 3366 
z
" transform="scale(0.015625)"/>
       <path id="DejaVuSans-50" d="M 1259 4147 
L 1259 2394 
L 2053 2394 
Q 2494 2394 2734 2622 
Q 2975 2850 2975 3272 
Q 2975 3691 2734 3919 
Q 2494 4147 2053 4147 
L 1259 4147 
z
M 628 4666 
L 2053 4666 
Q 2838 4666 3239 4311 
Q 3641 3956 3641 3272 
Q 3641 2581 3239 2228 
Q 2838 1875 2053 1875 
L 1259 1875 
L 1259 0 
L 628 0 
L 628 4666 
z
" transform="scale(0.015625)"/>
       <path id="DejaVuSans-43" d="M 4122 4306 
L 4122 3641 
Q 3803 3938 3442 4084 
Q 3081 4231 2675 4231 
Q 1875 4231 1450 3742 
Q 1025 3253 1025 2328 
Q 1025 1406 1450 917 
Q 1875 428 2675 428 
Q 3081 428 3442 575 
Q 3803 722 4122 1019 
L 4122 359 
Q 3791 134 3420 21 
Q 3050 -91 2638 -91 
Q 1578 -91 968 557 
Q 359 1206 359 2328 
Q 359 3453 968 4101 
Q 1578 4750 2638 4750 
Q 3056 4750 3426 4639 
Q 3797 4528 4122 4306 
z
" transform="scale(0.015625)"/>
      </defs>
      <use xlink:href="#DejaVuSans-45"/>
      <use xlink:href="#DejaVuSans-44" transform="translate(63.183594 0)"/>
      <use xlink:href="#DejaVuSans-4d" transform="translate(140.185547 0)"/>
      <use xlink:href="#DejaVuSans-44" transform="translate(226.464844 0)"/>
      <use xlink:href="#DejaVuSans-63" transform="translate(303.466797 0)"/>
      <use xlink:href="#DejaVuSans-20" transform="translate(358.447266 0)"/>
      <use xlink:href="#DejaVuSans-4d" transform="translate(390.234375 0)"/>
      <use xlink:href="#DejaVuSans-50" transform="translate(476.513672 0)"/>
      <use xlink:href="#DejaVuSans-43" transform="translate(536.816406 0)"/>
     </g>
    </g>
    <g id="line2d_34">
     <path d="M 899.535938 54.656563 
L 909.535938 54.656563 
L 919.535938 54.656563 
" style="fill: none; stroke-dasharray: 3.7,1.6; stroke-dashoffset: 0; stroke: #1f77b4"/>
    </g>
    <g id="text_20">
     <!-- Linear MPC -->
     <g transform="translate(927.535938 58.156563) scale(0.1 -0.1)">
      <defs>
       <path id="DejaVuSans-4c" d="M 628 4666 
L 1259 4666 
L 1259 531 
L 3531 531 
L 3531 0 
L 628 0 
L 628 4666 
z
" transform="scale(0.015625)"/>
       <path id="DejaVuSans-6e" d="M 3513 2113 
L 3513 0 
L 2938 0 
L 2938 2094 
Q 2938 2591 2744 2837 
Q 2550 3084 2163 3084 
Q 1697 3084 1428 2787 
Q 1159 2491 1159 1978 
L 1159 0 
L 581 0 
L 581 3500 
L 1159 3500 
L 1159 2956 
Q 1366 3272 1645 3428 
Q 1925 3584 2291 3584 
Q 2894 3584 3203 3211 
Q 3513 2838 3513 2113 
z
" transform="scale(0.015625)"/>
      </defs>
      <use xlink:href="#DejaVuSans-4c"/>
      <use xlink:href="#DejaVuSans-69" transform="translate(55.712891 0)"/>
      <use xlink:href="#DejaVuSans-6e" transform="translate(83.496094 0)"/>
      <use xlink:href="#DejaVuSans-65" transform="translate(146.875 0)"/>
      <use xlink:href="#DejaVuSans-61" transform="translate(208.398438 0)"/>
      <use xlink:href="#DejaVuSans-72" transform="translate(269.677734 0)"/>
      <use xlink:href="#DejaVuSans-20" transform="translate(310.791016 0)"/>
      <use xlink:href="#DejaVuSans-4d" transform="translate(342.578125 0)"/>
      <use xlink:href="#DejaVuSans-50" transform="translate(428.857422 0)"/>
      <use xlink:href="#DejaVuSans-43" transform="translate(489.160156 0)"/>
     </g>
    </g>
   </g>
  </g>
 </g>
 <defs>
  <clipPath id="p5b43758fe9">
   <rect x="59.69" y="26.88" width="937.51" height="290.44"/>
  </clipPath>
 </defs>
</svg>
