<?xml version="1.0" encoding="utf-8" standalone="no"?>
<!DOCTYPE svg PUBLIC "-//W3C//DTD SVG 1.1//EN"
  "http://www.w3.org/Graphics/SVG/1.1/DTD/svg11.dtd">
<svg xmlns:xlink="http://www.w3.org/1999/xlink" width="1008pt" height="360pt" viewBox="0 0 1008 360" xmlns="http://www.w3.org/2000/svg" version="1.1">
 <metadata>
  <rdf:RDF xmlns:dc="http://purl.org/dc/elements/1.1/" xmlns:cc="http://creativecommons.org/ns#" xmlns:rdf="http://www.w3.org/1999/02/22-rdf-syntax-ns#">
   <cc:Work>
    <dc:type rdf:resource="http://purl.org/dc/dcmitype/StillImage"/>
    <dc:date>2026-03-30T18:27:47.083131</dc:date>
    <dc:format>image/svg+xml</dc:format>
    <dc:creator>
     <cc:Agent>
      <dc:title>Matplotlib v3.10.8, https://matplotlib.org/</dc:title>
     </cc:Agent>
    </dc:creator>
   </cc:Work>
  </rdf:RDF>
 </metadata>
 <defs>
  <style type="text/css">*{stroke-linejoin: round; stroke-linecap: butt}</style>
 </defs>
 <g id="figure_1">
  <g id="patch_1">
   <path d="M 0 360 
L 1008 360 
L 1008 0 
L 0 0 
z
" style="fill: #ffffff"/>
  </g>
  <g id="axes_1">
   <g id="patch_2">
    <path d="M 53.66 317.32 
L 997.2 317.32 
L 997.2 41.856 
L 53.66 41.856 
z
" style="fill: #ffffff"/>
   </g>
   <g id="line2d_1">
    <path d="M 96.548182 179.558014 
L 122.30685 156.151656 
L 136.044806 143.955466 
L 148.065517 133.574645 
L 158.368984 124.956894 
L 167.813829 117.328729 
L 177.258674 109.997767 
L 185.844897 103.620652 
L 193.572497 98.136841 
L 201.300097 92.913377 
L 209.027698 87.966963 
L 215.896676 83.815543 
L 222.765654 79.906024 
L 229.634632 76.248286 
L 236.50361 72.851569 
L 243.372588 69.724455 
L 249.382944 67.215619 
L 255.3933 64.92411 
L 261.403655 62.854363 
L 267.414011 61.010382 
L 273.424367 59.395732 
L 279.434723 58.013539 
L 285.445079 56.866476 
L 291.455435 55.956761 
L 297.46579 55.286156 
L 303.476146 54.855956 
L 309.486502 54.666995 
L 315.496858 54.719638 
L 321.507214 55.013782 
L 327.517569 55.54886 
L 333.527925 56.323835 
L 339.538281 57.33721 
L 345.548637 58.587022 
L 351.558993 60.070855 
L 357.569348 61.785838 
L 363.579704 63.728653 
L 369.59006 65.895542 
L 375.600416 68.282314 
L 381.610772 70.88435 
L 388.47975 74.115219 
L 395.348728 77.612499 
L 402.217706 81.367354 
L 409.086684 85.370296 
L 415.955662 89.611212 
L 423.683262 94.653333 
L 431.410863 99.966939 
L 439.138463 105.53504 
L 447.724686 111.998622 
L 456.310908 118.728882 
L 465.755753 126.408448 
L 476.05922 135.074357 
L 487.221309 144.746142 
L 500.959266 156.961655 
L 518.990333 173.321033 
L 553.335223 204.54283 
L 567.07318 216.699764 
L 579.093891 227.033467 
L 589.397358 235.601629 
L 598.842203 243.177128 
L 607.428426 249.801206 
L 616.014648 256.14801 
L 623.742249 261.602335 
L 631.469849 266.794321 
L 639.197449 271.707364 
L 646.066427 275.82762 
L 652.935405 279.704642 
L 659.804383 283.328635 
L 666.673362 286.690441 
L 673.54234 289.781568 
L 679.552695 292.258104 
L 685.563051 294.51662 
L 691.573407 296.552747 
L 697.583763 298.362546 
L 703.594119 299.942515 
L 709.604474 301.289598 
L 715.61483 302.401189 
L 721.625186 303.275138 
L 727.635542 303.909754 
L 733.645898 304.30381 
L 739.656254 304.456542 
L 745.666609 304.367657 
L 751.676965 304.037324 
L 757.687321 303.466185 
L 763.697677 302.655343 
L 769.708033 301.606366 
L 775.718388 300.321286 
L 781.728744 298.802586 
L 787.7391 297.053206 
L 793.749456 295.076529 
L 799.759812 292.87638 
L 805.770167 290.457015 
L 811.780523 287.823113 
L 818.649501 284.556797 
L 825.518479 281.025193 
L 832.387457 277.237222 
L 839.256436 273.202455 
L 846.125414 268.931088 
L 853.853014 263.856446 
L 861.580614 258.512258 
L 869.308215 252.915609 
L 877.894437 246.422809 
L 887.339282 238.976899 
L 896.784127 231.247207 
L 907.087594 222.534577 
L 919.108306 212.064693 
L 932.846262 199.796069 
L 952.594574 181.83396 
L 954.311818 180.264378 
L 954.311818 180.264378 
" clip-path="url(#p8150b0677f)" style="fill: none; stroke: #000000; stroke-width: 2.5; stroke-linecap: square"/>
   </g>
   <g id="matplotlib.axis_1">
    <g id="xtick_1">
     <g id="line2d_2">
      <path d="M 96.548182 317.32 
L 96.548182 41.856 
" clip-path="url(#p8150b0677f)" style="fill: none; stroke: #b0b0b0; stroke-opacity: 0.3; stroke-width: 0.8; stroke-linecap: square"/>
     </g>
     <g id="line2d_3">
      <defs>
       <path id="m5d50b1cfe6" d="M 0 0 
L 0 3.5 
" style="stroke: #000000; stroke-width: 0.8"/>
      </defs>
      <g>
       <use xlink:href="#m5d50b1cfe6" x="96.548182" y="317.32" style="stroke: #000000; stroke-width: 0.8"/>
      </g>
     </g>
     <g id="text_1">
      <!-- 0 -->
      <g transform="translate(93.366932 331.918437) scale(0.1 -0.1)">
       <defs>
        <path id="DejaVuSans-30" d="M 2034 4250 
Q 1547 4250 1301 3770 
Q 1056 3291 1056 2328 
Q 1056 1369 1301 889 
Q 1547 409 2034 409 
Q 2525 409 2770 889 
Q 3016 1369 3016 2328 
Q 3016 3291 2770 3770 
Q 2525 4250 2034 4250 
z
M 2034 4750 
Q 2819 4750 3233 4129 
Q 3647 3509 3647 2328 
Q 3647 1150 3233 529 
Q 2819 -91 2034 -91 
Q 1250 -91 836 529 
Q 422 1150 422 2328 
Q 422 3509 836 4129 
Q 1250 4750 2034 4750 
z
" transform="scale(0.015625)"/>
       </defs>
       <use xlink:href="#DejaVuSans-30"/>
      </g>
     </g>
    </g>
    <g id="xtick_2">
     <g id="line2d_4">
      <path d="M 268.272634 317.32 
L 268.272634 41.856 
" clip-path="url(#p8150b0677f)" style="fill: none; stroke: #b0b0b0; stroke-opacity: 0.3; stroke-width: 0.8; stroke-linecap: square"/>
     </g>
     <g id="line2d_5">
      <g>
       <use xlink:href="#m5d50b1cfe6" x="268.272634" y="317.32" style="stroke: #000000; stroke-width: 0.8"/>
      </g>
     </g>
     <g id="text_2">
      <!-- 20 -->
      <g transform="translate(261.910134 331.918437) scale(0.1 -0.1)">
       <defs>
        <path id="DejaVuSans-32" d="M 1228 531 
L 3431 531 
L 3431 0 
L 469 0 
L 469 531 
Q 828 903 1448 1529 
Q 2069 2156 2228 2338 
Q 2531 2678 2651 2914 
Q 2772 3150 2772 3378 
Q 2772 3750 2511 3984 
Q 2250 4219 1831 4219 
Q 1534 4219 1204 4116 
Q 875 4013 500 3803 
L 500 4441 
Q 881 4594 1212 4672 
Q 1544 4750 1819 4750 
Q 2544 4750 2975 4387 
Q 3406 4025 3406 3419 
Q 3406 3131 3298 2873 
Q 3191 2616 2906 2266 
Q 2828 2175 2409 1742 
Q 1991 1309 1228 531 
z
" transform="scale(0.015625)"/>
       </defs>
       <use xlink:href="#DejaVuSans-32"/>
       <use xlink:href="#DejaVuSans-30" transform="translate(63.623047 0)"/>
      </g>
     </g>
    </g>
    <g id="xtick_3">
     <g id="line2d_6">
      <path d="M 439.997085 317.32 
L 439.997085 41.856 
" clip-path="url(#p8150b0677f)" style="fill: none; stroke: #b0b0b0; stroke-opacity: 0.3; stroke-width: 0.8; stroke-linecap: square"/>
     </g>
     <g id="line2d_7">
      <g>
       <use xlink:href="#m5d50b1cfe6" x="439.997085" y="317.32" style="stroke: #000000; stroke-width: 0.8"/>
      </g>
     </g>
     <g id="text_3">
      <!-- 40 -->
      <g transform="translate(433.634585 331.918437) scale(0.1 -0.1)">
       <defs>
        <path id="DejaVuSans-34" d="M 2419 4116 
L 825 1625 
L 2419 1625 
L 2419 4116 
z
M 2253 4666 
L 3047 4666 
L 3047 1625 
L 3713 1625 
L 3713 1100 
L 3047 1100 
L 3047 0 
L 2419 0 
L 2419 1100 
L 313 1100 
L 313 1709 
L 2253 4666 
z
" transform="scale(0.015625)"/>
       </defs>
       <use xlink:href="#DejaVuSans-34"/>
       <use xlink:href="#DejaVuSans-30" transform="translate(63.623047 0)"/>
      </g>
     </g>
    </g>
    <g id="xtick_4">
     <g id="line2d_8">
      <path d="M 611.721537 317.32 
L 611.721537 41.856 
" clip-path="url(#p8150b0677f)" style="fill: none; stroke: #b0b0b0; stroke-opacity: 0.3; stroke-width: 0.8; stroke-linecap: square"/>
     </g>
     <g id="line2d_9">
      <g>
       <use xlink:href="#m5d50b1cfe6" x="611.721537" y="317.32" style="stroke: #000000; stroke-width: 0.8"/>
      </g>
     </g>
     <g id="text_4">
      <!-- 60 -->
      <g transform="translate(605.359037 331.918437) scale(0.1 -0.1)">
       <defs>
        <path id="DejaVuSans-36" d="M 2113 2584 
Q 1688 2584 1439 2293 
Q 1191 2003 1191 1497 
Q 1191 994 1439 701 
Q 1688 409 2113 409 
Q 2538 409 2786 701 
Q 3034 994 3034 1497 
Q 3034 2003 2786 2293 
Q 2538 2584 2113 2584 
z
M 3366 4563 
L 3366 3988 
Q 3128 4100 2886 4159 
Q 2644 4219 2406 4219 
Q 1781 4219 1451 3797 
Q 1122 3375 1075 2522 
Q 1259 2794 1537 2939 
Q 1816 3084 2150 3084 
Q 2853 3084 3261 2657 
Q 3669 2231 3669 1497 
Q 3669 778 3244 343 
Q 2819 -91 2113 -91 
Q 1303 -91 875 529 
Q 447 1150 447 2328 
Q 447 3434 972 4092 
Q 1497 4750 2381 4750 
Q 2619 4750 2861 4703 
Q 3103 4656 3366 4563 
z
" transform="scale(0.015625)"/>
       </defs>
       <use xlink:href="#DejaVuSans-36"/>
       <use xlink:href="#DejaVuSans-30" transform="translate(63.623047 0)"/>
      </g>
     </g>
    </g>
    <g id="xtick_5">
     <g id="line2d_10">
      <path d="M 783.445989 317.32 
L 783.445989 41.856 
" clip-path="url(#p8150b0677f)" style="fill: none; stroke: #b0b0b0; stroke-opacity: 0.3; stroke-width: 0.8; stroke-linecap: square"/>
     </g>
     <g id="line2d_11">
      <g>
       <use xlink:href="#m5d50b1cfe6" x="783.445989" y="317.32" style="stroke: #000000; stroke-width: 0.8"/>
      </g>
     </g>
     <g id="text_5">
      <!-- 80 -->
      <g transform="translate(777.083489 331.918437) scale(0.1 -0.1)">
       <defs>
        <path id="DejaVuSans-38" d="M 2034 2216 
Q 1584 2216 1326 1975 
Q 1069 1734 1069 1313 
Q 1069 891 1326 650 
Q 1584 409 2034 409 
Q 2484 409 2743 651 
Q 3003 894 3003 1313 
Q 3003 1734 2745 1975 
Q 2488 2216 2034 2216 
z
M 1403 2484 
Q 997 2584 770 2862 
Q 544 3141 544 3541 
Q 544 4100 942 4425 
Q 1341 4750 2034 4750 
Q 2731 4750 3128 4425 
Q 3525 4100 3525 3541 
Q 3525 3141 3298 2862 
Q 3072 2584 2669 2484 
Q 3125 2378 3379 2068 
Q 3634 1759 3634 1313 
Q 3634 634 3220 271 
Q 2806 -91 2034 -91 
Q 1263 -91 848 271 
Q 434 634 434 1313 
Q 434 1759 690 2068 
Q 947 2378 1403 2484 
z
M 1172 3481 
Q 1172 3119 1398 2916 
Q 1625 2713 2034 2713 
Q 2441 2713 2670 2916 
Q 2900 3119 2900 3481 
Q 2900 3844 2670 4047 
Q 2441 4250 2034 4250 
Q 1625 4250 1398 4047 
Q 1172 3844 1172 3481 
z
" transform="scale(0.015625)"/>
       </defs>
       <use xlink:href="#DejaVuSans-38"/>
       <use xlink:href="#DejaVuSans-30" transform="translate(63.623047 0)"/>
      </g>
     </g>
    </g>
    <g id="xtick_6">
     <g id="line2d_12">
      <path d="M 955.17044 317.32 
L 955.17044 41.856 
" clip-path="url(#p8150b0677f)" style="fill: none; stroke: #b0b0b0; stroke-opacity: 0.3; stroke-width: 0.8; stroke-linecap: square"/>
     </g>
     <g id="line2d_13">
      <g>
       <use xlink:href="#m5d50b1cfe6" x="955.17044" y="317.32" style="stroke: #000000; stroke-width: 0.8"/>
      </g>
     </g>
     <g id="text_6">
      <!-- 100 -->
      <g transform="translate(945.62669 331.918437) scale(0.1 -0.1)">
       <defs>
        <path id="DejaVuSans-31" d="M 794 531 
L 1825 531 
L 1825 4091 
L 703 3866 
L 703 4441 
L 1819 4666 
L 2450 4666 
L 2450 531 
L 3481 531 
L 3481 0 
L 794 0 
L 794 531 
z
" transform="scale(0.015625)"/>
       </defs>
       <use xlink:href="#DejaVuSans-31"/>
       <use xlink:href="#DejaVuSans-30" transform="translate(63.623047 0)"/>
       <use xlink:href="#DejaVuSans-30" transform="translate(127.246094 0)"/>
      </g>
     </g>
    </g>
    <g id="text_7">
     <!-- Time [s] -->
     <g transform="translate(503.068203 346.356406) scale(0.11 -0.11)">
      <defs>
       <path id="DejaVuSans-54" d="M -19 4666 
L 3928 4666 
L 3928 4134 
L 2272 4134 
L 2272 0 
L 1638 0 
L 1638 4134 
L -19 4134 
L -19 4666 
z
" transform="scale(0.015625)"/>
       <path id="DejaVuSans-69" d="M 603 3500 
L 1178 3500 
L 1178 0 
L 603 0 
L 603 3500 
z
M 603 4863 
L 1178 4863 
L 1178 4134 
L 603 4134 
L 603 4863 
z
" transform="scale(0.015625)"/>
       <path id="DejaVuSans-6d" d="M 3328 2828 
Q 3544 3216 3844 3400 
Q 4144 3584 4550 3584 
Q 5097 3584 5394 3201 
Q 5691 2819 5691 2113 
L 5691 0 
L 5113 0 
L 5113 2094 
Q 5113 2597 4934 2840 
Q 4756 3084 4391 3084 
Q 3944 3084 3684 2787 
Q 3425 2491 3425 1978 
L 3425 0 
L 2847 0 
L 2847 2094 
Q 2847 2600 2669 2842 
Q 2491 3084 2119 3084 
Q 1678 3084 1418 2786 
Q 1159 2488 1159 1978 
L 1159 0 
L 581 0 
L 581 3500 
L 1159 3500 
L 1159 2956 
Q 1356 3278 1631 3431 
Q 1906 3584 2284 3584 
Q 2666 3584 2933 3390 
Q 3200 3197 3328 2828 
z
" transform="scale(0.015625)"/>
       <path id="DejaVuSans-65" d="M 3597 1894 
L 3597 1613 
L 953 1613 
Q 991 1019 1311 708 
Q 1631 397 2203 397 
Q 2534 397 2845 478 
Q 3156 559 3463 722 
L 3463 178 
Q 3153 47 2828 -22 
Q 2503 -91 2169 -91 
Q 1331 -91 842 396 
Q 353 884 353 1716 
Q 353 2575 817 3079 
Q 1281 3584 2069 3584 
Q 2775 3584 3186 3129 
Q 3597 2675 3597 1894 
z
M 3022 2063 
Q 3016 2534 2758 2815 
Q 2500 3097 2075 3097 
Q 1594 3097 1305 2825 
Q 1016 2553 972 2059 
L 3022 2063 
z
" transform="scale(0.015625)"/>
       <path id="DejaVuSans-20" transform="scale(0.015625)"/>
       <path id="DejaVuSans-5b" d="M 550 4863 
L 1875 4863 
L 1875 4416 
L 1125 4416 
L 1125 -397 
L 1875 -397 
L 1875 -844 
L 550 -844 
L 550 4863 
z
" transform="scale(0.015625)"/>
       <path id="DejaVuSans-73" d="M 2834 3397 
L 2834 2853 
Q 2591 2978 2328 3040 
Q 2066 3103 1784 3103 
Q 1356 3103 1142 2972 
Q 928 2841 928 2578 
Q 928 2378 1081 2264 
Q 1234 2150 1697 2047 
L 1894 2003 
Q 2506 1872 2764 1633 
Q 3022 1394 3022 966 
Q 3022 478 2636 193 
Q 2250 -91 1575 -91 
Q 1294 -91 989 -36 
Q 684 19 347 128 
L 347 722 
Q 666 556 975 473 
Q 1284 391 1588 391 
Q 1994 391 2212 530 
Q 2431 669 2431 922 
Q 2431 1156 2273 1281 
Q 2116 1406 1581 1522 
L 1381 1569 
Q 847 1681 609 1914 
Q 372 2147 372 2553 
Q 372 3047 722 3315 
Q 1072 3584 1716 3584 
Q 2034 3584 2315 3537 
Q 2597 3491 2834 3397 
z
" transform="scale(0.015625)"/>
       <path id="DejaVuSans-5d" d="M 1947 4863 
L 1947 -844 
L 622 -844 
L 622 -397 
L 1369 -397 
L 1369 4416 
L 622 4416 
L 622 4863 
L 1947 4863 
z
" transform="scale(0.015625)"/>
      </defs>
      <use xlink:href="#DejaVuSans-54"/>
      <use xlink:href="#DejaVuSans-69" transform="translate(57.958984 0)"/>
      <use xlink:href="#DejaVuSans-6d" transform="translate(85.742188 0)"/>
      <use xlink:href="#DejaVuSans-65" transform="translate(183.154297 0)"/>
      <use xlink:href="#DejaVuSans-20" transform="translate(244.677734 0)"/>
      <use xlink:href="#DejaVuSans-5b" transform="translate(276.464844 0)"/>
      <use xlink:href="#DejaVuSans-73" transform="translate(315.478516 0)"/>
      <use xlink:href="#DejaVuSans-5d" transform="translate(367.578125 0)"/>
     </g>
    </g>
   </g>
   <g id="matplotlib.axis_2">
    <g id="ytick_1">
     <g id="line2d_14">
      <path d="M 53.66 314.721405 
L 997.2 314.721405 
" clip-path="url(#p8150b0677f)" style="fill: none; stroke: #b0b0b0; stroke-opacity: 0.3; stroke-width: 0.8; stroke-linecap: square"/>
     </g>
     <g id="line2d_15">
      <defs>
       <path id="mc100d16659" d="M 0 0 
L -3.5 0 
" style="stroke: #000000; stroke-width: 0.8"/>
      </defs>
      <g>
       <use xlink:href="#mc100d16659" x="53.66" y="314.721405" style="stroke: #000000; stroke-width: 0.8"/>
      </g>
     </g>
     <g id="text_8">
      <!-- −30 -->
      <g transform="translate(25.555312 318.520624) scale(0.1 -0.1)">
       <defs>
        <path id="DejaVuSans-2212" d="M 678 2272 
L 4684 2272 
L 4684 1741 
L 678 1741 
L 678 2272 
z
" transform="scale(0.015625)"/>
        <path id="DejaVuSans-33" d="M 2597 2516 
Q 3050 2419 3304 2112 
Q 3559 1806 3559 1356 
Q 3559 666 3084 287 
Q 2609 -91 1734 -91 
Q 1441 -91 1130 -33 
Q 819 25 488 141 
L 488 750 
Q 750 597 1062 519 
Q 1375 441 1716 441 
Q 2309 441 2620 675 
Q 2931 909 2931 1356 
Q 2931 1769 2642 2001 
Q 2353 2234 1838 2234 
L 1294 2234 
L 1294 2753 
L 1863 2753 
Q 2328 2753 2575 2939 
Q 2822 3125 2822 3475 
Q 2822 3834 2567 4026 
Q 2313 4219 1838 4219 
Q 1578 4219 1281 4162 
Q 984 4106 628 3988 
L 628 4550 
Q 988 4650 1302 4700 
Q 1616 4750 1894 4750 
Q 2613 4750 3031 4423 
Q 3450 4097 3450 3541 
Q 3450 3153 3228 2886 
Q 3006 2619 2597 2516 
z
" transform="scale(0.015625)"/>
       </defs>
       <use xlink:href="#DejaVuSans-2212"/>
       <use xlink:href="#DejaVuSans-33" transform="translate(83.789062 0)"/>
       <use xlink:href="#DejaVuSans-30" transform="translate(147.412109 0)"/>
      </g>
     </g>
    </g>
    <g id="ytick_2">
     <g id="line2d_16">
      <path d="M 53.66 269.666942 
L 997.2 269.666942 
" clip-path="url(#p8150b0677f)" style="fill: none; stroke: #b0b0b0; stroke-opacity: 0.3; stroke-width: 0.8; stroke-linecap: square"/>
     </g>
     <g id="line2d_17">
      <g>
       <use xlink:href="#mc100d16659" x="53.66" y="269.666942" style="stroke: #000000; stroke-width: 0.8"/>
      </g>
     </g>
     <g id="text_9">
      <!-- −20 -->
      <g transform="translate(25.555312 273.46616) scale(0.1 -0.1)">
       <use xlink:href="#DejaVuSans-2212"/>
       <use xlink:href="#DejaVuSans-32" transform="translate(83.789062 0)"/>
       <use xlink:href="#DejaVuSans-30" transform="translate(147.412109 0)"/>
      </g>
     </g>
    </g>
    <g id="ytick_3">
     <g id="line2d_18">
      <path d="M 53.66 224.612478 
L 997.2 224.612478 
" clip-path="url(#p8150b0677f)" style="fill: none; stroke: #b0b0b0; stroke-opacity: 0.3; stroke-width: 0.8; stroke-linecap: square"/>
     </g>
     <g id="line2d_19">
      <g>
       <use xlink:href="#mc100d16659" x="53.66" y="224.612478" style="stroke: #000000; stroke-width: 0.8"/>
      </g>
     </g>
     <g id="text_10">
      <!-- −10 -->
      <g transform="translate(25.555312 228.411697) scale(0.1 -0.1)">
       <use xlink:href="#DejaVuSans-2212"/>
       <use xlink:href="#DejaVuSans-31" transform="translate(83.789062 0)"/>
       <use xlink:href="#DejaVuSans-30" transform="translate(147.412109 0)"/>
      </g>
     </g>
    </g>
    <g id="ytick_4">
     <g id="line2d_20">
      <path d="M 53.66 179.558014 
L 997.2 179.558014 
" clip-path="url(#p8150b0677f)" style="fill: none; stroke: #b0b0b0; stroke-opacity: 0.3; stroke-width: 0.8; stroke-linecap: square"/>
     </g>
     <g id="line2d_21">
      <g>
       <use xlink:href="#mc100d16659" x="53.66" y="179.558014" style="stroke: #000000; stroke-width: 0.8"/>
      </g>
     </g>
     <g id="text_11">
      <!-- 0 -->
      <g transform="translate(40.2975 183.357233) scale(0.1 -0.1)">
       <use xlink:href="#DejaVuSans-30"/>
      </g>
     </g>
    </g>
    <g id="ytick_5">
     <g id="line2d_22">
      <path d="M 53.66 134.503551 
L 997.2 134.503551 
" clip-path="url(#p8150b0677f)" style="fill: none; stroke: #b0b0b0; stroke-opacity: 0.3; stroke-width: 0.8; stroke-linecap: square"/>
     </g>
     <g id="line2d_23">
      <g>
       <use xlink:href="#mc100d16659" x="53.66" y="134.503551" style="stroke: #000000; stroke-width: 0.8"/>
      </g>
     </g>
     <g id="text_12">
      <!-- 10 -->
      <g transform="translate(33.935 138.30277) scale(0.1 -0.1)">
       <use xlink:href="#DejaVuSans-31"/>
       <use xlink:href="#DejaVuSans-30" transform="translate(63.623047 0)"/>
      </g>
     </g>
    </g>
    <g id="ytick_6">
     <g id="line2d_24">
      <path d="M 53.66 89.449087 
L 997.2 89.449087 
" clip-path="url(#p8150b0677f)" style="fill: none; stroke: #b0b0b0; stroke-opacity: 0.3; stroke-width: 0.8; stroke-linecap: square"/>
     </g>
     <g id="line2d_25">
      <g>
       <use xlink:href="#mc100d16659" x="53.66" y="89.449087" style="stroke: #000000; stroke-width: 0.8"/>
      </g>
     </g>
     <g id="text_13">
      <!-- 20 -->
      <g transform="translate(33.935 93.248306) scale(0.1 -0.1)">
       <use xlink:href="#DejaVuSans-32"/>
       <use xlink:href="#DejaVuSans-30" transform="translate(63.623047 0)"/>
      </g>
     </g>
    </g>
    <g id="ytick_7">
     <g id="line2d_26">
      <path d="M 53.66 44.394624 
L 997.2 44.394624 
" clip-path="url(#p8150b0677f)" style="fill: none; stroke: #b0b0b0; stroke-opacity: 0.3; stroke-width: 0.8; stroke-linecap: square"/>
     </g>
     <g id="line2d_27">
      <g>
       <use xlink:href="#mc100d16659" x="53.66" y="44.394624" style="stroke: #000000; stroke-width: 0.8"/>
      </g>
     </g>
     <g id="text_14">
      <!-- 30 -->
      <g transform="translate(33.935 48.193842) scale(0.1 -0.1)">
       <use xlink:href="#DejaVuSans-33"/>
       <use xlink:href="#DejaVuSans-30" transform="translate(63.623047 0)"/>
      </g>
     </g>
    </g>
    <g id="text_15">
     <!-- x [m] -->
     <g transform="translate(19.267656 194.240344) rotate(-90) scale(0.11 -0.11)">
      <defs>
       <path id="DejaVuSans-78" d="M 3513 3500 
L 2247 1797 
L 3578 0 
L 2900 0 
L 1881 1375 
L 863 0 
L 184 0 
L 1544 1831 
L 300 3500 
L 978 3500 
L 1906 2253 
L 2834 3500 
L 3513 3500 
z
" transform="scale(0.015625)"/>
      </defs>
      <use xlink:href="#DejaVuSans-78"/>
      <use xlink:href="#DejaVuSans-20" transform="translate(59.179688 0)"/>
      <use xlink:href="#DejaVuSans-5b" transform="translate(90.966797 0)"/>
      <use xlink:href="#DejaVuSans-6d" transform="translate(129.980469 0)"/>
      <use xlink:href="#DejaVuSans-5d" transform="translate(227.392578 0)"/>
     </g>
    </g>
   </g>
   <g id="line2d_28">
    <path d="M 96.548182 179.558014 
L 98.265426 179.508062 
L 99.124049 179.354094 
L 99.982671 179.0467 
L 100.841293 178.555319 
L 101.699915 177.85926 
L 103.41716 175.900525 
L 105.134404 173.8324 
L 109.427516 169.232164 
L 115.437872 163.226098 
L 124.024094 155.020361 
L 133.468939 146.305383 
L 143.772406 137.101672 
L 152.358629 129.752178 
L 162.662096 121.247604 
L 172.106941 113.723268 
L 180.693163 107.189529 
L 189.279386 100.925579 
L 197.865608 94.974312 
L 205.593209 89.907924 
L 213.320809 85.140698 
L 220.189787 81.160387 
L 227.058765 77.468781 
L 234.786365 73.58582 
L 241.655344 70.38295 
L 247.665699 67.823135 
L 254.534677 65.159829 
L 260.545033 63.047059 
L 266.555389 61.160241 
L 272.565745 59.501541 
L 279.434723 57.871776 
L 285.445079 56.685091 
L 291.455435 55.75634 
L 297.46579 55.062861 
L 303.476146 54.601513 
L 309.486502 54.389291 
L 315.496858 54.430166 
L 321.507214 54.710583 
L 327.517569 55.238949 
L 332.669303 55.899129 
L 338.679659 56.900011 
L 344.690015 58.099801 
L 350.70037 59.54176 
L 356.710726 61.235633 
L 363.579704 63.450216 
L 369.59006 65.62421 
L 376.459038 68.374028 
L 383.328016 71.39204 
L 389.338372 74.26323 
L 395.348728 77.361066 
L 403.076328 81.617533 
L 409.945306 85.655283 
L 416.814284 89.96201 
L 424.541885 95.053319 
L 432.269485 100.436042 
L 441.71433 107.277989 
L 450.300552 113.79498 
L 459.745397 121.285034 
L 468.33162 128.380543 
L 480.352331 138.66326 
L 493.231665 149.94689 
L 506.110999 161.535411 
L 555.91109 206.935256 
L 567.07318 216.722744 
L 580.811136 228.469415 
L 591.114603 236.979418 
L 600.559448 244.521598 
L 610.004292 251.791989 
L 617.731893 257.473107 
L 625.459493 262.895401 
L 633.187093 268.039012 
L 640.914694 272.871233 
L 647.783672 276.926054 
L 654.65265 280.758898 
L 661.521628 284.3481 
L 668.390606 287.644976 
L 675.259584 290.672685 
L 681.26994 293.102071 
L 687.280296 295.302935 
L 694.149274 297.538216 
L 700.15963 299.274994 
L 706.169985 300.772388 
L 712.180341 302.035703 
L 718.190697 303.072137 
L 724.201053 303.861643 
L 730.211409 304.390443 
L 736.221764 304.67672 
L 742.23212 304.733175 
L 748.242476 304.562631 
L 754.252832 304.139599 
L 760.263188 303.458572 
L 766.273544 302.547112 
L 772.283899 301.39794 
L 778.294255 300.011772 
L 784.304611 298.374712 
L 790.314967 296.514657 
L 796.325323 294.423637 
L 802.335678 292.1233 
L 808.346034 289.605209 
L 814.35639 286.856507 
L 821.225368 283.478638 
L 827.235724 280.284174 
L 834.963324 275.90547 
L 841.832302 271.759739 
L 849.559903 266.826115 
L 857.287503 261.639053 
L 865.015103 256.176609 
L 873.601326 249.822476 
L 881.328926 243.816239 
L 890.773771 236.181459 
L 902.794483 226.151813 
L 915.673817 215.110321 
L 927.694528 204.503701 
L 943.149729 190.548767 
L 954.311818 180.343583 
L 954.311818 180.343583 
" clip-path="url(#p8150b0677f)" style="fill: none; stroke: #888888; stroke-opacity: 0.6; stroke-width: 1.2; stroke-linecap: square"/>
   </g>
   <g id="patch_3">
    <path d="M 53.66 317.32 
L 53.66 41.856 
" style="fill: none; stroke: #000000; stroke-width: 0.8; stroke-linejoin: miter; stroke-linecap: square"/>
   </g>
   <g id="patch_4">
    <path d="M 997.2 317.32 
L 997.2 41.856 
" style="fill: none; stroke: #000000; stroke-width: 0.8; stroke-linejoin: miter; stroke-linecap: square"/>
   </g>
   <g id="patch_5">
    <path d="M 53.66 317.32 
L 997.2 317.32 
" style="fill: none; stroke: #000000; stroke-width: 0.8; stroke-linejoin: miter; stroke-linecap: square"/>
   </g>
   <g id="patch_6">
    <path d="M 53.66 41.856 
L 997.2 41.856 
" style="fill: none; stroke: #000000; stroke-width: 0.8; stroke-linejoin: miter; stroke-linecap: square"/>
   </g>
   <g id="line2d_29">
    <path d="M 96.548182 179.558014 
L 98.265426 179.497242 
L 99.124049 179.326411 
L 99.982671 178.995426 
L 100.841293 178.474418 
L 101.699915 177.744761 
L 102.558538 176.794749 
L 104.275782 174.285615 
L 105.993027 171.608751 
L 106.851649 170.466908 
L 108.568893 168.718131 
L 111.14476 166.364707 
L 117.155116 160.730939 
L 121.448227 156.884421 
L 125.741339 152.994788 
L 130.03445 149.130031 
L 135.186183 144.633418 
L 139.479295 140.793799 
L 160.944851 122.755336 
L 164.37934 119.973152 
L 167.813829 117.151676 
L 174.682807 111.808708 
L 178.117296 109.213805 
L 182.410408 106.025834 
L 185.844897 103.424084 
L 199.582853 93.960363 
L 205.593209 89.927787 
L 211.603564 86.225978 
L 215.038054 84.10486 
L 227.917387 77.020858 
L 233.069121 74.290489 
L 236.50361 72.647092 
L 241.655344 70.320079 
L 245.948455 68.357778 
L 250.241566 66.752557 
L 254.534677 65.042222 
L 257.110544 64.077487 
L 268.272634 60.542558 
L 273.424367 59.213521 
L 276.858856 58.30418 
L 280.293345 57.648826 
L 284.586456 56.815919 
L 288.020945 56.16085 
L 291.455435 55.757722 
L 295.748546 55.282347 
L 299.183035 54.867825 
L 303.476146 54.676602 
L 311.203746 54.407663 
L 318.931347 54.59404 
L 321.507214 54.718697 
L 331.810681 55.759471 
L 335.24517 56.358515 
L 339.538281 57.102337 
L 342.97277 57.707172 
L 347.265881 58.775772 
L 353.276237 60.245326 
L 356.710726 61.206767 
L 362.721082 63.252547 
L 372.165927 66.578216 
L 384.186638 71.773472 
L 396.20735 77.823659 
L 403.93495 82.061 
L 408.228062 84.55825 
L 415.09704 88.925869 
L 422.82464 93.828608 
L 437.421218 104.109306 
L 442.572952 107.927295 
L 446.866063 111.107543 
L 464.897131 125.515761 
L 488.079932 145.389864 
L 501.817888 157.642795 
L 523.283444 177.222877 
L 533.586911 186.622642 
L 555.91109 206.862776 
L 564.497313 214.471506 
L 579.093891 227.137481 
L 584.245625 231.406327 
L 589.397358 235.74863 
L 610.862915 252.544593 
L 622.883626 261.20078 
L 628.03536 264.589063 
L 639.197449 271.913909 
L 652.076783 279.44683 
L 664.956117 286.07847 
L 679.552695 292.495471 
L 690.714785 296.550745 
L 700.15963 299.337948 
L 703.594119 300.215926 
L 717.332075 302.988985 
L 727.635542 304.223165 
L 731.070031 304.398795 
L 736.221764 304.609008 
L 740.514876 304.798909 
L 743.949365 304.702782 
L 749.959721 304.406982 
L 753.39421 304.212609 
L 765.414921 302.734674 
L 768.84941 302.048727 
L 774.001144 300.973893 
L 777.435633 300.225321 
L 788.597722 297.118282 
L 792.890834 295.580286 
L 798.042567 293.82058 
L 800.618434 292.841088 
L 812.639146 287.626083 
L 821.225368 283.473195 
L 825.518479 281.254697 
L 828.952968 279.42744 
L 841.832302 271.836994 
L 846.984036 268.534319 
L 851.277147 265.833059 
L 864.156481 256.866146 
L 874.459948 249.195768 
L 877.894437 246.592506 
L 883.046171 242.509365 
L 886.48066 239.823667 
L 893.349638 234.218661 
L 896.784127 231.353636 
L 901.077238 227.715991 
L 904.511727 224.865588 
L 912.239328 218.200047 
L 916.532439 214.366397 
L 922.542795 209.055131 
L 926.835906 205.27898 
L 934.563506 198.23846 
L 939.71524 193.626377 
L 947.44284 186.492148 
L 953.453196 181.208972 
L 954.311818 180.572806 
L 954.311818 180.572806 
" clip-path="url(#p8150b0677f)" style="fill: none; stroke: #2ca02c; stroke-width: 1.5; stroke-linecap: square"/>
   </g>
   <g id="line2d_30">
    <path d="M 96.548182 179.558014 
L 98.265426 179.497251 
L 99.124049 179.327144 
L 99.982671 178.997002 
L 100.841293 178.476408 
L 101.699915 177.745247 
L 102.558538 176.788596 
L 104.275782 174.318328 
L 105.993027 171.792726 
L 106.851649 170.734435 
L 108.568893 169.078847 
L 112.003382 165.88786 
L 118.013738 160.312272 
L 129.175828 150.307813 
L 142.055162 139.03652 
L 154.934495 128.05556 
L 164.37934 120.392499 
L 174.682807 112.309502 
L 184.986274 104.511628 
L 190.99663 100.186584 
L 199.582853 94.296622 
L 207.310453 89.258002 
L 214.179431 85.065425 
L 221.907032 80.580319 
L 227.917387 77.342031 
L 234.786365 73.897112 
L 240.796721 71.061311 
L 247.665699 68.115023 
L 253.676055 65.737455 
L 260.545033 63.28668 
L 266.555389 61.375464 
L 271.707123 59.937831 
L 277.717478 58.482652 
L 283.727834 57.248528 
L 288.879568 56.386858 
L 294.889924 55.602182 
L 300.900279 55.064526 
L 306.910635 54.760172 
L 312.920991 54.707989 
L 318.072725 54.828887 
L 324.08308 55.210422 
L 330.093436 55.815109 
L 335.24517 56.543259 
L 341.255526 57.614632 
L 347.265881 58.921118 
L 354.134859 60.690894 
L 360.145215 62.474445 
L 366.155571 64.508809 
L 372.165927 66.742182 
L 378.176283 69.196751 
L 384.186638 71.883416 
L 391.914239 75.646358 
L 398.783217 79.242036 
L 405.652195 83.136205 
L 414.238418 88.293551 
L 421.107396 92.693301 
L 428.834996 97.877468 
L 435.703974 102.738235 
L 444.290197 109.126425 
L 452.876419 115.740493 
L 463.179886 123.949624 
L 470.907487 130.398718 
L 488.938554 145.902724 
L 501.817888 157.364784 
L 518.131711 172.187852 
L 552.476601 203.474688 
L 571.366291 220.077953 
L 581.669758 228.826244 
L 595.407714 240.173263 
L 603.993937 246.932693 
L 610.862915 252.126431 
L 619.449137 258.37172 
L 627.176738 263.682809 
L 635.76296 269.335982 
L 642.631938 273.580076 
L 651.218161 278.551255 
L 657.228517 281.826465 
L 663.238873 284.85347 
L 670.107851 288.073545 
L 676.118206 290.708617 
L 682.128562 293.115553 
L 688.138918 295.295357 
L 694.149274 297.248571 
L 701.018252 299.192598 
L 707.028608 300.640575 
L 713.897586 302.046828 
L 719.907942 303.005356 
L 725.918297 303.735068 
L 731.928653 304.214651 
L 737.080387 304.440937 
L 743.090743 304.477571 
L 749.101098 304.266817 
L 754.252832 303.892978 
L 760.263188 303.235311 
L 766.273544 302.338284 
L 772.283899 301.208883 
L 777.435633 300.025243 
L 783.445989 298.418155 
L 790.314967 296.360391 
L 797.183945 293.994413 
L 803.194301 291.685077 
L 810.063279 288.771989 
L 816.932257 285.590654 
L 822.942613 282.570673 
L 829.811591 278.852253 
L 837.539191 274.407813 
L 844.408169 270.240564 
L 852.135769 265.220484 
L 859.86337 259.97255 
L 866.732348 255.014439 
L 876.177193 247.944159 
L 885.622037 240.619824 
L 894.20826 233.606875 
L 909.663461 220.630429 
L 919.966928 211.641578 
L 933.704884 199.353474 
L 954.311818 180.861588 
L 954.311818 180.861588 
" clip-path="url(#p8150b0677f)" style="fill: none; stroke-dasharray: 4.44,1.92; stroke-dashoffset: 0; stroke: #1f77b4; stroke-width: 1.2"/>
   </g>
   <g id="text_16">
    <!-- figure-8_2 — X Position Tracking -->
    <g transform="translate(407.175703 20.937281) scale(0.13 -0.13)">
     <defs>
      <path id="DejaVuSans-Bold-66" d="M 2841 4863 
L 2841 4128 
L 2222 4128 
Q 1984 4128 1890 4042 
Q 1797 3956 1797 3744 
L 1797 3500 
L 2753 3500 
L 2753 2700 
L 1797 2700 
L 1797 0 
L 678 0 
L 678 2700 
L 122 2700 
L 122 3500 
L 678 3500 
L 678 3744 
Q 678 4316 997 4589 
Q 1316 4863 1984 4863 
L 2841 4863 
z
" transform="scale(0.015625)"/>
      <path id="DejaVuSans-Bold-69" d="M 538 3500 
L 1656 3500 
L 1656 0 
L 538 0 
L 538 3500 
z
M 538 4863 
L 1656 4863 
L 1656 3950 
L 538 3950 
L 538 4863 
z
" transform="scale(0.015625)"/>
      <path id="DejaVuSans-Bold-67" d="M 2919 594 
Q 2688 288 2409 144 
Q 2131 0 1766 0 
Q 1125 0 706 504 
Q 288 1009 288 1791 
Q 288 2575 706 3076 
Q 1125 3578 1766 3578 
Q 2131 3578 2409 3434 
Q 2688 3291 2919 2981 
L 2919 3500 
L 4044 3500 
L 4044 353 
Q 4044 -491 3511 -936 
Q 2978 -1381 1966 -1381 
Q 1638 -1381 1331 -1331 
Q 1025 -1281 716 -1178 
L 716 -306 
Q 1009 -475 1290 -558 
Q 1572 -641 1856 -641 
Q 2406 -641 2662 -400 
Q 2919 -159 2919 353 
L 2919 594 
z
M 2181 2772 
Q 1834 2772 1640 2515 
Q 1447 2259 1447 1791 
Q 1447 1309 1634 1061 
Q 1822 813 2181 813 
Q 2531 813 2725 1069 
Q 2919 1325 2919 1791 
Q 2919 2259 2725 2515 
Q 2531 2772 2181 2772 
z
" transform="scale(0.015625)"/>
      <path id="DejaVuSans-Bold-75" d="M 500 1363 
L 500 3500 
L 1625 3500 
L 1625 3150 
Q 1625 2866 1622 2436 
Q 1619 2006 1619 1863 
Q 1619 1441 1641 1255 
Q 1663 1069 1716 984 
Q 1784 875 1895 815 
Q 2006 756 2150 756 
Q 2500 756 2700 1025 
Q 2900 1294 2900 1772 
L 2900 3500 
L 4019 3500 
L 4019 0 
L 2900 0 
L 2900 506 
Q 2647 200 2364 54 
Q 2081 -91 1741 -91 
Q 1134 -91 817 281 
Q 500 653 500 1363 
z
" transform="scale(0.015625)"/>
      <path id="DejaVuSans-Bold-72" d="M 3138 2547 
Q 2991 2616 2845 2648 
Q 2700 2681 2553 2681 
Q 2122 2681 1889 2404 
Q 1656 2128 1656 1613 
L 1656 0 
L 538 0 
L 538 3500 
L 1656 3500 
L 1656 2925 
Q 1872 3269 2151 3426 
Q 2431 3584 2822 3584 
Q 2878 3584 2943 3579 
Q 3009 3575 3134 3559 
L 3138 2547 
z
" transform="scale(0.015625)"/>
      <path id="DejaVuSans-Bold-65" d="M 4031 1759 
L 4031 1441 
L 1416 1441 
Q 1456 1047 1700 850 
Q 1944 653 2381 653 
Q 2734 653 3104 758 
Q 3475 863 3866 1075 
L 3866 213 
Q 3469 63 3072 -14 
Q 2675 -91 2278 -91 
Q 1328 -91 801 392 
Q 275 875 275 1747 
Q 275 2603 792 3093 
Q 1309 3584 2216 3584 
Q 3041 3584 3536 3087 
Q 4031 2591 4031 1759 
z
M 2881 2131 
Q 2881 2450 2695 2645 
Q 2509 2841 2209 2841 
Q 1884 2841 1681 2658 
Q 1478 2475 1428 2131 
L 2881 2131 
z
" transform="scale(0.015625)"/>
      <path id="DejaVuSans-Bold-2d" d="M 347 2297 
L 2309 2297 
L 2309 1388 
L 347 1388 
L 347 2297 
z
" transform="scale(0.015625)"/>
      <path id="DejaVuSans-Bold-38" d="M 2228 2088 
Q 1891 2088 1709 1903 
Q 1528 1719 1528 1375 
Q 1528 1031 1709 848 
Q 1891 666 2228 666 
Q 2563 666 2741 848 
Q 2919 1031 2919 1375 
Q 2919 1722 2741 1905 
Q 2563 2088 2228 2088 
z
M 1350 2484 
Q 925 2613 709 2878 
Q 494 3144 494 3541 
Q 494 4131 934 4440 
Q 1375 4750 2228 4750 
Q 3075 4750 3515 4442 
Q 3956 4134 3956 3541 
Q 3956 3144 3739 2878 
Q 3522 2613 3097 2484 
Q 3572 2353 3814 2058 
Q 4056 1763 4056 1313 
Q 4056 619 3595 264 
Q 3134 -91 2228 -91 
Q 1319 -91 855 264 
Q 391 619 391 1313 
Q 391 1763 633 2058 
Q 875 2353 1350 2484 
z
M 1631 3419 
Q 1631 3141 1786 2991 
Q 1941 2841 2228 2841 
Q 2509 2841 2662 2991 
Q 2816 3141 2816 3419 
Q 2816 3697 2662 3845 
Q 2509 3994 2228 3994 
Q 1941 3994 1786 3844 
Q 1631 3694 1631 3419 
z
" transform="scale(0.015625)"/>
      <path id="DejaVuSans-Bold-5f" d="M 3200 -916 
L 3200 -1509 
L 0 -1509 
L 0 -916 
L 3200 -916 
z
" transform="scale(0.015625)"/>
      <path id="DejaVuSans-Bold-32" d="M 1844 884 
L 3897 884 
L 3897 0 
L 506 0 
L 506 884 
L 2209 2388 
Q 2438 2594 2547 2791 
Q 2656 2988 2656 3200 
Q 2656 3528 2436 3728 
Q 2216 3928 1850 3928 
Q 1569 3928 1234 3808 
Q 900 3688 519 3450 
L 519 4475 
Q 925 4609 1322 4679 
Q 1719 4750 2100 4750 
Q 2938 4750 3402 4381 
Q 3866 4013 3866 3353 
Q 3866 2972 3669 2642 
Q 3472 2313 2841 1759 
L 1844 884 
z
" transform="scale(0.015625)"/>
      <path id="DejaVuSans-Bold-20" transform="scale(0.015625)"/>
      <path id="DejaVuSans-Bold-2014" d="M 344 2156 
L 6056 2156 
L 6056 1350 
L 344 1350 
L 344 2156 
z
" transform="scale(0.015625)"/>
      <path id="DejaVuSans-Bold-58" d="M 3188 2381 
L 4806 0 
L 3553 0 
L 2463 1594 
L 1381 0 
L 122 0 
L 1741 2381 
L 184 4666 
L 1441 4666 
L 2463 3163 
L 3481 4666 
L 4744 4666 
L 3188 2381 
z
" transform="scale(0.015625)"/>
      <path id="DejaVuSans-Bold-50" d="M 588 4666 
L 2584 4666 
Q 3475 4666 3951 4270 
Q 4428 3875 4428 3144 
Q 4428 2409 3951 2014 
Q 3475 1619 2584 1619 
L 1791 1619 
L 1791 0 
L 588 0 
L 588 4666 
z
M 1791 3794 
L 1791 2491 
L 2456 2491 
Q 2806 2491 2997 2661 
Q 3188 2831 3188 3144 
Q 3188 3456 2997 3625 
Q 2806 3794 2456 3794 
L 1791 3794 
z
" transform="scale(0.015625)"/>
      <path id="DejaVuSans-Bold-6f" d="M 2203 2784 
Q 1831 2784 1636 2517 
Q 1441 2250 1441 1747 
Q 1441 1244 1636 976 
Q 1831 709 2203 709 
Q 2569 709 2762 976 
Q 2956 1244 2956 1747 
Q 2956 2250 2762 2517 
Q 2569 2784 2203 2784 
z
M 2203 3584 
Q 3106 3584 3614 3096 
Q 4122 2609 4122 1747 
Q 4122 884 3614 396 
Q 3106 -91 2203 -91 
Q 1297 -91 786 396 
Q 275 884 275 1747 
Q 275 2609 786 3096 
Q 1297 3584 2203 3584 
z
" transform="scale(0.015625)"/>
      <path id="DejaVuSans-Bold-73" d="M 3272 3391 
L 3272 2541 
Q 2913 2691 2578 2766 
Q 2244 2841 1947 2841 
Q 1628 2841 1473 2761 
Q 1319 2681 1319 2516 
Q 1319 2381 1436 2309 
Q 1553 2238 1856 2203 
L 2053 2175 
Q 2913 2066 3209 1816 
Q 3506 1566 3506 1031 
Q 3506 472 3093 190 
Q 2681 -91 1863 -91 
Q 1516 -91 1145 -36 
Q 775 19 384 128 
L 384 978 
Q 719 816 1070 734 
Q 1422 653 1784 653 
Q 2113 653 2278 743 
Q 2444 834 2444 1013 
Q 2444 1163 2330 1236 
Q 2216 1309 1875 1350 
L 1678 1375 
Q 931 1469 631 1722 
Q 331 1975 331 2491 
Q 331 3047 712 3315 
Q 1094 3584 1881 3584 
Q 2191 3584 2531 3537 
Q 2872 3491 3272 3391 
z
" transform="scale(0.015625)"/>
      <path id="DejaVuSans-Bold-74" d="M 1759 4494 
L 1759 3500 
L 2913 3500 
L 2913 2700 
L 1759 2700 
L 1759 1216 
Q 1759 972 1856 886 
Q 1953 800 2241 800 
L 2816 800 
L 2816 0 
L 1856 0 
Q 1194 0 917 276 
Q 641 553 641 1216 
L 641 2700 
L 84 2700 
L 84 3500 
L 641 3500 
L 641 4494 
L 1759 4494 
z
" transform="scale(0.015625)"/>
      <path id="DejaVuSans-Bold-6e" d="M 4056 2131 
L 4056 0 
L 2931 0 
L 2931 347 
L 2931 1631 
Q 2931 2084 2911 2256 
Q 2891 2428 2841 2509 
Q 2775 2619 2662 2680 
Q 2550 2741 2406 2741 
Q 2056 2741 1856 2470 
Q 1656 2200 1656 1722 
L 1656 0 
L 538 0 
L 538 3500 
L 1656 3500 
L 1656 2988 
Q 1909 3294 2193 3439 
Q 2478 3584 2822 3584 
Q 3428 3584 3742 3212 
Q 4056 2841 4056 2131 
z
" transform="scale(0.015625)"/>
      <path id="DejaVuSans-Bold-54" d="M 31 4666 
L 4331 4666 
L 4331 3756 
L 2784 3756 
L 2784 0 
L 1581 0 
L 1581 3756 
L 31 3756 
L 31 4666 
z
" transform="scale(0.015625)"/>
      <path id="DejaVuSans-Bold-61" d="M 2106 1575 
Q 1756 1575 1579 1456 
Q 1403 1338 1403 1106 
Q 1403 894 1545 773 
Q 1688 653 1941 653 
Q 2256 653 2472 879 
Q 2688 1106 2688 1447 
L 2688 1575 
L 2106 1575 
z
M 3816 1997 
L 3816 0 
L 2688 0 
L 2688 519 
Q 2463 200 2181 54 
Q 1900 -91 1497 -91 
Q 953 -91 614 226 
Q 275 544 275 1050 
Q 275 1666 698 1953 
Q 1122 2241 2028 2241 
L 2688 2241 
L 2688 2328 
Q 2688 2594 2478 2717 
Q 2269 2841 1825 2841 
Q 1466 2841 1156 2769 
Q 847 2697 581 2553 
L 581 3406 
Q 941 3494 1303 3539 
Q 1666 3584 2028 3584 
Q 2975 3584 3395 3211 
Q 3816 2838 3816 1997 
z
" transform="scale(0.015625)"/>
      <path id="DejaVuSans-Bold-63" d="M 3366 3391 
L 3366 2478 
Q 3138 2634 2908 2709 
Q 2678 2784 2431 2784 
Q 1963 2784 1702 2511 
Q 1441 2238 1441 1747 
Q 1441 1256 1702 982 
Q 1963 709 2431 709 
Q 2694 709 2930 787 
Q 3166 866 3366 1019 
L 3366 103 
Q 3103 6 2833 -42 
Q 2563 -91 2291 -91 
Q 1344 -91 809 395 
Q 275 881 275 1747 
Q 275 2613 809 3098 
Q 1344 3584 2291 3584 
Q 2566 3584 2833 3536 
Q 3100 3488 3366 3391 
z
" transform="scale(0.015625)"/>
      <path id="DejaVuSans-Bold-6b" d="M 538 4863 
L 1656 4863 
L 1656 2216 
L 2944 3500 
L 4244 3500 
L 2534 1894 
L 4378 0 
L 3022 0 
L 1656 1459 
L 1656 0 
L 538 0 
L 538 4863 
z
" transform="scale(0.015625)"/>
     </defs>
     <use xlink:href="#DejaVuSans-Bold-66"/>
     <use xlink:href="#DejaVuSans-Bold-69" transform="translate(43.505859 0)"/>
     <use xlink:href="#DejaVuSans-Bold-67" transform="translate(77.783203 0)"/>
     <use xlink:href="#DejaVuSans-Bold-75" transform="translate(149.365234 0)"/>
     <use xlink:href="#DejaVuSans-Bold-72" transform="translate(220.556641 0)"/>
     <use xlink:href="#DejaVuSans-Bold-65" transform="translate(269.873047 0)"/>
     <use xlink:href="#DejaVuSans-Bold-2d" transform="translate(337.695312 0)"/>
     <use xlink:href="#DejaVuSans-Bold-38" transform="translate(379.199219 0)"/>
     <use xlink:href="#DejaVuSans-Bold-5f" transform="translate(448.779297 0)"/>
     <use xlink:href="#DejaVuSans-Bold-32" transform="translate(498.779297 0)"/>
     <use xlink:href="#DejaVuSans-Bold-20" transform="translate(568.359375 0)"/>
     <use xlink:href="#DejaVuSans-Bold-2014" transform="translate(603.173828 0)"/>
     <use xlink:href="#DejaVuSans-Bold-20" transform="translate(703.173828 0)"/>
     <use xlink:href="#DejaVuSans-Bold-58" transform="translate(737.988281 0)"/>
     <use xlink:href="#DejaVuSans-Bold-20" transform="translate(815.087891 0)"/>
     <use xlink:href="#DejaVuSans-Bold-50" transform="translate(849.902344 0)"/>
     <use xlink:href="#DejaVuSans-Bold-6f" transform="translate(923.193359 0)"/>
     <use xlink:href="#DejaVuSans-Bold-73" transform="translate(991.894531 0)"/>
     <use xlink:href="#DejaVuSans-Bold-69" transform="translate(1051.416016 0)"/>
     <use xlink:href="#DejaVuSans-Bold-74" transform="translate(1085.693359 0)"/>
     <use xlink:href="#DejaVuSans-Bold-69" transform="translate(1133.496094 0)"/>
     <use xlink:href="#DejaVuSans-Bold-6f" transform="translate(1167.773438 0)"/>
     <use xlink:href="#DejaVuSans-Bold-6e" transform="translate(1236.474609 0)"/>
     <use xlink:href="#DejaVuSans-Bold-20" transform="translate(1307.666016 0)"/>
     <use xlink:href="#DejaVuSans-Bold-54" transform="translate(1342.480469 0)"/>
     <use xlink:href="#DejaVuSans-Bold-72" transform="translate(1399.693359 0)"/>
     <use xlink:href="#DejaVuSans-Bold-61" transform="translate(1449.009766 0)"/>
     <use xlink:href="#DejaVuSans-Bold-63" transform="translate(1516.490234 0)"/>
     <use xlink:href="#DejaVuSans-Bold-6b" transform="translate(1575.767578 0)"/>
     <use xlink:href="#DejaVuSans-Bold-69" transform="translate(1642.271484 0)"/>
     <use xlink:href="#DejaVuSans-Bold-6e" transform="translate(1676.548828 0)"/>
     <use xlink:href="#DejaVuSans-Bold-67" transform="translate(1747.740234 0)"/>
    </g>
    <!-- PID=0.0750m   EDMDc=0.0574m   Linear=0.0614m -->
    <g transform="translate(338.817031 35.856) scale(0.13 -0.13)">
     <defs>
      <path id="DejaVuSans-Bold-49" d="M 588 4666 
L 1791 4666 
L 1791 0 
L 588 0 
L 588 4666 
z
" transform="scale(0.015625)"/>
      <path id="DejaVuSans-Bold-44" d="M 1791 3756 
L 1791 909 
L 2222 909 
Q 2959 909 3348 1275 
Q 3738 1641 3738 2338 
Q 3738 3031 3350 3393 
Q 2963 3756 2222 3756 
L 1791 3756 
z
M 588 4666 
L 1856 4666 
Q 2919 4666 3439 4514 
Q 3959 4363 4331 4000 
Q 4659 3684 4818 3271 
Q 4978 2859 4978 2338 
Q 4978 1809 4818 1395 
Q 4659 981 4331 666 
Q 3956 303 3431 151 
Q 2906 0 1856 0 
L 588 0 
L 588 4666 
z
" transform="scale(0.015625)"/>
      <path id="DejaVuSans-Bold-3d" d="M 678 3084 
L 4684 3084 
L 4684 2350 
L 678 2350 
L 678 3084 
z
M 678 1663 
L 4684 1663 
L 4684 922 
L 678 922 
L 678 1663 
z
" transform="scale(0.015625)"/>
      <path id="DejaVuSans-Bold-30" d="M 2944 2338 
Q 2944 3213 2780 3570 
Q 2616 3928 2228 3928 
Q 1841 3928 1675 3570 
Q 1509 3213 1509 2338 
Q 1509 1453 1675 1090 
Q 1841 728 2228 728 
Q 2613 728 2778 1090 
Q 2944 1453 2944 2338 
z
M 4147 2328 
Q 4147 1169 3647 539 
Q 3147 -91 2228 -91 
Q 1306 -91 806 539 
Q 306 1169 306 2328 
Q 306 3491 806 4120 
Q 1306 4750 2228 4750 
Q 3147 4750 3647 4120 
Q 4147 3491 4147 2328 
z
" transform="scale(0.015625)"/>
      <path id="DejaVuSans-Bold-2e" d="M 653 1209 
L 1778 1209 
L 1778 0 
L 653 0 
L 653 1209 
z
" transform="scale(0.015625)"/>
      <path id="DejaVuSans-Bold-37" d="M 428 4666 
L 3944 4666 
L 3944 3988 
L 2125 0 
L 953 0 
L 2675 3781 
L 428 3781 
L 428 4666 
z
" transform="scale(0.015625)"/>
      <path id="DejaVuSans-Bold-35" d="M 678 4666 
L 3669 4666 
L 3669 3781 
L 1638 3781 
L 1638 3059 
Q 1775 3097 1914 3117 
Q 2053 3138 2203 3138 
Q 3056 3138 3531 2711 
Q 4006 2284 4006 1522 
Q 4006 766 3489 337 
Q 2972 -91 2053 -91 
Q 1656 -91 1267 -14 
Q 878 63 494 219 
L 494 1166 
Q 875 947 1217 837 
Q 1559 728 1863 728 
Q 2300 728 2551 942 
Q 2803 1156 2803 1522 
Q 2803 1891 2551 2103 
Q 2300 2316 1863 2316 
Q 1603 2316 1309 2248 
Q 1016 2181 678 2041 
L 678 4666 
z
" transform="scale(0.015625)"/>
      <path id="DejaVuSans-Bold-6d" d="M 3781 2919 
Q 3994 3244 4286 3414 
Q 4578 3584 4928 3584 
Q 5531 3584 5847 3212 
Q 6163 2841 6163 2131 
L 6163 0 
L 5038 0 
L 5038 1825 
Q 5041 1866 5042 1909 
Q 5044 1953 5044 2034 
Q 5044 2406 4934 2573 
Q 4825 2741 4581 2741 
Q 4263 2741 4089 2478 
Q 3916 2216 3909 1719 
L 3909 0 
L 2784 0 
L 2784 1825 
Q 2784 2406 2684 2573 
Q 2584 2741 2328 2741 
Q 2006 2741 1831 2477 
Q 1656 2213 1656 1722 
L 1656 0 
L 531 0 
L 531 3500 
L 1656 3500 
L 1656 2988 
Q 1863 3284 2130 3434 
Q 2397 3584 2719 3584 
Q 3081 3584 3359 3409 
Q 3638 3234 3781 2919 
z
" transform="scale(0.015625)"/>
      <path id="DejaVuSans-Bold-45" d="M 588 4666 
L 3834 4666 
L 3834 3756 
L 1791 3756 
L 1791 2888 
L 3713 2888 
L 3713 1978 
L 1791 1978 
L 1791 909 
L 3903 909 
L 3903 0 
L 588 0 
L 588 4666 
z
" transform="scale(0.015625)"/>
      <path id="DejaVuSans-Bold-4d" d="M 588 4666 
L 2119 4666 
L 3181 2169 
L 4250 4666 
L 5778 4666 
L 5778 0 
L 4641 0 
L 4641 3413 
L 3566 897 
L 2803 897 
L 1728 3413 
L 1728 0 
L 588 0 
L 588 4666 
z
" transform="scale(0.015625)"/>
      <path id="DejaVuSans-Bold-34" d="M 2356 3675 
L 1038 1722 
L 2356 1722 
L 2356 3675 
z
M 2156 4666 
L 3494 4666 
L 3494 1722 
L 4159 1722 
L 4159 850 
L 3494 850 
L 3494 0 
L 2356 0 
L 2356 850 
L 288 850 
L 288 1881 
L 2156 4666 
z
" transform="scale(0.015625)"/>
      <path id="DejaVuSans-Bold-4c" d="M 588 4666 
L 1791 4666 
L 1791 909 
L 3903 909 
L 3903 0 
L 588 0 
L 588 4666 
z
" transform="scale(0.015625)"/>
      <path id="DejaVuSans-Bold-36" d="M 2316 2303 
Q 2000 2303 1842 2098 
Q 1684 1894 1684 1484 
Q 1684 1075 1842 870 
Q 2000 666 2316 666 
Q 2634 666 2792 870 
Q 2950 1075 2950 1484 
Q 2950 1894 2792 2098 
Q 2634 2303 2316 2303 
z
M 3803 4544 
L 3803 3681 
Q 3506 3822 3243 3889 
Q 2981 3956 2731 3956 
Q 2194 3956 1894 3657 
Q 1594 3359 1544 2772 
Q 1750 2925 1990 3001 
Q 2231 3078 2516 3078 
Q 3231 3078 3670 2659 
Q 4109 2241 4109 1563 
Q 4109 813 3618 361 
Q 3128 -91 2303 -91 
Q 1394 -91 895 523 
Q 397 1138 397 2266 
Q 397 3422 980 4083 
Q 1563 4744 2578 4744 
Q 2900 4744 3203 4694 
Q 3506 4644 3803 4544 
z
" transform="scale(0.015625)"/>
      <path id="DejaVuSans-Bold-31" d="M 750 831 
L 1813 831 
L 1813 3847 
L 722 3622 
L 722 4441 
L 1806 4666 
L 2950 4666 
L 2950 831 
L 4013 831 
L 4013 0 
L 750 0 
L 750 831 
z
" transform="scale(0.015625)"/>
     </defs>
     <use xlink:href="#DejaVuSans-Bold-50"/>
     <use xlink:href="#DejaVuSans-Bold-49" transform="translate(73.291016 0)"/>
     <use xlink:href="#DejaVuSans-Bold-44" transform="translate(110.498047 0)"/>
     <use xlink:href="#DejaVuSans-Bold-3d" transform="translate(193.505859 0)"/>
     <use xlink:href="#DejaVuSans-Bold-30" transform="translate(277.294922 0)"/>
     <use xlink:href="#DejaVuSans-Bold-2e" transform="translate(346.875 0)"/>
     <use xlink:href="#DejaVuSans-Bold-30" transform="translate(384.863281 0)"/>
     <use xlink:href="#DejaVuSans-Bold-37" transform="translate(454.443359 0)"/>
     <use xlink:href="#DejaVuSans-Bold-35" transform="translate(524.023438 0)"/>
     <use xlink:href="#DejaVuSans-Bold-30" transform="translate(593.603516 0)"/>
     <use xlink:href="#DejaVuSans-Bold-6d" transform="translate(663.183594 0)"/>
     <use xlink:href="#DejaVuSans-Bold-20" transform="translate(767.382812 0)"/>
     <use xlink:href="#DejaVuSans-Bold-20" transform="translate(802.197266 0)"/>
     <use xlink:href="#DejaVuSans-Bold-20" transform="translate(837.011719 0)"/>
     <use xlink:href="#DejaVuSans-Bold-45" transform="translate(871.826172 0)"/>
     <use xlink:href="#DejaVuSans-Bold-44" transform="translate(940.136719 0)"/>
     <use xlink:href="#DejaVuSans-Bold-4d" transform="translate(1023.144531 0)"/>
     <use xlink:href="#DejaVuSans-Bold-44" transform="translate(1122.65625 0)"/>
     <use xlink:href="#DejaVuSans-Bold-63" transform="translate(1205.664062 0)"/>
     <use xlink:href="#DejaVuSans-Bold-3d" transform="translate(1264.941406 0)"/>
     <use xlink:href="#DejaVuSans-Bold-30" transform="translate(1348.730469 0)"/>
     <use xlink:href="#DejaVuSans-Bold-2e" transform="translate(1418.310547 0)"/>
     <use xlink:href="#DejaVuSans-Bold-30" transform="translate(1456.298828 0)"/>
     <use xlink:href="#DejaVuSans-Bold-35" transform="translate(1525.878906 0)"/>
     <use xlink:href="#DejaVuSans-Bold-37" transform="translate(1595.458984 0)"/>
     <use xlink:href="#DejaVuSans-Bold-34" transform="translate(1665.039062 0)"/>
     <use xlink:href="#DejaVuSans-Bold-6d" transform="translate(1734.619141 0)"/>
     <use xlink:href="#DejaVuSans-Bold-20" transform="translate(1838.818359 0)"/>
     <use xlink:href="#DejaVuSans-Bold-20" transform="translate(1873.632812 0)"/>
     <use xlink:href="#DejaVuSans-Bold-20" transform="translate(1908.447266 0)"/>
     <use xlink:href="#DejaVuSans-Bold-4c" transform="translate(1943.261719 0)"/>
     <use xlink:href="#DejaVuSans-Bold-69" transform="translate(2006.982422 0)"/>
     <use xlink:href="#DejaVuSans-Bold-6e" transform="translate(2041.259766 0)"/>
     <use xlink:href="#DejaVuSans-Bold-65" transform="translate(2112.451172 0)"/>
     <use xlink:href="#DejaVuSans-Bold-61" transform="translate(2180.273438 0)"/>
     <use xlink:href="#DejaVuSans-Bold-72" transform="translate(2247.753906 0)"/>
     <use xlink:href="#DejaVuSans-Bold-3d" transform="translate(2297.070312 0)"/>
     <use xlink:href="#DejaVuSans-Bold-30" transform="translate(2380.859375 0)"/>
     <use xlink:href="#DejaVuSans-Bold-2e" transform="translate(2450.439453 0)"/>
     <use xlink:href="#DejaVuSans-Bold-30" transform="translate(2488.427734 0)"/>
     <use xlink:href="#DejaVuSans-Bold-36" transform="translate(2558.007812 0)"/>
     <use xlink:href="#DejaVuSans-Bold-31" transform="translate(2627.587891 0)"/>
     <use xlink:href="#DejaVuSans-Bold-34" transform="translate(2697.167969 0)"/>
     <use xlink:href="#DejaVuSans-Bold-6d" transform="translate(2766.748047 0)"/>
    </g>
   </g>
   <g id="legend_1">
    <g id="patch_7">
     <path d="M 897.535938 108.5685 
L 990.2 108.5685 
Q 992.2 108.5685 992.2 106.5685 
L 992.2 48.856 
Q 992.2 46.856 990.2 46.856 
L 897.535938 46.856 
Q 895.535938 46.856 895.535938 48.856 
L 895.535938 106.5685 
Q 895.535938 108.5685 897.535938 108.5685 
z
" style="fill: #ffffff; opacity: 0.8; stroke: #cccccc; stroke-linejoin: miter"/>
    </g>
    <g id="line2d_31">
     <path d="M 899.535938 54.954438 
L 909.535938 54.954438 
L 919.535938 54.954438 
" style="fill: none; stroke: #000000; stroke-width: 2.5; stroke-linecap: square"/>
    </g>
    <g id="text_17">
     <!-- Reference -->
     <g transform="translate(927.535938 58.454438) scale(0.1 -0.1)">
      <defs>
       <path id="DejaVuSans-52" d="M 2841 2188 
Q 3044 2119 3236 1894 
Q 3428 1669 3622 1275 
L 4263 0 
L 3584 0 
L 2988 1197 
Q 2756 1666 2539 1819 
Q 2322 1972 1947 1972 
L 1259 1972 
L 1259 0 
L 628 0 
L 628 4666 
L 2053 4666 
Q 2853 4666 3247 4331 
Q 3641 3997 3641 3322 
Q 3641 2881 3436 2590 
Q 3231 2300 2841 2188 
z
M 1259 4147 
L 1259 2491 
L 2053 2491 
Q 2509 2491 2742 2702 
Q 2975 2913 2975 3322 
Q 2975 3731 2742 3939 
Q 2509 4147 2053 4147 
L 1259 4147 
z
" transform="scale(0.015625)"/>
       <path id="DejaVuSans-66" d="M 2375 4863 
L 2375 4384 
L 1825 4384 
Q 1516 4384 1395 4259 
Q 1275 4134 1275 3809 
L 1275 3500 
L 2222 3500 
L 2222 3053 
L 1275 3053 
L 1275 0 
L 697 0 
L 697 3053 
L 147 3053 
L 147 3500 
L 697 3500 
L 697 3744 
Q 697 4328 969 4595 
Q 1241 4863 1831 4863 
L 2375 4863 
z
" transform="scale(0.015625)"/>
       <path id="DejaVuSans-72" d="M 2631 2963 
Q 2534 3019 2420 3045 
Q 2306 3072 2169 3072 
Q 1681 3072 1420 2755 
Q 1159 2438 1159 1844 
L 1159 0 
L 581 0 
L 581 3500 
L 1159 3500 
L 1159 2956 
Q 1341 3275 1631 3429 
Q 1922 3584 2338 3584 
Q 2397 3584 2469 3576 
Q 2541 3569 2628 3553 
L 2631 2963 
z
" transform="scale(0.015625)"/>
       <path id="DejaVuSans-6e" d="M 3513 2113 
L 3513 0 
L 2938 0 
L 2938 2094 
Q 2938 2591 2744 2837 
Q 2550 3084 2163 3084 
Q 1697 3084 1428 2787 
Q 1159 2491 1159 1978 
L 1159 0 
L 581 0 
L 581 3500 
L 1159 3500 
L 1159 2956 
Q 1366 3272 1645 3428 
Q 1925 3584 2291 3584 
Q 2894 3584 3203 3211 
Q 3513 2838 3513 2113 
z
" transform="scale(0.015625)"/>
       <path id="DejaVuSans-63" d="M 3122 3366 
L 3122 2828 
Q 2878 2963 2633 3030 
Q 2388 3097 2138 3097 
Q 1578 3097 1268 2742 
Q 959 2388 959 1747 
Q 959 1106 1268 751 
Q 1578 397 2138 397 
Q 2388 397 2633 464 
Q 2878 531 3122 666 
L 3122 134 
Q 2881 22 2623 -34 
Q 2366 -91 2075 -91 
Q 1284 -91 818 406 
Q 353 903 353 1747 
Q 353 2603 823 3093 
Q 1294 3584 2113 3584 
Q 2378 3584 2631 3529 
Q 2884 3475 3122 3366 
z
" transform="scale(0.015625)"/>
      </defs>
      <use xlink:href="#DejaVuSans-52"/>
      <use xlink:href="#DejaVuSans-65" transform="translate(64.982422 0)"/>
      <use xlink:href="#DejaVuSans-66" transform="translate(126.505859 0)"/>
      <use xlink:href="#DejaVuSans-65" transform="translate(161.710938 0)"/>
      <use xlink:href="#DejaVuSans-72" transform="translate(223.234375 0)"/>
      <use xlink:href="#DejaVuSans-65" transform="translate(262.097656 0)"/>
      <use xlink:href="#DejaVuSans-6e" transform="translate(323.621094 0)"/>
      <use xlink:href="#DejaVuSans-63" transform="translate(387 0)"/>
      <use xlink:href="#DejaVuSans-65" transform="translate(441.980469 0)"/>
     </g>
    </g>
    <g id="line2d_32">
     <path d="M 899.535938 69.632563 
L 909.535938 69.632563 
L 919.535938 69.632563 
" style="fill: none; stroke: #888888; stroke-opacity: 0.6; stroke-width: 1.2; stroke-linecap: square"/>
    </g>
    <g id="text_18">
     <!-- PID -->
     <g transform="translate(927.535938 73.132563) scale(0.1 -0.1)">
      <defs>
       <path id="DejaVuSans-50" d="M 1259 4147 
L 1259 2394 
L 2053 2394 
Q 2494 2394 2734 2622 
Q 2975 2850 2975 3272 
Q 2975 3691 2734 3919 
Q 2494 4147 2053 4147 
L 1259 4147 
z
M 628 4666 
L 2053 4666 
Q 2838 4666 3239 4311 
Q 3641 3956 3641 3272 
Q 3641 2581 3239 2228 
Q 2838 1875 2053 1875 
L 1259 1875 
L 1259 0 
L 628 0 
L 628 4666 
z
" transform="scale(0.015625)"/>
       <path id="DejaVuSans-49" d="M 628 4666 
L 1259 4666 
L 1259 0 
L 628 0 
L 628 4666 
z
" transform="scale(0.015625)"/>
       <path id="DejaVuSans-44" d="M 1259 4147 
L 1259 519 
L 2022 519 
Q 2988 519 3436 956 
Q 3884 1394 3884 2338 
Q 3884 3275 3436 3711 
Q 2988 4147 2022 4147 
L 1259 4147 
z
M 628 4666 
L 1925 4666 
Q 3281 4666 3915 4102 
Q 4550 3538 4550 2338 
Q 4550 1131 3912 565 
Q 3275 0 1925 0 
L 628 0 
L 628 4666 
z
" transform="scale(0.015625)"/>
      </defs>
      <use xlink:href="#DejaVuSans-50"/>
      <use xlink:href="#DejaVuSans-49" transform="translate(60.302734 0)"/>
      <use xlink:href="#DejaVuSans-44" transform="translate(89.794922 0)"/>
     </g>
    </g>
    <g id="line2d_33">
     <path d="M 899.535938 84.310688 
L 909.535938 84.310688 
L 919.535938 84.310688 
" style="fill: none; stroke: #2ca02c; stroke-width: 1.5; stroke-linecap: square"/>
    </g>
    <g id="text_19">
     <!-- EDMDc MPC -->
     <g transform="translate(927.535938 87.810688) scale(0.1 -0.1)">
      <defs>
       <path id="DejaVuSans-45" d="M 628 4666 
L 3578 4666 
L 3578 4134 
L 1259 4134 
L 1259 2753 
L 3481 2753 
L 3481 2222 
L 1259 2222 
L 1259 531 
L 3634 531 
L 3634 0 
L 628 0 
L 628 4666 
z
" transform="scale(0.015625)"/>
       <path id="DejaVuSans-4d" d="M 628 4666 
L 1569 4666 
L 2759 1491 
L 3956 4666 
L 4897 4666 
L 4897 0 
L 4281 0 
L 4281 4097 
L 3078 897 
L 2444 897 
L 1241 4097 
L 1241 0 
L 628 0 
L 628 4666 
z
" transform="scale(0.015625)"/>
       <path id="DejaVuSans-43" d="M 4122 4306 
L 4122 3641 
Q 3803 3938 3442 4084 
Q 3081 4231 2675 4231 
Q 1875 4231 1450 3742 
Q 1025 3253 1025 2328 
Q 1025 1406 1450 917 
Q 1875 428 2675 428 
Q 3081 428 3442 575 
Q 3803 722 4122 1019 
L 4122 359 
Q 3791 134 3420 21 
Q 3050 -91 2638 -91 
Q 1578 -91 968 557 
Q 359 1206 359 2328 
Q 359 3453 968 4101 
Q 1578 4750 2638 4750 
Q 3056 4750 3426 4639 
Q 3797 4528 4122 4306 
z
" transform="scale(0.015625)"/>
      </defs>
      <use xlink:href="#DejaVuSans-45"/>
      <use xlink:href="#DejaVuSans-44" transform="translate(63.183594 0)"/>
      <use xlink:href="#DejaVuSans-4d" transform="translate(140.185547 0)"/>
      <use xlink:href="#DejaVuSans-44" transform="translate(226.464844 0)"/>
      <use xlink:href="#DejaVuSans-63" transform="translate(303.466797 0)"/>
      <use xlink:href="#DejaVuSans-20" transform="translate(358.447266 0)"/>
      <use xlink:href="#DejaVuSans-4d" transform="translate(390.234375 0)"/>
      <use xlink:href="#DejaVuSans-50" transform="translate(476.513672 0)"/>
      <use xlink:href="#DejaVuSans-43" transform="translate(536.816406 0)"/>
     </g>
    </g>
    <g id="line2d_34">
     <path d="M 899.535938 98.988813 
L 909.535938 98.988813 
L 919.535938 98.988813 
" style="fill: none; stroke-dasharray: 4.44,1.92; stroke-dashoffset: 0; stroke: #1f77b4; stroke-width: 1.2"/>
    </g>
    <g id="text_20">
     <!-- Linear MPC -->
     <g transform="translate(927.535938 102.488813) scale(0.1 -0.1)">
      <defs>
       <path id="DejaVuSans-4c" d="M 628 4666 
L 1259 4666 
L 1259 531 
L 3531 531 
L 3531 0 
L 628 0 
L 628 4666 
z
" transform="scale(0.015625)"/>
       <path id="DejaVuSans-61" d="M 2194 1759 
Q 1497 1759 1228 1600 
Q 959 1441 959 1056 
Q 959 750 1161 570 
Q 1363 391 1709 391 
Q 2188 391 2477 730 
Q 2766 1069 2766 1631 
L 2766 1759 
L 2194 1759 
z
M 3341 1997 
L 3341 0 
L 2766 0 
L 2766 531 
Q 2569 213 2275 61 
Q 1981 -91 1556 -91 
Q 1019 -91 701 211 
Q 384 513 384 1019 
Q 384 1609 779 1909 
Q 1175 2209 1959 2209 
L 2766 2209 
L 2766 2266 
Q 2766 2663 2505 2880 
Q 2244 3097 1772 3097 
Q 1472 3097 1187 3025 
Q 903 2953 641 2809 
L 641 3341 
Q 956 3463 1253 3523 
Q 1550 3584 1831 3584 
Q 2591 3584 2966 3190 
Q 3341 2797 3341 1997 
z
" transform="scale(0.015625)"/>
      </defs>
      <use xlink:href="#DejaVuSans-4c"/>
      <use xlink:href="#DejaVuSans-69" transform="translate(55.712891 0)"/>
      <use xlink:href="#DejaVuSans-6e" transform="translate(83.496094 0)"/>
      <use xlink:href="#DejaVuSans-65" transform="translate(146.875 0)"/>
      <use xlink:href="#DejaVuSans-61" transform="translate(208.398438 0)"/>
      <use xlink:href="#DejaVuSans-72" transform="translate(269.677734 0)"/>
      <use xlink:href="#DejaVuSans-20" transform="translate(310.791016 0)"/>
      <use xlink:href="#DejaVuSans-4d" transform="translate(342.578125 0)"/>
      <use xlink:href="#DejaVuSans-50" transform="translate(428.857422 0)"/>
      <use xlink:href="#DejaVuSans-43" transform="translate(489.160156 0)"/>
     </g>
    </g>
   </g>
  </g>
 </g>
 <defs>
  <clipPath id="p8150b0677f">
   <rect x="53.66" y="41.856" width="943.54" height="275.464"/>
  </clipPath>
 </defs>
</svg>
