<?xml version="1.0" encoding="utf-8" standalone="no"?>
<!DOCTYPE svg PUBLIC "-//W3C//DTD SVG 1.1//EN"
  "http://www.w3.org/Graphics/SVG/1.1/DTD/svg11.dtd">
<svg xmlns:xlink="http://www.w3.org/1999/xlink" width="1008pt" height="360pt" viewBox="0 0 1008 360" xmlns="http://www.w3.org/2000/svg" version="1.1">
 <metadata>
  <rdf:RDF xmlns:dc="http://purl.org/dc/elements/1.1/" xmlns:cc="http://creativecommons.org/ns#" xmlns:rdf="http://www.w3.org/1999/02/22-rdf-syntax-ns#">
   <cc:Work>
    <dc:type rdf:resource="http://purl.org/dc/dcmitype/StillImage"/>
    <dc:date>2026-03-30T18:28:54.687128</dc:date>
    <dc:format>image/svg+xml</dc:format>
    <dc:creator>
     <cc:Agent>
      <dc:title>Matplotlib v3.10.8, https://matplotlib.org/</dc:title>
     </cc:Agent>
    </dc:creator>
   </cc:Work>
  </rdf:RDF>
 </metadata>
 <defs>
  <style type="text/css">*{stroke-linejoin: round; stroke-linecap: butt}</style>
 </defs>
 <g id="figure_1">
  <g id="patch_1">
   <path d="M 0 360 
L 1008 360 
L 1008 0 
L 0 0 
z
" style="fill: #ffffff"/>
  </g>
  <g id="axes_1">
   <g id="patch_2">
    <path d="M 63.11 317.32 
L 997.2 317.32 
L 997.2 41.856 
L 63.11 41.856 
z
" style="fill: #ffffff"/>
   </g>
   <g id="line2d_1">
    <path d="M 105.568636 179.538132 
L 120.019023 153.180811 
L 128.519251 138.161166 
L 135.319433 126.604317 
L 141.269592 116.926775 
L 146.369728 109.014429 
L 151.469865 101.502892 
L 156.570001 94.434857 
L 160.820115 88.912673 
L 165.070229 83.748219 
L 169.320343 78.96188 
L 173.570456 74.572548 
L 176.970547 71.358626 
L 180.370638 68.418029 
L 183.770729 65.758188 
L 187.17082 63.385822 
L 190.570911 61.306925 
L 193.971002 59.526751 
L 197.371093 58.049796 
L 200.771184 56.879793 
L 203.321253 56.205535 
L 205.871321 55.706575 
L 208.421389 55.383621 
L 210.971457 55.237133 
L 213.521526 55.267318 
L 216.071594 55.474135 
L 218.621662 55.857289 
L 221.17173 56.416235 
L 223.721799 57.150179 
L 227.12189 58.399151 
L 230.521981 59.954192 
L 233.922072 61.811373 
L 237.322163 63.966001 
L 240.722254 66.412633 
L 244.122345 69.145087 
L 247.522436 72.15646 
L 250.922527 75.439141 
L 254.322618 78.984839 
L 258.572731 83.773117 
L 262.822845 88.939412 
L 267.072959 94.46333 
L 271.323073 100.323067 
L 276.423209 107.765376 
L 281.523346 115.615593 
L 287.473505 125.230093 
L 293.423664 135.264628 
L 300.223846 147.147314 
L 308.724074 162.446325 
L 339.324893 217.993069 
L 346.125075 229.664124 
L 352.075234 239.464905 
L 357.17537 247.499451 
L 362.275507 255.147751 
L 367.375643 262.366335 
L 371.625757 268.023891 
L 375.875871 273.332165 
L 380.125985 278.270202 
L 384.376098 282.818511 
L 387.776189 286.164435 
L 391.17628 289.240958 
L 394.576371 292.040307 
L 397.976462 294.555408 
L 401.376553 296.779908 
L 404.776644 298.708186 
L 408.176735 300.33537 
L 411.576826 301.657348 
L 414.976917 302.670781 
L 417.526986 303.226803 
L 420.077054 303.607022 
L 422.627122 303.810896 
L 425.17719 303.838137 
L 427.727259 303.688705 
L 430.277327 303.362814 
L 432.827395 302.860925 
L 435.377463 302.183753 
L 438.777554 301.009893 
L 442.177645 299.529123 
L 445.577736 297.745186 
L 448.977827 295.662587 
L 452.377918 293.286589 
L 455.778009 290.623195 
L 459.1781 287.679135 
L 462.578191 284.461846 
L 465.978282 280.979458 
L 470.228396 276.267143 
L 474.47851 271.173006 
L 478.728624 265.717156 
L 482.978737 259.921129 
L 488.078874 252.549165 
L 493.17901 244.762255 
L 499.12917 235.212241 
L 505.079329 225.231626 
L 511.879511 213.397095 
L 520.379738 198.137383 
L 536.530171 168.5384 
L 547.580466 148.54467 
L 555.230671 135.155159 
L 562.030853 123.724382 
L 567.981012 114.181064 
L 573.081149 106.400713 
L 578.181285 99.036026 
L 582.431399 93.246583 
L 586.681513 87.797761 
L 590.931627 82.711068 
L 595.18174 78.006585 
L 598.581831 74.530719 
L 601.981922 71.320165 
L 605.382013 68.383034 
L 608.782104 65.726746 
L 612.182195 63.358013 
L 615.582286 61.282819 
L 618.982377 59.506409 
L 622.382468 58.03327 
L 625.782559 56.867124 
L 628.332628 56.19578 
L 630.882696 55.699748 
L 633.432764 55.379733 
L 635.982832 55.236188 
L 638.532901 55.269318 
L 641.082969 55.479077 
L 643.633037 55.865166 
L 646.183105 56.427036 
L 648.733174 57.163888 
L 652.133265 58.416707 
L 655.533356 59.975551 
L 658.933447 61.836481 
L 662.333538 63.994794 
L 665.733629 66.445039 
L 669.13372 69.181023 
L 672.533811 72.195835 
L 675.933902 75.481857 
L 679.333993 79.030787 
L 683.584106 83.822942 
L 687.83422 88.992916 
L 692.084334 94.520303 
L 696.334448 100.383283 
L 701.434584 107.829169 
L 706.534721 115.682601 
L 712.48488 125.300369 
L 718.435039 135.337629 
L 725.235221 147.222737 
L 733.735449 162.523701 
L 764.336268 218.067344 
L 771.13645 229.735596 
L 777.086609 239.533332 
L 782.186745 247.564845 
L 787.286882 255.20974 
L 792.387018 262.424568 
L 796.637132 268.078739 
L 800.887246 273.383411 
L 805.13736 278.317645 
L 809.387473 282.861963 
L 812.787564 286.204571 
L 816.187655 289.277676 
L 819.587746 292.073514 
L 822.987837 294.585021 
L 826.387928 296.805851 
L 829.788019 298.730394 
L 833.18811 300.353786 
L 836.588201 301.671927 
L 839.988292 302.681485 
L 842.538361 303.234583 
L 845.088429 303.611866 
L 847.638497 303.812798 
L 850.188565 303.837094 
L 852.738634 303.684719 
L 855.288702 303.355889 
L 857.83877 302.851073 
L 860.388838 302.170987 
L 863.788929 300.993271 
L 867.18902 299.508687 
L 870.589111 297.720986 
L 873.989202 295.634686 
L 877.389293 293.255057 
L 880.789384 290.588112 
L 884.189475 287.640589 
L 887.589566 284.419934 
L 890.989657 280.934287 
L 895.239771 276.218059 
L 899.489885 271.120203 
L 903.739999 265.660843 
L 907.990112 259.861527 
L 913.090249 252.485929 
L 918.190385 244.695743 
L 924.140545 235.142388 
L 930.090704 225.158971 
L 936.890886 213.321928 
L 945.391113 198.060144 
L 954.741364 180.944162 
L 954.741364 180.944162 
" clip-path="url(#pa41886c865)" style="fill: none; stroke: #000000; stroke-width: 2.5; stroke-linecap: square"/>
   </g>
   <g id="matplotlib.axis_1">
    <g id="xtick_1">
     <g id="line2d_2">
      <path d="M 105.568636 317.32 
L 105.568636 41.856 
" clip-path="url(#pa41886c865)" style="fill: none; stroke: #b0b0b0; stroke-opacity: 0.3; stroke-width: 0.8; stroke-linecap: square"/>
     </g>
     <g id="line2d_3">
      <defs>
       <path id="m4711e4dd84" d="M 0 0 
L 0 3.5 
" style="stroke: #000000; stroke-width: 0.8"/>
      </defs>
      <g>
       <use xlink:href="#m4711e4dd84" x="105.568636" y="317.32" style="stroke: #000000; stroke-width: 0.8"/>
      </g>
     </g>
     <g id="text_1">
      <!-- 0 -->
      <g transform="translate(102.387386 331.918437) scale(0.1 -0.1)">
       <defs>
        <path id="DejaVuSans-30" d="M 2034 4250 
Q 1547 4250 1301 3770 
Q 1056 3291 1056 2328 
Q 1056 1369 1301 889 
Q 1547 409 2034 409 
Q 2525 409 2770 889 
Q 3016 1369 3016 2328 
Q 3016 3291 2770 3770 
Q 2525 4250 2034 4250 
z
M 2034 4750 
Q 2819 4750 3233 4129 
Q 3647 3509 3647 2328 
Q 3647 1150 3233 529 
Q 2819 -91 2034 -91 
Q 1250 -91 836 529 
Q 422 1150 422 2328 
Q 422 3509 836 4129 
Q 1250 4750 2034 4750 
z
" transform="scale(0.015625)"/>
       </defs>
       <use xlink:href="#DejaVuSans-30"/>
      </g>
     </g>
    </g>
    <g id="xtick_2">
     <g id="line2d_4">
      <path d="M 275.573186 317.32 
L 275.573186 41.856 
" clip-path="url(#pa41886c865)" style="fill: none; stroke: #b0b0b0; stroke-opacity: 0.3; stroke-width: 0.8; stroke-linecap: square"/>
     </g>
     <g id="line2d_5">
      <g>
       <use xlink:href="#m4711e4dd84" x="275.573186" y="317.32" style="stroke: #000000; stroke-width: 0.8"/>
      </g>
     </g>
     <g id="text_2">
      <!-- 20 -->
      <g transform="translate(269.210686 331.918437) scale(0.1 -0.1)">
       <defs>
        <path id="DejaVuSans-32" d="M 1228 531 
L 3431 531 
L 3431 0 
L 469 0 
L 469 531 
Q 828 903 1448 1529 
Q 2069 2156 2228 2338 
Q 2531 2678 2651 2914 
Q 2772 3150 2772 3378 
Q 2772 3750 2511 3984 
Q 2250 4219 1831 4219 
Q 1534 4219 1204 4116 
Q 875 4013 500 3803 
L 500 4441 
Q 881 4594 1212 4672 
Q 1544 4750 1819 4750 
Q 2544 4750 2975 4387 
Q 3406 4025 3406 3419 
Q 3406 3131 3298 2873 
Q 3191 2616 2906 2266 
Q 2828 2175 2409 1742 
Q 1991 1309 1228 531 
z
" transform="scale(0.015625)"/>
       </defs>
       <use xlink:href="#DejaVuSans-32"/>
       <use xlink:href="#DejaVuSans-30" transform="translate(63.623047 0)"/>
      </g>
     </g>
    </g>
    <g id="xtick_3">
     <g id="line2d_6">
      <path d="M 445.577736 317.32 
L 445.577736 41.856 
" clip-path="url(#pa41886c865)" style="fill: none; stroke: #b0b0b0; stroke-opacity: 0.3; stroke-width: 0.8; stroke-linecap: square"/>
     </g>
     <g id="line2d_7">
      <g>
       <use xlink:href="#m4711e4dd84" x="445.577736" y="317.32" style="stroke: #000000; stroke-width: 0.8"/>
      </g>
     </g>
     <g id="text_3">
      <!-- 40 -->
      <g transform="translate(439.215236 331.918437) scale(0.1 -0.1)">
       <defs>
        <path id="DejaVuSans-34" d="M 2419 4116 
L 825 1625 
L 2419 1625 
L 2419 4116 
z
M 2253 4666 
L 3047 4666 
L 3047 1625 
L 3713 1625 
L 3713 1100 
L 3047 1100 
L 3047 0 
L 2419 0 
L 2419 1100 
L 313 1100 
L 313 1709 
L 2253 4666 
z
" transform="scale(0.015625)"/>
       </defs>
       <use xlink:href="#DejaVuSans-34"/>
       <use xlink:href="#DejaVuSans-30" transform="translate(63.623047 0)"/>
      </g>
     </g>
    </g>
    <g id="xtick_4">
     <g id="line2d_8">
      <path d="M 615.582286 317.32 
L 615.582286 41.856 
" clip-path="url(#pa41886c865)" style="fill: none; stroke: #b0b0b0; stroke-opacity: 0.3; stroke-width: 0.8; stroke-linecap: square"/>
     </g>
     <g id="line2d_9">
      <g>
       <use xlink:href="#m4711e4dd84" x="615.582286" y="317.32" style="stroke: #000000; stroke-width: 0.8"/>
      </g>
     </g>
     <g id="text_4">
      <!-- 60 -->
      <g transform="translate(609.219786 331.918437) scale(0.1 -0.1)">
       <defs>
        <path id="DejaVuSans-36" d="M 2113 2584 
Q 1688 2584 1439 2293 
Q 1191 2003 1191 1497 
Q 1191 994 1439 701 
Q 1688 409 2113 409 
Q 2538 409 2786 701 
Q 3034 994 3034 1497 
Q 3034 2003 2786 2293 
Q 2538 2584 2113 2584 
z
M 3366 4563 
L 3366 3988 
Q 3128 4100 2886 4159 
Q 2644 4219 2406 4219 
Q 1781 4219 1451 3797 
Q 1122 3375 1075 2522 
Q 1259 2794 1537 2939 
Q 1816 3084 2150 3084 
Q 2853 3084 3261 2657 
Q 3669 2231 3669 1497 
Q 3669 778 3244 343 
Q 2819 -91 2113 -91 
Q 1303 -91 875 529 
Q 447 1150 447 2328 
Q 447 3434 972 4092 
Q 1497 4750 2381 4750 
Q 2619 4750 2861 4703 
Q 3103 4656 3366 4563 
z
" transform="scale(0.015625)"/>
       </defs>
       <use xlink:href="#DejaVuSans-36"/>
       <use xlink:href="#DejaVuSans-30" transform="translate(63.623047 0)"/>
      </g>
     </g>
    </g>
    <g id="xtick_5">
     <g id="line2d_10">
      <path d="M 785.586836 317.32 
L 785.586836 41.856 
" clip-path="url(#pa41886c865)" style="fill: none; stroke: #b0b0b0; stroke-opacity: 0.3; stroke-width: 0.8; stroke-linecap: square"/>
     </g>
     <g id="line2d_11">
      <g>
       <use xlink:href="#m4711e4dd84" x="785.586836" y="317.32" style="stroke: #000000; stroke-width: 0.8"/>
      </g>
     </g>
     <g id="text_5">
      <!-- 80 -->
      <g transform="translate(779.224336 331.918437) scale(0.1 -0.1)">
       <defs>
        <path id="DejaVuSans-38" d="M 2034 2216 
Q 1584 2216 1326 1975 
Q 1069 1734 1069 1313 
Q 1069 891 1326 650 
Q 1584 409 2034 409 
Q 2484 409 2743 651 
Q 3003 894 3003 1313 
Q 3003 1734 2745 1975 
Q 2488 2216 2034 2216 
z
M 1403 2484 
Q 997 2584 770 2862 
Q 544 3141 544 3541 
Q 544 4100 942 4425 
Q 1341 4750 2034 4750 
Q 2731 4750 3128 4425 
Q 3525 4100 3525 3541 
Q 3525 3141 3298 2862 
Q 3072 2584 2669 2484 
Q 3125 2378 3379 2068 
Q 3634 1759 3634 1313 
Q 3634 634 3220 271 
Q 2806 -91 2034 -91 
Q 1263 -91 848 271 
Q 434 634 434 1313 
Q 434 1759 690 2068 
Q 947 2378 1403 2484 
z
M 1172 3481 
Q 1172 3119 1398 2916 
Q 1625 2713 2034 2713 
Q 2441 2713 2670 2916 
Q 2900 3119 2900 3481 
Q 2900 3844 2670 4047 
Q 2441 4250 2034 4250 
Q 1625 4250 1398 4047 
Q 1172 3844 1172 3481 
z
" transform="scale(0.015625)"/>
       </defs>
       <use xlink:href="#DejaVuSans-38"/>
       <use xlink:href="#DejaVuSans-30" transform="translate(63.623047 0)"/>
      </g>
     </g>
    </g>
    <g id="xtick_6">
     <g id="line2d_12">
      <path d="M 955.591386 317.32 
L 955.591386 41.856 
" clip-path="url(#pa41886c865)" style="fill: none; stroke: #b0b0b0; stroke-opacity: 0.3; stroke-width: 0.8; stroke-linecap: square"/>
     </g>
     <g id="line2d_13">
      <g>
       <use xlink:href="#m4711e4dd84" x="955.591386" y="317.32" style="stroke: #000000; stroke-width: 0.8"/>
      </g>
     </g>
     <g id="text_6">
      <!-- 100 -->
      <g transform="translate(946.047636 331.918437) scale(0.1 -0.1)">
       <defs>
        <path id="DejaVuSans-31" d="M 794 531 
L 1825 531 
L 1825 4091 
L 703 3866 
L 703 4441 
L 1819 4666 
L 2450 4666 
L 2450 531 
L 3481 531 
L 3481 0 
L 794 0 
L 794 531 
z
" transform="scale(0.015625)"/>
       </defs>
       <use xlink:href="#DejaVuSans-31"/>
       <use xlink:href="#DejaVuSans-30" transform="translate(63.623047 0)"/>
       <use xlink:href="#DejaVuSans-30" transform="translate(127.246094 0)"/>
      </g>
     </g>
    </g>
    <g id="text_7">
     <!-- Time [s] -->
     <g transform="translate(507.793203 346.356406) scale(0.11 -0.11)">
      <defs>
       <path id="DejaVuSans-54" d="M -19 4666 
L 3928 4666 
L 3928 4134 
L 2272 4134 
L 2272 0 
L 1638 0 
L 1638 4134 
L -19 4134 
L -19 4666 
z
" transform="scale(0.015625)"/>
       <path id="DejaVuSans-69" d="M 603 3500 
L 1178 3500 
L 1178 0 
L 603 0 
L 603 3500 
z
M 603 4863 
L 1178 4863 
L 1178 4134 
L 603 4134 
L 603 4863 
z
" transform="scale(0.015625)"/>
       <path id="DejaVuSans-6d" d="M 3328 2828 
Q 3544 3216 3844 3400 
Q 4144 3584 4550 3584 
Q 5097 3584 5394 3201 
Q 5691 2819 5691 2113 
L 5691 0 
L 5113 0 
L 5113 2094 
Q 5113 2597 4934 2840 
Q 4756 3084 4391 3084 
Q 3944 3084 3684 2787 
Q 3425 2491 3425 1978 
L 3425 0 
L 2847 0 
L 2847 2094 
Q 2847 2600 2669 2842 
Q 2491 3084 2119 3084 
Q 1678 3084 1418 2786 
Q 1159 2488 1159 1978 
L 1159 0 
L 581 0 
L 581 3500 
L 1159 3500 
L 1159 2956 
Q 1356 3278 1631 3431 
Q 1906 3584 2284 3584 
Q 2666 3584 2933 3390 
Q 3200 3197 3328 2828 
z
" transform="scale(0.015625)"/>
       <path id="DejaVuSans-65" d="M 3597 1894 
L 3597 1613 
L 953 1613 
Q 991 1019 1311 708 
Q 1631 397 2203 397 
Q 2534 397 2845 478 
Q 3156 559 3463 722 
L 3463 178 
Q 3153 47 2828 -22 
Q 2503 -91 2169 -91 
Q 1331 -91 842 396 
Q 353 884 353 1716 
Q 353 2575 817 3079 
Q 1281 3584 2069 3584 
Q 2775 3584 3186 3129 
Q 3597 2675 3597 1894 
z
M 3022 2063 
Q 3016 2534 2758 2815 
Q 2500 3097 2075 3097 
Q 1594 3097 1305 2825 
Q 1016 2553 972 2059 
L 3022 2063 
z
" transform="scale(0.015625)"/>
       <path id="DejaVuSans-20" transform="scale(0.015625)"/>
       <path id="DejaVuSans-5b" d="M 550 4863 
L 1875 4863 
L 1875 4416 
L 1125 4416 
L 1125 -397 
L 1875 -397 
L 1875 -844 
L 550 -844 
L 550 4863 
z
" transform="scale(0.015625)"/>
       <path id="DejaVuSans-73" d="M 2834 3397 
L 2834 2853 
Q 2591 2978 2328 3040 
Q 2066 3103 1784 3103 
Q 1356 3103 1142 2972 
Q 928 2841 928 2578 
Q 928 2378 1081 2264 
Q 1234 2150 1697 2047 
L 1894 2003 
Q 2506 1872 2764 1633 
Q 3022 1394 3022 966 
Q 3022 478 2636 193 
Q 2250 -91 1575 -91 
Q 1294 -91 989 -36 
Q 684 19 347 128 
L 347 722 
Q 666 556 975 473 
Q 1284 391 1588 391 
Q 1994 391 2212 530 
Q 2431 669 2431 922 
Q 2431 1156 2273 1281 
Q 2116 1406 1581 1522 
L 1381 1569 
Q 847 1681 609 1914 
Q 372 2147 372 2553 
Q 372 3047 722 3315 
Q 1072 3584 1716 3584 
Q 2034 3584 2315 3537 
Q 2597 3491 2834 3397 
z
" transform="scale(0.015625)"/>
       <path id="DejaVuSans-5d" d="M 1947 4863 
L 1947 -844 
L 622 -844 
L 622 -397 
L 1369 -397 
L 1369 4416 
L 622 4416 
L 622 4863 
L 1947 4863 
z
" transform="scale(0.015625)"/>
      </defs>
      <use xlink:href="#DejaVuSans-54"/>
      <use xlink:href="#DejaVuSans-69" transform="translate(57.958984 0)"/>
      <use xlink:href="#DejaVuSans-6d" transform="translate(85.742188 0)"/>
      <use xlink:href="#DejaVuSans-65" transform="translate(183.154297 0)"/>
      <use xlink:href="#DejaVuSans-20" transform="translate(244.677734 0)"/>
      <use xlink:href="#DejaVuSans-5b" transform="translate(276.464844 0)"/>
      <use xlink:href="#DejaVuSans-73" transform="translate(315.478516 0)"/>
      <use xlink:href="#DejaVuSans-5d" transform="translate(367.578125 0)"/>
     </g>
    </g>
   </g>
   <g id="matplotlib.axis_2">
    <g id="ytick_1">
     <g id="line2d_14">
      <path d="M 63.11 311.160595 
L 997.2 311.160595 
" clip-path="url(#pa41886c865)" style="fill: none; stroke: #b0b0b0; stroke-opacity: 0.3; stroke-width: 0.8; stroke-linecap: square"/>
     </g>
     <g id="line2d_15">
      <defs>
       <path id="m866780c01f" d="M 0 0 
L -3.5 0 
" style="stroke: #000000; stroke-width: 0.8"/>
      </defs>
      <g>
       <use xlink:href="#m866780c01f" x="63.11" y="311.160595" style="stroke: #000000; stroke-width: 0.8"/>
      </g>
     </g>
     <g id="text_8">
      <!-- −10.0 -->
      <g transform="translate(25.464688 314.959814) scale(0.1 -0.1)">
       <defs>
        <path id="DejaVuSans-2212" d="M 678 2272 
L 4684 2272 
L 4684 1741 
L 678 1741 
L 678 2272 
z
" transform="scale(0.015625)"/>
        <path id="DejaVuSans-2e" d="M 684 794 
L 1344 794 
L 1344 0 
L 684 0 
L 684 794 
z
" transform="scale(0.015625)"/>
       </defs>
       <use xlink:href="#DejaVuSans-2212"/>
       <use xlink:href="#DejaVuSans-31" transform="translate(83.789062 0)"/>
       <use xlink:href="#DejaVuSans-30" transform="translate(147.412109 0)"/>
       <use xlink:href="#DejaVuSans-2e" transform="translate(211.035156 0)"/>
       <use xlink:href="#DejaVuSans-30" transform="translate(242.822266 0)"/>
      </g>
     </g>
    </g>
    <g id="ytick_2">
     <g id="line2d_16">
      <path d="M 63.11 278.254979 
L 997.2 278.254979 
" clip-path="url(#pa41886c865)" style="fill: none; stroke: #b0b0b0; stroke-opacity: 0.3; stroke-width: 0.8; stroke-linecap: square"/>
     </g>
     <g id="line2d_17">
      <g>
       <use xlink:href="#m866780c01f" x="63.11" y="278.254979" style="stroke: #000000; stroke-width: 0.8"/>
      </g>
     </g>
     <g id="text_9">
      <!-- −7.5 -->
      <g transform="translate(31.827188 282.054198) scale(0.1 -0.1)">
       <defs>
        <path id="DejaVuSans-37" d="M 525 4666 
L 3525 4666 
L 3525 4397 
L 1831 0 
L 1172 0 
L 2766 4134 
L 525 4134 
L 525 4666 
z
" transform="scale(0.015625)"/>
        <path id="DejaVuSans-35" d="M 691 4666 
L 3169 4666 
L 3169 4134 
L 1269 4134 
L 1269 2991 
Q 1406 3038 1543 3061 
Q 1681 3084 1819 3084 
Q 2600 3084 3056 2656 
Q 3513 2228 3513 1497 
Q 3513 744 3044 326 
Q 2575 -91 1722 -91 
Q 1428 -91 1123 -41 
Q 819 9 494 109 
L 494 744 
Q 775 591 1075 516 
Q 1375 441 1709 441 
Q 2250 441 2565 725 
Q 2881 1009 2881 1497 
Q 2881 1984 2565 2268 
Q 2250 2553 1709 2553 
Q 1456 2553 1204 2497 
Q 953 2441 691 2322 
L 691 4666 
z
" transform="scale(0.015625)"/>
       </defs>
       <use xlink:href="#DejaVuSans-2212"/>
       <use xlink:href="#DejaVuSans-37" transform="translate(83.789062 0)"/>
       <use xlink:href="#DejaVuSans-2e" transform="translate(147.412109 0)"/>
       <use xlink:href="#DejaVuSans-35" transform="translate(179.199219 0)"/>
      </g>
     </g>
    </g>
    <g id="ytick_3">
     <g id="line2d_18">
      <path d="M 63.11 245.349363 
L 997.2 245.349363 
" clip-path="url(#pa41886c865)" style="fill: none; stroke: #b0b0b0; stroke-opacity: 0.3; stroke-width: 0.8; stroke-linecap: square"/>
     </g>
     <g id="line2d_19">
      <g>
       <use xlink:href="#m866780c01f" x="63.11" y="245.349363" style="stroke: #000000; stroke-width: 0.8"/>
      </g>
     </g>
     <g id="text_10">
      <!-- −5.0 -->
      <g transform="translate(31.827188 249.148582) scale(0.1 -0.1)">
       <use xlink:href="#DejaVuSans-2212"/>
       <use xlink:href="#DejaVuSans-35" transform="translate(83.789062 0)"/>
       <use xlink:href="#DejaVuSans-2e" transform="translate(147.412109 0)"/>
       <use xlink:href="#DejaVuSans-30" transform="translate(179.199219 0)"/>
      </g>
     </g>
    </g>
    <g id="ytick_4">
     <g id="line2d_20">
      <path d="M 63.11 212.443748 
L 997.2 212.443748 
" clip-path="url(#pa41886c865)" style="fill: none; stroke: #b0b0b0; stroke-opacity: 0.3; stroke-width: 0.8; stroke-linecap: square"/>
     </g>
     <g id="line2d_21">
      <g>
       <use xlink:href="#m866780c01f" x="63.11" y="212.443748" style="stroke: #000000; stroke-width: 0.8"/>
      </g>
     </g>
     <g id="text_11">
      <!-- −2.5 -->
      <g transform="translate(31.827188 216.242966) scale(0.1 -0.1)">
       <use xlink:href="#DejaVuSans-2212"/>
       <use xlink:href="#DejaVuSans-32" transform="translate(83.789062 0)"/>
       <use xlink:href="#DejaVuSans-2e" transform="translate(147.412109 0)"/>
       <use xlink:href="#DejaVuSans-35" transform="translate(179.199219 0)"/>
      </g>
     </g>
    </g>
    <g id="ytick_5">
     <g id="line2d_22">
      <path d="M 63.11 179.538132 
L 997.2 179.538132 
" clip-path="url(#pa41886c865)" style="fill: none; stroke: #b0b0b0; stroke-opacity: 0.3; stroke-width: 0.8; stroke-linecap: square"/>
     </g>
     <g id="line2d_23">
      <g>
       <use xlink:href="#m866780c01f" x="63.11" y="179.538132" style="stroke: #000000; stroke-width: 0.8"/>
      </g>
     </g>
     <g id="text_12">
      <!-- 0.0 -->
      <g transform="translate(40.206875 183.337351) scale(0.1 -0.1)">
       <use xlink:href="#DejaVuSans-30"/>
       <use xlink:href="#DejaVuSans-2e" transform="translate(63.623047 0)"/>
       <use xlink:href="#DejaVuSans-30" transform="translate(95.410156 0)"/>
      </g>
     </g>
    </g>
    <g id="ytick_6">
     <g id="line2d_24">
      <path d="M 63.11 146.632516 
L 997.2 146.632516 
" clip-path="url(#pa41886c865)" style="fill: none; stroke: #b0b0b0; stroke-opacity: 0.3; stroke-width: 0.8; stroke-linecap: square"/>
     </g>
     <g id="line2d_25">
      <g>
       <use xlink:href="#m866780c01f" x="63.11" y="146.632516" style="stroke: #000000; stroke-width: 0.8"/>
      </g>
     </g>
     <g id="text_13">
      <!-- 2.5 -->
      <g transform="translate(40.206875 150.431735) scale(0.1 -0.1)">
       <use xlink:href="#DejaVuSans-32"/>
       <use xlink:href="#DejaVuSans-2e" transform="translate(63.623047 0)"/>
       <use xlink:href="#DejaVuSans-35" transform="translate(95.410156 0)"/>
      </g>
     </g>
    </g>
    <g id="ytick_7">
     <g id="line2d_26">
      <path d="M 63.11 113.7269 
L 997.2 113.7269 
" clip-path="url(#pa41886c865)" style="fill: none; stroke: #b0b0b0; stroke-opacity: 0.3; stroke-width: 0.8; stroke-linecap: square"/>
     </g>
     <g id="line2d_27">
      <g>
       <use xlink:href="#m866780c01f" x="63.11" y="113.7269" style="stroke: #000000; stroke-width: 0.8"/>
      </g>
     </g>
     <g id="text_14">
      <!-- 5.0 -->
      <g transform="translate(40.206875 117.526119) scale(0.1 -0.1)">
       <use xlink:href="#DejaVuSans-35"/>
       <use xlink:href="#DejaVuSans-2e" transform="translate(63.623047 0)"/>
       <use xlink:href="#DejaVuSans-30" transform="translate(95.410156 0)"/>
      </g>
     </g>
    </g>
    <g id="ytick_8">
     <g id="line2d_28">
      <path d="M 63.11 80.821284 
L 997.2 80.821284 
" clip-path="url(#pa41886c865)" style="fill: none; stroke: #b0b0b0; stroke-opacity: 0.3; stroke-width: 0.8; stroke-linecap: square"/>
     </g>
     <g id="line2d_29">
      <g>
       <use xlink:href="#m866780c01f" x="63.11" y="80.821284" style="stroke: #000000; stroke-width: 0.8"/>
      </g>
     </g>
     <g id="text_15">
      <!-- 7.5 -->
      <g transform="translate(40.206875 84.620503) scale(0.1 -0.1)">
       <use xlink:href="#DejaVuSans-37"/>
       <use xlink:href="#DejaVuSans-2e" transform="translate(63.623047 0)"/>
       <use xlink:href="#DejaVuSans-35" transform="translate(95.410156 0)"/>
      </g>
     </g>
    </g>
    <g id="ytick_9">
     <g id="line2d_30">
      <path d="M 63.11 47.915669 
L 997.2 47.915669 
" clip-path="url(#pa41886c865)" style="fill: none; stroke: #b0b0b0; stroke-opacity: 0.3; stroke-width: 0.8; stroke-linecap: square"/>
     </g>
     <g id="line2d_31">
      <g>
       <use xlink:href="#m866780c01f" x="63.11" y="47.915669" style="stroke: #000000; stroke-width: 0.8"/>
      </g>
     </g>
     <g id="text_16">
      <!-- 10.0 -->
      <g transform="translate(33.844375 51.714887) scale(0.1 -0.1)">
       <use xlink:href="#DejaVuSans-31"/>
       <use xlink:href="#DejaVuSans-30" transform="translate(63.623047 0)"/>
       <use xlink:href="#DejaVuSans-2e" transform="translate(127.246094 0)"/>
       <use xlink:href="#DejaVuSans-30" transform="translate(159.033203 0)"/>
      </g>
     </g>
    </g>
    <g id="text_17">
     <!-- y [m] -->
     <g transform="translate(19.177031 194.240344) rotate(-90) scale(0.11 -0.11)">
      <defs>
       <path id="DejaVuSans-79" d="M 2059 -325 
Q 1816 -950 1584 -1140 
Q 1353 -1331 966 -1331 
L 506 -1331 
L 506 -850 
L 844 -850 
Q 1081 -850 1212 -737 
Q 1344 -625 1503 -206 
L 1606 56 
L 191 3500 
L 800 3500 
L 1894 763 
L 2988 3500 
L 3597 3500 
L 2059 -325 
z
" transform="scale(0.015625)"/>
      </defs>
      <use xlink:href="#DejaVuSans-79"/>
      <use xlink:href="#DejaVuSans-20" transform="translate(59.179688 0)"/>
      <use xlink:href="#DejaVuSans-5b" transform="translate(90.966797 0)"/>
      <use xlink:href="#DejaVuSans-6d" transform="translate(129.980469 0)"/>
      <use xlink:href="#DejaVuSans-5d" transform="translate(227.392578 0)"/>
     </g>
    </g>
   </g>
   <g id="line2d_32">
    <path d="M 105.568636 179.538132 
L 106.418659 179.529038 
L 107.268682 179.392942 
L 108.118705 178.954339 
L 108.968727 178.093809 
L 109.81875 176.742689 
L 111.518796 172.86675 
L 114.068864 167.12094 
L 117.468955 160.06022 
L 122.569091 150.158818 
L 128.519251 139.184751 
L 134.46941 128.676798 
L 140.419569 118.625968 
L 145.519706 110.4731 
L 150.619842 102.744815 
L 154.869956 96.649273 
L 159.970092 89.771121 
L 164.220206 84.415901 
L 168.47032 79.471451 
L 171.870411 75.819396 
L 176.120525 71.594792 
L 179.520616 68.538488 
L 182.920707 65.770947 
L 186.320798 63.286151 
L 189.720889 61.088186 
L 193.12098 59.186742 
L 196.521071 57.599798 
L 199.921162 56.311282 
L 202.47123 55.55306 
L 205.021298 55.001054 
L 208.421389 54.542204 
L 210.971457 54.388812 
L 214.371548 54.450483 
L 217.771639 54.804048 
L 220.321708 55.268688 
L 222.871776 55.919284 
L 226.271867 57.065438 
L 228.821935 58.126172 
L 232.222026 59.819228 
L 235.622117 61.80652 
L 239.022208 64.095981 
L 242.422299 66.715574 
L 245.82239 69.601543 
L 249.222481 72.779414 
L 253.472595 77.106613 
L 257.722709 81.798548 
L 261.1228 85.844757 
L 265.372913 91.255027 
L 269.623027 96.985451 
L 274.723164 104.268385 
L 278.973277 110.705828 
L 284.923437 120.171383 
L 290.023573 128.62246 
L 296.823755 140.3557 
L 305.323983 155.424065 
L 315.524256 174.027067 
L 341.024938 220.869488 
L 346.975097 231.165877 
L 352.075234 239.626152 
L 358.025393 249.004438 
L 363.12553 256.63121 
L 367.375643 262.670496 
L 372.47578 269.482308 
L 376.725894 274.808144 
L 380.976007 279.765656 
L 385.226121 284.336409 
L 388.626212 287.673581 
L 392.026303 290.73792 
L 395.426394 293.482957 
L 398.826485 295.929587 
L 402.226576 298.080717 
L 405.626667 299.930111 
L 409.026758 301.485961 
L 412.426849 302.729607 
L 414.976917 303.472823 
L 417.526986 304.015657 
L 420.927077 304.473469 
L 424.327168 304.663836 
L 426.877236 304.59512 
L 429.427304 304.346747 
L 431.977372 303.927706 
L 435.377463 303.099477 
L 437.927532 302.276839 
L 440.4776 301.25627 
L 443.877691 299.62826 
L 447.277782 297.708583 
L 450.677873 295.492228 
L 454.077964 292.975323 
L 457.478055 290.142583 
L 460.878146 287.030389 
L 465.12826 282.768595 
L 469.378373 278.097096 
L 473.628487 273.04141 
L 477.878601 267.636903 
L 482.128715 261.887223 
L 486.378828 255.763238 
L 492.328988 246.764909 
L 497.429124 238.621237 
L 504.229306 227.258671 
L 511.029488 215.413656 
L 519.529716 200.206053 
L 531.430034 178.366808 
L 547.580466 148.707982 
L 556.080694 133.707538 
L 562.030853 123.605596 
L 567.981012 113.997709 
L 573.081149 106.157721 
L 578.181285 98.713383 
L 583.281422 91.72637 
L 587.531536 86.2732 
L 591.781649 81.21473 
L 595.18174 77.464675 
L 598.581831 74.019829 
L 602.831945 70.057659 
L 606.232036 67.179532 
L 609.632127 64.587745 
L 613.032218 62.279948 
L 616.432309 60.255273 
L 619.8324 58.521776 
L 623.232491 57.09653 
L 626.632582 55.974848 
L 629.18265 55.349842 
L 632.582741 54.773335 
L 635.982832 54.497033 
L 638.532901 54.489415 
L 641.082969 54.672999 
L 643.633037 55.063955 
L 647.033128 55.855852 
L 649.583196 56.64626 
L 652.983287 57.966055 
L 656.383378 59.588945 
L 659.783469 61.530833 
L 663.18356 63.749074 
L 666.583651 66.24252 
L 669.983742 69.009863 
L 673.383833 72.071505 
L 676.783924 75.399915 
L 680.184015 78.997397 
L 684.434129 83.852368 
L 688.684243 89.103791 
L 692.934357 94.701562 
L 697.18447 100.651021 
L 702.284607 108.164053 
L 707.384743 116.08127 
L 712.48488 124.391402 
L 719.285062 135.971922 
L 726.935267 149.42939 
L 735.435494 164.87027 
L 747.335813 186.975426 
L 758.386108 207.449362 
L 766.036313 221.15416 
L 771.986472 231.406552 
L 777.936632 241.244509 
L 783.886791 250.613022 
L 788.986927 258.203482 
L 794.087064 265.359707 
L 798.337178 270.94216 
L 802.587291 276.16401 
L 806.837405 281.011548 
L 810.237496 284.584848 
L 813.637587 287.857982 
L 817.037678 290.835506 
L 820.437769 293.558872 
L 823.83786 296.029233 
L 827.237951 298.219702 
L 830.638042 300.117295 
L 834.038133 301.699302 
L 836.588201 302.651884 
L 839.988292 303.654845 
L 843.388383 304.339896 
L 846.788474 304.727081 
L 849.338543 304.798909 
L 852.738634 304.618682 
L 855.288702 304.281709 
L 858.688793 303.558427 
L 862.088884 302.539547 
L 864.638952 301.565046 
L 868.039043 299.974614 
L 871.439134 298.10729 
L 874.839225 295.964691 
L 878.239316 293.498875 
L 881.639407 290.737229 
L 885.039498 287.718514 
L 888.439589 284.421297 
L 891.83968 280.870097 
L 896.089794 276.06258 
L 900.339908 270.862713 
L 904.590021 265.316135 
L 908.840135 259.423419 
L 913.940272 251.977137 
L 919.040408 244.119869 
L 924.990567 234.500752 
L 930.940727 224.433663 
L 936.890886 213.889092 
L 947.091159 195.265102 
L 954.741364 181.121763 
L 954.741364 181.121763 
" clip-path="url(#pa41886c865)" style="fill: none; stroke: #888888; stroke-opacity: 0.6; stroke-width: 1.2; stroke-linecap: square"/>
   </g>
   <g id="patch_3">
    <path d="M 63.11 317.32 
L 63.11 41.856 
" style="fill: none; stroke: #000000; stroke-width: 0.8; stroke-linejoin: miter; stroke-linecap: square"/>
   </g>
   <g id="patch_4">
    <path d="M 997.2 317.32 
L 997.2 41.856 
" style="fill: none; stroke: #000000; stroke-width: 0.8; stroke-linejoin: miter; stroke-linecap: square"/>
   </g>
   <g id="patch_5">
    <path d="M 63.11 317.32 
L 997.2 317.32 
" style="fill: none; stroke: #000000; stroke-width: 0.8; stroke-linejoin: miter; stroke-linecap: square"/>
   </g>
   <g id="patch_6">
    <path d="M 63.11 41.856 
L 997.2 41.856 
" style="fill: none; stroke: #000000; stroke-width: 0.8; stroke-linejoin: miter; stroke-linecap: square"/>
   </g>
   <g id="line2d_33">
    <path d="M 105.568636 179.538132 
L 106.418659 179.524141 
L 107.268682 179.361759 
L 108.118705 178.876016 
L 108.968727 177.951043 
L 109.81875 176.520026 
L 110.668773 174.545872 
L 112.368818 169.334234 
L 114.068864 164.224404 
L 114.918887 162.231076 
L 116.618932 159.181288 
L 121.719069 150.207207 
L 129.369273 136.85749 
L 132.769364 130.971629 
L 137.019478 123.685476 
L 143.81966 112.695188 
L 146.369728 108.8746 
L 152.319888 100.140949 
L 155.719979 95.29907 
L 158.270047 92.077051 
L 162.520161 86.880652 
L 166.770274 81.525543 
L 170.170365 77.702834 
L 172.720434 75.152565 
L 179.520616 68.982872 
L 181.220661 67.430485 
L 182.920707 66.148099 
L 192.270957 60.063963 
L 194.821025 59.01041 
L 197.371093 58.020098 
L 200.771184 56.592278 
L 202.47123 56.185525 
L 210.971457 54.884884 
L 213.521526 54.832643 
L 216.071594 55.002293 
L 217.771639 55.344058 
L 224.571821 57.197618 
L 226.271867 57.658304 
L 227.971912 58.316089 
L 229.671958 59.193782 
L 239.022208 64.764936 
L 241.572276 66.91438 
L 244.972367 69.746731 
L 247.522436 71.792412 
L 249.222481 73.427695 
L 258.572731 83.354348 
L 261.1228 86.624562 
L 265.372913 92.111818 
L 269.623027 97.518375 
L 272.173095 101.247843 
L 277.273232 108.903792 
L 280.673323 113.882395 
L 284.073414 119.492224 
L 288.323528 126.517899 
L 292.573641 133.355097 
L 295.973732 139.405978 
L 300.223846 146.96137 
L 304.47396 154.353111 
L 313.82421 171.477405 
L 316.374278 176.077293 
L 324.024483 190.38958 
L 328.274597 197.926 
L 335.074779 210.451902 
L 339.324893 217.720971 
L 346.125075 229.73857 
L 353.775279 242.086268 
L 357.17537 247.651618 
L 359.725439 251.408903 
L 364.825575 258.650346 
L 369.075689 264.866366 
L 371.625757 268.247165 
L 374.175825 271.302143 
L 377.575916 275.214336 
L 381.82603 280.33736 
L 384.376098 282.945193 
L 394.576371 292.186362 
L 403.076599 297.988892 
L 404.776644 298.8118 
L 408.176735 300.287468 
L 411.576826 301.902582 
L 413.276872 302.436105 
L 415.82694 302.855539 
L 418.377008 303.349801 
L 420.927077 303.906275 
L 422.627122 304.030219 
L 425.17719 303.828614 
L 427.727259 303.642957 
L 430.277327 303.552471 
L 431.977372 303.29284 
L 433.677418 302.788723 
L 437.077509 301.618532 
L 440.4776 300.544129 
L 442.177645 299.747615 
L 444.727714 298.217257 
L 447.277782 296.706379 
L 450.677873 294.731706 
L 452.377918 293.419713 
L 456.628032 289.880227 
L 460.028123 287.16573 
L 462.578191 284.729511 
L 465.12826 281.889577 
L 467.678328 279.070017 
L 471.078419 275.501394 
L 473.628487 272.340699 
L 485.528806 256.504908 
L 488.928897 251.287589 
L 497.429124 238.058488 
L 502.529261 229.463687 
L 505.929352 223.906344 
L 516.129625 205.756649 
L 519.529716 199.668054 
L 522.929807 193.571857 
L 528.029943 184.044367 
L 533.13008 174.794892 
L 536.530171 168.362564 
L 542.48033 157.666275 
L 545.880421 151.290823 
L 549.280512 145.465968 
L 552.680603 139.574758 
L 556.930717 131.993155 
L 570.531081 109.893272 
L 574.781194 103.698749 
L 581.581376 94.088091 
L 584.131445 90.63063 
L 587.531536 86.629385 
L 590.081604 83.60864 
L 593.481695 79.551717 
L 596.031763 76.96913 
L 599.431854 73.544776 
L 602.831945 70.119275 
L 604.531991 68.654783 
L 607.082059 66.784671 
L 616.432309 60.366829 
L 618.132355 59.550887 
L 623.232491 57.461245 
L 625.782559 56.380121 
L 627.482605 55.922582 
L 630.032673 55.610336 
L 632.582741 55.260667 
L 635.13281 54.817142 
L 636.832855 54.726635 
L 638.532901 54.865251 
L 647.033128 56.147887 
L 648.733174 56.712374 
L 652.133265 58.216792 
L 658.083424 60.870501 
L 660.633492 62.62165 
L 663.18356 64.389048 
L 666.583651 66.603013 
L 668.283697 67.943818 
L 670.833765 70.341012 
L 675.083879 74.459879 
L 678.48397 77.634649 
L 681.034038 80.479495 
L 692.084334 93.990001 
L 695.484425 98.929263 
L 698.884516 103.897041 
L 703.13463 109.923381 
L 705.684698 113.916658 
L 719.285062 136.544192 
L 723.535176 144.024161 
L 728.635312 152.862813 
L 732.885426 160.787612 
L 737.985562 170.250691 
L 744.785744 182.533002 
L 750.735904 193.70221 
L 764.336268 218.058802 
L 769.436404 226.675541 
L 774.536541 235.590562 
L 777.936632 241.007655 
L 790.686973 260.20899 
L 796.637132 268.200376 
L 799.1872 271.556658 
L 801.737269 274.480025 
L 805.13736 278.260785 
L 809.387473 283.116884 
L 811.937542 285.472287 
L 817.887701 290.724055 
L 820.437769 293.003156 
L 822.137815 294.297591 
L 824.687883 295.83561 
L 828.087974 297.798475 
L 831.488065 299.872451 
L 833.18811 300.602337 
L 841.688338 303.403361 
L 843.388383 303.620771 
L 847.638497 303.894083 
L 850.188565 304.153227 
L 851.888611 304.086127 
L 853.588656 303.781979 
L 857.83877 302.89567 
L 860.388838 302.457903 
L 862.088884 301.968571 
L 863.788929 301.237166 
L 868.889066 298.796116 
L 870.589111 298.012452 
L 872.289157 296.990726 
L 875.689248 294.507396 
L 883.339453 288.709437 
L 885.889521 286.162426 
L 888.439589 283.654947 
L 891.83968 280.346417 
L 894.389748 277.366587 
L 897.789839 273.290997 
L 901.18993 269.301952 
L 903.739999 265.833901 
L 907.990112 259.911838 
L 911.390203 255.279379 
L 914.790294 249.984988 
L 918.190385 244.706408 
L 922.440499 238.207602 
L 925.84059 232.374805 
L 929.240681 226.611859 
L 933.490795 219.560597 
L 940.290977 207.197114 
L 949.641227 190.500623 
L 954.741364 181.466888 
L 954.741364 181.466888 
" clip-path="url(#pa41886c865)" style="fill: none; stroke: #2ca02c; stroke-width: 1.5; stroke-linecap: square"/>
   </g>
   <g id="line2d_34">
    <path d="M 105.568636 179.538132 
L 106.418659 179.524141 
L 107.268682 179.361796 
L 108.118705 178.877915 
L 108.968727 177.956917 
L 109.81875 176.531275 
L 110.668773 174.574875 
L 113.218841 167.527881 
L 114.918887 163.762247 
L 117.468955 158.486267 
L 120.019023 153.768937 
L 135.319433 127.235306 
L 140.419569 118.952355 
L 148.069774 107.014891 
L 152.319888 100.747846 
L 156.570001 94.890976 
L 161.670138 88.276193 
L 165.920252 83.181172 
L 170.170365 78.466993 
L 174.420479 74.168073 
L 178.670593 70.204411 
L 182.070684 67.389511 
L 185.470775 64.858977 
L 188.870866 62.604445 
L 192.270957 60.645968 
L 195.671048 58.989155 
L 199.071139 57.604827 
L 201.621207 56.77395 
L 204.171275 56.114646 
L 206.721344 55.645416 
L 209.271412 55.377152 
L 211.82148 55.305073 
L 215.221571 55.450345 
L 217.771639 55.763222 
L 220.321708 56.268346 
L 223.721799 57.171363 
L 227.12189 58.32885 
L 229.671958 59.445528 
L 233.072049 61.228441 
L 236.47214 63.256584 
L 239.872231 65.58445 
L 243.272322 68.216336 
L 246.672413 71.143355 
L 250.072504 74.327175 
L 253.472595 77.781193 
L 257.722709 82.44409 
L 261.972822 87.473782 
L 266.222936 92.858387 
L 270.47305 98.630108 
L 275.573186 105.961076 
L 280.673323 113.749191 
L 285.773459 121.866512 
L 293.423664 134.562622 
L 300.223846 146.377185 
L 307.874051 160.085934 
L 337.624847 214.304553 
L 343.575006 224.669946 
L 351.225211 237.493834 
L 356.325348 245.53493 
L 362.275507 254.549658 
L 367.375643 261.849514 
L 371.625757 267.584635 
L 375.875871 272.897074 
L 380.125985 277.847675 
L 384.376098 282.435258 
L 387.776189 285.85184 
L 391.17628 288.961855 
L 394.576371 291.791025 
L 397.976462 294.318801 
L 401.376553 296.568429 
L 403.926622 298.068497 
L 407.326713 299.779939 
L 410.726804 301.230949 
L 413.276872 302.122359 
L 415.82694 302.820655 
L 418.377008 303.29464 
L 421.777099 303.688177 
L 424.327168 303.785037 
L 426.877236 303.684435 
L 430.277327 303.28063 
L 433.677418 302.625935 
L 436.227486 301.942089 
L 439.627577 300.756616 
L 442.177645 299.636438 
L 445.577736 297.864908 
L 448.977827 295.816447 
L 452.377918 293.414635 
L 456.628032 290.05134 
L 460.028123 287.104954 
L 463.428214 283.841459 
L 467.678328 279.417287 
L 471.078419 275.538408 
L 475.328533 270.379756 
L 479.578646 264.884999 
L 483.82876 259.006029 
L 488.928897 251.534301 
L 494.879056 242.418066 
L 500.829215 232.770562 
L 506.779374 222.737687 
L 512.729534 212.29714 
L 522.929807 193.944675 
L 550.980557 142.972157 
L 559.480785 128.390957 
L 566.280967 117.210736 
L 570.531081 110.57347 
L 575.631217 102.979673 
L 580.731354 95.84023 
L 584.981467 90.244557 
L 589.231581 84.963992 
L 593.481695 80.090043 
L 596.881786 76.480517 
L 601.1319 72.326644 
L 604.531991 69.306967 
L 607.932082 66.557924 
L 611.332173 64.063451 
L 613.882241 62.417324 
L 617.282332 60.485922 
L 620.682423 58.805468 
L 623.232491 57.75078 
L 625.782559 56.903784 
L 629.18265 56.053586 
L 632.582741 55.470526 
L 635.13281 55.25701 
L 637.682878 55.237682 
L 641.082969 55.464846 
L 644.48306 55.946806 
L 647.033128 56.509375 
L 649.583196 57.275889 
L 652.133265 58.260071 
L 655.533356 59.832086 
L 658.933447 61.648275 
L 662.333538 63.752652 
L 665.733629 66.140269 
L 669.13372 68.864006 
L 672.533811 71.901178 
L 676.783924 76.005578 
L 680.184015 79.552355 
L 683.584106 83.355303 
L 687.83422 88.460059 
L 692.084334 93.978051 
L 697.18447 101.062845 
L 702.284607 108.514429 
L 706.534721 115.097206 
L 713.334903 126.083507 
L 719.285062 136.07358 
L 726.935267 149.511269 
L 735.435494 164.953803 
L 756.686063 203.88302 
L 762.636222 214.538729 
L 770.286427 227.800183 
L 777.086609 238.975648 
L 783.036768 248.39119 
L 788.136905 255.978807 
L 792.387018 261.986768 
L 796.637132 267.691657 
L 800.887246 273.046965 
L 805.13736 278.007135 
L 809.387473 282.579102 
L 813.637587 286.784831 
L 817.037678 289.814855 
L 820.437769 292.547754 
L 823.83786 295.042081 
L 826.387928 296.710176 
L 829.788019 298.63629 
L 833.18811 300.274273 
L 836.588201 301.633315 
L 839.13827 302.444033 
L 841.688338 303.042877 
L 845.088429 303.601089 
L 847.638497 303.836201 
L 850.188565 303.883419 
L 852.738634 303.747521 
L 856.138725 303.291904 
L 859.538816 302.558264 
L 862.088884 301.801863 
L 864.638952 300.839024 
L 868.039043 299.292899 
L 871.439134 297.476697 
L 874.839225 295.364033 
L 878.239316 292.928202 
L 881.639407 290.199024 
L 885.039498 287.200873 
L 888.439589 283.941926 
L 891.83968 280.422268 
L 895.239771 276.618495 
L 899.489885 271.48107 
L 904.590021 264.912225 
L 908.840135 259.118064 
L 913.940272 251.709711 
L 919.040408 243.89934 
L 924.140545 235.691028 
L 930.940727 224.262821 
L 938.590931 210.957694 
L 944.541091 200.193112 
L 953.891341 183.25739 
L 954.741364 182.005551 
L 954.741364 182.005551 
" clip-path="url(#pa41886c865)" style="fill: none; stroke-dasharray: 4.44,1.92; stroke-dashoffset: 0; stroke: #1f77b4; stroke-width: 1.2"/>
   </g>
   <g id="text_18">
    <!-- figure-8_1 — Y Position Tracking -->
    <g transform="translate(412.205391 20.937281) scale(0.13 -0.13)">
     <defs>
      <path id="DejaVuSans-Bold-66" d="M 2841 4863 
L 2841 4128 
L 2222 4128 
Q 1984 4128 1890 4042 
Q 1797 3956 1797 3744 
L 1797 3500 
L 2753 3500 
L 2753 2700 
L 1797 2700 
L 1797 0 
L 678 0 
L 678 2700 
L 122 2700 
L 122 3500 
L 678 3500 
L 678 3744 
Q 678 4316 997 4589 
Q 1316 4863 1984 4863 
L 2841 4863 
z
" transform="scale(0.015625)"/>
      <path id="DejaVuSans-Bold-69" d="M 538 3500 
L 1656 3500 
L 1656 0 
L 538 0 
L 538 3500 
z
M 538 4863 
L 1656 4863 
L 1656 3950 
L 538 3950 
L 538 4863 
z
" transform="scale(0.015625)"/>
      <path id="DejaVuSans-Bold-67" d="M 2919 594 
Q 2688 288 2409 144 
Q 2131 0 1766 0 
Q 1125 0 706 504 
Q 288 1009 288 1791 
Q 288 2575 706 3076 
Q 1125 3578 1766 3578 
Q 2131 3578 2409 3434 
Q 2688 3291 2919 2981 
L 2919 3500 
L 4044 3500 
L 4044 353 
Q 4044 -491 3511 -936 
Q 2978 -1381 1966 -1381 
Q 1638 -1381 1331 -1331 
Q 1025 -1281 716 -1178 
L 716 -306 
Q 1009 -475 1290 -558 
Q 1572 -641 1856 -641 
Q 2406 -641 2662 -400 
Q 2919 -159 2919 353 
L 2919 594 
z
M 2181 2772 
Q 1834 2772 1640 2515 
Q 1447 2259 1447 1791 
Q 1447 1309 1634 1061 
Q 1822 813 2181 813 
Q 2531 813 2725 1069 
Q 2919 1325 2919 1791 
Q 2919 2259 2725 2515 
Q 2531 2772 2181 2772 
z
" transform="scale(0.015625)"/>
      <path id="DejaVuSans-Bold-75" d="M 500 1363 
L 500 3500 
L 1625 3500 
L 1625 3150 
Q 1625 2866 1622 2436 
Q 1619 2006 1619 1863 
Q 1619 1441 1641 1255 
Q 1663 1069 1716 984 
Q 1784 875 1895 815 
Q 2006 756 2150 756 
Q 2500 756 2700 1025 
Q 2900 1294 2900 1772 
L 2900 3500 
L 4019 3500 
L 4019 0 
L 2900 0 
L 2900 506 
Q 2647 200 2364 54 
Q 2081 -91 1741 -91 
Q 1134 -91 817 281 
Q 500 653 500 1363 
z
" transform="scale(0.015625)"/>
      <path id="DejaVuSans-Bold-72" d="M 3138 2547 
Q 2991 2616 2845 2648 
Q 2700 2681 2553 2681 
Q 2122 2681 1889 2404 
Q 1656 2128 1656 1613 
L 1656 0 
L 538 0 
L 538 3500 
L 1656 3500 
L 1656 2925 
Q 1872 3269 2151 3426 
Q 2431 3584 2822 3584 
Q 2878 3584 2943 3579 
Q 3009 3575 3134 3559 
L 3138 2547 
z
" transform="scale(0.015625)"/>
      <path id="DejaVuSans-Bold-65" d="M 4031 1759 
L 4031 1441 
L 1416 1441 
Q 1456 1047 1700 850 
Q 1944 653 2381 653 
Q 2734 653 3104 758 
Q 3475 863 3866 1075 
L 3866 213 
Q 3469 63 3072 -14 
Q 2675 -91 2278 -91 
Q 1328 -91 801 392 
Q 275 875 275 1747 
Q 275 2603 792 3093 
Q 1309 3584 2216 3584 
Q 3041 3584 3536 3087 
Q 4031 2591 4031 1759 
z
M 2881 2131 
Q 2881 2450 2695 2645 
Q 2509 2841 2209 2841 
Q 1884 2841 1681 2658 
Q 1478 2475 1428 2131 
L 2881 2131 
z
" transform="scale(0.015625)"/>
      <path id="DejaVuSans-Bold-2d" d="M 347 2297 
L 2309 2297 
L 2309 1388 
L 347 1388 
L 347 2297 
z
" transform="scale(0.015625)"/>
      <path id="DejaVuSans-Bold-38" d="M 2228 2088 
Q 1891 2088 1709 1903 
Q 1528 1719 1528 1375 
Q 1528 1031 1709 848 
Q 1891 666 2228 666 
Q 2563 666 2741 848 
Q 2919 1031 2919 1375 
Q 2919 1722 2741 1905 
Q 2563 2088 2228 2088 
z
M 1350 2484 
Q 925 2613 709 2878 
Q 494 3144 494 3541 
Q 494 4131 934 4440 
Q 1375 4750 2228 4750 
Q 3075 4750 3515 4442 
Q 3956 4134 3956 3541 
Q 3956 3144 3739 2878 
Q 3522 2613 3097 2484 
Q 3572 2353 3814 2058 
Q 4056 1763 4056 1313 
Q 4056 619 3595 264 
Q 3134 -91 2228 -91 
Q 1319 -91 855 264 
Q 391 619 391 1313 
Q 391 1763 633 2058 
Q 875 2353 1350 2484 
z
M 1631 3419 
Q 1631 3141 1786 2991 
Q 1941 2841 2228 2841 
Q 2509 2841 2662 2991 
Q 2816 3141 2816 3419 
Q 2816 3697 2662 3845 
Q 2509 3994 2228 3994 
Q 1941 3994 1786 3844 
Q 1631 3694 1631 3419 
z
" transform="scale(0.015625)"/>
      <path id="DejaVuSans-Bold-5f" d="M 3200 -916 
L 3200 -1509 
L 0 -1509 
L 0 -916 
L 3200 -916 
z
" transform="scale(0.015625)"/>
      <path id="DejaVuSans-Bold-31" d="M 750 831 
L 1813 831 
L 1813 3847 
L 722 3622 
L 722 4441 
L 1806 4666 
L 2950 4666 
L 2950 831 
L 4013 831 
L 4013 0 
L 750 0 
L 750 831 
z
" transform="scale(0.015625)"/>
      <path id="DejaVuSans-Bold-20" transform="scale(0.015625)"/>
      <path id="DejaVuSans-Bold-2014" d="M 344 2156 
L 6056 2156 
L 6056 1350 
L 344 1350 
L 344 2156 
z
" transform="scale(0.015625)"/>
      <path id="DejaVuSans-Bold-59" d="M -63 4666 
L 1253 4666 
L 2316 3003 
L 3378 4666 
L 4697 4666 
L 2919 1966 
L 2919 0 
L 1716 0 
L 1716 1966 
L -63 4666 
z
" transform="scale(0.015625)"/>
      <path id="DejaVuSans-Bold-50" d="M 588 4666 
L 2584 4666 
Q 3475 4666 3951 4270 
Q 4428 3875 4428 3144 
Q 4428 2409 3951 2014 
Q 3475 1619 2584 1619 
L 1791 1619 
L 1791 0 
L 588 0 
L 588 4666 
z
M 1791 3794 
L 1791 2491 
L 2456 2491 
Q 2806 2491 2997 2661 
Q 3188 2831 3188 3144 
Q 3188 3456 2997 3625 
Q 2806 3794 2456 3794 
L 1791 3794 
z
" transform="scale(0.015625)"/>
      <path id="DejaVuSans-Bold-6f" d="M 2203 2784 
Q 1831 2784 1636 2517 
Q 1441 2250 1441 1747 
Q 1441 1244 1636 976 
Q 1831 709 2203 709 
Q 2569 709 2762 976 
Q 2956 1244 2956 1747 
Q 2956 2250 2762 2517 
Q 2569 2784 2203 2784 
z
M 2203 3584 
Q 3106 3584 3614 3096 
Q 4122 2609 4122 1747 
Q 4122 884 3614 396 
Q 3106 -91 2203 -91 
Q 1297 -91 786 396 
Q 275 884 275 1747 
Q 275 2609 786 3096 
Q 1297 3584 2203 3584 
z
" transform="scale(0.015625)"/>
      <path id="DejaVuSans-Bold-73" d="M 3272 3391 
L 3272 2541 
Q 2913 2691 2578 2766 
Q 2244 2841 1947 2841 
Q 1628 2841 1473 2761 
Q 1319 2681 1319 2516 
Q 1319 2381 1436 2309 
Q 1553 2238 1856 2203 
L 2053 2175 
Q 2913 2066 3209 1816 
Q 3506 1566 3506 1031 
Q 3506 472 3093 190 
Q 2681 -91 1863 -91 
Q 1516 -91 1145 -36 
Q 775 19 384 128 
L 384 978 
Q 719 816 1070 734 
Q 1422 653 1784 653 
Q 2113 653 2278 743 
Q 2444 834 2444 1013 
Q 2444 1163 2330 1236 
Q 2216 1309 1875 1350 
L 1678 1375 
Q 931 1469 631 1722 
Q 331 1975 331 2491 
Q 331 3047 712 3315 
Q 1094 3584 1881 3584 
Q 2191 3584 2531 3537 
Q 2872 3491 3272 3391 
z
" transform="scale(0.015625)"/>
      <path id="DejaVuSans-Bold-74" d="M 1759 4494 
L 1759 3500 
L 2913 3500 
L 2913 2700 
L 1759 2700 
L 1759 1216 
Q 1759 972 1856 886 
Q 1953 800 2241 800 
L 2816 800 
L 2816 0 
L 1856 0 
Q 1194 0 917 276 
Q 641 553 641 1216 
L 641 2700 
L 84 2700 
L 84 3500 
L 641 3500 
L 641 4494 
L 1759 4494 
z
" transform="scale(0.015625)"/>
      <path id="DejaVuSans-Bold-6e" d="M 4056 2131 
L 4056 0 
L 2931 0 
L 2931 347 
L 2931 1631 
Q 2931 2084 2911 2256 
Q 2891 2428 2841 2509 
Q 2775 2619 2662 2680 
Q 2550 2741 2406 2741 
Q 2056 2741 1856 2470 
Q 1656 2200 1656 1722 
L 1656 0 
L 538 0 
L 538 3500 
L 1656 3500 
L 1656 2988 
Q 1909 3294 2193 3439 
Q 2478 3584 2822 3584 
Q 3428 3584 3742 3212 
Q 4056 2841 4056 2131 
z
" transform="scale(0.015625)"/>
      <path id="DejaVuSans-Bold-54" d="M 31 4666 
L 4331 4666 
L 4331 3756 
L 2784 3756 
L 2784 0 
L 1581 0 
L 1581 3756 
L 31 3756 
L 31 4666 
z
" transform="scale(0.015625)"/>
      <path id="DejaVuSans-Bold-61" d="M 2106 1575 
Q 1756 1575 1579 1456 
Q 1403 1338 1403 1106 
Q 1403 894 1545 773 
Q 1688 653 1941 653 
Q 2256 653 2472 879 
Q 2688 1106 2688 1447 
L 2688 1575 
L 2106 1575 
z
M 3816 1997 
L 3816 0 
L 2688 0 
L 2688 519 
Q 2463 200 2181 54 
Q 1900 -91 1497 -91 
Q 953 -91 614 226 
Q 275 544 275 1050 
Q 275 1666 698 1953 
Q 1122 2241 2028 2241 
L 2688 2241 
L 2688 2328 
Q 2688 2594 2478 2717 
Q 2269 2841 1825 2841 
Q 1466 2841 1156 2769 
Q 847 2697 581 2553 
L 581 3406 
Q 941 3494 1303 3539 
Q 1666 3584 2028 3584 
Q 2975 3584 3395 3211 
Q 3816 2838 3816 1997 
z
" transform="scale(0.015625)"/>
      <path id="DejaVuSans-Bold-63" d="M 3366 3391 
L 3366 2478 
Q 3138 2634 2908 2709 
Q 2678 2784 2431 2784 
Q 1963 2784 1702 2511 
Q 1441 2238 1441 1747 
Q 1441 1256 1702 982 
Q 1963 709 2431 709 
Q 2694 709 2930 787 
Q 3166 866 3366 1019 
L 3366 103 
Q 3103 6 2833 -42 
Q 2563 -91 2291 -91 
Q 1344 -91 809 395 
Q 275 881 275 1747 
Q 275 2613 809 3098 
Q 1344 3584 2291 3584 
Q 2566 3584 2833 3536 
Q 3100 3488 3366 3391 
z
" transform="scale(0.015625)"/>
      <path id="DejaVuSans-Bold-6b" d="M 538 4863 
L 1656 4863 
L 1656 2216 
L 2944 3500 
L 4244 3500 
L 2534 1894 
L 4378 0 
L 3022 0 
L 1656 1459 
L 1656 0 
L 538 0 
L 538 4863 
z
" transform="scale(0.015625)"/>
     </defs>
     <use xlink:href="#DejaVuSans-Bold-66"/>
     <use xlink:href="#DejaVuSans-Bold-69" transform="translate(43.505859 0)"/>
     <use xlink:href="#DejaVuSans-Bold-67" transform="translate(77.783203 0)"/>
     <use xlink:href="#DejaVuSans-Bold-75" transform="translate(149.365234 0)"/>
     <use xlink:href="#DejaVuSans-Bold-72" transform="translate(220.556641 0)"/>
     <use xlink:href="#DejaVuSans-Bold-65" transform="translate(269.873047 0)"/>
     <use xlink:href="#DejaVuSans-Bold-2d" transform="translate(337.695312 0)"/>
     <use xlink:href="#DejaVuSans-Bold-38" transform="translate(379.199219 0)"/>
     <use xlink:href="#DejaVuSans-Bold-5f" transform="translate(448.779297 0)"/>
     <use xlink:href="#DejaVuSans-Bold-31" transform="translate(498.779297 0)"/>
     <use xlink:href="#DejaVuSans-Bold-20" transform="translate(568.359375 0)"/>
     <use xlink:href="#DejaVuSans-Bold-2014" transform="translate(603.173828 0)"/>
     <use xlink:href="#DejaVuSans-Bold-20" transform="translate(703.173828 0)"/>
     <use xlink:href="#DejaVuSans-Bold-59" transform="translate(737.988281 0)"/>
     <use xlink:href="#DejaVuSans-Bold-20" transform="translate(810.400391 0)"/>
     <use xlink:href="#DejaVuSans-Bold-50" transform="translate(845.214844 0)"/>
     <use xlink:href="#DejaVuSans-Bold-6f" transform="translate(918.505859 0)"/>
     <use xlink:href="#DejaVuSans-Bold-73" transform="translate(987.207031 0)"/>
     <use xlink:href="#DejaVuSans-Bold-69" transform="translate(1046.728516 0)"/>
     <use xlink:href="#DejaVuSans-Bold-74" transform="translate(1081.005859 0)"/>
     <use xlink:href="#DejaVuSans-Bold-69" transform="translate(1128.808594 0)"/>
     <use xlink:href="#DejaVuSans-Bold-6f" transform="translate(1163.085938 0)"/>
     <use xlink:href="#DejaVuSans-Bold-6e" transform="translate(1231.787109 0)"/>
     <use xlink:href="#DejaVuSans-Bold-20" transform="translate(1302.978516 0)"/>
     <use xlink:href="#DejaVuSans-Bold-54" transform="translate(1337.792969 0)"/>
     <use xlink:href="#DejaVuSans-Bold-72" transform="translate(1395.005859 0)"/>
     <use xlink:href="#DejaVuSans-Bold-61" transform="translate(1444.322266 0)"/>
     <use xlink:href="#DejaVuSans-Bold-63" transform="translate(1511.802734 0)"/>
     <use xlink:href="#DejaVuSans-Bold-6b" transform="translate(1571.080078 0)"/>
     <use xlink:href="#DejaVuSans-Bold-69" transform="translate(1637.583984 0)"/>
     <use xlink:href="#DejaVuSans-Bold-6e" transform="translate(1671.861328 0)"/>
     <use xlink:href="#DejaVuSans-Bold-67" transform="translate(1743.052734 0)"/>
    </g>
    <!-- PID=0.0750m   EDMDc=0.0573m   Linear=0.0616m -->
    <g transform="translate(343.542031 35.856) scale(0.13 -0.13)">
     <defs>
      <path id="DejaVuSans-Bold-49" d="M 588 4666 
L 1791 4666 
L 1791 0 
L 588 0 
L 588 4666 
z
" transform="scale(0.015625)"/>
      <path id="DejaVuSans-Bold-44" d="M 1791 3756 
L 1791 909 
L 2222 909 
Q 2959 909 3348 1275 
Q 3738 1641 3738 2338 
Q 3738 3031 3350 3393 
Q 2963 3756 2222 3756 
L 1791 3756 
z
M 588 4666 
L 1856 4666 
Q 2919 4666 3439 4514 
Q 3959 4363 4331 4000 
Q 4659 3684 4818 3271 
Q 4978 2859 4978 2338 
Q 4978 1809 4818 1395 
Q 4659 981 4331 666 
Q 3956 303 3431 151 
Q 2906 0 1856 0 
L 588 0 
L 588 4666 
z
" transform="scale(0.015625)"/>
      <path id="DejaVuSans-Bold-3d" d="M 678 3084 
L 4684 3084 
L 4684 2350 
L 678 2350 
L 678 3084 
z
M 678 1663 
L 4684 1663 
L 4684 922 
L 678 922 
L 678 1663 
z
" transform="scale(0.015625)"/>
      <path id="DejaVuSans-Bold-30" d="M 2944 2338 
Q 2944 3213 2780 3570 
Q 2616 3928 2228 3928 
Q 1841 3928 1675 3570 
Q 1509 3213 1509 2338 
Q 1509 1453 1675 1090 
Q 1841 728 2228 728 
Q 2613 728 2778 1090 
Q 2944 1453 2944 2338 
z
M 4147 2328 
Q 4147 1169 3647 539 
Q 3147 -91 2228 -91 
Q 1306 -91 806 539 
Q 306 1169 306 2328 
Q 306 3491 806 4120 
Q 1306 4750 2228 4750 
Q 3147 4750 3647 4120 
Q 4147 3491 4147 2328 
z
" transform="scale(0.015625)"/>
      <path id="DejaVuSans-Bold-2e" d="M 653 1209 
L 1778 1209 
L 1778 0 
L 653 0 
L 653 1209 
z
" transform="scale(0.015625)"/>
      <path id="DejaVuSans-Bold-37" d="M 428 4666 
L 3944 4666 
L 3944 3988 
L 2125 0 
L 953 0 
L 2675 3781 
L 428 3781 
L 428 4666 
z
" transform="scale(0.015625)"/>
      <path id="DejaVuSans-Bold-35" d="M 678 4666 
L 3669 4666 
L 3669 3781 
L 1638 3781 
L 1638 3059 
Q 1775 3097 1914 3117 
Q 2053 3138 2203 3138 
Q 3056 3138 3531 2711 
Q 4006 2284 4006 1522 
Q 4006 766 3489 337 
Q 2972 -91 2053 -91 
Q 1656 -91 1267 -14 
Q 878 63 494 219 
L 494 1166 
Q 875 947 1217 837 
Q 1559 728 1863 728 
Q 2300 728 2551 942 
Q 2803 1156 2803 1522 
Q 2803 1891 2551 2103 
Q 2300 2316 1863 2316 
Q 1603 2316 1309 2248 
Q 1016 2181 678 2041 
L 678 4666 
z
" transform="scale(0.015625)"/>
      <path id="DejaVuSans-Bold-6d" d="M 3781 2919 
Q 3994 3244 4286 3414 
Q 4578 3584 4928 3584 
Q 5531 3584 5847 3212 
Q 6163 2841 6163 2131 
L 6163 0 
L 5038 0 
L 5038 1825 
Q 5041 1866 5042 1909 
Q 5044 1953 5044 2034 
Q 5044 2406 4934 2573 
Q 4825 2741 4581 2741 
Q 4263 2741 4089 2478 
Q 3916 2216 3909 1719 
L 3909 0 
L 2784 0 
L 2784 1825 
Q 2784 2406 2684 2573 
Q 2584 2741 2328 2741 
Q 2006 2741 1831 2477 
Q 1656 2213 1656 1722 
L 1656 0 
L 531 0 
L 531 3500 
L 1656 3500 
L 1656 2988 
Q 1863 3284 2130 3434 
Q 2397 3584 2719 3584 
Q 3081 3584 3359 3409 
Q 3638 3234 3781 2919 
z
" transform="scale(0.015625)"/>
      <path id="DejaVuSans-Bold-45" d="M 588 4666 
L 3834 4666 
L 3834 3756 
L 1791 3756 
L 1791 2888 
L 3713 2888 
L 3713 1978 
L 1791 1978 
L 1791 909 
L 3903 909 
L 3903 0 
L 588 0 
L 588 4666 
z
" transform="scale(0.015625)"/>
      <path id="DejaVuSans-Bold-4d" d="M 588 4666 
L 2119 4666 
L 3181 2169 
L 4250 4666 
L 5778 4666 
L 5778 0 
L 4641 0 
L 4641 3413 
L 3566 897 
L 2803 897 
L 1728 3413 
L 1728 0 
L 588 0 
L 588 4666 
z
" transform="scale(0.015625)"/>
      <path id="DejaVuSans-Bold-33" d="M 2981 2516 
Q 3453 2394 3698 2092 
Q 3944 1791 3944 1325 
Q 3944 631 3412 270 
Q 2881 -91 1863 -91 
Q 1503 -91 1142 -33 
Q 781 25 428 141 
L 428 1069 
Q 766 900 1098 814 
Q 1431 728 1753 728 
Q 2231 728 2486 893 
Q 2741 1059 2741 1369 
Q 2741 1688 2480 1852 
Q 2219 2016 1709 2016 
L 1228 2016 
L 1228 2791 
L 1734 2791 
Q 2188 2791 2409 2933 
Q 2631 3075 2631 3366 
Q 2631 3634 2415 3781 
Q 2200 3928 1806 3928 
Q 1516 3928 1219 3862 
Q 922 3797 628 3669 
L 628 4550 
Q 984 4650 1334 4700 
Q 1684 4750 2022 4750 
Q 2931 4750 3382 4451 
Q 3834 4153 3834 3553 
Q 3834 3144 3618 2883 
Q 3403 2622 2981 2516 
z
" transform="scale(0.015625)"/>
      <path id="DejaVuSans-Bold-4c" d="M 588 4666 
L 1791 4666 
L 1791 909 
L 3903 909 
L 3903 0 
L 588 0 
L 588 4666 
z
" transform="scale(0.015625)"/>
      <path id="DejaVuSans-Bold-36" d="M 2316 2303 
Q 2000 2303 1842 2098 
Q 1684 1894 1684 1484 
Q 1684 1075 1842 870 
Q 2000 666 2316 666 
Q 2634 666 2792 870 
Q 2950 1075 2950 1484 
Q 2950 1894 2792 2098 
Q 2634 2303 2316 2303 
z
M 3803 4544 
L 3803 3681 
Q 3506 3822 3243 3889 
Q 2981 3956 2731 3956 
Q 2194 3956 1894 3657 
Q 1594 3359 1544 2772 
Q 1750 2925 1990 3001 
Q 2231 3078 2516 3078 
Q 3231 3078 3670 2659 
Q 4109 2241 4109 1563 
Q 4109 813 3618 361 
Q 3128 -91 2303 -91 
Q 1394 -91 895 523 
Q 397 1138 397 2266 
Q 397 3422 980 4083 
Q 1563 4744 2578 4744 
Q 2900 4744 3203 4694 
Q 3506 4644 3803 4544 
z
" transform="scale(0.015625)"/>
     </defs>
     <use xlink:href="#DejaVuSans-Bold-50"/>
     <use xlink:href="#DejaVuSans-Bold-49" transform="translate(73.291016 0)"/>
     <use xlink:href="#DejaVuSans-Bold-44" transform="translate(110.498047 0)"/>
     <use xlink:href="#DejaVuSans-Bold-3d" transform="translate(193.505859 0)"/>
     <use xlink:href="#DejaVuSans-Bold-30" transform="translate(277.294922 0)"/>
     <use xlink:href="#DejaVuSans-Bold-2e" transform="translate(346.875 0)"/>
     <use xlink:href="#DejaVuSans-Bold-30" transform="translate(384.863281 0)"/>
     <use xlink:href="#DejaVuSans-Bold-37" transform="translate(454.443359 0)"/>
     <use xlink:href="#DejaVuSans-Bold-35" transform="translate(524.023438 0)"/>
     <use xlink:href="#DejaVuSans-Bold-30" transform="translate(593.603516 0)"/>
     <use xlink:href="#DejaVuSans-Bold-6d" transform="translate(663.183594 0)"/>
     <use xlink:href="#DejaVuSans-Bold-20" transform="translate(767.382812 0)"/>
     <use xlink:href="#DejaVuSans-Bold-20" transform="translate(802.197266 0)"/>
     <use xlink:href="#DejaVuSans-Bold-20" transform="translate(837.011719 0)"/>
     <use xlink:href="#DejaVuSans-Bold-45" transform="translate(871.826172 0)"/>
     <use xlink:href="#DejaVuSans-Bold-44" transform="translate(940.136719 0)"/>
     <use xlink:href="#DejaVuSans-Bold-4d" transform="translate(1023.144531 0)"/>
     <use xlink:href="#DejaVuSans-Bold-44" transform="translate(1122.65625 0)"/>
     <use xlink:href="#DejaVuSans-Bold-63" transform="translate(1205.664062 0)"/>
     <use xlink:href="#DejaVuSans-Bold-3d" transform="translate(1264.941406 0)"/>
     <use xlink:href="#DejaVuSans-Bold-30" transform="translate(1348.730469 0)"/>
     <use xlink:href="#DejaVuSans-Bold-2e" transform="translate(1418.310547 0)"/>
     <use xlink:href="#DejaVuSans-Bold-30" transform="translate(1456.298828 0)"/>
     <use xlink:href="#DejaVuSans-Bold-35" transform="translate(1525.878906 0)"/>
     <use xlink:href="#DejaVuSans-Bold-37" transform="translate(1595.458984 0)"/>
     <use xlink:href="#DejaVuSans-Bold-33" transform="translate(1665.039062 0)"/>
     <use xlink:href="#DejaVuSans-Bold-6d" transform="translate(1734.619141 0)"/>
     <use xlink:href="#DejaVuSans-Bold-20" transform="translate(1838.818359 0)"/>
     <use xlink:href="#DejaVuSans-Bold-20" transform="translate(1873.632812 0)"/>
     <use xlink:href="#DejaVuSans-Bold-20" transform="translate(1908.447266 0)"/>
     <use xlink:href="#DejaVuSans-Bold-4c" transform="translate(1943.261719 0)"/>
     <use xlink:href="#DejaVuSans-Bold-69" transform="translate(2006.982422 0)"/>
     <use xlink:href="#DejaVuSans-Bold-6e" transform="translate(2041.259766 0)"/>
     <use xlink:href="#DejaVuSans-Bold-65" transform="translate(2112.451172 0)"/>
     <use xlink:href="#DejaVuSans-Bold-61" transform="translate(2180.273438 0)"/>
     <use xlink:href="#DejaVuSans-Bold-72" transform="translate(2247.753906 0)"/>
     <use xlink:href="#DejaVuSans-Bold-3d" transform="translate(2297.070312 0)"/>
     <use xlink:href="#DejaVuSans-Bold-30" transform="translate(2380.859375 0)"/>
     <use xlink:href="#DejaVuSans-Bold-2e" transform="translate(2450.439453 0)"/>
     <use xlink:href="#DejaVuSans-Bold-30" transform="translate(2488.427734 0)"/>
     <use xlink:href="#DejaVuSans-Bold-36" transform="translate(2558.007812 0)"/>
     <use xlink:href="#DejaVuSans-Bold-31" transform="translate(2627.587891 0)"/>
     <use xlink:href="#DejaVuSans-Bold-36" transform="translate(2697.167969 0)"/>
     <use xlink:href="#DejaVuSans-Bold-6d" transform="translate(2766.748047 0)"/>
    </g>
   </g>
   <g id="legend_1">
    <g id="patch_7">
     <path d="M 897.535938 108.5685 
L 990.2 108.5685 
Q 992.2 108.5685 992.2 106.5685 
L 992.2 48.856 
Q 992.2 46.856 990.2 46.856 
L 897.535938 46.856 
Q 895.535938 46.856 895.535938 48.856 
L 895.535938 106.5685 
Q 895.535938 108.5685 897.535938 108.5685 
z
" style="fill: #ffffff; opacity: 0.8; stroke: #cccccc; stroke-linejoin: miter"/>
    </g>
    <g id="line2d_35">
     <path d="M 899.535938 54.954438 
L 909.535938 54.954438 
L 919.535938 54.954438 
" style="fill: none; stroke: #000000; stroke-width: 2.5; stroke-linecap: square"/>
    </g>
    <g id="text_19">
     <!-- Reference -->
     <g transform="translate(927.535938 58.454438) scale(0.1 -0.1)">
      <defs>
       <path id="DejaVuSans-52" d="M 2841 2188 
Q 3044 2119 3236 1894 
Q 3428 1669 3622 1275 
L 4263 0 
L 3584 0 
L 2988 1197 
Q 2756 1666 2539 1819 
Q 2322 1972 1947 1972 
L 1259 1972 
L 1259 0 
L 628 0 
L 628 4666 
L 2053 4666 
Q 2853 4666 3247 4331 
Q 3641 3997 3641 3322 
Q 3641 2881 3436 2590 
Q 3231 2300 2841 2188 
z
M 1259 4147 
L 1259 2491 
L 2053 2491 
Q 2509 2491 2742 2702 
Q 2975 2913 2975 3322 
Q 2975 3731 2742 3939 
Q 2509 4147 2053 4147 
L 1259 4147 
z
" transform="scale(0.015625)"/>
       <path id="DejaVuSans-66" d="M 2375 4863 
L 2375 4384 
L 1825 4384 
Q 1516 4384 1395 4259 
Q 1275 4134 1275 3809 
L 1275 3500 
L 2222 3500 
L 2222 3053 
L 1275 3053 
L 1275 0 
L 697 0 
L 697 3053 
L 147 3053 
L 147 3500 
L 697 3500 
L 697 3744 
Q 697 4328 969 4595 
Q 1241 4863 1831 4863 
L 2375 4863 
z
" transform="scale(0.015625)"/>
       <path id="DejaVuSans-72" d="M 2631 2963 
Q 2534 3019 2420 3045 
Q 2306 3072 2169 3072 
Q 1681 3072 1420 2755 
Q 1159 2438 1159 1844 
L 1159 0 
L 581 0 
L 581 3500 
L 1159 3500 
L 1159 2956 
Q 1341 3275 1631 3429 
Q 1922 3584 2338 3584 
Q 2397 3584 2469 3576 
Q 2541 3569 2628 3553 
L 2631 2963 
z
" transform="scale(0.015625)"/>
       <path id="DejaVuSans-6e" d="M 3513 2113 
L 3513 0 
L 2938 0 
L 2938 2094 
Q 2938 2591 2744 2837 
Q 2550 3084 2163 3084 
Q 1697 3084 1428 2787 
Q 1159 2491 1159 1978 
L 1159 0 
L 581 0 
L 581 3500 
L 1159 3500 
L 1159 2956 
Q 1366 3272 1645 3428 
Q 1925 3584 2291 3584 
Q 2894 3584 3203 3211 
Q 3513 2838 3513 2113 
z
" transform="scale(0.015625)"/>
       <path id="DejaVuSans-63" d="M 3122 3366 
L 3122 2828 
Q 2878 2963 2633 3030 
Q 2388 3097 2138 3097 
Q 1578 3097 1268 2742 
Q 959 2388 959 1747 
Q 959 1106 1268 751 
Q 1578 397 2138 397 
Q 2388 397 2633 464 
Q 2878 531 3122 666 
L 3122 134 
Q 2881 22 2623 -34 
Q 2366 -91 2075 -91 
Q 1284 -91 818 406 
Q 353 903 353 1747 
Q 353 2603 823 3093 
Q 1294 3584 2113 3584 
Q 2378 3584 2631 3529 
Q 2884 3475 3122 3366 
z
" transform="scale(0.015625)"/>
      </defs>
      <use xlink:href="#DejaVuSans-52"/>
      <use xlink:href="#DejaVuSans-65" transform="translate(64.982422 0)"/>
      <use xlink:href="#DejaVuSans-66" transform="translate(126.505859 0)"/>
      <use xlink:href="#DejaVuSans-65" transform="translate(161.710938 0)"/>
      <use xlink:href="#DejaVuSans-72" transform="translate(223.234375 0)"/>
      <use xlink:href="#DejaVuSans-65" transform="translate(262.097656 0)"/>
      <use xlink:href="#DejaVuSans-6e" transform="translate(323.621094 0)"/>
      <use xlink:href="#DejaVuSans-63" transform="translate(387 0)"/>
      <use xlink:href="#DejaVuSans-65" transform="translate(441.980469 0)"/>
     </g>
    </g>
    <g id="line2d_36">
     <path d="M 899.535938 69.632563 
L 909.535938 69.632563 
L 919.535938 69.632563 
" style="fill: none; stroke: #888888; stroke-opacity: 0.6; stroke-width: 1.2; stroke-linecap: square"/>
    </g>
    <g id="text_20">
     <!-- PID -->
     <g transform="translate(927.535938 73.132563) scale(0.1 -0.1)">
      <defs>
       <path id="DejaVuSans-50" d="M 1259 4147 
L 1259 2394 
L 2053 2394 
Q 2494 2394 2734 2622 
Q 2975 2850 2975 3272 
Q 2975 3691 2734 3919 
Q 2494 4147 2053 4147 
L 1259 4147 
z
M 628 4666 
L 2053 4666 
Q 2838 4666 3239 4311 
Q 3641 3956 3641 3272 
Q 3641 2581 3239 2228 
Q 2838 1875 2053 1875 
L 1259 1875 
L 1259 0 
L 628 0 
L 628 4666 
z
" transform="scale(0.015625)"/>
       <path id="DejaVuSans-49" d="M 628 4666 
L 1259 4666 
L 1259 0 
L 628 0 
L 628 4666 
z
" transform="scale(0.015625)"/>
       <path id="DejaVuSans-44" d="M 1259 4147 
L 1259 519 
L 2022 519 
Q 2988 519 3436 956 
Q 3884 1394 3884 2338 
Q 3884 3275 3436 3711 
Q 2988 4147 2022 4147 
L 1259 4147 
z
M 628 4666 
L 1925 4666 
Q 3281 4666 3915 4102 
Q 4550 3538 4550 2338 
Q 4550 1131 3912 565 
Q 3275 0 1925 0 
L 628 0 
L 628 4666 
z
" transform="scale(0.015625)"/>
      </defs>
      <use xlink:href="#DejaVuSans-50"/>
      <use xlink:href="#DejaVuSans-49" transform="translate(60.302734 0)"/>
      <use xlink:href="#DejaVuSans-44" transform="translate(89.794922 0)"/>
     </g>
    </g>
    <g id="line2d_37">
     <path d="M 899.535938 84.310688 
L 909.535938 84.310688 
L 919.535938 84.310688 
" style="fill: none; stroke: #2ca02c; stroke-width: 1.5; stroke-linecap: square"/>
    </g>
    <g id="text_21">
     <!-- EDMDc MPC -->
     <g transform="translate(927.535938 87.810688) scale(0.1 -0.1)">
      <defs>
       <path id="DejaVuSans-45" d="M 628 4666 
L 3578 4666 
L 3578 4134 
L 1259 4134 
L 1259 2753 
L 3481 2753 
L 3481 2222 
L 1259 2222 
L 1259 531 
L 3634 531 
L 3634 0 
L 628 0 
L 628 4666 
z
" transform="scale(0.015625)"/>
       <path id="DejaVuSans-4d" d="M 628 4666 
L 1569 4666 
L 2759 1491 
L 3956 4666 
L 4897 4666 
L 4897 0 
L 4281 0 
L 4281 4097 
L 3078 897 
L 2444 897 
L 1241 4097 
L 1241 0 
L 628 0 
L 628 4666 
z
" transform="scale(0.015625)"/>
       <path id="DejaVuSans-43" d="M 4122 4306 
L 4122 3641 
Q 3803 3938 3442 4084 
Q 3081 4231 2675 4231 
Q 1875 4231 1450 3742 
Q 1025 3253 1025 2328 
Q 1025 1406 1450 917 
Q 1875 428 2675 428 
Q 3081 428 3442 575 
Q 3803 722 4122 1019 
L 4122 359 
Q 3791 134 3420 21 
Q 3050 -91 2638 -91 
Q 1578 -91 968 557 
Q 359 1206 359 2328 
Q 359 3453 968 4101 
Q 1578 4750 2638 4750 
Q 3056 4750 3426 4639 
Q 3797 4528 4122 4306 
z
" transform="scale(0.015625)"/>
      </defs>
      <use xlink:href="#DejaVuSans-45"/>
      <use xlink:href="#DejaVuSans-44" transform="translate(63.183594 0)"/>
      <use xlink:href="#DejaVuSans-4d" transform="translate(140.185547 0)"/>
      <use xlink:href="#DejaVuSans-44" transform="translate(226.464844 0)"/>
      <use xlink:href="#DejaVuSans-63" transform="translate(303.466797 0)"/>
      <use xlink:href="#DejaVuSans-20" transform="translate(358.447266 0)"/>
      <use xlink:href="#DejaVuSans-4d" transform="translate(390.234375 0)"/>
      <use xlink:href="#DejaVuSans-50" transform="translate(476.513672 0)"/>
      <use xlink:href="#DejaVuSans-43" transform="translate(536.816406 0)"/>
     </g>
    </g>
    <g id="line2d_38">
     <path d="M 899.535938 98.988813 
L 909.535938 98.988813 
L 919.535938 98.988813 
" style="fill: none; stroke-dasharray: 4.44,1.92; stroke-dashoffset: 0; stroke: #1f77b4; stroke-width: 1.2"/>
    </g>
    <g id="text_22">
     <!-- Linear MPC -->
     <g transform="translate(927.535938 102.488813) scale(0.1 -0.1)">
      <defs>
       <path id="DejaVuSans-4c" d="M 628 4666 
L 1259 4666 
L 1259 531 
L 3531 531 
L 3531 0 
L 628 0 
L 628 4666 
z
" transform="scale(0.015625)"/>
       <path id="DejaVuSans-61" d="M 2194 1759 
Q 1497 1759 1228 1600 
Q 959 1441 959 1056 
Q 959 750 1161 570 
Q 1363 391 1709 391 
Q 2188 391 2477 730 
Q 2766 1069 2766 1631 
L 2766 1759 
L 2194 1759 
z
M 3341 1997 
L 3341 0 
L 2766 0 
L 2766 531 
Q 2569 213 2275 61 
Q 1981 -91 1556 -91 
Q 1019 -91 701 211 
Q 384 513 384 1019 
Q 384 1609 779 1909 
Q 1175 2209 1959 2209 
L 2766 2209 
L 2766 2266 
Q 2766 2663 2505 2880 
Q 2244 3097 1772 3097 
Q 1472 3097 1187 3025 
Q 903 2953 641 2809 
L 641 3341 
Q 956 3463 1253 3523 
Q 1550 3584 1831 3584 
Q 2591 3584 2966 3190 
Q 3341 2797 3341 1997 
z
" transform="scale(0.015625)"/>
      </defs>
      <use xlink:href="#DejaVuSans-4c"/>
      <use xlink:href="#DejaVuSans-69" transform="translate(55.712891 0)"/>
      <use xlink:href="#DejaVuSans-6e" transform="translate(83.496094 0)"/>
      <use xlink:href="#DejaVuSans-65" transform="translate(146.875 0)"/>
      <use xlink:href="#DejaVuSans-61" transform="translate(208.398438 0)"/>
      <use xlink:href="#DejaVuSans-72" transform="translate(269.677734 0)"/>
      <use xlink:href="#DejaVuSans-20" transform="translate(310.791016 0)"/>
      <use xlink:href="#DejaVuSans-4d" transform="translate(342.578125 0)"/>
      <use xlink:href="#DejaVuSans-50" transform="translate(428.857422 0)"/>
      <use xlink:href="#DejaVuSans-43" transform="translate(489.160156 0)"/>
     </g>
    </g>
   </g>
  </g>
 </g>
 <defs>
  <clipPath id="pa41886c865">
   <rect x="63.11" y="41.856" width="934.09" height="275.464"/>
  </clipPath>
 </defs>
</svg>
