<?xml version="1.0" encoding="utf-8" standalone="no"?>
<!DOCTYPE svg PUBLIC "-//W3C//DTD SVG 1.1//EN"
  "http://www.w3.org/Graphics/SVG/1.1/DTD/svg11.dtd">
<svg xmlns:xlink="http://www.w3.org/1999/xlink" width="1008pt" height="360pt" viewBox="0 0 1008 360" xmlns="http://www.w3.org/2000/svg" version="1.1">
 <metadata>
  <rdf:RDF xmlns:dc="http://purl.org/dc/elements/1.1/" xmlns:cc="http://creativecommons.org/ns#" xmlns:rdf="http://www.w3.org/1999/02/22-rdf-syntax-ns#">
   <cc:Work>
    <dc:type rdf:resource="http://purl.org/dc/dcmitype/StillImage"/>
    <dc:date>2026-03-30T18:28:25.792686</dc:date>
    <dc:format>image/svg+xml</dc:format>
    <dc:creator>
     <cc:Agent>
      <dc:title>Matplotlib v3.10.8, https://matplotlib.org/</dc:title>
     </cc:Agent>
    </dc:creator>
   </cc:Work>
  </rdf:RDF>
 </metadata>
 <defs>
  <style type="text/css">*{stroke-linejoin: round; stroke-linecap: butt}</style>
 </defs>
 <g id="figure_1">
  <g id="patch_1">
   <path d="M 0 360 
L 1008 360 
L 1008 0 
L 0 0 
z
" style="fill: #ffffff"/>
  </g>
  <g id="axes_1">
   <g id="patch_2">
    <path d="M 53.66 317.32 
L 997.2 317.32 
L 997.2 41.856 
L 53.66 41.856 
z
" style="fill: #ffffff"/>
   </g>
   <g id="line2d_1">
    <path d="M 96.548182 179.598192 
L 111.14476 153.133376 
L 118.872361 139.534932 
L 125.741339 127.87199 
L 131.751694 118.091573 
L 136.903428 110.084214 
L 142.055162 102.471928 
L 147.206895 95.297975 
L 151.500006 89.684016 
L 155.793118 84.424977 
L 160.086229 79.541619 
L 164.37934 75.053218 
L 167.813829 71.758825 
L 171.248318 68.736899 
L 174.682807 65.995074 
L 178.117296 63.540278 
L 181.551785 61.378712 
L 184.986274 59.515839 
L 188.420763 57.956366 
L 191.855253 56.704231 
L 194.431119 55.968754 
L 197.006986 55.408996 
L 199.582853 55.025754 
L 202.15872 54.819571 
L 204.734586 54.79074 
L 207.310453 54.939304 
L 209.88632 55.265049 
L 212.462187 55.767515 
L 215.038054 56.445986 
L 218.472543 57.622697 
L 221.907032 59.10759 
L 225.341521 60.896915 
L 228.77601 62.986148 
L 232.210499 65.370013 
L 235.644988 68.042486 
L 239.079477 70.996815 
L 242.513966 74.225535 
L 245.948455 77.720488 
L 250.241566 82.450057 
L 254.534677 87.563101 
L 258.827789 93.039439 
L 263.1209 98.857453 
L 268.272634 106.257657 
L 273.424367 114.074679 
L 279.434723 123.661962 
L 285.445079 133.681874 
L 292.314057 145.563407 
L 300.900279 160.884312 
L 317.214102 190.603722 
L 328.376192 210.680077 
L 336.103792 224.125541 
L 342.97277 235.604527 
L 348.983126 245.188448 
L 354.134859 253.002178 
L 359.286593 260.398728 
L 363.579704 266.213437 
L 367.872816 271.686246 
L 372.165927 276.795553 
L 376.459038 281.52119 
L 379.893527 285.012869 
L 383.328016 288.238208 
L 386.762505 291.189058 
L 390.196994 293.857963 
L 393.631483 296.238181 
L 397.065972 298.323697 
L 400.500461 300.109242 
L 403.93495 301.590305 
L 407.369439 302.763143 
L 409.945306 303.438688 
L 412.521173 303.938213 
L 415.09704 304.261009 
L 417.672907 304.406617 
L 420.248773 304.37483 
L 422.82464 304.165693 
L 425.400507 303.779503 
L 427.976374 303.216809 
L 430.55224 302.478412 
L 433.986729 301.222414 
L 437.421218 299.659122 
L 440.855708 297.792485 
L 444.290197 295.627219 
L 447.724686 293.168795 
L 451.159175 290.423424 
L 454.593664 287.398044 
L 458.028153 284.100297 
L 461.462642 280.538516 
L 465.755753 275.728762 
L 470.048864 270.53955 
L 474.341976 264.991362 
L 478.635087 259.106098 
L 483.78682 251.631641 
L 488.938554 243.747793 
L 494.94891 234.092441 
L 500.959266 224.015612 
L 507.828244 212.083248 
L 516.414466 196.72086 
L 547.324868 140.94913 
L 554.193846 129.231883 
L 560.204201 119.392659 
L 565.355935 111.326867 
L 570.507669 103.649084 
L 575.659402 96.402945 
L 579.952513 90.724014 
L 584.245625 85.3959 
L 588.538736 80.439633 
L 592.831847 75.874777 
L 596.266336 72.516872 
L 599.700825 69.429518 
L 603.135314 66.620515 
L 606.569803 64.09696 
L 610.004292 61.86523 
L 613.438782 59.930963 
L 616.873271 58.299046 
L 620.30776 56.973603 
L 623.742249 55.957982 
L 626.318115 55.401161 
L 628.893982 55.020865 
L 631.469849 54.817636 
L 634.045716 54.791763 
L 636.621582 54.943282 
L 639.197449 55.271977 
L 641.773316 55.777383 
L 644.349183 56.45878 
L 647.783672 57.639363 
L 651.218161 59.128087 
L 654.65265 60.921189 
L 658.087139 63.01414 
L 661.521628 65.401651 
L 664.956117 68.07769 
L 668.390606 71.035496 
L 671.825095 74.267596 
L 675.259584 77.765823 
L 679.552695 82.499322 
L 683.845807 87.616101 
L 688.138918 93.095965 
L 692.432029 98.917282 
L 697.583763 106.321136 
L 702.735496 114.141449 
L 708.745852 123.732089 
L 714.756208 133.754816 
L 721.625186 145.638875 
L 730.211409 160.961862 
L 746.525232 190.681847 
L 757.687321 210.756034 
L 765.414921 224.198804 
L 772.283899 235.67461 
L 778.294255 245.255166 
L 783.445989 253.0656 
L 788.597722 260.458493 
L 792.890834 266.269894 
L 797.183945 271.739173 
L 801.477056 276.844741 
L 805.770167 281.566445 
L 809.204656 285.054847 
L 812.639146 288.276804 
L 816.073635 291.224174 
L 819.508124 293.889511 
L 822.942613 296.266081 
L 826.377102 298.347878 
L 829.811591 300.129643 
L 833.24608 301.606875 
L 836.680569 302.77584 
L 839.256436 303.448458 
L 841.832302 303.945043 
L 844.408169 304.264889 
L 846.984036 304.407541 
L 849.559903 304.372797 
L 852.135769 304.160706 
L 854.711636 303.771569 
L 857.287503 303.20594 
L 859.86337 302.464622 
L 863.297859 301.204762 
L 866.732348 299.637652 
L 870.166837 297.767251 
L 873.601326 295.598286 
L 877.035815 293.136235 
L 880.470304 290.38732 
L 883.904793 287.358486 
L 887.339282 284.057386 
L 890.773771 280.49236 
L 895.066882 275.678716 
L 899.359994 270.48581 
L 903.653105 264.93414 
L 907.946216 259.045621 
L 913.09795 251.567573 
L 918.249683 243.680499 
L 924.260039 234.021867 
L 930.270395 223.942305 
L 937.139373 212.007511 
L 945.725596 196.643165 
L 954.311818 181.009956 
L 954.311818 181.009956 
" clip-path="url(#pca04c7186b)" style="fill: none; stroke: #000000; stroke-width: 2.5; stroke-linecap: square"/>
   </g>
   <g id="matplotlib.axis_1">
    <g id="xtick_1">
     <g id="line2d_2">
      <path d="M 96.548182 317.32 
L 96.548182 41.856 
" clip-path="url(#pca04c7186b)" style="fill: none; stroke: #b0b0b0; stroke-opacity: 0.3; stroke-width: 0.8; stroke-linecap: square"/>
     </g>
     <g id="line2d_3">
      <defs>
       <path id="mfb3689dcab" d="M 0 0 
L 0 3.5 
" style="stroke: #000000; stroke-width: 0.8"/>
      </defs>
      <g>
       <use xlink:href="#mfb3689dcab" x="96.548182" y="317.32" style="stroke: #000000; stroke-width: 0.8"/>
      </g>
     </g>
     <g id="text_1">
      <!-- 0 -->
      <g transform="translate(93.366932 331.918437) scale(0.1 -0.1)">
       <defs>
        <path id="DejaVuSans-30" d="M 2034 4250 
Q 1547 4250 1301 3770 
Q 1056 3291 1056 2328 
Q 1056 1369 1301 889 
Q 1547 409 2034 409 
Q 2525 409 2770 889 
Q 3016 1369 3016 2328 
Q 3016 3291 2770 3770 
Q 2525 4250 2034 4250 
z
M 2034 4750 
Q 2819 4750 3233 4129 
Q 3647 3509 3647 2328 
Q 3647 1150 3233 529 
Q 2819 -91 2034 -91 
Q 1250 -91 836 529 
Q 422 1150 422 2328 
Q 422 3509 836 4129 
Q 1250 4750 2034 4750 
z
" transform="scale(0.015625)"/>
       </defs>
       <use xlink:href="#DejaVuSans-30"/>
      </g>
     </g>
    </g>
    <g id="xtick_2">
     <g id="line2d_4">
      <path d="M 268.272634 317.32 
L 268.272634 41.856 
" clip-path="url(#pca04c7186b)" style="fill: none; stroke: #b0b0b0; stroke-opacity: 0.3; stroke-width: 0.8; stroke-linecap: square"/>
     </g>
     <g id="line2d_5">
      <g>
       <use xlink:href="#mfb3689dcab" x="268.272634" y="317.32" style="stroke: #000000; stroke-width: 0.8"/>
      </g>
     </g>
     <g id="text_2">
      <!-- 20 -->
      <g transform="translate(261.910134 331.918437) scale(0.1 -0.1)">
       <defs>
        <path id="DejaVuSans-32" d="M 1228 531 
L 3431 531 
L 3431 0 
L 469 0 
L 469 531 
Q 828 903 1448 1529 
Q 2069 2156 2228 2338 
Q 2531 2678 2651 2914 
Q 2772 3150 2772 3378 
Q 2772 3750 2511 3984 
Q 2250 4219 1831 4219 
Q 1534 4219 1204 4116 
Q 875 4013 500 3803 
L 500 4441 
Q 881 4594 1212 4672 
Q 1544 4750 1819 4750 
Q 2544 4750 2975 4387 
Q 3406 4025 3406 3419 
Q 3406 3131 3298 2873 
Q 3191 2616 2906 2266 
Q 2828 2175 2409 1742 
Q 1991 1309 1228 531 
z
" transform="scale(0.015625)"/>
       </defs>
       <use xlink:href="#DejaVuSans-32"/>
       <use xlink:href="#DejaVuSans-30" transform="translate(63.623047 0)"/>
      </g>
     </g>
    </g>
    <g id="xtick_3">
     <g id="line2d_6">
      <path d="M 439.997085 317.32 
L 439.997085 41.856 
" clip-path="url(#pca04c7186b)" style="fill: none; stroke: #b0b0b0; stroke-opacity: 0.3; stroke-width: 0.8; stroke-linecap: square"/>
     </g>
     <g id="line2d_7">
      <g>
       <use xlink:href="#mfb3689dcab" x="439.997085" y="317.32" style="stroke: #000000; stroke-width: 0.8"/>
      </g>
     </g>
     <g id="text_3">
      <!-- 40 -->
      <g transform="translate(433.634585 331.918437) scale(0.1 -0.1)">
       <defs>
        <path id="DejaVuSans-34" d="M 2419 4116 
L 825 1625 
L 2419 1625 
L 2419 4116 
z
M 2253 4666 
L 3047 4666 
L 3047 1625 
L 3713 1625 
L 3713 1100 
L 3047 1100 
L 3047 0 
L 2419 0 
L 2419 1100 
L 313 1100 
L 313 1709 
L 2253 4666 
z
" transform="scale(0.015625)"/>
       </defs>
       <use xlink:href="#DejaVuSans-34"/>
       <use xlink:href="#DejaVuSans-30" transform="translate(63.623047 0)"/>
      </g>
     </g>
    </g>
    <g id="xtick_4">
     <g id="line2d_8">
      <path d="M 611.721537 317.32 
L 611.721537 41.856 
" clip-path="url(#pca04c7186b)" style="fill: none; stroke: #b0b0b0; stroke-opacity: 0.3; stroke-width: 0.8; stroke-linecap: square"/>
     </g>
     <g id="line2d_9">
      <g>
       <use xlink:href="#mfb3689dcab" x="611.721537" y="317.32" style="stroke: #000000; stroke-width: 0.8"/>
      </g>
     </g>
     <g id="text_4">
      <!-- 60 -->
      <g transform="translate(605.359037 331.918437) scale(0.1 -0.1)">
       <defs>
        <path id="DejaVuSans-36" d="M 2113 2584 
Q 1688 2584 1439 2293 
Q 1191 2003 1191 1497 
Q 1191 994 1439 701 
Q 1688 409 2113 409 
Q 2538 409 2786 701 
Q 3034 994 3034 1497 
Q 3034 2003 2786 2293 
Q 2538 2584 2113 2584 
z
M 3366 4563 
L 3366 3988 
Q 3128 4100 2886 4159 
Q 2644 4219 2406 4219 
Q 1781 4219 1451 3797 
Q 1122 3375 1075 2522 
Q 1259 2794 1537 2939 
Q 1816 3084 2150 3084 
Q 2853 3084 3261 2657 
Q 3669 2231 3669 1497 
Q 3669 778 3244 343 
Q 2819 -91 2113 -91 
Q 1303 -91 875 529 
Q 447 1150 447 2328 
Q 447 3434 972 4092 
Q 1497 4750 2381 4750 
Q 2619 4750 2861 4703 
Q 3103 4656 3366 4563 
z
" transform="scale(0.015625)"/>
       </defs>
       <use xlink:href="#DejaVuSans-36"/>
       <use xlink:href="#DejaVuSans-30" transform="translate(63.623047 0)"/>
      </g>
     </g>
    </g>
    <g id="xtick_5">
     <g id="line2d_10">
      <path d="M 783.445989 317.32 
L 783.445989 41.856 
" clip-path="url(#pca04c7186b)" style="fill: none; stroke: #b0b0b0; stroke-opacity: 0.3; stroke-width: 0.8; stroke-linecap: square"/>
     </g>
     <g id="line2d_11">
      <g>
       <use xlink:href="#mfb3689dcab" x="783.445989" y="317.32" style="stroke: #000000; stroke-width: 0.8"/>
      </g>
     </g>
     <g id="text_5">
      <!-- 80 -->
      <g transform="translate(777.083489 331.918437) scale(0.1 -0.1)">
       <defs>
        <path id="DejaVuSans-38" d="M 2034 2216 
Q 1584 2216 1326 1975 
Q 1069 1734 1069 1313 
Q 1069 891 1326 650 
Q 1584 409 2034 409 
Q 2484 409 2743 651 
Q 3003 894 3003 1313 
Q 3003 1734 2745 1975 
Q 2488 2216 2034 2216 
z
M 1403 2484 
Q 997 2584 770 2862 
Q 544 3141 544 3541 
Q 544 4100 942 4425 
Q 1341 4750 2034 4750 
Q 2731 4750 3128 4425 
Q 3525 4100 3525 3541 
Q 3525 3141 3298 2862 
Q 3072 2584 2669 2484 
Q 3125 2378 3379 2068 
Q 3634 1759 3634 1313 
Q 3634 634 3220 271 
Q 2806 -91 2034 -91 
Q 1263 -91 848 271 
Q 434 634 434 1313 
Q 434 1759 690 2068 
Q 947 2378 1403 2484 
z
M 1172 3481 
Q 1172 3119 1398 2916 
Q 1625 2713 2034 2713 
Q 2441 2713 2670 2916 
Q 2900 3119 2900 3481 
Q 2900 3844 2670 4047 
Q 2441 4250 2034 4250 
Q 1625 4250 1398 4047 
Q 1172 3844 1172 3481 
z
" transform="scale(0.015625)"/>
       </defs>
       <use xlink:href="#DejaVuSans-38"/>
       <use xlink:href="#DejaVuSans-30" transform="translate(63.623047 0)"/>
      </g>
     </g>
    </g>
    <g id="xtick_6">
     <g id="line2d_12">
      <path d="M 955.17044 317.32 
L 955.17044 41.856 
" clip-path="url(#pca04c7186b)" style="fill: none; stroke: #b0b0b0; stroke-opacity: 0.3; stroke-width: 0.8; stroke-linecap: square"/>
     </g>
     <g id="line2d_13">
      <g>
       <use xlink:href="#mfb3689dcab" x="955.17044" y="317.32" style="stroke: #000000; stroke-width: 0.8"/>
      </g>
     </g>
     <g id="text_6">
      <!-- 100 -->
      <g transform="translate(945.62669 331.918437) scale(0.1 -0.1)">
       <defs>
        <path id="DejaVuSans-31" d="M 794 531 
L 1825 531 
L 1825 4091 
L 703 3866 
L 703 4441 
L 1819 4666 
L 2450 4666 
L 2450 531 
L 3481 531 
L 3481 0 
L 794 0 
L 794 531 
z
" transform="scale(0.015625)"/>
       </defs>
       <use xlink:href="#DejaVuSans-31"/>
       <use xlink:href="#DejaVuSans-30" transform="translate(63.623047 0)"/>
       <use xlink:href="#DejaVuSans-30" transform="translate(127.246094 0)"/>
      </g>
     </g>
    </g>
    <g id="text_7">
     <!-- Time [s] -->
     <g transform="translate(503.068203 346.356406) scale(0.11 -0.11)">
      <defs>
       <path id="DejaVuSans-54" d="M -19 4666 
L 3928 4666 
L 3928 4134 
L 2272 4134 
L 2272 0 
L 1638 0 
L 1638 4134 
L -19 4134 
L -19 4666 
z
" transform="scale(0.015625)"/>
       <path id="DejaVuSans-69" d="M 603 3500 
L 1178 3500 
L 1178 0 
L 603 0 
L 603 3500 
z
M 603 4863 
L 1178 4863 
L 1178 4134 
L 603 4134 
L 603 4863 
z
" transform="scale(0.015625)"/>
       <path id="DejaVuSans-6d" d="M 3328 2828 
Q 3544 3216 3844 3400 
Q 4144 3584 4550 3584 
Q 5097 3584 5394 3201 
Q 5691 2819 5691 2113 
L 5691 0 
L 5113 0 
L 5113 2094 
Q 5113 2597 4934 2840 
Q 4756 3084 4391 3084 
Q 3944 3084 3684 2787 
Q 3425 2491 3425 1978 
L 3425 0 
L 2847 0 
L 2847 2094 
Q 2847 2600 2669 2842 
Q 2491 3084 2119 3084 
Q 1678 3084 1418 2786 
Q 1159 2488 1159 1978 
L 1159 0 
L 581 0 
L 581 3500 
L 1159 3500 
L 1159 2956 
Q 1356 3278 1631 3431 
Q 1906 3584 2284 3584 
Q 2666 3584 2933 3390 
Q 3200 3197 3328 2828 
z
" transform="scale(0.015625)"/>
       <path id="DejaVuSans-65" d="M 3597 1894 
L 3597 1613 
L 953 1613 
Q 991 1019 1311 708 
Q 1631 397 2203 397 
Q 2534 397 2845 478 
Q 3156 559 3463 722 
L 3463 178 
Q 3153 47 2828 -22 
Q 2503 -91 2169 -91 
Q 1331 -91 842 396 
Q 353 884 353 1716 
Q 353 2575 817 3079 
Q 1281 3584 2069 3584 
Q 2775 3584 3186 3129 
Q 3597 2675 3597 1894 
z
M 3022 2063 
Q 3016 2534 2758 2815 
Q 2500 3097 2075 3097 
Q 1594 3097 1305 2825 
Q 1016 2553 972 2059 
L 3022 2063 
z
" transform="scale(0.015625)"/>
       <path id="DejaVuSans-20" transform="scale(0.015625)"/>
       <path id="DejaVuSans-5b" d="M 550 4863 
L 1875 4863 
L 1875 4416 
L 1125 4416 
L 1125 -397 
L 1875 -397 
L 1875 -844 
L 550 -844 
L 550 4863 
z
" transform="scale(0.015625)"/>
       <path id="DejaVuSans-73" d="M 2834 3397 
L 2834 2853 
Q 2591 2978 2328 3040 
Q 2066 3103 1784 3103 
Q 1356 3103 1142 2972 
Q 928 2841 928 2578 
Q 928 2378 1081 2264 
Q 1234 2150 1697 2047 
L 1894 2003 
Q 2506 1872 2764 1633 
Q 3022 1394 3022 966 
Q 3022 478 2636 193 
Q 2250 -91 1575 -91 
Q 1294 -91 989 -36 
Q 684 19 347 128 
L 347 722 
Q 666 556 975 473 
Q 1284 391 1588 391 
Q 1994 391 2212 530 
Q 2431 669 2431 922 
Q 2431 1156 2273 1281 
Q 2116 1406 1581 1522 
L 1381 1569 
Q 847 1681 609 1914 
Q 372 2147 372 2553 
Q 372 3047 722 3315 
Q 1072 3584 1716 3584 
Q 2034 3584 2315 3537 
Q 2597 3491 2834 3397 
z
" transform="scale(0.015625)"/>
       <path id="DejaVuSans-5d" d="M 1947 4863 
L 1947 -844 
L 622 -844 
L 622 -397 
L 1369 -397 
L 1369 4416 
L 622 4416 
L 622 4863 
L 1947 4863 
z
" transform="scale(0.015625)"/>
      </defs>
      <use xlink:href="#DejaVuSans-54"/>
      <use xlink:href="#DejaVuSans-69" transform="translate(57.958984 0)"/>
      <use xlink:href="#DejaVuSans-6d" transform="translate(85.742188 0)"/>
      <use xlink:href="#DejaVuSans-65" transform="translate(183.154297 0)"/>
      <use xlink:href="#DejaVuSans-20" transform="translate(244.677734 0)"/>
      <use xlink:href="#DejaVuSans-5b" transform="translate(276.464844 0)"/>
      <use xlink:href="#DejaVuSans-73" transform="translate(315.478516 0)"/>
      <use xlink:href="#DejaVuSans-5d" transform="translate(367.578125 0)"/>
     </g>
    </g>
   </g>
   <g id="matplotlib.axis_2">
    <g id="ytick_1">
     <g id="line2d_14">
      <path d="M 53.66 312.427295 
L 997.2 312.427295 
" clip-path="url(#pca04c7186b)" style="fill: none; stroke: #b0b0b0; stroke-opacity: 0.3; stroke-width: 0.8; stroke-linecap: square"/>
     </g>
     <g id="line2d_15">
      <defs>
       <path id="ma17132d85b" d="M 0 0 
L -3.5 0 
" style="stroke: #000000; stroke-width: 0.8"/>
      </defs>
      <g>
       <use xlink:href="#ma17132d85b" x="53.66" y="312.427295" style="stroke: #000000; stroke-width: 0.8"/>
      </g>
     </g>
     <g id="text_8">
      <!-- −15 -->
      <g transform="translate(25.555312 316.226513) scale(0.1 -0.1)">
       <defs>
        <path id="DejaVuSans-2212" d="M 678 2272 
L 4684 2272 
L 4684 1741 
L 678 1741 
L 678 2272 
z
" transform="scale(0.015625)"/>
        <path id="DejaVuSans-35" d="M 691 4666 
L 3169 4666 
L 3169 4134 
L 1269 4134 
L 1269 2991 
Q 1406 3038 1543 3061 
Q 1681 3084 1819 3084 
Q 2600 3084 3056 2656 
Q 3513 2228 3513 1497 
Q 3513 744 3044 326 
Q 2575 -91 1722 -91 
Q 1428 -91 1123 -41 
Q 819 9 494 109 
L 494 744 
Q 775 591 1075 516 
Q 1375 441 1709 441 
Q 2250 441 2565 725 
Q 2881 1009 2881 1497 
Q 2881 1984 2565 2268 
Q 2250 2553 1709 2553 
Q 1456 2553 1204 2497 
Q 953 2441 691 2322 
L 691 4666 
z
" transform="scale(0.015625)"/>
       </defs>
       <use xlink:href="#DejaVuSans-2212"/>
       <use xlink:href="#DejaVuSans-31" transform="translate(83.789062 0)"/>
       <use xlink:href="#DejaVuSans-35" transform="translate(147.412109 0)"/>
      </g>
     </g>
    </g>
    <g id="ytick_2">
     <g id="line2d_16">
      <path d="M 53.66 268.150927 
L 997.2 268.150927 
" clip-path="url(#pca04c7186b)" style="fill: none; stroke: #b0b0b0; stroke-opacity: 0.3; stroke-width: 0.8; stroke-linecap: square"/>
     </g>
     <g id="line2d_17">
      <g>
       <use xlink:href="#ma17132d85b" x="53.66" y="268.150927" style="stroke: #000000; stroke-width: 0.8"/>
      </g>
     </g>
     <g id="text_9">
      <!-- −10 -->
      <g transform="translate(25.555312 271.950146) scale(0.1 -0.1)">
       <use xlink:href="#DejaVuSans-2212"/>
       <use xlink:href="#DejaVuSans-31" transform="translate(83.789062 0)"/>
       <use xlink:href="#DejaVuSans-30" transform="translate(147.412109 0)"/>
      </g>
     </g>
    </g>
    <g id="ytick_3">
     <g id="line2d_18">
      <path d="M 53.66 223.874559 
L 997.2 223.874559 
" clip-path="url(#pca04c7186b)" style="fill: none; stroke: #b0b0b0; stroke-opacity: 0.3; stroke-width: 0.8; stroke-linecap: square"/>
     </g>
     <g id="line2d_19">
      <g>
       <use xlink:href="#ma17132d85b" x="53.66" y="223.874559" style="stroke: #000000; stroke-width: 0.8"/>
      </g>
     </g>
     <g id="text_10">
      <!-- −5 -->
      <g transform="translate(31.917812 227.673778) scale(0.1 -0.1)">
       <use xlink:href="#DejaVuSans-2212"/>
       <use xlink:href="#DejaVuSans-35" transform="translate(83.789062 0)"/>
      </g>
     </g>
    </g>
    <g id="ytick_4">
     <g id="line2d_20">
      <path d="M 53.66 179.598192 
L 997.2 179.598192 
" clip-path="url(#pca04c7186b)" style="fill: none; stroke: #b0b0b0; stroke-opacity: 0.3; stroke-width: 0.8; stroke-linecap: square"/>
     </g>
     <g id="line2d_21">
      <g>
       <use xlink:href="#ma17132d85b" x="53.66" y="179.598192" style="stroke: #000000; stroke-width: 0.8"/>
      </g>
     </g>
     <g id="text_11">
      <!-- 0 -->
      <g transform="translate(40.2975 183.397411) scale(0.1 -0.1)">
       <use xlink:href="#DejaVuSans-30"/>
      </g>
     </g>
    </g>
    <g id="ytick_5">
     <g id="line2d_22">
      <path d="M 53.66 135.321824 
L 997.2 135.321824 
" clip-path="url(#pca04c7186b)" style="fill: none; stroke: #b0b0b0; stroke-opacity: 0.3; stroke-width: 0.8; stroke-linecap: square"/>
     </g>
     <g id="line2d_23">
      <g>
       <use xlink:href="#ma17132d85b" x="53.66" y="135.321824" style="stroke: #000000; stroke-width: 0.8"/>
      </g>
     </g>
     <g id="text_12">
      <!-- 5 -->
      <g transform="translate(40.2975 139.121043) scale(0.1 -0.1)">
       <use xlink:href="#DejaVuSans-35"/>
      </g>
     </g>
    </g>
    <g id="ytick_6">
     <g id="line2d_24">
      <path d="M 53.66 91.045457 
L 997.2 91.045457 
" clip-path="url(#pca04c7186b)" style="fill: none; stroke: #b0b0b0; stroke-opacity: 0.3; stroke-width: 0.8; stroke-linecap: square"/>
     </g>
     <g id="line2d_25">
      <g>
       <use xlink:href="#ma17132d85b" x="53.66" y="91.045457" style="stroke: #000000; stroke-width: 0.8"/>
      </g>
     </g>
     <g id="text_13">
      <!-- 10 -->
      <g transform="translate(33.935 94.844676) scale(0.1 -0.1)">
       <use xlink:href="#DejaVuSans-31"/>
       <use xlink:href="#DejaVuSans-30" transform="translate(63.623047 0)"/>
      </g>
     </g>
    </g>
    <g id="ytick_7">
     <g id="line2d_26">
      <path d="M 53.66 46.769089 
L 997.2 46.769089 
" clip-path="url(#pca04c7186b)" style="fill: none; stroke: #b0b0b0; stroke-opacity: 0.3; stroke-width: 0.8; stroke-linecap: square"/>
     </g>
     <g id="line2d_27">
      <g>
       <use xlink:href="#ma17132d85b" x="53.66" y="46.769089" style="stroke: #000000; stroke-width: 0.8"/>
      </g>
     </g>
     <g id="text_14">
      <!-- 15 -->
      <g transform="translate(33.935 50.568308) scale(0.1 -0.1)">
       <use xlink:href="#DejaVuSans-31"/>
       <use xlink:href="#DejaVuSans-35" transform="translate(63.623047 0)"/>
      </g>
     </g>
    </g>
    <g id="text_15">
     <!-- z [m] -->
     <g transform="translate(19.267656 193.871672) rotate(-90) scale(0.11 -0.11)">
      <defs>
       <path id="DejaVuSans-7a" d="M 353 3500 
L 3084 3500 
L 3084 2975 
L 922 459 
L 3084 459 
L 3084 0 
L 275 0 
L 275 525 
L 2438 3041 
L 353 3041 
L 353 3500 
z
" transform="scale(0.015625)"/>
      </defs>
      <use xlink:href="#DejaVuSans-7a"/>
      <use xlink:href="#DejaVuSans-20" transform="translate(52.490234 0)"/>
      <use xlink:href="#DejaVuSans-5b" transform="translate(84.277344 0)"/>
      <use xlink:href="#DejaVuSans-6d" transform="translate(123.291016 0)"/>
      <use xlink:href="#DejaVuSans-5d" transform="translate(220.703125 0)"/>
     </g>
    </g>
   </g>
   <g id="line2d_28">
    <path d="M 96.548182 179.598192 
L 97.406804 179.459126 
L 98.265426 179.006758 
L 99.124049 178.303403 
L 100.841293 176.440665 
L 102.558538 174.306842 
L 104.275782 171.657574 
L 105.993027 168.251495 
L 108.568893 162.153593 
L 112.003382 154.161761 
L 115.437872 146.717852 
L 118.872361 139.743113 
L 123.165472 131.582974 
L 127.458583 123.950602 
L 131.751694 116.771686 
L 136.044806 109.996164 
L 140.337917 103.592555 
L 144.631028 97.542259 
L 148.92414 91.840547 
L 153.217251 86.491645 
L 157.510362 81.50299 
L 161.803473 76.887556 
L 166.096585 72.660124 
L 169.531074 69.566781 
L 172.965563 66.739485 
L 176.400052 64.186673 
L 179.834541 61.915625 
L 183.26903 59.933004 
L 186.703519 58.244268 
L 190.138008 56.855432 
L 193.572497 55.771264 
L 196.148364 55.160112 
L 198.724231 54.723484 
L 201.300097 54.46229 
L 203.875964 54.377091 
L 206.451831 54.468602 
L 209.027698 54.737029 
L 211.603564 55.181873 
L 214.179431 55.802797 
L 216.755298 56.599235 
L 220.189787 57.931553 
L 223.624276 59.570631 
L 227.058765 61.51297 
L 230.493254 63.75392 
L 233.927743 66.287781 
L 237.362232 69.106752 
L 240.796721 72.205421 
L 244.23121 75.574454 
L 247.665699 79.206254 
L 251.958811 84.102615 
L 256.251922 89.376247 
L 260.545033 95.005073 
L 264.838145 100.968031 
L 269.989878 108.531621 
L 275.141612 116.498669 
L 281.151967 126.24298 
L 287.162323 136.399853 
L 294.889924 149.936806 
L 304.334768 166.97997 
L 329.234814 212.202545 
L 336.962414 225.634008 
L 342.97277 235.682285 
L 348.983126 245.297464 
L 354.134859 253.138302 
L 359.286593 260.561515 
L 363.579704 266.397277 
L 367.872816 271.89161 
L 372.165927 277.021075 
L 376.459038 281.766144 
L 379.893527 285.272579 
L 383.328016 288.512468 
L 386.762505 291.477243 
L 390.196994 294.159496 
L 393.631483 296.552984 
L 397.065972 298.650196 
L 400.500461 300.446693 
L 403.93495 301.938275 
L 407.369439 303.120559 
L 409.945306 303.803163 
L 412.521173 304.309384 
L 415.09704 304.637929 
L 417.672907 304.788371 
L 420.248773 304.760731 
L 422.82464 304.555968 
L 425.400507 304.173699 
L 427.976374 303.614085 
L 430.55224 302.877877 
L 433.986729 301.62361 
L 437.421218 300.060913 
L 440.855708 298.194261 
L 444.290197 296.028378 
L 447.724686 293.568384 
L 451.159175 290.820654 
L 454.593664 287.79127 
L 458.028153 284.488526 
L 461.462642 280.920841 
L 465.755753 276.102852 
L 470.048864 270.902973 
L 474.341976 265.342074 
L 478.635087 259.442771 
L 483.78682 251.948675 
L 488.938554 244.044304 
L 494.94891 234.363151 
L 500.959266 224.257991 
L 507.828244 212.291465 
L 516.414466 196.88156 
L 547.324868 140.922353 
L 554.193846 129.163249 
L 560.204201 119.286567 
L 565.355935 111.190355 
L 570.507669 103.483699 
L 575.659402 96.210139 
L 579.952513 90.508225 
L 584.245625 85.158182 
L 588.538736 80.181191 
L 592.831847 75.596739 
L 596.266336 72.223826 
L 599.700825 69.122804 
L 603.135314 66.300968 
L 606.569803 63.765073 
L 610.004292 61.521862 
L 613.438782 59.576748 
L 616.873271 57.935231 
L 620.30776 56.60112 
L 622.883626 55.804281 
L 625.459493 55.18364 
L 628.03536 54.739737 
L 630.611227 54.473481 
L 633.187093 54.384674 
L 635.76296 54.47399 
L 638.338827 54.741735 
L 640.914694 55.187196 
L 643.490561 55.808711 
L 646.066427 56.606809 
L 649.500916 57.942719 
L 652.935405 59.585792 
L 656.369894 61.532284 
L 659.804383 63.776641 
L 663.238873 66.313175 
L 666.673362 69.136461 
L 670.107851 72.238954 
L 673.54234 75.612824 
L 676.976829 79.249533 
L 681.26994 84.149981 
L 685.563051 89.427704 
L 689.856163 95.060792 
L 694.149274 101.027927 
L 699.301007 108.595042 
L 704.452741 116.565313 
L 710.463097 126.314087 
L 717.332075 137.953703 
L 725.059675 151.544949 
L 735.363142 170.193318 
L 756.828699 209.230605 
L 764.556299 222.767277 
L 771.425277 234.342307 
L 777.435633 244.02128 
L 782.587366 251.924113 
L 787.7391 259.415787 
L 792.032211 265.314763 
L 796.325323 270.874707 
L 800.618434 276.075052 
L 804.911545 280.894623 
L 809.204656 285.314882 
L 812.639146 288.551221 
L 816.073635 291.512411 
L 819.508124 294.19112 
L 822.942613 296.580957 
L 826.377102 298.675041 
L 829.811591 300.467877 
L 833.24608 301.95505 
L 836.680569 303.133575 
L 839.256436 303.813112 
L 841.832302 304.315963 
L 844.408169 304.64136 
L 846.984036 304.788973 
L 849.559903 304.758555 
L 852.135769 304.550426 
L 854.711636 304.16488 
L 857.287503 303.602259 
L 859.86337 302.86347 
L 863.297859 301.606286 
L 866.732348 300.040419 
L 870.166837 298.169916 
L 873.601326 296.000498 
L 877.035815 293.537487 
L 880.470304 290.785795 
L 883.904793 287.752887 
L 887.339282 284.446482 
L 890.773771 280.875025 
L 895.066882 276.051476 
L 899.359994 270.847352 
L 903.653105 265.282847 
L 907.946216 259.380194 
L 913.09795 251.882961 
L 918.249683 243.976108 
L 924.260039 234.291842 
L 930.270395 224.184803 
L 937.139373 212.215679 
L 945.725596 196.803968 
L 954.311818 181.120623 
L 954.311818 181.120623 
" clip-path="url(#pca04c7186b)" style="fill: none; stroke: #888888; stroke-opacity: 0.6; stroke-width: 1.2; stroke-linecap: square"/>
   </g>
   <g id="patch_3">
    <path d="M 53.66 317.32 
L 53.66 41.856 
" style="fill: none; stroke: #000000; stroke-width: 0.8; stroke-linejoin: miter; stroke-linecap: square"/>
   </g>
   <g id="patch_4">
    <path d="M 997.2 317.32 
L 997.2 41.856 
" style="fill: none; stroke: #000000; stroke-width: 0.8; stroke-linejoin: miter; stroke-linecap: square"/>
   </g>
   <g id="patch_5">
    <path d="M 53.66 317.32 
L 997.2 317.32 
" style="fill: none; stroke: #000000; stroke-width: 0.8; stroke-linejoin: miter; stroke-linecap: square"/>
   </g>
   <g id="patch_6">
    <path d="M 53.66 41.856 
L 997.2 41.856 
" style="fill: none; stroke: #000000; stroke-width: 0.8; stroke-linejoin: miter; stroke-linecap: square"/>
   </g>
   <g id="line2d_29">
    <path d="M 96.548182 179.598192 
L 97.406804 179.415587 
L 98.265426 178.901824 
L 99.124049 178.125641 
L 100.841293 176.094221 
L 104.275782 171.502388 
L 105.993027 168.437816 
L 107.710271 164.610192 
L 109.427516 160.146182 
L 112.003382 152.779902 
L 113.720627 149.033716 
L 117.155116 142.700659 
L 122.30685 133.736206 
L 128.317205 123.704481 
L 134.327561 114.155128 
L 139.479295 106.354041 
L 144.631028 98.953713 
L 148.92414 93.121088 
L 153.217251 87.624851 
L 157.510362 82.493947 
L 161.803473 77.739198 
L 165.237963 74.231303 
L 168.672452 70.986305 
L 172.106941 68.014414 
L 175.54143 65.328944 
L 178.975919 62.927993 
L 182.410408 60.82523 
L 185.844897 59.022156 
L 189.279386 57.522945 
L 192.713875 56.335071 
L 196.148364 55.454673 
L 198.724231 55.001773 
L 201.300097 54.727327 
L 203.875964 54.627375 
L 206.451831 54.70578 
L 209.027698 54.964658 
L 211.603564 55.398181 
L 214.179431 56.005313 
L 216.755298 56.789888 
L 219.331165 57.75271 
L 222.765654 59.299186 
L 226.200143 61.148758 
L 229.634632 63.302349 
L 233.069121 65.747997 
L 236.50361 68.474678 
L 239.938099 71.492484 
L 243.372588 74.776748 
L 246.807077 78.323219 
L 251.100188 83.127618 
L 255.3933 88.306095 
L 259.686411 93.854195 
L 263.979522 99.736931 
L 268.272634 105.97734 
L 274.282989 115.156465 
L 279.434723 123.459185 
L 287.162323 136.43872 
L 294.031301 148.485757 
L 302.617524 163.914985 
L 327.517569 209.132858 
L 334.386547 221.123409 
L 341.255526 232.729532 
L 347.265881 242.409564 
L 352.417615 250.356633 
L 357.569348 257.843475 
L 362.721082 264.944927 
L 367.014193 270.498087 
L 371.307305 275.704074 
L 375.600416 280.523455 
L 379.893527 284.952944 
L 383.328016 288.200114 
L 386.762505 291.165043 
L 390.196994 293.850077 
L 393.631483 296.250622 
L 397.065972 298.352357 
L 400.500461 300.154721 
L 403.93495 301.649637 
L 407.369439 302.837999 
L 409.945306 303.526945 
L 412.521173 304.036399 
L 415.09704 304.368089 
L 417.672907 304.524504 
L 420.248773 304.50544 
L 422.82464 304.306152 
L 425.400507 303.927845 
L 427.976374 303.374365 
L 430.55224 302.648577 
L 433.128107 301.744828 
L 436.562596 300.270284 
L 439.997085 298.490333 
L 443.431574 296.411674 
L 446.866063 294.042623 
L 450.300552 291.378127 
L 453.735041 288.430599 
L 457.16953 285.214154 
L 460.604019 281.728725 
L 464.897131 277.006493 
L 469.190242 271.90286 
L 473.483353 266.431394 
L 477.776465 260.614429 
L 482.069576 254.464522 
L 487.221309 246.687852 
L 492.373043 238.519316 
L 499.242021 227.115351 
L 506.969621 213.726702 
L 517.273089 195.246085 
L 544.749001 145.501966 
L 551.617979 133.63901 
L 558.486957 122.238818 
L 563.638691 114.079928 
L 568.790424 106.294034 
L 573.942158 98.893675 
L 578.235269 93.063943 
L 582.52838 87.569495 
L 586.821491 82.443975 
L 591.114603 77.695739 
L 594.549092 74.186909 
L 597.983581 70.944356 
L 601.41807 67.978132 
L 604.852559 65.293797 
L 608.287048 62.900796 
L 611.721537 60.80027 
L 615.156026 58.999222 
L 618.590515 57.506031 
L 622.025004 56.32154 
L 624.600871 55.635435 
L 627.176738 55.124957 
L 629.752604 54.792682 
L 632.328471 54.640047 
L 634.904338 54.664114 
L 637.480205 54.862307 
L 640.056072 55.238273 
L 642.631938 55.792613 
L 645.207805 56.523392 
L 648.642294 57.768831 
L 652.076783 59.319021 
L 655.511272 61.176035 
L 658.945761 63.326442 
L 662.38025 65.778946 
L 665.814739 68.515873 
L 669.249228 71.525925 
L 672.683717 74.81624 
L 676.976829 79.302495 
L 681.26994 84.17909 
L 685.563051 89.438546 
L 689.856163 95.058909 
L 694.149274 101.032549 
L 699.301007 108.604523 
L 704.452741 116.59072 
L 710.463097 126.370749 
L 716.473453 136.524731 
L 725.059675 151.605659 
L 734.50452 168.686344 
L 755.111454 206.128269 
L 763.697677 221.225979 
L 770.566655 232.789317 
L 775.718388 241.14969 
L 780.870122 249.105669 
L 786.021855 256.706109 
L 790.314967 262.694349 
L 795.4667 269.467109 
L 799.759812 274.736944 
L 804.052923 279.640597 
L 808.346034 284.139322 
L 811.780523 287.447525 
L 815.215012 290.486427 
L 818.649501 293.237922 
L 822.08399 295.702684 
L 825.518479 297.87867 
L 828.952968 299.753461 
L 832.387457 301.319926 
L 835.821946 302.583258 
L 838.397813 303.327215 
L 840.97368 303.891355 
L 843.549547 304.279982 
L 846.125414 304.494823 
L 848.70128 304.529846 
L 851.277147 304.385021 
L 853.853014 304.065256 
L 856.428881 303.569811 
L 859.004747 302.895216 
L 862.439237 301.72594 
L 865.873726 300.249637 
L 869.308215 298.465572 
L 872.742704 296.385458 
L 876.177193 294.006289 
L 879.611682 291.339197 
L 883.046171 288.397027 
L 886.48066 285.167663 
L 889.915149 281.68264 
L 893.349638 277.935306 
L 897.642749 272.898882 
L 901.93586 267.498721 
L 906.228972 261.745266 
L 910.522083 255.651019 
L 915.673817 247.958963 
L 920.82555 239.840971 
L 927.694528 228.500381 
L 933.704884 218.170522 
L 943.149729 201.399082 
L 953.453196 182.925957 
L 954.311818 181.688429 
L 954.311818 181.688429 
" clip-path="url(#pca04c7186b)" style="fill: none; stroke: #2ca02c; stroke-width: 1.5; stroke-linecap: square"/>
   </g>
   <g id="line2d_30">
    <path d="M 96.548182 179.598192 
L 97.406804 179.415587 
L 98.265426 178.901823 
L 99.124049 178.125001 
L 100.841293 176.088857 
L 103.41716 172.623621 
L 105.134404 169.773221 
L 106.851649 166.130245 
L 108.568893 161.840064 
L 111.14476 154.851406 
L 112.862005 150.816715 
L 114.579249 147.382474 
L 118.013738 141.24745 
L 124.882716 129.510819 
L 130.893072 119.659672 
L 136.044806 111.582052 
L 141.196539 103.891269 
L 146.348273 96.630851 
L 150.641384 90.939265 
L 154.934495 85.597849 
L 159.227607 80.62759 
L 163.520718 76.047901 
L 166.955207 72.6781 
L 170.389696 69.578392 
L 173.824185 66.7567 
L 177.258674 64.220278 
L 180.693163 61.975351 
L 184.127652 60.027794 
L 187.562141 58.382457 
L 190.99663 57.043471 
L 194.431119 56.01406 
L 197.006986 55.446959 
L 199.582853 55.056448 
L 202.15872 54.84299 
L 204.734586 54.806901 
L 207.310453 54.948232 
L 209.88632 55.266795 
L 212.462187 55.762082 
L 215.038054 56.433266 
L 217.61392 57.279747 
L 221.048409 58.678814 
L 224.482898 60.383381 
L 227.917387 62.389279 
L 231.351876 64.691303 
L 234.786365 67.28377 
L 238.220854 70.160179 
L 241.655344 73.313181 
L 245.089833 76.734778 
L 249.382944 81.376246 
L 253.676055 86.405744 
L 257.969166 91.803234 
L 262.262278 97.54732 
L 267.414011 104.865943 
L 272.565745 112.609398 
L 277.717478 120.733926 
L 283.727834 130.632048 
L 290.596812 142.403882 
L 298.324413 156.090579 
L 310.345124 177.913085 
L 325.800325 205.953964 
L 334.386547 221.042128 
L 341.255526 232.653707 
L 347.265881 242.378089 
L 352.417615 250.330178 
L 357.569348 257.880232 
L 362.721082 264.985628 
L 367.014193 270.537775 
L 371.307305 275.731355 
L 375.600416 280.545504 
L 379.893527 284.961332 
L 383.328016 288.19532 
L 386.762505 291.155211 
L 390.196994 293.833241 
L 393.631483 296.222792 
L 397.065972 298.31773 
L 400.500461 300.112927 
L 403.93495 301.603565 
L 407.369439 302.786025 
L 409.945306 303.468931 
L 412.521173 303.975863 
L 415.09704 304.305968 
L 417.672907 304.458859 
L 420.248773 304.434365 
L 422.82464 304.232566 
L 425.400507 303.853629 
L 427.976374 303.298082 
L 430.55224 302.566765 
L 433.986729 301.320095 
L 437.421218 299.766045 
L 440.855708 297.908492 
L 444.290197 295.752191 
L 447.724686 293.302506 
L 451.159175 290.565358 
L 454.593664 287.547992 
L 458.028153 284.258239 
L 461.462642 280.703952 
L 465.755753 275.903168 
L 470.048864 270.72255 
L 474.341976 265.182204 
L 478.635087 259.304164 
L 483.78682 251.837474 
L 488.938554 243.960513 
L 494.94891 234.311851 
L 500.959266 224.240375 
L 507.828244 212.312441 
L 516.414466 196.952703 
L 547.324868 141.165037 
L 554.193846 129.439006 
L 560.204201 119.590863 
L 565.355935 111.516328 
L 570.507669 103.828863 
L 575.659402 96.572337 
L 579.952513 90.884065 
L 584.245625 85.546285 
L 588.538736 80.579882 
L 592.831847 76.004195 
L 596.266336 72.637569 
L 599.700825 69.541321 
L 603.135314 66.723323 
L 606.569803 64.190341 
L 610.004292 61.94922 
L 613.438782 60.005299 
L 616.873271 58.363871 
L 620.30776 57.028675 
L 623.742249 56.003269 
L 626.318115 55.439021 
L 628.893982 55.051353 
L 631.469849 54.841007 
L 634.045716 54.807846 
L 636.621582 54.952024 
L 639.197449 55.273442 
L 641.773316 55.7717 
L 644.349183 56.446064 
L 646.92505 57.295547 
L 650.359539 58.698288 
L 653.794028 60.40652 
L 657.228517 62.416182 
L 660.663006 64.72186 
L 664.097495 67.318025 
L 667.531984 70.197945 
L 670.966473 73.354292 
L 674.400962 76.779164 
L 678.694073 81.424698 
L 682.987184 86.457917 
L 687.280296 91.85906 
L 691.573407 97.606415 
L 696.725141 104.928661 
L 701.876874 112.675759 
L 707.028608 120.802987 
L 713.038964 130.704222 
L 719.907942 142.478751 
L 727.635542 156.167512 
L 739.656254 177.991572 
L 755.111454 206.030675 
L 763.697677 221.116232 
L 770.566655 232.724538 
L 776.577011 242.446121 
L 781.728744 250.394672 
L 786.880478 257.94133 
L 792.032211 265.042876 
L 796.325323 270.591607 
L 800.618434 275.781406 
L 804.911545 280.591633 
L 809.204656 285.003366 
L 812.639146 288.23416 
L 816.073635 291.19048 
L 819.508124 293.864887 
L 822.942613 296.250788 
L 826.377102 298.34203 
L 829.811591 300.133392 
L 833.24608 301.620262 
L 836.680569 302.798919 
L 839.256436 303.478839 
L 841.832302 303.982813 
L 844.408169 304.310024 
L 846.984036 304.459843 
L 849.559903 304.432492 
L 852.135769 304.227682 
L 854.711636 303.845764 
L 857.287503 303.28726 
L 859.86337 302.553067 
L 863.297859 301.302681 
L 866.732348 299.744836 
L 870.166837 297.883474 
L 873.601326 295.723154 
L 877.035815 293.269889 
L 880.470304 290.52937 
L 883.904793 287.508725 
L 887.339282 284.215344 
L 890.773771 280.658045 
L 895.066882 275.853369 
L 899.359994 270.668734 
L 903.653105 265.124812 
L 907.946216 259.243676 
L 913.09795 251.773589 
L 918.249683 243.893197 
L 924.260039 234.241544 
L 930.270395 224.167073 
L 937.139373 212.236749 
L 945.725596 196.874898 
L 953.453196 182.930445 
L 954.311818 181.693644 
L 954.311818 181.693644 
" clip-path="url(#pca04c7186b)" style="fill: none; stroke-dasharray: 4.44,1.92; stroke-dashoffset: 0; stroke: #1f77b4; stroke-width: 1.2"/>
   </g>
   <g id="text_16">
    <!-- figure-8_1 — Z Position Tracking -->
    <g transform="translate(407.473281 20.937281) scale(0.13 -0.13)">
     <defs>
      <path id="DejaVuSans-Bold-66" d="M 2841 4863 
L 2841 4128 
L 2222 4128 
Q 1984 4128 1890 4042 
Q 1797 3956 1797 3744 
L 1797 3500 
L 2753 3500 
L 2753 2700 
L 1797 2700 
L 1797 0 
L 678 0 
L 678 2700 
L 122 2700 
L 122 3500 
L 678 3500 
L 678 3744 
Q 678 4316 997 4589 
Q 1316 4863 1984 4863 
L 2841 4863 
z
" transform="scale(0.015625)"/>
      <path id="DejaVuSans-Bold-69" d="M 538 3500 
L 1656 3500 
L 1656 0 
L 538 0 
L 538 3500 
z
M 538 4863 
L 1656 4863 
L 1656 3950 
L 538 3950 
L 538 4863 
z
" transform="scale(0.015625)"/>
      <path id="DejaVuSans-Bold-67" d="M 2919 594 
Q 2688 288 2409 144 
Q 2131 0 1766 0 
Q 1125 0 706 504 
Q 288 1009 288 1791 
Q 288 2575 706 3076 
Q 1125 3578 1766 3578 
Q 2131 3578 2409 3434 
Q 2688 3291 2919 2981 
L 2919 3500 
L 4044 3500 
L 4044 353 
Q 4044 -491 3511 -936 
Q 2978 -1381 1966 -1381 
Q 1638 -1381 1331 -1331 
Q 1025 -1281 716 -1178 
L 716 -306 
Q 1009 -475 1290 -558 
Q 1572 -641 1856 -641 
Q 2406 -641 2662 -400 
Q 2919 -159 2919 353 
L 2919 594 
z
M 2181 2772 
Q 1834 2772 1640 2515 
Q 1447 2259 1447 1791 
Q 1447 1309 1634 1061 
Q 1822 813 2181 813 
Q 2531 813 2725 1069 
Q 2919 1325 2919 1791 
Q 2919 2259 2725 2515 
Q 2531 2772 2181 2772 
z
" transform="scale(0.015625)"/>
      <path id="DejaVuSans-Bold-75" d="M 500 1363 
L 500 3500 
L 1625 3500 
L 1625 3150 
Q 1625 2866 1622 2436 
Q 1619 2006 1619 1863 
Q 1619 1441 1641 1255 
Q 1663 1069 1716 984 
Q 1784 875 1895 815 
Q 2006 756 2150 756 
Q 2500 756 2700 1025 
Q 2900 1294 2900 1772 
L 2900 3500 
L 4019 3500 
L 4019 0 
L 2900 0 
L 2900 506 
Q 2647 200 2364 54 
Q 2081 -91 1741 -91 
Q 1134 -91 817 281 
Q 500 653 500 1363 
z
" transform="scale(0.015625)"/>
      <path id="DejaVuSans-Bold-72" d="M 3138 2547 
Q 2991 2616 2845 2648 
Q 2700 2681 2553 2681 
Q 2122 2681 1889 2404 
Q 1656 2128 1656 1613 
L 1656 0 
L 538 0 
L 538 3500 
L 1656 3500 
L 1656 2925 
Q 1872 3269 2151 3426 
Q 2431 3584 2822 3584 
Q 2878 3584 2943 3579 
Q 3009 3575 3134 3559 
L 3138 2547 
z
" transform="scale(0.015625)"/>
      <path id="DejaVuSans-Bold-65" d="M 4031 1759 
L 4031 1441 
L 1416 1441 
Q 1456 1047 1700 850 
Q 1944 653 2381 653 
Q 2734 653 3104 758 
Q 3475 863 3866 1075 
L 3866 213 
Q 3469 63 3072 -14 
Q 2675 -91 2278 -91 
Q 1328 -91 801 392 
Q 275 875 275 1747 
Q 275 2603 792 3093 
Q 1309 3584 2216 3584 
Q 3041 3584 3536 3087 
Q 4031 2591 4031 1759 
z
M 2881 2131 
Q 2881 2450 2695 2645 
Q 2509 2841 2209 2841 
Q 1884 2841 1681 2658 
Q 1478 2475 1428 2131 
L 2881 2131 
z
" transform="scale(0.015625)"/>
      <path id="DejaVuSans-Bold-2d" d="M 347 2297 
L 2309 2297 
L 2309 1388 
L 347 1388 
L 347 2297 
z
" transform="scale(0.015625)"/>
      <path id="DejaVuSans-Bold-38" d="M 2228 2088 
Q 1891 2088 1709 1903 
Q 1528 1719 1528 1375 
Q 1528 1031 1709 848 
Q 1891 666 2228 666 
Q 2563 666 2741 848 
Q 2919 1031 2919 1375 
Q 2919 1722 2741 1905 
Q 2563 2088 2228 2088 
z
M 1350 2484 
Q 925 2613 709 2878 
Q 494 3144 494 3541 
Q 494 4131 934 4440 
Q 1375 4750 2228 4750 
Q 3075 4750 3515 4442 
Q 3956 4134 3956 3541 
Q 3956 3144 3739 2878 
Q 3522 2613 3097 2484 
Q 3572 2353 3814 2058 
Q 4056 1763 4056 1313 
Q 4056 619 3595 264 
Q 3134 -91 2228 -91 
Q 1319 -91 855 264 
Q 391 619 391 1313 
Q 391 1763 633 2058 
Q 875 2353 1350 2484 
z
M 1631 3419 
Q 1631 3141 1786 2991 
Q 1941 2841 2228 2841 
Q 2509 2841 2662 2991 
Q 2816 3141 2816 3419 
Q 2816 3697 2662 3845 
Q 2509 3994 2228 3994 
Q 1941 3994 1786 3844 
Q 1631 3694 1631 3419 
z
" transform="scale(0.015625)"/>
      <path id="DejaVuSans-Bold-5f" d="M 3200 -916 
L 3200 -1509 
L 0 -1509 
L 0 -916 
L 3200 -916 
z
" transform="scale(0.015625)"/>
      <path id="DejaVuSans-Bold-31" d="M 750 831 
L 1813 831 
L 1813 3847 
L 722 3622 
L 722 4441 
L 1806 4666 
L 2950 4666 
L 2950 831 
L 4013 831 
L 4013 0 
L 750 0 
L 750 831 
z
" transform="scale(0.015625)"/>
      <path id="DejaVuSans-Bold-20" transform="scale(0.015625)"/>
      <path id="DejaVuSans-Bold-2014" d="M 344 2156 
L 6056 2156 
L 6056 1350 
L 344 1350 
L 344 2156 
z
" transform="scale(0.015625)"/>
      <path id="DejaVuSans-Bold-5a" d="M 359 4666 
L 4281 4666 
L 4281 3938 
L 1778 909 
L 4353 909 
L 4353 0 
L 288 0 
L 288 728 
L 2791 3756 
L 359 3756 
L 359 4666 
z
" transform="scale(0.015625)"/>
      <path id="DejaVuSans-Bold-50" d="M 588 4666 
L 2584 4666 
Q 3475 4666 3951 4270 
Q 4428 3875 4428 3144 
Q 4428 2409 3951 2014 
Q 3475 1619 2584 1619 
L 1791 1619 
L 1791 0 
L 588 0 
L 588 4666 
z
M 1791 3794 
L 1791 2491 
L 2456 2491 
Q 2806 2491 2997 2661 
Q 3188 2831 3188 3144 
Q 3188 3456 2997 3625 
Q 2806 3794 2456 3794 
L 1791 3794 
z
" transform="scale(0.015625)"/>
      <path id="DejaVuSans-Bold-6f" d="M 2203 2784 
Q 1831 2784 1636 2517 
Q 1441 2250 1441 1747 
Q 1441 1244 1636 976 
Q 1831 709 2203 709 
Q 2569 709 2762 976 
Q 2956 1244 2956 1747 
Q 2956 2250 2762 2517 
Q 2569 2784 2203 2784 
z
M 2203 3584 
Q 3106 3584 3614 3096 
Q 4122 2609 4122 1747 
Q 4122 884 3614 396 
Q 3106 -91 2203 -91 
Q 1297 -91 786 396 
Q 275 884 275 1747 
Q 275 2609 786 3096 
Q 1297 3584 2203 3584 
z
" transform="scale(0.015625)"/>
      <path id="DejaVuSans-Bold-73" d="M 3272 3391 
L 3272 2541 
Q 2913 2691 2578 2766 
Q 2244 2841 1947 2841 
Q 1628 2841 1473 2761 
Q 1319 2681 1319 2516 
Q 1319 2381 1436 2309 
Q 1553 2238 1856 2203 
L 2053 2175 
Q 2913 2066 3209 1816 
Q 3506 1566 3506 1031 
Q 3506 472 3093 190 
Q 2681 -91 1863 -91 
Q 1516 -91 1145 -36 
Q 775 19 384 128 
L 384 978 
Q 719 816 1070 734 
Q 1422 653 1784 653 
Q 2113 653 2278 743 
Q 2444 834 2444 1013 
Q 2444 1163 2330 1236 
Q 2216 1309 1875 1350 
L 1678 1375 
Q 931 1469 631 1722 
Q 331 1975 331 2491 
Q 331 3047 712 3315 
Q 1094 3584 1881 3584 
Q 2191 3584 2531 3537 
Q 2872 3491 3272 3391 
z
" transform="scale(0.015625)"/>
      <path id="DejaVuSans-Bold-74" d="M 1759 4494 
L 1759 3500 
L 2913 3500 
L 2913 2700 
L 1759 2700 
L 1759 1216 
Q 1759 972 1856 886 
Q 1953 800 2241 800 
L 2816 800 
L 2816 0 
L 1856 0 
Q 1194 0 917 276 
Q 641 553 641 1216 
L 641 2700 
L 84 2700 
L 84 3500 
L 641 3500 
L 641 4494 
L 1759 4494 
z
" transform="scale(0.015625)"/>
      <path id="DejaVuSans-Bold-6e" d="M 4056 2131 
L 4056 0 
L 2931 0 
L 2931 347 
L 2931 1631 
Q 2931 2084 2911 2256 
Q 2891 2428 2841 2509 
Q 2775 2619 2662 2680 
Q 2550 2741 2406 2741 
Q 2056 2741 1856 2470 
Q 1656 2200 1656 1722 
L 1656 0 
L 538 0 
L 538 3500 
L 1656 3500 
L 1656 2988 
Q 1909 3294 2193 3439 
Q 2478 3584 2822 3584 
Q 3428 3584 3742 3212 
Q 4056 2841 4056 2131 
z
" transform="scale(0.015625)"/>
      <path id="DejaVuSans-Bold-54" d="M 31 4666 
L 4331 4666 
L 4331 3756 
L 2784 3756 
L 2784 0 
L 1581 0 
L 1581 3756 
L 31 3756 
L 31 4666 
z
" transform="scale(0.015625)"/>
      <path id="DejaVuSans-Bold-61" d="M 2106 1575 
Q 1756 1575 1579 1456 
Q 1403 1338 1403 1106 
Q 1403 894 1545 773 
Q 1688 653 1941 653 
Q 2256 653 2472 879 
Q 2688 1106 2688 1447 
L 2688 1575 
L 2106 1575 
z
M 3816 1997 
L 3816 0 
L 2688 0 
L 2688 519 
Q 2463 200 2181 54 
Q 1900 -91 1497 -91 
Q 953 -91 614 226 
Q 275 544 275 1050 
Q 275 1666 698 1953 
Q 1122 2241 2028 2241 
L 2688 2241 
L 2688 2328 
Q 2688 2594 2478 2717 
Q 2269 2841 1825 2841 
Q 1466 2841 1156 2769 
Q 847 2697 581 2553 
L 581 3406 
Q 941 3494 1303 3539 
Q 1666 3584 2028 3584 
Q 2975 3584 3395 3211 
Q 3816 2838 3816 1997 
z
" transform="scale(0.015625)"/>
      <path id="DejaVuSans-Bold-63" d="M 3366 3391 
L 3366 2478 
Q 3138 2634 2908 2709 
Q 2678 2784 2431 2784 
Q 1963 2784 1702 2511 
Q 1441 2238 1441 1747 
Q 1441 1256 1702 982 
Q 1963 709 2431 709 
Q 2694 709 2930 787 
Q 3166 866 3366 1019 
L 3366 103 
Q 3103 6 2833 -42 
Q 2563 -91 2291 -91 
Q 1344 -91 809 395 
Q 275 881 275 1747 
Q 275 2613 809 3098 
Q 1344 3584 2291 3584 
Q 2566 3584 2833 3536 
Q 3100 3488 3366 3391 
z
" transform="scale(0.015625)"/>
      <path id="DejaVuSans-Bold-6b" d="M 538 4863 
L 1656 4863 
L 1656 2216 
L 2944 3500 
L 4244 3500 
L 2534 1894 
L 4378 0 
L 3022 0 
L 1656 1459 
L 1656 0 
L 538 0 
L 538 4863 
z
" transform="scale(0.015625)"/>
     </defs>
     <use xlink:href="#DejaVuSans-Bold-66"/>
     <use xlink:href="#DejaVuSans-Bold-69" transform="translate(43.505859 0)"/>
     <use xlink:href="#DejaVuSans-Bold-67" transform="translate(77.783203 0)"/>
     <use xlink:href="#DejaVuSans-Bold-75" transform="translate(149.365234 0)"/>
     <use xlink:href="#DejaVuSans-Bold-72" transform="translate(220.556641 0)"/>
     <use xlink:href="#DejaVuSans-Bold-65" transform="translate(269.873047 0)"/>
     <use xlink:href="#DejaVuSans-Bold-2d" transform="translate(337.695312 0)"/>
     <use xlink:href="#DejaVuSans-Bold-38" transform="translate(379.199219 0)"/>
     <use xlink:href="#DejaVuSans-Bold-5f" transform="translate(448.779297 0)"/>
     <use xlink:href="#DejaVuSans-Bold-31" transform="translate(498.779297 0)"/>
     <use xlink:href="#DejaVuSans-Bold-20" transform="translate(568.359375 0)"/>
     <use xlink:href="#DejaVuSans-Bold-2014" transform="translate(603.173828 0)"/>
     <use xlink:href="#DejaVuSans-Bold-20" transform="translate(703.173828 0)"/>
     <use xlink:href="#DejaVuSans-Bold-5a" transform="translate(737.988281 0)"/>
     <use xlink:href="#DejaVuSans-Bold-20" transform="translate(810.498047 0)"/>
     <use xlink:href="#DejaVuSans-Bold-50" transform="translate(845.3125 0)"/>
     <use xlink:href="#DejaVuSans-Bold-6f" transform="translate(918.603516 0)"/>
     <use xlink:href="#DejaVuSans-Bold-73" transform="translate(987.304688 0)"/>
     <use xlink:href="#DejaVuSans-Bold-69" transform="translate(1046.826172 0)"/>
     <use xlink:href="#DejaVuSans-Bold-74" transform="translate(1081.103516 0)"/>
     <use xlink:href="#DejaVuSans-Bold-69" transform="translate(1128.90625 0)"/>
     <use xlink:href="#DejaVuSans-Bold-6f" transform="translate(1163.183594 0)"/>
     <use xlink:href="#DejaVuSans-Bold-6e" transform="translate(1231.884766 0)"/>
     <use xlink:href="#DejaVuSans-Bold-20" transform="translate(1303.076172 0)"/>
     <use xlink:href="#DejaVuSans-Bold-54" transform="translate(1337.890625 0)"/>
     <use xlink:href="#DejaVuSans-Bold-72" transform="translate(1395.103516 0)"/>
     <use xlink:href="#DejaVuSans-Bold-61" transform="translate(1444.419922 0)"/>
     <use xlink:href="#DejaVuSans-Bold-63" transform="translate(1511.900391 0)"/>
     <use xlink:href="#DejaVuSans-Bold-6b" transform="translate(1571.177734 0)"/>
     <use xlink:href="#DejaVuSans-Bold-69" transform="translate(1637.681641 0)"/>
     <use xlink:href="#DejaVuSans-Bold-6e" transform="translate(1671.958984 0)"/>
     <use xlink:href="#DejaVuSans-Bold-67" transform="translate(1743.150391 0)"/>
    </g>
    <!-- PID=0.0750m   EDMDc=0.0573m   Linear=0.0616m -->
    <g transform="translate(338.817031 35.856) scale(0.13 -0.13)">
     <defs>
      <path id="DejaVuSans-Bold-49" d="M 588 4666 
L 1791 4666 
L 1791 0 
L 588 0 
L 588 4666 
z
" transform="scale(0.015625)"/>
      <path id="DejaVuSans-Bold-44" d="M 1791 3756 
L 1791 909 
L 2222 909 
Q 2959 909 3348 1275 
Q 3738 1641 3738 2338 
Q 3738 3031 3350 3393 
Q 2963 3756 2222 3756 
L 1791 3756 
z
M 588 4666 
L 1856 4666 
Q 2919 4666 3439 4514 
Q 3959 4363 4331 4000 
Q 4659 3684 4818 3271 
Q 4978 2859 4978 2338 
Q 4978 1809 4818 1395 
Q 4659 981 4331 666 
Q 3956 303 3431 151 
Q 2906 0 1856 0 
L 588 0 
L 588 4666 
z
" transform="scale(0.015625)"/>
      <path id="DejaVuSans-Bold-3d" d="M 678 3084 
L 4684 3084 
L 4684 2350 
L 678 2350 
L 678 3084 
z
M 678 1663 
L 4684 1663 
L 4684 922 
L 678 922 
L 678 1663 
z
" transform="scale(0.015625)"/>
      <path id="DejaVuSans-Bold-30" d="M 2944 2338 
Q 2944 3213 2780 3570 
Q 2616 3928 2228 3928 
Q 1841 3928 1675 3570 
Q 1509 3213 1509 2338 
Q 1509 1453 1675 1090 
Q 1841 728 2228 728 
Q 2613 728 2778 1090 
Q 2944 1453 2944 2338 
z
M 4147 2328 
Q 4147 1169 3647 539 
Q 3147 -91 2228 -91 
Q 1306 -91 806 539 
Q 306 1169 306 2328 
Q 306 3491 806 4120 
Q 1306 4750 2228 4750 
Q 3147 4750 3647 4120 
Q 4147 3491 4147 2328 
z
" transform="scale(0.015625)"/>
      <path id="DejaVuSans-Bold-2e" d="M 653 1209 
L 1778 1209 
L 1778 0 
L 653 0 
L 653 1209 
z
" transform="scale(0.015625)"/>
      <path id="DejaVuSans-Bold-37" d="M 428 4666 
L 3944 4666 
L 3944 3988 
L 2125 0 
L 953 0 
L 2675 3781 
L 428 3781 
L 428 4666 
z
" transform="scale(0.015625)"/>
      <path id="DejaVuSans-Bold-35" d="M 678 4666 
L 3669 4666 
L 3669 3781 
L 1638 3781 
L 1638 3059 
Q 1775 3097 1914 3117 
Q 2053 3138 2203 3138 
Q 3056 3138 3531 2711 
Q 4006 2284 4006 1522 
Q 4006 766 3489 337 
Q 2972 -91 2053 -91 
Q 1656 -91 1267 -14 
Q 878 63 494 219 
L 494 1166 
Q 875 947 1217 837 
Q 1559 728 1863 728 
Q 2300 728 2551 942 
Q 2803 1156 2803 1522 
Q 2803 1891 2551 2103 
Q 2300 2316 1863 2316 
Q 1603 2316 1309 2248 
Q 1016 2181 678 2041 
L 678 4666 
z
" transform="scale(0.015625)"/>
      <path id="DejaVuSans-Bold-6d" d="M 3781 2919 
Q 3994 3244 4286 3414 
Q 4578 3584 4928 3584 
Q 5531 3584 5847 3212 
Q 6163 2841 6163 2131 
L 6163 0 
L 5038 0 
L 5038 1825 
Q 5041 1866 5042 1909 
Q 5044 1953 5044 2034 
Q 5044 2406 4934 2573 
Q 4825 2741 4581 2741 
Q 4263 2741 4089 2478 
Q 3916 2216 3909 1719 
L 3909 0 
L 2784 0 
L 2784 1825 
Q 2784 2406 2684 2573 
Q 2584 2741 2328 2741 
Q 2006 2741 1831 2477 
Q 1656 2213 1656 1722 
L 1656 0 
L 531 0 
L 531 3500 
L 1656 3500 
L 1656 2988 
Q 1863 3284 2130 3434 
Q 2397 3584 2719 3584 
Q 3081 3584 3359 3409 
Q 3638 3234 3781 2919 
z
" transform="scale(0.015625)"/>
      <path id="DejaVuSans-Bold-45" d="M 588 4666 
L 3834 4666 
L 3834 3756 
L 1791 3756 
L 1791 2888 
L 3713 2888 
L 3713 1978 
L 1791 1978 
L 1791 909 
L 3903 909 
L 3903 0 
L 588 0 
L 588 4666 
z
" transform="scale(0.015625)"/>
      <path id="DejaVuSans-Bold-4d" d="M 588 4666 
L 2119 4666 
L 3181 2169 
L 4250 4666 
L 5778 4666 
L 5778 0 
L 4641 0 
L 4641 3413 
L 3566 897 
L 2803 897 
L 1728 3413 
L 1728 0 
L 588 0 
L 588 4666 
z
" transform="scale(0.015625)"/>
      <path id="DejaVuSans-Bold-33" d="M 2981 2516 
Q 3453 2394 3698 2092 
Q 3944 1791 3944 1325 
Q 3944 631 3412 270 
Q 2881 -91 1863 -91 
Q 1503 -91 1142 -33 
Q 781 25 428 141 
L 428 1069 
Q 766 900 1098 814 
Q 1431 728 1753 728 
Q 2231 728 2486 893 
Q 2741 1059 2741 1369 
Q 2741 1688 2480 1852 
Q 2219 2016 1709 2016 
L 1228 2016 
L 1228 2791 
L 1734 2791 
Q 2188 2791 2409 2933 
Q 2631 3075 2631 3366 
Q 2631 3634 2415 3781 
Q 2200 3928 1806 3928 
Q 1516 3928 1219 3862 
Q 922 3797 628 3669 
L 628 4550 
Q 984 4650 1334 4700 
Q 1684 4750 2022 4750 
Q 2931 4750 3382 4451 
Q 3834 4153 3834 3553 
Q 3834 3144 3618 2883 
Q 3403 2622 2981 2516 
z
" transform="scale(0.015625)"/>
      <path id="DejaVuSans-Bold-4c" d="M 588 4666 
L 1791 4666 
L 1791 909 
L 3903 909 
L 3903 0 
L 588 0 
L 588 4666 
z
" transform="scale(0.015625)"/>
      <path id="DejaVuSans-Bold-36" d="M 2316 2303 
Q 2000 2303 1842 2098 
Q 1684 1894 1684 1484 
Q 1684 1075 1842 870 
Q 2000 666 2316 666 
Q 2634 666 2792 870 
Q 2950 1075 2950 1484 
Q 2950 1894 2792 2098 
Q 2634 2303 2316 2303 
z
M 3803 4544 
L 3803 3681 
Q 3506 3822 3243 3889 
Q 2981 3956 2731 3956 
Q 2194 3956 1894 3657 
Q 1594 3359 1544 2772 
Q 1750 2925 1990 3001 
Q 2231 3078 2516 3078 
Q 3231 3078 3670 2659 
Q 4109 2241 4109 1563 
Q 4109 813 3618 361 
Q 3128 -91 2303 -91 
Q 1394 -91 895 523 
Q 397 1138 397 2266 
Q 397 3422 980 4083 
Q 1563 4744 2578 4744 
Q 2900 4744 3203 4694 
Q 3506 4644 3803 4544 
z
" transform="scale(0.015625)"/>
     </defs>
     <use xlink:href="#DejaVuSans-Bold-50"/>
     <use xlink:href="#DejaVuSans-Bold-49" transform="translate(73.291016 0)"/>
     <use xlink:href="#DejaVuSans-Bold-44" transform="translate(110.498047 0)"/>
     <use xlink:href="#DejaVuSans-Bold-3d" transform="translate(193.505859 0)"/>
     <use xlink:href="#DejaVuSans-Bold-30" transform="translate(277.294922 0)"/>
     <use xlink:href="#DejaVuSans-Bold-2e" transform="translate(346.875 0)"/>
     <use xlink:href="#DejaVuSans-Bold-30" transform="translate(384.863281 0)"/>
     <use xlink:href="#DejaVuSans-Bold-37" transform="translate(454.443359 0)"/>
     <use xlink:href="#DejaVuSans-Bold-35" transform="translate(524.023438 0)"/>
     <use xlink:href="#DejaVuSans-Bold-30" transform="translate(593.603516 0)"/>
     <use xlink:href="#DejaVuSans-Bold-6d" transform="translate(663.183594 0)"/>
     <use xlink:href="#DejaVuSans-Bold-20" transform="translate(767.382812 0)"/>
     <use xlink:href="#DejaVuSans-Bold-20" transform="translate(802.197266 0)"/>
     <use xlink:href="#DejaVuSans-Bold-20" transform="translate(837.011719 0)"/>
     <use xlink:href="#DejaVuSans-Bold-45" transform="translate(871.826172 0)"/>
     <use xlink:href="#DejaVuSans-Bold-44" transform="translate(940.136719 0)"/>
     <use xlink:href="#DejaVuSans-Bold-4d" transform="translate(1023.144531 0)"/>
     <use xlink:href="#DejaVuSans-Bold-44" transform="translate(1122.65625 0)"/>
     <use xlink:href="#DejaVuSans-Bold-63" transform="translate(1205.664062 0)"/>
     <use xlink:href="#DejaVuSans-Bold-3d" transform="translate(1264.941406 0)"/>
     <use xlink:href="#DejaVuSans-Bold-30" transform="translate(1348.730469 0)"/>
     <use xlink:href="#DejaVuSans-Bold-2e" transform="translate(1418.310547 0)"/>
     <use xlink:href="#DejaVuSans-Bold-30" transform="translate(1456.298828 0)"/>
     <use xlink:href="#DejaVuSans-Bold-35" transform="translate(1525.878906 0)"/>
     <use xlink:href="#DejaVuSans-Bold-37" transform="translate(1595.458984 0)"/>
     <use xlink:href="#DejaVuSans-Bold-33" transform="translate(1665.039062 0)"/>
     <use xlink:href="#DejaVuSans-Bold-6d" transform="translate(1734.619141 0)"/>
     <use xlink:href="#DejaVuSans-Bold-20" transform="translate(1838.818359 0)"/>
     <use xlink:href="#DejaVuSans-Bold-20" transform="translate(1873.632812 0)"/>
     <use xlink:href="#DejaVuSans-Bold-20" transform="translate(1908.447266 0)"/>
     <use xlink:href="#DejaVuSans-Bold-4c" transform="translate(1943.261719 0)"/>
     <use xlink:href="#DejaVuSans-Bold-69" transform="translate(2006.982422 0)"/>
     <use xlink:href="#DejaVuSans-Bold-6e" transform="translate(2041.259766 0)"/>
     <use xlink:href="#DejaVuSans-Bold-65" transform="translate(2112.451172 0)"/>
     <use xlink:href="#DejaVuSans-Bold-61" transform="translate(2180.273438 0)"/>
     <use xlink:href="#DejaVuSans-Bold-72" transform="translate(2247.753906 0)"/>
     <use xlink:href="#DejaVuSans-Bold-3d" transform="translate(2297.070312 0)"/>
     <use xlink:href="#DejaVuSans-Bold-30" transform="translate(2380.859375 0)"/>
     <use xlink:href="#DejaVuSans-Bold-2e" transform="translate(2450.439453 0)"/>
     <use xlink:href="#DejaVuSans-Bold-30" transform="translate(2488.427734 0)"/>
     <use xlink:href="#DejaVuSans-Bold-36" transform="translate(2558.007812 0)"/>
     <use xlink:href="#DejaVuSans-Bold-31" transform="translate(2627.587891 0)"/>
     <use xlink:href="#DejaVuSans-Bold-36" transform="translate(2697.167969 0)"/>
     <use xlink:href="#DejaVuSans-Bold-6d" transform="translate(2766.748047 0)"/>
    </g>
   </g>
   <g id="legend_1">
    <g id="patch_7">
     <path d="M 897.535938 108.5685 
L 990.2 108.5685 
Q 992.2 108.5685 992.2 106.5685 
L 992.2 48.856 
Q 992.2 46.856 990.2 46.856 
L 897.535938 46.856 
Q 895.535938 46.856 895.535938 48.856 
L 895.535938 106.5685 
Q 895.535938 108.5685 897.535938 108.5685 
z
" style="fill: #ffffff; opacity: 0.8; stroke: #cccccc; stroke-linejoin: miter"/>
    </g>
    <g id="line2d_31">
     <path d="M 899.535938 54.954438 
L 909.535938 54.954438 
L 919.535938 54.954438 
" style="fill: none; stroke: #000000; stroke-width: 2.5; stroke-linecap: square"/>
    </g>
    <g id="text_17">
     <!-- Reference -->
     <g transform="translate(927.535938 58.454438) scale(0.1 -0.1)">
      <defs>
       <path id="DejaVuSans-52" d="M 2841 2188 
Q 3044 2119 3236 1894 
Q 3428 1669 3622 1275 
L 4263 0 
L 3584 0 
L 2988 1197 
Q 2756 1666 2539 1819 
Q 2322 1972 1947 1972 
L 1259 1972 
L 1259 0 
L 628 0 
L 628 4666 
L 2053 4666 
Q 2853 4666 3247 4331 
Q 3641 3997 3641 3322 
Q 3641 2881 3436 2590 
Q 3231 2300 2841 2188 
z
M 1259 4147 
L 1259 2491 
L 2053 2491 
Q 2509 2491 2742 2702 
Q 2975 2913 2975 3322 
Q 2975 3731 2742 3939 
Q 2509 4147 2053 4147 
L 1259 4147 
z
" transform="scale(0.015625)"/>
       <path id="DejaVuSans-66" d="M 2375 4863 
L 2375 4384 
L 1825 4384 
Q 1516 4384 1395 4259 
Q 1275 4134 1275 3809 
L 1275 3500 
L 2222 3500 
L 2222 3053 
L 1275 3053 
L 1275 0 
L 697 0 
L 697 3053 
L 147 3053 
L 147 3500 
L 697 3500 
L 697 3744 
Q 697 4328 969 4595 
Q 1241 4863 1831 4863 
L 2375 4863 
z
" transform="scale(0.015625)"/>
       <path id="DejaVuSans-72" d="M 2631 2963 
Q 2534 3019 2420 3045 
Q 2306 3072 2169 3072 
Q 1681 3072 1420 2755 
Q 1159 2438 1159 1844 
L 1159 0 
L 581 0 
L 581 3500 
L 1159 3500 
L 1159 2956 
Q 1341 3275 1631 3429 
Q 1922 3584 2338 3584 
Q 2397 3584 2469 3576 
Q 2541 3569 2628 3553 
L 2631 2963 
z
" transform="scale(0.015625)"/>
       <path id="DejaVuSans-6e" d="M 3513 2113 
L 3513 0 
L 2938 0 
L 2938 2094 
Q 2938 2591 2744 2837 
Q 2550 3084 2163 3084 
Q 1697 3084 1428 2787 
Q 1159 2491 1159 1978 
L 1159 0 
L 581 0 
L 581 3500 
L 1159 3500 
L 1159 2956 
Q 1366 3272 1645 3428 
Q 1925 3584 2291 3584 
Q 2894 3584 3203 3211 
Q 3513 2838 3513 2113 
z
" transform="scale(0.015625)"/>
       <path id="DejaVuSans-63" d="M 3122 3366 
L 3122 2828 
Q 2878 2963 2633 3030 
Q 2388 3097 2138 3097 
Q 1578 3097 1268 2742 
Q 959 2388 959 1747 
Q 959 1106 1268 751 
Q 1578 397 2138 397 
Q 2388 397 2633 464 
Q 2878 531 3122 666 
L 3122 134 
Q 2881 22 2623 -34 
Q 2366 -91 2075 -91 
Q 1284 -91 818 406 
Q 353 903 353 1747 
Q 353 2603 823 3093 
Q 1294 3584 2113 3584 
Q 2378 3584 2631 3529 
Q 2884 3475 3122 3366 
z
" transform="scale(0.015625)"/>
      </defs>
      <use xlink:href="#DejaVuSans-52"/>
      <use xlink:href="#DejaVuSans-65" transform="translate(64.982422 0)"/>
      <use xlink:href="#DejaVuSans-66" transform="translate(126.505859 0)"/>
      <use xlink:href="#DejaVuSans-65" transform="translate(161.710938 0)"/>
      <use xlink:href="#DejaVuSans-72" transform="translate(223.234375 0)"/>
      <use xlink:href="#DejaVuSans-65" transform="translate(262.097656 0)"/>
      <use xlink:href="#DejaVuSans-6e" transform="translate(323.621094 0)"/>
      <use xlink:href="#DejaVuSans-63" transform="translate(387 0)"/>
      <use xlink:href="#DejaVuSans-65" transform="translate(441.980469 0)"/>
     </g>
    </g>
    <g id="line2d_32">
     <path d="M 899.535938 69.632563 
L 909.535938 69.632563 
L 919.535938 69.632563 
" style="fill: none; stroke: #888888; stroke-opacity: 0.6; stroke-width: 1.2; stroke-linecap: square"/>
    </g>
    <g id="text_18">
     <!-- PID -->
     <g transform="translate(927.535938 73.132563) scale(0.1 -0.1)">
      <defs>
       <path id="DejaVuSans-50" d="M 1259 4147 
L 1259 2394 
L 2053 2394 
Q 2494 2394 2734 2622 
Q 2975 2850 2975 3272 
Q 2975 3691 2734 3919 
Q 2494 4147 2053 4147 
L 1259 4147 
z
M 628 4666 
L 2053 4666 
Q 2838 4666 3239 4311 
Q 3641 3956 3641 3272 
Q 3641 2581 3239 2228 
Q 2838 1875 2053 1875 
L 1259 1875 
L 1259 0 
L 628 0 
L 628 4666 
z
" transform="scale(0.015625)"/>
       <path id="DejaVuSans-49" d="M 628 4666 
L 1259 4666 
L 1259 0 
L 628 0 
L 628 4666 
z
" transform="scale(0.015625)"/>
       <path id="DejaVuSans-44" d="M 1259 4147 
L 1259 519 
L 2022 519 
Q 2988 519 3436 956 
Q 3884 1394 3884 2338 
Q 3884 3275 3436 3711 
Q 2988 4147 2022 4147 
L 1259 4147 
z
M 628 4666 
L 1925 4666 
Q 3281 4666 3915 4102 
Q 4550 3538 4550 2338 
Q 4550 1131 3912 565 
Q 3275 0 1925 0 
L 628 0 
L 628 4666 
z
" transform="scale(0.015625)"/>
      </defs>
      <use xlink:href="#DejaVuSans-50"/>
      <use xlink:href="#DejaVuSans-49" transform="translate(60.302734 0)"/>
      <use xlink:href="#DejaVuSans-44" transform="translate(89.794922 0)"/>
     </g>
    </g>
    <g id="line2d_33">
     <path d="M 899.535938 84.310688 
L 909.535938 84.310688 
L 919.535938 84.310688 
" style="fill: none; stroke: #2ca02c; stroke-width: 1.5; stroke-linecap: square"/>
    </g>
    <g id="text_19">
     <!-- EDMDc MPC -->
     <g transform="translate(927.535938 87.810688) scale(0.1 -0.1)">
      <defs>
       <path id="DejaVuSans-45" d="M 628 4666 
L 3578 4666 
L 3578 4134 
L 1259 4134 
L 1259 2753 
L 3481 2753 
L 3481 2222 
L 1259 2222 
L 1259 531 
L 3634 531 
L 3634 0 
L 628 0 
L 628 4666 
z
" transform="scale(0.015625)"/>
       <path id="DejaVuSans-4d" d="M 628 4666 
L 1569 4666 
L 2759 1491 
L 3956 4666 
L 4897 4666 
L 4897 0 
L 4281 0 
L 4281 4097 
L 3078 897 
L 2444 897 
L 1241 4097 
L 1241 0 
L 628 0 
L 628 4666 
z
" transform="scale(0.015625)"/>
       <path id="DejaVuSans-43" d="M 4122 4306 
L 4122 3641 
Q 3803 3938 3442 4084 
Q 3081 4231 2675 4231 
Q 1875 4231 1450 3742 
Q 1025 3253 1025 2328 
Q 1025 1406 1450 917 
Q 1875 428 2675 428 
Q 3081 428 3442 575 
Q 3803 722 4122 1019 
L 4122 359 
Q 3791 134 3420 21 
Q 3050 -91 2638 -91 
Q 1578 -91 968 557 
Q 359 1206 359 2328 
Q 359 3453 968 4101 
Q 1578 4750 2638 4750 
Q 3056 4750 3426 4639 
Q 3797 4528 4122 4306 
z
" transform="scale(0.015625)"/>
      </defs>
      <use xlink:href="#DejaVuSans-45"/>
      <use xlink:href="#DejaVuSans-44" transform="translate(63.183594 0)"/>
      <use xlink:href="#DejaVuSans-4d" transform="translate(140.185547 0)"/>
      <use xlink:href="#DejaVuSans-44" transform="translate(226.464844 0)"/>
      <use xlink:href="#DejaVuSans-63" transform="translate(303.466797 0)"/>
      <use xlink:href="#DejaVuSans-20" transform="translate(358.447266 0)"/>
      <use xlink:href="#DejaVuSans-4d" transform="translate(390.234375 0)"/>
      <use xlink:href="#DejaVuSans-50" transform="translate(476.513672 0)"/>
      <use xlink:href="#DejaVuSans-43" transform="translate(536.816406 0)"/>
     </g>
    </g>
    <g id="line2d_34">
     <path d="M 899.535938 98.988813 
L 909.535938 98.988813 
L 919.535938 98.988813 
" style="fill: none; stroke-dasharray: 4.44,1.92; stroke-dashoffset: 0; stroke: #1f77b4; stroke-width: 1.2"/>
    </g>
    <g id="text_20">
     <!-- Linear MPC -->
     <g transform="translate(927.535938 102.488813) scale(0.1 -0.1)">
      <defs>
       <path id="DejaVuSans-4c" d="M 628 4666 
L 1259 4666 
L 1259 531 
L 3531 531 
L 3531 0 
L 628 0 
L 628 4666 
z
" transform="scale(0.015625)"/>
       <path id="DejaVuSans-61" d="M 2194 1759 
Q 1497 1759 1228 1600 
Q 959 1441 959 1056 
Q 959 750 1161 570 
Q 1363 391 1709 391 
Q 2188 391 2477 730 
Q 2766 1069 2766 1631 
L 2766 1759 
L 2194 1759 
z
M 3341 1997 
L 3341 0 
L 2766 0 
L 2766 531 
Q 2569 213 2275 61 
Q 1981 -91 1556 -91 
Q 1019 -91 701 211 
Q 384 513 384 1019 
Q 384 1609 779 1909 
Q 1175 2209 1959 2209 
L 2766 2209 
L 2766 2266 
Q 2766 2663 2505 2880 
Q 2244 3097 1772 3097 
Q 1472 3097 1187 3025 
Q 903 2953 641 2809 
L 641 3341 
Q 956 3463 1253 3523 
Q 1550 3584 1831 3584 
Q 2591 3584 2966 3190 
Q 3341 2797 3341 1997 
z
" transform="scale(0.015625)"/>
      </defs>
      <use xlink:href="#DejaVuSans-4c"/>
      <use xlink:href="#DejaVuSans-69" transform="translate(55.712891 0)"/>
      <use xlink:href="#DejaVuSans-6e" transform="translate(83.496094 0)"/>
      <use xlink:href="#DejaVuSans-65" transform="translate(146.875 0)"/>
      <use xlink:href="#DejaVuSans-61" transform="translate(208.398438 0)"/>
      <use xlink:href="#DejaVuSans-72" transform="translate(269.677734 0)"/>
      <use xlink:href="#DejaVuSans-20" transform="translate(310.791016 0)"/>
      <use xlink:href="#DejaVuSans-4d" transform="translate(342.578125 0)"/>
      <use xlink:href="#DejaVuSans-50" transform="translate(428.857422 0)"/>
      <use xlink:href="#DejaVuSans-43" transform="translate(489.160156 0)"/>
     </g>
    </g>
   </g>
  </g>
 </g>
 <defs>
  <clipPath id="pca04c7186b">
   <rect x="53.66" y="41.856" width="943.54" height="275.464"/>
  </clipPath>
 </defs>
</svg>
