<?xml version="1.0" encoding="utf-8" standalone="no"?>
<!DOCTYPE svg PUBLIC "-//W3C//DTD SVG 1.1//EN"
  "http://www.w3.org/Graphics/SVG/1.1/DTD/svg11.dtd">
<svg xmlns:xlink="http://www.w3.org/1999/xlink" width="1008pt" height="360pt" viewBox="0 0 1008 360" xmlns="http://www.w3.org/2000/svg" version="1.1">
 <metadata>
  <rdf:RDF xmlns:dc="http://purl.org/dc/elements/1.1/" xmlns:cc="http://creativecommons.org/ns#" xmlns:rdf="http://www.w3.org/1999/02/22-rdf-syntax-ns#">
   <cc:Work>
    <dc:type rdf:resource="http://purl.org/dc/dcmitype/StillImage"/>
    <dc:date>2026-03-30T18:29:10.456186</dc:date>
    <dc:format>image/svg+xml</dc:format>
    <dc:creator>
     <cc:Agent>
      <dc:title>Matplotlib v3.10.8, https://matplotlib.org/</dc:title>
     </cc:Agent>
    </dc:creator>
   </cc:Work>
  </rdf:RDF>
 </metadata>
 <defs>
  <style type="text/css">*{stroke-linejoin: round; stroke-linecap: butt}</style>
 </defs>
 <g id="figure_1">
  <g id="patch_1">
   <path d="M 0 360 
L 1008 360 
L 1008 0 
L 0 0 
z
" style="fill: #ffffff"/>
  </g>
  <g id="axes_1">
   <g id="patch_2">
    <path d="M 53.66 317.32 
L 997.2 317.32 
L 997.2 41.856 
L 53.66 41.856 
z
" style="fill: #ffffff"/>
   </g>
   <g id="line2d_1">
    <path d="M 96.548182 179.58774 
L 122.30685 156.17579 
L 136.044806 143.976687 
L 148.065517 133.593385 
L 158.368984 124.973576 
L 167.813829 117.343588 
L 177.258674 110.010875 
L 185.844897 103.632236 
L 193.572497 98.147115 
L 201.300097 92.922404 
L 209.027698 87.974808 
L 215.896676 83.822396 
L 222.765654 79.911944 
L 229.634632 76.253331 
L 236.50361 72.855803 
L 243.372588 69.727943 
L 249.382944 67.218507 
L 255.3933 64.926451 
L 261.403655 62.856209 
L 267.414011 61.011787 
L 273.424367 59.396752 
L 279.434723 58.014229 
L 285.445079 56.866891 
L 291.455435 55.95696 
L 297.46579 55.286194 
L 303.476146 54.855891 
L 309.486502 54.666885 
L 315.496858 54.71954 
L 321.507214 55.013755 
L 327.517569 55.548961 
L 333.527925 56.324121 
L 339.538281 57.337738 
L 345.548637 58.587849 
L 351.558993 60.072036 
L 357.569348 61.787429 
L 363.579704 63.730708 
L 369.59006 65.898115 
L 375.600416 68.285456 
L 381.610772 70.888114 
L 388.47975 74.119755 
L 395.348728 77.61787 
L 402.217706 81.373622 
L 409.086684 85.377521 
L 415.955662 89.61945 
L 423.683262 94.662775 
L 431.410863 99.977651 
L 439.138463 105.547083 
L 447.724686 112.012208 
L 456.310908 118.744077 
L 465.755753 126.425477 
L 476.05922 135.093456 
L 487.221309 144.767551 
L 500.959266 156.985982 
L 518.990333 173.349269 
L 553.335223 204.578524 
L 567.07318 216.738363 
L 579.093891 227.074534 
L 589.397358 235.644743 
L 598.842203 243.222052 
L 607.428426 249.847712 
L 616.014648 256.196033 
L 623.742249 261.651661 
L 631.469849 266.844887 
L 639.197449 271.759104 
L 646.066427 275.880344 
L 652.935405 279.758293 
L 659.804383 283.383151 
L 666.673362 286.74576 
L 673.54234 289.837625 
L 679.552695 292.314753 
L 685.563051 294.573809 
L 691.573407 296.610422 
L 697.583763 298.420653 
L 703.594119 300.001 
L 709.604474 301.348405 
L 715.61483 302.460262 
L 721.625186 303.334419 
L 727.635542 303.969187 
L 733.645898 304.363337 
L 739.656254 304.516106 
L 745.666609 304.427199 
L 751.676965 304.096787 
L 757.687321 303.525511 
L 763.697677 302.714475 
L 769.708033 301.665249 
L 775.718388 300.379861 
L 781.728744 298.860799 
L 787.7391 297.111001 
L 793.749456 295.133852 
L 799.759812 292.933177 
L 805.770167 290.513233 
L 811.780523 287.878702 
L 818.649501 284.611607 
L 825.518479 281.079158 
L 832.387457 277.290282 
L 839.256436 273.254552 
L 846.125414 268.982164 
L 853.853014 263.906311 
L 861.580614 258.560845 
L 869.308215 252.96286 
L 877.894437 246.468508 
L 887.339282 239.020819 
L 896.784127 231.289281 
L 907.087594 222.57457 
L 919.108306 212.102185 
L 932.846262 199.83063 
L 952.594574 181.86423 
L 954.311818 180.294272 
L 954.311818 180.294272 
" clip-path="url(#pc60fa4c2fb)" style="fill: none; stroke: #000000; stroke-width: 2.5; stroke-linecap: square"/>
   </g>
   <g id="matplotlib.axis_1">
    <g id="xtick_1">
     <g id="line2d_2">
      <path d="M 96.548182 317.32 
L 96.548182 41.856 
" clip-path="url(#pc60fa4c2fb)" style="fill: none; stroke: #b0b0b0; stroke-opacity: 0.3; stroke-width: 0.8; stroke-linecap: square"/>
     </g>
     <g id="line2d_3">
      <defs>
       <path id="m72c27f304a" d="M 0 0 
L 0 3.5 
" style="stroke: #000000; stroke-width: 0.8"/>
      </defs>
      <g>
       <use xlink:href="#m72c27f304a" x="96.548182" y="317.32" style="stroke: #000000; stroke-width: 0.8"/>
      </g>
     </g>
     <g id="text_1">
      <!-- 0 -->
      <g transform="translate(93.366932 331.918437) scale(0.1 -0.1)">
       <defs>
        <path id="DejaVuSans-30" d="M 2034 4250 
Q 1547 4250 1301 3770 
Q 1056 3291 1056 2328 
Q 1056 1369 1301 889 
Q 1547 409 2034 409 
Q 2525 409 2770 889 
Q 3016 1369 3016 2328 
Q 3016 3291 2770 3770 
Q 2525 4250 2034 4250 
z
M 2034 4750 
Q 2819 4750 3233 4129 
Q 3647 3509 3647 2328 
Q 3647 1150 3233 529 
Q 2819 -91 2034 -91 
Q 1250 -91 836 529 
Q 422 1150 422 2328 
Q 422 3509 836 4129 
Q 1250 4750 2034 4750 
z
" transform="scale(0.015625)"/>
       </defs>
       <use xlink:href="#DejaVuSans-30"/>
      </g>
     </g>
    </g>
    <g id="xtick_2">
     <g id="line2d_4">
      <path d="M 268.272634 317.32 
L 268.272634 41.856 
" clip-path="url(#pc60fa4c2fb)" style="fill: none; stroke: #b0b0b0; stroke-opacity: 0.3; stroke-width: 0.8; stroke-linecap: square"/>
     </g>
     <g id="line2d_5">
      <g>
       <use xlink:href="#m72c27f304a" x="268.272634" y="317.32" style="stroke: #000000; stroke-width: 0.8"/>
      </g>
     </g>
     <g id="text_2">
      <!-- 20 -->
      <g transform="translate(261.910134 331.918437) scale(0.1 -0.1)">
       <defs>
        <path id="DejaVuSans-32" d="M 1228 531 
L 3431 531 
L 3431 0 
L 469 0 
L 469 531 
Q 828 903 1448 1529 
Q 2069 2156 2228 2338 
Q 2531 2678 2651 2914 
Q 2772 3150 2772 3378 
Q 2772 3750 2511 3984 
Q 2250 4219 1831 4219 
Q 1534 4219 1204 4116 
Q 875 4013 500 3803 
L 500 4441 
Q 881 4594 1212 4672 
Q 1544 4750 1819 4750 
Q 2544 4750 2975 4387 
Q 3406 4025 3406 3419 
Q 3406 3131 3298 2873 
Q 3191 2616 2906 2266 
Q 2828 2175 2409 1742 
Q 1991 1309 1228 531 
z
" transform="scale(0.015625)"/>
       </defs>
       <use xlink:href="#DejaVuSans-32"/>
       <use xlink:href="#DejaVuSans-30" transform="translate(63.623047 0)"/>
      </g>
     </g>
    </g>
    <g id="xtick_3">
     <g id="line2d_6">
      <path d="M 439.997085 317.32 
L 439.997085 41.856 
" clip-path="url(#pc60fa4c2fb)" style="fill: none; stroke: #b0b0b0; stroke-opacity: 0.3; stroke-width: 0.8; stroke-linecap: square"/>
     </g>
     <g id="line2d_7">
      <g>
       <use xlink:href="#m72c27f304a" x="439.997085" y="317.32" style="stroke: #000000; stroke-width: 0.8"/>
      </g>
     </g>
     <g id="text_3">
      <!-- 40 -->
      <g transform="translate(433.634585 331.918437) scale(0.1 -0.1)">
       <defs>
        <path id="DejaVuSans-34" d="M 2419 4116 
L 825 1625 
L 2419 1625 
L 2419 4116 
z
M 2253 4666 
L 3047 4666 
L 3047 1625 
L 3713 1625 
L 3713 1100 
L 3047 1100 
L 3047 0 
L 2419 0 
L 2419 1100 
L 313 1100 
L 313 1709 
L 2253 4666 
z
" transform="scale(0.015625)"/>
       </defs>
       <use xlink:href="#DejaVuSans-34"/>
       <use xlink:href="#DejaVuSans-30" transform="translate(63.623047 0)"/>
      </g>
     </g>
    </g>
    <g id="xtick_4">
     <g id="line2d_8">
      <path d="M 611.721537 317.32 
L 611.721537 41.856 
" clip-path="url(#pc60fa4c2fb)" style="fill: none; stroke: #b0b0b0; stroke-opacity: 0.3; stroke-width: 0.8; stroke-linecap: square"/>
     </g>
     <g id="line2d_9">
      <g>
       <use xlink:href="#m72c27f304a" x="611.721537" y="317.32" style="stroke: #000000; stroke-width: 0.8"/>
      </g>
     </g>
     <g id="text_4">
      <!-- 60 -->
      <g transform="translate(605.359037 331.918437) scale(0.1 -0.1)">
       <defs>
        <path id="DejaVuSans-36" d="M 2113 2584 
Q 1688 2584 1439 2293 
Q 1191 2003 1191 1497 
Q 1191 994 1439 701 
Q 1688 409 2113 409 
Q 2538 409 2786 701 
Q 3034 994 3034 1497 
Q 3034 2003 2786 2293 
Q 2538 2584 2113 2584 
z
M 3366 4563 
L 3366 3988 
Q 3128 4100 2886 4159 
Q 2644 4219 2406 4219 
Q 1781 4219 1451 3797 
Q 1122 3375 1075 2522 
Q 1259 2794 1537 2939 
Q 1816 3084 2150 3084 
Q 2853 3084 3261 2657 
Q 3669 2231 3669 1497 
Q 3669 778 3244 343 
Q 2819 -91 2113 -91 
Q 1303 -91 875 529 
Q 447 1150 447 2328 
Q 447 3434 972 4092 
Q 1497 4750 2381 4750 
Q 2619 4750 2861 4703 
Q 3103 4656 3366 4563 
z
" transform="scale(0.015625)"/>
       </defs>
       <use xlink:href="#DejaVuSans-36"/>
       <use xlink:href="#DejaVuSans-30" transform="translate(63.623047 0)"/>
      </g>
     </g>
    </g>
    <g id="xtick_5">
     <g id="line2d_10">
      <path d="M 783.445989 317.32 
L 783.445989 41.856 
" clip-path="url(#pc60fa4c2fb)" style="fill: none; stroke: #b0b0b0; stroke-opacity: 0.3; stroke-width: 0.8; stroke-linecap: square"/>
     </g>
     <g id="line2d_11">
      <g>
       <use xlink:href="#m72c27f304a" x="783.445989" y="317.32" style="stroke: #000000; stroke-width: 0.8"/>
      </g>
     </g>
     <g id="text_5">
      <!-- 80 -->
      <g transform="translate(777.083489 331.918437) scale(0.1 -0.1)">
       <defs>
        <path id="DejaVuSans-38" d="M 2034 2216 
Q 1584 2216 1326 1975 
Q 1069 1734 1069 1313 
Q 1069 891 1326 650 
Q 1584 409 2034 409 
Q 2484 409 2743 651 
Q 3003 894 3003 1313 
Q 3003 1734 2745 1975 
Q 2488 2216 2034 2216 
z
M 1403 2484 
Q 997 2584 770 2862 
Q 544 3141 544 3541 
Q 544 4100 942 4425 
Q 1341 4750 2034 4750 
Q 2731 4750 3128 4425 
Q 3525 4100 3525 3541 
Q 3525 3141 3298 2862 
Q 3072 2584 2669 2484 
Q 3125 2378 3379 2068 
Q 3634 1759 3634 1313 
Q 3634 634 3220 271 
Q 2806 -91 2034 -91 
Q 1263 -91 848 271 
Q 434 634 434 1313 
Q 434 1759 690 2068 
Q 947 2378 1403 2484 
z
M 1172 3481 
Q 1172 3119 1398 2916 
Q 1625 2713 2034 2713 
Q 2441 2713 2670 2916 
Q 2900 3119 2900 3481 
Q 2900 3844 2670 4047 
Q 2441 4250 2034 4250 
Q 1625 4250 1398 4047 
Q 1172 3844 1172 3481 
z
" transform="scale(0.015625)"/>
       </defs>
       <use xlink:href="#DejaVuSans-38"/>
       <use xlink:href="#DejaVuSans-30" transform="translate(63.623047 0)"/>
      </g>
     </g>
    </g>
    <g id="xtick_6">
     <g id="line2d_12">
      <path d="M 955.17044 317.32 
L 955.17044 41.856 
" clip-path="url(#pc60fa4c2fb)" style="fill: none; stroke: #b0b0b0; stroke-opacity: 0.3; stroke-width: 0.8; stroke-linecap: square"/>
     </g>
     <g id="line2d_13">
      <g>
       <use xlink:href="#m72c27f304a" x="955.17044" y="317.32" style="stroke: #000000; stroke-width: 0.8"/>
      </g>
     </g>
     <g id="text_6">
      <!-- 100 -->
      <g transform="translate(945.62669 331.918437) scale(0.1 -0.1)">
       <defs>
        <path id="DejaVuSans-31" d="M 794 531 
L 1825 531 
L 1825 4091 
L 703 3866 
L 703 4441 
L 1819 4666 
L 2450 4666 
L 2450 531 
L 3481 531 
L 3481 0 
L 794 0 
L 794 531 
z
" transform="scale(0.015625)"/>
       </defs>
       <use xlink:href="#DejaVuSans-31"/>
       <use xlink:href="#DejaVuSans-30" transform="translate(63.623047 0)"/>
       <use xlink:href="#DejaVuSans-30" transform="translate(127.246094 0)"/>
      </g>
     </g>
    </g>
    <g id="text_7">
     <!-- Time [s] -->
     <g transform="translate(503.068203 346.356406) scale(0.11 -0.11)">
      <defs>
       <path id="DejaVuSans-54" d="M -19 4666 
L 3928 4666 
L 3928 4134 
L 2272 4134 
L 2272 0 
L 1638 0 
L 1638 4134 
L -19 4134 
L -19 4666 
z
" transform="scale(0.015625)"/>
       <path id="DejaVuSans-69" d="M 603 3500 
L 1178 3500 
L 1178 0 
L 603 0 
L 603 3500 
z
M 603 4863 
L 1178 4863 
L 1178 4134 
L 603 4134 
L 603 4863 
z
" transform="scale(0.015625)"/>
       <path id="DejaVuSans-6d" d="M 3328 2828 
Q 3544 3216 3844 3400 
Q 4144 3584 4550 3584 
Q 5097 3584 5394 3201 
Q 5691 2819 5691 2113 
L 5691 0 
L 5113 0 
L 5113 2094 
Q 5113 2597 4934 2840 
Q 4756 3084 4391 3084 
Q 3944 3084 3684 2787 
Q 3425 2491 3425 1978 
L 3425 0 
L 2847 0 
L 2847 2094 
Q 2847 2600 2669 2842 
Q 2491 3084 2119 3084 
Q 1678 3084 1418 2786 
Q 1159 2488 1159 1978 
L 1159 0 
L 581 0 
L 581 3500 
L 1159 3500 
L 1159 2956 
Q 1356 3278 1631 3431 
Q 1906 3584 2284 3584 
Q 2666 3584 2933 3390 
Q 3200 3197 3328 2828 
z
" transform="scale(0.015625)"/>
       <path id="DejaVuSans-65" d="M 3597 1894 
L 3597 1613 
L 953 1613 
Q 991 1019 1311 708 
Q 1631 397 2203 397 
Q 2534 397 2845 478 
Q 3156 559 3463 722 
L 3463 178 
Q 3153 47 2828 -22 
Q 2503 -91 2169 -91 
Q 1331 -91 842 396 
Q 353 884 353 1716 
Q 353 2575 817 3079 
Q 1281 3584 2069 3584 
Q 2775 3584 3186 3129 
Q 3597 2675 3597 1894 
z
M 3022 2063 
Q 3016 2534 2758 2815 
Q 2500 3097 2075 3097 
Q 1594 3097 1305 2825 
Q 1016 2553 972 2059 
L 3022 2063 
z
" transform="scale(0.015625)"/>
       <path id="DejaVuSans-20" transform="scale(0.015625)"/>
       <path id="DejaVuSans-5b" d="M 550 4863 
L 1875 4863 
L 1875 4416 
L 1125 4416 
L 1125 -397 
L 1875 -397 
L 1875 -844 
L 550 -844 
L 550 4863 
z
" transform="scale(0.015625)"/>
       <path id="DejaVuSans-73" d="M 2834 3397 
L 2834 2853 
Q 2591 2978 2328 3040 
Q 2066 3103 1784 3103 
Q 1356 3103 1142 2972 
Q 928 2841 928 2578 
Q 928 2378 1081 2264 
Q 1234 2150 1697 2047 
L 1894 2003 
Q 2506 1872 2764 1633 
Q 3022 1394 3022 966 
Q 3022 478 2636 193 
Q 2250 -91 1575 -91 
Q 1294 -91 989 -36 
Q 684 19 347 128 
L 347 722 
Q 666 556 975 473 
Q 1284 391 1588 391 
Q 1994 391 2212 530 
Q 2431 669 2431 922 
Q 2431 1156 2273 1281 
Q 2116 1406 1581 1522 
L 1381 1569 
Q 847 1681 609 1914 
Q 372 2147 372 2553 
Q 372 3047 722 3315 
Q 1072 3584 1716 3584 
Q 2034 3584 2315 3537 
Q 2597 3491 2834 3397 
z
" transform="scale(0.015625)"/>
       <path id="DejaVuSans-5d" d="M 1947 4863 
L 1947 -844 
L 622 -844 
L 622 -397 
L 1369 -397 
L 1369 4416 
L 622 4416 
L 622 4863 
L 1947 4863 
z
" transform="scale(0.015625)"/>
      </defs>
      <use xlink:href="#DejaVuSans-54"/>
      <use xlink:href="#DejaVuSans-69" transform="translate(57.958984 0)"/>
      <use xlink:href="#DejaVuSans-6d" transform="translate(85.742188 0)"/>
      <use xlink:href="#DejaVuSans-65" transform="translate(183.154297 0)"/>
      <use xlink:href="#DejaVuSans-20" transform="translate(244.677734 0)"/>
      <use xlink:href="#DejaVuSans-5b" transform="translate(276.464844 0)"/>
      <use xlink:href="#DejaVuSans-73" transform="translate(315.478516 0)"/>
      <use xlink:href="#DejaVuSans-5d" transform="translate(367.578125 0)"/>
     </g>
    </g>
   </g>
   <g id="matplotlib.axis_2">
    <g id="ytick_1">
     <g id="line2d_14">
      <path d="M 53.66 314.783421 
L 997.2 314.783421 
" clip-path="url(#pc60fa4c2fb)" style="fill: none; stroke: #b0b0b0; stroke-opacity: 0.3; stroke-width: 0.8; stroke-linecap: square"/>
     </g>
     <g id="line2d_15">
      <defs>
       <path id="md732d258e7" d="M 0 0 
L -3.5 0 
" style="stroke: #000000; stroke-width: 0.8"/>
      </defs>
      <g>
       <use xlink:href="#md732d258e7" x="53.66" y="314.783421" style="stroke: #000000; stroke-width: 0.8"/>
      </g>
     </g>
     <g id="text_8">
      <!-- −30 -->
      <g transform="translate(25.555312 318.582639) scale(0.1 -0.1)">
       <defs>
        <path id="DejaVuSans-2212" d="M 678 2272 
L 4684 2272 
L 4684 1741 
L 678 1741 
L 678 2272 
z
" transform="scale(0.015625)"/>
        <path id="DejaVuSans-33" d="M 2597 2516 
Q 3050 2419 3304 2112 
Q 3559 1806 3559 1356 
Q 3559 666 3084 287 
Q 2609 -91 1734 -91 
Q 1441 -91 1130 -33 
Q 819 25 488 141 
L 488 750 
Q 750 597 1062 519 
Q 1375 441 1716 441 
Q 2309 441 2620 675 
Q 2931 909 2931 1356 
Q 2931 1769 2642 2001 
Q 2353 2234 1838 2234 
L 1294 2234 
L 1294 2753 
L 1863 2753 
Q 2328 2753 2575 2939 
Q 2822 3125 2822 3475 
Q 2822 3834 2567 4026 
Q 2313 4219 1838 4219 
Q 1578 4219 1281 4162 
Q 984 4106 628 3988 
L 628 4550 
Q 988 4650 1302 4700 
Q 1616 4750 1894 4750 
Q 2613 4750 3031 4423 
Q 3450 4097 3450 3541 
Q 3450 3153 3228 2886 
Q 3006 2619 2597 2516 
z
" transform="scale(0.015625)"/>
       </defs>
       <use xlink:href="#DejaVuSans-2212"/>
       <use xlink:href="#DejaVuSans-33" transform="translate(83.789062 0)"/>
       <use xlink:href="#DejaVuSans-30" transform="translate(147.412109 0)"/>
      </g>
     </g>
    </g>
    <g id="ytick_2">
     <g id="line2d_16">
      <path d="M 53.66 269.718194 
L 997.2 269.718194 
" clip-path="url(#pc60fa4c2fb)" style="fill: none; stroke: #b0b0b0; stroke-opacity: 0.3; stroke-width: 0.8; stroke-linecap: square"/>
     </g>
     <g id="line2d_17">
      <g>
       <use xlink:href="#md732d258e7" x="53.66" y="269.718194" style="stroke: #000000; stroke-width: 0.8"/>
      </g>
     </g>
     <g id="text_9">
      <!-- −20 -->
      <g transform="translate(25.555312 273.517413) scale(0.1 -0.1)">
       <use xlink:href="#DejaVuSans-2212"/>
       <use xlink:href="#DejaVuSans-32" transform="translate(83.789062 0)"/>
       <use xlink:href="#DejaVuSans-30" transform="translate(147.412109 0)"/>
      </g>
     </g>
    </g>
    <g id="ytick_3">
     <g id="line2d_18">
      <path d="M 53.66 224.652967 
L 997.2 224.652967 
" clip-path="url(#pc60fa4c2fb)" style="fill: none; stroke: #b0b0b0; stroke-opacity: 0.3; stroke-width: 0.8; stroke-linecap: square"/>
     </g>
     <g id="line2d_19">
      <g>
       <use xlink:href="#md732d258e7" x="53.66" y="224.652967" style="stroke: #000000; stroke-width: 0.8"/>
      </g>
     </g>
     <g id="text_10">
      <!-- −10 -->
      <g transform="translate(25.555312 228.452186) scale(0.1 -0.1)">
       <use xlink:href="#DejaVuSans-2212"/>
       <use xlink:href="#DejaVuSans-31" transform="translate(83.789062 0)"/>
       <use xlink:href="#DejaVuSans-30" transform="translate(147.412109 0)"/>
      </g>
     </g>
    </g>
    <g id="ytick_4">
     <g id="line2d_20">
      <path d="M 53.66 179.58774 
L 997.2 179.58774 
" clip-path="url(#pc60fa4c2fb)" style="fill: none; stroke: #b0b0b0; stroke-opacity: 0.3; stroke-width: 0.8; stroke-linecap: square"/>
     </g>
     <g id="line2d_21">
      <g>
       <use xlink:href="#md732d258e7" x="53.66" y="179.58774" style="stroke: #000000; stroke-width: 0.8"/>
      </g>
     </g>
     <g id="text_11">
      <!-- 0 -->
      <g transform="translate(40.2975 183.386959) scale(0.1 -0.1)">
       <use xlink:href="#DejaVuSans-30"/>
      </g>
     </g>
    </g>
    <g id="ytick_5">
     <g id="line2d_22">
      <path d="M 53.66 134.522513 
L 997.2 134.522513 
" clip-path="url(#pc60fa4c2fb)" style="fill: none; stroke: #b0b0b0; stroke-opacity: 0.3; stroke-width: 0.8; stroke-linecap: square"/>
     </g>
     <g id="line2d_23">
      <g>
       <use xlink:href="#md732d258e7" x="53.66" y="134.522513" style="stroke: #000000; stroke-width: 0.8"/>
      </g>
     </g>
     <g id="text_12">
      <!-- 10 -->
      <g transform="translate(33.935 138.321732) scale(0.1 -0.1)">
       <use xlink:href="#DejaVuSans-31"/>
       <use xlink:href="#DejaVuSans-30" transform="translate(63.623047 0)"/>
      </g>
     </g>
    </g>
    <g id="ytick_6">
     <g id="line2d_24">
      <path d="M 53.66 89.457286 
L 997.2 89.457286 
" clip-path="url(#pc60fa4c2fb)" style="fill: none; stroke: #b0b0b0; stroke-opacity: 0.3; stroke-width: 0.8; stroke-linecap: square"/>
     </g>
     <g id="line2d_25">
      <g>
       <use xlink:href="#md732d258e7" x="53.66" y="89.457286" style="stroke: #000000; stroke-width: 0.8"/>
      </g>
     </g>
     <g id="text_13">
      <!-- 20 -->
      <g transform="translate(33.935 93.256505) scale(0.1 -0.1)">
       <use xlink:href="#DejaVuSans-32"/>
       <use xlink:href="#DejaVuSans-30" transform="translate(63.623047 0)"/>
      </g>
     </g>
    </g>
    <g id="ytick_7">
     <g id="line2d_26">
      <path d="M 53.66 44.39206 
L 997.2 44.39206 
" clip-path="url(#pc60fa4c2fb)" style="fill: none; stroke: #b0b0b0; stroke-opacity: 0.3; stroke-width: 0.8; stroke-linecap: square"/>
     </g>
     <g id="line2d_27">
      <g>
       <use xlink:href="#md732d258e7" x="53.66" y="44.39206" style="stroke: #000000; stroke-width: 0.8"/>
      </g>
     </g>
     <g id="text_14">
      <!-- 30 -->
      <g transform="translate(33.935 48.191278) scale(0.1 -0.1)">
       <use xlink:href="#DejaVuSans-33"/>
       <use xlink:href="#DejaVuSans-30" transform="translate(63.623047 0)"/>
      </g>
     </g>
    </g>
    <g id="text_15">
     <!-- x [m] -->
     <g transform="translate(19.267656 194.240344) rotate(-90) scale(0.11 -0.11)">
      <defs>
       <path id="DejaVuSans-78" d="M 3513 3500 
L 2247 1797 
L 3578 0 
L 2900 0 
L 1881 1375 
L 863 0 
L 184 0 
L 1544 1831 
L 300 3500 
L 978 3500 
L 1906 2253 
L 2834 3500 
L 3513 3500 
z
" transform="scale(0.015625)"/>
      </defs>
      <use xlink:href="#DejaVuSans-78"/>
      <use xlink:href="#DejaVuSans-20" transform="translate(59.179688 0)"/>
      <use xlink:href="#DejaVuSans-5b" transform="translate(90.966797 0)"/>
      <use xlink:href="#DejaVuSans-6d" transform="translate(129.980469 0)"/>
      <use xlink:href="#DejaVuSans-5d" transform="translate(227.392578 0)"/>
     </g>
    </g>
   </g>
   <g id="line2d_28">
    <path d="M 96.548182 179.58774 
L 98.265426 179.537776 
L 99.124049 179.383771 
L 99.982671 179.076304 
L 100.841293 178.584805 
L 101.699915 177.88858 
L 103.41716 175.929377 
L 105.134404 173.860758 
L 109.427516 169.259423 
L 115.437872 163.251923 
L 124.024094 155.044224 
L 133.468939 146.327165 
L 143.772406 137.121256 
L 152.358629 129.770005 
L 162.662096 121.263399 
L 172.106941 113.737266 
L 180.693163 107.201967 
L 189.279386 100.93652 
L 197.865608 94.983831 
L 205.593209 89.916232 
L 213.320809 85.147868 
L 220.189787 81.166606 
L 227.058765 77.474118 
L 234.786365 73.59023 
L 241.655344 70.386595 
L 247.665699 67.826168 
L 254.534677 65.162226 
L 260.545033 63.048951 
L 266.555389 61.161682 
L 272.565745 59.502586 
L 279.434723 57.872431 
L 285.445079 56.685463 
L 291.455435 55.756491 
L 297.46579 55.062846 
L 303.476146 54.601388 
L 309.486502 54.389115 
L 315.496858 54.429999 
L 321.507214 54.710483 
L 327.517569 55.238975 
L 332.669303 55.899313 
L 338.679659 56.900434 
L 344.690015 58.100511 
L 350.70037 59.542815 
L 356.710726 61.237092 
L 363.579704 63.452205 
L 369.59006 65.626717 
L 376.459038 68.377192 
L 383.328016 71.395926 
L 389.338372 74.267802 
L 395.348728 77.366377 
L 403.076328 81.623862 
L 409.945306 85.662576 
L 416.814284 89.970331 
L 424.541885 95.062857 
L 432.269485 100.446866 
L 441.71433 107.290447 
L 450.300552 113.808996 
L 459.745397 121.300839 
L 468.33162 128.398043 
L 480.352331 138.683216 
L 493.231665 149.969542 
L 506.110999 161.560831 
L 555.91109 206.971522 
L 567.07318 216.761348 
L 580.811136 228.510825 
L 591.114603 237.022861 
L 600.559448 244.566843 
L 610.004292 251.838971 
L 617.731893 257.521446 
L 625.459493 262.945036 
L 633.187093 268.089875 
L 640.914694 272.923251 
L 647.783672 276.97904 
L 654.65265 280.8128 
L 661.521628 284.40286 
L 668.390606 287.700523 
L 675.259584 290.728956 
L 681.26994 293.158921 
L 687.280296 295.360311 
L 694.149274 297.596126 
L 700.15963 299.33332 
L 706.169985 300.831071 
L 712.180341 302.094688 
L 718.190697 303.13137 
L 724.201053 303.921064 
L 730.211409 304.44999 
L 736.221764 304.736336 
L 742.23212 304.792805 
L 748.242476 304.62222 
L 754.252832 304.199086 
L 760.263188 303.517897 
L 766.273544 302.606219 
L 772.283899 301.456773 
L 778.294255 300.070273 
L 784.304611 298.432822 
L 790.314967 296.572323 
L 796.325323 294.480804 
L 802.335678 292.179917 
L 808.346034 289.661225 
L 814.35639 286.911866 
L 821.225368 283.53319 
L 827.235724 280.337963 
L 834.963324 275.958212 
L 841.832302 271.811491 
L 849.559903 266.876689 
L 857.287503 261.688387 
L 865.015103 256.224638 
L 873.601326 249.868987 
L 881.328926 243.861315 
L 890.773771 236.224712 
L 902.794483 226.192669 
L 915.673817 215.14854 
L 927.694528 204.539386 
L 943.149729 190.581119 
L 954.311818 180.373496 
L 954.311818 180.373496 
" clip-path="url(#pc60fa4c2fb)" style="fill: none; stroke: #888888; stroke-opacity: 0.6; stroke-width: 1.2; stroke-linecap: square"/>
   </g>
   <g id="patch_3">
    <path d="M 53.66 317.32 
L 53.66 41.856 
" style="fill: none; stroke: #000000; stroke-width: 0.8; stroke-linejoin: miter; stroke-linecap: square"/>
   </g>
   <g id="patch_4">
    <path d="M 997.2 317.32 
L 997.2 41.856 
" style="fill: none; stroke: #000000; stroke-width: 0.8; stroke-linejoin: miter; stroke-linecap: square"/>
   </g>
   <g id="patch_5">
    <path d="M 53.66 317.32 
L 997.2 317.32 
" style="fill: none; stroke: #000000; stroke-width: 0.8; stroke-linejoin: miter; stroke-linecap: square"/>
   </g>
   <g id="patch_6">
    <path d="M 53.66 41.856 
L 997.2 41.856 
" style="fill: none; stroke: #000000; stroke-width: 0.8; stroke-linejoin: miter; stroke-linecap: square"/>
   </g>
   <g id="line2d_29">
    <path d="M 96.548182 179.58774 
L 98.265426 179.526953 
L 99.124049 179.356081 
L 99.982671 179.025017 
L 100.841293 178.503885 
L 101.699915 177.774054 
L 102.558538 176.823815 
L 104.275782 174.314084 
L 105.993027 171.636618 
L 106.851649 170.494722 
L 108.568893 168.744269 
L 111.14476 166.389847 
L 115.437872 162.421703 
L 124.024094 154.568294 
L 128.317205 150.734882 
L 132.610317 146.854111 
L 139.479295 140.887571 
L 143.772406 137.099913 
L 150.641384 131.308634 
L 154.075873 128.367264 
L 160.086229 123.424277 
L 163.520718 120.661666 
L 167.813829 117.240394 
L 171.248318 114.470256 
L 177.258674 109.876687 
L 180.693163 107.26426 
L 185.844897 103.506772 
L 189.279386 100.987789 
L 196.148364 96.192155 
L 199.582853 93.925557 
L 203.875964 91.071711 
L 207.310453 88.876467 
L 212.462187 85.725305 
L 215.896676 83.59863 
L 226.200143 77.845018 
L 238.220854 71.873073 
L 243.372588 69.568773 
L 246.807077 68.051596 
L 257.969166 63.814101 
L 271.707123 59.614923 
L 278.576101 58.016368 
L 282.01059 57.250026 
L 293.172679 55.484369 
L 304.334768 54.536123 
L 307.769257 54.506891 
L 312.062369 54.462869 
L 315.496858 54.443106 
L 319.789969 54.741418 
L 325.800325 55.146126 
L 329.234814 55.425331 
L 332.669303 55.965267 
L 337.821036 56.810291 
L 341.255526 57.363578 
L 345.548637 58.395824 
L 352.417615 60.026833 
L 355.852104 60.962282 
L 367.872816 64.921541 
L 371.307305 66.306369 
L 377.31766 68.783421 
L 381.610772 70.554162 
L 385.903883 72.642798 
L 391.914239 75.550889 
L 396.20735 77.766249 
L 401.359084 80.673038 
L 406.510817 83.63198 
L 409.945306 85.599363 
L 421.107396 92.68501 
L 435.703974 102.892382 
L 449.44193 113.157986 
L 455.452286 117.92888 
L 459.745397 121.29598 
L 482.069576 140.097003 
L 487.221309 144.717363 
L 491.514421 148.486961 
L 495.807532 152.254857 
L 537.0214 189.756876 
L 548.18349 200.023018 
L 572.224913 221.303599 
L 578.235269 226.368119 
L 584.245625 231.524625 
L 590.255981 236.422849 
L 596.266336 241.337629 
L 603.993937 247.27873 
L 618.590515 258.112922 
L 622.883626 261.17132 
L 627.176738 264.176011 
L 640.914694 273.00275 
L 646.92505 276.462282 
L 657.228517 282.29348 
L 670.107851 288.551848 
L 676.118206 291.11147 
L 679.552695 292.553497 
L 692.432029 297.15104 
L 700.15963 299.379691 
L 703.594119 300.295639 
L 713.897586 302.458294 
L 717.332075 302.957691 
L 722.483808 303.694699 
L 725.918297 304.09492 
L 737.080387 304.776347 
L 749.101098 304.50506 
L 753.39421 304.23074 
L 756.828699 303.954715 
L 761.12181 303.291553 
L 766.273544 302.565841 
L 768.84941 302.150357 
L 778.294255 300.073332 
L 781.728744 299.097485 
L 794.608078 295.124529 
L 801.477056 292.554728 
L 804.911545 291.153576 
L 818.649501 284.827676 
L 823.801235 282.198693 
L 827.235724 280.461198 
L 830.670213 278.470397 
L 834.963324 275.9882 
L 838.397813 274.01939 
L 851.277147 265.761017 
L 858.146125 261.145526 
L 862.439237 258.113471 
L 865.873726 255.665572 
L 871.884081 251.206416 
L 875.31857 248.602908 
L 880.470304 244.594537 
L 883.904793 241.910384 
L 889.056527 237.743893 
L 892.491016 234.966837 
L 897.642749 230.656984 
L 901.077238 227.812163 
L 907.087594 222.648686 
L 910.522083 219.71188 
L 919.108306 212.131918 
L 924.260039 207.640928 
L 932.846262 199.862531 
L 937.139373 195.986116 
L 944.008351 189.697163 
L 949.160085 185.013546 
L 953.453196 181.096036 
L 954.311818 180.476007 
L 954.311818 180.476007 
" clip-path="url(#pc60fa4c2fb)" style="fill: none; stroke: #2ca02c; stroke-width: 1.5; stroke-linecap: square"/>
   </g>
   <g id="line2d_30">
    <path d="M 96.548182 179.58774 
L 98.265426 179.526943 
L 99.124049 179.35683 
L 99.982671 179.027714 
L 100.841293 178.509306 
L 101.699915 177.782256 
L 102.558538 176.832968 
L 104.275782 174.350409 
L 105.993027 171.747118 
L 106.851649 170.630948 
L 107.710271 169.716828 
L 109.427516 168.350717 
L 111.14476 167.049925 
L 112.862005 165.454231 
L 117.155116 161.268885 
L 123.165472 155.710692 
L 136.903428 143.490914 
L 149.782762 132.400317 
L 160.944851 123.11353 
L 168.672452 116.951176 
L 178.975919 108.98772 
L 187.562141 102.647274 
L 195.289742 97.18166 
L 202.15872 92.615101 
L 210.744942 87.161945 
L 216.755298 83.53747 
L 223.624276 79.69319 
L 232.210499 75.150322 
L 238.220854 72.234444 
L 245.089833 69.153503 
L 251.100188 66.729152 
L 257.969166 64.205046 
L 263.979522 62.190887 
L 269.989878 60.416404 
L 276.000234 58.910521 
L 282.01059 57.598893 
L 288.020945 56.542474 
L 293.172679 55.823801 
L 299.183035 55.208054 
L 304.334768 54.864301 
L 310.345124 54.682715 
L 316.35548 54.761436 
L 322.365836 55.076113 
L 328.376192 55.619304 
L 334.386547 56.413776 
L 340.396903 57.451297 
L 347.265881 58.912368 
L 353.276237 60.424798 
L 358.427971 61.938519 
L 364.438327 63.928323 
L 371.307305 66.429451 
L 377.31766 68.866279 
L 384.186638 71.908572 
L 391.055617 75.22413 
L 397.924595 78.806526 
L 403.93495 82.178825 
L 412.521173 87.261915 
L 420.248773 92.156505 
L 427.117751 96.750329 
L 436.562596 103.401009 
L 444.290197 109.066296 
L 451.159175 114.382993 
L 463.179886 123.986572 
L 472.624731 131.820196 
L 482.928198 140.726045 
L 500.100643 155.907565 
L 512.979977 167.50172 
L 554.193846 205.033486 
L 570.507669 219.363102 
L 581.669758 228.902561 
L 593.69047 238.832174 
L 603.135314 246.234402 
L 612.580159 253.39271 
L 622.025004 260.225043 
L 628.893982 264.925919 
L 638.338827 271.016537 
L 645.207805 275.145296 
L 652.935405 279.555067 
L 659.804383 283.208149 
L 665.814739 286.164186 
L 673.54234 289.682327 
L 679.552695 292.163118 
L 686.421673 294.721443 
L 692.432029 296.762286 
L 698.442385 298.533314 
L 705.311363 300.325489 
L 711.321719 301.629028 
L 717.332075 302.707901 
L 722.483808 303.4198 
L 728.494164 304.033435 
L 734.50452 304.377214 
L 741.373498 304.536168 
L 747.383854 304.403955 
L 752.535587 304.094536 
L 758.545943 303.478172 
L 764.556299 302.645956 
L 770.566655 301.566024 
L 776.577011 300.286946 
L 782.587366 298.741391 
L 788.597722 296.979516 
L 794.608078 294.991206 
L 800.618434 292.778327 
L 806.62879 290.327177 
L 813.497768 287.284951 
L 820.366746 283.936226 
L 827.235724 280.357052 
L 834.104702 276.509963 
L 841.832302 271.900898 
L 849.559903 266.982487 
L 857.287503 261.793776 
L 865.015103 256.365927 
L 872.742704 250.623963 
L 882.187548 243.383396 
L 891.632393 235.822449 
L 901.93586 227.201993 
L 913.956572 216.92555 
L 926.835906 205.527961 
L 953.453196 181.495143 
L 954.311818 180.870743 
L 954.311818 180.870743 
" clip-path="url(#pc60fa4c2fb)" style="fill: none; stroke-dasharray: 4.44,1.92; stroke-dashoffset: 0; stroke: #1f77b4; stroke-width: 1.2"/>
   </g>
   <g id="text_16">
    <!-- figure-8_1 — X Position Tracking -->
    <g transform="translate(407.175703 20.937281) scale(0.13 -0.13)">
     <defs>
      <path id="DejaVuSans-Bold-66" d="M 2841 4863 
L 2841 4128 
L 2222 4128 
Q 1984 4128 1890 4042 
Q 1797 3956 1797 3744 
L 1797 3500 
L 2753 3500 
L 2753 2700 
L 1797 2700 
L 1797 0 
L 678 0 
L 678 2700 
L 122 2700 
L 122 3500 
L 678 3500 
L 678 3744 
Q 678 4316 997 4589 
Q 1316 4863 1984 4863 
L 2841 4863 
z
" transform="scale(0.015625)"/>
      <path id="DejaVuSans-Bold-69" d="M 538 3500 
L 1656 3500 
L 1656 0 
L 538 0 
L 538 3500 
z
M 538 4863 
L 1656 4863 
L 1656 3950 
L 538 3950 
L 538 4863 
z
" transform="scale(0.015625)"/>
      <path id="DejaVuSans-Bold-67" d="M 2919 594 
Q 2688 288 2409 144 
Q 2131 0 1766 0 
Q 1125 0 706 504 
Q 288 1009 288 1791 
Q 288 2575 706 3076 
Q 1125 3578 1766 3578 
Q 2131 3578 2409 3434 
Q 2688 3291 2919 2981 
L 2919 3500 
L 4044 3500 
L 4044 353 
Q 4044 -491 3511 -936 
Q 2978 -1381 1966 -1381 
Q 1638 -1381 1331 -1331 
Q 1025 -1281 716 -1178 
L 716 -306 
Q 1009 -475 1290 -558 
Q 1572 -641 1856 -641 
Q 2406 -641 2662 -400 
Q 2919 -159 2919 353 
L 2919 594 
z
M 2181 2772 
Q 1834 2772 1640 2515 
Q 1447 2259 1447 1791 
Q 1447 1309 1634 1061 
Q 1822 813 2181 813 
Q 2531 813 2725 1069 
Q 2919 1325 2919 1791 
Q 2919 2259 2725 2515 
Q 2531 2772 2181 2772 
z
" transform="scale(0.015625)"/>
      <path id="DejaVuSans-Bold-75" d="M 500 1363 
L 500 3500 
L 1625 3500 
L 1625 3150 
Q 1625 2866 1622 2436 
Q 1619 2006 1619 1863 
Q 1619 1441 1641 1255 
Q 1663 1069 1716 984 
Q 1784 875 1895 815 
Q 2006 756 2150 756 
Q 2500 756 2700 1025 
Q 2900 1294 2900 1772 
L 2900 3500 
L 4019 3500 
L 4019 0 
L 2900 0 
L 2900 506 
Q 2647 200 2364 54 
Q 2081 -91 1741 -91 
Q 1134 -91 817 281 
Q 500 653 500 1363 
z
" transform="scale(0.015625)"/>
      <path id="DejaVuSans-Bold-72" d="M 3138 2547 
Q 2991 2616 2845 2648 
Q 2700 2681 2553 2681 
Q 2122 2681 1889 2404 
Q 1656 2128 1656 1613 
L 1656 0 
L 538 0 
L 538 3500 
L 1656 3500 
L 1656 2925 
Q 1872 3269 2151 3426 
Q 2431 3584 2822 3584 
Q 2878 3584 2943 3579 
Q 3009 3575 3134 3559 
L 3138 2547 
z
" transform="scale(0.015625)"/>
      <path id="DejaVuSans-Bold-65" d="M 4031 1759 
L 4031 1441 
L 1416 1441 
Q 1456 1047 1700 850 
Q 1944 653 2381 653 
Q 2734 653 3104 758 
Q 3475 863 3866 1075 
L 3866 213 
Q 3469 63 3072 -14 
Q 2675 -91 2278 -91 
Q 1328 -91 801 392 
Q 275 875 275 1747 
Q 275 2603 792 3093 
Q 1309 3584 2216 3584 
Q 3041 3584 3536 3087 
Q 4031 2591 4031 1759 
z
M 2881 2131 
Q 2881 2450 2695 2645 
Q 2509 2841 2209 2841 
Q 1884 2841 1681 2658 
Q 1478 2475 1428 2131 
L 2881 2131 
z
" transform="scale(0.015625)"/>
      <path id="DejaVuSans-Bold-2d" d="M 347 2297 
L 2309 2297 
L 2309 1388 
L 347 1388 
L 347 2297 
z
" transform="scale(0.015625)"/>
      <path id="DejaVuSans-Bold-38" d="M 2228 2088 
Q 1891 2088 1709 1903 
Q 1528 1719 1528 1375 
Q 1528 1031 1709 848 
Q 1891 666 2228 666 
Q 2563 666 2741 848 
Q 2919 1031 2919 1375 
Q 2919 1722 2741 1905 
Q 2563 2088 2228 2088 
z
M 1350 2484 
Q 925 2613 709 2878 
Q 494 3144 494 3541 
Q 494 4131 934 4440 
Q 1375 4750 2228 4750 
Q 3075 4750 3515 4442 
Q 3956 4134 3956 3541 
Q 3956 3144 3739 2878 
Q 3522 2613 3097 2484 
Q 3572 2353 3814 2058 
Q 4056 1763 4056 1313 
Q 4056 619 3595 264 
Q 3134 -91 2228 -91 
Q 1319 -91 855 264 
Q 391 619 391 1313 
Q 391 1763 633 2058 
Q 875 2353 1350 2484 
z
M 1631 3419 
Q 1631 3141 1786 2991 
Q 1941 2841 2228 2841 
Q 2509 2841 2662 2991 
Q 2816 3141 2816 3419 
Q 2816 3697 2662 3845 
Q 2509 3994 2228 3994 
Q 1941 3994 1786 3844 
Q 1631 3694 1631 3419 
z
" transform="scale(0.015625)"/>
      <path id="DejaVuSans-Bold-5f" d="M 3200 -916 
L 3200 -1509 
L 0 -1509 
L 0 -916 
L 3200 -916 
z
" transform="scale(0.015625)"/>
      <path id="DejaVuSans-Bold-31" d="M 750 831 
L 1813 831 
L 1813 3847 
L 722 3622 
L 722 4441 
L 1806 4666 
L 2950 4666 
L 2950 831 
L 4013 831 
L 4013 0 
L 750 0 
L 750 831 
z
" transform="scale(0.015625)"/>
      <path id="DejaVuSans-Bold-20" transform="scale(0.015625)"/>
      <path id="DejaVuSans-Bold-2014" d="M 344 2156 
L 6056 2156 
L 6056 1350 
L 344 1350 
L 344 2156 
z
" transform="scale(0.015625)"/>
      <path id="DejaVuSans-Bold-58" d="M 3188 2381 
L 4806 0 
L 3553 0 
L 2463 1594 
L 1381 0 
L 122 0 
L 1741 2381 
L 184 4666 
L 1441 4666 
L 2463 3163 
L 3481 4666 
L 4744 4666 
L 3188 2381 
z
" transform="scale(0.015625)"/>
      <path id="DejaVuSans-Bold-50" d="M 588 4666 
L 2584 4666 
Q 3475 4666 3951 4270 
Q 4428 3875 4428 3144 
Q 4428 2409 3951 2014 
Q 3475 1619 2584 1619 
L 1791 1619 
L 1791 0 
L 588 0 
L 588 4666 
z
M 1791 3794 
L 1791 2491 
L 2456 2491 
Q 2806 2491 2997 2661 
Q 3188 2831 3188 3144 
Q 3188 3456 2997 3625 
Q 2806 3794 2456 3794 
L 1791 3794 
z
" transform="scale(0.015625)"/>
      <path id="DejaVuSans-Bold-6f" d="M 2203 2784 
Q 1831 2784 1636 2517 
Q 1441 2250 1441 1747 
Q 1441 1244 1636 976 
Q 1831 709 2203 709 
Q 2569 709 2762 976 
Q 2956 1244 2956 1747 
Q 2956 2250 2762 2517 
Q 2569 2784 2203 2784 
z
M 2203 3584 
Q 3106 3584 3614 3096 
Q 4122 2609 4122 1747 
Q 4122 884 3614 396 
Q 3106 -91 2203 -91 
Q 1297 -91 786 396 
Q 275 884 275 1747 
Q 275 2609 786 3096 
Q 1297 3584 2203 3584 
z
" transform="scale(0.015625)"/>
      <path id="DejaVuSans-Bold-73" d="M 3272 3391 
L 3272 2541 
Q 2913 2691 2578 2766 
Q 2244 2841 1947 2841 
Q 1628 2841 1473 2761 
Q 1319 2681 1319 2516 
Q 1319 2381 1436 2309 
Q 1553 2238 1856 2203 
L 2053 2175 
Q 2913 2066 3209 1816 
Q 3506 1566 3506 1031 
Q 3506 472 3093 190 
Q 2681 -91 1863 -91 
Q 1516 -91 1145 -36 
Q 775 19 384 128 
L 384 978 
Q 719 816 1070 734 
Q 1422 653 1784 653 
Q 2113 653 2278 743 
Q 2444 834 2444 1013 
Q 2444 1163 2330 1236 
Q 2216 1309 1875 1350 
L 1678 1375 
Q 931 1469 631 1722 
Q 331 1975 331 2491 
Q 331 3047 712 3315 
Q 1094 3584 1881 3584 
Q 2191 3584 2531 3537 
Q 2872 3491 3272 3391 
z
" transform="scale(0.015625)"/>
      <path id="DejaVuSans-Bold-74" d="M 1759 4494 
L 1759 3500 
L 2913 3500 
L 2913 2700 
L 1759 2700 
L 1759 1216 
Q 1759 972 1856 886 
Q 1953 800 2241 800 
L 2816 800 
L 2816 0 
L 1856 0 
Q 1194 0 917 276 
Q 641 553 641 1216 
L 641 2700 
L 84 2700 
L 84 3500 
L 641 3500 
L 641 4494 
L 1759 4494 
z
" transform="scale(0.015625)"/>
      <path id="DejaVuSans-Bold-6e" d="M 4056 2131 
L 4056 0 
L 2931 0 
L 2931 347 
L 2931 1631 
Q 2931 2084 2911 2256 
Q 2891 2428 2841 2509 
Q 2775 2619 2662 2680 
Q 2550 2741 2406 2741 
Q 2056 2741 1856 2470 
Q 1656 2200 1656 1722 
L 1656 0 
L 538 0 
L 538 3500 
L 1656 3500 
L 1656 2988 
Q 1909 3294 2193 3439 
Q 2478 3584 2822 3584 
Q 3428 3584 3742 3212 
Q 4056 2841 4056 2131 
z
" transform="scale(0.015625)"/>
      <path id="DejaVuSans-Bold-54" d="M 31 4666 
L 4331 4666 
L 4331 3756 
L 2784 3756 
L 2784 0 
L 1581 0 
L 1581 3756 
L 31 3756 
L 31 4666 
z
" transform="scale(0.015625)"/>
      <path id="DejaVuSans-Bold-61" d="M 2106 1575 
Q 1756 1575 1579 1456 
Q 1403 1338 1403 1106 
Q 1403 894 1545 773 
Q 1688 653 1941 653 
Q 2256 653 2472 879 
Q 2688 1106 2688 1447 
L 2688 1575 
L 2106 1575 
z
M 3816 1997 
L 3816 0 
L 2688 0 
L 2688 519 
Q 2463 200 2181 54 
Q 1900 -91 1497 -91 
Q 953 -91 614 226 
Q 275 544 275 1050 
Q 275 1666 698 1953 
Q 1122 2241 2028 2241 
L 2688 2241 
L 2688 2328 
Q 2688 2594 2478 2717 
Q 2269 2841 1825 2841 
Q 1466 2841 1156 2769 
Q 847 2697 581 2553 
L 581 3406 
Q 941 3494 1303 3539 
Q 1666 3584 2028 3584 
Q 2975 3584 3395 3211 
Q 3816 2838 3816 1997 
z
" transform="scale(0.015625)"/>
      <path id="DejaVuSans-Bold-63" d="M 3366 3391 
L 3366 2478 
Q 3138 2634 2908 2709 
Q 2678 2784 2431 2784 
Q 1963 2784 1702 2511 
Q 1441 2238 1441 1747 
Q 1441 1256 1702 982 
Q 1963 709 2431 709 
Q 2694 709 2930 787 
Q 3166 866 3366 1019 
L 3366 103 
Q 3103 6 2833 -42 
Q 2563 -91 2291 -91 
Q 1344 -91 809 395 
Q 275 881 275 1747 
Q 275 2613 809 3098 
Q 1344 3584 2291 3584 
Q 2566 3584 2833 3536 
Q 3100 3488 3366 3391 
z
" transform="scale(0.015625)"/>
      <path id="DejaVuSans-Bold-6b" d="M 538 4863 
L 1656 4863 
L 1656 2216 
L 2944 3500 
L 4244 3500 
L 2534 1894 
L 4378 0 
L 3022 0 
L 1656 1459 
L 1656 0 
L 538 0 
L 538 4863 
z
" transform="scale(0.015625)"/>
     </defs>
     <use xlink:href="#DejaVuSans-Bold-66"/>
     <use xlink:href="#DejaVuSans-Bold-69" transform="translate(43.505859 0)"/>
     <use xlink:href="#DejaVuSans-Bold-67" transform="translate(77.783203 0)"/>
     <use xlink:href="#DejaVuSans-Bold-75" transform="translate(149.365234 0)"/>
     <use xlink:href="#DejaVuSans-Bold-72" transform="translate(220.556641 0)"/>
     <use xlink:href="#DejaVuSans-Bold-65" transform="translate(269.873047 0)"/>
     <use xlink:href="#DejaVuSans-Bold-2d" transform="translate(337.695312 0)"/>
     <use xlink:href="#DejaVuSans-Bold-38" transform="translate(379.199219 0)"/>
     <use xlink:href="#DejaVuSans-Bold-5f" transform="translate(448.779297 0)"/>
     <use xlink:href="#DejaVuSans-Bold-31" transform="translate(498.779297 0)"/>
     <use xlink:href="#DejaVuSans-Bold-20" transform="translate(568.359375 0)"/>
     <use xlink:href="#DejaVuSans-Bold-2014" transform="translate(603.173828 0)"/>
     <use xlink:href="#DejaVuSans-Bold-20" transform="translate(703.173828 0)"/>
     <use xlink:href="#DejaVuSans-Bold-58" transform="translate(737.988281 0)"/>
     <use xlink:href="#DejaVuSans-Bold-20" transform="translate(815.087891 0)"/>
     <use xlink:href="#DejaVuSans-Bold-50" transform="translate(849.902344 0)"/>
     <use xlink:href="#DejaVuSans-Bold-6f" transform="translate(923.193359 0)"/>
     <use xlink:href="#DejaVuSans-Bold-73" transform="translate(991.894531 0)"/>
     <use xlink:href="#DejaVuSans-Bold-69" transform="translate(1051.416016 0)"/>
     <use xlink:href="#DejaVuSans-Bold-74" transform="translate(1085.693359 0)"/>
     <use xlink:href="#DejaVuSans-Bold-69" transform="translate(1133.496094 0)"/>
     <use xlink:href="#DejaVuSans-Bold-6f" transform="translate(1167.773438 0)"/>
     <use xlink:href="#DejaVuSans-Bold-6e" transform="translate(1236.474609 0)"/>
     <use xlink:href="#DejaVuSans-Bold-20" transform="translate(1307.666016 0)"/>
     <use xlink:href="#DejaVuSans-Bold-54" transform="translate(1342.480469 0)"/>
     <use xlink:href="#DejaVuSans-Bold-72" transform="translate(1399.693359 0)"/>
     <use xlink:href="#DejaVuSans-Bold-61" transform="translate(1449.009766 0)"/>
     <use xlink:href="#DejaVuSans-Bold-63" transform="translate(1516.490234 0)"/>
     <use xlink:href="#DejaVuSans-Bold-6b" transform="translate(1575.767578 0)"/>
     <use xlink:href="#DejaVuSans-Bold-69" transform="translate(1642.271484 0)"/>
     <use xlink:href="#DejaVuSans-Bold-6e" transform="translate(1676.548828 0)"/>
     <use xlink:href="#DejaVuSans-Bold-67" transform="translate(1747.740234 0)"/>
    </g>
    <!-- PID=0.0750m   EDMDc=0.0573m   Linear=0.0616m -->
    <g transform="translate(338.817031 35.856) scale(0.13 -0.13)">
     <defs>
      <path id="DejaVuSans-Bold-49" d="M 588 4666 
L 1791 4666 
L 1791 0 
L 588 0 
L 588 4666 
z
" transform="scale(0.015625)"/>
      <path id="DejaVuSans-Bold-44" d="M 1791 3756 
L 1791 909 
L 2222 909 
Q 2959 909 3348 1275 
Q 3738 1641 3738 2338 
Q 3738 3031 3350 3393 
Q 2963 3756 2222 3756 
L 1791 3756 
z
M 588 4666 
L 1856 4666 
Q 2919 4666 3439 4514 
Q 3959 4363 4331 4000 
Q 4659 3684 4818 3271 
Q 4978 2859 4978 2338 
Q 4978 1809 4818 1395 
Q 4659 981 4331 666 
Q 3956 303 3431 151 
Q 2906 0 1856 0 
L 588 0 
L 588 4666 
z
" transform="scale(0.015625)"/>
      <path id="DejaVuSans-Bold-3d" d="M 678 3084 
L 4684 3084 
L 4684 2350 
L 678 2350 
L 678 3084 
z
M 678 1663 
L 4684 1663 
L 4684 922 
L 678 922 
L 678 1663 
z
" transform="scale(0.015625)"/>
      <path id="DejaVuSans-Bold-30" d="M 2944 2338 
Q 2944 3213 2780 3570 
Q 2616 3928 2228 3928 
Q 1841 3928 1675 3570 
Q 1509 3213 1509 2338 
Q 1509 1453 1675 1090 
Q 1841 728 2228 728 
Q 2613 728 2778 1090 
Q 2944 1453 2944 2338 
z
M 4147 2328 
Q 4147 1169 3647 539 
Q 3147 -91 2228 -91 
Q 1306 -91 806 539 
Q 306 1169 306 2328 
Q 306 3491 806 4120 
Q 1306 4750 2228 4750 
Q 3147 4750 3647 4120 
Q 4147 3491 4147 2328 
z
" transform="scale(0.015625)"/>
      <path id="DejaVuSans-Bold-2e" d="M 653 1209 
L 1778 1209 
L 1778 0 
L 653 0 
L 653 1209 
z
" transform="scale(0.015625)"/>
      <path id="DejaVuSans-Bold-37" d="M 428 4666 
L 3944 4666 
L 3944 3988 
L 2125 0 
L 953 0 
L 2675 3781 
L 428 3781 
L 428 4666 
z
" transform="scale(0.015625)"/>
      <path id="DejaVuSans-Bold-35" d="M 678 4666 
L 3669 4666 
L 3669 3781 
L 1638 3781 
L 1638 3059 
Q 1775 3097 1914 3117 
Q 2053 3138 2203 3138 
Q 3056 3138 3531 2711 
Q 4006 2284 4006 1522 
Q 4006 766 3489 337 
Q 2972 -91 2053 -91 
Q 1656 -91 1267 -14 
Q 878 63 494 219 
L 494 1166 
Q 875 947 1217 837 
Q 1559 728 1863 728 
Q 2300 728 2551 942 
Q 2803 1156 2803 1522 
Q 2803 1891 2551 2103 
Q 2300 2316 1863 2316 
Q 1603 2316 1309 2248 
Q 1016 2181 678 2041 
L 678 4666 
z
" transform="scale(0.015625)"/>
      <path id="DejaVuSans-Bold-6d" d="M 3781 2919 
Q 3994 3244 4286 3414 
Q 4578 3584 4928 3584 
Q 5531 3584 5847 3212 
Q 6163 2841 6163 2131 
L 6163 0 
L 5038 0 
L 5038 1825 
Q 5041 1866 5042 1909 
Q 5044 1953 5044 2034 
Q 5044 2406 4934 2573 
Q 4825 2741 4581 2741 
Q 4263 2741 4089 2478 
Q 3916 2216 3909 1719 
L 3909 0 
L 2784 0 
L 2784 1825 
Q 2784 2406 2684 2573 
Q 2584 2741 2328 2741 
Q 2006 2741 1831 2477 
Q 1656 2213 1656 1722 
L 1656 0 
L 531 0 
L 531 3500 
L 1656 3500 
L 1656 2988 
Q 1863 3284 2130 3434 
Q 2397 3584 2719 3584 
Q 3081 3584 3359 3409 
Q 3638 3234 3781 2919 
z
" transform="scale(0.015625)"/>
      <path id="DejaVuSans-Bold-45" d="M 588 4666 
L 3834 4666 
L 3834 3756 
L 1791 3756 
L 1791 2888 
L 3713 2888 
L 3713 1978 
L 1791 1978 
L 1791 909 
L 3903 909 
L 3903 0 
L 588 0 
L 588 4666 
z
" transform="scale(0.015625)"/>
      <path id="DejaVuSans-Bold-4d" d="M 588 4666 
L 2119 4666 
L 3181 2169 
L 4250 4666 
L 5778 4666 
L 5778 0 
L 4641 0 
L 4641 3413 
L 3566 897 
L 2803 897 
L 1728 3413 
L 1728 0 
L 588 0 
L 588 4666 
z
" transform="scale(0.015625)"/>
      <path id="DejaVuSans-Bold-33" d="M 2981 2516 
Q 3453 2394 3698 2092 
Q 3944 1791 3944 1325 
Q 3944 631 3412 270 
Q 2881 -91 1863 -91 
Q 1503 -91 1142 -33 
Q 781 25 428 141 
L 428 1069 
Q 766 900 1098 814 
Q 1431 728 1753 728 
Q 2231 728 2486 893 
Q 2741 1059 2741 1369 
Q 2741 1688 2480 1852 
Q 2219 2016 1709 2016 
L 1228 2016 
L 1228 2791 
L 1734 2791 
Q 2188 2791 2409 2933 
Q 2631 3075 2631 3366 
Q 2631 3634 2415 3781 
Q 2200 3928 1806 3928 
Q 1516 3928 1219 3862 
Q 922 3797 628 3669 
L 628 4550 
Q 984 4650 1334 4700 
Q 1684 4750 2022 4750 
Q 2931 4750 3382 4451 
Q 3834 4153 3834 3553 
Q 3834 3144 3618 2883 
Q 3403 2622 2981 2516 
z
" transform="scale(0.015625)"/>
      <path id="DejaVuSans-Bold-4c" d="M 588 4666 
L 1791 4666 
L 1791 909 
L 3903 909 
L 3903 0 
L 588 0 
L 588 4666 
z
" transform="scale(0.015625)"/>
      <path id="DejaVuSans-Bold-36" d="M 2316 2303 
Q 2000 2303 1842 2098 
Q 1684 1894 1684 1484 
Q 1684 1075 1842 870 
Q 2000 666 2316 666 
Q 2634 666 2792 870 
Q 2950 1075 2950 1484 
Q 2950 1894 2792 2098 
Q 2634 2303 2316 2303 
z
M 3803 4544 
L 3803 3681 
Q 3506 3822 3243 3889 
Q 2981 3956 2731 3956 
Q 2194 3956 1894 3657 
Q 1594 3359 1544 2772 
Q 1750 2925 1990 3001 
Q 2231 3078 2516 3078 
Q 3231 3078 3670 2659 
Q 4109 2241 4109 1563 
Q 4109 813 3618 361 
Q 3128 -91 2303 -91 
Q 1394 -91 895 523 
Q 397 1138 397 2266 
Q 397 3422 980 4083 
Q 1563 4744 2578 4744 
Q 2900 4744 3203 4694 
Q 3506 4644 3803 4544 
z
" transform="scale(0.015625)"/>
     </defs>
     <use xlink:href="#DejaVuSans-Bold-50"/>
     <use xlink:href="#DejaVuSans-Bold-49" transform="translate(73.291016 0)"/>
     <use xlink:href="#DejaVuSans-Bold-44" transform="translate(110.498047 0)"/>
     <use xlink:href="#DejaVuSans-Bold-3d" transform="translate(193.505859 0)"/>
     <use xlink:href="#DejaVuSans-Bold-30" transform="translate(277.294922 0)"/>
     <use xlink:href="#DejaVuSans-Bold-2e" transform="translate(346.875 0)"/>
     <use xlink:href="#DejaVuSans-Bold-30" transform="translate(384.863281 0)"/>
     <use xlink:href="#DejaVuSans-Bold-37" transform="translate(454.443359 0)"/>
     <use xlink:href="#DejaVuSans-Bold-35" transform="translate(524.023438 0)"/>
     <use xlink:href="#DejaVuSans-Bold-30" transform="translate(593.603516 0)"/>
     <use xlink:href="#DejaVuSans-Bold-6d" transform="translate(663.183594 0)"/>
     <use xlink:href="#DejaVuSans-Bold-20" transform="translate(767.382812 0)"/>
     <use xlink:href="#DejaVuSans-Bold-20" transform="translate(802.197266 0)"/>
     <use xlink:href="#DejaVuSans-Bold-20" transform="translate(837.011719 0)"/>
     <use xlink:href="#DejaVuSans-Bold-45" transform="translate(871.826172 0)"/>
     <use xlink:href="#DejaVuSans-Bold-44" transform="translate(940.136719 0)"/>
     <use xlink:href="#DejaVuSans-Bold-4d" transform="translate(1023.144531 0)"/>
     <use xlink:href="#DejaVuSans-Bold-44" transform="translate(1122.65625 0)"/>
     <use xlink:href="#DejaVuSans-Bold-63" transform="translate(1205.664062 0)"/>
     <use xlink:href="#DejaVuSans-Bold-3d" transform="translate(1264.941406 0)"/>
     <use xlink:href="#DejaVuSans-Bold-30" transform="translate(1348.730469 0)"/>
     <use xlink:href="#DejaVuSans-Bold-2e" transform="translate(1418.310547 0)"/>
     <use xlink:href="#DejaVuSans-Bold-30" transform="translate(1456.298828 0)"/>
     <use xlink:href="#DejaVuSans-Bold-35" transform="translate(1525.878906 0)"/>
     <use xlink:href="#DejaVuSans-Bold-37" transform="translate(1595.458984 0)"/>
     <use xlink:href="#DejaVuSans-Bold-33" transform="translate(1665.039062 0)"/>
     <use xlink:href="#DejaVuSans-Bold-6d" transform="translate(1734.619141 0)"/>
     <use xlink:href="#DejaVuSans-Bold-20" transform="translate(1838.818359 0)"/>
     <use xlink:href="#DejaVuSans-Bold-20" transform="translate(1873.632812 0)"/>
     <use xlink:href="#DejaVuSans-Bold-20" transform="translate(1908.447266 0)"/>
     <use xlink:href="#DejaVuSans-Bold-4c" transform="translate(1943.261719 0)"/>
     <use xlink:href="#DejaVuSans-Bold-69" transform="translate(2006.982422 0)"/>
     <use xlink:href="#DejaVuSans-Bold-6e" transform="translate(2041.259766 0)"/>
     <use xlink:href="#DejaVuSans-Bold-65" transform="translate(2112.451172 0)"/>
     <use xlink:href="#DejaVuSans-Bold-61" transform="translate(2180.273438 0)"/>
     <use xlink:href="#DejaVuSans-Bold-72" transform="translate(2247.753906 0)"/>
     <use xlink:href="#DejaVuSans-Bold-3d" transform="translate(2297.070312 0)"/>
     <use xlink:href="#DejaVuSans-Bold-30" transform="translate(2380.859375 0)"/>
     <use xlink:href="#DejaVuSans-Bold-2e" transform="translate(2450.439453 0)"/>
     <use xlink:href="#DejaVuSans-Bold-30" transform="translate(2488.427734 0)"/>
     <use xlink:href="#DejaVuSans-Bold-36" transform="translate(2558.007812 0)"/>
     <use xlink:href="#DejaVuSans-Bold-31" transform="translate(2627.587891 0)"/>
     <use xlink:href="#DejaVuSans-Bold-36" transform="translate(2697.167969 0)"/>
     <use xlink:href="#DejaVuSans-Bold-6d" transform="translate(2766.748047 0)"/>
    </g>
   </g>
   <g id="legend_1">
    <g id="patch_7">
     <path d="M 897.535938 108.5685 
L 990.2 108.5685 
Q 992.2 108.5685 992.2 106.5685 
L 992.2 48.856 
Q 992.2 46.856 990.2 46.856 
L 897.535938 46.856 
Q 895.535938 46.856 895.535938 48.856 
L 895.535938 106.5685 
Q 895.535938 108.5685 897.535938 108.5685 
z
" style="fill: #ffffff; opacity: 0.8; stroke: #cccccc; stroke-linejoin: miter"/>
    </g>
    <g id="line2d_31">
     <path d="M 899.535938 54.954438 
L 909.535938 54.954438 
L 919.535938 54.954438 
" style="fill: none; stroke: #000000; stroke-width: 2.5; stroke-linecap: square"/>
    </g>
    <g id="text_17">
     <!-- Reference -->
     <g transform="translate(927.535938 58.454438) scale(0.1 -0.1)">
      <defs>
       <path id="DejaVuSans-52" d="M 2841 2188 
Q 3044 2119 3236 1894 
Q 3428 1669 3622 1275 
L 4263 0 
L 3584 0 
L 2988 1197 
Q 2756 1666 2539 1819 
Q 2322 1972 1947 1972 
L 1259 1972 
L 1259 0 
L 628 0 
L 628 4666 
L 2053 4666 
Q 2853 4666 3247 4331 
Q 3641 3997 3641 3322 
Q 3641 2881 3436 2590 
Q 3231 2300 2841 2188 
z
M 1259 4147 
L 1259 2491 
L 2053 2491 
Q 2509 2491 2742 2702 
Q 2975 2913 2975 3322 
Q 2975 3731 2742 3939 
Q 2509 4147 2053 4147 
L 1259 4147 
z
" transform="scale(0.015625)"/>
       <path id="DejaVuSans-66" d="M 2375 4863 
L 2375 4384 
L 1825 4384 
Q 1516 4384 1395 4259 
Q 1275 4134 1275 3809 
L 1275 3500 
L 2222 3500 
L 2222 3053 
L 1275 3053 
L 1275 0 
L 697 0 
L 697 3053 
L 147 3053 
L 147 3500 
L 697 3500 
L 697 3744 
Q 697 4328 969 4595 
Q 1241 4863 1831 4863 
L 2375 4863 
z
" transform="scale(0.015625)"/>
       <path id="DejaVuSans-72" d="M 2631 2963 
Q 2534 3019 2420 3045 
Q 2306 3072 2169 3072 
Q 1681 3072 1420 2755 
Q 1159 2438 1159 1844 
L 1159 0 
L 581 0 
L 581 3500 
L 1159 3500 
L 1159 2956 
Q 1341 3275 1631 3429 
Q 1922 3584 2338 3584 
Q 2397 3584 2469 3576 
Q 2541 3569 2628 3553 
L 2631 2963 
z
" transform="scale(0.015625)"/>
       <path id="DejaVuSans-6e" d="M 3513 2113 
L 3513 0 
L 2938 0 
L 2938 2094 
Q 2938 2591 2744 2837 
Q 2550 3084 2163 3084 
Q 1697 3084 1428 2787 
Q 1159 2491 1159 1978 
L 1159 0 
L 581 0 
L 581 3500 
L 1159 3500 
L 1159 2956 
Q 1366 3272 1645 3428 
Q 1925 3584 2291 3584 
Q 2894 3584 3203 3211 
Q 3513 2838 3513 2113 
z
" transform="scale(0.015625)"/>
       <path id="DejaVuSans-63" d="M 3122 3366 
L 3122 2828 
Q 2878 2963 2633 3030 
Q 2388 3097 2138 3097 
Q 1578 3097 1268 2742 
Q 959 2388 959 1747 
Q 959 1106 1268 751 
Q 1578 397 2138 397 
Q 2388 397 2633 464 
Q 2878 531 3122 666 
L 3122 134 
Q 2881 22 2623 -34 
Q 2366 -91 2075 -91 
Q 1284 -91 818 406 
Q 353 903 353 1747 
Q 353 2603 823 3093 
Q 1294 3584 2113 3584 
Q 2378 3584 2631 3529 
Q 2884 3475 3122 3366 
z
" transform="scale(0.015625)"/>
      </defs>
      <use xlink:href="#DejaVuSans-52"/>
      <use xlink:href="#DejaVuSans-65" transform="translate(64.982422 0)"/>
      <use xlink:href="#DejaVuSans-66" transform="translate(126.505859 0)"/>
      <use xlink:href="#DejaVuSans-65" transform="translate(161.710938 0)"/>
      <use xlink:href="#DejaVuSans-72" transform="translate(223.234375 0)"/>
      <use xlink:href="#DejaVuSans-65" transform="translate(262.097656 0)"/>
      <use xlink:href="#DejaVuSans-6e" transform="translate(323.621094 0)"/>
      <use xlink:href="#DejaVuSans-63" transform="translate(387 0)"/>
      <use xlink:href="#DejaVuSans-65" transform="translate(441.980469 0)"/>
     </g>
    </g>
    <g id="line2d_32">
     <path d="M 899.535938 69.632563 
L 909.535938 69.632563 
L 919.535938 69.632563 
" style="fill: none; stroke: #888888; stroke-opacity: 0.6; stroke-width: 1.2; stroke-linecap: square"/>
    </g>
    <g id="text_18">
     <!-- PID -->
     <g transform="translate(927.535938 73.132563) scale(0.1 -0.1)">
      <defs>
       <path id="DejaVuSans-50" d="M 1259 4147 
L 1259 2394 
L 2053 2394 
Q 2494 2394 2734 2622 
Q 2975 2850 2975 3272 
Q 2975 3691 2734 3919 
Q 2494 4147 2053 4147 
L 1259 4147 
z
M 628 4666 
L 2053 4666 
Q 2838 4666 3239 4311 
Q 3641 3956 3641 3272 
Q 3641 2581 3239 2228 
Q 2838 1875 2053 1875 
L 1259 1875 
L 1259 0 
L 628 0 
L 628 4666 
z
" transform="scale(0.015625)"/>
       <path id="DejaVuSans-49" d="M 628 4666 
L 1259 4666 
L 1259 0 
L 628 0 
L 628 4666 
z
" transform="scale(0.015625)"/>
       <path id="DejaVuSans-44" d="M 1259 4147 
L 1259 519 
L 2022 519 
Q 2988 519 3436 956 
Q 3884 1394 3884 2338 
Q 3884 3275 3436 3711 
Q 2988 4147 2022 4147 
L 1259 4147 
z
M 628 4666 
L 1925 4666 
Q 3281 4666 3915 4102 
Q 4550 3538 4550 2338 
Q 4550 1131 3912 565 
Q 3275 0 1925 0 
L 628 0 
L 628 4666 
z
" transform="scale(0.015625)"/>
      </defs>
      <use xlink:href="#DejaVuSans-50"/>
      <use xlink:href="#DejaVuSans-49" transform="translate(60.302734 0)"/>
      <use xlink:href="#DejaVuSans-44" transform="translate(89.794922 0)"/>
     </g>
    </g>
    <g id="line2d_33">
     <path d="M 899.535938 84.310688 
L 909.535938 84.310688 
L 919.535938 84.310688 
" style="fill: none; stroke: #2ca02c; stroke-width: 1.5; stroke-linecap: square"/>
    </g>
    <g id="text_19">
     <!-- EDMDc MPC -->
     <g transform="translate(927.535938 87.810688) scale(0.1 -0.1)">
      <defs>
       <path id="DejaVuSans-45" d="M 628 4666 
L 3578 4666 
L 3578 4134 
L 1259 4134 
L 1259 2753 
L 3481 2753 
L 3481 2222 
L 1259 2222 
L 1259 531 
L 3634 531 
L 3634 0 
L 628 0 
L 628 4666 
z
" transform="scale(0.015625)"/>
       <path id="DejaVuSans-4d" d="M 628 4666 
L 1569 4666 
L 2759 1491 
L 3956 4666 
L 4897 4666 
L 4897 0 
L 4281 0 
L 4281 4097 
L 3078 897 
L 2444 897 
L 1241 4097 
L 1241 0 
L 628 0 
L 628 4666 
z
" transform="scale(0.015625)"/>
       <path id="DejaVuSans-43" d="M 4122 4306 
L 4122 3641 
Q 3803 3938 3442 4084 
Q 3081 4231 2675 4231 
Q 1875 4231 1450 3742 
Q 1025 3253 1025 2328 
Q 1025 1406 1450 917 
Q 1875 428 2675 428 
Q 3081 428 3442 575 
Q 3803 722 4122 1019 
L 4122 359 
Q 3791 134 3420 21 
Q 3050 -91 2638 -91 
Q 1578 -91 968 557 
Q 359 1206 359 2328 
Q 359 3453 968 4101 
Q 1578 4750 2638 4750 
Q 3056 4750 3426 4639 
Q 3797 4528 4122 4306 
z
" transform="scale(0.015625)"/>
      </defs>
      <use xlink:href="#DejaVuSans-45"/>
      <use xlink:href="#DejaVuSans-44" transform="translate(63.183594 0)"/>
      <use xlink:href="#DejaVuSans-4d" transform="translate(140.185547 0)"/>
      <use xlink:href="#DejaVuSans-44" transform="translate(226.464844 0)"/>
      <use xlink:href="#DejaVuSans-63" transform="translate(303.466797 0)"/>
      <use xlink:href="#DejaVuSans-20" transform="translate(358.447266 0)"/>
      <use xlink:href="#DejaVuSans-4d" transform="translate(390.234375 0)"/>
      <use xlink:href="#DejaVuSans-50" transform="translate(476.513672 0)"/>
      <use xlink:href="#DejaVuSans-43" transform="translate(536.816406 0)"/>
     </g>
    </g>
    <g id="line2d_34">
     <path d="M 899.535938 98.988813 
L 909.535938 98.988813 
L 919.535938 98.988813 
" style="fill: none; stroke-dasharray: 4.44,1.92; stroke-dashoffset: 0; stroke: #1f77b4; stroke-width: 1.2"/>
    </g>
    <g id="text_20">
     <!-- Linear MPC -->
     <g transform="translate(927.535938 102.488813) scale(0.1 -0.1)">
      <defs>
       <path id="DejaVuSans-4c" d="M 628 4666 
L 1259 4666 
L 1259 531 
L 3531 531 
L 3531 0 
L 628 0 
L 628 4666 
z
" transform="scale(0.015625)"/>
       <path id="DejaVuSans-61" d="M 2194 1759 
Q 1497 1759 1228 1600 
Q 959 1441 959 1056 
Q 959 750 1161 570 
Q 1363 391 1709 391 
Q 2188 391 2477 730 
Q 2766 1069 2766 1631 
L 2766 1759 
L 2194 1759 
z
M 3341 1997 
L 3341 0 
L 2766 0 
L 2766 531 
Q 2569 213 2275 61 
Q 1981 -91 1556 -91 
Q 1019 -91 701 211 
Q 384 513 384 1019 
Q 384 1609 779 1909 
Q 1175 2209 1959 2209 
L 2766 2209 
L 2766 2266 
Q 2766 2663 2505 2880 
Q 2244 3097 1772 3097 
Q 1472 3097 1187 3025 
Q 903 2953 641 2809 
L 641 3341 
Q 956 3463 1253 3523 
Q 1550 3584 1831 3584 
Q 2591 3584 2966 3190 
Q 3341 2797 3341 1997 
z
" transform="scale(0.015625)"/>
      </defs>
      <use xlink:href="#DejaVuSans-4c"/>
      <use xlink:href="#DejaVuSans-69" transform="translate(55.712891 0)"/>
      <use xlink:href="#DejaVuSans-6e" transform="translate(83.496094 0)"/>
      <use xlink:href="#DejaVuSans-65" transform="translate(146.875 0)"/>
      <use xlink:href="#DejaVuSans-61" transform="translate(208.398438 0)"/>
      <use xlink:href="#DejaVuSans-72" transform="translate(269.677734 0)"/>
      <use xlink:href="#DejaVuSans-20" transform="translate(310.791016 0)"/>
      <use xlink:href="#DejaVuSans-4d" transform="translate(342.578125 0)"/>
      <use xlink:href="#DejaVuSans-50" transform="translate(428.857422 0)"/>
      <use xlink:href="#DejaVuSans-43" transform="translate(489.160156 0)"/>
     </g>
    </g>
   </g>
  </g>
 </g>
 <defs>
  <clipPath id="pc60fa4c2fb">
   <rect x="53.66" y="41.856" width="943.54" height="275.464"/>
  </clipPath>
 </defs>
</svg>
