<?xml version="1.0" encoding="utf-8" standalone="no"?>
<!DOCTYPE svg PUBLIC "-//W3C//DTD SVG 1.1//EN"
  "http://www.w3.org/Graphics/SVG/1.1/DTD/svg11.dtd">
<svg xmlns:xlink="http://www.w3.org/1999/xlink" width="1008pt" height="360pt" viewBox="0 0 1008 360" xmlns="http://www.w3.org/2000/svg" version="1.1">
 <metadata>
  <rdf:RDF xmlns:dc="http://purl.org/dc/elements/1.1/" xmlns:cc="http://creativecommons.org/ns#" xmlns:rdf="http://www.w3.org/1999/02/22-rdf-syntax-ns#">
   <cc:Work>
    <dc:type rdf:resource="http://purl.org/dc/dcmitype/StillImage"/>
    <dc:date>2026-03-30T18:30:49.133072</dc:date>
    <dc:format>image/svg+xml</dc:format>
    <dc:creator>
     <cc:Agent>
      <dc:title>Matplotlib v3.10.8, https://matplotlib.org/</dc:title>
     </cc:Agent>
    </dc:creator>
   </cc:Work>
  </rdf:RDF>
 </metadata>
 <defs>
  <style type="text/css">*{stroke-linejoin: round; stroke-linecap: butt}</style>
 </defs>
 <g id="figure_1">
  <g id="patch_1">
   <path d="M 0 360 
L 1008 360 
L 1008 0 
L 0 0 
z
" style="fill: #ffffff"/>
  </g>
  <g id="axes_1">
   <g id="patch_2">
    <path d="M 53.75 317.32 
L 997.2 317.32 
L 997.2 41.856 
L 53.75 41.856 
z
" style="fill: #ffffff"/>
   </g>
   <g id="line2d_1">
    <path d="M 96.634091 54.523644 
L 102.643873 54.644384 
L 108.653656 55.006368 
L 114.663438 55.608897 
L 120.673221 56.450805 
L 126.683003 57.530464 
L 132.692786 58.845784 
L 138.702568 60.394222 
L 144.712351 62.172781 
L 150.722133 64.178022 
L 156.731916 66.406064 
L 162.741699 68.852599 
L 168.751481 71.512892 
L 175.619804 74.808353 
L 182.488127 78.367947 
L 189.35645 82.182682 
L 196.224772 86.242918 
L 203.951636 91.09134 
L 211.678499 96.221971 
L 219.405362 101.618407 
L 227.990766 107.905179 
L 236.576169 114.473967 
L 246.020113 121.994385 
L 256.322598 130.509613 
L 267.483622 140.046123 
L 280.361728 151.371374 
L 295.815454 165.280536 
L 347.327876 211.931871 
L 359.347441 222.392908 
L 370.508465 231.810325 
L 379.952409 239.508079 
L 389.396353 246.918521 
L 397.981757 253.376156 
L 406.56716 259.541585 
L 414.294024 264.820495 
L 422.020887 269.826109 
L 429.74775 274.542422 
L 436.616073 278.479617 
L 443.484396 282.166351 
L 450.352719 285.593311 
L 457.221041 288.751836 
L 463.230824 291.289056 
L 469.240607 293.609728 
L 475.250389 295.709361 
L 481.260172 297.583896 
L 487.269954 299.229704 
L 493.279737 300.643603 
L 499.289519 301.822858 
L 505.299302 302.765186 
L 511.309084 303.468765 
L 517.318867 303.932234 
L 523.328649 304.154696 
L 529.338432 304.135721 
L 535.348214 303.875346 
L 541.357997 303.374074 
L 547.367779 302.632875 
L 553.377562 301.653184 
L 559.387344 300.436894 
L 565.397127 298.986359 
L 571.406909 297.304386 
L 577.416692 295.394227 
L 583.426474 293.259579 
L 589.436257 290.90457 
L 595.446039 288.333757 
L 602.314362 285.137833 
L 609.182685 281.674627 
L 616.051008 277.952887 
L 622.919331 273.982018 
L 629.787654 269.772052 
L 637.514517 264.763311 
L 645.24138 259.481458 
L 652.968243 253.943381 
L 661.553647 247.511017 
L 670.13905 240.809599 
L 679.582994 233.158881 
L 689.885479 224.520845 
L 701.046503 214.874845 
L 713.924609 203.454614 
L 731.095416 187.912569 
L 769.729732 152.825746 
L 783.466378 140.716786 
L 794.627402 131.160057 
L 804.929887 122.622311 
L 814.373831 115.078113 
L 822.959234 108.4852 
L 831.544638 102.172013 
L 839.271501 96.749932 
L 846.998364 91.591967 
L 854.725228 86.714612 
L 861.59355 82.627387 
L 868.461873 78.784541 
L 875.330196 75.195782 
L 882.198519 71.870178 
L 889.066842 68.816132 
L 895.076624 66.372686 
L 901.086407 64.147797 
L 907.096189 62.145768 
L 913.105972 60.370473 
L 919.115754 58.825346 
L 925.125537 57.513375 
L 931.135319 56.437099 
L 937.145102 55.598601 
L 943.154884 54.999501 
L 949.164667 54.640959 
L 954.315909 54.525641 
L 954.315909 54.525641 
" clip-path="url(#pcba4815eea)" style="fill: none; stroke: #000000; stroke-width: 2.5; stroke-linecap: square"/>
   </g>
   <g id="matplotlib.axis_1">
    <g id="xtick_1">
     <g id="line2d_2">
      <path d="M 96.634091 317.32 
L 96.634091 41.856 
" clip-path="url(#pcba4815eea)" style="fill: none; stroke: #b0b0b0; stroke-opacity: 0.3; stroke-width: 0.8; stroke-linecap: square"/>
     </g>
     <g id="line2d_3">
      <defs>
       <path id="m3c04a9ad60" d="M 0 0 
L 0 3.5 
" style="stroke: #000000; stroke-width: 0.8"/>
      </defs>
      <g>
       <use xlink:href="#m3c04a9ad60" x="96.634091" y="317.32" style="stroke: #000000; stroke-width: 0.8"/>
      </g>
     </g>
     <g id="text_1">
      <!-- 0 -->
      <g transform="translate(93.452841 331.918437) scale(0.1 -0.1)">
       <defs>
        <path id="DejaVuSans-30" d="M 2034 4250 
Q 1547 4250 1301 3770 
Q 1056 3291 1056 2328 
Q 1056 1369 1301 889 
Q 1547 409 2034 409 
Q 2525 409 2770 889 
Q 3016 1369 3016 2328 
Q 3016 3291 2770 3770 
Q 2525 4250 2034 4250 
z
M 2034 4750 
Q 2819 4750 3233 4129 
Q 3647 3509 3647 2328 
Q 3647 1150 3233 529 
Q 2819 -91 2034 -91 
Q 1250 -91 836 529 
Q 422 1150 422 2328 
Q 422 3509 836 4129 
Q 1250 4750 2034 4750 
z
" transform="scale(0.015625)"/>
       </defs>
       <use xlink:href="#DejaVuSans-30"/>
      </g>
     </g>
    </g>
    <g id="xtick_2">
     <g id="line2d_4">
      <path d="M 268.342163 317.32 
L 268.342163 41.856 
" clip-path="url(#pcba4815eea)" style="fill: none; stroke: #b0b0b0; stroke-opacity: 0.3; stroke-width: 0.8; stroke-linecap: square"/>
     </g>
     <g id="line2d_5">
      <g>
       <use xlink:href="#m3c04a9ad60" x="268.342163" y="317.32" style="stroke: #000000; stroke-width: 0.8"/>
      </g>
     </g>
     <g id="text_2">
      <!-- 20 -->
      <g transform="translate(261.979663 331.918437) scale(0.1 -0.1)">
       <defs>
        <path id="DejaVuSans-32" d="M 1228 531 
L 3431 531 
L 3431 0 
L 469 0 
L 469 531 
Q 828 903 1448 1529 
Q 2069 2156 2228 2338 
Q 2531 2678 2651 2914 
Q 2772 3150 2772 3378 
Q 2772 3750 2511 3984 
Q 2250 4219 1831 4219 
Q 1534 4219 1204 4116 
Q 875 4013 500 3803 
L 500 4441 
Q 881 4594 1212 4672 
Q 1544 4750 1819 4750 
Q 2544 4750 2975 4387 
Q 3406 4025 3406 3419 
Q 3406 3131 3298 2873 
Q 3191 2616 2906 2266 
Q 2828 2175 2409 1742 
Q 1991 1309 1228 531 
z
" transform="scale(0.015625)"/>
       </defs>
       <use xlink:href="#DejaVuSans-32"/>
       <use xlink:href="#DejaVuSans-30" transform="translate(63.623047 0)"/>
      </g>
     </g>
    </g>
    <g id="xtick_3">
     <g id="line2d_6">
      <path d="M 440.050234 317.32 
L 440.050234 41.856 
" clip-path="url(#pcba4815eea)" style="fill: none; stroke: #b0b0b0; stroke-opacity: 0.3; stroke-width: 0.8; stroke-linecap: square"/>
     </g>
     <g id="line2d_7">
      <g>
       <use xlink:href="#m3c04a9ad60" x="440.050234" y="317.32" style="stroke: #000000; stroke-width: 0.8"/>
      </g>
     </g>
     <g id="text_3">
      <!-- 40 -->
      <g transform="translate(433.687734 331.918437) scale(0.1 -0.1)">
       <defs>
        <path id="DejaVuSans-34" d="M 2419 4116 
L 825 1625 
L 2419 1625 
L 2419 4116 
z
M 2253 4666 
L 3047 4666 
L 3047 1625 
L 3713 1625 
L 3713 1100 
L 3047 1100 
L 3047 0 
L 2419 0 
L 2419 1100 
L 313 1100 
L 313 1709 
L 2253 4666 
z
" transform="scale(0.015625)"/>
       </defs>
       <use xlink:href="#DejaVuSans-34"/>
       <use xlink:href="#DejaVuSans-30" transform="translate(63.623047 0)"/>
      </g>
     </g>
    </g>
    <g id="xtick_4">
     <g id="line2d_8">
      <path d="M 611.758306 317.32 
L 611.758306 41.856 
" clip-path="url(#pcba4815eea)" style="fill: none; stroke: #b0b0b0; stroke-opacity: 0.3; stroke-width: 0.8; stroke-linecap: square"/>
     </g>
     <g id="line2d_9">
      <g>
       <use xlink:href="#m3c04a9ad60" x="611.758306" y="317.32" style="stroke: #000000; stroke-width: 0.8"/>
      </g>
     </g>
     <g id="text_4">
      <!-- 60 -->
      <g transform="translate(605.395806 331.918437) scale(0.1 -0.1)">
       <defs>
        <path id="DejaVuSans-36" d="M 2113 2584 
Q 1688 2584 1439 2293 
Q 1191 2003 1191 1497 
Q 1191 994 1439 701 
Q 1688 409 2113 409 
Q 2538 409 2786 701 
Q 3034 994 3034 1497 
Q 3034 2003 2786 2293 
Q 2538 2584 2113 2584 
z
M 3366 4563 
L 3366 3988 
Q 3128 4100 2886 4159 
Q 2644 4219 2406 4219 
Q 1781 4219 1451 3797 
Q 1122 3375 1075 2522 
Q 1259 2794 1537 2939 
Q 1816 3084 2150 3084 
Q 2853 3084 3261 2657 
Q 3669 2231 3669 1497 
Q 3669 778 3244 343 
Q 2819 -91 2113 -91 
Q 1303 -91 875 529 
Q 447 1150 447 2328 
Q 447 3434 972 4092 
Q 1497 4750 2381 4750 
Q 2619 4750 2861 4703 
Q 3103 4656 3366 4563 
z
" transform="scale(0.015625)"/>
       </defs>
       <use xlink:href="#DejaVuSans-36"/>
       <use xlink:href="#DejaVuSans-30" transform="translate(63.623047 0)"/>
      </g>
     </g>
    </g>
    <g id="xtick_5">
     <g id="line2d_10">
      <path d="M 783.466378 317.32 
L 783.466378 41.856 
" clip-path="url(#pcba4815eea)" style="fill: none; stroke: #b0b0b0; stroke-opacity: 0.3; stroke-width: 0.8; stroke-linecap: square"/>
     </g>
     <g id="line2d_11">
      <g>
       <use xlink:href="#m3c04a9ad60" x="783.466378" y="317.32" style="stroke: #000000; stroke-width: 0.8"/>
      </g>
     </g>
     <g id="text_5">
      <!-- 80 -->
      <g transform="translate(777.103878 331.918437) scale(0.1 -0.1)">
       <defs>
        <path id="DejaVuSans-38" d="M 2034 2216 
Q 1584 2216 1326 1975 
Q 1069 1734 1069 1313 
Q 1069 891 1326 650 
Q 1584 409 2034 409 
Q 2484 409 2743 651 
Q 3003 894 3003 1313 
Q 3003 1734 2745 1975 
Q 2488 2216 2034 2216 
z
M 1403 2484 
Q 997 2584 770 2862 
Q 544 3141 544 3541 
Q 544 4100 942 4425 
Q 1341 4750 2034 4750 
Q 2731 4750 3128 4425 
Q 3525 4100 3525 3541 
Q 3525 3141 3298 2862 
Q 3072 2584 2669 2484 
Q 3125 2378 3379 2068 
Q 3634 1759 3634 1313 
Q 3634 634 3220 271 
Q 2806 -91 2034 -91 
Q 1263 -91 848 271 
Q 434 634 434 1313 
Q 434 1759 690 2068 
Q 947 2378 1403 2484 
z
M 1172 3481 
Q 1172 3119 1398 2916 
Q 1625 2713 2034 2713 
Q 2441 2713 2670 2916 
Q 2900 3119 2900 3481 
Q 2900 3844 2670 4047 
Q 2441 4250 2034 4250 
Q 1625 4250 1398 4047 
Q 1172 3844 1172 3481 
z
" transform="scale(0.015625)"/>
       </defs>
       <use xlink:href="#DejaVuSans-38"/>
       <use xlink:href="#DejaVuSans-30" transform="translate(63.623047 0)"/>
      </g>
     </g>
    </g>
    <g id="xtick_6">
     <g id="line2d_12">
      <path d="M 955.174449 317.32 
L 955.174449 41.856 
" clip-path="url(#pcba4815eea)" style="fill: none; stroke: #b0b0b0; stroke-opacity: 0.3; stroke-width: 0.8; stroke-linecap: square"/>
     </g>
     <g id="line2d_13">
      <g>
       <use xlink:href="#m3c04a9ad60" x="955.174449" y="317.32" style="stroke: #000000; stroke-width: 0.8"/>
      </g>
     </g>
     <g id="text_6">
      <!-- 100 -->
      <g transform="translate(945.630699 331.918437) scale(0.1 -0.1)">
       <defs>
        <path id="DejaVuSans-31" d="M 794 531 
L 1825 531 
L 1825 4091 
L 703 3866 
L 703 4441 
L 1819 4666 
L 2450 4666 
L 2450 531 
L 3481 531 
L 3481 0 
L 794 0 
L 794 531 
z
" transform="scale(0.015625)"/>
       </defs>
       <use xlink:href="#DejaVuSans-31"/>
       <use xlink:href="#DejaVuSans-30" transform="translate(63.623047 0)"/>
       <use xlink:href="#DejaVuSans-30" transform="translate(127.246094 0)"/>
      </g>
     </g>
    </g>
    <g id="text_7">
     <!-- Time [s] -->
     <g transform="translate(503.113203 346.356406) scale(0.11 -0.11)">
      <defs>
       <path id="DejaVuSans-54" d="M -19 4666 
L 3928 4666 
L 3928 4134 
L 2272 4134 
L 2272 0 
L 1638 0 
L 1638 4134 
L -19 4134 
L -19 4666 
z
" transform="scale(0.015625)"/>
       <path id="DejaVuSans-69" d="M 603 3500 
L 1178 3500 
L 1178 0 
L 603 0 
L 603 3500 
z
M 603 4863 
L 1178 4863 
L 1178 4134 
L 603 4134 
L 603 4863 
z
" transform="scale(0.015625)"/>
       <path id="DejaVuSans-6d" d="M 3328 2828 
Q 3544 3216 3844 3400 
Q 4144 3584 4550 3584 
Q 5097 3584 5394 3201 
Q 5691 2819 5691 2113 
L 5691 0 
L 5113 0 
L 5113 2094 
Q 5113 2597 4934 2840 
Q 4756 3084 4391 3084 
Q 3944 3084 3684 2787 
Q 3425 2491 3425 1978 
L 3425 0 
L 2847 0 
L 2847 2094 
Q 2847 2600 2669 2842 
Q 2491 3084 2119 3084 
Q 1678 3084 1418 2786 
Q 1159 2488 1159 1978 
L 1159 0 
L 581 0 
L 581 3500 
L 1159 3500 
L 1159 2956 
Q 1356 3278 1631 3431 
Q 1906 3584 2284 3584 
Q 2666 3584 2933 3390 
Q 3200 3197 3328 2828 
z
" transform="scale(0.015625)"/>
       <path id="DejaVuSans-65" d="M 3597 1894 
L 3597 1613 
L 953 1613 
Q 991 1019 1311 708 
Q 1631 397 2203 397 
Q 2534 397 2845 478 
Q 3156 559 3463 722 
L 3463 178 
Q 3153 47 2828 -22 
Q 2503 -91 2169 -91 
Q 1331 -91 842 396 
Q 353 884 353 1716 
Q 353 2575 817 3079 
Q 1281 3584 2069 3584 
Q 2775 3584 3186 3129 
Q 3597 2675 3597 1894 
z
M 3022 2063 
Q 3016 2534 2758 2815 
Q 2500 3097 2075 3097 
Q 1594 3097 1305 2825 
Q 1016 2553 972 2059 
L 3022 2063 
z
" transform="scale(0.015625)"/>
       <path id="DejaVuSans-20" transform="scale(0.015625)"/>
       <path id="DejaVuSans-5b" d="M 550 4863 
L 1875 4863 
L 1875 4416 
L 1125 4416 
L 1125 -397 
L 1875 -397 
L 1875 -844 
L 550 -844 
L 550 4863 
z
" transform="scale(0.015625)"/>
       <path id="DejaVuSans-73" d="M 2834 3397 
L 2834 2853 
Q 2591 2978 2328 3040 
Q 2066 3103 1784 3103 
Q 1356 3103 1142 2972 
Q 928 2841 928 2578 
Q 928 2378 1081 2264 
Q 1234 2150 1697 2047 
L 1894 2003 
Q 2506 1872 2764 1633 
Q 3022 1394 3022 966 
Q 3022 478 2636 193 
Q 2250 -91 1575 -91 
Q 1294 -91 989 -36 
Q 684 19 347 128 
L 347 722 
Q 666 556 975 473 
Q 1284 391 1588 391 
Q 1994 391 2212 530 
Q 2431 669 2431 922 
Q 2431 1156 2273 1281 
Q 2116 1406 1581 1522 
L 1381 1569 
Q 847 1681 609 1914 
Q 372 2147 372 2553 
Q 372 3047 722 3315 
Q 1072 3584 1716 3584 
Q 2034 3584 2315 3537 
Q 2597 3491 2834 3397 
z
" transform="scale(0.015625)"/>
       <path id="DejaVuSans-5d" d="M 1947 4863 
L 1947 -844 
L 622 -844 
L 622 -397 
L 1369 -397 
L 1369 4416 
L 622 4416 
L 622 4863 
L 1947 4863 
z
" transform="scale(0.015625)"/>
      </defs>
      <use xlink:href="#DejaVuSans-54"/>
      <use xlink:href="#DejaVuSans-69" transform="translate(57.958984 0)"/>
      <use xlink:href="#DejaVuSans-6d" transform="translate(85.742188 0)"/>
      <use xlink:href="#DejaVuSans-65" transform="translate(183.154297 0)"/>
      <use xlink:href="#DejaVuSans-20" transform="translate(244.677734 0)"/>
      <use xlink:href="#DejaVuSans-5b" transform="translate(276.464844 0)"/>
      <use xlink:href="#DejaVuSans-73" transform="translate(315.478516 0)"/>
      <use xlink:href="#DejaVuSans-5d" transform="translate(367.578125 0)"/>
     </g>
    </g>
   </g>
   <g id="matplotlib.axis_2">
    <g id="ytick_1">
     <g id="line2d_14">
      <path d="M 53.75 312.845642 
L 997.2 312.845642 
" clip-path="url(#pcba4815eea)" style="fill: none; stroke: #b0b0b0; stroke-opacity: 0.3; stroke-width: 0.8; stroke-linecap: square"/>
     </g>
     <g id="line2d_15">
      <defs>
       <path id="mad67e34d94" d="M 0 0 
L -3.5 0 
" style="stroke: #000000; stroke-width: 0.8"/>
      </defs>
      <g>
       <use xlink:href="#mad67e34d94" x="53.75" y="312.845642" style="stroke: #000000; stroke-width: 0.8"/>
      </g>
     </g>
     <g id="text_8">
      <!-- −16 -->
      <g transform="translate(25.645313 316.644861) scale(0.1 -0.1)">
       <defs>
        <path id="DejaVuSans-2212" d="M 678 2272 
L 4684 2272 
L 4684 1741 
L 678 1741 
L 678 2272 
z
" transform="scale(0.015625)"/>
       </defs>
       <use xlink:href="#DejaVuSans-2212"/>
       <use xlink:href="#DejaVuSans-31" transform="translate(83.789062 0)"/>
       <use xlink:href="#DejaVuSans-36" transform="translate(147.412109 0)"/>
      </g>
     </g>
    </g>
    <g id="ytick_2">
     <g id="line2d_16">
      <path d="M 53.75 280.555393 
L 997.2 280.555393 
" clip-path="url(#pcba4815eea)" style="fill: none; stroke: #b0b0b0; stroke-opacity: 0.3; stroke-width: 0.8; stroke-linecap: square"/>
     </g>
     <g id="line2d_17">
      <g>
       <use xlink:href="#mad67e34d94" x="53.75" y="280.555393" style="stroke: #000000; stroke-width: 0.8"/>
      </g>
     </g>
     <g id="text_9">
      <!-- −14 -->
      <g transform="translate(25.645313 284.354611) scale(0.1 -0.1)">
       <use xlink:href="#DejaVuSans-2212"/>
       <use xlink:href="#DejaVuSans-31" transform="translate(83.789062 0)"/>
       <use xlink:href="#DejaVuSans-34" transform="translate(147.412109 0)"/>
      </g>
     </g>
    </g>
    <g id="ytick_3">
     <g id="line2d_18">
      <path d="M 53.75 248.265143 
L 997.2 248.265143 
" clip-path="url(#pcba4815eea)" style="fill: none; stroke: #b0b0b0; stroke-opacity: 0.3; stroke-width: 0.8; stroke-linecap: square"/>
     </g>
     <g id="line2d_19">
      <g>
       <use xlink:href="#mad67e34d94" x="53.75" y="248.265143" style="stroke: #000000; stroke-width: 0.8"/>
      </g>
     </g>
     <g id="text_10">
      <!-- −12 -->
      <g transform="translate(25.645313 252.064362) scale(0.1 -0.1)">
       <use xlink:href="#DejaVuSans-2212"/>
       <use xlink:href="#DejaVuSans-31" transform="translate(83.789062 0)"/>
       <use xlink:href="#DejaVuSans-32" transform="translate(147.412109 0)"/>
      </g>
     </g>
    </g>
    <g id="ytick_4">
     <g id="line2d_20">
      <path d="M 53.75 215.974893 
L 997.2 215.974893 
" clip-path="url(#pcba4815eea)" style="fill: none; stroke: #b0b0b0; stroke-opacity: 0.3; stroke-width: 0.8; stroke-linecap: square"/>
     </g>
     <g id="line2d_21">
      <g>
       <use xlink:href="#mad67e34d94" x="53.75" y="215.974893" style="stroke: #000000; stroke-width: 0.8"/>
      </g>
     </g>
     <g id="text_11">
      <!-- −10 -->
      <g transform="translate(25.645313 219.774112) scale(0.1 -0.1)">
       <use xlink:href="#DejaVuSans-2212"/>
       <use xlink:href="#DejaVuSans-31" transform="translate(83.789062 0)"/>
       <use xlink:href="#DejaVuSans-30" transform="translate(147.412109 0)"/>
      </g>
     </g>
    </g>
    <g id="ytick_5">
     <g id="line2d_22">
      <path d="M 53.75 183.684643 
L 997.2 183.684643 
" clip-path="url(#pcba4815eea)" style="fill: none; stroke: #b0b0b0; stroke-opacity: 0.3; stroke-width: 0.8; stroke-linecap: square"/>
     </g>
     <g id="line2d_23">
      <g>
       <use xlink:href="#mad67e34d94" x="53.75" y="183.684643" style="stroke: #000000; stroke-width: 0.8"/>
      </g>
     </g>
     <g id="text_12">
      <!-- −8 -->
      <g transform="translate(32.007813 187.483862) scale(0.1 -0.1)">
       <use xlink:href="#DejaVuSans-2212"/>
       <use xlink:href="#DejaVuSans-38" transform="translate(83.789062 0)"/>
      </g>
     </g>
    </g>
    <g id="ytick_6">
     <g id="line2d_24">
      <path d="M 53.75 151.394394 
L 997.2 151.394394 
" clip-path="url(#pcba4815eea)" style="fill: none; stroke: #b0b0b0; stroke-opacity: 0.3; stroke-width: 0.8; stroke-linecap: square"/>
     </g>
     <g id="line2d_25">
      <g>
       <use xlink:href="#mad67e34d94" x="53.75" y="151.394394" style="stroke: #000000; stroke-width: 0.8"/>
      </g>
     </g>
     <g id="text_13">
      <!-- −6 -->
      <g transform="translate(32.007813 155.193612) scale(0.1 -0.1)">
       <use xlink:href="#DejaVuSans-2212"/>
       <use xlink:href="#DejaVuSans-36" transform="translate(83.789062 0)"/>
      </g>
     </g>
    </g>
    <g id="ytick_7">
     <g id="line2d_26">
      <path d="M 53.75 119.104144 
L 997.2 119.104144 
" clip-path="url(#pcba4815eea)" style="fill: none; stroke: #b0b0b0; stroke-opacity: 0.3; stroke-width: 0.8; stroke-linecap: square"/>
     </g>
     <g id="line2d_27">
      <g>
       <use xlink:href="#mad67e34d94" x="53.75" y="119.104144" style="stroke: #000000; stroke-width: 0.8"/>
      </g>
     </g>
     <g id="text_14">
      <!-- −4 -->
      <g transform="translate(32.007813 122.903363) scale(0.1 -0.1)">
       <use xlink:href="#DejaVuSans-2212"/>
       <use xlink:href="#DejaVuSans-34" transform="translate(83.789062 0)"/>
      </g>
     </g>
    </g>
    <g id="ytick_8">
     <g id="line2d_28">
      <path d="M 53.75 86.813894 
L 997.2 86.813894 
" clip-path="url(#pcba4815eea)" style="fill: none; stroke: #b0b0b0; stroke-opacity: 0.3; stroke-width: 0.8; stroke-linecap: square"/>
     </g>
     <g id="line2d_29">
      <g>
       <use xlink:href="#mad67e34d94" x="53.75" y="86.813894" style="stroke: #000000; stroke-width: 0.8"/>
      </g>
     </g>
     <g id="text_15">
      <!-- −2 -->
      <g transform="translate(32.007813 90.613113) scale(0.1 -0.1)">
       <use xlink:href="#DejaVuSans-2212"/>
       <use xlink:href="#DejaVuSans-32" transform="translate(83.789062 0)"/>
      </g>
     </g>
    </g>
    <g id="ytick_9">
     <g id="line2d_30">
      <path d="M 53.75 54.523644 
L 997.2 54.523644 
" clip-path="url(#pcba4815eea)" style="fill: none; stroke: #b0b0b0; stroke-opacity: 0.3; stroke-width: 0.8; stroke-linecap: square"/>
     </g>
     <g id="line2d_31">
      <g>
       <use xlink:href="#mad67e34d94" x="53.75" y="54.523644" style="stroke: #000000; stroke-width: 0.8"/>
      </g>
     </g>
     <g id="text_16">
      <!-- 0 -->
      <g transform="translate(40.3875 58.322863) scale(0.1 -0.1)">
       <use xlink:href="#DejaVuSans-30"/>
      </g>
     </g>
    </g>
    <g id="text_17">
     <!-- x [m] -->
     <g transform="translate(19.357656 194.240344) rotate(-90) scale(0.11 -0.11)">
      <defs>
       <path id="DejaVuSans-78" d="M 3513 3500 
L 2247 1797 
L 3578 0 
L 2900 0 
L 1881 1375 
L 863 0 
L 184 0 
L 1544 1831 
L 300 3500 
L 978 3500 
L 1906 2253 
L 2834 3500 
L 3513 3500 
z
" transform="scale(0.015625)"/>
      </defs>
      <use xlink:href="#DejaVuSans-78"/>
      <use xlink:href="#DejaVuSans-20" transform="translate(59.179688 0)"/>
      <use xlink:href="#DejaVuSans-5b" transform="translate(90.966797 0)"/>
      <use xlink:href="#DejaVuSans-6d" transform="translate(129.980469 0)"/>
      <use xlink:href="#DejaVuSans-5d" transform="translate(227.392578 0)"/>
     </g>
    </g>
   </g>
   <g id="line2d_32">
    <path d="M 96.634091 54.523644 
L 104.360954 54.610403 
L 109.512196 54.90215 
L 115.521979 55.498718 
L 119.814681 56.07367 
L 124.965923 57.029959 
L 133.551326 58.891329 
L 139.561109 60.3789 
L 145.570891 62.122688 
L 150.722133 63.812076 
L 156.731916 66.012406 
L 161.883158 68.105242 
L 168.751481 71.158604 
L 175.619804 74.431314 
L 181.629586 77.524348 
L 188.497909 81.301426 
L 194.507692 84.838238 
L 201.376015 89.154668 
L 209.961418 94.795524 
L 217.688281 100.132226 
L 226.273685 106.364711 
L 234.000548 112.26762 
L 244.303033 120.43015 
L 252.888436 127.547921 
L 268.342163 140.711017 
L 279.503187 150.441236 
L 294.098373 163.514542 
L 314.703342 182.3308 
L 355.054739 219.243369 
L 364.498683 227.430384 
L 373.084086 234.566414 
L 383.386571 242.826101 
L 391.971974 249.387242 
L 400.557378 255.70101 
L 408.284241 261.125981 
L 415.152564 265.702808 
L 423.737968 271.129548 
L 431.464831 275.766614 
L 438.333154 279.598056 
L 446.060017 283.652206 
L 452.069799 286.587008 
L 458.938122 289.681195 
L 464.947905 292.160153 
L 470.957687 294.39787 
L 476.96747 296.43769 
L 482.977252 298.245922 
L 488.987035 299.848103 
L 494.996817 301.211614 
L 501.0066 302.335201 
L 506.157842 303.093923 
L 512.167624 303.765356 
L 518.177407 304.199734 
L 523.328649 304.354846 
L 529.338432 304.319501 
L 534.489674 304.093363 
L 541.357997 303.523655 
L 547.367779 302.818155 
L 552.519021 301.979594 
L 558.528804 300.762162 
L 565.397127 299.16978 
L 571.406909 297.534729 
L 577.416692 295.662931 
L 583.426474 293.562644 
L 589.436257 291.234693 
L 595.446039 288.67863 
L 601.455822 285.86262 
L 609.182685 281.950445 
L 616.051008 278.21514 
L 622.06079 274.718212 
L 630.646194 269.426791 
L 638.373057 264.378651 
L 645.24138 259.669733 
L 653.826784 253.506362 
L 662.412187 247.064033 
L 670.997591 240.338616 
L 681.300075 231.919202 
L 689.885479 224.653223 
L 704.480665 211.955795 
L 715.641689 201.943845 
L 740.53936 179.195718 
L 776.598055 146.293642 
L 787.75908 136.556834 
L 798.061564 127.833224 
L 806.646967 120.869497 
L 817.807992 112.101633 
L 826.393396 105.641639 
L 834.978799 99.506448 
L 843.564203 93.632336 
L 850.432526 89.188783 
L 858.159389 84.473883 
L 864.169171 81.054524 
L 872.754575 76.472242 
L 878.764358 73.460448 
L 886.491221 69.881285 
L 893.359544 66.924415 
L 899.369326 64.570296 
L 905.379109 62.450243 
L 911.388891 60.584116 
L 917.398674 58.95958 
L 923.408456 57.58754 
L 928.559698 56.659466 
L 934.569481 55.819339 
L 941.437804 55.05159 
L 946.589046 54.708375 
L 953.457369 54.524047 
L 954.315909 54.514831 
L 954.315909 54.514831 
" clip-path="url(#pcba4815eea)" style="fill: none; stroke: #888888; stroke-opacity: 0.6; stroke-width: 1.2; stroke-linecap: square"/>
   </g>
   <g id="patch_3">
    <path d="M 53.75 317.32 
L 53.75 41.856 
" style="fill: none; stroke: #000000; stroke-width: 0.8; stroke-linejoin: miter; stroke-linecap: square"/>
   </g>
   <g id="patch_4">
    <path d="M 997.2 317.32 
L 997.2 41.856 
" style="fill: none; stroke: #000000; stroke-width: 0.8; stroke-linejoin: miter; stroke-linecap: square"/>
   </g>
   <g id="patch_5">
    <path d="M 53.75 317.32 
L 997.2 317.32 
" style="fill: none; stroke: #000000; stroke-width: 0.8; stroke-linejoin: miter; stroke-linecap: square"/>
   </g>
   <g id="patch_6">
    <path d="M 53.75 41.856 
L 997.2 41.856 
" style="fill: none; stroke: #000000; stroke-width: 0.8; stroke-linejoin: miter; stroke-linecap: square"/>
   </g>
   <g id="line2d_33">
    <path d="M 96.634091 54.523644 
L 100.068252 54.631497 
L 104.360954 54.979632 
L 106.936575 54.901068 
L 109.512196 54.830333 
L 111.229277 55.056631 
L 115.521979 55.850642 
L 119.814681 56.072588 
L 121.531761 56.455726 
L 125.824463 57.636147 
L 127.541544 57.900104 
L 131.834246 58.384071 
L 133.551326 58.884463 
L 137.844028 60.408764 
L 140.419649 60.942121 
L 142.99527 61.410426 
L 144.712351 61.943548 
L 148.146512 63.442807 
L 149.863593 64.112279 
L 152.439214 64.816714 
L 155.014835 65.502924 
L 156.731916 66.188076 
L 162.741699 69.03125 
L 167.0344 70.510635 
L 169.610021 71.907876 
L 173.044183 73.800482 
L 175.619804 74.899144 
L 178.195425 75.91405 
L 179.912506 76.852432 
L 185.063748 79.988852 
L 187.639369 81.238936 
L 190.21499 82.473005 
L 191.932071 83.551158 
L 196.224772 86.451346 
L 201.376015 89.198555 
L 203.951636 91.060797 
L 208.244338 94.2026 
L 210.819959 95.690042 
L 213.39558 97.176756 
L 215.11266 98.391141 
L 221.980983 103.67413 
L 225.415145 105.839529 
L 227.990766 107.935853 
L 232.283468 111.482738 
L 234.859089 113.193901 
L 237.43471 114.927979 
L 239.15179 116.2983 
L 248.595734 124.514127 
L 252.888436 127.77182 
L 256.322598 130.317597 
L 258.898219 132.580038 
L 264.908001 138.252655 
L 268.342163 141.147759 
L 275.210485 146.773141 
L 280.361728 151.778697 
L 282.937349 153.811505 
L 284.654429 155.150541 
L 286.37151 156.712643 
L 293.239833 163.362227 
L 296.673994 166.280004 
L 300.108156 169.115451 
L 302.683777 171.681325 
L 305.259398 174.273636 
L 307.835019 176.468782 
L 311.269181 179.260893 
L 313.844802 181.740071 
L 318.996044 186.892825 
L 323.288746 190.803441 
L 328.439988 195.115152 
L 331.015609 197.280452 
L 333.59123 199.780838 
L 337.025391 203.220142 
L 338.742472 204.680409 
L 342.176633 207.367784 
L 344.752255 209.810523 
L 348.186416 213.164679 
L 350.762037 215.207376 
L 353.337658 217.1847 
L 355.913279 219.534315 
L 361.064521 224.404609 
L 363.640142 226.376511 
L 367.074304 228.932056 
L 369.649925 231.244805 
L 373.942627 235.186576 
L 375.659707 236.501218 
L 379.952409 239.530744 
L 382.52803 241.770916 
L 385.962192 244.797461 
L 388.537813 246.606132 
L 391.113434 248.298995 
L 392.830515 249.617603 
L 397.981757 253.947524 
L 400.557378 255.60362 
L 403.132999 257.204735 
L 405.70862 259.19079 
L 408.284241 261.276531 
L 410.001322 262.402104 
L 416.011104 265.967632 
L 419.445266 268.444855 
L 422.879427 270.966209 
L 425.455048 272.512511 
L 431.464831 275.672861 
L 439.191694 280.5669 
L 441.767315 281.811971 
L 447.777098 284.448022 
L 455.503961 288.730021 
L 458.938122 290.17377 
L 462.372284 291.368609 
L 466.664985 292.768557 
L 469.240607 293.944976 
L 472.674768 295.507489 
L 474.391849 296.027843 
L 479.543091 297.236189 
L 485.552873 299.461136 
L 487.269954 299.770848 
L 490.704115 300.240105 
L 492.421196 300.694358 
L 496.713898 302.024479 
L 498.430979 302.29298 
L 504.440761 302.836424 
L 507.016382 303.347288 
L 509.592003 303.915677 
L 511.309084 304.033962 
L 515.601786 304.046967 
L 518.177407 304.472637 
L 519.894488 304.71052 
L 521.611568 304.694603 
L 525.04573 304.390825 
L 526.762811 304.465273 
L 531.055512 304.798909 
L 532.772593 304.657489 
L 537.923835 303.925899 
L 543.933618 303.799971 
L 545.650698 303.437481 
L 549.08486 302.599825 
L 550.801941 302.418371 
L 554.236102 302.141107 
L 555.953183 301.690826 
L 559.387344 300.650245 
L 561.962965 300.271151 
L 563.680046 300.035157 
L 565.397127 299.553016 
L 569.689828 298.035842 
L 572.26545 297.535266 
L 573.98253 297.145994 
L 575.699611 296.508322 
L 578.275232 295.382031 
L 579.992313 294.856757 
L 583.426474 293.927942 
L 585.143555 293.188165 
L 589.436257 291.069869 
L 592.011878 290.203536 
L 594.587499 289.373697 
L 596.30458 288.580082 
L 601.455822 285.736046 
L 604.889983 284.439467 
L 606.607064 283.689787 
L 608.324145 282.711624 
L 612.616846 280.021186 
L 615.192467 278.828163 
L 617.768089 277.648563 
L 619.485169 276.632947 
L 624.636411 273.13812 
L 630.646194 269.868853 
L 636.655976 265.608796 
L 641.807219 262.45403 
L 646.958461 258.531989 
L 650.392622 256.427807 
L 652.109703 255.107058 
L 655.543864 252.240396 
L 658.119485 250.540864 
L 659.836566 249.380139 
L 661.553647 247.983323 
L 664.987808 245.012282 
L 667.563429 243.19739 
L 669.28051 242.021692 
L 670.997591 240.611011 
L 675.290293 236.836319 
L 680.441535 232.93878 
L 684.734237 228.997544 
L 690.744019 224.200748 
L 694.17818 220.93757 
L 696.753802 218.937219 
L 698.470882 217.617525 
L 700.187963 216.057538 
L 703.622124 212.704438 
L 706.197745 210.616393 
L 708.773367 208.607841 
L 711.348988 206.242402 
L 716.50023 201.190936 
L 719.934391 198.254145 
L 723.368553 195.414175 
L 730.236876 188.921713 
L 732.812497 186.797687 
L 735.388118 184.218527 
L 737.105198 182.519793 
L 739.680819 180.361252 
L 742.256441 178.199879 
L 744.832062 175.594916 
L 747.407683 173.060358 
L 749.983304 170.979405 
L 751.700384 169.526762 
L 754.276006 166.945277 
L 756.851627 164.44444 
L 762.861409 159.283477 
L 765.43703 156.677916 
L 767.154111 155.179969 
L 771.446813 151.656575 
L 776.598055 146.707073 
L 782.607837 141.872554 
L 787.75908 136.941197 
L 790.334701 135.004353 
L 792.910322 133.04945 
L 795.485943 130.696652 
L 798.920104 127.481101 
L 801.495725 125.544771 
L 804.071346 123.714303 
L 805.788427 122.302486 
L 810.939669 117.684966 
L 813.51529 115.88115 
L 816.090911 114.107416 
L 818.666532 111.943608 
L 822.100694 108.979593 
L 823.817775 107.771801 
L 828.110476 105.001251 
L 830.686097 102.903793 
L 833.261719 100.781663 
L 834.978799 99.591287 
L 840.130041 96.463562 
L 845.281284 92.624864 
L 849.573985 90.151034 
L 853.866687 87.063846 
L 856.442308 85.694913 
L 859.017929 84.428331 
L 860.73501 83.398004 
L 866.744793 79.453389 
L 870.178954 77.575177 
L 873.613115 75.955448 
L 880.481438 72.940347 
L 884.77414 70.498695 
L 886.491221 69.799015 
L 891.642463 68.010679 
L 896.793705 65.547013 
L 901.944947 64.05084 
L 906.237649 62.246568 
L 908.81327 61.711037 
L 910.530351 61.330118 
L 912.247432 60.732616 
L 914.823053 59.712846 
L 916.540133 59.261048 
L 919.115754 58.908382 
L 921.691375 58.481866 
L 924.266997 57.740889 
L 926.842618 56.954217 
L 928.559698 56.687218 
L 932.8524 56.338266 
L 938.003642 55.28183 
L 940.579263 55.290791 
L 943.154884 55.257589 
L 944.871965 55.034912 
L 948.306127 54.434539 
L 950.023207 54.381533 
L 953.457369 54.697489 
L 954.315909 54.753297 
L 954.315909 54.753297 
" clip-path="url(#pcba4815eea)" style="fill: none; stroke: #2ca02c; stroke-width: 1.5; stroke-linecap: square"/>
   </g>
   <g id="line2d_34">
    <path d="M 96.634091 54.523644 
L 103.502414 54.621533 
L 108.653656 54.885847 
L 114.663438 55.458214 
L 118.95614 56.017613 
L 124.965923 57.102933 
L 131.834246 58.640383 
L 137.844028 60.137158 
L 143.853811 61.868263 
L 151.580674 64.319557 
L 155.873376 65.944771 
L 164.458779 69.450309 
L 173.044183 73.363329 
L 179.053965 76.312376 
L 185.922288 79.928254 
L 192.790611 83.826063 
L 197.083313 86.443396 
L 211.678499 95.913676 
L 218.546822 100.738655 
L 226.273685 106.375139 
L 235.717629 113.459734 
L 242.585952 119.00857 
L 264.908001 137.459628 
L 270.059243 141.94678 
L 295.815454 164.934451 
L 324.147286 190.839504 
L 333.59123 199.39007 
L 351.620577 215.395885 
L 367.074304 228.664481 
L 378.235329 237.83131 
L 390.254894 247.343949 
L 398.840297 253.717932 
L 409.142781 261.121274 
L 416.011104 265.755441 
L 424.596508 271.294035 
L 429.74775 274.34151 
L 439.191694 279.740052 
L 444.342936 282.485978 
L 452.069799 286.233136 
L 459.796663 289.703581 
L 466.664985 292.579715 
L 472.674768 294.743262 
L 480.401631 297.308157 
L 484.694333 298.496927 
L 491.562656 300.187194 
L 498.430979 301.665947 
L 501.86514 302.232156 
L 512.167624 303.53175 
L 516.460326 303.887028 
L 523.328649 304.117773 
L 528.479891 304.099572 
L 534.489674 303.803483 
L 543.075077 303.106063 
L 549.08486 302.443992 
L 553.377562 301.699767 
L 562.821506 299.704386 
L 567.972748 298.403132 
L 576.558151 295.840372 
L 581.709393 294.012089 
L 587.719176 291.774291 
L 594.587499 288.835862 
L 601.455822 285.719767 
L 607.465604 282.774515 
L 616.909548 277.670557 
L 622.06079 274.671381 
L 633.221815 267.81712 
L 640.090138 263.232794 
L 649.534082 256.624193 
L 658.119485 250.413632 
L 670.997591 240.37804 
L 682.158615 231.337125 
L 691.602559 223.4752 
L 704.480665 212.196125 
L 721.651472 196.810085 
L 730.236876 188.986794 
L 765.43703 156.948968 
L 780.890757 143.243284 
L 790.334701 135.069846 
L 798.920104 127.892694 
L 813.51529 116.045478 
L 826.393396 106.119988 
L 833.261719 101.212003 
L 844.422743 93.560295 
L 850.432526 89.598719 
L 858.159389 84.86998 
L 865.886252 80.385607 
L 876.188736 74.886999 
L 881.339979 72.467276 
L 892.501003 67.534185 
L 898.510786 65.270001 
L 905.379109 62.850755 
L 911.388891 60.974151 
L 920.832835 58.454579 
L 925.984077 57.335704 
L 931.99386 56.252425 
L 936.286562 55.675889 
L 944.013425 54.913375 
L 947.447586 54.702121 
L 952.598828 54.612956 
L 954.315909 54.620485 
L 954.315909 54.620485 
" clip-path="url(#pcba4815eea)" style="fill: none; stroke-dasharray: 4.44,1.92; stroke-dashoffset: 0; stroke: #1f77b4; stroke-width: 1.2"/>
   </g>
   <g id="text_18">
    <!-- helix (small) — X Position Tracking -->
    <g transform="translate(398.788984 21.197281) scale(0.13 -0.13)">
     <defs>
      <path id="DejaVuSans-Bold-68" d="M 4056 2131 
L 4056 0 
L 2931 0 
L 2931 347 
L 2931 1625 
Q 2931 2084 2911 2256 
Q 2891 2428 2841 2509 
Q 2775 2619 2662 2680 
Q 2550 2741 2406 2741 
Q 2056 2741 1856 2470 
Q 1656 2200 1656 1722 
L 1656 0 
L 538 0 
L 538 4863 
L 1656 4863 
L 1656 2988 
Q 1909 3294 2193 3439 
Q 2478 3584 2822 3584 
Q 3428 3584 3742 3212 
Q 4056 2841 4056 2131 
z
" transform="scale(0.015625)"/>
      <path id="DejaVuSans-Bold-65" d="M 4031 1759 
L 4031 1441 
L 1416 1441 
Q 1456 1047 1700 850 
Q 1944 653 2381 653 
Q 2734 653 3104 758 
Q 3475 863 3866 1075 
L 3866 213 
Q 3469 63 3072 -14 
Q 2675 -91 2278 -91 
Q 1328 -91 801 392 
Q 275 875 275 1747 
Q 275 2603 792 3093 
Q 1309 3584 2216 3584 
Q 3041 3584 3536 3087 
Q 4031 2591 4031 1759 
z
M 2881 2131 
Q 2881 2450 2695 2645 
Q 2509 2841 2209 2841 
Q 1884 2841 1681 2658 
Q 1478 2475 1428 2131 
L 2881 2131 
z
" transform="scale(0.015625)"/>
      <path id="DejaVuSans-Bold-6c" d="M 538 4863 
L 1656 4863 
L 1656 0 
L 538 0 
L 538 4863 
z
" transform="scale(0.015625)"/>
      <path id="DejaVuSans-Bold-69" d="M 538 3500 
L 1656 3500 
L 1656 0 
L 538 0 
L 538 3500 
z
M 538 4863 
L 1656 4863 
L 1656 3950 
L 538 3950 
L 538 4863 
z
" transform="scale(0.015625)"/>
      <path id="DejaVuSans-Bold-78" d="M 1422 1791 
L 159 3500 
L 1344 3500 
L 2059 2463 
L 2784 3500 
L 3969 3500 
L 2706 1797 
L 4031 0 
L 2847 0 
L 2059 1106 
L 1281 0 
L 97 0 
L 1422 1791 
z
" transform="scale(0.015625)"/>
      <path id="DejaVuSans-Bold-20" transform="scale(0.015625)"/>
      <path id="DejaVuSans-Bold-28" d="M 2413 -844 
L 1484 -844 
Q 1006 -72 778 623 
Q 550 1319 550 2003 
Q 550 2688 779 3389 
Q 1009 4091 1484 4856 
L 2413 4856 
Q 2013 4116 1813 3408 
Q 1613 2700 1613 2009 
Q 1613 1319 1811 609 
Q 2009 -100 2413 -844 
z
" transform="scale(0.015625)"/>
      <path id="DejaVuSans-Bold-73" d="M 3272 3391 
L 3272 2541 
Q 2913 2691 2578 2766 
Q 2244 2841 1947 2841 
Q 1628 2841 1473 2761 
Q 1319 2681 1319 2516 
Q 1319 2381 1436 2309 
Q 1553 2238 1856 2203 
L 2053 2175 
Q 2913 2066 3209 1816 
Q 3506 1566 3506 1031 
Q 3506 472 3093 190 
Q 2681 -91 1863 -91 
Q 1516 -91 1145 -36 
Q 775 19 384 128 
L 384 978 
Q 719 816 1070 734 
Q 1422 653 1784 653 
Q 2113 653 2278 743 
Q 2444 834 2444 1013 
Q 2444 1163 2330 1236 
Q 2216 1309 1875 1350 
L 1678 1375 
Q 931 1469 631 1722 
Q 331 1975 331 2491 
Q 331 3047 712 3315 
Q 1094 3584 1881 3584 
Q 2191 3584 2531 3537 
Q 2872 3491 3272 3391 
z
" transform="scale(0.015625)"/>
      <path id="DejaVuSans-Bold-6d" d="M 3781 2919 
Q 3994 3244 4286 3414 
Q 4578 3584 4928 3584 
Q 5531 3584 5847 3212 
Q 6163 2841 6163 2131 
L 6163 0 
L 5038 0 
L 5038 1825 
Q 5041 1866 5042 1909 
Q 5044 1953 5044 2034 
Q 5044 2406 4934 2573 
Q 4825 2741 4581 2741 
Q 4263 2741 4089 2478 
Q 3916 2216 3909 1719 
L 3909 0 
L 2784 0 
L 2784 1825 
Q 2784 2406 2684 2573 
Q 2584 2741 2328 2741 
Q 2006 2741 1831 2477 
Q 1656 2213 1656 1722 
L 1656 0 
L 531 0 
L 531 3500 
L 1656 3500 
L 1656 2988 
Q 1863 3284 2130 3434 
Q 2397 3584 2719 3584 
Q 3081 3584 3359 3409 
Q 3638 3234 3781 2919 
z
" transform="scale(0.015625)"/>
      <path id="DejaVuSans-Bold-61" d="M 2106 1575 
Q 1756 1575 1579 1456 
Q 1403 1338 1403 1106 
Q 1403 894 1545 773 
Q 1688 653 1941 653 
Q 2256 653 2472 879 
Q 2688 1106 2688 1447 
L 2688 1575 
L 2106 1575 
z
M 3816 1997 
L 3816 0 
L 2688 0 
L 2688 519 
Q 2463 200 2181 54 
Q 1900 -91 1497 -91 
Q 953 -91 614 226 
Q 275 544 275 1050 
Q 275 1666 698 1953 
Q 1122 2241 2028 2241 
L 2688 2241 
L 2688 2328 
Q 2688 2594 2478 2717 
Q 2269 2841 1825 2841 
Q 1466 2841 1156 2769 
Q 847 2697 581 2553 
L 581 3406 
Q 941 3494 1303 3539 
Q 1666 3584 2028 3584 
Q 2975 3584 3395 3211 
Q 3816 2838 3816 1997 
z
" transform="scale(0.015625)"/>
      <path id="DejaVuSans-Bold-29" d="M 513 -844 
Q 913 -100 1113 609 
Q 1313 1319 1313 2009 
Q 1313 2700 1113 3408 
Q 913 4116 513 4856 
L 1441 4856 
Q 1916 4091 2145 3389 
Q 2375 2688 2375 2003 
Q 2375 1319 2147 623 
Q 1919 -72 1441 -844 
L 513 -844 
z
" transform="scale(0.015625)"/>
      <path id="DejaVuSans-Bold-2014" d="M 344 2156 
L 6056 2156 
L 6056 1350 
L 344 1350 
L 344 2156 
z
" transform="scale(0.015625)"/>
      <path id="DejaVuSans-Bold-58" d="M 3188 2381 
L 4806 0 
L 3553 0 
L 2463 1594 
L 1381 0 
L 122 0 
L 1741 2381 
L 184 4666 
L 1441 4666 
L 2463 3163 
L 3481 4666 
L 4744 4666 
L 3188 2381 
z
" transform="scale(0.015625)"/>
      <path id="DejaVuSans-Bold-50" d="M 588 4666 
L 2584 4666 
Q 3475 4666 3951 4270 
Q 4428 3875 4428 3144 
Q 4428 2409 3951 2014 
Q 3475 1619 2584 1619 
L 1791 1619 
L 1791 0 
L 588 0 
L 588 4666 
z
M 1791 3794 
L 1791 2491 
L 2456 2491 
Q 2806 2491 2997 2661 
Q 3188 2831 3188 3144 
Q 3188 3456 2997 3625 
Q 2806 3794 2456 3794 
L 1791 3794 
z
" transform="scale(0.015625)"/>
      <path id="DejaVuSans-Bold-6f" d="M 2203 2784 
Q 1831 2784 1636 2517 
Q 1441 2250 1441 1747 
Q 1441 1244 1636 976 
Q 1831 709 2203 709 
Q 2569 709 2762 976 
Q 2956 1244 2956 1747 
Q 2956 2250 2762 2517 
Q 2569 2784 2203 2784 
z
M 2203 3584 
Q 3106 3584 3614 3096 
Q 4122 2609 4122 1747 
Q 4122 884 3614 396 
Q 3106 -91 2203 -91 
Q 1297 -91 786 396 
Q 275 884 275 1747 
Q 275 2609 786 3096 
Q 1297 3584 2203 3584 
z
" transform="scale(0.015625)"/>
      <path id="DejaVuSans-Bold-74" d="M 1759 4494 
L 1759 3500 
L 2913 3500 
L 2913 2700 
L 1759 2700 
L 1759 1216 
Q 1759 972 1856 886 
Q 1953 800 2241 800 
L 2816 800 
L 2816 0 
L 1856 0 
Q 1194 0 917 276 
Q 641 553 641 1216 
L 641 2700 
L 84 2700 
L 84 3500 
L 641 3500 
L 641 4494 
L 1759 4494 
z
" transform="scale(0.015625)"/>
      <path id="DejaVuSans-Bold-6e" d="M 4056 2131 
L 4056 0 
L 2931 0 
L 2931 347 
L 2931 1631 
Q 2931 2084 2911 2256 
Q 2891 2428 2841 2509 
Q 2775 2619 2662 2680 
Q 2550 2741 2406 2741 
Q 2056 2741 1856 2470 
Q 1656 2200 1656 1722 
L 1656 0 
L 538 0 
L 538 3500 
L 1656 3500 
L 1656 2988 
Q 1909 3294 2193 3439 
Q 2478 3584 2822 3584 
Q 3428 3584 3742 3212 
Q 4056 2841 4056 2131 
z
" transform="scale(0.015625)"/>
      <path id="DejaVuSans-Bold-54" d="M 31 4666 
L 4331 4666 
L 4331 3756 
L 2784 3756 
L 2784 0 
L 1581 0 
L 1581 3756 
L 31 3756 
L 31 4666 
z
" transform="scale(0.015625)"/>
      <path id="DejaVuSans-Bold-72" d="M 3138 2547 
Q 2991 2616 2845 2648 
Q 2700 2681 2553 2681 
Q 2122 2681 1889 2404 
Q 1656 2128 1656 1613 
L 1656 0 
L 538 0 
L 538 3500 
L 1656 3500 
L 1656 2925 
Q 1872 3269 2151 3426 
Q 2431 3584 2822 3584 
Q 2878 3584 2943 3579 
Q 3009 3575 3134 3559 
L 3138 2547 
z
" transform="scale(0.015625)"/>
      <path id="DejaVuSans-Bold-63" d="M 3366 3391 
L 3366 2478 
Q 3138 2634 2908 2709 
Q 2678 2784 2431 2784 
Q 1963 2784 1702 2511 
Q 1441 2238 1441 1747 
Q 1441 1256 1702 982 
Q 1963 709 2431 709 
Q 2694 709 2930 787 
Q 3166 866 3366 1019 
L 3366 103 
Q 3103 6 2833 -42 
Q 2563 -91 2291 -91 
Q 1344 -91 809 395 
Q 275 881 275 1747 
Q 275 2613 809 3098 
Q 1344 3584 2291 3584 
Q 2566 3584 2833 3536 
Q 3100 3488 3366 3391 
z
" transform="scale(0.015625)"/>
      <path id="DejaVuSans-Bold-6b" d="M 538 4863 
L 1656 4863 
L 1656 2216 
L 2944 3500 
L 4244 3500 
L 2534 1894 
L 4378 0 
L 3022 0 
L 1656 1459 
L 1656 0 
L 538 0 
L 538 4863 
z
" transform="scale(0.015625)"/>
      <path id="DejaVuSans-Bold-67" d="M 2919 594 
Q 2688 288 2409 144 
Q 2131 0 1766 0 
Q 1125 0 706 504 
Q 288 1009 288 1791 
Q 288 2575 706 3076 
Q 1125 3578 1766 3578 
Q 2131 3578 2409 3434 
Q 2688 3291 2919 2981 
L 2919 3500 
L 4044 3500 
L 4044 353 
Q 4044 -491 3511 -936 
Q 2978 -1381 1966 -1381 
Q 1638 -1381 1331 -1331 
Q 1025 -1281 716 -1178 
L 716 -306 
Q 1009 -475 1290 -558 
Q 1572 -641 1856 -641 
Q 2406 -641 2662 -400 
Q 2919 -159 2919 353 
L 2919 594 
z
M 2181 2772 
Q 1834 2772 1640 2515 
Q 1447 2259 1447 1791 
Q 1447 1309 1634 1061 
Q 1822 813 2181 813 
Q 2531 813 2725 1069 
Q 2919 1325 2919 1791 
Q 2919 2259 2725 2515 
Q 2531 2772 2181 2772 
z
" transform="scale(0.015625)"/>
     </defs>
     <use xlink:href="#DejaVuSans-Bold-68"/>
     <use xlink:href="#DejaVuSans-Bold-65" transform="translate(71.191406 0)"/>
     <use xlink:href="#DejaVuSans-Bold-6c" transform="translate(139.013672 0)"/>
     <use xlink:href="#DejaVuSans-Bold-69" transform="translate(173.291016 0)"/>
     <use xlink:href="#DejaVuSans-Bold-78" transform="translate(207.568359 0)"/>
     <use xlink:href="#DejaVuSans-Bold-20" transform="translate(272.070312 0)"/>
     <use xlink:href="#DejaVuSans-Bold-28" transform="translate(306.884766 0)"/>
     <use xlink:href="#DejaVuSans-Bold-73" transform="translate(352.587891 0)"/>
     <use xlink:href="#DejaVuSans-Bold-6d" transform="translate(412.109375 0)"/>
     <use xlink:href="#DejaVuSans-Bold-61" transform="translate(516.308594 0)"/>
     <use xlink:href="#DejaVuSans-Bold-6c" transform="translate(583.789062 0)"/>
     <use xlink:href="#DejaVuSans-Bold-6c" transform="translate(618.066406 0)"/>
     <use xlink:href="#DejaVuSans-Bold-29" transform="translate(652.34375 0)"/>
     <use xlink:href="#DejaVuSans-Bold-20" transform="translate(698.046875 0)"/>
     <use xlink:href="#DejaVuSans-Bold-2014" transform="translate(732.861328 0)"/>
     <use xlink:href="#DejaVuSans-Bold-20" transform="translate(832.861328 0)"/>
     <use xlink:href="#DejaVuSans-Bold-58" transform="translate(867.675781 0)"/>
     <use xlink:href="#DejaVuSans-Bold-20" transform="translate(944.775391 0)"/>
     <use xlink:href="#DejaVuSans-Bold-50" transform="translate(979.589844 0)"/>
     <use xlink:href="#DejaVuSans-Bold-6f" transform="translate(1052.880859 0)"/>
     <use xlink:href="#DejaVuSans-Bold-73" transform="translate(1121.582031 0)"/>
     <use xlink:href="#DejaVuSans-Bold-69" transform="translate(1181.103516 0)"/>
     <use xlink:href="#DejaVuSans-Bold-74" transform="translate(1215.380859 0)"/>
     <use xlink:href="#DejaVuSans-Bold-69" transform="translate(1263.183594 0)"/>
     <use xlink:href="#DejaVuSans-Bold-6f" transform="translate(1297.460938 0)"/>
     <use xlink:href="#DejaVuSans-Bold-6e" transform="translate(1366.162109 0)"/>
     <use xlink:href="#DejaVuSans-Bold-20" transform="translate(1437.353516 0)"/>
     <use xlink:href="#DejaVuSans-Bold-54" transform="translate(1472.167969 0)"/>
     <use xlink:href="#DejaVuSans-Bold-72" transform="translate(1529.380859 0)"/>
     <use xlink:href="#DejaVuSans-Bold-61" transform="translate(1578.697266 0)"/>
     <use xlink:href="#DejaVuSans-Bold-63" transform="translate(1646.177734 0)"/>
     <use xlink:href="#DejaVuSans-Bold-6b" transform="translate(1705.455078 0)"/>
     <use xlink:href="#DejaVuSans-Bold-69" transform="translate(1771.958984 0)"/>
     <use xlink:href="#DejaVuSans-Bold-6e" transform="translate(1806.236328 0)"/>
     <use xlink:href="#DejaVuSans-Bold-67" transform="translate(1877.427734 0)"/>
    </g>
    <!-- PID=0.0187m   EDMDc=0.0150m   Linear=0.0120m -->
    <g transform="translate(338.862031 35.856) scale(0.13 -0.13)">
     <defs>
      <path id="DejaVuSans-Bold-49" d="M 588 4666 
L 1791 4666 
L 1791 0 
L 588 0 
L 588 4666 
z
" transform="scale(0.015625)"/>
      <path id="DejaVuSans-Bold-44" d="M 1791 3756 
L 1791 909 
L 2222 909 
Q 2959 909 3348 1275 
Q 3738 1641 3738 2338 
Q 3738 3031 3350 3393 
Q 2963 3756 2222 3756 
L 1791 3756 
z
M 588 4666 
L 1856 4666 
Q 2919 4666 3439 4514 
Q 3959 4363 4331 4000 
Q 4659 3684 4818 3271 
Q 4978 2859 4978 2338 
Q 4978 1809 4818 1395 
Q 4659 981 4331 666 
Q 3956 303 3431 151 
Q 2906 0 1856 0 
L 588 0 
L 588 4666 
z
" transform="scale(0.015625)"/>
      <path id="DejaVuSans-Bold-3d" d="M 678 3084 
L 4684 3084 
L 4684 2350 
L 678 2350 
L 678 3084 
z
M 678 1663 
L 4684 1663 
L 4684 922 
L 678 922 
L 678 1663 
z
" transform="scale(0.015625)"/>
      <path id="DejaVuSans-Bold-30" d="M 2944 2338 
Q 2944 3213 2780 3570 
Q 2616 3928 2228 3928 
Q 1841 3928 1675 3570 
Q 1509 3213 1509 2338 
Q 1509 1453 1675 1090 
Q 1841 728 2228 728 
Q 2613 728 2778 1090 
Q 2944 1453 2944 2338 
z
M 4147 2328 
Q 4147 1169 3647 539 
Q 3147 -91 2228 -91 
Q 1306 -91 806 539 
Q 306 1169 306 2328 
Q 306 3491 806 4120 
Q 1306 4750 2228 4750 
Q 3147 4750 3647 4120 
Q 4147 3491 4147 2328 
z
" transform="scale(0.015625)"/>
      <path id="DejaVuSans-Bold-2e" d="M 653 1209 
L 1778 1209 
L 1778 0 
L 653 0 
L 653 1209 
z
" transform="scale(0.015625)"/>
      <path id="DejaVuSans-Bold-31" d="M 750 831 
L 1813 831 
L 1813 3847 
L 722 3622 
L 722 4441 
L 1806 4666 
L 2950 4666 
L 2950 831 
L 4013 831 
L 4013 0 
L 750 0 
L 750 831 
z
" transform="scale(0.015625)"/>
      <path id="DejaVuSans-Bold-38" d="M 2228 2088 
Q 1891 2088 1709 1903 
Q 1528 1719 1528 1375 
Q 1528 1031 1709 848 
Q 1891 666 2228 666 
Q 2563 666 2741 848 
Q 2919 1031 2919 1375 
Q 2919 1722 2741 1905 
Q 2563 2088 2228 2088 
z
M 1350 2484 
Q 925 2613 709 2878 
Q 494 3144 494 3541 
Q 494 4131 934 4440 
Q 1375 4750 2228 4750 
Q 3075 4750 3515 4442 
Q 3956 4134 3956 3541 
Q 3956 3144 3739 2878 
Q 3522 2613 3097 2484 
Q 3572 2353 3814 2058 
Q 4056 1763 4056 1313 
Q 4056 619 3595 264 
Q 3134 -91 2228 -91 
Q 1319 -91 855 264 
Q 391 619 391 1313 
Q 391 1763 633 2058 
Q 875 2353 1350 2484 
z
M 1631 3419 
Q 1631 3141 1786 2991 
Q 1941 2841 2228 2841 
Q 2509 2841 2662 2991 
Q 2816 3141 2816 3419 
Q 2816 3697 2662 3845 
Q 2509 3994 2228 3994 
Q 1941 3994 1786 3844 
Q 1631 3694 1631 3419 
z
" transform="scale(0.015625)"/>
      <path id="DejaVuSans-Bold-37" d="M 428 4666 
L 3944 4666 
L 3944 3988 
L 2125 0 
L 953 0 
L 2675 3781 
L 428 3781 
L 428 4666 
z
" transform="scale(0.015625)"/>
      <path id="DejaVuSans-Bold-45" d="M 588 4666 
L 3834 4666 
L 3834 3756 
L 1791 3756 
L 1791 2888 
L 3713 2888 
L 3713 1978 
L 1791 1978 
L 1791 909 
L 3903 909 
L 3903 0 
L 588 0 
L 588 4666 
z
" transform="scale(0.015625)"/>
      <path id="DejaVuSans-Bold-4d" d="M 588 4666 
L 2119 4666 
L 3181 2169 
L 4250 4666 
L 5778 4666 
L 5778 0 
L 4641 0 
L 4641 3413 
L 3566 897 
L 2803 897 
L 1728 3413 
L 1728 0 
L 588 0 
L 588 4666 
z
" transform="scale(0.015625)"/>
      <path id="DejaVuSans-Bold-35" d="M 678 4666 
L 3669 4666 
L 3669 3781 
L 1638 3781 
L 1638 3059 
Q 1775 3097 1914 3117 
Q 2053 3138 2203 3138 
Q 3056 3138 3531 2711 
Q 4006 2284 4006 1522 
Q 4006 766 3489 337 
Q 2972 -91 2053 -91 
Q 1656 -91 1267 -14 
Q 878 63 494 219 
L 494 1166 
Q 875 947 1217 837 
Q 1559 728 1863 728 
Q 2300 728 2551 942 
Q 2803 1156 2803 1522 
Q 2803 1891 2551 2103 
Q 2300 2316 1863 2316 
Q 1603 2316 1309 2248 
Q 1016 2181 678 2041 
L 678 4666 
z
" transform="scale(0.015625)"/>
      <path id="DejaVuSans-Bold-4c" d="M 588 4666 
L 1791 4666 
L 1791 909 
L 3903 909 
L 3903 0 
L 588 0 
L 588 4666 
z
" transform="scale(0.015625)"/>
      <path id="DejaVuSans-Bold-32" d="M 1844 884 
L 3897 884 
L 3897 0 
L 506 0 
L 506 884 
L 2209 2388 
Q 2438 2594 2547 2791 
Q 2656 2988 2656 3200 
Q 2656 3528 2436 3728 
Q 2216 3928 1850 3928 
Q 1569 3928 1234 3808 
Q 900 3688 519 3450 
L 519 4475 
Q 925 4609 1322 4679 
Q 1719 4750 2100 4750 
Q 2938 4750 3402 4381 
Q 3866 4013 3866 3353 
Q 3866 2972 3669 2642 
Q 3472 2313 2841 1759 
L 1844 884 
z
" transform="scale(0.015625)"/>
     </defs>
     <use xlink:href="#DejaVuSans-Bold-50"/>
     <use xlink:href="#DejaVuSans-Bold-49" transform="translate(73.291016 0)"/>
     <use xlink:href="#DejaVuSans-Bold-44" transform="translate(110.498047 0)"/>
     <use xlink:href="#DejaVuSans-Bold-3d" transform="translate(193.505859 0)"/>
     <use xlink:href="#DejaVuSans-Bold-30" transform="translate(277.294922 0)"/>
     <use xlink:href="#DejaVuSans-Bold-2e" transform="translate(346.875 0)"/>
     <use xlink:href="#DejaVuSans-Bold-30" transform="translate(384.863281 0)"/>
     <use xlink:href="#DejaVuSans-Bold-31" transform="translate(454.443359 0)"/>
     <use xlink:href="#DejaVuSans-Bold-38" transform="translate(524.023438 0)"/>
     <use xlink:href="#DejaVuSans-Bold-37" transform="translate(593.603516 0)"/>
     <use xlink:href="#DejaVuSans-Bold-6d" transform="translate(663.183594 0)"/>
     <use xlink:href="#DejaVuSans-Bold-20" transform="translate(767.382812 0)"/>
     <use xlink:href="#DejaVuSans-Bold-20" transform="translate(802.197266 0)"/>
     <use xlink:href="#DejaVuSans-Bold-20" transform="translate(837.011719 0)"/>
     <use xlink:href="#DejaVuSans-Bold-45" transform="translate(871.826172 0)"/>
     <use xlink:href="#DejaVuSans-Bold-44" transform="translate(940.136719 0)"/>
     <use xlink:href="#DejaVuSans-Bold-4d" transform="translate(1023.144531 0)"/>
     <use xlink:href="#DejaVuSans-Bold-44" transform="translate(1122.65625 0)"/>
     <use xlink:href="#DejaVuSans-Bold-63" transform="translate(1205.664062 0)"/>
     <use xlink:href="#DejaVuSans-Bold-3d" transform="translate(1264.941406 0)"/>
     <use xlink:href="#DejaVuSans-Bold-30" transform="translate(1348.730469 0)"/>
     <use xlink:href="#DejaVuSans-Bold-2e" transform="translate(1418.310547 0)"/>
     <use xlink:href="#DejaVuSans-Bold-30" transform="translate(1456.298828 0)"/>
     <use xlink:href="#DejaVuSans-Bold-31" transform="translate(1525.878906 0)"/>
     <use xlink:href="#DejaVuSans-Bold-35" transform="translate(1595.458984 0)"/>
     <use xlink:href="#DejaVuSans-Bold-30" transform="translate(1665.039062 0)"/>
     <use xlink:href="#DejaVuSans-Bold-6d" transform="translate(1734.619141 0)"/>
     <use xlink:href="#DejaVuSans-Bold-20" transform="translate(1838.818359 0)"/>
     <use xlink:href="#DejaVuSans-Bold-20" transform="translate(1873.632812 0)"/>
     <use xlink:href="#DejaVuSans-Bold-20" transform="translate(1908.447266 0)"/>
     <use xlink:href="#DejaVuSans-Bold-4c" transform="translate(1943.261719 0)"/>
     <use xlink:href="#DejaVuSans-Bold-69" transform="translate(2006.982422 0)"/>
     <use xlink:href="#DejaVuSans-Bold-6e" transform="translate(2041.259766 0)"/>
     <use xlink:href="#DejaVuSans-Bold-65" transform="translate(2112.451172 0)"/>
     <use xlink:href="#DejaVuSans-Bold-61" transform="translate(2180.273438 0)"/>
     <use xlink:href="#DejaVuSans-Bold-72" transform="translate(2247.753906 0)"/>
     <use xlink:href="#DejaVuSans-Bold-3d" transform="translate(2297.070312 0)"/>
     <use xlink:href="#DejaVuSans-Bold-30" transform="translate(2380.859375 0)"/>
     <use xlink:href="#DejaVuSans-Bold-2e" transform="translate(2450.439453 0)"/>
     <use xlink:href="#DejaVuSans-Bold-30" transform="translate(2488.427734 0)"/>
     <use xlink:href="#DejaVuSans-Bold-31" transform="translate(2558.007812 0)"/>
     <use xlink:href="#DejaVuSans-Bold-32" transform="translate(2627.587891 0)"/>
     <use xlink:href="#DejaVuSans-Bold-30" transform="translate(2697.167969 0)"/>
     <use xlink:href="#DejaVuSans-Bold-6d" transform="translate(2766.748047 0)"/>
    </g>
   </g>
   <g id="legend_1">
    <g id="patch_7">
     <path d="M 60.75 312.32 
L 153.414062 312.32 
Q 155.414062 312.32 155.414062 310.32 
L 155.414062 252.6075 
Q 155.414062 250.6075 153.414062 250.6075 
L 60.75 250.6075 
Q 58.75 250.6075 58.75 252.6075 
L 58.75 310.32 
Q 58.75 312.32 60.75 312.32 
z
" style="fill: #ffffff; opacity: 0.8; stroke: #cccccc; stroke-linejoin: miter"/>
    </g>
    <g id="line2d_35">
     <path d="M 62.75 258.705938 
L 72.75 258.705938 
L 82.75 258.705938 
" style="fill: none; stroke: #000000; stroke-width: 2.5; stroke-linecap: square"/>
    </g>
    <g id="text_19">
     <!-- Reference -->
     <g transform="translate(90.75 262.205938) scale(0.1 -0.1)">
      <defs>
       <path id="DejaVuSans-52" d="M 2841 2188 
Q 3044 2119 3236 1894 
Q 3428 1669 3622 1275 
L 4263 0 
L 3584 0 
L 2988 1197 
Q 2756 1666 2539 1819 
Q 2322 1972 1947 1972 
L 1259 1972 
L 1259 0 
L 628 0 
L 628 4666 
L 2053 4666 
Q 2853 4666 3247 4331 
Q 3641 3997 3641 3322 
Q 3641 2881 3436 2590 
Q 3231 2300 2841 2188 
z
M 1259 4147 
L 1259 2491 
L 2053 2491 
Q 2509 2491 2742 2702 
Q 2975 2913 2975 3322 
Q 2975 3731 2742 3939 
Q 2509 4147 2053 4147 
L 1259 4147 
z
" transform="scale(0.015625)"/>
       <path id="DejaVuSans-66" d="M 2375 4863 
L 2375 4384 
L 1825 4384 
Q 1516 4384 1395 4259 
Q 1275 4134 1275 3809 
L 1275 3500 
L 2222 3500 
L 2222 3053 
L 1275 3053 
L 1275 0 
L 697 0 
L 697 3053 
L 147 3053 
L 147 3500 
L 697 3500 
L 697 3744 
Q 697 4328 969 4595 
Q 1241 4863 1831 4863 
L 2375 4863 
z
" transform="scale(0.015625)"/>
       <path id="DejaVuSans-72" d="M 2631 2963 
Q 2534 3019 2420 3045 
Q 2306 3072 2169 3072 
Q 1681 3072 1420 2755 
Q 1159 2438 1159 1844 
L 1159 0 
L 581 0 
L 581 3500 
L 1159 3500 
L 1159 2956 
Q 1341 3275 1631 3429 
Q 1922 3584 2338 3584 
Q 2397 3584 2469 3576 
Q 2541 3569 2628 3553 
L 2631 2963 
z
" transform="scale(0.015625)"/>
       <path id="DejaVuSans-6e" d="M 3513 2113 
L 3513 0 
L 2938 0 
L 2938 2094 
Q 2938 2591 2744 2837 
Q 2550 3084 2163 3084 
Q 1697 3084 1428 2787 
Q 1159 2491 1159 1978 
L 1159 0 
L 581 0 
L 581 3500 
L 1159 3500 
L 1159 2956 
Q 1366 3272 1645 3428 
Q 1925 3584 2291 3584 
Q 2894 3584 3203 3211 
Q 3513 2838 3513 2113 
z
" transform="scale(0.015625)"/>
       <path id="DejaVuSans-63" d="M 3122 3366 
L 3122 2828 
Q 2878 2963 2633 3030 
Q 2388 3097 2138 3097 
Q 1578 3097 1268 2742 
Q 959 2388 959 1747 
Q 959 1106 1268 751 
Q 1578 397 2138 397 
Q 2388 397 2633 464 
Q 2878 531 3122 666 
L 3122 134 
Q 2881 22 2623 -34 
Q 2366 -91 2075 -91 
Q 1284 -91 818 406 
Q 353 903 353 1747 
Q 353 2603 823 3093 
Q 1294 3584 2113 3584 
Q 2378 3584 2631 3529 
Q 2884 3475 3122 3366 
z
" transform="scale(0.015625)"/>
      </defs>
      <use xlink:href="#DejaVuSans-52"/>
      <use xlink:href="#DejaVuSans-65" transform="translate(64.982422 0)"/>
      <use xlink:href="#DejaVuSans-66" transform="translate(126.505859 0)"/>
      <use xlink:href="#DejaVuSans-65" transform="translate(161.710938 0)"/>
      <use xlink:href="#DejaVuSans-72" transform="translate(223.234375 0)"/>
      <use xlink:href="#DejaVuSans-65" transform="translate(262.097656 0)"/>
      <use xlink:href="#DejaVuSans-6e" transform="translate(323.621094 0)"/>
      <use xlink:href="#DejaVuSans-63" transform="translate(387 0)"/>
      <use xlink:href="#DejaVuSans-65" transform="translate(441.980469 0)"/>
     </g>
    </g>
    <g id="line2d_36">
     <path d="M 62.75 273.384063 
L 72.75 273.384063 
L 82.75 273.384063 
" style="fill: none; stroke: #888888; stroke-opacity: 0.6; stroke-width: 1.2; stroke-linecap: square"/>
    </g>
    <g id="text_20">
     <!-- PID -->
     <g transform="translate(90.75 276.884063) scale(0.1 -0.1)">
      <defs>
       <path id="DejaVuSans-50" d="M 1259 4147 
L 1259 2394 
L 2053 2394 
Q 2494 2394 2734 2622 
Q 2975 2850 2975 3272 
Q 2975 3691 2734 3919 
Q 2494 4147 2053 4147 
L 1259 4147 
z
M 628 4666 
L 2053 4666 
Q 2838 4666 3239 4311 
Q 3641 3956 3641 3272 
Q 3641 2581 3239 2228 
Q 2838 1875 2053 1875 
L 1259 1875 
L 1259 0 
L 628 0 
L 628 4666 
z
" transform="scale(0.015625)"/>
       <path id="DejaVuSans-49" d="M 628 4666 
L 1259 4666 
L 1259 0 
L 628 0 
L 628 4666 
z
" transform="scale(0.015625)"/>
       <path id="DejaVuSans-44" d="M 1259 4147 
L 1259 519 
L 2022 519 
Q 2988 519 3436 956 
Q 3884 1394 3884 2338 
Q 3884 3275 3436 3711 
Q 2988 4147 2022 4147 
L 1259 4147 
z
M 628 4666 
L 1925 4666 
Q 3281 4666 3915 4102 
Q 4550 3538 4550 2338 
Q 4550 1131 3912 565 
Q 3275 0 1925 0 
L 628 0 
L 628 4666 
z
" transform="scale(0.015625)"/>
      </defs>
      <use xlink:href="#DejaVuSans-50"/>
      <use xlink:href="#DejaVuSans-49" transform="translate(60.302734 0)"/>
      <use xlink:href="#DejaVuSans-44" transform="translate(89.794922 0)"/>
     </g>
    </g>
    <g id="line2d_37">
     <path d="M 62.75 288.062187 
L 72.75 288.062187 
L 82.75 288.062187 
" style="fill: none; stroke: #2ca02c; stroke-width: 1.5; stroke-linecap: square"/>
    </g>
    <g id="text_21">
     <!-- EDMDc MPC -->
     <g transform="translate(90.75 291.562187) scale(0.1 -0.1)">
      <defs>
       <path id="DejaVuSans-45" d="M 628 4666 
L 3578 4666 
L 3578 4134 
L 1259 4134 
L 1259 2753 
L 3481 2753 
L 3481 2222 
L 1259 2222 
L 1259 531 
L 3634 531 
L 3634 0 
L 628 0 
L 628 4666 
z
" transform="scale(0.015625)"/>
       <path id="DejaVuSans-4d" d="M 628 4666 
L 1569 4666 
L 2759 1491 
L 3956 4666 
L 4897 4666 
L 4897 0 
L 4281 0 
L 4281 4097 
L 3078 897 
L 2444 897 
L 1241 4097 
L 1241 0 
L 628 0 
L 628 4666 
z
" transform="scale(0.015625)"/>
       <path id="DejaVuSans-43" d="M 4122 4306 
L 4122 3641 
Q 3803 3938 3442 4084 
Q 3081 4231 2675 4231 
Q 1875 4231 1450 3742 
Q 1025 3253 1025 2328 
Q 1025 1406 1450 917 
Q 1875 428 2675 428 
Q 3081 428 3442 575 
Q 3803 722 4122 1019 
L 4122 359 
Q 3791 134 3420 21 
Q 3050 -91 2638 -91 
Q 1578 -91 968 557 
Q 359 1206 359 2328 
Q 359 3453 968 4101 
Q 1578 4750 2638 4750 
Q 3056 4750 3426 4639 
Q 3797 4528 4122 4306 
z
" transform="scale(0.015625)"/>
      </defs>
      <use xlink:href="#DejaVuSans-45"/>
      <use xlink:href="#DejaVuSans-44" transform="translate(63.183594 0)"/>
      <use xlink:href="#DejaVuSans-4d" transform="translate(140.185547 0)"/>
      <use xlink:href="#DejaVuSans-44" transform="translate(226.464844 0)"/>
      <use xlink:href="#DejaVuSans-63" transform="translate(303.466797 0)"/>
      <use xlink:href="#DejaVuSans-20" transform="translate(358.447266 0)"/>
      <use xlink:href="#DejaVuSans-4d" transform="translate(390.234375 0)"/>
      <use xlink:href="#DejaVuSans-50" transform="translate(476.513672 0)"/>
      <use xlink:href="#DejaVuSans-43" transform="translate(536.816406 0)"/>
     </g>
    </g>
    <g id="line2d_38">
     <path d="M 62.75 302.740313 
L 72.75 302.740313 
L 82.75 302.740313 
" style="fill: none; stroke-dasharray: 4.44,1.92; stroke-dashoffset: 0; stroke: #1f77b4; stroke-width: 1.2"/>
    </g>
    <g id="text_22">
     <!-- Linear MPC -->
     <g transform="translate(90.75 306.240313) scale(0.1 -0.1)">
      <defs>
       <path id="DejaVuSans-4c" d="M 628 4666 
L 1259 4666 
L 1259 531 
L 3531 531 
L 3531 0 
L 628 0 
L 628 4666 
z
" transform="scale(0.015625)"/>
       <path id="DejaVuSans-61" d="M 2194 1759 
Q 1497 1759 1228 1600 
Q 959 1441 959 1056 
Q 959 750 1161 570 
Q 1363 391 1709 391 
Q 2188 391 2477 730 
Q 2766 1069 2766 1631 
L 2766 1759 
L 2194 1759 
z
M 3341 1997 
L 3341 0 
L 2766 0 
L 2766 531 
Q 2569 213 2275 61 
Q 1981 -91 1556 -91 
Q 1019 -91 701 211 
Q 384 513 384 1019 
Q 384 1609 779 1909 
Q 1175 2209 1959 2209 
L 2766 2209 
L 2766 2266 
Q 2766 2663 2505 2880 
Q 2244 3097 1772 3097 
Q 1472 3097 1187 3025 
Q 903 2953 641 2809 
L 641 3341 
Q 956 3463 1253 3523 
Q 1550 3584 1831 3584 
Q 2591 3584 2966 3190 
Q 3341 2797 3341 1997 
z
" transform="scale(0.015625)"/>
      </defs>
      <use xlink:href="#DejaVuSans-4c"/>
      <use xlink:href="#DejaVuSans-69" transform="translate(55.712891 0)"/>
      <use xlink:href="#DejaVuSans-6e" transform="translate(83.496094 0)"/>
      <use xlink:href="#DejaVuSans-65" transform="translate(146.875 0)"/>
      <use xlink:href="#DejaVuSans-61" transform="translate(208.398438 0)"/>
      <use xlink:href="#DejaVuSans-72" transform="translate(269.677734 0)"/>
      <use xlink:href="#DejaVuSans-20" transform="translate(310.791016 0)"/>
      <use xlink:href="#DejaVuSans-4d" transform="translate(342.578125 0)"/>
      <use xlink:href="#DejaVuSans-50" transform="translate(428.857422 0)"/>
      <use xlink:href="#DejaVuSans-43" transform="translate(489.160156 0)"/>
     </g>
    </g>
   </g>
  </g>
 </g>
 <defs>
  <clipPath id="pcba4815eea">
   <rect x="53.75" y="41.856" width="943.45" height="275.464"/>
  </clipPath>
 </defs>
</svg>
