<?xml version="1.0" encoding="utf-8" standalone="no"?>
<!DOCTYPE svg PUBLIC "-//W3C//DTD SVG 1.1//EN"
  "http://www.w3.org/Graphics/SVG/1.1/DTD/svg11.dtd">
<svg xmlns:xlink="http://www.w3.org/1999/xlink" width="1008pt" height="360pt" viewBox="0 0 1008 360" xmlns="http://www.w3.org/2000/svg" version="1.1">
 <metadata>
  <rdf:RDF xmlns:dc="http://purl.org/dc/elements/1.1/" xmlns:cc="http://creativecommons.org/ns#" xmlns:rdf="http://www.w3.org/1999/02/22-rdf-syntax-ns#">
   <cc:Work>
    <dc:type rdf:resource="http://purl.org/dc/dcmitype/StillImage"/>
    <dc:date>2026-03-30T18:26:06.991662</dc:date>
    <dc:format>image/svg+xml</dc:format>
    <dc:creator>
     <cc:Agent>
      <dc:title>Matplotlib v3.10.8, https://matplotlib.org/</dc:title>
     </cc:Agent>
    </dc:creator>
   </cc:Work>
  </rdf:RDF>
 </metadata>
 <defs>
  <style type="text/css">*{stroke-linejoin: round; stroke-linecap: butt}</style>
 </defs>
 <g id="figure_1">
  <g id="patch_1">
   <path d="M 0 360 
L 1008 360 
L 1008 0 
L 0 0 
z
" style="fill: #ffffff"/>
  </g>
  <g id="axes_1">
   <g id="patch_2">
    <path d="M 53.66 317.32 
L 997.2 317.32 
L 997.2 41.856 
L 53.66 41.856 
z
" style="fill: #ffffff"/>
   </g>
   <g id="line2d_1">
    <path d="M 96.548182 61.056376 
L 99.982671 59.304449 
L 103.41716 57.856006 
L 106.851649 56.714705 
L 109.427516 56.062057 
L 112.003382 55.584742 
L 114.579249 55.28344 
L 117.155116 55.158578 
L 119.730983 55.210334 
L 122.30685 55.438634 
L 124.882716 55.843154 
L 127.458583 56.423319 
L 130.03445 57.178305 
L 133.468939 58.455004 
L 136.903428 60.037334 
L 140.337917 61.921295 
L 143.772406 64.102128 
L 147.206895 66.574323 
L 150.641384 69.331633 
L 154.075873 72.367092 
L 157.510362 75.673031 
L 160.944851 79.241097 
L 165.237963 84.056 
L 169.531074 89.247338 
L 173.824185 94.794617 
L 178.117296 100.675943 
L 183.26903 108.141698 
L 188.420763 116.012553 
L 194.431119 125.647424 
L 200.441475 135.698191 
L 207.310453 147.594199 
L 216.755298 164.450957 
L 245.089833 215.427418 
L 251.958811 227.183228 
L 257.969166 237.077783 
L 263.979522 246.526396 
L 269.131256 254.214773 
L 274.282989 261.478068 
L 278.576101 267.176238 
L 282.869212 272.528007 
L 287.162323 277.512247 
L 291.455435 282.109287 
L 294.889924 285.495885 
L 298.324413 288.614474 
L 301.758902 291.457173 
L 305.193391 294.016801 
L 308.62788 296.28689 
L 312.062369 298.261705 
L 315.496858 299.936256 
L 318.931347 301.306312 
L 322.365836 302.368411 
L 324.941703 302.961246 
L 327.517569 303.378487 
L 330.093436 303.619541 
L 332.669303 303.684066 
L 335.24517 303.57197 
L 337.821036 303.283412 
L 340.396903 302.818802 
L 342.97277 302.178802 
L 345.548637 301.36432 
L 348.983126 300.008964 
L 352.417615 298.34893 
L 355.852104 296.388412 
L 359.286593 294.132362 
L 362.721082 291.586482 
L 366.155571 288.757204 
L 369.59006 285.651676 
L 373.024549 282.277744 
L 376.459038 278.643933 
L 380.752149 273.750263 
L 385.045261 268.48424 
L 389.338372 262.866652 
L 393.631483 256.919674 
L 398.783217 249.381642 
L 403.93495 241.445996 
L 409.945306 231.745486 
L 416.814284 220.168159 
L 424.541885 206.657726 
L 434.845352 188.132863 
L 456.310908 149.397016 
L 464.038509 135.978832 
L 470.907487 124.51245 
L 476.917842 114.930457 
L 482.069576 107.111604 
L 487.221309 99.703706 
L 491.514421 93.87483 
L 495.807532 88.383631 
L 500.100643 83.251784 
L 504.393755 78.499545 
L 507.828244 74.983731 
L 511.262733 71.731785 
L 514.697222 68.751923 
L 518.131711 66.051676 
L 521.5662 63.637864 
L 525.000689 61.516587 
L 528.435178 59.693205 
L 531.869667 58.172324 
L 535.304156 56.957787 
L 537.880023 56.249798 
L 540.45589 55.716876 
L 543.031756 55.359778 
L 545.607623 55.179012 
L 548.18349 55.174835 
L 550.759357 55.347253 
L 553.335223 55.69602 
L 555.91109 56.220642 
L 558.486957 56.920372 
L 561.921446 58.123981 
L 565.355935 59.634057 
L 568.790424 61.446783 
L 572.224913 63.55758 
L 575.659402 65.961115 
L 579.093891 68.651314 
L 582.52838 71.621382 
L 585.962869 74.863813 
L 589.397358 78.370416 
L 593.69047 83.111601 
L 597.983581 88.232948 
L 602.276692 93.714242 
L 606.569803 99.533846 
L 611.721537 106.931507 
L 616.873271 114.741146 
L 622.883626 124.313752 
L 628.893982 134.31257 
L 635.76296 146.16235 
L 644.349183 161.432574 
L 676.118206 218.479311 
L 682.987184 230.122645 
L 688.99754 239.894384 
L 694.149274 247.900658 
L 699.301007 255.517735 
L 704.452741 262.702324 
L 708.745852 268.329572 
L 713.038964 273.605864 
L 717.332075 278.510375 
L 721.625186 283.023743 
L 725.059675 286.34079 
L 728.494164 289.387693 
L 731.928653 292.156752 
L 735.363142 294.640973 
L 738.797631 296.834077 
L 742.23212 298.730525 
L 745.666609 300.325524 
L 749.101098 301.615045 
L 752.535587 302.59583 
L 755.111454 303.12729 
L 757.687321 303.48292 
L 760.263188 303.662215 
L 762.839055 303.66492 
L 765.414921 303.491031 
L 767.990788 303.140796 
L 770.566655 302.614712 
L 773.142522 301.913526 
L 776.577011 300.707991 
L 780.0115 299.196011 
L 783.445989 297.381407 
L 786.880478 295.268763 
L 790.314967 292.863417 
L 793.749456 290.171446 
L 797.183945 287.199653 
L 800.618434 283.955544 
L 804.052923 280.447318 
L 808.346034 275.704184 
L 812.639146 270.580985 
L 816.932257 265.097945 
L 821.225368 259.276706 
L 826.377102 251.877239 
L 831.528835 244.065976 
L 837.539191 234.491713 
L 843.549547 224.491509 
L 850.418525 212.640491 
L 859.004747 197.369255 
L 890.773771 140.324088 
L 897.642749 128.682174 
L 903.653105 118.911973 
L 908.804838 110.907227 
L 913.956572 103.291865 
L 919.108306 96.109165 
L 923.401417 90.483618 
L 927.694528 85.209134 
L 931.987639 80.306532 
L 936.280751 75.795165 
L 939.71524 72.479781 
L 943.149729 69.434592 
L 946.584218 66.667292 
L 950.018707 64.184872 
L 953.453196 61.993605 
L 954.311818 61.491946 
L 954.311818 61.491946 
" clip-path="url(#p0c5381ddbc)" style="fill: none; stroke: #000000; stroke-width: 2.5; stroke-linecap: square"/>
   </g>
   <g id="matplotlib.axis_1">
    <g id="xtick_1">
     <g id="line2d_2">
      <path d="M 96.548182 317.32 
L 96.548182 41.856 
" clip-path="url(#p0c5381ddbc)" style="fill: none; stroke: #b0b0b0; stroke-opacity: 0.3; stroke-width: 0.8; stroke-linecap: square"/>
     </g>
     <g id="line2d_3">
      <defs>
       <path id="m47eb81d837" d="M 0 0 
L 0 3.5 
" style="stroke: #000000; stroke-width: 0.8"/>
      </defs>
      <g>
       <use xlink:href="#m47eb81d837" x="96.548182" y="317.32" style="stroke: #000000; stroke-width: 0.8"/>
      </g>
     </g>
     <g id="text_1">
      <!-- 0 -->
      <g transform="translate(93.366932 331.918437) scale(0.1 -0.1)">
       <defs>
        <path id="DejaVuSans-30" d="M 2034 4250 
Q 1547 4250 1301 3770 
Q 1056 3291 1056 2328 
Q 1056 1369 1301 889 
Q 1547 409 2034 409 
Q 2525 409 2770 889 
Q 3016 1369 3016 2328 
Q 3016 3291 2770 3770 
Q 2525 4250 2034 4250 
z
M 2034 4750 
Q 2819 4750 3233 4129 
Q 3647 3509 3647 2328 
Q 3647 1150 3233 529 
Q 2819 -91 2034 -91 
Q 1250 -91 836 529 
Q 422 1150 422 2328 
Q 422 3509 836 4129 
Q 1250 4750 2034 4750 
z
" transform="scale(0.015625)"/>
       </defs>
       <use xlink:href="#DejaVuSans-30"/>
      </g>
     </g>
    </g>
    <g id="xtick_2">
     <g id="line2d_4">
      <path d="M 268.272634 317.32 
L 268.272634 41.856 
" clip-path="url(#p0c5381ddbc)" style="fill: none; stroke: #b0b0b0; stroke-opacity: 0.3; stroke-width: 0.8; stroke-linecap: square"/>
     </g>
     <g id="line2d_5">
      <g>
       <use xlink:href="#m47eb81d837" x="268.272634" y="317.32" style="stroke: #000000; stroke-width: 0.8"/>
      </g>
     </g>
     <g id="text_2">
      <!-- 20 -->
      <g transform="translate(261.910134 331.918437) scale(0.1 -0.1)">
       <defs>
        <path id="DejaVuSans-32" d="M 1228 531 
L 3431 531 
L 3431 0 
L 469 0 
L 469 531 
Q 828 903 1448 1529 
Q 2069 2156 2228 2338 
Q 2531 2678 2651 2914 
Q 2772 3150 2772 3378 
Q 2772 3750 2511 3984 
Q 2250 4219 1831 4219 
Q 1534 4219 1204 4116 
Q 875 4013 500 3803 
L 500 4441 
Q 881 4594 1212 4672 
Q 1544 4750 1819 4750 
Q 2544 4750 2975 4387 
Q 3406 4025 3406 3419 
Q 3406 3131 3298 2873 
Q 3191 2616 2906 2266 
Q 2828 2175 2409 1742 
Q 1991 1309 1228 531 
z
" transform="scale(0.015625)"/>
       </defs>
       <use xlink:href="#DejaVuSans-32"/>
       <use xlink:href="#DejaVuSans-30" transform="translate(63.623047 0)"/>
      </g>
     </g>
    </g>
    <g id="xtick_3">
     <g id="line2d_6">
      <path d="M 439.997085 317.32 
L 439.997085 41.856 
" clip-path="url(#p0c5381ddbc)" style="fill: none; stroke: #b0b0b0; stroke-opacity: 0.3; stroke-width: 0.8; stroke-linecap: square"/>
     </g>
     <g id="line2d_7">
      <g>
       <use xlink:href="#m47eb81d837" x="439.997085" y="317.32" style="stroke: #000000; stroke-width: 0.8"/>
      </g>
     </g>
     <g id="text_3">
      <!-- 40 -->
      <g transform="translate(433.634585 331.918437) scale(0.1 -0.1)">
       <defs>
        <path id="DejaVuSans-34" d="M 2419 4116 
L 825 1625 
L 2419 1625 
L 2419 4116 
z
M 2253 4666 
L 3047 4666 
L 3047 1625 
L 3713 1625 
L 3713 1100 
L 3047 1100 
L 3047 0 
L 2419 0 
L 2419 1100 
L 313 1100 
L 313 1709 
L 2253 4666 
z
" transform="scale(0.015625)"/>
       </defs>
       <use xlink:href="#DejaVuSans-34"/>
       <use xlink:href="#DejaVuSans-30" transform="translate(63.623047 0)"/>
      </g>
     </g>
    </g>
    <g id="xtick_4">
     <g id="line2d_8">
      <path d="M 611.721537 317.32 
L 611.721537 41.856 
" clip-path="url(#p0c5381ddbc)" style="fill: none; stroke: #b0b0b0; stroke-opacity: 0.3; stroke-width: 0.8; stroke-linecap: square"/>
     </g>
     <g id="line2d_9">
      <g>
       <use xlink:href="#m47eb81d837" x="611.721537" y="317.32" style="stroke: #000000; stroke-width: 0.8"/>
      </g>
     </g>
     <g id="text_4">
      <!-- 60 -->
      <g transform="translate(605.359037 331.918437) scale(0.1 -0.1)">
       <defs>
        <path id="DejaVuSans-36" d="M 2113 2584 
Q 1688 2584 1439 2293 
Q 1191 2003 1191 1497 
Q 1191 994 1439 701 
Q 1688 409 2113 409 
Q 2538 409 2786 701 
Q 3034 994 3034 1497 
Q 3034 2003 2786 2293 
Q 2538 2584 2113 2584 
z
M 3366 4563 
L 3366 3988 
Q 3128 4100 2886 4159 
Q 2644 4219 2406 4219 
Q 1781 4219 1451 3797 
Q 1122 3375 1075 2522 
Q 1259 2794 1537 2939 
Q 1816 3084 2150 3084 
Q 2853 3084 3261 2657 
Q 3669 2231 3669 1497 
Q 3669 778 3244 343 
Q 2819 -91 2113 -91 
Q 1303 -91 875 529 
Q 447 1150 447 2328 
Q 447 3434 972 4092 
Q 1497 4750 2381 4750 
Q 2619 4750 2861 4703 
Q 3103 4656 3366 4563 
z
" transform="scale(0.015625)"/>
       </defs>
       <use xlink:href="#DejaVuSans-36"/>
       <use xlink:href="#DejaVuSans-30" transform="translate(63.623047 0)"/>
      </g>
     </g>
    </g>
    <g id="xtick_5">
     <g id="line2d_10">
      <path d="M 783.445989 317.32 
L 783.445989 41.856 
" clip-path="url(#p0c5381ddbc)" style="fill: none; stroke: #b0b0b0; stroke-opacity: 0.3; stroke-width: 0.8; stroke-linecap: square"/>
     </g>
     <g id="line2d_11">
      <g>
       <use xlink:href="#m47eb81d837" x="783.445989" y="317.32" style="stroke: #000000; stroke-width: 0.8"/>
      </g>
     </g>
     <g id="text_5">
      <!-- 80 -->
      <g transform="translate(777.083489 331.918437) scale(0.1 -0.1)">
       <defs>
        <path id="DejaVuSans-38" d="M 2034 2216 
Q 1584 2216 1326 1975 
Q 1069 1734 1069 1313 
Q 1069 891 1326 650 
Q 1584 409 2034 409 
Q 2484 409 2743 651 
Q 3003 894 3003 1313 
Q 3003 1734 2745 1975 
Q 2488 2216 2034 2216 
z
M 1403 2484 
Q 997 2584 770 2862 
Q 544 3141 544 3541 
Q 544 4100 942 4425 
Q 1341 4750 2034 4750 
Q 2731 4750 3128 4425 
Q 3525 4100 3525 3541 
Q 3525 3141 3298 2862 
Q 3072 2584 2669 2484 
Q 3125 2378 3379 2068 
Q 3634 1759 3634 1313 
Q 3634 634 3220 271 
Q 2806 -91 2034 -91 
Q 1263 -91 848 271 
Q 434 634 434 1313 
Q 434 1759 690 2068 
Q 947 2378 1403 2484 
z
M 1172 3481 
Q 1172 3119 1398 2916 
Q 1625 2713 2034 2713 
Q 2441 2713 2670 2916 
Q 2900 3119 2900 3481 
Q 2900 3844 2670 4047 
Q 2441 4250 2034 4250 
Q 1625 4250 1398 4047 
Q 1172 3844 1172 3481 
z
" transform="scale(0.015625)"/>
       </defs>
       <use xlink:href="#DejaVuSans-38"/>
       <use xlink:href="#DejaVuSans-30" transform="translate(63.623047 0)"/>
      </g>
     </g>
    </g>
    <g id="xtick_6">
     <g id="line2d_12">
      <path d="M 955.17044 317.32 
L 955.17044 41.856 
" clip-path="url(#p0c5381ddbc)" style="fill: none; stroke: #b0b0b0; stroke-opacity: 0.3; stroke-width: 0.8; stroke-linecap: square"/>
     </g>
     <g id="line2d_13">
      <g>
       <use xlink:href="#m47eb81d837" x="955.17044" y="317.32" style="stroke: #000000; stroke-width: 0.8"/>
      </g>
     </g>
     <g id="text_6">
      <!-- 100 -->
      <g transform="translate(945.62669 331.918437) scale(0.1 -0.1)">
       <defs>
        <path id="DejaVuSans-31" d="M 794 531 
L 1825 531 
L 1825 4091 
L 703 3866 
L 703 4441 
L 1819 4666 
L 2450 4666 
L 2450 531 
L 3481 531 
L 3481 0 
L 794 0 
L 794 531 
z
" transform="scale(0.015625)"/>
       </defs>
       <use xlink:href="#DejaVuSans-31"/>
       <use xlink:href="#DejaVuSans-30" transform="translate(63.623047 0)"/>
       <use xlink:href="#DejaVuSans-30" transform="translate(127.246094 0)"/>
      </g>
     </g>
    </g>
    <g id="text_7">
     <!-- Time [s] -->
     <g transform="translate(503.068203 346.356406) scale(0.11 -0.11)">
      <defs>
       <path id="DejaVuSans-54" d="M -19 4666 
L 3928 4666 
L 3928 4134 
L 2272 4134 
L 2272 0 
L 1638 0 
L 1638 4134 
L -19 4134 
L -19 4666 
z
" transform="scale(0.015625)"/>
       <path id="DejaVuSans-69" d="M 603 3500 
L 1178 3500 
L 1178 0 
L 603 0 
L 603 3500 
z
M 603 4863 
L 1178 4863 
L 1178 4134 
L 603 4134 
L 603 4863 
z
" transform="scale(0.015625)"/>
       <path id="DejaVuSans-6d" d="M 3328 2828 
Q 3544 3216 3844 3400 
Q 4144 3584 4550 3584 
Q 5097 3584 5394 3201 
Q 5691 2819 5691 2113 
L 5691 0 
L 5113 0 
L 5113 2094 
Q 5113 2597 4934 2840 
Q 4756 3084 4391 3084 
Q 3944 3084 3684 2787 
Q 3425 2491 3425 1978 
L 3425 0 
L 2847 0 
L 2847 2094 
Q 2847 2600 2669 2842 
Q 2491 3084 2119 3084 
Q 1678 3084 1418 2786 
Q 1159 2488 1159 1978 
L 1159 0 
L 581 0 
L 581 3500 
L 1159 3500 
L 1159 2956 
Q 1356 3278 1631 3431 
Q 1906 3584 2284 3584 
Q 2666 3584 2933 3390 
Q 3200 3197 3328 2828 
z
" transform="scale(0.015625)"/>
       <path id="DejaVuSans-65" d="M 3597 1894 
L 3597 1613 
L 953 1613 
Q 991 1019 1311 708 
Q 1631 397 2203 397 
Q 2534 397 2845 478 
Q 3156 559 3463 722 
L 3463 178 
Q 3153 47 2828 -22 
Q 2503 -91 2169 -91 
Q 1331 -91 842 396 
Q 353 884 353 1716 
Q 353 2575 817 3079 
Q 1281 3584 2069 3584 
Q 2775 3584 3186 3129 
Q 3597 2675 3597 1894 
z
M 3022 2063 
Q 3016 2534 2758 2815 
Q 2500 3097 2075 3097 
Q 1594 3097 1305 2825 
Q 1016 2553 972 2059 
L 3022 2063 
z
" transform="scale(0.015625)"/>
       <path id="DejaVuSans-20" transform="scale(0.015625)"/>
       <path id="DejaVuSans-5b" d="M 550 4863 
L 1875 4863 
L 1875 4416 
L 1125 4416 
L 1125 -397 
L 1875 -397 
L 1875 -844 
L 550 -844 
L 550 4863 
z
" transform="scale(0.015625)"/>
       <path id="DejaVuSans-73" d="M 2834 3397 
L 2834 2853 
Q 2591 2978 2328 3040 
Q 2066 3103 1784 3103 
Q 1356 3103 1142 2972 
Q 928 2841 928 2578 
Q 928 2378 1081 2264 
Q 1234 2150 1697 2047 
L 1894 2003 
Q 2506 1872 2764 1633 
Q 3022 1394 3022 966 
Q 3022 478 2636 193 
Q 2250 -91 1575 -91 
Q 1294 -91 989 -36 
Q 684 19 347 128 
L 347 722 
Q 666 556 975 473 
Q 1284 391 1588 391 
Q 1994 391 2212 530 
Q 2431 669 2431 922 
Q 2431 1156 2273 1281 
Q 2116 1406 1581 1522 
L 1381 1569 
Q 847 1681 609 1914 
Q 372 2147 372 2553 
Q 372 3047 722 3315 
Q 1072 3584 1716 3584 
Q 2034 3584 2315 3537 
Q 2597 3491 2834 3397 
z
" transform="scale(0.015625)"/>
       <path id="DejaVuSans-5d" d="M 1947 4863 
L 1947 -844 
L 622 -844 
L 622 -397 
L 1369 -397 
L 1369 4416 
L 622 4416 
L 622 4863 
L 1947 4863 
z
" transform="scale(0.015625)"/>
      </defs>
      <use xlink:href="#DejaVuSans-54"/>
      <use xlink:href="#DejaVuSans-69" transform="translate(57.958984 0)"/>
      <use xlink:href="#DejaVuSans-6d" transform="translate(85.742188 0)"/>
      <use xlink:href="#DejaVuSans-65" transform="translate(183.154297 0)"/>
      <use xlink:href="#DejaVuSans-20" transform="translate(244.677734 0)"/>
      <use xlink:href="#DejaVuSans-5b" transform="translate(276.464844 0)"/>
      <use xlink:href="#DejaVuSans-73" transform="translate(315.478516 0)"/>
      <use xlink:href="#DejaVuSans-5d" transform="translate(367.578125 0)"/>
     </g>
    </g>
   </g>
   <g id="matplotlib.axis_2">
    <g id="ytick_1">
     <g id="line2d_14">
      <path d="M 53.66 307.757328 
L 997.2 307.757328 
" clip-path="url(#p0c5381ddbc)" style="fill: none; stroke: #b0b0b0; stroke-opacity: 0.3; stroke-width: 0.8; stroke-linecap: square"/>
     </g>
     <g id="line2d_15">
      <defs>
       <path id="m34cbbbfee5" d="M 0 0 
L -3.5 0 
" style="stroke: #000000; stroke-width: 0.8"/>
      </defs>
      <g>
       <use xlink:href="#m34cbbbfee5" x="53.66" y="307.757328" style="stroke: #000000; stroke-width: 0.8"/>
      </g>
     </g>
     <g id="text_8">
      <!-- −35 -->
      <g transform="translate(25.555312 311.556547) scale(0.1 -0.1)">
       <defs>
        <path id="DejaVuSans-2212" d="M 678 2272 
L 4684 2272 
L 4684 1741 
L 678 1741 
L 678 2272 
z
" transform="scale(0.015625)"/>
        <path id="DejaVuSans-33" d="M 2597 2516 
Q 3050 2419 3304 2112 
Q 3559 1806 3559 1356 
Q 3559 666 3084 287 
Q 2609 -91 1734 -91 
Q 1441 -91 1130 -33 
Q 819 25 488 141 
L 488 750 
Q 750 597 1062 519 
Q 1375 441 1716 441 
Q 2309 441 2620 675 
Q 2931 909 2931 1356 
Q 2931 1769 2642 2001 
Q 2353 2234 1838 2234 
L 1294 2234 
L 1294 2753 
L 1863 2753 
Q 2328 2753 2575 2939 
Q 2822 3125 2822 3475 
Q 2822 3834 2567 4026 
Q 2313 4219 1838 4219 
Q 1578 4219 1281 4162 
Q 984 4106 628 3988 
L 628 4550 
Q 988 4650 1302 4700 
Q 1616 4750 1894 4750 
Q 2613 4750 3031 4423 
Q 3450 4097 3450 3541 
Q 3450 3153 3228 2886 
Q 3006 2619 2597 2516 
z
" transform="scale(0.015625)"/>
        <path id="DejaVuSans-35" d="M 691 4666 
L 3169 4666 
L 3169 4134 
L 1269 4134 
L 1269 2991 
Q 1406 3038 1543 3061 
Q 1681 3084 1819 3084 
Q 2600 3084 3056 2656 
Q 3513 2228 3513 1497 
Q 3513 744 3044 326 
Q 2575 -91 1722 -91 
Q 1428 -91 1123 -41 
Q 819 9 494 109 
L 494 744 
Q 775 591 1075 516 
Q 1375 441 1709 441 
Q 2250 441 2565 725 
Q 2881 1009 2881 1497 
Q 2881 1984 2565 2268 
Q 2250 2553 1709 2553 
Q 1456 2553 1204 2497 
Q 953 2441 691 2322 
L 691 4666 
z
" transform="scale(0.015625)"/>
       </defs>
       <use xlink:href="#DejaVuSans-2212"/>
       <use xlink:href="#DejaVuSans-33" transform="translate(83.789062 0)"/>
       <use xlink:href="#DejaVuSans-35" transform="translate(147.412109 0)"/>
      </g>
     </g>
    </g>
    <g id="ytick_2">
     <g id="line2d_16">
      <path d="M 53.66 272.514335 
L 997.2 272.514335 
" clip-path="url(#p0c5381ddbc)" style="fill: none; stroke: #b0b0b0; stroke-opacity: 0.3; stroke-width: 0.8; stroke-linecap: square"/>
     </g>
     <g id="line2d_17">
      <g>
       <use xlink:href="#m34cbbbfee5" x="53.66" y="272.514335" style="stroke: #000000; stroke-width: 0.8"/>
      </g>
     </g>
     <g id="text_9">
      <!-- −30 -->
      <g transform="translate(25.555312 276.313554) scale(0.1 -0.1)">
       <use xlink:href="#DejaVuSans-2212"/>
       <use xlink:href="#DejaVuSans-33" transform="translate(83.789062 0)"/>
       <use xlink:href="#DejaVuSans-30" transform="translate(147.412109 0)"/>
      </g>
     </g>
    </g>
    <g id="ytick_3">
     <g id="line2d_18">
      <path d="M 53.66 237.271342 
L 997.2 237.271342 
" clip-path="url(#p0c5381ddbc)" style="fill: none; stroke: #b0b0b0; stroke-opacity: 0.3; stroke-width: 0.8; stroke-linecap: square"/>
     </g>
     <g id="line2d_19">
      <g>
       <use xlink:href="#m34cbbbfee5" x="53.66" y="237.271342" style="stroke: #000000; stroke-width: 0.8"/>
      </g>
     </g>
     <g id="text_10">
      <!-- −25 -->
      <g transform="translate(25.555312 241.070561) scale(0.1 -0.1)">
       <use xlink:href="#DejaVuSans-2212"/>
       <use xlink:href="#DejaVuSans-32" transform="translate(83.789062 0)"/>
       <use xlink:href="#DejaVuSans-35" transform="translate(147.412109 0)"/>
      </g>
     </g>
    </g>
    <g id="ytick_4">
     <g id="line2d_20">
      <path d="M 53.66 202.028349 
L 997.2 202.028349 
" clip-path="url(#p0c5381ddbc)" style="fill: none; stroke: #b0b0b0; stroke-opacity: 0.3; stroke-width: 0.8; stroke-linecap: square"/>
     </g>
     <g id="line2d_21">
      <g>
       <use xlink:href="#m34cbbbfee5" x="53.66" y="202.028349" style="stroke: #000000; stroke-width: 0.8"/>
      </g>
     </g>
     <g id="text_11">
      <!-- −20 -->
      <g transform="translate(25.555312 205.827568) scale(0.1 -0.1)">
       <use xlink:href="#DejaVuSans-2212"/>
       <use xlink:href="#DejaVuSans-32" transform="translate(83.789062 0)"/>
       <use xlink:href="#DejaVuSans-30" transform="translate(147.412109 0)"/>
      </g>
     </g>
    </g>
    <g id="ytick_5">
     <g id="line2d_22">
      <path d="M 53.66 166.785356 
L 997.2 166.785356 
" clip-path="url(#p0c5381ddbc)" style="fill: none; stroke: #b0b0b0; stroke-opacity: 0.3; stroke-width: 0.8; stroke-linecap: square"/>
     </g>
     <g id="line2d_23">
      <g>
       <use xlink:href="#m34cbbbfee5" x="53.66" y="166.785356" style="stroke: #000000; stroke-width: 0.8"/>
      </g>
     </g>
     <g id="text_12">
      <!-- −15 -->
      <g transform="translate(25.555312 170.584574) scale(0.1 -0.1)">
       <use xlink:href="#DejaVuSans-2212"/>
       <use xlink:href="#DejaVuSans-31" transform="translate(83.789062 0)"/>
       <use xlink:href="#DejaVuSans-35" transform="translate(147.412109 0)"/>
      </g>
     </g>
    </g>
    <g id="ytick_6">
     <g id="line2d_24">
      <path d="M 53.66 131.542362 
L 997.2 131.542362 
" clip-path="url(#p0c5381ddbc)" style="fill: none; stroke: #b0b0b0; stroke-opacity: 0.3; stroke-width: 0.8; stroke-linecap: square"/>
     </g>
     <g id="line2d_25">
      <g>
       <use xlink:href="#m34cbbbfee5" x="53.66" y="131.542362" style="stroke: #000000; stroke-width: 0.8"/>
      </g>
     </g>
     <g id="text_13">
      <!-- −10 -->
      <g transform="translate(25.555312 135.341581) scale(0.1 -0.1)">
       <use xlink:href="#DejaVuSans-2212"/>
       <use xlink:href="#DejaVuSans-31" transform="translate(83.789062 0)"/>
       <use xlink:href="#DejaVuSans-30" transform="translate(147.412109 0)"/>
      </g>
     </g>
    </g>
    <g id="ytick_7">
     <g id="line2d_26">
      <path d="M 53.66 96.299369 
L 997.2 96.299369 
" clip-path="url(#p0c5381ddbc)" style="fill: none; stroke: #b0b0b0; stroke-opacity: 0.3; stroke-width: 0.8; stroke-linecap: square"/>
     </g>
     <g id="line2d_27">
      <g>
       <use xlink:href="#m34cbbbfee5" x="53.66" y="96.299369" style="stroke: #000000; stroke-width: 0.8"/>
      </g>
     </g>
     <g id="text_14">
      <!-- −5 -->
      <g transform="translate(31.917812 100.098588) scale(0.1 -0.1)">
       <use xlink:href="#DejaVuSans-2212"/>
       <use xlink:href="#DejaVuSans-35" transform="translate(83.789062 0)"/>
      </g>
     </g>
    </g>
    <g id="ytick_8">
     <g id="line2d_28">
      <path d="M 53.66 61.056376 
L 997.2 61.056376 
" clip-path="url(#p0c5381ddbc)" style="fill: none; stroke: #b0b0b0; stroke-opacity: 0.3; stroke-width: 0.8; stroke-linecap: square"/>
     </g>
     <g id="line2d_29">
      <g>
       <use xlink:href="#m34cbbbfee5" x="53.66" y="61.056376" style="stroke: #000000; stroke-width: 0.8"/>
      </g>
     </g>
     <g id="text_15">
      <!-- 0 -->
      <g transform="translate(40.2975 64.855595) scale(0.1 -0.1)">
       <use xlink:href="#DejaVuSans-30"/>
      </g>
     </g>
    </g>
    <g id="text_16">
     <!-- y [m] -->
     <g transform="translate(19.267656 194.240344) rotate(-90) scale(0.11 -0.11)">
      <defs>
       <path id="DejaVuSans-79" d="M 2059 -325 
Q 1816 -950 1584 -1140 
Q 1353 -1331 966 -1331 
L 506 -1331 
L 506 -850 
L 844 -850 
Q 1081 -850 1212 -737 
Q 1344 -625 1503 -206 
L 1606 56 
L 191 3500 
L 800 3500 
L 1894 763 
L 2988 3500 
L 3597 3500 
L 2059 -325 
z
" transform="scale(0.015625)"/>
      </defs>
      <use xlink:href="#DejaVuSans-79"/>
      <use xlink:href="#DejaVuSans-20" transform="translate(59.179688 0)"/>
      <use xlink:href="#DejaVuSans-5b" transform="translate(90.966797 0)"/>
      <use xlink:href="#DejaVuSans-6d" transform="translate(129.980469 0)"/>
      <use xlink:href="#DejaVuSans-5d" transform="translate(227.392578 0)"/>
     </g>
    </g>
   </g>
   <g id="line2d_30">
    <path d="M 96.548182 61.056376 
L 98.265426 60.994843 
L 99.124049 60.815304 
L 100.841293 60.048383 
L 103.41716 58.895371 
L 106.851649 57.629509 
L 110.286138 56.67003 
L 113.720627 55.981156 
L 116.296494 55.661426 
L 118.872361 55.526732 
L 121.448227 55.569807 
L 124.024094 55.792644 
L 126.599961 56.200722 
L 129.175828 56.788433 
L 131.751694 57.566982 
L 134.327561 58.52354 
L 137.76205 60.077391 
L 141.196539 61.944551 
L 144.631028 64.110424 
L 148.065517 66.573088 
L 151.500006 69.32105 
L 154.934495 72.346157 
L 158.368984 75.652413 
L 161.803473 79.238679 
L 166.096585 84.080251 
L 170.389696 89.305076 
L 174.682807 94.89487 
L 178.975919 100.810607 
L 183.26903 107.041671 
L 188.420763 114.903953 
L 193.572497 123.145765 
L 199.582853 133.178563 
L 207.310453 146.604182 
L 215.896676 161.973719 
L 246.807077 217.909616 
L 253.676055 229.621055 
L 259.686411 239.47981 
L 265.696767 248.881703 
L 270.8485 256.526149 
L 276.000234 263.74259 
L 280.293345 269.397668 
L 284.586456 274.707202 
L 288.879568 279.63564 
L 293.172679 284.171592 
L 296.607168 287.512317 
L 300.041657 290.574831 
L 303.476146 293.35589 
L 306.910635 295.846711 
L 310.345124 298.036 
L 313.779613 299.920195 
L 317.214102 301.500947 
L 320.648591 302.774074 
L 324.08308 303.749173 
L 326.658947 304.278345 
L 329.234814 304.621214 
L 331.810681 304.783444 
L 334.386547 304.771874 
L 336.962414 304.577768 
L 339.538281 304.196377 
L 342.114148 303.630443 
L 345.548637 302.598271 
L 348.983126 301.257475 
L 352.417615 299.614888 
L 355.852104 297.654164 
L 359.286593 295.387134 
L 362.721082 292.831352 
L 366.155571 290.002226 
L 369.59006 286.891551 
L 373.024549 283.51724 
L 376.459038 279.867984 
L 380.752149 274.943351 
L 385.045261 269.639139 
L 389.338372 263.975153 
L 393.631483 257.98869 
L 397.924595 251.665049 
L 403.076328 243.698772 
L 408.228062 235.354312 
L 415.09704 223.782062 
L 422.82464 210.225783 
L 433.128107 191.662207 
L 458.028153 146.456542 
L 465.755753 133.072809 
L 471.766109 123.056916 
L 476.917842 114.82891 
L 482.069576 106.955621 
L 487.221309 99.482314 
L 491.514421 93.60774 
L 495.807532 88.070191 
L 500.100643 82.893214 
L 504.393755 78.09015 
L 508.686866 73.674548 
L 512.121355 70.445845 
L 515.555844 67.503101 
L 518.990333 64.833003 
L 522.424822 62.458379 
L 525.859311 60.383291 
L 529.2938 58.611916 
L 532.728289 57.145858 
L 536.162778 55.984842 
L 538.738645 55.31967 
L 541.314512 54.827797 
L 543.890379 54.514505 
L 546.466245 54.384105 
L 549.042112 54.417915 
L 551.617979 54.62415 
L 554.193846 55.005485 
L 556.769712 55.577903 
L 560.204201 56.609252 
L 563.638691 57.943054 
L 567.07318 59.585776 
L 570.507669 61.541198 
L 573.942158 63.797151 
L 577.376647 66.3298 
L 580.811136 69.141686 
L 584.245625 72.243645 
L 587.680114 75.616336 
L 591.973225 80.183571 
L 596.266336 85.130878 
L 600.559448 90.464398 
L 604.852559 96.146009 
L 609.14567 102.155387 
L 614.297404 109.786575 
L 619.449137 117.794334 
L 625.459493 127.604147 
L 631.469849 137.824236 
L 640.056072 152.958051 
L 651.218161 173.220126 
L 670.107851 207.605573 
L 677.835451 221.140064 
L 684.704429 232.754183 
L 690.714785 242.482229 
L 696.725141 251.740297 
L 701.876874 259.242078 
L 706.169985 265.151076 
L 710.463097 270.727303 
L 714.756208 275.947193 
L 719.049319 280.775397 
L 722.483808 284.348438 
L 725.918297 287.662257 
L 729.352786 290.693658 
L 732.787275 293.449993 
L 736.221764 295.908907 
L 739.656254 298.079291 
L 743.090743 299.944265 
L 746.525232 301.51166 
L 749.959721 302.769778 
L 752.535587 303.503932 
L 755.111454 304.065252 
L 757.687321 304.453654 
L 760.263188 304.663791 
L 762.839055 304.6889 
L 765.414921 304.529514 
L 767.990788 304.194623 
L 770.566655 303.688301 
L 773.142522 303.000634 
L 775.718388 302.136721 
L 779.152877 300.711844 
L 782.587366 298.969774 
L 786.021855 296.922605 
L 789.456345 294.581353 
L 792.890834 291.945188 
L 796.325323 289.041384 
L 799.759812 285.863642 
L 803.194301 282.415653 
L 806.62879 278.7001 
L 810.921901 273.694519 
L 815.215012 268.329528 
L 819.508124 262.617207 
L 824.659857 255.313186 
L 829.811591 247.595146 
L 834.963324 239.462451 
L 840.97368 229.533056 
L 847.842658 217.75567 
L 854.711636 205.570765 
L 865.873726 185.201011 
L 881.328926 157.01256 
L 889.915149 141.749835 
L 896.784127 130.014239 
L 902.794483 120.131225 
L 908.804838 110.715863 
L 913.956572 103.071509 
L 919.108306 95.844459 
L 923.401417 90.193907 
L 927.694528 84.890462 
L 931.987639 79.954066 
L 936.280751 75.414202 
L 939.71524 72.073396 
L 943.149729 68.98768 
L 946.584218 66.187463 
L 950.018707 63.6852 
L 953.453196 61.467704 
L 954.311818 60.960605 
L 954.311818 60.960605 
" clip-path="url(#p0c5381ddbc)" style="fill: none; stroke: #888888; stroke-opacity: 0.6; stroke-width: 1.2; stroke-linecap: square"/>
   </g>
   <g id="patch_3">
    <path d="M 53.66 317.32 
L 53.66 41.856 
" style="fill: none; stroke: #000000; stroke-width: 0.8; stroke-linejoin: miter; stroke-linecap: square"/>
   </g>
   <g id="patch_4">
    <path d="M 997.2 317.32 
L 997.2 41.856 
" style="fill: none; stroke: #000000; stroke-width: 0.8; stroke-linejoin: miter; stroke-linecap: square"/>
   </g>
   <g id="patch_5">
    <path d="M 53.66 317.32 
L 997.2 317.32 
" style="fill: none; stroke: #000000; stroke-width: 0.8; stroke-linejoin: miter; stroke-linecap: square"/>
   </g>
   <g id="patch_6">
    <path d="M 53.66 41.856 
L 997.2 41.856 
" style="fill: none; stroke: #000000; stroke-width: 0.8; stroke-linejoin: miter; stroke-linecap: square"/>
   </g>
   <g id="line2d_31">
    <path d="M 96.548182 61.056376 
L 98.265426 60.984736 
L 99.124049 60.794257 
L 99.982671 60.414641 
L 101.699915 59.154229 
L 103.41716 57.978475 
L 105.134404 57.219463 
L 107.710271 56.463633 
L 112.003382 55.497834 
L 114.579249 55.17254 
L 118.013738 55.056008 
L 120.589605 55.102795 
L 122.30685 55.301007 
L 124.882716 55.858271 
L 131.751694 57.664631 
L 134.327561 58.669192 
L 136.903428 59.925694 
L 140.337917 61.917958 
L 145.489651 65.255693 
L 148.065517 67.100517 
L 150.641384 69.178542 
L 154.075873 72.231421 
L 157.510362 75.515197 
L 160.086229 78.233649 
L 166.955207 85.992078 
L 169.531074 89.098625 
L 172.965563 93.633939 
L 181.551785 105.484348 
L 185.844897 112.049179 
L 195.289742 126.940695 
L 206.451831 145.957472 
L 219.331165 168.981783 
L 233.069121 194.057764 
L 247.665699 219.870468 
L 257.110544 235.92207 
L 261.403655 242.617503 
L 271.707123 258.164203 
L 276.000234 263.919295 
L 282.869212 272.895311 
L 286.303701 276.872707 
L 293.172679 284.197782 
L 295.748546 286.664301 
L 302.617524 292.563343 
L 305.193391 294.486303 
L 307.769257 296.101852 
L 314.638236 300.042891 
L 317.214102 301.173637 
L 319.789969 302.004498 
L 325.800325 303.647942 
L 327.517569 303.930205 
L 330.093436 304.085736 
L 335.24517 304.023371 
L 337.821036 303.854995 
L 339.538281 303.587187 
L 342.114148 302.916551 
L 346.407259 301.460726 
L 349.841748 300.191787 
L 351.558993 299.402038 
L 354.134859 297.926088 
L 358.427971 295.110145 
L 363.579704 291.486101 
L 366.155571 289.354211 
L 369.59006 286.101186 
L 376.459038 279.232275 
L 379.034905 276.260196 
L 387.621127 265.684264 
L 392.772861 258.483294 
L 399.641839 248.592225 
L 408.228062 235.057724 
L 411.662551 229.320422 
L 428.834996 199.393922 
L 457.16953 148.119029 
L 463.179886 137.661766 
L 467.472998 130.342901 
L 478.635087 112.360867 
L 482.928198 105.950025 
L 488.938554 97.417015 
L 492.373043 92.86277 
L 500.100643 83.362082 
L 502.67651 80.421514 
L 506.110999 76.93647 
L 512.121355 71.040797 
L 514.697222 68.931617 
L 521.5662 63.662728 
L 524.142067 62.106593 
L 527.576556 60.339243 
L 532.728289 57.939408 
L 535.304156 56.9606 
L 537.880023 56.232997 
L 540.45589 55.815385 
L 547.324868 55.130945 
L 549.042112 55.188614 
L 551.617979 55.524151 
L 556.769712 56.513578 
L 559.345579 57.153762 
L 561.062824 57.739498 
L 563.638691 58.875501 
L 568.790424 61.483701 
L 571.366291 62.937932 
L 573.942158 64.716973 
L 580.811136 70.01981 
L 583.387002 72.283626 
L 585.962869 74.826646 
L 593.69047 82.998648 
L 597.124959 87.186608 
L 605.711181 98.191934 
L 609.14567 103.156737 
L 617.731893 115.981443 
L 628.893982 134.159749 
L 641.773316 156.761551 
L 657.228517 184.682485 
L 661.521628 192.499899 
L 665.814739 200.342329 
L 672.683717 212.539659 
L 676.118206 218.575964 
L 688.138918 238.66188 
L 698.442385 254.51239 
L 701.876874 259.307136 
L 711.321719 271.820301 
L 719.049319 280.699081 
L 721.625186 283.404435 
L 725.059675 286.657605 
L 729.352786 290.406153 
L 733.645898 293.880741 
L 736.221764 295.615485 
L 742.23212 299.151196 
L 744.807987 300.479429 
L 747.383854 301.575803 
L 749.959721 302.480357 
L 752.535587 303.124636 
L 758.545943 304.08383 
L 760.263188 304.256322 
L 761.980432 304.263759 
L 765.414921 303.921833 
L 769.708033 303.417788 
L 771.425277 302.980879 
L 777.435633 300.95222 
L 779.152877 300.202009 
L 783.445989 297.874796 
L 786.880478 295.905217 
L 789.456345 294.06589 
L 795.4667 289.279984 
L 798.042567 287.068593 
L 800.618434 284.543522 
L 808.346034 276.342188 
L 811.780523 272.221716 
L 818.649501 263.318346 
L 822.08399 258.666117 
L 828.952968 248.511738 
L 831.528835 244.604381 
L 840.97368 229.327682 
L 851.277147 211.525766 
L 857.287503 200.84224 
L 860.721992 194.659677 
L 866.732348 183.653425 
L 871.025459 175.903057 
L 876.177193 166.472883 
L 880.470304 158.742835 
L 884.763415 151.009939 
L 889.915149 141.984696 
L 894.20826 134.497063 
L 899.359994 126.005869 
L 908.804838 111.006963 
L 919.108306 96.092177 
L 923.401417 90.608008 
L 930.270395 82.199756 
L 935.422128 76.703537 
L 938.856618 73.215009 
L 941.432484 70.937747 
L 947.44284 66.063392 
L 950.018707 64.106264 
L 952.594574 62.454228 
L 954.311818 61.575599 
L 954.311818 61.575599 
" clip-path="url(#p0c5381ddbc)" style="fill: none; stroke: #2ca02c; stroke-width: 1.5; stroke-linecap: square"/>
   </g>
   <g id="line2d_32">
    <path d="M 96.548182 61.056376 
L 98.265426 60.984665 
L 99.124049 60.792329 
L 99.982671 60.417678 
L 103.41716 58.265463 
L 105.993027 57.278128 
L 108.568893 56.542091 
L 111.14476 55.989712 
L 113.720627 55.610965 
L 117.155116 55.325023 
L 119.730983 55.258702 
L 122.30685 55.439204 
L 124.882716 55.848699 
L 128.317205 56.644742 
L 131.751694 57.733178 
L 134.327561 58.755033 
L 137.76205 60.380397 
L 141.196539 62.306655 
L 144.631028 64.536899 
L 148.065517 67.038322 
L 151.500006 69.823201 
L 154.934495 72.905168 
L 159.227607 77.111062 
L 162.662096 80.756819 
L 166.955207 85.680352 
L 171.248318 90.96178 
L 175.54143 96.645565 
L 181.551785 105.026437 
L 185.844897 111.376784 
L 191.855253 120.709643 
L 197.006986 129.118393 
L 205.593209 143.691376 
L 212.462187 155.718372 
L 225.341521 179.024512 
L 239.938099 205.319938 
L 248.524322 220.24788 
L 255.3933 231.783663 
L 262.262278 242.906896 
L 267.414011 250.805476 
L 272.565745 258.307969 
L 276.858856 264.174198 
L 282.01059 270.783601 
L 286.303701 275.95468 
L 290.596812 280.738676 
L 294.031301 284.241577 
L 298.324413 288.256268 
L 301.758902 291.156549 
L 305.193391 293.764378 
L 308.62788 296.08219 
L 312.062369 298.095834 
L 315.496858 299.816493 
L 318.072725 300.899825 
L 320.648591 301.802612 
L 323.224458 302.521443 
L 326.658947 303.222131 
L 329.234814 303.558749 
L 331.810681 303.716621 
L 334.386547 303.684849 
L 337.821036 303.37846 
L 340.396903 302.950339 
L 342.97277 302.334918 
L 346.407259 301.242988 
L 348.983126 300.218799 
L 351.558993 299.012803 
L 354.993482 297.140818 
L 358.427971 295.015069 
L 361.86246 292.595529 
L 365.296949 289.845605 
L 369.59006 286.067882 
L 373.024549 282.731075 
L 377.31766 278.215822 
L 381.610772 273.3562 
L 385.045261 269.139452 
L 390.196994 262.370708 
L 394.490106 256.383474 
L 400.500461 247.56138 
L 405.652195 239.615457 
L 410.803928 231.279611 
L 416.814284 221.159644 
L 423.683262 209.158392 
L 433.986729 190.645207 
L 449.44193 162.549002 
L 456.310908 150.304294 
L 465.755753 133.917144 
L 471.766109 123.924613 
L 477.776465 114.33653 
L 482.928198 106.601572 
L 488.938554 98.041376 
L 494.090288 91.126467 
L 498.383399 85.754814 
L 502.67651 80.823741 
L 506.110999 77.169152 
L 510.40411 72.93516 
L 513.8386 69.847904 
L 517.273089 67.070706 
L 520.707578 64.559432 
L 524.142067 62.300573 
L 527.576556 60.345589 
L 531.011045 58.707684 
L 534.445534 57.374928 
L 537.880023 56.35448 
L 540.45589 55.808239 
L 543.890379 55.358637 
L 546.466245 55.215004 
L 549.042112 55.241109 
L 551.617979 55.445032 
L 554.193846 55.840455 
L 557.628335 56.637218 
L 560.204201 57.425665 
L 563.638691 58.755391 
L 567.07318 60.38629 
L 570.507669 62.319418 
L 573.942158 64.547162 
L 577.376647 67.064639 
L 580.811136 69.84996 
L 584.245625 72.910755 
L 587.680114 76.25247 
L 591.114603 79.890314 
L 595.407714 84.781412 
L 599.700825 89.972303 
L 603.993937 95.525412 
L 609.14567 102.59466 
L 614.297404 110.12724 
L 619.449137 118.025443 
L 624.600871 126.323859 
L 630.611227 136.392927 
L 638.338827 149.833382 
L 649.500916 169.688435 
L 675.259584 216.017757 
L 682.128562 227.767831 
L 688.138918 237.565925 
L 695.007896 248.346263 
L 700.15963 255.975031 
L 705.311363 263.196065 
L 709.604474 268.8364 
L 713.897586 274.088118 
L 718.190697 279.002215 
L 721.625186 282.642611 
L 725.059675 286.010565 
L 728.494164 289.101534 
L 731.928653 291.914982 
L 735.363142 294.417358 
L 738.797631 296.627535 
L 742.23212 298.572387 
L 745.666609 300.202423 
L 749.101098 301.520915 
L 751.676965 302.315563 
L 755.111454 303.10881 
L 757.687321 303.492788 
L 760.263188 303.69375 
L 762.839055 303.722854 
L 765.414921 303.569306 
L 767.990788 303.239913 
L 770.566655 302.734733 
L 773.142522 302.050496 
L 776.577011 300.867122 
L 779.152877 299.786907 
L 782.587366 298.080202 
L 786.021855 296.083108 
L 789.456345 293.785224 
L 792.890834 291.183564 
L 796.325323 288.287587 
L 800.618434 284.34046 
L 804.052923 280.87528 
L 808.346034 276.17913 
L 812.639146 271.113011 
L 816.932257 265.683647 
L 821.225368 259.891296 
L 825.518479 253.761665 
L 830.670213 245.980114 
L 837.539191 235.140537 
L 843.549547 225.298662 
L 849.559903 215.032355 
L 858.146125 199.835962 
L 870.166837 178.044818 
L 885.622037 150.106612 
L 894.20826 135.16347 
L 900.218616 125.159905 
L 907.087594 114.14653 
L 911.380705 107.632351 
L 916.532439 100.238681 
L 920.82555 94.435105 
L 925.118661 88.966437 
L 930.270395 82.776031 
L 933.704884 78.938873 
L 937.997995 74.514767 
L 941.432484 71.292839 
L 944.866973 68.347326 
L 948.301462 65.673141 
L 951.735951 63.28928 
L 953.453196 62.257303 
L 954.311818 61.841964 
L 954.311818 61.841964 
" clip-path="url(#p0c5381ddbc)" style="fill: none; stroke-dasharray: 4.44,1.92; stroke-dashoffset: 0; stroke: #1f77b4; stroke-width: 1.2"/>
   </g>
   <g id="text_17">
    <!-- lissajous — Y Position Tracking -->
    <g transform="translate(412.652969 21.197281) scale(0.13 -0.13)">
     <defs>
      <path id="DejaVuSans-Bold-6c" d="M 538 4863 
L 1656 4863 
L 1656 0 
L 538 0 
L 538 4863 
z
" transform="scale(0.015625)"/>
      <path id="DejaVuSans-Bold-69" d="M 538 3500 
L 1656 3500 
L 1656 0 
L 538 0 
L 538 3500 
z
M 538 4863 
L 1656 4863 
L 1656 3950 
L 538 3950 
L 538 4863 
z
" transform="scale(0.015625)"/>
      <path id="DejaVuSans-Bold-73" d="M 3272 3391 
L 3272 2541 
Q 2913 2691 2578 2766 
Q 2244 2841 1947 2841 
Q 1628 2841 1473 2761 
Q 1319 2681 1319 2516 
Q 1319 2381 1436 2309 
Q 1553 2238 1856 2203 
L 2053 2175 
Q 2913 2066 3209 1816 
Q 3506 1566 3506 1031 
Q 3506 472 3093 190 
Q 2681 -91 1863 -91 
Q 1516 -91 1145 -36 
Q 775 19 384 128 
L 384 978 
Q 719 816 1070 734 
Q 1422 653 1784 653 
Q 2113 653 2278 743 
Q 2444 834 2444 1013 
Q 2444 1163 2330 1236 
Q 2216 1309 1875 1350 
L 1678 1375 
Q 931 1469 631 1722 
Q 331 1975 331 2491 
Q 331 3047 712 3315 
Q 1094 3584 1881 3584 
Q 2191 3584 2531 3537 
Q 2872 3491 3272 3391 
z
" transform="scale(0.015625)"/>
      <path id="DejaVuSans-Bold-61" d="M 2106 1575 
Q 1756 1575 1579 1456 
Q 1403 1338 1403 1106 
Q 1403 894 1545 773 
Q 1688 653 1941 653 
Q 2256 653 2472 879 
Q 2688 1106 2688 1447 
L 2688 1575 
L 2106 1575 
z
M 3816 1997 
L 3816 0 
L 2688 0 
L 2688 519 
Q 2463 200 2181 54 
Q 1900 -91 1497 -91 
Q 953 -91 614 226 
Q 275 544 275 1050 
Q 275 1666 698 1953 
Q 1122 2241 2028 2241 
L 2688 2241 
L 2688 2328 
Q 2688 2594 2478 2717 
Q 2269 2841 1825 2841 
Q 1466 2841 1156 2769 
Q 847 2697 581 2553 
L 581 3406 
Q 941 3494 1303 3539 
Q 1666 3584 2028 3584 
Q 2975 3584 3395 3211 
Q 3816 2838 3816 1997 
z
" transform="scale(0.015625)"/>
      <path id="DejaVuSans-Bold-6a" d="M 538 3500 
L 1656 3500 
L 1656 63 
Q 1656 -641 1318 -1011 
Q 981 -1381 341 -1381 
L -213 -1381 
L -213 -647 
L -19 -647 
Q 300 -647 419 -503 
Q 538 -359 538 63 
L 538 3500 
z
M 538 4863 
L 1656 4863 
L 1656 3950 
L 538 3950 
L 538 4863 
z
" transform="scale(0.015625)"/>
      <path id="DejaVuSans-Bold-6f" d="M 2203 2784 
Q 1831 2784 1636 2517 
Q 1441 2250 1441 1747 
Q 1441 1244 1636 976 
Q 1831 709 2203 709 
Q 2569 709 2762 976 
Q 2956 1244 2956 1747 
Q 2956 2250 2762 2517 
Q 2569 2784 2203 2784 
z
M 2203 3584 
Q 3106 3584 3614 3096 
Q 4122 2609 4122 1747 
Q 4122 884 3614 396 
Q 3106 -91 2203 -91 
Q 1297 -91 786 396 
Q 275 884 275 1747 
Q 275 2609 786 3096 
Q 1297 3584 2203 3584 
z
" transform="scale(0.015625)"/>
      <path id="DejaVuSans-Bold-75" d="M 500 1363 
L 500 3500 
L 1625 3500 
L 1625 3150 
Q 1625 2866 1622 2436 
Q 1619 2006 1619 1863 
Q 1619 1441 1641 1255 
Q 1663 1069 1716 984 
Q 1784 875 1895 815 
Q 2006 756 2150 756 
Q 2500 756 2700 1025 
Q 2900 1294 2900 1772 
L 2900 3500 
L 4019 3500 
L 4019 0 
L 2900 0 
L 2900 506 
Q 2647 200 2364 54 
Q 2081 -91 1741 -91 
Q 1134 -91 817 281 
Q 500 653 500 1363 
z
" transform="scale(0.015625)"/>
      <path id="DejaVuSans-Bold-20" transform="scale(0.015625)"/>
      <path id="DejaVuSans-Bold-2014" d="M 344 2156 
L 6056 2156 
L 6056 1350 
L 344 1350 
L 344 2156 
z
" transform="scale(0.015625)"/>
      <path id="DejaVuSans-Bold-59" d="M -63 4666 
L 1253 4666 
L 2316 3003 
L 3378 4666 
L 4697 4666 
L 2919 1966 
L 2919 0 
L 1716 0 
L 1716 1966 
L -63 4666 
z
" transform="scale(0.015625)"/>
      <path id="DejaVuSans-Bold-50" d="M 588 4666 
L 2584 4666 
Q 3475 4666 3951 4270 
Q 4428 3875 4428 3144 
Q 4428 2409 3951 2014 
Q 3475 1619 2584 1619 
L 1791 1619 
L 1791 0 
L 588 0 
L 588 4666 
z
M 1791 3794 
L 1791 2491 
L 2456 2491 
Q 2806 2491 2997 2661 
Q 3188 2831 3188 3144 
Q 3188 3456 2997 3625 
Q 2806 3794 2456 3794 
L 1791 3794 
z
" transform="scale(0.015625)"/>
      <path id="DejaVuSans-Bold-74" d="M 1759 4494 
L 1759 3500 
L 2913 3500 
L 2913 2700 
L 1759 2700 
L 1759 1216 
Q 1759 972 1856 886 
Q 1953 800 2241 800 
L 2816 800 
L 2816 0 
L 1856 0 
Q 1194 0 917 276 
Q 641 553 641 1216 
L 641 2700 
L 84 2700 
L 84 3500 
L 641 3500 
L 641 4494 
L 1759 4494 
z
" transform="scale(0.015625)"/>
      <path id="DejaVuSans-Bold-6e" d="M 4056 2131 
L 4056 0 
L 2931 0 
L 2931 347 
L 2931 1631 
Q 2931 2084 2911 2256 
Q 2891 2428 2841 2509 
Q 2775 2619 2662 2680 
Q 2550 2741 2406 2741 
Q 2056 2741 1856 2470 
Q 1656 2200 1656 1722 
L 1656 0 
L 538 0 
L 538 3500 
L 1656 3500 
L 1656 2988 
Q 1909 3294 2193 3439 
Q 2478 3584 2822 3584 
Q 3428 3584 3742 3212 
Q 4056 2841 4056 2131 
z
" transform="scale(0.015625)"/>
      <path id="DejaVuSans-Bold-54" d="M 31 4666 
L 4331 4666 
L 4331 3756 
L 2784 3756 
L 2784 0 
L 1581 0 
L 1581 3756 
L 31 3756 
L 31 4666 
z
" transform="scale(0.015625)"/>
      <path id="DejaVuSans-Bold-72" d="M 3138 2547 
Q 2991 2616 2845 2648 
Q 2700 2681 2553 2681 
Q 2122 2681 1889 2404 
Q 1656 2128 1656 1613 
L 1656 0 
L 538 0 
L 538 3500 
L 1656 3500 
L 1656 2925 
Q 1872 3269 2151 3426 
Q 2431 3584 2822 3584 
Q 2878 3584 2943 3579 
Q 3009 3575 3134 3559 
L 3138 2547 
z
" transform="scale(0.015625)"/>
      <path id="DejaVuSans-Bold-63" d="M 3366 3391 
L 3366 2478 
Q 3138 2634 2908 2709 
Q 2678 2784 2431 2784 
Q 1963 2784 1702 2511 
Q 1441 2238 1441 1747 
Q 1441 1256 1702 982 
Q 1963 709 2431 709 
Q 2694 709 2930 787 
Q 3166 866 3366 1019 
L 3366 103 
Q 3103 6 2833 -42 
Q 2563 -91 2291 -91 
Q 1344 -91 809 395 
Q 275 881 275 1747 
Q 275 2613 809 3098 
Q 1344 3584 2291 3584 
Q 2566 3584 2833 3536 
Q 3100 3488 3366 3391 
z
" transform="scale(0.015625)"/>
      <path id="DejaVuSans-Bold-6b" d="M 538 4863 
L 1656 4863 
L 1656 2216 
L 2944 3500 
L 4244 3500 
L 2534 1894 
L 4378 0 
L 3022 0 
L 1656 1459 
L 1656 0 
L 538 0 
L 538 4863 
z
" transform="scale(0.015625)"/>
      <path id="DejaVuSans-Bold-67" d="M 2919 594 
Q 2688 288 2409 144 
Q 2131 0 1766 0 
Q 1125 0 706 504 
Q 288 1009 288 1791 
Q 288 2575 706 3076 
Q 1125 3578 1766 3578 
Q 2131 3578 2409 3434 
Q 2688 3291 2919 2981 
L 2919 3500 
L 4044 3500 
L 4044 353 
Q 4044 -491 3511 -936 
Q 2978 -1381 1966 -1381 
Q 1638 -1381 1331 -1331 
Q 1025 -1281 716 -1178 
L 716 -306 
Q 1009 -475 1290 -558 
Q 1572 -641 1856 -641 
Q 2406 -641 2662 -400 
Q 2919 -159 2919 353 
L 2919 594 
z
M 2181 2772 
Q 1834 2772 1640 2515 
Q 1447 2259 1447 1791 
Q 1447 1309 1634 1061 
Q 1822 813 2181 813 
Q 2531 813 2725 1069 
Q 2919 1325 2919 1791 
Q 2919 2259 2725 2515 
Q 2531 2772 2181 2772 
z
" transform="scale(0.015625)"/>
     </defs>
     <use xlink:href="#DejaVuSans-Bold-6c"/>
     <use xlink:href="#DejaVuSans-Bold-69" transform="translate(34.277344 0)"/>
     <use xlink:href="#DejaVuSans-Bold-73" transform="translate(68.554688 0)"/>
     <use xlink:href="#DejaVuSans-Bold-73" transform="translate(128.076172 0)"/>
     <use xlink:href="#DejaVuSans-Bold-61" transform="translate(187.597656 0)"/>
     <use xlink:href="#DejaVuSans-Bold-6a" transform="translate(255.078125 0)"/>
     <use xlink:href="#DejaVuSans-Bold-6f" transform="translate(289.355469 0)"/>
     <use xlink:href="#DejaVuSans-Bold-75" transform="translate(358.056641 0)"/>
     <use xlink:href="#DejaVuSans-Bold-73" transform="translate(429.248047 0)"/>
     <use xlink:href="#DejaVuSans-Bold-20" transform="translate(488.769531 0)"/>
     <use xlink:href="#DejaVuSans-Bold-2014" transform="translate(523.583984 0)"/>
     <use xlink:href="#DejaVuSans-Bold-20" transform="translate(623.583984 0)"/>
     <use xlink:href="#DejaVuSans-Bold-59" transform="translate(658.398438 0)"/>
     <use xlink:href="#DejaVuSans-Bold-20" transform="translate(730.810547 0)"/>
     <use xlink:href="#DejaVuSans-Bold-50" transform="translate(765.625 0)"/>
     <use xlink:href="#DejaVuSans-Bold-6f" transform="translate(838.916016 0)"/>
     <use xlink:href="#DejaVuSans-Bold-73" transform="translate(907.617188 0)"/>
     <use xlink:href="#DejaVuSans-Bold-69" transform="translate(967.138672 0)"/>
     <use xlink:href="#DejaVuSans-Bold-74" transform="translate(1001.416016 0)"/>
     <use xlink:href="#DejaVuSans-Bold-69" transform="translate(1049.21875 0)"/>
     <use xlink:href="#DejaVuSans-Bold-6f" transform="translate(1083.496094 0)"/>
     <use xlink:href="#DejaVuSans-Bold-6e" transform="translate(1152.197266 0)"/>
     <use xlink:href="#DejaVuSans-Bold-20" transform="translate(1223.388672 0)"/>
     <use xlink:href="#DejaVuSans-Bold-54" transform="translate(1258.203125 0)"/>
     <use xlink:href="#DejaVuSans-Bold-72" transform="translate(1315.416016 0)"/>
     <use xlink:href="#DejaVuSans-Bold-61" transform="translate(1364.732422 0)"/>
     <use xlink:href="#DejaVuSans-Bold-63" transform="translate(1432.212891 0)"/>
     <use xlink:href="#DejaVuSans-Bold-6b" transform="translate(1491.490234 0)"/>
     <use xlink:href="#DejaVuSans-Bold-69" transform="translate(1557.994141 0)"/>
     <use xlink:href="#DejaVuSans-Bold-6e" transform="translate(1592.271484 0)"/>
     <use xlink:href="#DejaVuSans-Bold-67" transform="translate(1663.462891 0)"/>
    </g>
    <!-- PID=0.2864m   EDMDc=0.2137m   Linear=0.2495m -->
    <g transform="translate(338.817031 35.856) scale(0.13 -0.13)">
     <defs>
      <path id="DejaVuSans-Bold-49" d="M 588 4666 
L 1791 4666 
L 1791 0 
L 588 0 
L 588 4666 
z
" transform="scale(0.015625)"/>
      <path id="DejaVuSans-Bold-44" d="M 1791 3756 
L 1791 909 
L 2222 909 
Q 2959 909 3348 1275 
Q 3738 1641 3738 2338 
Q 3738 3031 3350 3393 
Q 2963 3756 2222 3756 
L 1791 3756 
z
M 588 4666 
L 1856 4666 
Q 2919 4666 3439 4514 
Q 3959 4363 4331 4000 
Q 4659 3684 4818 3271 
Q 4978 2859 4978 2338 
Q 4978 1809 4818 1395 
Q 4659 981 4331 666 
Q 3956 303 3431 151 
Q 2906 0 1856 0 
L 588 0 
L 588 4666 
z
" transform="scale(0.015625)"/>
      <path id="DejaVuSans-Bold-3d" d="M 678 3084 
L 4684 3084 
L 4684 2350 
L 678 2350 
L 678 3084 
z
M 678 1663 
L 4684 1663 
L 4684 922 
L 678 922 
L 678 1663 
z
" transform="scale(0.015625)"/>
      <path id="DejaVuSans-Bold-30" d="M 2944 2338 
Q 2944 3213 2780 3570 
Q 2616 3928 2228 3928 
Q 1841 3928 1675 3570 
Q 1509 3213 1509 2338 
Q 1509 1453 1675 1090 
Q 1841 728 2228 728 
Q 2613 728 2778 1090 
Q 2944 1453 2944 2338 
z
M 4147 2328 
Q 4147 1169 3647 539 
Q 3147 -91 2228 -91 
Q 1306 -91 806 539 
Q 306 1169 306 2328 
Q 306 3491 806 4120 
Q 1306 4750 2228 4750 
Q 3147 4750 3647 4120 
Q 4147 3491 4147 2328 
z
" transform="scale(0.015625)"/>
      <path id="DejaVuSans-Bold-2e" d="M 653 1209 
L 1778 1209 
L 1778 0 
L 653 0 
L 653 1209 
z
" transform="scale(0.015625)"/>
      <path id="DejaVuSans-Bold-32" d="M 1844 884 
L 3897 884 
L 3897 0 
L 506 0 
L 506 884 
L 2209 2388 
Q 2438 2594 2547 2791 
Q 2656 2988 2656 3200 
Q 2656 3528 2436 3728 
Q 2216 3928 1850 3928 
Q 1569 3928 1234 3808 
Q 900 3688 519 3450 
L 519 4475 
Q 925 4609 1322 4679 
Q 1719 4750 2100 4750 
Q 2938 4750 3402 4381 
Q 3866 4013 3866 3353 
Q 3866 2972 3669 2642 
Q 3472 2313 2841 1759 
L 1844 884 
z
" transform="scale(0.015625)"/>
      <path id="DejaVuSans-Bold-38" d="M 2228 2088 
Q 1891 2088 1709 1903 
Q 1528 1719 1528 1375 
Q 1528 1031 1709 848 
Q 1891 666 2228 666 
Q 2563 666 2741 848 
Q 2919 1031 2919 1375 
Q 2919 1722 2741 1905 
Q 2563 2088 2228 2088 
z
M 1350 2484 
Q 925 2613 709 2878 
Q 494 3144 494 3541 
Q 494 4131 934 4440 
Q 1375 4750 2228 4750 
Q 3075 4750 3515 4442 
Q 3956 4134 3956 3541 
Q 3956 3144 3739 2878 
Q 3522 2613 3097 2484 
Q 3572 2353 3814 2058 
Q 4056 1763 4056 1313 
Q 4056 619 3595 264 
Q 3134 -91 2228 -91 
Q 1319 -91 855 264 
Q 391 619 391 1313 
Q 391 1763 633 2058 
Q 875 2353 1350 2484 
z
M 1631 3419 
Q 1631 3141 1786 2991 
Q 1941 2841 2228 2841 
Q 2509 2841 2662 2991 
Q 2816 3141 2816 3419 
Q 2816 3697 2662 3845 
Q 2509 3994 2228 3994 
Q 1941 3994 1786 3844 
Q 1631 3694 1631 3419 
z
" transform="scale(0.015625)"/>
      <path id="DejaVuSans-Bold-36" d="M 2316 2303 
Q 2000 2303 1842 2098 
Q 1684 1894 1684 1484 
Q 1684 1075 1842 870 
Q 2000 666 2316 666 
Q 2634 666 2792 870 
Q 2950 1075 2950 1484 
Q 2950 1894 2792 2098 
Q 2634 2303 2316 2303 
z
M 3803 4544 
L 3803 3681 
Q 3506 3822 3243 3889 
Q 2981 3956 2731 3956 
Q 2194 3956 1894 3657 
Q 1594 3359 1544 2772 
Q 1750 2925 1990 3001 
Q 2231 3078 2516 3078 
Q 3231 3078 3670 2659 
Q 4109 2241 4109 1563 
Q 4109 813 3618 361 
Q 3128 -91 2303 -91 
Q 1394 -91 895 523 
Q 397 1138 397 2266 
Q 397 3422 980 4083 
Q 1563 4744 2578 4744 
Q 2900 4744 3203 4694 
Q 3506 4644 3803 4544 
z
" transform="scale(0.015625)"/>
      <path id="DejaVuSans-Bold-34" d="M 2356 3675 
L 1038 1722 
L 2356 1722 
L 2356 3675 
z
M 2156 4666 
L 3494 4666 
L 3494 1722 
L 4159 1722 
L 4159 850 
L 3494 850 
L 3494 0 
L 2356 0 
L 2356 850 
L 288 850 
L 288 1881 
L 2156 4666 
z
" transform="scale(0.015625)"/>
      <path id="DejaVuSans-Bold-6d" d="M 3781 2919 
Q 3994 3244 4286 3414 
Q 4578 3584 4928 3584 
Q 5531 3584 5847 3212 
Q 6163 2841 6163 2131 
L 6163 0 
L 5038 0 
L 5038 1825 
Q 5041 1866 5042 1909 
Q 5044 1953 5044 2034 
Q 5044 2406 4934 2573 
Q 4825 2741 4581 2741 
Q 4263 2741 4089 2478 
Q 3916 2216 3909 1719 
L 3909 0 
L 2784 0 
L 2784 1825 
Q 2784 2406 2684 2573 
Q 2584 2741 2328 2741 
Q 2006 2741 1831 2477 
Q 1656 2213 1656 1722 
L 1656 0 
L 531 0 
L 531 3500 
L 1656 3500 
L 1656 2988 
Q 1863 3284 2130 3434 
Q 2397 3584 2719 3584 
Q 3081 3584 3359 3409 
Q 3638 3234 3781 2919 
z
" transform="scale(0.015625)"/>
      <path id="DejaVuSans-Bold-45" d="M 588 4666 
L 3834 4666 
L 3834 3756 
L 1791 3756 
L 1791 2888 
L 3713 2888 
L 3713 1978 
L 1791 1978 
L 1791 909 
L 3903 909 
L 3903 0 
L 588 0 
L 588 4666 
z
" transform="scale(0.015625)"/>
      <path id="DejaVuSans-Bold-4d" d="M 588 4666 
L 2119 4666 
L 3181 2169 
L 4250 4666 
L 5778 4666 
L 5778 0 
L 4641 0 
L 4641 3413 
L 3566 897 
L 2803 897 
L 1728 3413 
L 1728 0 
L 588 0 
L 588 4666 
z
" transform="scale(0.015625)"/>
      <path id="DejaVuSans-Bold-31" d="M 750 831 
L 1813 831 
L 1813 3847 
L 722 3622 
L 722 4441 
L 1806 4666 
L 2950 4666 
L 2950 831 
L 4013 831 
L 4013 0 
L 750 0 
L 750 831 
z
" transform="scale(0.015625)"/>
      <path id="DejaVuSans-Bold-33" d="M 2981 2516 
Q 3453 2394 3698 2092 
Q 3944 1791 3944 1325 
Q 3944 631 3412 270 
Q 2881 -91 1863 -91 
Q 1503 -91 1142 -33 
Q 781 25 428 141 
L 428 1069 
Q 766 900 1098 814 
Q 1431 728 1753 728 
Q 2231 728 2486 893 
Q 2741 1059 2741 1369 
Q 2741 1688 2480 1852 
Q 2219 2016 1709 2016 
L 1228 2016 
L 1228 2791 
L 1734 2791 
Q 2188 2791 2409 2933 
Q 2631 3075 2631 3366 
Q 2631 3634 2415 3781 
Q 2200 3928 1806 3928 
Q 1516 3928 1219 3862 
Q 922 3797 628 3669 
L 628 4550 
Q 984 4650 1334 4700 
Q 1684 4750 2022 4750 
Q 2931 4750 3382 4451 
Q 3834 4153 3834 3553 
Q 3834 3144 3618 2883 
Q 3403 2622 2981 2516 
z
" transform="scale(0.015625)"/>
      <path id="DejaVuSans-Bold-37" d="M 428 4666 
L 3944 4666 
L 3944 3988 
L 2125 0 
L 953 0 
L 2675 3781 
L 428 3781 
L 428 4666 
z
" transform="scale(0.015625)"/>
      <path id="DejaVuSans-Bold-4c" d="M 588 4666 
L 1791 4666 
L 1791 909 
L 3903 909 
L 3903 0 
L 588 0 
L 588 4666 
z
" transform="scale(0.015625)"/>
      <path id="DejaVuSans-Bold-65" d="M 4031 1759 
L 4031 1441 
L 1416 1441 
Q 1456 1047 1700 850 
Q 1944 653 2381 653 
Q 2734 653 3104 758 
Q 3475 863 3866 1075 
L 3866 213 
Q 3469 63 3072 -14 
Q 2675 -91 2278 -91 
Q 1328 -91 801 392 
Q 275 875 275 1747 
Q 275 2603 792 3093 
Q 1309 3584 2216 3584 
Q 3041 3584 3536 3087 
Q 4031 2591 4031 1759 
z
M 2881 2131 
Q 2881 2450 2695 2645 
Q 2509 2841 2209 2841 
Q 1884 2841 1681 2658 
Q 1478 2475 1428 2131 
L 2881 2131 
z
" transform="scale(0.015625)"/>
      <path id="DejaVuSans-Bold-39" d="M 641 103 
L 641 966 
Q 928 831 1190 764 
Q 1453 697 1709 697 
Q 2247 697 2547 995 
Q 2847 1294 2900 1881 
Q 2688 1725 2447 1647 
Q 2206 1569 1925 1569 
Q 1209 1569 770 1986 
Q 331 2403 331 3084 
Q 331 3838 820 4291 
Q 1309 4744 2131 4744 
Q 3044 4744 3544 4128 
Q 4044 3513 4044 2388 
Q 4044 1231 3459 570 
Q 2875 -91 1856 -91 
Q 1528 -91 1228 -42 
Q 928 6 641 103 
z
M 2125 2350 
Q 2441 2350 2600 2554 
Q 2759 2759 2759 3169 
Q 2759 3575 2600 3781 
Q 2441 3988 2125 3988 
Q 1809 3988 1650 3781 
Q 1491 3575 1491 3169 
Q 1491 2759 1650 2554 
Q 1809 2350 2125 2350 
z
" transform="scale(0.015625)"/>
      <path id="DejaVuSans-Bold-35" d="M 678 4666 
L 3669 4666 
L 3669 3781 
L 1638 3781 
L 1638 3059 
Q 1775 3097 1914 3117 
Q 2053 3138 2203 3138 
Q 3056 3138 3531 2711 
Q 4006 2284 4006 1522 
Q 4006 766 3489 337 
Q 2972 -91 2053 -91 
Q 1656 -91 1267 -14 
Q 878 63 494 219 
L 494 1166 
Q 875 947 1217 837 
Q 1559 728 1863 728 
Q 2300 728 2551 942 
Q 2803 1156 2803 1522 
Q 2803 1891 2551 2103 
Q 2300 2316 1863 2316 
Q 1603 2316 1309 2248 
Q 1016 2181 678 2041 
L 678 4666 
z
" transform="scale(0.015625)"/>
     </defs>
     <use xlink:href="#DejaVuSans-Bold-50"/>
     <use xlink:href="#DejaVuSans-Bold-49" transform="translate(73.291016 0)"/>
     <use xlink:href="#DejaVuSans-Bold-44" transform="translate(110.498047 0)"/>
     <use xlink:href="#DejaVuSans-Bold-3d" transform="translate(193.505859 0)"/>
     <use xlink:href="#DejaVuSans-Bold-30" transform="translate(277.294922 0)"/>
     <use xlink:href="#DejaVuSans-Bold-2e" transform="translate(346.875 0)"/>
     <use xlink:href="#DejaVuSans-Bold-32" transform="translate(384.863281 0)"/>
     <use xlink:href="#DejaVuSans-Bold-38" transform="translate(454.443359 0)"/>
     <use xlink:href="#DejaVuSans-Bold-36" transform="translate(524.023438 0)"/>
     <use xlink:href="#DejaVuSans-Bold-34" transform="translate(593.603516 0)"/>
     <use xlink:href="#DejaVuSans-Bold-6d" transform="translate(663.183594 0)"/>
     <use xlink:href="#DejaVuSans-Bold-20" transform="translate(767.382812 0)"/>
     <use xlink:href="#DejaVuSans-Bold-20" transform="translate(802.197266 0)"/>
     <use xlink:href="#DejaVuSans-Bold-20" transform="translate(837.011719 0)"/>
     <use xlink:href="#DejaVuSans-Bold-45" transform="translate(871.826172 0)"/>
     <use xlink:href="#DejaVuSans-Bold-44" transform="translate(940.136719 0)"/>
     <use xlink:href="#DejaVuSans-Bold-4d" transform="translate(1023.144531 0)"/>
     <use xlink:href="#DejaVuSans-Bold-44" transform="translate(1122.65625 0)"/>
     <use xlink:href="#DejaVuSans-Bold-63" transform="translate(1205.664062 0)"/>
     <use xlink:href="#DejaVuSans-Bold-3d" transform="translate(1264.941406 0)"/>
     <use xlink:href="#DejaVuSans-Bold-30" transform="translate(1348.730469 0)"/>
     <use xlink:href="#DejaVuSans-Bold-2e" transform="translate(1418.310547 0)"/>
     <use xlink:href="#DejaVuSans-Bold-32" transform="translate(1456.298828 0)"/>
     <use xlink:href="#DejaVuSans-Bold-31" transform="translate(1525.878906 0)"/>
     <use xlink:href="#DejaVuSans-Bold-33" transform="translate(1595.458984 0)"/>
     <use xlink:href="#DejaVuSans-Bold-37" transform="translate(1665.039062 0)"/>
     <use xlink:href="#DejaVuSans-Bold-6d" transform="translate(1734.619141 0)"/>
     <use xlink:href="#DejaVuSans-Bold-20" transform="translate(1838.818359 0)"/>
     <use xlink:href="#DejaVuSans-Bold-20" transform="translate(1873.632812 0)"/>
     <use xlink:href="#DejaVuSans-Bold-20" transform="translate(1908.447266 0)"/>
     <use xlink:href="#DejaVuSans-Bold-4c" transform="translate(1943.261719 0)"/>
     <use xlink:href="#DejaVuSans-Bold-69" transform="translate(2006.982422 0)"/>
     <use xlink:href="#DejaVuSans-Bold-6e" transform="translate(2041.259766 0)"/>
     <use xlink:href="#DejaVuSans-Bold-65" transform="translate(2112.451172 0)"/>
     <use xlink:href="#DejaVuSans-Bold-61" transform="translate(2180.273438 0)"/>
     <use xlink:href="#DejaVuSans-Bold-72" transform="translate(2247.753906 0)"/>
     <use xlink:href="#DejaVuSans-Bold-3d" transform="translate(2297.070312 0)"/>
     <use xlink:href="#DejaVuSans-Bold-30" transform="translate(2380.859375 0)"/>
     <use xlink:href="#DejaVuSans-Bold-2e" transform="translate(2450.439453 0)"/>
     <use xlink:href="#DejaVuSans-Bold-32" transform="translate(2488.427734 0)"/>
     <use xlink:href="#DejaVuSans-Bold-34" transform="translate(2558.007812 0)"/>
     <use xlink:href="#DejaVuSans-Bold-39" transform="translate(2627.587891 0)"/>
     <use xlink:href="#DejaVuSans-Bold-35" transform="translate(2697.167969 0)"/>
     <use xlink:href="#DejaVuSans-Bold-6d" transform="translate(2766.748047 0)"/>
    </g>
   </g>
   <g id="legend_1">
    <g id="patch_7">
     <path d="M 60.66 312.32 
L 153.324062 312.32 
Q 155.324062 312.32 155.324062 310.32 
L 155.324062 252.6075 
Q 155.324062 250.6075 153.324062 250.6075 
L 60.66 250.6075 
Q 58.66 250.6075 58.66 252.6075 
L 58.66 310.32 
Q 58.66 312.32 60.66 312.32 
z
" style="fill: #ffffff; opacity: 0.8; stroke: #cccccc; stroke-linejoin: miter"/>
    </g>
    <g id="line2d_33">
     <path d="M 62.66 258.705938 
L 72.66 258.705938 
L 82.66 258.705938 
" style="fill: none; stroke: #000000; stroke-width: 2.5; stroke-linecap: square"/>
    </g>
    <g id="text_18">
     <!-- Reference -->
     <g transform="translate(90.66 262.205938) scale(0.1 -0.1)">
      <defs>
       <path id="DejaVuSans-52" d="M 2841 2188 
Q 3044 2119 3236 1894 
Q 3428 1669 3622 1275 
L 4263 0 
L 3584 0 
L 2988 1197 
Q 2756 1666 2539 1819 
Q 2322 1972 1947 1972 
L 1259 1972 
L 1259 0 
L 628 0 
L 628 4666 
L 2053 4666 
Q 2853 4666 3247 4331 
Q 3641 3997 3641 3322 
Q 3641 2881 3436 2590 
Q 3231 2300 2841 2188 
z
M 1259 4147 
L 1259 2491 
L 2053 2491 
Q 2509 2491 2742 2702 
Q 2975 2913 2975 3322 
Q 2975 3731 2742 3939 
Q 2509 4147 2053 4147 
L 1259 4147 
z
" transform="scale(0.015625)"/>
       <path id="DejaVuSans-66" d="M 2375 4863 
L 2375 4384 
L 1825 4384 
Q 1516 4384 1395 4259 
Q 1275 4134 1275 3809 
L 1275 3500 
L 2222 3500 
L 2222 3053 
L 1275 3053 
L 1275 0 
L 697 0 
L 697 3053 
L 147 3053 
L 147 3500 
L 697 3500 
L 697 3744 
Q 697 4328 969 4595 
Q 1241 4863 1831 4863 
L 2375 4863 
z
" transform="scale(0.015625)"/>
       <path id="DejaVuSans-72" d="M 2631 2963 
Q 2534 3019 2420 3045 
Q 2306 3072 2169 3072 
Q 1681 3072 1420 2755 
Q 1159 2438 1159 1844 
L 1159 0 
L 581 0 
L 581 3500 
L 1159 3500 
L 1159 2956 
Q 1341 3275 1631 3429 
Q 1922 3584 2338 3584 
Q 2397 3584 2469 3576 
Q 2541 3569 2628 3553 
L 2631 2963 
z
" transform="scale(0.015625)"/>
       <path id="DejaVuSans-6e" d="M 3513 2113 
L 3513 0 
L 2938 0 
L 2938 2094 
Q 2938 2591 2744 2837 
Q 2550 3084 2163 3084 
Q 1697 3084 1428 2787 
Q 1159 2491 1159 1978 
L 1159 0 
L 581 0 
L 581 3500 
L 1159 3500 
L 1159 2956 
Q 1366 3272 1645 3428 
Q 1925 3584 2291 3584 
Q 2894 3584 3203 3211 
Q 3513 2838 3513 2113 
z
" transform="scale(0.015625)"/>
       <path id="DejaVuSans-63" d="M 3122 3366 
L 3122 2828 
Q 2878 2963 2633 3030 
Q 2388 3097 2138 3097 
Q 1578 3097 1268 2742 
Q 959 2388 959 1747 
Q 959 1106 1268 751 
Q 1578 397 2138 397 
Q 2388 397 2633 464 
Q 2878 531 3122 666 
L 3122 134 
Q 2881 22 2623 -34 
Q 2366 -91 2075 -91 
Q 1284 -91 818 406 
Q 353 903 353 1747 
Q 353 2603 823 3093 
Q 1294 3584 2113 3584 
Q 2378 3584 2631 3529 
Q 2884 3475 3122 3366 
z
" transform="scale(0.015625)"/>
      </defs>
      <use xlink:href="#DejaVuSans-52"/>
      <use xlink:href="#DejaVuSans-65" transform="translate(64.982422 0)"/>
      <use xlink:href="#DejaVuSans-66" transform="translate(126.505859 0)"/>
      <use xlink:href="#DejaVuSans-65" transform="translate(161.710938 0)"/>
      <use xlink:href="#DejaVuSans-72" transform="translate(223.234375 0)"/>
      <use xlink:href="#DejaVuSans-65" transform="translate(262.097656 0)"/>
      <use xlink:href="#DejaVuSans-6e" transform="translate(323.621094 0)"/>
      <use xlink:href="#DejaVuSans-63" transform="translate(387 0)"/>
      <use xlink:href="#DejaVuSans-65" transform="translate(441.980469 0)"/>
     </g>
    </g>
    <g id="line2d_34">
     <path d="M 62.66 273.384063 
L 72.66 273.384063 
L 82.66 273.384063 
" style="fill: none; stroke: #888888; stroke-opacity: 0.6; stroke-width: 1.2; stroke-linecap: square"/>
    </g>
    <g id="text_19">
     <!-- PID -->
     <g transform="translate(90.66 276.884063) scale(0.1 -0.1)">
      <defs>
       <path id="DejaVuSans-50" d="M 1259 4147 
L 1259 2394 
L 2053 2394 
Q 2494 2394 2734 2622 
Q 2975 2850 2975 3272 
Q 2975 3691 2734 3919 
Q 2494 4147 2053 4147 
L 1259 4147 
z
M 628 4666 
L 2053 4666 
Q 2838 4666 3239 4311 
Q 3641 3956 3641 3272 
Q 3641 2581 3239 2228 
Q 2838 1875 2053 1875 
L 1259 1875 
L 1259 0 
L 628 0 
L 628 4666 
z
" transform="scale(0.015625)"/>
       <path id="DejaVuSans-49" d="M 628 4666 
L 1259 4666 
L 1259 0 
L 628 0 
L 628 4666 
z
" transform="scale(0.015625)"/>
       <path id="DejaVuSans-44" d="M 1259 4147 
L 1259 519 
L 2022 519 
Q 2988 519 3436 956 
Q 3884 1394 3884 2338 
Q 3884 3275 3436 3711 
Q 2988 4147 2022 4147 
L 1259 4147 
z
M 628 4666 
L 1925 4666 
Q 3281 4666 3915 4102 
Q 4550 3538 4550 2338 
Q 4550 1131 3912 565 
Q 3275 0 1925 0 
L 628 0 
L 628 4666 
z
" transform="scale(0.015625)"/>
      </defs>
      <use xlink:href="#DejaVuSans-50"/>
      <use xlink:href="#DejaVuSans-49" transform="translate(60.302734 0)"/>
      <use xlink:href="#DejaVuSans-44" transform="translate(89.794922 0)"/>
     </g>
    </g>
    <g id="line2d_35">
     <path d="M 62.66 288.062187 
L 72.66 288.062187 
L 82.66 288.062187 
" style="fill: none; stroke: #2ca02c; stroke-width: 1.5; stroke-linecap: square"/>
    </g>
    <g id="text_20">
     <!-- EDMDc MPC -->
     <g transform="translate(90.66 291.562187) scale(0.1 -0.1)">
      <defs>
       <path id="DejaVuSans-45" d="M 628 4666 
L 3578 4666 
L 3578 4134 
L 1259 4134 
L 1259 2753 
L 3481 2753 
L 3481 2222 
L 1259 2222 
L 1259 531 
L 3634 531 
L 3634 0 
L 628 0 
L 628 4666 
z
" transform="scale(0.015625)"/>
       <path id="DejaVuSans-4d" d="M 628 4666 
L 1569 4666 
L 2759 1491 
L 3956 4666 
L 4897 4666 
L 4897 0 
L 4281 0 
L 4281 4097 
L 3078 897 
L 2444 897 
L 1241 4097 
L 1241 0 
L 628 0 
L 628 4666 
z
" transform="scale(0.015625)"/>
       <path id="DejaVuSans-43" d="M 4122 4306 
L 4122 3641 
Q 3803 3938 3442 4084 
Q 3081 4231 2675 4231 
Q 1875 4231 1450 3742 
Q 1025 3253 1025 2328 
Q 1025 1406 1450 917 
Q 1875 428 2675 428 
Q 3081 428 3442 575 
Q 3803 722 4122 1019 
L 4122 359 
Q 3791 134 3420 21 
Q 3050 -91 2638 -91 
Q 1578 -91 968 557 
Q 359 1206 359 2328 
Q 359 3453 968 4101 
Q 1578 4750 2638 4750 
Q 3056 4750 3426 4639 
Q 3797 4528 4122 4306 
z
" transform="scale(0.015625)"/>
      </defs>
      <use xlink:href="#DejaVuSans-45"/>
      <use xlink:href="#DejaVuSans-44" transform="translate(63.183594 0)"/>
      <use xlink:href="#DejaVuSans-4d" transform="translate(140.185547 0)"/>
      <use xlink:href="#DejaVuSans-44" transform="translate(226.464844 0)"/>
      <use xlink:href="#DejaVuSans-63" transform="translate(303.466797 0)"/>
      <use xlink:href="#DejaVuSans-20" transform="translate(358.447266 0)"/>
      <use xlink:href="#DejaVuSans-4d" transform="translate(390.234375 0)"/>
      <use xlink:href="#DejaVuSans-50" transform="translate(476.513672 0)"/>
      <use xlink:href="#DejaVuSans-43" transform="translate(536.816406 0)"/>
     </g>
    </g>
    <g id="line2d_36">
     <path d="M 62.66 302.740313 
L 72.66 302.740313 
L 82.66 302.740313 
" style="fill: none; stroke-dasharray: 4.44,1.92; stroke-dashoffset: 0; stroke: #1f77b4; stroke-width: 1.2"/>
    </g>
    <g id="text_21">
     <!-- Linear MPC -->
     <g transform="translate(90.66 306.240313) scale(0.1 -0.1)">
      <defs>
       <path id="DejaVuSans-4c" d="M 628 4666 
L 1259 4666 
L 1259 531 
L 3531 531 
L 3531 0 
L 628 0 
L 628 4666 
z
" transform="scale(0.015625)"/>
       <path id="DejaVuSans-61" d="M 2194 1759 
Q 1497 1759 1228 1600 
Q 959 1441 959 1056 
Q 959 750 1161 570 
Q 1363 391 1709 391 
Q 2188 391 2477 730 
Q 2766 1069 2766 1631 
L 2766 1759 
L 2194 1759 
z
M 3341 1997 
L 3341 0 
L 2766 0 
L 2766 531 
Q 2569 213 2275 61 
Q 1981 -91 1556 -91 
Q 1019 -91 701 211 
Q 384 513 384 1019 
Q 384 1609 779 1909 
Q 1175 2209 1959 2209 
L 2766 2209 
L 2766 2266 
Q 2766 2663 2505 2880 
Q 2244 3097 1772 3097 
Q 1472 3097 1187 3025 
Q 903 2953 641 2809 
L 641 3341 
Q 956 3463 1253 3523 
Q 1550 3584 1831 3584 
Q 2591 3584 2966 3190 
Q 3341 2797 3341 1997 
z
" transform="scale(0.015625)"/>
      </defs>
      <use xlink:href="#DejaVuSans-4c"/>
      <use xlink:href="#DejaVuSans-69" transform="translate(55.712891 0)"/>
      <use xlink:href="#DejaVuSans-6e" transform="translate(83.496094 0)"/>
      <use xlink:href="#DejaVuSans-65" transform="translate(146.875 0)"/>
      <use xlink:href="#DejaVuSans-61" transform="translate(208.398438 0)"/>
      <use xlink:href="#DejaVuSans-72" transform="translate(269.677734 0)"/>
      <use xlink:href="#DejaVuSans-20" transform="translate(310.791016 0)"/>
      <use xlink:href="#DejaVuSans-4d" transform="translate(342.578125 0)"/>
      <use xlink:href="#DejaVuSans-50" transform="translate(428.857422 0)"/>
      <use xlink:href="#DejaVuSans-43" transform="translate(489.160156 0)"/>
     </g>
    </g>
   </g>
  </g>
 </g>
 <defs>
  <clipPath id="p0c5381ddbc">
   <rect x="53.66" y="41.856" width="943.54" height="275.464"/>
  </clipPath>
 </defs>
</svg>
