<?xml version="1.0" encoding="utf-8" standalone="no"?>
<!DOCTYPE svg PUBLIC "-//W3C//DTD SVG 1.1//EN"
  "http://www.w3.org/Graphics/SVG/1.1/DTD/svg11.dtd">
<svg xmlns:xlink="http://www.w3.org/1999/xlink" width="1008pt" height="360pt" viewBox="0 0 1008 360" xmlns="http://www.w3.org/2000/svg" version="1.1">
 <metadata>
  <rdf:RDF xmlns:dc="http://purl.org/dc/elements/1.1/" xmlns:cc="http://creativecommons.org/ns#" xmlns:rdf="http://www.w3.org/1999/02/22-rdf-syntax-ns#">
   <cc:Work>
    <dc:type rdf:resource="http://purl.org/dc/dcmitype/StillImage"/>
    <dc:date>2026-03-30T18:26:27.152446</dc:date>
    <dc:format>image/svg+xml</dc:format>
    <dc:creator>
     <cc:Agent>
      <dc:title>Matplotlib v3.10.8, https://matplotlib.org/</dc:title>
     </cc:Agent>
    </dc:creator>
   </cc:Work>
  </rdf:RDF>
 </metadata>
 <defs>
  <style type="text/css">*{stroke-linejoin: round; stroke-linecap: butt}</style>
 </defs>
 <g id="figure_1">
  <g id="patch_1">
   <path d="M 0 360 
L 1008 360 
L 1008 0 
L 0 0 
z
" style="fill: #ffffff"/>
  </g>
  <g id="axes_1">
   <g id="patch_2">
    <path d="M 53.66 317.32 
L 997.2 317.32 
L 997.2 41.856 
L 53.66 41.856 
z
" style="fill: #ffffff"/>
   </g>
   <g id="line2d_1">
    <path d="M 96.548182 179.589369 
L 107.710271 149.428372 
L 113.720627 133.822643 
L 118.872361 121.069758 
L 123.165472 111.007005 
L 127.458583 101.553115 
L 130.893072 94.484988 
L 134.327561 87.900537 
L 137.76205 81.837184 
L 141.196539 76.32939 
L 143.772406 72.582084 
L 146.348273 69.176938 
L 148.92414 66.12484 
L 151.500006 63.43555 
L 154.075873 61.117665 
L 156.65174 59.178599 
L 159.227607 57.624551 
L 160.944851 56.804922 
L 162.662096 56.159813 
L 164.37934 55.690138 
L 166.096585 55.396566 
L 167.813829 55.279515 
L 169.531074 55.339149 
L 171.248318 55.575386 
L 172.965563 55.987888 
L 174.682807 56.57607 
L 176.400052 57.339095 
L 178.117296 58.27588 
L 180.693163 60.003875 
L 183.26903 62.11425 
L 185.844897 64.600256 
L 188.420763 67.453944 
L 190.99663 70.66619 
L 193.572497 74.226721 
L 196.148364 78.124154 
L 198.724231 82.346026 
L 202.15872 88.456395 
L 205.593209 95.084703 
L 209.027698 102.193279 
L 213.320809 111.692588 
L 217.61392 121.794674 
L 222.765654 134.586236 
L 228.77601 150.224728 
L 236.50361 171.042474 
L 251.100188 210.545408 
L 257.110544 226.117696 
L 262.262278 238.831348 
L 266.555389 248.85433 
L 270.8485 258.262389 
L 274.282989 265.28976 
L 277.717478 271.830068 
L 281.151967 277.84614 
L 284.586456 283.303786 
L 287.162323 287.01177 
L 289.73819 290.376267 
L 292.314057 293.386519 
L 294.889924 296.032899 
L 297.46579 298.306947 
L 300.041657 300.20139 
L 302.617524 301.710172 
L 304.334768 302.499337 
L 306.052013 303.113805 
L 307.769257 303.552702 
L 309.486502 303.815406 
L 311.203746 303.901543 
L 312.920991 303.81099 
L 314.638236 303.543875 
L 316.35548 303.10058 
L 318.072725 302.481733 
L 319.789969 301.688214 
L 321.507214 300.721152 
L 324.08308 298.948237 
L 326.658947 296.793668 
L 329.234814 294.264333 
L 331.810681 291.368321 
L 334.386547 288.114891 
L 336.962414 284.514446 
L 339.538281 280.5785 
L 342.97277 274.830581 
L 346.407259 268.541375 
L 349.841748 261.746624 
L 353.276237 254.484946 
L 357.569348 244.814339 
L 361.86246 234.564675 
L 367.014193 221.629158 
L 373.024549 205.870688 
L 381.610772 182.635567 
L 393.631483 150.110884 
L 399.641839 134.477031 
L 404.793573 121.690959 
L 409.086684 111.594466 
L 413.379795 102.10162 
L 416.814284 94.998803 
L 420.248773 88.376743 
L 423.683262 82.273075 
L 427.117751 76.722488 
L 429.693618 72.941607 
L 432.269485 69.501737 
L 434.845352 66.413876 
L 437.421218 63.687898 
L 439.997085 61.33252 
L 442.572952 59.355272 
L 445.148819 57.762478 
L 446.866063 56.916767 
L 448.583308 56.245415 
L 450.300552 55.749376 
L 452.017797 55.429356 
L 453.735041 55.28581 
L 455.452286 55.318941 
L 457.16953 55.528702 
L 458.886775 55.914796 
L 460.604019 56.476673 
L 462.321264 57.213535 
L 464.038509 58.124335 
L 466.614375 59.813768 
L 469.190242 61.886188 
L 471.766109 64.334969 
L 474.341976 67.152281 
L 476.917842 70.329114 
L 479.493709 73.855311 
L 482.069576 77.719597 
L 484.645443 81.909616 
L 488.079932 87.979701 
L 491.514421 94.570435 
L 494.94891 101.64436 
L 498.383399 109.161273 
L 502.67651 119.115062 
L 506.969621 129.605732 
L 512.121355 142.7718 
L 518.990333 161.028495 
L 541.314512 221.077346 
L 546.466245 234.038604 
L 550.759357 244.314872 
L 555.052468 254.016517 
L 558.486957 261.306033 
L 561.921446 268.131127 
L 565.355935 274.453008 
L 568.790424 280.235747 
L 571.366291 284.199099 
L 573.942158 287.827956 
L 576.518024 291.110717 
L 579.093891 294.036884 
L 581.669758 296.5971 
L 584.245625 298.78318 
L 586.821491 300.588132 
L 588.538736 301.576796 
L 590.255981 302.392075 
L 591.973225 303.032809 
L 593.69047 303.498088 
L 595.407714 303.787251 
L 597.124959 303.899886 
L 598.842203 303.835834 
L 600.559448 303.595186 
L 602.276692 303.178284 
L 603.993937 302.585719 
L 605.711181 301.818336 
L 607.428426 300.877223 
L 610.004292 299.142806 
L 612.580159 297.026112 
L 615.156026 294.53391 
L 617.731893 291.674168 
L 620.30776 288.45603 
L 622.883626 284.889787 
L 625.459493 280.986842 
L 628.03536 276.759674 
L 631.469849 270.642611 
L 634.904338 264.008061 
L 638.338827 256.893732 
L 642.631938 247.387968 
L 646.92505 237.280299 
L 652.076783 224.483256 
L 658.087139 208.84014 
L 665.814739 188.019364 
L 680.411318 148.519861 
L 686.421673 132.952406 
L 691.573407 120.244404 
L 695.866518 110.227139 
L 700.15963 100.825662 
L 703.594119 93.804137 
L 707.028608 87.27016 
L 710.463097 81.260863 
L 713.038964 77.118875 
L 715.61483 73.30454 
L 718.190697 69.830056 
L 720.766564 66.706531 
L 723.342431 63.943953 
L 725.918297 61.551157 
L 728.494164 59.535791 
L 731.070031 57.904302 
L 732.787275 57.032535 
L 734.50452 56.334962 
L 736.221764 55.812575 
L 737.939009 55.466117 
L 739.656254 55.296081 
L 741.373498 55.302707 
L 743.090743 55.485987 
L 744.807987 55.845659 
L 746.525232 56.381214 
L 748.242476 57.091889 
L 749.959721 57.976674 
L 752.535587 59.627491 
L 755.111454 61.661891 
L 757.687321 64.073369 
L 760.263188 66.854213 
L 762.839055 69.995533 
L 765.414921 73.487283 
L 767.990788 77.318298 
L 770.566655 81.47633 
L 774.001144 87.505938 
L 777.435633 94.058887 
L 780.870122 101.097934 
L 784.304611 108.583075 
L 788.597722 118.501789 
L 792.890834 128.962829 
L 798.042567 142.100895 
L 804.911545 160.333637 
L 828.094346 222.62006 
L 833.24608 235.508518 
L 837.539191 245.709723 
L 841.832302 255.323921 
L 845.266791 262.535082 
L 848.70128 269.274836 
L 852.135769 275.504877 
L 855.570258 281.189797 
L 858.146125 285.076195 
L 860.721992 288.625295 
L 863.297859 291.825747 
L 865.873726 294.66732 
L 868.449592 297.140926 
L 871.025459 299.238657 
L 873.601326 300.953805 
L 875.31857 301.881931 
L 877.035815 302.636238 
L 878.753059 303.215653 
L 880.470304 303.619354 
L 882.187548 303.846766 
L 883.904793 303.897567 
L 885.622037 303.771683 
L 887.339282 303.469294 
L 889.056527 302.99083 
L 890.773771 302.33697 
L 892.491016 301.508645 
L 894.20826 300.507031 
L 896.784127 298.682874 
L 899.359994 296.477912 
L 901.93586 293.899194 
L 904.511727 290.954965 
L 907.087594 287.654641 
L 909.663461 284.008774 
L 912.239328 280.029022 
L 915.673817 274.225452 
L 919.108306 267.884034 
L 922.542795 261.040807 
L 925.977284 253.734665 
L 930.270395 244.014501 
L 934.563506 233.72238 
L 939.71524 220.745815 
L 945.725596 204.953752 
L 954.311818 181.698385 
L 954.311818 181.698385 
" clip-path="url(#p4a6714e09e)" style="fill: none; stroke: #000000; stroke-width: 2.5; stroke-linecap: square"/>
   </g>
   <g id="matplotlib.axis_1">
    <g id="xtick_1">
     <g id="line2d_2">
      <path d="M 96.548182 317.32 
L 96.548182 41.856 
" clip-path="url(#p4a6714e09e)" style="fill: none; stroke: #b0b0b0; stroke-opacity: 0.3; stroke-width: 0.8; stroke-linecap: square"/>
     </g>
     <g id="line2d_3">
      <defs>
       <path id="mfb65b53b63" d="M 0 0 
L 0 3.5 
" style="stroke: #000000; stroke-width: 0.8"/>
      </defs>
      <g>
       <use xlink:href="#mfb65b53b63" x="96.548182" y="317.32" style="stroke: #000000; stroke-width: 0.8"/>
      </g>
     </g>
     <g id="text_1">
      <!-- 0 -->
      <g transform="translate(93.366932 331.918437) scale(0.1 -0.1)">
       <defs>
        <path id="DejaVuSans-30" d="M 2034 4250 
Q 1547 4250 1301 3770 
Q 1056 3291 1056 2328 
Q 1056 1369 1301 889 
Q 1547 409 2034 409 
Q 2525 409 2770 889 
Q 3016 1369 3016 2328 
Q 3016 3291 2770 3770 
Q 2525 4250 2034 4250 
z
M 2034 4750 
Q 2819 4750 3233 4129 
Q 3647 3509 3647 2328 
Q 3647 1150 3233 529 
Q 2819 -91 2034 -91 
Q 1250 -91 836 529 
Q 422 1150 422 2328 
Q 422 3509 836 4129 
Q 1250 4750 2034 4750 
z
" transform="scale(0.015625)"/>
       </defs>
       <use xlink:href="#DejaVuSans-30"/>
      </g>
     </g>
    </g>
    <g id="xtick_2">
     <g id="line2d_4">
      <path d="M 268.272634 317.32 
L 268.272634 41.856 
" clip-path="url(#p4a6714e09e)" style="fill: none; stroke: #b0b0b0; stroke-opacity: 0.3; stroke-width: 0.8; stroke-linecap: square"/>
     </g>
     <g id="line2d_5">
      <g>
       <use xlink:href="#mfb65b53b63" x="268.272634" y="317.32" style="stroke: #000000; stroke-width: 0.8"/>
      </g>
     </g>
     <g id="text_2">
      <!-- 20 -->
      <g transform="translate(261.910134 331.918437) scale(0.1 -0.1)">
       <defs>
        <path id="DejaVuSans-32" d="M 1228 531 
L 3431 531 
L 3431 0 
L 469 0 
L 469 531 
Q 828 903 1448 1529 
Q 2069 2156 2228 2338 
Q 2531 2678 2651 2914 
Q 2772 3150 2772 3378 
Q 2772 3750 2511 3984 
Q 2250 4219 1831 4219 
Q 1534 4219 1204 4116 
Q 875 4013 500 3803 
L 500 4441 
Q 881 4594 1212 4672 
Q 1544 4750 1819 4750 
Q 2544 4750 2975 4387 
Q 3406 4025 3406 3419 
Q 3406 3131 3298 2873 
Q 3191 2616 2906 2266 
Q 2828 2175 2409 1742 
Q 1991 1309 1228 531 
z
" transform="scale(0.015625)"/>
       </defs>
       <use xlink:href="#DejaVuSans-32"/>
       <use xlink:href="#DejaVuSans-30" transform="translate(63.623047 0)"/>
      </g>
     </g>
    </g>
    <g id="xtick_3">
     <g id="line2d_6">
      <path d="M 439.997085 317.32 
L 439.997085 41.856 
" clip-path="url(#p4a6714e09e)" style="fill: none; stroke: #b0b0b0; stroke-opacity: 0.3; stroke-width: 0.8; stroke-linecap: square"/>
     </g>
     <g id="line2d_7">
      <g>
       <use xlink:href="#mfb65b53b63" x="439.997085" y="317.32" style="stroke: #000000; stroke-width: 0.8"/>
      </g>
     </g>
     <g id="text_3">
      <!-- 40 -->
      <g transform="translate(433.634585 331.918437) scale(0.1 -0.1)">
       <defs>
        <path id="DejaVuSans-34" d="M 2419 4116 
L 825 1625 
L 2419 1625 
L 2419 4116 
z
M 2253 4666 
L 3047 4666 
L 3047 1625 
L 3713 1625 
L 3713 1100 
L 3047 1100 
L 3047 0 
L 2419 0 
L 2419 1100 
L 313 1100 
L 313 1709 
L 2253 4666 
z
" transform="scale(0.015625)"/>
       </defs>
       <use xlink:href="#DejaVuSans-34"/>
       <use xlink:href="#DejaVuSans-30" transform="translate(63.623047 0)"/>
      </g>
     </g>
    </g>
    <g id="xtick_4">
     <g id="line2d_8">
      <path d="M 611.721537 317.32 
L 611.721537 41.856 
" clip-path="url(#p4a6714e09e)" style="fill: none; stroke: #b0b0b0; stroke-opacity: 0.3; stroke-width: 0.8; stroke-linecap: square"/>
     </g>
     <g id="line2d_9">
      <g>
       <use xlink:href="#mfb65b53b63" x="611.721537" y="317.32" style="stroke: #000000; stroke-width: 0.8"/>
      </g>
     </g>
     <g id="text_4">
      <!-- 60 -->
      <g transform="translate(605.359037 331.918437) scale(0.1 -0.1)">
       <defs>
        <path id="DejaVuSans-36" d="M 2113 2584 
Q 1688 2584 1439 2293 
Q 1191 2003 1191 1497 
Q 1191 994 1439 701 
Q 1688 409 2113 409 
Q 2538 409 2786 701 
Q 3034 994 3034 1497 
Q 3034 2003 2786 2293 
Q 2538 2584 2113 2584 
z
M 3366 4563 
L 3366 3988 
Q 3128 4100 2886 4159 
Q 2644 4219 2406 4219 
Q 1781 4219 1451 3797 
Q 1122 3375 1075 2522 
Q 1259 2794 1537 2939 
Q 1816 3084 2150 3084 
Q 2853 3084 3261 2657 
Q 3669 2231 3669 1497 
Q 3669 778 3244 343 
Q 2819 -91 2113 -91 
Q 1303 -91 875 529 
Q 447 1150 447 2328 
Q 447 3434 972 4092 
Q 1497 4750 2381 4750 
Q 2619 4750 2861 4703 
Q 3103 4656 3366 4563 
z
" transform="scale(0.015625)"/>
       </defs>
       <use xlink:href="#DejaVuSans-36"/>
       <use xlink:href="#DejaVuSans-30" transform="translate(63.623047 0)"/>
      </g>
     </g>
    </g>
    <g id="xtick_5">
     <g id="line2d_10">
      <path d="M 783.445989 317.32 
L 783.445989 41.856 
" clip-path="url(#p4a6714e09e)" style="fill: none; stroke: #b0b0b0; stroke-opacity: 0.3; stroke-width: 0.8; stroke-linecap: square"/>
     </g>
     <g id="line2d_11">
      <g>
       <use xlink:href="#mfb65b53b63" x="783.445989" y="317.32" style="stroke: #000000; stroke-width: 0.8"/>
      </g>
     </g>
     <g id="text_5">
      <!-- 80 -->
      <g transform="translate(777.083489 331.918437) scale(0.1 -0.1)">
       <defs>
        <path id="DejaVuSans-38" d="M 2034 2216 
Q 1584 2216 1326 1975 
Q 1069 1734 1069 1313 
Q 1069 891 1326 650 
Q 1584 409 2034 409 
Q 2484 409 2743 651 
Q 3003 894 3003 1313 
Q 3003 1734 2745 1975 
Q 2488 2216 2034 2216 
z
M 1403 2484 
Q 997 2584 770 2862 
Q 544 3141 544 3541 
Q 544 4100 942 4425 
Q 1341 4750 2034 4750 
Q 2731 4750 3128 4425 
Q 3525 4100 3525 3541 
Q 3525 3141 3298 2862 
Q 3072 2584 2669 2484 
Q 3125 2378 3379 2068 
Q 3634 1759 3634 1313 
Q 3634 634 3220 271 
Q 2806 -91 2034 -91 
Q 1263 -91 848 271 
Q 434 634 434 1313 
Q 434 1759 690 2068 
Q 947 2378 1403 2484 
z
M 1172 3481 
Q 1172 3119 1398 2916 
Q 1625 2713 2034 2713 
Q 2441 2713 2670 2916 
Q 2900 3119 2900 3481 
Q 2900 3844 2670 4047 
Q 2441 4250 2034 4250 
Q 1625 4250 1398 4047 
Q 1172 3844 1172 3481 
z
" transform="scale(0.015625)"/>
       </defs>
       <use xlink:href="#DejaVuSans-38"/>
       <use xlink:href="#DejaVuSans-30" transform="translate(63.623047 0)"/>
      </g>
     </g>
    </g>
    <g id="xtick_6">
     <g id="line2d_12">
      <path d="M 955.17044 317.32 
L 955.17044 41.856 
" clip-path="url(#p4a6714e09e)" style="fill: none; stroke: #b0b0b0; stroke-opacity: 0.3; stroke-width: 0.8; stroke-linecap: square"/>
     </g>
     <g id="line2d_13">
      <g>
       <use xlink:href="#mfb65b53b63" x="955.17044" y="317.32" style="stroke: #000000; stroke-width: 0.8"/>
      </g>
     </g>
     <g id="text_6">
      <!-- 100 -->
      <g transform="translate(945.62669 331.918437) scale(0.1 -0.1)">
       <defs>
        <path id="DejaVuSans-31" d="M 794 531 
L 1825 531 
L 1825 4091 
L 703 3866 
L 703 4441 
L 1819 4666 
L 2450 4666 
L 2450 531 
L 3481 531 
L 3481 0 
L 794 0 
L 794 531 
z
" transform="scale(0.015625)"/>
       </defs>
       <use xlink:href="#DejaVuSans-31"/>
       <use xlink:href="#DejaVuSans-30" transform="translate(63.623047 0)"/>
       <use xlink:href="#DejaVuSans-30" transform="translate(127.246094 0)"/>
      </g>
     </g>
    </g>
    <g id="text_7">
     <!-- Time [s] -->
     <g transform="translate(503.068203 346.356406) scale(0.11 -0.11)">
      <defs>
       <path id="DejaVuSans-54" d="M -19 4666 
L 3928 4666 
L 3928 4134 
L 2272 4134 
L 2272 0 
L 1638 0 
L 1638 4134 
L -19 4134 
L -19 4666 
z
" transform="scale(0.015625)"/>
       <path id="DejaVuSans-69" d="M 603 3500 
L 1178 3500 
L 1178 0 
L 603 0 
L 603 3500 
z
M 603 4863 
L 1178 4863 
L 1178 4134 
L 603 4134 
L 603 4863 
z
" transform="scale(0.015625)"/>
       <path id="DejaVuSans-6d" d="M 3328 2828 
Q 3544 3216 3844 3400 
Q 4144 3584 4550 3584 
Q 5097 3584 5394 3201 
Q 5691 2819 5691 2113 
L 5691 0 
L 5113 0 
L 5113 2094 
Q 5113 2597 4934 2840 
Q 4756 3084 4391 3084 
Q 3944 3084 3684 2787 
Q 3425 2491 3425 1978 
L 3425 0 
L 2847 0 
L 2847 2094 
Q 2847 2600 2669 2842 
Q 2491 3084 2119 3084 
Q 1678 3084 1418 2786 
Q 1159 2488 1159 1978 
L 1159 0 
L 581 0 
L 581 3500 
L 1159 3500 
L 1159 2956 
Q 1356 3278 1631 3431 
Q 1906 3584 2284 3584 
Q 2666 3584 2933 3390 
Q 3200 3197 3328 2828 
z
" transform="scale(0.015625)"/>
       <path id="DejaVuSans-65" d="M 3597 1894 
L 3597 1613 
L 953 1613 
Q 991 1019 1311 708 
Q 1631 397 2203 397 
Q 2534 397 2845 478 
Q 3156 559 3463 722 
L 3463 178 
Q 3153 47 2828 -22 
Q 2503 -91 2169 -91 
Q 1331 -91 842 396 
Q 353 884 353 1716 
Q 353 2575 817 3079 
Q 1281 3584 2069 3584 
Q 2775 3584 3186 3129 
Q 3597 2675 3597 1894 
z
M 3022 2063 
Q 3016 2534 2758 2815 
Q 2500 3097 2075 3097 
Q 1594 3097 1305 2825 
Q 1016 2553 972 2059 
L 3022 2063 
z
" transform="scale(0.015625)"/>
       <path id="DejaVuSans-20" transform="scale(0.015625)"/>
       <path id="DejaVuSans-5b" d="M 550 4863 
L 1875 4863 
L 1875 4416 
L 1125 4416 
L 1125 -397 
L 1875 -397 
L 1875 -844 
L 550 -844 
L 550 4863 
z
" transform="scale(0.015625)"/>
       <path id="DejaVuSans-73" d="M 2834 3397 
L 2834 2853 
Q 2591 2978 2328 3040 
Q 2066 3103 1784 3103 
Q 1356 3103 1142 2972 
Q 928 2841 928 2578 
Q 928 2378 1081 2264 
Q 1234 2150 1697 2047 
L 1894 2003 
Q 2506 1872 2764 1633 
Q 3022 1394 3022 966 
Q 3022 478 2636 193 
Q 2250 -91 1575 -91 
Q 1294 -91 989 -36 
Q 684 19 347 128 
L 347 722 
Q 666 556 975 473 
Q 1284 391 1588 391 
Q 1994 391 2212 530 
Q 2431 669 2431 922 
Q 2431 1156 2273 1281 
Q 2116 1406 1581 1522 
L 1381 1569 
Q 847 1681 609 1914 
Q 372 2147 372 2553 
Q 372 3047 722 3315 
Q 1072 3584 1716 3584 
Q 2034 3584 2315 3537 
Q 2597 3491 2834 3397 
z
" transform="scale(0.015625)"/>
       <path id="DejaVuSans-5d" d="M 1947 4863 
L 1947 -844 
L 622 -844 
L 622 -397 
L 1369 -397 
L 1369 4416 
L 622 4416 
L 622 4863 
L 1947 4863 
z
" transform="scale(0.015625)"/>
      </defs>
      <use xlink:href="#DejaVuSans-54"/>
      <use xlink:href="#DejaVuSans-69" transform="translate(57.958984 0)"/>
      <use xlink:href="#DejaVuSans-6d" transform="translate(85.742188 0)"/>
      <use xlink:href="#DejaVuSans-65" transform="translate(183.154297 0)"/>
      <use xlink:href="#DejaVuSans-20" transform="translate(244.677734 0)"/>
      <use xlink:href="#DejaVuSans-5b" transform="translate(276.464844 0)"/>
      <use xlink:href="#DejaVuSans-73" transform="translate(315.478516 0)"/>
      <use xlink:href="#DejaVuSans-5d" transform="translate(367.578125 0)"/>
     </g>
    </g>
   </g>
   <g id="matplotlib.axis_2">
    <g id="ytick_1">
     <g id="line2d_14">
      <path d="M 53.66 288.437105 
L 997.2 288.437105 
" clip-path="url(#p4a6714e09e)" style="fill: none; stroke: #b0b0b0; stroke-opacity: 0.3; stroke-width: 0.8; stroke-linecap: square"/>
     </g>
     <g id="line2d_15">
      <defs>
       <path id="mfc52620366" d="M 0 0 
L -3.5 0 
" style="stroke: #000000; stroke-width: 0.8"/>
      </defs>
      <g>
       <use xlink:href="#mfc52620366" x="53.66" y="288.437105" style="stroke: #000000; stroke-width: 0.8"/>
      </g>
     </g>
     <g id="text_8">
      <!-- −20 -->
      <g transform="translate(25.555312 292.236324) scale(0.1 -0.1)">
       <defs>
        <path id="DejaVuSans-2212" d="M 678 2272 
L 4684 2272 
L 4684 1741 
L 678 1741 
L 678 2272 
z
" transform="scale(0.015625)"/>
       </defs>
       <use xlink:href="#DejaVuSans-2212"/>
       <use xlink:href="#DejaVuSans-32" transform="translate(83.789062 0)"/>
       <use xlink:href="#DejaVuSans-30" transform="translate(147.412109 0)"/>
      </g>
     </g>
    </g>
    <g id="ytick_2">
     <g id="line2d_16">
      <path d="M 53.66 234.013237 
L 997.2 234.013237 
" clip-path="url(#p4a6714e09e)" style="fill: none; stroke: #b0b0b0; stroke-opacity: 0.3; stroke-width: 0.8; stroke-linecap: square"/>
     </g>
     <g id="line2d_17">
      <g>
       <use xlink:href="#mfc52620366" x="53.66" y="234.013237" style="stroke: #000000; stroke-width: 0.8"/>
      </g>
     </g>
     <g id="text_9">
      <!-- −10 -->
      <g transform="translate(25.555312 237.812456) scale(0.1 -0.1)">
       <use xlink:href="#DejaVuSans-2212"/>
       <use xlink:href="#DejaVuSans-31" transform="translate(83.789062 0)"/>
       <use xlink:href="#DejaVuSans-30" transform="translate(147.412109 0)"/>
      </g>
     </g>
    </g>
    <g id="ytick_3">
     <g id="line2d_18">
      <path d="M 53.66 179.589369 
L 997.2 179.589369 
" clip-path="url(#p4a6714e09e)" style="fill: none; stroke: #b0b0b0; stroke-opacity: 0.3; stroke-width: 0.8; stroke-linecap: square"/>
     </g>
     <g id="line2d_19">
      <g>
       <use xlink:href="#mfc52620366" x="53.66" y="179.589369" style="stroke: #000000; stroke-width: 0.8"/>
      </g>
     </g>
     <g id="text_10">
      <!-- 0 -->
      <g transform="translate(40.2975 183.388588) scale(0.1 -0.1)">
       <use xlink:href="#DejaVuSans-30"/>
      </g>
     </g>
    </g>
    <g id="ytick_4">
     <g id="line2d_20">
      <path d="M 53.66 125.165501 
L 997.2 125.165501 
" clip-path="url(#p4a6714e09e)" style="fill: none; stroke: #b0b0b0; stroke-opacity: 0.3; stroke-width: 0.8; stroke-linecap: square"/>
     </g>
     <g id="line2d_21">
      <g>
       <use xlink:href="#mfc52620366" x="53.66" y="125.165501" style="stroke: #000000; stroke-width: 0.8"/>
      </g>
     </g>
     <g id="text_11">
      <!-- 10 -->
      <g transform="translate(33.935 128.96472) scale(0.1 -0.1)">
       <use xlink:href="#DejaVuSans-31"/>
       <use xlink:href="#DejaVuSans-30" transform="translate(63.623047 0)"/>
      </g>
     </g>
    </g>
    <g id="ytick_5">
     <g id="line2d_22">
      <path d="M 53.66 70.741633 
L 997.2 70.741633 
" clip-path="url(#p4a6714e09e)" style="fill: none; stroke: #b0b0b0; stroke-opacity: 0.3; stroke-width: 0.8; stroke-linecap: square"/>
     </g>
     <g id="line2d_23">
      <g>
       <use xlink:href="#mfc52620366" x="53.66" y="70.741633" style="stroke: #000000; stroke-width: 0.8"/>
      </g>
     </g>
     <g id="text_12">
      <!-- 20 -->
      <g transform="translate(33.935 74.540851) scale(0.1 -0.1)">
       <use xlink:href="#DejaVuSans-32"/>
       <use xlink:href="#DejaVuSans-30" transform="translate(63.623047 0)"/>
      </g>
     </g>
    </g>
    <g id="text_13">
     <!-- x [m] -->
     <g transform="translate(19.267656 194.240344) rotate(-90) scale(0.11 -0.11)">
      <defs>
       <path id="DejaVuSans-78" d="M 3513 3500 
L 2247 1797 
L 3578 0 
L 2900 0 
L 1881 1375 
L 863 0 
L 184 0 
L 1544 1831 
L 300 3500 
L 978 3500 
L 1906 2253 
L 2834 3500 
L 3513 3500 
z
" transform="scale(0.015625)"/>
      </defs>
      <use xlink:href="#DejaVuSans-78"/>
      <use xlink:href="#DejaVuSans-20" transform="translate(59.179688 0)"/>
      <use xlink:href="#DejaVuSans-5b" transform="translate(90.966797 0)"/>
      <use xlink:href="#DejaVuSans-6d" transform="translate(129.980469 0)"/>
      <use xlink:href="#DejaVuSans-5d" transform="translate(227.392578 0)"/>
     </g>
    </g>
   </g>
   <g id="line2d_24">
    <path d="M 96.548182 179.589369 
L 98.265426 179.541626 
L 99.124049 179.399472 
L 99.982671 179.113736 
L 100.841293 178.648794 
L 101.699915 177.985006 
L 102.558538 177.108194 
L 103.41716 176.007466 
L 104.275782 174.676693 
L 105.993027 171.322442 
L 107.710271 167.071586 
L 109.427516 161.981784 
L 111.14476 156.13302 
L 113.720627 146.935648 
L 117.155116 135.822047 
L 120.589605 125.587041 
L 124.024094 116.114106 
L 127.458583 107.338733 
L 130.893072 99.24094 
L 134.327561 91.7919 
L 137.76205 84.994708 
L 140.337917 80.331488 
L 142.913784 76.045945 
L 145.489651 72.140968 
L 148.065517 68.629963 
L 150.641384 65.512825 
L 153.217251 62.787269 
L 155.793118 60.458333 
L 158.368984 58.532524 
L 160.086229 57.470781 
L 161.803473 56.590611 
L 163.520718 55.890874 
L 165.237963 55.371739 
L 166.955207 55.032296 
L 168.672452 54.873214 
L 170.389696 54.899704 
L 172.106941 55.108536 
L 173.824185 55.499552 
L 175.54143 56.073701 
L 177.258674 56.826455 
L 178.975919 57.755807 
L 180.693163 58.865474 
L 183.26903 60.854846 
L 185.844897 63.230849 
L 188.420763 65.984563 
L 190.99663 69.111352 
L 193.572497 72.600498 
L 196.148364 76.437518 
L 198.724231 80.613257 
L 202.15872 86.674919 
L 205.593209 93.272711 
L 209.027698 100.374212 
L 213.320809 109.880039 
L 217.61392 120.003464 
L 221.907032 130.673498 
L 227.058765 144.050208 
L 233.927743 162.567078 
L 252.817433 214.011265 
L 258.827789 229.49423 
L 263.979522 242.077433 
L 268.272634 251.972343 
L 271.707123 259.43405 
L 275.141612 266.443434 
L 278.576101 272.960501 
L 282.01059 278.95223 
L 285.445079 284.391903 
L 288.020945 288.086547 
L 290.596812 291.434952 
L 293.172679 294.429004 
L 295.748546 297.059088 
L 298.324413 299.319301 
L 300.900279 301.192593 
L 303.476146 302.677753 
L 305.193391 303.452809 
L 306.910635 304.053357 
L 308.62788 304.478984 
L 310.345124 304.72812 
L 312.062369 304.798909 
L 313.779613 304.691524 
L 315.496858 304.406377 
L 317.214102 303.939045 
L 318.931347 303.293871 
L 320.648591 302.471714 
L 322.365836 301.475533 
L 324.941703 299.649418 
L 327.517569 297.437775 
L 330.093436 294.848783 
L 332.669303 291.893771 
L 335.24517 288.577424 
L 337.821036 284.909911 
L 340.396903 280.904074 
L 343.831392 275.056518 
L 347.265881 268.658359 
L 350.70037 261.744555 
L 354.134859 254.359285 
L 358.427971 244.530363 
L 362.721082 234.130431 
L 367.872816 220.9984 
L 373.883171 205.035889 
L 384.186638 176.917025 
L 394.490106 148.991458 
L 400.500461 133.337545 
L 405.652195 120.548647 
L 409.945306 110.465718 
L 414.238418 100.98895 
L 417.672907 93.906138 
L 421.107396 87.303113 
L 424.541885 81.218047 
L 427.976374 75.679841 
L 430.55224 71.909188 
L 433.128107 68.477782 
L 435.703974 65.400144 
L 438.279841 62.686207 
L 440.855708 60.342944 
L 443.431574 58.376922 
L 446.007441 56.793681 
L 447.724686 55.955187 
L 449.44193 55.294754 
L 451.159175 54.812062 
L 452.876419 54.50561 
L 454.593664 54.377091 
L 456.310908 54.427464 
L 458.028153 54.655894 
L 459.745397 55.061785 
L 461.462642 55.644847 
L 463.179886 56.404063 
L 464.897131 57.339251 
L 466.614375 58.450901 
L 469.190242 60.449419 
L 471.766109 62.82969 
L 474.341976 65.583224 
L 476.917842 68.704064 
L 479.493709 72.184293 
L 482.069576 76.010222 
L 484.645443 80.170813 
L 488.079932 86.210553 
L 491.514421 92.787721 
L 494.94891 99.862799 
L 498.383399 107.388417 
L 502.67651 117.384384 
L 506.969621 127.93563 
L 512.121355 141.19337 
L 518.990333 159.588677 
L 540.45589 217.726527 
L 545.607623 230.879035 
L 550.759357 243.37747 
L 555.052468 253.17151 
L 558.486957 260.544118 
L 561.921446 267.458888 
L 565.355935 273.886441 
L 568.790424 279.788757 
L 571.366291 283.849015 
L 573.942158 287.576271 
L 576.518024 290.964445 
L 579.093891 294.000894 
L 581.669758 296.6712 
L 584.245625 298.968872 
L 586.821491 300.890981 
L 589.397358 302.432047 
L 591.114603 303.242972 
L 592.831847 303.876785 
L 594.549092 304.331665 
L 596.266336 304.609145 
L 597.983581 304.706998 
L 599.700825 304.627765 
L 601.41807 304.371152 
L 603.135314 303.934083 
L 604.852559 303.319959 
L 606.569803 302.528244 
L 608.287048 301.560491 
L 610.862915 299.779756 
L 613.438782 297.618281 
L 616.014648 295.071728 
L 618.590515 292.150933 
L 621.166382 288.866821 
L 623.742249 285.228585 
L 626.318115 281.246237 
L 629.752604 275.431418 
L 633.187093 269.073086 
L 636.621582 262.208823 
L 640.056072 254.862906 
L 644.349183 245.076398 
L 648.642294 234.710866 
L 653.794028 221.616747 
L 659.804383 205.662885 
L 670.107851 177.462166 
L 680.411318 149.512813 
L 686.421673 133.844242 
L 691.573407 121.038064 
L 695.866518 110.921502 
L 700.15963 101.419568 
L 703.594119 94.306092 
L 707.028608 87.676285 
L 710.463097 81.559255 
L 713.897586 75.990962 
L 716.473453 72.195411 
L 719.049319 68.744723 
L 721.625186 65.639868 
L 724.201053 62.895358 
L 726.77692 60.519609 
L 729.352786 58.522403 
L 731.928653 56.911394 
L 733.645898 56.054153 
L 735.363142 55.373531 
L 737.080387 54.87048 
L 738.797631 54.542133 
L 740.514876 54.389214 
L 742.23212 54.41507 
L 743.949365 54.621673 
L 745.666609 55.01034 
L 747.383854 55.576493 
L 749.101098 56.31731 
L 750.818343 57.234001 
L 752.535587 58.325921 
L 755.111454 60.286793 
L 757.687321 62.631848 
L 760.263188 65.357569 
L 762.839055 68.450687 
L 765.414921 71.897117 
L 767.990788 75.688814 
L 770.566655 79.822012 
L 774.001144 85.829193 
L 777.435633 92.37351 
L 780.870122 99.41823 
L 784.304611 106.923495 
L 788.597722 116.881741 
L 792.890834 127.390882 
L 798.042567 140.607807 
L 804.052923 156.6397 
L 817.790879 194.247719 
L 825.518479 214.969201 
L 830.670213 228.248957 
L 835.821946 240.904222 
L 840.115058 250.868355 
L 844.408169 260.199061 
L 847.842658 267.152566 
L 851.277147 273.609468 
L 854.711636 279.548817 
L 857.287503 283.640474 
L 859.86337 287.401192 
L 862.439237 290.81898 
L 865.015103 293.883335 
L 867.59097 296.582881 
L 870.166837 298.910091 
L 872.742704 300.862251 
L 875.31857 302.428917 
L 877.035815 303.254655 
L 878.753059 303.903612 
L 880.470304 304.374282 
L 882.187548 304.668016 
L 883.904793 304.781795 
L 885.622037 304.717445 
L 887.339282 304.475772 
L 889.056527 304.059527 
L 890.773771 303.468219 
L 892.491016 302.701209 
L 894.20826 301.758345 
L 896.784127 300.017268 
L 899.359994 297.885659 
L 901.93586 295.370988 
L 904.511727 292.483814 
L 907.087594 289.229497 
L 909.663461 285.619587 
L 912.239328 281.670638 
L 914.815194 277.394008 
L 918.249683 271.209015 
L 921.684172 264.495245 
L 925.118661 257.293355 
L 929.411773 247.680698 
L 933.704884 237.451305 
L 938.856618 224.506231 
L 944.866973 208.689068 
L 954.311818 182.977582 
L 954.311818 182.977582 
" clip-path="url(#p4a6714e09e)" style="fill: none; stroke: #888888; stroke-opacity: 0.6; stroke-width: 1.2; stroke-linecap: square"/>
   </g>
   <g id="patch_3">
    <path d="M 53.66 317.32 
L 53.66 41.856 
" style="fill: none; stroke: #000000; stroke-width: 0.8; stroke-linejoin: miter; stroke-linecap: square"/>
   </g>
   <g id="patch_4">
    <path d="M 997.2 317.32 
L 997.2 41.856 
" style="fill: none; stroke: #000000; stroke-width: 0.8; stroke-linejoin: miter; stroke-linecap: square"/>
   </g>
   <g id="patch_5">
    <path d="M 53.66 317.32 
L 997.2 317.32 
" style="fill: none; stroke: #000000; stroke-width: 0.8; stroke-linejoin: miter; stroke-linecap: square"/>
   </g>
   <g id="patch_6">
    <path d="M 53.66 41.856 
L 997.2 41.856 
" style="fill: none; stroke: #000000; stroke-width: 0.8; stroke-linejoin: miter; stroke-linecap: square"/>
   </g>
   <g id="line2d_25">
    <path d="M 96.548182 179.589369 
L 98.265426 179.53371 
L 99.124049 179.382613 
L 99.982671 179.075674 
L 100.841293 178.57791 
L 101.699915 177.872124 
L 102.558538 176.938262 
L 103.41716 175.773782 
L 104.275782 174.376758 
L 105.993027 170.886817 
L 107.710271 166.496995 
L 109.427516 161.27355 
L 111.14476 155.299893 
L 112.862005 148.668731 
L 115.437872 137.684856 
L 118.013738 126.565356 
L 119.730983 120.228834 
L 121.448227 115.236983 
L 123.165472 111.183694 
L 130.893072 94.37535 
L 133.468939 89.386347 
L 137.76205 81.80111 
L 141.196539 76.15228 
L 143.772406 72.413198 
L 146.348273 69.098418 
L 149.782762 65.082977 
L 152.358629 62.40181 
L 154.075873 60.872811 
L 155.793118 59.561803 
L 157.510362 58.450476 
L 160.086229 57.104616 
L 162.662096 56.063668 
L 165.237963 55.316777 
L 166.955207 55.052836 
L 168.672452 55.037578 
L 170.389696 55.237644 
L 172.965563 55.82978 
L 175.54143 56.70702 
L 177.258674 57.501122 
L 178.975919 58.517606 
L 180.693163 59.745315 
L 183.26903 61.910594 
L 185.844897 64.366333 
L 188.420763 67.188104 
L 190.99663 70.450834 
L 193.572497 74.066595 
L 197.006986 79.328936 
L 199.582853 83.608132 
L 203.017342 89.841589 
L 206.451831 96.599718 
L 209.88632 103.93114 
L 214.179431 113.519941 
L 218.472543 123.730482 
L 223.624276 136.658608 
L 228.77601 150.140418 
L 239.938099 180.365167 
L 251.958811 212.834161 
L 257.110544 226.222286 
L 262.262278 238.842906 
L 266.555389 248.954917 
L 269.989878 256.516389 
L 274.282989 265.319599 
L 277.717478 271.935192 
L 280.293345 276.562899 
L 282.869212 280.809561 
L 285.445079 284.699525 
L 288.879568 289.443666 
L 291.455435 292.656071 
L 294.031301 295.459739 
L 296.607168 297.85218 
L 299.183035 299.893846 
L 300.900279 301.013155 
L 302.617524 301.913623 
L 305.193391 302.939315 
L 307.769257 303.732243 
L 309.486502 304.069219 
L 311.203746 304.16379 
L 312.920991 304.021446 
L 315.496858 303.480389 
L 318.072725 302.692582 
L 319.789969 301.969769 
L 321.507214 300.997897 
L 323.224458 299.797128 
L 325.800325 297.725379 
L 328.376192 295.423615 
L 330.093436 293.654158 
L 332.669303 290.57114 
L 336.103792 286.005877 
L 338.679659 282.26778 
L 341.255526 278.061336 
L 345.548637 270.420413 
L 348.124504 265.507689 
L 351.558993 258.371858 
L 356.710726 247.13507 
L 361.003837 237.027774 
L 365.296949 226.346409 
L 371.307305 210.729747 
L 376.459038 196.852957 
L 387.621127 166.300822 
L 393.631483 150.281614 
L 401.359084 130.134263 
L 406.510817 117.706013 
L 410.803928 107.672097 
L 414.238418 100.328678 
L 419.390151 89.890154 
L 421.966018 85.13684 
L 425.400507 79.410863 
L 428.834996 74.029234 
L 431.410863 70.469705 
L 433.986729 67.352247 
L 437.421218 63.549303 
L 439.138463 61.879374 
L 440.855708 60.45556 
L 443.431574 58.694441 
L 446.007441 57.194494 
L 447.724686 56.354006 
L 449.44193 55.732041 
L 451.159175 55.359323 
L 452.876419 55.192983 
L 455.452286 55.190555 
L 457.16953 55.331073 
L 458.886775 55.65659 
L 460.604019 56.230675 
L 462.321264 57.007355 
L 464.897131 58.443318 
L 467.472998 60.179804 
L 469.190242 61.591671 
L 471.766109 64.09912 
L 474.341976 66.979275 
L 477.776465 71.238119 
L 480.352331 74.781998 
L 482.928198 78.751729 
L 485.504065 83.120181 
L 488.938554 89.430761 
L 493.231665 97.851683 
L 496.666154 105.073107 
L 500.959266 114.798313 
L 505.252377 125.029747 
L 510.40411 138.03437 
L 515.555844 151.500526 
L 525.859311 179.45809 
L 537.0214 209.674535 
L 543.031756 225.315085 
L 548.18349 238.151569 
L 552.476601 248.176376 
L 556.769712 257.694709 
L 560.204201 264.829284 
L 563.638691 271.480342 
L 566.214557 276.025622 
L 569.649046 281.586054 
L 573.083535 286.752137 
L 575.659402 290.22548 
L 578.235269 293.252504 
L 580.811136 295.854298 
L 583.387002 298.097224 
L 585.962869 300.057161 
L 588.538736 301.719615 
L 590.255981 302.594092 
L 591.973225 303.214758 
L 593.69047 303.605173 
L 596.266336 303.922772 
L 598.842203 303.994236 
L 600.559448 303.823191 
L 602.276692 303.437198 
L 603.993937 302.840282 
L 605.711181 302.047908 
L 608.287048 300.549674 
L 610.862915 298.720333 
L 612.580159 297.251885 
L 615.156026 294.652264 
L 618.590515 290.751532 
L 621.166382 287.47072 
L 623.742249 283.771511 
L 626.318115 279.705394 
L 629.752604 273.80579 
L 633.187093 267.486476 
L 635.76296 262.340983 
L 640.056072 253.192381 
L 643.490561 245.375455 
L 648.642294 233.103177 
L 652.935405 222.242848 
L 658.945761 206.382064 
L 671.825095 171.453863 
L 678.694073 153.027814 
L 685.563051 134.964506 
L 691.573407 120.061359 
L 696.725141 108.078319 
L 700.15963 100.650839 
L 705.311363 90.28204 
L 707.88723 85.497162 
L 711.321719 79.711168 
L 714.756208 74.298202 
L 717.332075 70.709511 
L 719.907942 67.571552 
L 723.342431 63.730419 
L 725.059675 62.046095 
L 726.77692 60.601289 
L 729.352786 58.79919 
L 731.928653 57.327877 
L 734.50452 56.134287 
L 736.221764 55.53995 
L 737.939009 55.178572 
L 739.656254 55.043891 
L 741.373498 55.083107 
L 743.949365 55.404378 
L 745.666609 55.799906 
L 747.383854 56.388566 
L 749.101098 57.186063 
L 750.818343 58.180309 
L 753.39421 59.99413 
L 755.970076 62.12152 
L 757.687321 63.745901 
L 760.263188 66.578387 
L 763.697677 70.866541 
L 766.273544 74.427126 
L 768.84941 78.414878 
L 772.283899 84.287888 
L 776.577011 92.139109 
L 780.0115 99.018734 
L 783.445989 106.434369 
L 787.7391 116.243069 
L 792.890834 128.747604 
L 798.042567 141.906136 
L 804.052923 157.946647 
L 827.235724 220.495922 
L 833.24608 235.668264 
L 837.539191 245.85603 
L 841.832302 255.529471 
L 845.266791 262.722419 
L 849.559903 271.02365 
L 852.994392 277.202153 
L 855.570258 281.409174 
L 858.146125 285.25731 
L 861.580614 289.952442 
L 864.156481 293.067228 
L 866.732348 295.721822 
L 869.308215 297.989326 
L 871.884081 300.017372 
L 874.459948 301.704382 
L 876.177193 302.571326 
L 877.894437 303.226484 
L 879.611682 303.692116 
L 882.187548 304.092255 
L 883.904793 304.181053 
L 885.622037 304.071941 
L 887.339282 303.739999 
L 889.056527 303.197672 
L 891.632393 302.085851 
L 894.20826 300.742653 
L 895.925505 299.633272 
L 897.642749 298.289627 
L 899.359994 296.716131 
L 902.794483 293.172044 
L 904.511727 291.231821 
L 907.087594 287.884252 
L 911.380705 281.648006 
L 913.956572 277.515494 
L 916.532439 272.972452 
L 919.966928 266.383927 
L 924.260039 257.54127 
L 928.55315 248.218165 
L 931.987639 240.153464 
L 938.856618 223.135081 
L 946.584218 202.829122 
L 953.453196 184.393863 
L 954.311818 182.43664 
L 954.311818 182.43664 
" clip-path="url(#p4a6714e09e)" style="fill: none; stroke: #2ca02c; stroke-width: 1.5; stroke-linecap: square"/>
   </g>
   <g id="line2d_26">
    <path d="M 96.548182 179.589369 
L 98.265426 179.533628 
L 99.124049 179.381133 
L 99.982671 179.077194 
L 100.841293 178.584141 
L 101.699915 177.882813 
L 102.558538 176.966966 
L 103.41716 175.829659 
L 104.275782 174.46248 
L 105.993027 171.026996 
L 107.710271 166.685116 
L 109.427516 161.504067 
L 111.14476 155.56834 
L 112.862005 148.96616 
L 115.437872 138.0242 
L 117.155116 130.699516 
L 118.872361 124.364342 
L 120.589605 119.347443 
L 122.30685 115.20376 
L 130.893072 96.015507 
L 134.327561 89.255889 
L 137.76205 83.068944 
L 140.337917 78.796553 
L 142.913784 74.85292 
L 145.489651 71.231646 
L 148.065517 67.966117 
L 150.641384 65.046595 
L 153.217251 62.50704 
L 155.793118 60.329401 
L 158.368984 58.539348 
L 160.944851 57.131956 
L 162.662096 56.418201 
L 164.37934 55.884129 
L 166.096585 55.535558 
L 167.813829 55.371454 
L 169.531074 55.387976 
L 171.248318 55.583224 
L 172.965563 55.955852 
L 174.682807 56.508964 
L 176.400052 57.236601 
L 178.117296 58.13803 
L 179.834541 59.213548 
L 182.410408 61.151113 
L 184.986274 63.461634 
L 187.562141 66.139082 
L 190.138008 69.193618 
L 192.713875 72.593567 
L 195.289742 76.311315 
L 197.865608 80.347758 
L 200.441475 84.712162 
L 203.875964 91.013183 
L 207.310453 97.772599 
L 210.744942 104.991641 
L 215.038054 114.611945 
L 219.331165 124.809787 
L 224.482898 137.69162 
L 230.493254 153.405213 
L 239.938099 178.860226 
L 251.100188 208.951486 
L 257.110544 224.551827 
L 262.262278 237.317465 
L 266.555389 247.383876 
L 270.8485 256.88328 
L 274.282989 263.978477 
L 277.717478 270.608258 
L 281.151967 276.713519 
L 283.727834 280.9451 
L 286.303701 284.84141 
L 288.879568 288.419325 
L 291.455435 291.642243 
L 294.031301 294.51932 
L 296.607168 297.026029 
L 299.183035 299.165402 
L 301.758902 300.929918 
L 303.476146 301.88404 
L 305.193391 302.646018 
L 306.910635 303.222511 
L 308.62788 303.617464 
L 310.345124 303.831826 
L 312.062369 303.869142 
L 313.779613 303.725463 
L 315.496858 303.40204 
L 317.214102 302.905583 
L 318.931347 302.234913 
L 320.648591 301.393254 
L 322.365836 300.380793 
L 324.941703 298.53245 
L 327.517569 296.301426 
L 330.093436 293.68977 
L 332.669303 290.725338 
L 335.24517 287.437224 
L 337.821036 283.800274 
L 340.396903 279.820933 
L 343.831392 274.058422 
L 347.265881 267.75281 
L 350.70037 260.92203 
L 354.993482 251.786319 
L 359.286593 242.016098 
L 363.579704 231.67115 
L 368.731438 218.67178 
L 374.741794 202.875454 
L 385.903883 172.626218 
L 395.348728 147.285837 
L 401.359084 131.779508 
L 406.510817 119.131524 
L 410.803928 109.218375 
L 415.09704 99.89399 
L 418.531529 92.959814 
L 421.966018 86.485072 
L 425.400507 80.524241 
L 427.976374 76.439586 
L 430.55224 72.672294 
L 433.128107 69.235255 
L 435.703974 66.166862 
L 438.279841 63.461711 
L 440.855708 61.127315 
L 443.431574 59.169727 
L 445.148819 58.07773 
L 446.866063 57.168583 
L 448.583308 56.43593 
L 450.300552 55.887382 
L 452.017797 55.525139 
L 453.735041 55.338665 
L 455.452286 55.332985 
L 457.16953 55.502395 
L 458.886775 55.848391 
L 460.604019 56.376743 
L 462.321264 57.08632 
L 464.038509 57.963731 
L 466.614375 59.596555 
L 469.190242 61.613744 
L 471.766109 64.003638 
L 474.341976 66.757355 
L 476.917842 69.854276 
L 479.493709 73.297197 
L 482.069576 77.082241 
L 484.645443 81.181792 
L 488.079932 87.130769 
L 491.514421 93.596748 
L 494.94891 100.553127 
L 498.383399 107.96904 
L 502.67651 117.85184 
L 507.828244 130.382953 
L 512.979977 143.471421 
L 519.848955 161.6465 
L 542.173134 221.497617 
L 547.324868 234.418192 
L 551.617979 244.638896 
L 555.91109 254.312102 
L 559.345579 261.568433 
L 562.780068 268.371748 
L 566.214557 274.648891 
L 569.649046 280.407305 
L 572.224913 284.350344 
L 574.80078 287.969173 
L 577.376647 291.233653 
L 579.952513 294.155493 
L 582.52838 296.700733 
L 585.104247 298.872848 
L 587.680114 300.662924 
L 590.255981 302.063856 
L 591.973225 302.778376 
L 593.69047 303.309751 
L 595.407714 303.652723 
L 597.124959 303.814571 
L 598.842203 303.790438 
L 600.559448 303.585175 
L 602.276692 303.205669 
L 603.993937 302.649434 
L 605.711181 301.920113 
L 607.428426 301.01267 
L 610.004292 299.329757 
L 612.580159 297.257169 
L 615.156026 294.807625 
L 617.731893 291.998848 
L 620.30776 288.841836 
L 622.883626 285.335537 
L 625.459493 281.498927 
L 628.03536 277.355551 
L 631.469849 271.352532 
L 634.904338 264.832746 
L 638.338827 257.8357 
L 641.773316 250.38048 
L 646.066427 240.477571 
L 650.359539 230.04434 
L 655.511272 216.974827 
L 661.521628 201.102265 
L 670.966473 175.463101 
L 679.552695 152.32268 
L 685.563051 136.665846 
L 690.714785 123.804466 
L 695.007896 113.620661 
L 699.301007 104.023653 
L 702.735496 96.795328 
L 706.169985 90.033335 
L 709.604474 83.813698 
L 713.038964 78.122937 
L 715.61483 74.234576 
L 718.190697 70.670329 
L 720.766564 67.454419 
L 723.342431 64.594984 
L 725.918297 62.095623 
L 728.494164 59.973889 
L 731.070031 58.234719 
L 732.787275 57.299976 
L 734.50452 56.539865 
L 736.221764 55.964552 
L 737.939009 55.569681 
L 739.656254 55.355168 
L 741.373498 55.319719 
L 743.090743 55.465939 
L 744.807987 55.787445 
L 746.525232 56.28599 
L 748.242476 56.962033 
L 749.959721 57.816484 
L 751.676965 58.850158 
L 754.252832 60.71217 
L 756.828699 62.944686 
L 759.404565 65.55974 
L 761.980432 68.540149 
L 764.556299 71.842908 
L 767.132166 75.477191 
L 769.708033 79.446827 
L 772.283899 83.750995 
L 775.718388 89.974039 
L 779.152877 96.655658 
L 782.587366 103.804289 
L 786.880478 113.344635 
L 791.173589 123.478049 
L 796.325323 136.322154 
L 802.335678 151.974461 
L 810.063279 172.824703 
L 822.942613 207.660217 
L 828.952968 223.307026 
L 834.104702 236.088378 
L 839.256436 248.202871 
L 843.549547 257.623097 
L 846.984036 264.69204 
L 850.418525 271.26809 
L 853.853014 277.325597 
L 857.287503 282.851529 
L 859.86337 286.60098 
L 862.439237 290.014886 
L 865.015103 293.06437 
L 867.59097 295.758342 
L 870.166837 298.083422 
L 872.742704 300.033335 
L 875.31857 301.601626 
L 877.035815 302.421457 
L 878.753059 303.055897 
L 880.470304 303.506712 
L 882.187548 303.77086 
L 883.904793 303.855071 
L 885.622037 303.764547 
L 887.339282 303.496842 
L 889.056527 303.054588 
L 890.773771 302.434818 
L 892.491016 301.642902 
L 894.20826 300.67591 
L 895.925505 299.530791 
L 898.501371 297.490347 
L 901.077238 295.086369 
L 903.653105 292.320207 
L 906.228972 289.210803 
L 908.804838 285.751385 
L 911.380705 281.939945 
L 914.815194 276.362494 
L 918.249683 270.285957 
L 921.684172 263.699687 
L 925.118661 256.645893 
L 928.55315 249.119883 
L 932.846262 239.14899 
L 937.139373 228.673206 
L 942.291107 215.541566 
L 949.160085 197.32184 
L 953.453196 185.945268 
L 954.311818 184.007933 
L 954.311818 184.007933 
" clip-path="url(#p4a6714e09e)" style="fill: none; stroke-dasharray: 4.44,1.92; stroke-dashoffset: 0; stroke: #1f77b4; stroke-width: 1.2"/>
   </g>
   <g id="text_14">
    <!-- lissajous — X Position Tracking -->
    <g transform="translate(412.348281 21.197281) scale(0.13 -0.13)">
     <defs>
      <path id="DejaVuSans-Bold-6c" d="M 538 4863 
L 1656 4863 
L 1656 0 
L 538 0 
L 538 4863 
z
" transform="scale(0.015625)"/>
      <path id="DejaVuSans-Bold-69" d="M 538 3500 
L 1656 3500 
L 1656 0 
L 538 0 
L 538 3500 
z
M 538 4863 
L 1656 4863 
L 1656 3950 
L 538 3950 
L 538 4863 
z
" transform="scale(0.015625)"/>
      <path id="DejaVuSans-Bold-73" d="M 3272 3391 
L 3272 2541 
Q 2913 2691 2578 2766 
Q 2244 2841 1947 2841 
Q 1628 2841 1473 2761 
Q 1319 2681 1319 2516 
Q 1319 2381 1436 2309 
Q 1553 2238 1856 2203 
L 2053 2175 
Q 2913 2066 3209 1816 
Q 3506 1566 3506 1031 
Q 3506 472 3093 190 
Q 2681 -91 1863 -91 
Q 1516 -91 1145 -36 
Q 775 19 384 128 
L 384 978 
Q 719 816 1070 734 
Q 1422 653 1784 653 
Q 2113 653 2278 743 
Q 2444 834 2444 1013 
Q 2444 1163 2330 1236 
Q 2216 1309 1875 1350 
L 1678 1375 
Q 931 1469 631 1722 
Q 331 1975 331 2491 
Q 331 3047 712 3315 
Q 1094 3584 1881 3584 
Q 2191 3584 2531 3537 
Q 2872 3491 3272 3391 
z
" transform="scale(0.015625)"/>
      <path id="DejaVuSans-Bold-61" d="M 2106 1575 
Q 1756 1575 1579 1456 
Q 1403 1338 1403 1106 
Q 1403 894 1545 773 
Q 1688 653 1941 653 
Q 2256 653 2472 879 
Q 2688 1106 2688 1447 
L 2688 1575 
L 2106 1575 
z
M 3816 1997 
L 3816 0 
L 2688 0 
L 2688 519 
Q 2463 200 2181 54 
Q 1900 -91 1497 -91 
Q 953 -91 614 226 
Q 275 544 275 1050 
Q 275 1666 698 1953 
Q 1122 2241 2028 2241 
L 2688 2241 
L 2688 2328 
Q 2688 2594 2478 2717 
Q 2269 2841 1825 2841 
Q 1466 2841 1156 2769 
Q 847 2697 581 2553 
L 581 3406 
Q 941 3494 1303 3539 
Q 1666 3584 2028 3584 
Q 2975 3584 3395 3211 
Q 3816 2838 3816 1997 
z
" transform="scale(0.015625)"/>
      <path id="DejaVuSans-Bold-6a" d="M 538 3500 
L 1656 3500 
L 1656 63 
Q 1656 -641 1318 -1011 
Q 981 -1381 341 -1381 
L -213 -1381 
L -213 -647 
L -19 -647 
Q 300 -647 419 -503 
Q 538 -359 538 63 
L 538 3500 
z
M 538 4863 
L 1656 4863 
L 1656 3950 
L 538 3950 
L 538 4863 
z
" transform="scale(0.015625)"/>
      <path id="DejaVuSans-Bold-6f" d="M 2203 2784 
Q 1831 2784 1636 2517 
Q 1441 2250 1441 1747 
Q 1441 1244 1636 976 
Q 1831 709 2203 709 
Q 2569 709 2762 976 
Q 2956 1244 2956 1747 
Q 2956 2250 2762 2517 
Q 2569 2784 2203 2784 
z
M 2203 3584 
Q 3106 3584 3614 3096 
Q 4122 2609 4122 1747 
Q 4122 884 3614 396 
Q 3106 -91 2203 -91 
Q 1297 -91 786 396 
Q 275 884 275 1747 
Q 275 2609 786 3096 
Q 1297 3584 2203 3584 
z
" transform="scale(0.015625)"/>
      <path id="DejaVuSans-Bold-75" d="M 500 1363 
L 500 3500 
L 1625 3500 
L 1625 3150 
Q 1625 2866 1622 2436 
Q 1619 2006 1619 1863 
Q 1619 1441 1641 1255 
Q 1663 1069 1716 984 
Q 1784 875 1895 815 
Q 2006 756 2150 756 
Q 2500 756 2700 1025 
Q 2900 1294 2900 1772 
L 2900 3500 
L 4019 3500 
L 4019 0 
L 2900 0 
L 2900 506 
Q 2647 200 2364 54 
Q 2081 -91 1741 -91 
Q 1134 -91 817 281 
Q 500 653 500 1363 
z
" transform="scale(0.015625)"/>
      <path id="DejaVuSans-Bold-20" transform="scale(0.015625)"/>
      <path id="DejaVuSans-Bold-2014" d="M 344 2156 
L 6056 2156 
L 6056 1350 
L 344 1350 
L 344 2156 
z
" transform="scale(0.015625)"/>
      <path id="DejaVuSans-Bold-58" d="M 3188 2381 
L 4806 0 
L 3553 0 
L 2463 1594 
L 1381 0 
L 122 0 
L 1741 2381 
L 184 4666 
L 1441 4666 
L 2463 3163 
L 3481 4666 
L 4744 4666 
L 3188 2381 
z
" transform="scale(0.015625)"/>
      <path id="DejaVuSans-Bold-50" d="M 588 4666 
L 2584 4666 
Q 3475 4666 3951 4270 
Q 4428 3875 4428 3144 
Q 4428 2409 3951 2014 
Q 3475 1619 2584 1619 
L 1791 1619 
L 1791 0 
L 588 0 
L 588 4666 
z
M 1791 3794 
L 1791 2491 
L 2456 2491 
Q 2806 2491 2997 2661 
Q 3188 2831 3188 3144 
Q 3188 3456 2997 3625 
Q 2806 3794 2456 3794 
L 1791 3794 
z
" transform="scale(0.015625)"/>
      <path id="DejaVuSans-Bold-74" d="M 1759 4494 
L 1759 3500 
L 2913 3500 
L 2913 2700 
L 1759 2700 
L 1759 1216 
Q 1759 972 1856 886 
Q 1953 800 2241 800 
L 2816 800 
L 2816 0 
L 1856 0 
Q 1194 0 917 276 
Q 641 553 641 1216 
L 641 2700 
L 84 2700 
L 84 3500 
L 641 3500 
L 641 4494 
L 1759 4494 
z
" transform="scale(0.015625)"/>
      <path id="DejaVuSans-Bold-6e" d="M 4056 2131 
L 4056 0 
L 2931 0 
L 2931 347 
L 2931 1631 
Q 2931 2084 2911 2256 
Q 2891 2428 2841 2509 
Q 2775 2619 2662 2680 
Q 2550 2741 2406 2741 
Q 2056 2741 1856 2470 
Q 1656 2200 1656 1722 
L 1656 0 
L 538 0 
L 538 3500 
L 1656 3500 
L 1656 2988 
Q 1909 3294 2193 3439 
Q 2478 3584 2822 3584 
Q 3428 3584 3742 3212 
Q 4056 2841 4056 2131 
z
" transform="scale(0.015625)"/>
      <path id="DejaVuSans-Bold-54" d="M 31 4666 
L 4331 4666 
L 4331 3756 
L 2784 3756 
L 2784 0 
L 1581 0 
L 1581 3756 
L 31 3756 
L 31 4666 
z
" transform="scale(0.015625)"/>
      <path id="DejaVuSans-Bold-72" d="M 3138 2547 
Q 2991 2616 2845 2648 
Q 2700 2681 2553 2681 
Q 2122 2681 1889 2404 
Q 1656 2128 1656 1613 
L 1656 0 
L 538 0 
L 538 3500 
L 1656 3500 
L 1656 2925 
Q 1872 3269 2151 3426 
Q 2431 3584 2822 3584 
Q 2878 3584 2943 3579 
Q 3009 3575 3134 3559 
L 3138 2547 
z
" transform="scale(0.015625)"/>
      <path id="DejaVuSans-Bold-63" d="M 3366 3391 
L 3366 2478 
Q 3138 2634 2908 2709 
Q 2678 2784 2431 2784 
Q 1963 2784 1702 2511 
Q 1441 2238 1441 1747 
Q 1441 1256 1702 982 
Q 1963 709 2431 709 
Q 2694 709 2930 787 
Q 3166 866 3366 1019 
L 3366 103 
Q 3103 6 2833 -42 
Q 2563 -91 2291 -91 
Q 1344 -91 809 395 
Q 275 881 275 1747 
Q 275 2613 809 3098 
Q 1344 3584 2291 3584 
Q 2566 3584 2833 3536 
Q 3100 3488 3366 3391 
z
" transform="scale(0.015625)"/>
      <path id="DejaVuSans-Bold-6b" d="M 538 4863 
L 1656 4863 
L 1656 2216 
L 2944 3500 
L 4244 3500 
L 2534 1894 
L 4378 0 
L 3022 0 
L 1656 1459 
L 1656 0 
L 538 0 
L 538 4863 
z
" transform="scale(0.015625)"/>
      <path id="DejaVuSans-Bold-67" d="M 2919 594 
Q 2688 288 2409 144 
Q 2131 0 1766 0 
Q 1125 0 706 504 
Q 288 1009 288 1791 
Q 288 2575 706 3076 
Q 1125 3578 1766 3578 
Q 2131 3578 2409 3434 
Q 2688 3291 2919 2981 
L 2919 3500 
L 4044 3500 
L 4044 353 
Q 4044 -491 3511 -936 
Q 2978 -1381 1966 -1381 
Q 1638 -1381 1331 -1331 
Q 1025 -1281 716 -1178 
L 716 -306 
Q 1009 -475 1290 -558 
Q 1572 -641 1856 -641 
Q 2406 -641 2662 -400 
Q 2919 -159 2919 353 
L 2919 594 
z
M 2181 2772 
Q 1834 2772 1640 2515 
Q 1447 2259 1447 1791 
Q 1447 1309 1634 1061 
Q 1822 813 2181 813 
Q 2531 813 2725 1069 
Q 2919 1325 2919 1791 
Q 2919 2259 2725 2515 
Q 2531 2772 2181 2772 
z
" transform="scale(0.015625)"/>
     </defs>
     <use xlink:href="#DejaVuSans-Bold-6c"/>
     <use xlink:href="#DejaVuSans-Bold-69" transform="translate(34.277344 0)"/>
     <use xlink:href="#DejaVuSans-Bold-73" transform="translate(68.554688 0)"/>
     <use xlink:href="#DejaVuSans-Bold-73" transform="translate(128.076172 0)"/>
     <use xlink:href="#DejaVuSans-Bold-61" transform="translate(187.597656 0)"/>
     <use xlink:href="#DejaVuSans-Bold-6a" transform="translate(255.078125 0)"/>
     <use xlink:href="#DejaVuSans-Bold-6f" transform="translate(289.355469 0)"/>
     <use xlink:href="#DejaVuSans-Bold-75" transform="translate(358.056641 0)"/>
     <use xlink:href="#DejaVuSans-Bold-73" transform="translate(429.248047 0)"/>
     <use xlink:href="#DejaVuSans-Bold-20" transform="translate(488.769531 0)"/>
     <use xlink:href="#DejaVuSans-Bold-2014" transform="translate(523.583984 0)"/>
     <use xlink:href="#DejaVuSans-Bold-20" transform="translate(623.583984 0)"/>
     <use xlink:href="#DejaVuSans-Bold-58" transform="translate(658.398438 0)"/>
     <use xlink:href="#DejaVuSans-Bold-20" transform="translate(735.498047 0)"/>
     <use xlink:href="#DejaVuSans-Bold-50" transform="translate(770.3125 0)"/>
     <use xlink:href="#DejaVuSans-Bold-6f" transform="translate(843.603516 0)"/>
     <use xlink:href="#DejaVuSans-Bold-73" transform="translate(912.304688 0)"/>
     <use xlink:href="#DejaVuSans-Bold-69" transform="translate(971.826172 0)"/>
     <use xlink:href="#DejaVuSans-Bold-74" transform="translate(1006.103516 0)"/>
     <use xlink:href="#DejaVuSans-Bold-69" transform="translate(1053.90625 0)"/>
     <use xlink:href="#DejaVuSans-Bold-6f" transform="translate(1088.183594 0)"/>
     <use xlink:href="#DejaVuSans-Bold-6e" transform="translate(1156.884766 0)"/>
     <use xlink:href="#DejaVuSans-Bold-20" transform="translate(1228.076172 0)"/>
     <use xlink:href="#DejaVuSans-Bold-54" transform="translate(1262.890625 0)"/>
     <use xlink:href="#DejaVuSans-Bold-72" transform="translate(1320.103516 0)"/>
     <use xlink:href="#DejaVuSans-Bold-61" transform="translate(1369.419922 0)"/>
     <use xlink:href="#DejaVuSans-Bold-63" transform="translate(1436.900391 0)"/>
     <use xlink:href="#DejaVuSans-Bold-6b" transform="translate(1496.177734 0)"/>
     <use xlink:href="#DejaVuSans-Bold-69" transform="translate(1562.681641 0)"/>
     <use xlink:href="#DejaVuSans-Bold-6e" transform="translate(1596.958984 0)"/>
     <use xlink:href="#DejaVuSans-Bold-67" transform="translate(1668.150391 0)"/>
    </g>
    <!-- PID=0.2864m   EDMDc=0.2137m   Linear=0.2495m -->
    <g transform="translate(338.817031 35.856) scale(0.13 -0.13)">
     <defs>
      <path id="DejaVuSans-Bold-49" d="M 588 4666 
L 1791 4666 
L 1791 0 
L 588 0 
L 588 4666 
z
" transform="scale(0.015625)"/>
      <path id="DejaVuSans-Bold-44" d="M 1791 3756 
L 1791 909 
L 2222 909 
Q 2959 909 3348 1275 
Q 3738 1641 3738 2338 
Q 3738 3031 3350 3393 
Q 2963 3756 2222 3756 
L 1791 3756 
z
M 588 4666 
L 1856 4666 
Q 2919 4666 3439 4514 
Q 3959 4363 4331 4000 
Q 4659 3684 4818 3271 
Q 4978 2859 4978 2338 
Q 4978 1809 4818 1395 
Q 4659 981 4331 666 
Q 3956 303 3431 151 
Q 2906 0 1856 0 
L 588 0 
L 588 4666 
z
" transform="scale(0.015625)"/>
      <path id="DejaVuSans-Bold-3d" d="M 678 3084 
L 4684 3084 
L 4684 2350 
L 678 2350 
L 678 3084 
z
M 678 1663 
L 4684 1663 
L 4684 922 
L 678 922 
L 678 1663 
z
" transform="scale(0.015625)"/>
      <path id="DejaVuSans-Bold-30" d="M 2944 2338 
Q 2944 3213 2780 3570 
Q 2616 3928 2228 3928 
Q 1841 3928 1675 3570 
Q 1509 3213 1509 2338 
Q 1509 1453 1675 1090 
Q 1841 728 2228 728 
Q 2613 728 2778 1090 
Q 2944 1453 2944 2338 
z
M 4147 2328 
Q 4147 1169 3647 539 
Q 3147 -91 2228 -91 
Q 1306 -91 806 539 
Q 306 1169 306 2328 
Q 306 3491 806 4120 
Q 1306 4750 2228 4750 
Q 3147 4750 3647 4120 
Q 4147 3491 4147 2328 
z
" transform="scale(0.015625)"/>
      <path id="DejaVuSans-Bold-2e" d="M 653 1209 
L 1778 1209 
L 1778 0 
L 653 0 
L 653 1209 
z
" transform="scale(0.015625)"/>
      <path id="DejaVuSans-Bold-32" d="M 1844 884 
L 3897 884 
L 3897 0 
L 506 0 
L 506 884 
L 2209 2388 
Q 2438 2594 2547 2791 
Q 2656 2988 2656 3200 
Q 2656 3528 2436 3728 
Q 2216 3928 1850 3928 
Q 1569 3928 1234 3808 
Q 900 3688 519 3450 
L 519 4475 
Q 925 4609 1322 4679 
Q 1719 4750 2100 4750 
Q 2938 4750 3402 4381 
Q 3866 4013 3866 3353 
Q 3866 2972 3669 2642 
Q 3472 2313 2841 1759 
L 1844 884 
z
" transform="scale(0.015625)"/>
      <path id="DejaVuSans-Bold-38" d="M 2228 2088 
Q 1891 2088 1709 1903 
Q 1528 1719 1528 1375 
Q 1528 1031 1709 848 
Q 1891 666 2228 666 
Q 2563 666 2741 848 
Q 2919 1031 2919 1375 
Q 2919 1722 2741 1905 
Q 2563 2088 2228 2088 
z
M 1350 2484 
Q 925 2613 709 2878 
Q 494 3144 494 3541 
Q 494 4131 934 4440 
Q 1375 4750 2228 4750 
Q 3075 4750 3515 4442 
Q 3956 4134 3956 3541 
Q 3956 3144 3739 2878 
Q 3522 2613 3097 2484 
Q 3572 2353 3814 2058 
Q 4056 1763 4056 1313 
Q 4056 619 3595 264 
Q 3134 -91 2228 -91 
Q 1319 -91 855 264 
Q 391 619 391 1313 
Q 391 1763 633 2058 
Q 875 2353 1350 2484 
z
M 1631 3419 
Q 1631 3141 1786 2991 
Q 1941 2841 2228 2841 
Q 2509 2841 2662 2991 
Q 2816 3141 2816 3419 
Q 2816 3697 2662 3845 
Q 2509 3994 2228 3994 
Q 1941 3994 1786 3844 
Q 1631 3694 1631 3419 
z
" transform="scale(0.015625)"/>
      <path id="DejaVuSans-Bold-36" d="M 2316 2303 
Q 2000 2303 1842 2098 
Q 1684 1894 1684 1484 
Q 1684 1075 1842 870 
Q 2000 666 2316 666 
Q 2634 666 2792 870 
Q 2950 1075 2950 1484 
Q 2950 1894 2792 2098 
Q 2634 2303 2316 2303 
z
M 3803 4544 
L 3803 3681 
Q 3506 3822 3243 3889 
Q 2981 3956 2731 3956 
Q 2194 3956 1894 3657 
Q 1594 3359 1544 2772 
Q 1750 2925 1990 3001 
Q 2231 3078 2516 3078 
Q 3231 3078 3670 2659 
Q 4109 2241 4109 1563 
Q 4109 813 3618 361 
Q 3128 -91 2303 -91 
Q 1394 -91 895 523 
Q 397 1138 397 2266 
Q 397 3422 980 4083 
Q 1563 4744 2578 4744 
Q 2900 4744 3203 4694 
Q 3506 4644 3803 4544 
z
" transform="scale(0.015625)"/>
      <path id="DejaVuSans-Bold-34" d="M 2356 3675 
L 1038 1722 
L 2356 1722 
L 2356 3675 
z
M 2156 4666 
L 3494 4666 
L 3494 1722 
L 4159 1722 
L 4159 850 
L 3494 850 
L 3494 0 
L 2356 0 
L 2356 850 
L 288 850 
L 288 1881 
L 2156 4666 
z
" transform="scale(0.015625)"/>
      <path id="DejaVuSans-Bold-6d" d="M 3781 2919 
Q 3994 3244 4286 3414 
Q 4578 3584 4928 3584 
Q 5531 3584 5847 3212 
Q 6163 2841 6163 2131 
L 6163 0 
L 5038 0 
L 5038 1825 
Q 5041 1866 5042 1909 
Q 5044 1953 5044 2034 
Q 5044 2406 4934 2573 
Q 4825 2741 4581 2741 
Q 4263 2741 4089 2478 
Q 3916 2216 3909 1719 
L 3909 0 
L 2784 0 
L 2784 1825 
Q 2784 2406 2684 2573 
Q 2584 2741 2328 2741 
Q 2006 2741 1831 2477 
Q 1656 2213 1656 1722 
L 1656 0 
L 531 0 
L 531 3500 
L 1656 3500 
L 1656 2988 
Q 1863 3284 2130 3434 
Q 2397 3584 2719 3584 
Q 3081 3584 3359 3409 
Q 3638 3234 3781 2919 
z
" transform="scale(0.015625)"/>
      <path id="DejaVuSans-Bold-45" d="M 588 4666 
L 3834 4666 
L 3834 3756 
L 1791 3756 
L 1791 2888 
L 3713 2888 
L 3713 1978 
L 1791 1978 
L 1791 909 
L 3903 909 
L 3903 0 
L 588 0 
L 588 4666 
z
" transform="scale(0.015625)"/>
      <path id="DejaVuSans-Bold-4d" d="M 588 4666 
L 2119 4666 
L 3181 2169 
L 4250 4666 
L 5778 4666 
L 5778 0 
L 4641 0 
L 4641 3413 
L 3566 897 
L 2803 897 
L 1728 3413 
L 1728 0 
L 588 0 
L 588 4666 
z
" transform="scale(0.015625)"/>
      <path id="DejaVuSans-Bold-31" d="M 750 831 
L 1813 831 
L 1813 3847 
L 722 3622 
L 722 4441 
L 1806 4666 
L 2950 4666 
L 2950 831 
L 4013 831 
L 4013 0 
L 750 0 
L 750 831 
z
" transform="scale(0.015625)"/>
      <path id="DejaVuSans-Bold-33" d="M 2981 2516 
Q 3453 2394 3698 2092 
Q 3944 1791 3944 1325 
Q 3944 631 3412 270 
Q 2881 -91 1863 -91 
Q 1503 -91 1142 -33 
Q 781 25 428 141 
L 428 1069 
Q 766 900 1098 814 
Q 1431 728 1753 728 
Q 2231 728 2486 893 
Q 2741 1059 2741 1369 
Q 2741 1688 2480 1852 
Q 2219 2016 1709 2016 
L 1228 2016 
L 1228 2791 
L 1734 2791 
Q 2188 2791 2409 2933 
Q 2631 3075 2631 3366 
Q 2631 3634 2415 3781 
Q 2200 3928 1806 3928 
Q 1516 3928 1219 3862 
Q 922 3797 628 3669 
L 628 4550 
Q 984 4650 1334 4700 
Q 1684 4750 2022 4750 
Q 2931 4750 3382 4451 
Q 3834 4153 3834 3553 
Q 3834 3144 3618 2883 
Q 3403 2622 2981 2516 
z
" transform="scale(0.015625)"/>
      <path id="DejaVuSans-Bold-37" d="M 428 4666 
L 3944 4666 
L 3944 3988 
L 2125 0 
L 953 0 
L 2675 3781 
L 428 3781 
L 428 4666 
z
" transform="scale(0.015625)"/>
      <path id="DejaVuSans-Bold-4c" d="M 588 4666 
L 1791 4666 
L 1791 909 
L 3903 909 
L 3903 0 
L 588 0 
L 588 4666 
z
" transform="scale(0.015625)"/>
      <path id="DejaVuSans-Bold-65" d="M 4031 1759 
L 4031 1441 
L 1416 1441 
Q 1456 1047 1700 850 
Q 1944 653 2381 653 
Q 2734 653 3104 758 
Q 3475 863 3866 1075 
L 3866 213 
Q 3469 63 3072 -14 
Q 2675 -91 2278 -91 
Q 1328 -91 801 392 
Q 275 875 275 1747 
Q 275 2603 792 3093 
Q 1309 3584 2216 3584 
Q 3041 3584 3536 3087 
Q 4031 2591 4031 1759 
z
M 2881 2131 
Q 2881 2450 2695 2645 
Q 2509 2841 2209 2841 
Q 1884 2841 1681 2658 
Q 1478 2475 1428 2131 
L 2881 2131 
z
" transform="scale(0.015625)"/>
      <path id="DejaVuSans-Bold-39" d="M 641 103 
L 641 966 
Q 928 831 1190 764 
Q 1453 697 1709 697 
Q 2247 697 2547 995 
Q 2847 1294 2900 1881 
Q 2688 1725 2447 1647 
Q 2206 1569 1925 1569 
Q 1209 1569 770 1986 
Q 331 2403 331 3084 
Q 331 3838 820 4291 
Q 1309 4744 2131 4744 
Q 3044 4744 3544 4128 
Q 4044 3513 4044 2388 
Q 4044 1231 3459 570 
Q 2875 -91 1856 -91 
Q 1528 -91 1228 -42 
Q 928 6 641 103 
z
M 2125 2350 
Q 2441 2350 2600 2554 
Q 2759 2759 2759 3169 
Q 2759 3575 2600 3781 
Q 2441 3988 2125 3988 
Q 1809 3988 1650 3781 
Q 1491 3575 1491 3169 
Q 1491 2759 1650 2554 
Q 1809 2350 2125 2350 
z
" transform="scale(0.015625)"/>
      <path id="DejaVuSans-Bold-35" d="M 678 4666 
L 3669 4666 
L 3669 3781 
L 1638 3781 
L 1638 3059 
Q 1775 3097 1914 3117 
Q 2053 3138 2203 3138 
Q 3056 3138 3531 2711 
Q 4006 2284 4006 1522 
Q 4006 766 3489 337 
Q 2972 -91 2053 -91 
Q 1656 -91 1267 -14 
Q 878 63 494 219 
L 494 1166 
Q 875 947 1217 837 
Q 1559 728 1863 728 
Q 2300 728 2551 942 
Q 2803 1156 2803 1522 
Q 2803 1891 2551 2103 
Q 2300 2316 1863 2316 
Q 1603 2316 1309 2248 
Q 1016 2181 678 2041 
L 678 4666 
z
" transform="scale(0.015625)"/>
     </defs>
     <use xlink:href="#DejaVuSans-Bold-50"/>
     <use xlink:href="#DejaVuSans-Bold-49" transform="translate(73.291016 0)"/>
     <use xlink:href="#DejaVuSans-Bold-44" transform="translate(110.498047 0)"/>
     <use xlink:href="#DejaVuSans-Bold-3d" transform="translate(193.505859 0)"/>
     <use xlink:href="#DejaVuSans-Bold-30" transform="translate(277.294922 0)"/>
     <use xlink:href="#DejaVuSans-Bold-2e" transform="translate(346.875 0)"/>
     <use xlink:href="#DejaVuSans-Bold-32" transform="translate(384.863281 0)"/>
     <use xlink:href="#DejaVuSans-Bold-38" transform="translate(454.443359 0)"/>
     <use xlink:href="#DejaVuSans-Bold-36" transform="translate(524.023438 0)"/>
     <use xlink:href="#DejaVuSans-Bold-34" transform="translate(593.603516 0)"/>
     <use xlink:href="#DejaVuSans-Bold-6d" transform="translate(663.183594 0)"/>
     <use xlink:href="#DejaVuSans-Bold-20" transform="translate(767.382812 0)"/>
     <use xlink:href="#DejaVuSans-Bold-20" transform="translate(802.197266 0)"/>
     <use xlink:href="#DejaVuSans-Bold-20" transform="translate(837.011719 0)"/>
     <use xlink:href="#DejaVuSans-Bold-45" transform="translate(871.826172 0)"/>
     <use xlink:href="#DejaVuSans-Bold-44" transform="translate(940.136719 0)"/>
     <use xlink:href="#DejaVuSans-Bold-4d" transform="translate(1023.144531 0)"/>
     <use xlink:href="#DejaVuSans-Bold-44" transform="translate(1122.65625 0)"/>
     <use xlink:href="#DejaVuSans-Bold-63" transform="translate(1205.664062 0)"/>
     <use xlink:href="#DejaVuSans-Bold-3d" transform="translate(1264.941406 0)"/>
     <use xlink:href="#DejaVuSans-Bold-30" transform="translate(1348.730469 0)"/>
     <use xlink:href="#DejaVuSans-Bold-2e" transform="translate(1418.310547 0)"/>
     <use xlink:href="#DejaVuSans-Bold-32" transform="translate(1456.298828 0)"/>
     <use xlink:href="#DejaVuSans-Bold-31" transform="translate(1525.878906 0)"/>
     <use xlink:href="#DejaVuSans-Bold-33" transform="translate(1595.458984 0)"/>
     <use xlink:href="#DejaVuSans-Bold-37" transform="translate(1665.039062 0)"/>
     <use xlink:href="#DejaVuSans-Bold-6d" transform="translate(1734.619141 0)"/>
     <use xlink:href="#DejaVuSans-Bold-20" transform="translate(1838.818359 0)"/>
     <use xlink:href="#DejaVuSans-Bold-20" transform="translate(1873.632812 0)"/>
     <use xlink:href="#DejaVuSans-Bold-20" transform="translate(1908.447266 0)"/>
     <use xlink:href="#DejaVuSans-Bold-4c" transform="translate(1943.261719 0)"/>
     <use xlink:href="#DejaVuSans-Bold-69" transform="translate(2006.982422 0)"/>
     <use xlink:href="#DejaVuSans-Bold-6e" transform="translate(2041.259766 0)"/>
     <use xlink:href="#DejaVuSans-Bold-65" transform="translate(2112.451172 0)"/>
     <use xlink:href="#DejaVuSans-Bold-61" transform="translate(2180.273438 0)"/>
     <use xlink:href="#DejaVuSans-Bold-72" transform="translate(2247.753906 0)"/>
     <use xlink:href="#DejaVuSans-Bold-3d" transform="translate(2297.070312 0)"/>
     <use xlink:href="#DejaVuSans-Bold-30" transform="translate(2380.859375 0)"/>
     <use xlink:href="#DejaVuSans-Bold-2e" transform="translate(2450.439453 0)"/>
     <use xlink:href="#DejaVuSans-Bold-32" transform="translate(2488.427734 0)"/>
     <use xlink:href="#DejaVuSans-Bold-34" transform="translate(2558.007812 0)"/>
     <use xlink:href="#DejaVuSans-Bold-39" transform="translate(2627.587891 0)"/>
     <use xlink:href="#DejaVuSans-Bold-35" transform="translate(2697.167969 0)"/>
     <use xlink:href="#DejaVuSans-Bold-6d" transform="translate(2766.748047 0)"/>
    </g>
   </g>
   <g id="legend_1">
    <g id="patch_7">
     <path d="M 897.535938 108.5685 
L 990.2 108.5685 
Q 992.2 108.5685 992.2 106.5685 
L 992.2 48.856 
Q 992.2 46.856 990.2 46.856 
L 897.535938 46.856 
Q 895.535938 46.856 895.535938 48.856 
L 895.535938 106.5685 
Q 895.535938 108.5685 897.535938 108.5685 
z
" style="fill: #ffffff; opacity: 0.8; stroke: #cccccc; stroke-linejoin: miter"/>
    </g>
    <g id="line2d_27">
     <path d="M 899.535938 54.954438 
L 909.535938 54.954438 
L 919.535938 54.954438 
" style="fill: none; stroke: #000000; stroke-width: 2.5; stroke-linecap: square"/>
    </g>
    <g id="text_15">
     <!-- Reference -->
     <g transform="translate(927.535938 58.454438) scale(0.1 -0.1)">
      <defs>
       <path id="DejaVuSans-52" d="M 2841 2188 
Q 3044 2119 3236 1894 
Q 3428 1669 3622 1275 
L 4263 0 
L 3584 0 
L 2988 1197 
Q 2756 1666 2539 1819 
Q 2322 1972 1947 1972 
L 1259 1972 
L 1259 0 
L 628 0 
L 628 4666 
L 2053 4666 
Q 2853 4666 3247 4331 
Q 3641 3997 3641 3322 
Q 3641 2881 3436 2590 
Q 3231 2300 2841 2188 
z
M 1259 4147 
L 1259 2491 
L 2053 2491 
Q 2509 2491 2742 2702 
Q 2975 2913 2975 3322 
Q 2975 3731 2742 3939 
Q 2509 4147 2053 4147 
L 1259 4147 
z
" transform="scale(0.015625)"/>
       <path id="DejaVuSans-66" d="M 2375 4863 
L 2375 4384 
L 1825 4384 
Q 1516 4384 1395 4259 
Q 1275 4134 1275 3809 
L 1275 3500 
L 2222 3500 
L 2222 3053 
L 1275 3053 
L 1275 0 
L 697 0 
L 697 3053 
L 147 3053 
L 147 3500 
L 697 3500 
L 697 3744 
Q 697 4328 969 4595 
Q 1241 4863 1831 4863 
L 2375 4863 
z
" transform="scale(0.015625)"/>
       <path id="DejaVuSans-72" d="M 2631 2963 
Q 2534 3019 2420 3045 
Q 2306 3072 2169 3072 
Q 1681 3072 1420 2755 
Q 1159 2438 1159 1844 
L 1159 0 
L 581 0 
L 581 3500 
L 1159 3500 
L 1159 2956 
Q 1341 3275 1631 3429 
Q 1922 3584 2338 3584 
Q 2397 3584 2469 3576 
Q 2541 3569 2628 3553 
L 2631 2963 
z
" transform="scale(0.015625)"/>
       <path id="DejaVuSans-6e" d="M 3513 2113 
L 3513 0 
L 2938 0 
L 2938 2094 
Q 2938 2591 2744 2837 
Q 2550 3084 2163 3084 
Q 1697 3084 1428 2787 
Q 1159 2491 1159 1978 
L 1159 0 
L 581 0 
L 581 3500 
L 1159 3500 
L 1159 2956 
Q 1366 3272 1645 3428 
Q 1925 3584 2291 3584 
Q 2894 3584 3203 3211 
Q 3513 2838 3513 2113 
z
" transform="scale(0.015625)"/>
       <path id="DejaVuSans-63" d="M 3122 3366 
L 3122 2828 
Q 2878 2963 2633 3030 
Q 2388 3097 2138 3097 
Q 1578 3097 1268 2742 
Q 959 2388 959 1747 
Q 959 1106 1268 751 
Q 1578 397 2138 397 
Q 2388 397 2633 464 
Q 2878 531 3122 666 
L 3122 134 
Q 2881 22 2623 -34 
Q 2366 -91 2075 -91 
Q 1284 -91 818 406 
Q 353 903 353 1747 
Q 353 2603 823 3093 
Q 1294 3584 2113 3584 
Q 2378 3584 2631 3529 
Q 2884 3475 3122 3366 
z
" transform="scale(0.015625)"/>
      </defs>
      <use xlink:href="#DejaVuSans-52"/>
      <use xlink:href="#DejaVuSans-65" transform="translate(64.982422 0)"/>
      <use xlink:href="#DejaVuSans-66" transform="translate(126.505859 0)"/>
      <use xlink:href="#DejaVuSans-65" transform="translate(161.710938 0)"/>
      <use xlink:href="#DejaVuSans-72" transform="translate(223.234375 0)"/>
      <use xlink:href="#DejaVuSans-65" transform="translate(262.097656 0)"/>
      <use xlink:href="#DejaVuSans-6e" transform="translate(323.621094 0)"/>
      <use xlink:href="#DejaVuSans-63" transform="translate(387 0)"/>
      <use xlink:href="#DejaVuSans-65" transform="translate(441.980469 0)"/>
     </g>
    </g>
    <g id="line2d_28">
     <path d="M 899.535938 69.632563 
L 909.535938 69.632563 
L 919.535938 69.632563 
" style="fill: none; stroke: #888888; stroke-opacity: 0.6; stroke-width: 1.2; stroke-linecap: square"/>
    </g>
    <g id="text_16">
     <!-- PID -->
     <g transform="translate(927.535938 73.132563) scale(0.1 -0.1)">
      <defs>
       <path id="DejaVuSans-50" d="M 1259 4147 
L 1259 2394 
L 2053 2394 
Q 2494 2394 2734 2622 
Q 2975 2850 2975 3272 
Q 2975 3691 2734 3919 
Q 2494 4147 2053 4147 
L 1259 4147 
z
M 628 4666 
L 2053 4666 
Q 2838 4666 3239 4311 
Q 3641 3956 3641 3272 
Q 3641 2581 3239 2228 
Q 2838 1875 2053 1875 
L 1259 1875 
L 1259 0 
L 628 0 
L 628 4666 
z
" transform="scale(0.015625)"/>
       <path id="DejaVuSans-49" d="M 628 4666 
L 1259 4666 
L 1259 0 
L 628 0 
L 628 4666 
z
" transform="scale(0.015625)"/>
       <path id="DejaVuSans-44" d="M 1259 4147 
L 1259 519 
L 2022 519 
Q 2988 519 3436 956 
Q 3884 1394 3884 2338 
Q 3884 3275 3436 3711 
Q 2988 4147 2022 4147 
L 1259 4147 
z
M 628 4666 
L 1925 4666 
Q 3281 4666 3915 4102 
Q 4550 3538 4550 2338 
Q 4550 1131 3912 565 
Q 3275 0 1925 0 
L 628 0 
L 628 4666 
z
" transform="scale(0.015625)"/>
      </defs>
      <use xlink:href="#DejaVuSans-50"/>
      <use xlink:href="#DejaVuSans-49" transform="translate(60.302734 0)"/>
      <use xlink:href="#DejaVuSans-44" transform="translate(89.794922 0)"/>
     </g>
    </g>
    <g id="line2d_29">
     <path d="M 899.535938 84.310688 
L 909.535938 84.310688 
L 919.535938 84.310688 
" style="fill: none; stroke: #2ca02c; stroke-width: 1.5; stroke-linecap: square"/>
    </g>
    <g id="text_17">
     <!-- EDMDc MPC -->
     <g transform="translate(927.535938 87.810688) scale(0.1 -0.1)">
      <defs>
       <path id="DejaVuSans-45" d="M 628 4666 
L 3578 4666 
L 3578 4134 
L 1259 4134 
L 1259 2753 
L 3481 2753 
L 3481 2222 
L 1259 2222 
L 1259 531 
L 3634 531 
L 3634 0 
L 628 0 
L 628 4666 
z
" transform="scale(0.015625)"/>
       <path id="DejaVuSans-4d" d="M 628 4666 
L 1569 4666 
L 2759 1491 
L 3956 4666 
L 4897 4666 
L 4897 0 
L 4281 0 
L 4281 4097 
L 3078 897 
L 2444 897 
L 1241 4097 
L 1241 0 
L 628 0 
L 628 4666 
z
" transform="scale(0.015625)"/>
       <path id="DejaVuSans-43" d="M 4122 4306 
L 4122 3641 
Q 3803 3938 3442 4084 
Q 3081 4231 2675 4231 
Q 1875 4231 1450 3742 
Q 1025 3253 1025 2328 
Q 1025 1406 1450 917 
Q 1875 428 2675 428 
Q 3081 428 3442 575 
Q 3803 722 4122 1019 
L 4122 359 
Q 3791 134 3420 21 
Q 3050 -91 2638 -91 
Q 1578 -91 968 557 
Q 359 1206 359 2328 
Q 359 3453 968 4101 
Q 1578 4750 2638 4750 
Q 3056 4750 3426 4639 
Q 3797 4528 4122 4306 
z
" transform="scale(0.015625)"/>
      </defs>
      <use xlink:href="#DejaVuSans-45"/>
      <use xlink:href="#DejaVuSans-44" transform="translate(63.183594 0)"/>
      <use xlink:href="#DejaVuSans-4d" transform="translate(140.185547 0)"/>
      <use xlink:href="#DejaVuSans-44" transform="translate(226.464844 0)"/>
      <use xlink:href="#DejaVuSans-63" transform="translate(303.466797 0)"/>
      <use xlink:href="#DejaVuSans-20" transform="translate(358.447266 0)"/>
      <use xlink:href="#DejaVuSans-4d" transform="translate(390.234375 0)"/>
      <use xlink:href="#DejaVuSans-50" transform="translate(476.513672 0)"/>
      <use xlink:href="#DejaVuSans-43" transform="translate(536.816406 0)"/>
     </g>
    </g>
    <g id="line2d_30">
     <path d="M 899.535938 98.988813 
L 909.535938 98.988813 
L 919.535938 98.988813 
" style="fill: none; stroke-dasharray: 4.44,1.92; stroke-dashoffset: 0; stroke: #1f77b4; stroke-width: 1.2"/>
    </g>
    <g id="text_18">
     <!-- Linear MPC -->
     <g transform="translate(927.535938 102.488813) scale(0.1 -0.1)">
      <defs>
       <path id="DejaVuSans-4c" d="M 628 4666 
L 1259 4666 
L 1259 531 
L 3531 531 
L 3531 0 
L 628 0 
L 628 4666 
z
" transform="scale(0.015625)"/>
       <path id="DejaVuSans-61" d="M 2194 1759 
Q 1497 1759 1228 1600 
Q 959 1441 959 1056 
Q 959 750 1161 570 
Q 1363 391 1709 391 
Q 2188 391 2477 730 
Q 2766 1069 2766 1631 
L 2766 1759 
L 2194 1759 
z
M 3341 1997 
L 3341 0 
L 2766 0 
L 2766 531 
Q 2569 213 2275 61 
Q 1981 -91 1556 -91 
Q 1019 -91 701 211 
Q 384 513 384 1019 
Q 384 1609 779 1909 
Q 1175 2209 1959 2209 
L 2766 2209 
L 2766 2266 
Q 2766 2663 2505 2880 
Q 2244 3097 1772 3097 
Q 1472 3097 1187 3025 
Q 903 2953 641 2809 
L 641 3341 
Q 956 3463 1253 3523 
Q 1550 3584 1831 3584 
Q 2591 3584 2966 3190 
Q 3341 2797 3341 1997 
z
" transform="scale(0.015625)"/>
      </defs>
      <use xlink:href="#DejaVuSans-4c"/>
      <use xlink:href="#DejaVuSans-69" transform="translate(55.712891 0)"/>
      <use xlink:href="#DejaVuSans-6e" transform="translate(83.496094 0)"/>
      <use xlink:href="#DejaVuSans-65" transform="translate(146.875 0)"/>
      <use xlink:href="#DejaVuSans-61" transform="translate(208.398438 0)"/>
      <use xlink:href="#DejaVuSans-72" transform="translate(269.677734 0)"/>
      <use xlink:href="#DejaVuSans-20" transform="translate(310.791016 0)"/>
      <use xlink:href="#DejaVuSans-4d" transform="translate(342.578125 0)"/>
      <use xlink:href="#DejaVuSans-50" transform="translate(428.857422 0)"/>
      <use xlink:href="#DejaVuSans-43" transform="translate(489.160156 0)"/>
     </g>
    </g>
   </g>
  </g>
 </g>
 <defs>
  <clipPath id="p4a6714e09e">
   <rect x="53.66" y="41.856" width="943.54" height="275.464"/>
  </clipPath>
 </defs>
</svg>
