<?xml version="1.0" encoding="utf-8" standalone="no"?>
<!DOCTYPE svg PUBLIC "-//W3C//DTD SVG 1.1//EN"
  "http://www.w3.org/Graphics/SVG/1.1/DTD/svg11.dtd">
<svg xmlns:xlink="http://www.w3.org/1999/xlink" width="864pt" height="360pt" viewBox="0 0 864 360" xmlns="http://www.w3.org/2000/svg" version="1.1">
 <metadata>
  <rdf:RDF xmlns:dc="http://purl.org/dc/elements/1.1/" xmlns:cc="http://creativecommons.org/ns#" xmlns:rdf="http://www.w3.org/1999/02/22-rdf-syntax-ns#">
   <cc:Work>
    <dc:type rdf:resource="http://purl.org/dc/dcmitype/StillImage"/>
    <dc:date>2026-03-30T18:20:46.089995</dc:date>
    <dc:format>image/svg+xml</dc:format>
    <dc:creator>
     <cc:Agent>
      <dc:title>Matplotlib v3.10.8, https://matplotlib.org/</dc:title>
     </cc:Agent>
    </dc:creator>
   </cc:Work>
  </rdf:RDF>
 </metadata>
 <defs>
  <style type="text/css">*{stroke-linejoin: round; stroke-linecap: butt}</style>
 </defs>
 <g id="figure_1">
  <g id="patch_1">
   <path d="M 0 360 
L 864 360 
L 864 0 
L 0 0 
z
" style="fill: #ffffff"/>
  </g>
  <g id="axes_1">
   <g id="patch_2">
    <path d="M 48.08 318.04 
L 853.2 318.04 
L 853.2 26.88 
L 48.08 26.88 
z
" style="fill: #ffffff"/>
   </g>
   <g id="matplotlib.axis_1">
    <g id="xtick_1">
     <g id="line2d_1">
      <path d="M 84.676364 318.04 
L 84.676364 26.88 
" clip-path="url(#p548dbc2049)" style="fill: none; stroke: #b0b0b0; stroke-opacity: 0.3; stroke-width: 0.8; stroke-linecap: square"/>
     </g>
     <g id="line2d_2">
      <defs>
       <path id="mc5a652a238" d="M 0 0 
L 0 3.5 
" style="stroke: #000000; stroke-width: 0.8"/>
      </defs>
      <g>
       <use xlink:href="#mc5a652a238" x="84.676364" y="318.04" style="stroke: #000000; stroke-width: 0.8"/>
      </g>
     </g>
     <g id="text_1">
      <!-- 0 -->
      <g transform="translate(81.495114 332.638438) scale(0.1 -0.1)">
       <defs>
        <path id="DejaVuSans-30" d="M 2034 4250 
Q 1547 4250 1301 3770 
Q 1056 3291 1056 2328 
Q 1056 1369 1301 889 
Q 1547 409 2034 409 
Q 2525 409 2770 889 
Q 3016 1369 3016 2328 
Q 3016 3291 2770 3770 
Q 2525 4250 2034 4250 
z
M 2034 4750 
Q 2819 4750 3233 4129 
Q 3647 3509 3647 2328 
Q 3647 1150 3233 529 
Q 2819 -91 2034 -91 
Q 1250 -91 836 529 
Q 422 1150 422 2328 
Q 422 3509 836 4129 
Q 1250 4750 2034 4750 
z
" transform="scale(0.015625)"/>
       </defs>
       <use xlink:href="#DejaVuSans-30"/>
      </g>
     </g>
    </g>
    <g id="xtick_2">
     <g id="line2d_3">
      <path d="M 231.20835 318.04 
L 231.20835 26.88 
" clip-path="url(#p548dbc2049)" style="fill: none; stroke: #b0b0b0; stroke-opacity: 0.3; stroke-width: 0.8; stroke-linecap: square"/>
     </g>
     <g id="line2d_4">
      <g>
       <use xlink:href="#mc5a652a238" x="231.20835" y="318.04" style="stroke: #000000; stroke-width: 0.8"/>
      </g>
     </g>
     <g id="text_2">
      <!-- 20 -->
      <g transform="translate(224.84585 332.638438) scale(0.1 -0.1)">
       <defs>
        <path id="DejaVuSans-32" d="M 1228 531 
L 3431 531 
L 3431 0 
L 469 0 
L 469 531 
Q 828 903 1448 1529 
Q 2069 2156 2228 2338 
Q 2531 2678 2651 2914 
Q 2772 3150 2772 3378 
Q 2772 3750 2511 3984 
Q 2250 4219 1831 4219 
Q 1534 4219 1204 4116 
Q 875 4013 500 3803 
L 500 4441 
Q 881 4594 1212 4672 
Q 1544 4750 1819 4750 
Q 2544 4750 2975 4387 
Q 3406 4025 3406 3419 
Q 3406 3131 3298 2873 
Q 3191 2616 2906 2266 
Q 2828 2175 2409 1742 
Q 1991 1309 1228 531 
z
" transform="scale(0.015625)"/>
       </defs>
       <use xlink:href="#DejaVuSans-32"/>
       <use xlink:href="#DejaVuSans-30" transform="translate(63.623047 0)"/>
      </g>
     </g>
    </g>
    <g id="xtick_3">
     <g id="line2d_5">
      <path d="M 377.740337 318.04 
L 377.740337 26.88 
" clip-path="url(#p548dbc2049)" style="fill: none; stroke: #b0b0b0; stroke-opacity: 0.3; stroke-width: 0.8; stroke-linecap: square"/>
     </g>
     <g id="line2d_6">
      <g>
       <use xlink:href="#mc5a652a238" x="377.740337" y="318.04" style="stroke: #000000; stroke-width: 0.8"/>
      </g>
     </g>
     <g id="text_3">
      <!-- 40 -->
      <g transform="translate(371.377837 332.638438) scale(0.1 -0.1)">
       <defs>
        <path id="DejaVuSans-34" d="M 2419 4116 
L 825 1625 
L 2419 1625 
L 2419 4116 
z
M 2253 4666 
L 3047 4666 
L 3047 1625 
L 3713 1625 
L 3713 1100 
L 3047 1100 
L 3047 0 
L 2419 0 
L 2419 1100 
L 313 1100 
L 313 1709 
L 2253 4666 
z
" transform="scale(0.015625)"/>
       </defs>
       <use xlink:href="#DejaVuSans-34"/>
       <use xlink:href="#DejaVuSans-30" transform="translate(63.623047 0)"/>
      </g>
     </g>
    </g>
    <g id="xtick_4">
     <g id="line2d_7">
      <path d="M 524.272323 318.04 
L 524.272323 26.88 
" clip-path="url(#p548dbc2049)" style="fill: none; stroke: #b0b0b0; stroke-opacity: 0.3; stroke-width: 0.8; stroke-linecap: square"/>
     </g>
     <g id="line2d_8">
      <g>
       <use xlink:href="#mc5a652a238" x="524.272323" y="318.04" style="stroke: #000000; stroke-width: 0.8"/>
      </g>
     </g>
     <g id="text_4">
      <!-- 60 -->
      <g transform="translate(517.909823 332.638438) scale(0.1 -0.1)">
       <defs>
        <path id="DejaVuSans-36" d="M 2113 2584 
Q 1688 2584 1439 2293 
Q 1191 2003 1191 1497 
Q 1191 994 1439 701 
Q 1688 409 2113 409 
Q 2538 409 2786 701 
Q 3034 994 3034 1497 
Q 3034 2003 2786 2293 
Q 2538 2584 2113 2584 
z
M 3366 4563 
L 3366 3988 
Q 3128 4100 2886 4159 
Q 2644 4219 2406 4219 
Q 1781 4219 1451 3797 
Q 1122 3375 1075 2522 
Q 1259 2794 1537 2939 
Q 1816 3084 2150 3084 
Q 2853 3084 3261 2657 
Q 3669 2231 3669 1497 
Q 3669 778 3244 343 
Q 2819 -91 2113 -91 
Q 1303 -91 875 529 
Q 447 1150 447 2328 
Q 447 3434 972 4092 
Q 1497 4750 2381 4750 
Q 2619 4750 2861 4703 
Q 3103 4656 3366 4563 
z
" transform="scale(0.015625)"/>
       </defs>
       <use xlink:href="#DejaVuSans-36"/>
       <use xlink:href="#DejaVuSans-30" transform="translate(63.623047 0)"/>
      </g>
     </g>
    </g>
    <g id="xtick_5">
     <g id="line2d_9">
      <path d="M 670.80431 318.04 
L 670.80431 26.88 
" clip-path="url(#p548dbc2049)" style="fill: none; stroke: #b0b0b0; stroke-opacity: 0.3; stroke-width: 0.8; stroke-linecap: square"/>
     </g>
     <g id="line2d_10">
      <g>
       <use xlink:href="#mc5a652a238" x="670.80431" y="318.04" style="stroke: #000000; stroke-width: 0.8"/>
      </g>
     </g>
     <g id="text_5">
      <!-- 80 -->
      <g transform="translate(664.44181 332.638438) scale(0.1 -0.1)">
       <defs>
        <path id="DejaVuSans-38" d="M 2034 2216 
Q 1584 2216 1326 1975 
Q 1069 1734 1069 1313 
Q 1069 891 1326 650 
Q 1584 409 2034 409 
Q 2484 409 2743 651 
Q 3003 894 3003 1313 
Q 3003 1734 2745 1975 
Q 2488 2216 2034 2216 
z
M 1403 2484 
Q 997 2584 770 2862 
Q 544 3141 544 3541 
Q 544 4100 942 4425 
Q 1341 4750 2034 4750 
Q 2731 4750 3128 4425 
Q 3525 4100 3525 3541 
Q 3525 3141 3298 2862 
Q 3072 2584 2669 2484 
Q 3125 2378 3379 2068 
Q 3634 1759 3634 1313 
Q 3634 634 3220 271 
Q 2806 -91 2034 -91 
Q 1263 -91 848 271 
Q 434 634 434 1313 
Q 434 1759 690 2068 
Q 947 2378 1403 2484 
z
M 1172 3481 
Q 1172 3119 1398 2916 
Q 1625 2713 2034 2713 
Q 2441 2713 2670 2916 
Q 2900 3119 2900 3481 
Q 2900 3844 2670 4047 
Q 2441 4250 2034 4250 
Q 1625 4250 1398 4047 
Q 1172 3844 1172 3481 
z
" transform="scale(0.015625)"/>
       </defs>
       <use xlink:href="#DejaVuSans-38"/>
       <use xlink:href="#DejaVuSans-30" transform="translate(63.623047 0)"/>
      </g>
     </g>
    </g>
    <g id="xtick_6">
     <g id="line2d_11">
      <path d="M 817.336296 318.04 
L 817.336296 26.88 
" clip-path="url(#p548dbc2049)" style="fill: none; stroke: #b0b0b0; stroke-opacity: 0.3; stroke-width: 0.8; stroke-linecap: square"/>
     </g>
     <g id="line2d_12">
      <g>
       <use xlink:href="#mc5a652a238" x="817.336296" y="318.04" style="stroke: #000000; stroke-width: 0.8"/>
      </g>
     </g>
     <g id="text_6">
      <!-- 100 -->
      <g transform="translate(807.792546 332.638438) scale(0.1 -0.1)">
       <defs>
        <path id="DejaVuSans-31" d="M 794 531 
L 1825 531 
L 1825 4091 
L 703 3866 
L 703 4441 
L 1819 4666 
L 2450 4666 
L 2450 531 
L 3481 531 
L 3481 0 
L 794 0 
L 794 531 
z
" transform="scale(0.015625)"/>
       </defs>
       <use xlink:href="#DejaVuSans-31"/>
       <use xlink:href="#DejaVuSans-30" transform="translate(63.623047 0)"/>
       <use xlink:href="#DejaVuSans-30" transform="translate(127.246094 0)"/>
      </g>
     </g>
    </g>
    <g id="text_7">
     <!-- t [s] -->
     <g transform="translate(440.584531 346.316563) scale(0.1 -0.1)">
      <defs>
       <path id="DejaVuSans-74" d="M 1172 4494 
L 1172 3500 
L 2356 3500 
L 2356 3053 
L 1172 3053 
L 1172 1153 
Q 1172 725 1289 603 
Q 1406 481 1766 481 
L 2356 481 
L 2356 0 
L 1766 0 
Q 1100 0 847 248 
Q 594 497 594 1153 
L 594 3053 
L 172 3053 
L 172 3500 
L 594 3500 
L 594 4494 
L 1172 4494 
z
" transform="scale(0.015625)"/>
       <path id="DejaVuSans-20" transform="scale(0.015625)"/>
       <path id="DejaVuSans-5b" d="M 550 4863 
L 1875 4863 
L 1875 4416 
L 1125 4416 
L 1125 -397 
L 1875 -397 
L 1875 -844 
L 550 -844 
L 550 4863 
z
" transform="scale(0.015625)"/>
       <path id="DejaVuSans-73" d="M 2834 3397 
L 2834 2853 
Q 2591 2978 2328 3040 
Q 2066 3103 1784 3103 
Q 1356 3103 1142 2972 
Q 928 2841 928 2578 
Q 928 2378 1081 2264 
Q 1234 2150 1697 2047 
L 1894 2003 
Q 2506 1872 2764 1633 
Q 3022 1394 3022 966 
Q 3022 478 2636 193 
Q 2250 -91 1575 -91 
Q 1294 -91 989 -36 
Q 684 19 347 128 
L 347 722 
Q 666 556 975 473 
Q 1284 391 1588 391 
Q 1994 391 2212 530 
Q 2431 669 2431 922 
Q 2431 1156 2273 1281 
Q 2116 1406 1581 1522 
L 1381 1569 
Q 847 1681 609 1914 
Q 372 2147 372 2553 
Q 372 3047 722 3315 
Q 1072 3584 1716 3584 
Q 2034 3584 2315 3537 
Q 2597 3491 2834 3397 
z
" transform="scale(0.015625)"/>
       <path id="DejaVuSans-5d" d="M 1947 4863 
L 1947 -844 
L 622 -844 
L 622 -397 
L 1369 -397 
L 1369 4416 
L 622 4416 
L 622 4863 
L 1947 4863 
z
" transform="scale(0.015625)"/>
      </defs>
      <use xlink:href="#DejaVuSans-74"/>
      <use xlink:href="#DejaVuSans-20" transform="translate(39.208984 0)"/>
      <use xlink:href="#DejaVuSans-5b" transform="translate(70.996094 0)"/>
      <use xlink:href="#DejaVuSans-73" transform="translate(110.009766 0)"/>
      <use xlink:href="#DejaVuSans-5d" transform="translate(162.109375 0)"/>
     </g>
    </g>
   </g>
   <g id="matplotlib.axis_2">
    <g id="ytick_1">
     <g id="line2d_13">
      <path d="M 48.08 304.805455 
L 853.2 304.805455 
" clip-path="url(#p548dbc2049)" style="fill: none; stroke: #b0b0b0; stroke-opacity: 0.3; stroke-width: 0.8; stroke-linecap: square"/>
     </g>
     <g id="line2d_14">
      <defs>
       <path id="m0faf80a0ee" d="M 0 0 
L -3.5 0 
" style="stroke: #000000; stroke-width: 0.8"/>
      </defs>
      <g>
       <use xlink:href="#m0faf80a0ee" x="48.08" y="304.805455" style="stroke: #000000; stroke-width: 0.8"/>
      </g>
     </g>
     <g id="text_8">
      <!-- 0.0 -->
      <g transform="translate(25.176875 308.604673) scale(0.1 -0.1)">
       <defs>
        <path id="DejaVuSans-2e" d="M 684 794 
L 1344 794 
L 1344 0 
L 684 0 
L 684 794 
z
" transform="scale(0.015625)"/>
       </defs>
       <use xlink:href="#DejaVuSans-30"/>
       <use xlink:href="#DejaVuSans-2e" transform="translate(63.623047 0)"/>
       <use xlink:href="#DejaVuSans-30" transform="translate(95.410156 0)"/>
      </g>
     </g>
    </g>
    <g id="ytick_2">
     <g id="line2d_15">
      <path d="M 48.08 264.028445 
L 853.2 264.028445 
" clip-path="url(#p548dbc2049)" style="fill: none; stroke: #b0b0b0; stroke-opacity: 0.3; stroke-width: 0.8; stroke-linecap: square"/>
     </g>
     <g id="line2d_16">
      <g>
       <use xlink:href="#m0faf80a0ee" x="48.08" y="264.028445" style="stroke: #000000; stroke-width: 0.8"/>
      </g>
     </g>
     <g id="text_9">
      <!-- 0.5 -->
      <g transform="translate(25.176875 267.827663) scale(0.1 -0.1)">
       <defs>
        <path id="DejaVuSans-35" d="M 691 4666 
L 3169 4666 
L 3169 4134 
L 1269 4134 
L 1269 2991 
Q 1406 3038 1543 3061 
Q 1681 3084 1819 3084 
Q 2600 3084 3056 2656 
Q 3513 2228 3513 1497 
Q 3513 744 3044 326 
Q 2575 -91 1722 -91 
Q 1428 -91 1123 -41 
Q 819 9 494 109 
L 494 744 
Q 775 591 1075 516 
Q 1375 441 1709 441 
Q 2250 441 2565 725 
Q 2881 1009 2881 1497 
Q 2881 1984 2565 2268 
Q 2250 2553 1709 2553 
Q 1456 2553 1204 2497 
Q 953 2441 691 2322 
L 691 4666 
z
" transform="scale(0.015625)"/>
       </defs>
       <use xlink:href="#DejaVuSans-30"/>
       <use xlink:href="#DejaVuSans-2e" transform="translate(63.623047 0)"/>
       <use xlink:href="#DejaVuSans-35" transform="translate(95.410156 0)"/>
      </g>
     </g>
    </g>
    <g id="ytick_3">
     <g id="line2d_17">
      <path d="M 48.08 223.251435 
L 853.2 223.251435 
" clip-path="url(#p548dbc2049)" style="fill: none; stroke: #b0b0b0; stroke-opacity: 0.3; stroke-width: 0.8; stroke-linecap: square"/>
     </g>
     <g id="line2d_18">
      <g>
       <use xlink:href="#m0faf80a0ee" x="48.08" y="223.251435" style="stroke: #000000; stroke-width: 0.8"/>
      </g>
     </g>
     <g id="text_10">
      <!-- 1.0 -->
      <g transform="translate(25.176875 227.050654) scale(0.1 -0.1)">
       <use xlink:href="#DejaVuSans-31"/>
       <use xlink:href="#DejaVuSans-2e" transform="translate(63.623047 0)"/>
       <use xlink:href="#DejaVuSans-30" transform="translate(95.410156 0)"/>
      </g>
     </g>
    </g>
    <g id="ytick_4">
     <g id="line2d_19">
      <path d="M 48.08 182.474425 
L 853.2 182.474425 
" clip-path="url(#p548dbc2049)" style="fill: none; stroke: #b0b0b0; stroke-opacity: 0.3; stroke-width: 0.8; stroke-linecap: square"/>
     </g>
     <g id="line2d_20">
      <g>
       <use xlink:href="#m0faf80a0ee" x="48.08" y="182.474425" style="stroke: #000000; stroke-width: 0.8"/>
      </g>
     </g>
     <g id="text_11">
      <!-- 1.5 -->
      <g transform="translate(25.176875 186.273644) scale(0.1 -0.1)">
       <use xlink:href="#DejaVuSans-31"/>
       <use xlink:href="#DejaVuSans-2e" transform="translate(63.623047 0)"/>
       <use xlink:href="#DejaVuSans-35" transform="translate(95.410156 0)"/>
      </g>
     </g>
    </g>
    <g id="ytick_5">
     <g id="line2d_21">
      <path d="M 48.08 141.697415 
L 853.2 141.697415 
" clip-path="url(#p548dbc2049)" style="fill: none; stroke: #b0b0b0; stroke-opacity: 0.3; stroke-width: 0.8; stroke-linecap: square"/>
     </g>
     <g id="line2d_22">
      <g>
       <use xlink:href="#m0faf80a0ee" x="48.08" y="141.697415" style="stroke: #000000; stroke-width: 0.8"/>
      </g>
     </g>
     <g id="text_12">
      <!-- 2.0 -->
      <g transform="translate(25.176875 145.496634) scale(0.1 -0.1)">
       <use xlink:href="#DejaVuSans-32"/>
       <use xlink:href="#DejaVuSans-2e" transform="translate(63.623047 0)"/>
       <use xlink:href="#DejaVuSans-30" transform="translate(95.410156 0)"/>
      </g>
     </g>
    </g>
    <g id="ytick_6">
     <g id="line2d_23">
      <path d="M 48.08 100.920405 
L 853.2 100.920405 
" clip-path="url(#p548dbc2049)" style="fill: none; stroke: #b0b0b0; stroke-opacity: 0.3; stroke-width: 0.8; stroke-linecap: square"/>
     </g>
     <g id="line2d_24">
      <g>
       <use xlink:href="#m0faf80a0ee" x="48.08" y="100.920405" style="stroke: #000000; stroke-width: 0.8"/>
      </g>
     </g>
     <g id="text_13">
      <!-- 2.5 -->
      <g transform="translate(25.176875 104.719624) scale(0.1 -0.1)">
       <use xlink:href="#DejaVuSans-32"/>
       <use xlink:href="#DejaVuSans-2e" transform="translate(63.623047 0)"/>
       <use xlink:href="#DejaVuSans-35" transform="translate(95.410156 0)"/>
      </g>
     </g>
    </g>
    <g id="ytick_7">
     <g id="line2d_25">
      <path d="M 48.08 60.143395 
L 853.2 60.143395 
" clip-path="url(#p548dbc2049)" style="fill: none; stroke: #b0b0b0; stroke-opacity: 0.3; stroke-width: 0.8; stroke-linecap: square"/>
     </g>
     <g id="line2d_26">
      <g>
       <use xlink:href="#m0faf80a0ee" x="48.08" y="60.143395" style="stroke: #000000; stroke-width: 0.8"/>
      </g>
     </g>
     <g id="text_14">
      <!-- 3.0 -->
      <g transform="translate(25.176875 63.942614) scale(0.1 -0.1)">
       <defs>
        <path id="DejaVuSans-33" d="M 2597 2516 
Q 3050 2419 3304 2112 
Q 3559 1806 3559 1356 
Q 3559 666 3084 287 
Q 2609 -91 1734 -91 
Q 1441 -91 1130 -33 
Q 819 25 488 141 
L 488 750 
Q 750 597 1062 519 
Q 1375 441 1716 441 
Q 2309 441 2620 675 
Q 2931 909 2931 1356 
Q 2931 1769 2642 2001 
Q 2353 2234 1838 2234 
L 1294 2234 
L 1294 2753 
L 1863 2753 
Q 2328 2753 2575 2939 
Q 2822 3125 2822 3475 
Q 2822 3834 2567 4026 
Q 2313 4219 1838 4219 
Q 1578 4219 1281 4162 
Q 984 4106 628 3988 
L 628 4550 
Q 988 4650 1302 4700 
Q 1616 4750 1894 4750 
Q 2613 4750 3031 4423 
Q 3450 4097 3450 3541 
Q 3450 3153 3228 2886 
Q 3006 2619 2597 2516 
z
" transform="scale(0.015625)"/>
       </defs>
       <use xlink:href="#DejaVuSans-33"/>
       <use xlink:href="#DejaVuSans-2e" transform="translate(63.623047 0)"/>
       <use xlink:href="#DejaVuSans-30" transform="translate(95.410156 0)"/>
      </g>
     </g>
    </g>
    <g id="text_15">
     <!-- ||pos error|| [m] -->
     <g transform="translate(18.819062 212.088125) rotate(-90) scale(0.1 -0.1)">
      <defs>
       <path id="DejaVuSans-7c" d="M 1344 4891 
L 1344 -1509 
L 813 -1509 
L 813 4891 
L 1344 4891 
z
" transform="scale(0.015625)"/>
       <path id="DejaVuSans-70" d="M 1159 525 
L 1159 -1331 
L 581 -1331 
L 581 3500 
L 1159 3500 
L 1159 2969 
Q 1341 3281 1617 3432 
Q 1894 3584 2278 3584 
Q 2916 3584 3314 3078 
Q 3713 2572 3713 1747 
Q 3713 922 3314 415 
Q 2916 -91 2278 -91 
Q 1894 -91 1617 61 
Q 1341 213 1159 525 
z
M 3116 1747 
Q 3116 2381 2855 2742 
Q 2594 3103 2138 3103 
Q 1681 3103 1420 2742 
Q 1159 2381 1159 1747 
Q 1159 1113 1420 752 
Q 1681 391 2138 391 
Q 2594 391 2855 752 
Q 3116 1113 3116 1747 
z
" transform="scale(0.015625)"/>
       <path id="DejaVuSans-6f" d="M 1959 3097 
Q 1497 3097 1228 2736 
Q 959 2375 959 1747 
Q 959 1119 1226 758 
Q 1494 397 1959 397 
Q 2419 397 2687 759 
Q 2956 1122 2956 1747 
Q 2956 2369 2687 2733 
Q 2419 3097 1959 3097 
z
M 1959 3584 
Q 2709 3584 3137 3096 
Q 3566 2609 3566 1747 
Q 3566 888 3137 398 
Q 2709 -91 1959 -91 
Q 1206 -91 779 398 
Q 353 888 353 1747 
Q 353 2609 779 3096 
Q 1206 3584 1959 3584 
z
" transform="scale(0.015625)"/>
       <path id="DejaVuSans-65" d="M 3597 1894 
L 3597 1613 
L 953 1613 
Q 991 1019 1311 708 
Q 1631 397 2203 397 
Q 2534 397 2845 478 
Q 3156 559 3463 722 
L 3463 178 
Q 3153 47 2828 -22 
Q 2503 -91 2169 -91 
Q 1331 -91 842 396 
Q 353 884 353 1716 
Q 353 2575 817 3079 
Q 1281 3584 2069 3584 
Q 2775 3584 3186 3129 
Q 3597 2675 3597 1894 
z
M 3022 2063 
Q 3016 2534 2758 2815 
Q 2500 3097 2075 3097 
Q 1594 3097 1305 2825 
Q 1016 2553 972 2059 
L 3022 2063 
z
" transform="scale(0.015625)"/>
       <path id="DejaVuSans-72" d="M 2631 2963 
Q 2534 3019 2420 3045 
Q 2306 3072 2169 3072 
Q 1681 3072 1420 2755 
Q 1159 2438 1159 1844 
L 1159 0 
L 581 0 
L 581 3500 
L 1159 3500 
L 1159 2956 
Q 1341 3275 1631 3429 
Q 1922 3584 2338 3584 
Q 2397 3584 2469 3576 
Q 2541 3569 2628 3553 
L 2631 2963 
z
" transform="scale(0.015625)"/>
       <path id="DejaVuSans-6d" d="M 3328 2828 
Q 3544 3216 3844 3400 
Q 4144 3584 4550 3584 
Q 5097 3584 5394 3201 
Q 5691 2819 5691 2113 
L 5691 0 
L 5113 0 
L 5113 2094 
Q 5113 2597 4934 2840 
Q 4756 3084 4391 3084 
Q 3944 3084 3684 2787 
Q 3425 2491 3425 1978 
L 3425 0 
L 2847 0 
L 2847 2094 
Q 2847 2600 2669 2842 
Q 2491 3084 2119 3084 
Q 1678 3084 1418 2786 
Q 1159 2488 1159 1978 
L 1159 0 
L 581 0 
L 581 3500 
L 1159 3500 
L 1159 2956 
Q 1356 3278 1631 3431 
Q 1906 3584 2284 3584 
Q 2666 3584 2933 3390 
Q 3200 3197 3328 2828 
z
" transform="scale(0.015625)"/>
      </defs>
      <use xlink:href="#DejaVuSans-7c"/>
      <use xlink:href="#DejaVuSans-7c" transform="translate(33.691406 0)"/>
      <use xlink:href="#DejaVuSans-70" transform="translate(67.382812 0)"/>
      <use xlink:href="#DejaVuSans-6f" transform="translate(130.859375 0)"/>
      <use xlink:href="#DejaVuSans-73" transform="translate(192.041016 0)"/>
      <use xlink:href="#DejaVuSans-20" transform="translate(244.140625 0)"/>
      <use xlink:href="#DejaVuSans-65" transform="translate(275.927734 0)"/>
      <use xlink:href="#DejaVuSans-72" transform="translate(337.451172 0)"/>
      <use xlink:href="#DejaVuSans-72" transform="translate(376.814453 0)"/>
      <use xlink:href="#DejaVuSans-6f" transform="translate(415.677734 0)"/>
      <use xlink:href="#DejaVuSans-72" transform="translate(476.859375 0)"/>
      <use xlink:href="#DejaVuSans-7c" transform="translate(517.972656 0)"/>
      <use xlink:href="#DejaVuSans-7c" transform="translate(551.664062 0)"/>
      <use xlink:href="#DejaVuSans-20" transform="translate(585.355469 0)"/>
      <use xlink:href="#DejaVuSans-5b" transform="translate(617.142578 0)"/>
      <use xlink:href="#DejaVuSans-6d" transform="translate(656.15625 0)"/>
      <use xlink:href="#DejaVuSans-5d" transform="translate(753.568359 0)"/>
     </g>
    </g>
   </g>
   <g id="line2d_27">
    <path d="M 84.676364 304.805455 
L 86.874343 201.554646 
L 88.339663 143.024766 
L 89.804983 96.487492 
L 90.537643 78.256275 
L 91.270303 63.558313 
L 92.002963 52.432408 
L 92.735623 44.860885 
L 93.468283 40.783553 
L 94.200943 40.114545 
L 94.933603 42.749562 
L 95.666263 48.558367 
L 96.398923 57.401029 
L 97.131582 69.091161 
L 99.329562 107.963503 
L 100.794882 128.317123 
L 102.260202 146.10318 
L 103.725522 161.770114 
L 105.190842 175.678554 
L 106.656162 188.05382 
L 108.854141 204.262451 
L 111.052121 218.101324 
L 113.250101 229.91507 
L 115.448081 240.237601 
L 117.646061 249.264316 
L 119.84404 257.220762 
L 122.04202 264.220301 
L 124.24 270.379111 
L 126.43798 275.814439 
L 127.9033 279.00436 
L 130.101279 283.188343 
L 132.299259 286.731639 
L 133.764579 288.741103 
L 135.229899 290.441762 
L 136.695219 291.762776 
L 138.160539 292.744433 
L 139.625859 293.347949 
L 141.091178 293.500025 
L 142.556498 293.273622 
L 144.021818 292.716347 
L 145.487138 291.859338 
L 148.417778 289.82582 
L 158.675017 282.037635 
L 163.070976 279.322804 
L 165.268956 278.238071 
L 168.932256 276.752472 
L 171.130236 276.152358 
L 174.793535 275.524888 
L 176.991515 275.258561 
L 179.922155 275.189649 
L 185.050774 275.473159 
L 187.248754 275.771739 
L 189.446734 276.229867 
L 192.377374 277.177924 
L 195.308013 278.275775 
L 198.238653 279.580994 
L 202.634613 281.695461 
L 208.495892 284.594764 
L 217.287811 288.014347 
L 223.881751 290.430935 
L 228.27771 292.184187 
L 233.40633 294.659525 
L 242.930909 299.289661 
L 245.128889 300.149924 
L 246.594209 300.52542 
L 248.059529 300.660509 
L 249.524848 300.538944 
L 250.990168 300.152322 
L 252.455488 299.51612 
L 254.653468 298.256931 
L 257.584108 296.314145 
L 261.980067 293.21119 
L 271.504646 286.218884 
L 275.900606 283.394812 
L 278.831246 281.631319 
L 281.761886 280.042146 
L 287.623165 277.32119 
L 289.821145 276.488997 
L 292.751785 275.592761 
L 295.682424 274.985948 
L 298.613064 274.612062 
L 302.276364 274.46332 
L 304.474343 274.575105 
L 309.602963 275.315446 
L 312.533603 275.912123 
L 315.464242 276.750367 
L 323.523502 279.161773 
L 333.048081 281.841449 
L 340.37468 284.175797 
L 344.03798 285.787963 
L 349.899259 288.578676 
L 359.423838 293.519001 
L 366.750438 297.57445 
L 368.948418 298.586203 
L 371.146397 299.348187 
L 372.611717 299.665161 
L 374.077037 299.790236 
L 375.542357 299.723007 
L 377.007677 299.420567 
L 378.472997 298.913098 
L 379.938316 298.212453 
L 382.136296 296.825805 
L 398.254815 285.678405 
L 401.185455 283.987439 
L 405.581414 281.909045 
L 408.512054 280.699768 
L 410.710034 279.930869 
L 414.373333 278.950755 
L 418.036633 278.234217 
L 420.967273 277.905203 
L 424.630572 277.817299 
L 427.561212 277.880937 
L 431.224512 278.39915 
L 434.887811 279.169044 
L 439.283771 280.325932 
L 448.07569 282.920214 
L 453.20431 284.073104 
L 457.600269 284.842763 
L 463.461549 285.748741 
L 466.392189 286.409566 
L 471.520808 287.720514 
L 480.312727 289.973151 
L 486.906667 291.849977 
L 491.302626 293.149191 
L 493.500606 293.537533 
L 495.698586 293.644833 
L 499.361886 293.417761 
L 501.559865 293.002893 
L 503.757845 292.380674 
L 505.955825 291.450385 
L 508.886465 289.882896 
L 521.341684 283.041299 
L 526.470303 280.747488 
L 530.133603 279.381222 
L 533.064242 278.579038 
L 535.994882 278.053936 
L 538.925522 277.711353 
L 542.588822 277.547185 
L 546.252121 277.503876 
L 548.450101 277.686313 
L 552.846061 278.437218 
L 555.7767 279.072895 
L 558.70734 280.002212 
L 562.37064 281.492852 
L 565.301279 282.880327 
L 571.895219 286.156307 
L 574.093199 286.943135 
L 584.350438 290.119684 
L 593.875017 293.439275 
L 603.399596 297.322541 
L 607.795556 298.921321 
L 609.993535 299.532675 
L 611.458855 299.757013 
L 613.656835 299.835666 
L 615.122155 299.653015 
L 616.587475 299.302086 
L 618.052795 298.815434 
L 620.250774 297.787901 
L 623.914074 295.65689 
L 627.577374 293.238636 
L 640.032593 285.10687 
L 643.695892 283.020695 
L 648.824512 280.458811 
L 651.755152 279.292038 
L 656.151111 277.895932 
L 658.349091 277.324596 
L 661.279731 276.811591 
L 664.94303 276.454745 
L 667.87367 276.438455 
L 671.53697 276.743557 
L 679.596229 278.205396 
L 683.259529 279.085756 
L 686.922828 280.092099 
L 689.853468 281.129423 
L 693.516768 282.518223 
L 711.100606 288.01215 
L 714.763906 289.478992 
L 729.417104 296.18843 
L 736.743704 300.057279 
L 738.209024 300.486872 
L 739.674343 300.635434 
L 741.139663 300.472673 
L 742.604983 300.072985 
L 744.070303 299.450959 
L 746.268283 298.188456 
L 750.664242 295.263602 
L 755.792862 291.919911 
L 766.050101 285.588732 
L 768.980741 284.010031 
L 772.64404 282.379596 
L 774.84202 281.573019 
L 777.77266 280.721444 
L 782.901279 279.69006 
L 785.831919 279.269421 
L 788.762559 279.112113 
L 793.158519 279.240363 
L 796.821818 279.551359 
L 801.950438 280.573788 
L 808.544377 282.439022 
L 812.207677 283.761579 
L 814.405657 284.311727 
L 816.603636 284.654314 
L 816.603636 284.654314 
" clip-path="url(#p548dbc2049)" style="fill: none; stroke: #888888; stroke-opacity: 0.6; stroke-linecap: square"/>
   </g>
   <g id="line2d_28">
    <path d="M 84.676364 304.805455 
L 86.874343 201.846873 
L 88.339663 144.283827 
L 89.804983 99.394233 
L 90.537643 82.107189 
L 91.270303 68.379093 
L 92.002963 58.237226 
L 92.735623 51.686306 
L 93.468283 48.645979 
L 94.200943 49.019975 
L 94.933603 52.676535 
L 95.666263 59.484285 
L 96.398923 69.287532 
L 97.131582 81.925141 
L 97.864242 97.227647 
L 99.329562 135.215519 
L 100.794882 182.015686 
L 102.260202 231.463537 
L 102.992862 253.57255 
L 103.725522 272.244779 
L 104.458182 286.484469 
L 105.190842 295.675588 
L 105.923502 300.18233 
L 106.656162 301.751492 
L 107.388822 301.879187 
L 108.854141 300.601204 
L 109.586801 300.67876 
L 110.319461 301.368671 
L 112.517441 304.543132 
L 113.982761 302.8951 
L 114.715421 302.382055 
L 115.448081 302.223169 
L 116.180741 302.383032 
L 118.378721 303.228612 
L 119.84404 303.671717 
L 120.5767 303.556117 
L 122.77468 302.14485 
L 123.50734 301.967639 
L 124.24 302.01868 
L 124.97266 302.270745 
L 126.43798 303.070036 
L 127.17064 303.288608 
L 127.9033 303.227762 
L 129.36862 302.76303 
L 130.833939 301.996339 
L 132.299259 301.13132 
L 133.031919 300.887047 
L 133.764579 300.814431 
L 135.229899 301.079059 
L 136.695219 301.706343 
L 139.625859 303.495101 
L 140.358519 303.595593 
L 141.091178 303.360876 
L 142.556498 302.372078 
L 144.021818 301.124361 
L 144.754478 300.7069 
L 145.487138 300.558205 
L 146.219798 300.684741 
L 146.952458 301.021084 
L 149.150438 302.317514 
L 149.883098 302.417996 
L 150.615758 302.226561 
L 152.081077 301.33875 
L 153.546397 300.5223 
L 154.279057 300.377608 
L 155.744377 300.522729 
L 157.209697 300.987975 
L 158.675017 301.625153 
L 159.407677 301.754986 
L 160.140337 301.638877 
L 161.605657 300.920232 
L 162.338316 300.74082 
L 163.070976 300.768814 
L 164.536296 301.254277 
L 166.001616 301.82391 
L 169.664916 302.339431 
L 170.397576 302.223015 
L 171.862896 301.682943 
L 173.328215 301.568121 
L 174.793535 301.50309 
L 176.991515 300.989222 
L 177.724175 301.007759 
L 178.456835 301.197912 
L 179.189495 301.557218 
L 181.387475 303.121958 
L 182.120135 303.298497 
L 182.852795 303.194479 
L 185.050774 302.435675 
L 187.981414 302.024395 
L 188.714074 302.017786 
L 189.446734 302.15331 
L 191.644714 303.048105 
L 192.377374 303.085422 
L 194.575354 302.839571 
L 196.773333 302.870462 
L 197.505993 303.107153 
L 198.971313 303.860112 
L 199.703973 304.01565 
L 201.901953 303.580159 
L 203.367273 303.384801 
L 204.099933 303.534212 
L 205.565253 304.08937 
L 206.297912 304.147527 
L 208.495892 303.49305 
L 209.228552 303.56823 
L 211.426532 304.10291 
L 212.891852 304.117179 
L 214.357172 304.349852 
L 215.089832 304.520779 
L 215.822492 304.476824 
L 217.287811 303.589941 
L 219.485791 302.148907 
L 220.218451 301.813609 
L 220.951111 301.654274 
L 221.683771 301.69463 
L 222.416431 301.928139 
L 223.881751 302.829509 
L 225.347071 303.854624 
L 226.079731 304.183713 
L 226.812391 304.249705 
L 227.545051 304.000953 
L 229.01037 302.962723 
L 230.47569 301.934691 
L 231.20835 301.60907 
L 231.94101 301.433866 
L 232.67367 301.399348 
L 234.13899 301.676785 
L 235.60431 302.28572 
L 237.06963 303.000463 
L 237.80229 303.129584 
L 238.534949 302.979836 
L 239.267609 302.579455 
L 242.198249 300.368354 
L 242.930909 300.046761 
L 243.663569 299.892104 
L 244.396229 299.895965 
L 245.861549 300.292608 
L 248.059529 301.314252 
L 248.792189 301.39451 
L 249.524848 301.149974 
L 250.990168 300.109379 
L 252.455488 299.026805 
L 253.188148 298.749493 
L 253.920808 298.767071 
L 256.118788 299.619603 
L 256.851448 299.652231 
L 258.316768 299.3338 
L 260.514747 298.853021 
L 261.980067 298.912264 
L 262.712727 299.09785 
L 264.178047 299.707679 
L 264.910707 299.863518 
L 265.643367 299.801357 
L 267.841347 299.377889 
L 269.306667 299.125862 
L 271.504646 298.403324 
L 272.969966 298.306252 
L 275.900606 298.626746 
L 277.365926 299.023105 
L 278.098586 299.063729 
L 278.831246 298.900499 
L 281.761886 297.500427 
L 282.494545 297.343736 
L 283.227205 297.388673 
L 283.959865 297.627667 
L 285.425185 298.470825 
L 286.157845 298.919898 
L 286.890505 299.157977 
L 287.623165 299.064035 
L 288.355825 298.620857 
L 290.553805 296.594115 
L 291.286465 296.25777 
L 292.019125 296.245009 
L 292.751785 296.564432 
L 295.682424 298.900427 
L 296.415084 298.96636 
L 297.147744 298.774614 
L 300.811044 297.200047 
L 301.543704 297.107364 
L 302.276364 297.136396 
L 305.939663 297.852589 
L 308.137643 297.737199 
L 309.602963 297.46781 
L 311.068283 296.887184 
L 312.533603 296.227506 
L 313.266263 296.07558 
L 313.998923 296.108729 
L 314.731582 296.339482 
L 317.662222 297.985195 
L 318.394882 298.18144 
L 319.127542 298.218894 
L 319.860202 298.08592 
L 322.790842 297.149505 
L 323.523502 297.303812 
L 324.256162 297.680573 
L 327.186801 299.703021 
L 327.919461 299.836161 
L 328.652121 299.741909 
L 330.117441 299.181397 
L 331.582761 298.50031 
L 332.315421 298.430822 
L 333.048081 298.640494 
L 335.978721 300.089301 
L 336.71138 300.179306 
L 338.1767 300.056589 
L 340.37468 299.715551 
L 342.57266 298.862629 
L 343.30532 298.939118 
L 344.03798 299.258676 
L 345.5033 300.291922 
L 346.23596 300.636861 
L 346.96862 300.693072 
L 347.701279 300.467453 
L 349.899259 299.243483 
L 350.631919 298.999908 
L 351.364579 298.911525 
L 352.097239 299.006093 
L 352.829899 299.337537 
L 355.760539 301.302462 
L 356.493199 301.345016 
L 357.225859 301.159222 
L 357.958519 300.793525 
L 359.423838 299.776347 
L 360.156498 299.536974 
L 360.889158 299.614928 
L 361.621818 299.955386 
L 363.819798 301.584028 
L 364.552458 301.765859 
L 365.285118 301.578063 
L 366.017778 301.140636 
L 367.483098 300.003834 
L 368.215758 299.713192 
L 368.948418 299.745835 
L 369.681077 300.090931 
L 371.879057 301.863632 
L 372.611717 302.091299 
L 373.344377 301.936842 
L 374.077037 301.479713 
L 375.542357 300.135583 
L 376.275017 299.693313 
L 377.007677 299.612876 
L 377.740337 299.908928 
L 379.205657 301.133746 
L 379.938316 301.766297 
L 380.670976 302.144467 
L 381.403636 302.14413 
L 382.136296 301.770916 
L 383.601616 300.362322 
L 384.334276 299.663463 
L 385.066936 299.216472 
L 385.799596 299.154232 
L 386.532256 299.474135 
L 387.997576 300.758655 
L 388.730236 301.484347 
L 389.462896 302.020271 
L 390.195556 302.223136 
L 390.928215 302.041788 
L 391.660875 301.515631 
L 393.858855 299.471698 
L 394.591515 299.286072 
L 395.324175 299.459816 
L 396.789495 300.463037 
L 397.522155 300.984353 
L 398.254815 301.307926 
L 398.987475 301.339452 
L 399.720135 301.100066 
L 401.918114 299.8293 
L 402.650774 299.578521 
L 403.383434 299.465745 
L 404.116094 299.572683 
L 404.848754 299.921676 
L 407.046734 301.449642 
L 407.779394 301.753884 
L 408.512054 301.831647 
L 409.244714 301.641611 
L 410.710034 300.722572 
L 412.175354 299.850619 
L 412.908013 299.643329 
L 413.640673 299.608115 
L 414.373333 299.728432 
L 415.838653 300.31736 
L 419.501953 302.349681 
L 420.234613 302.571374 
L 420.967273 302.610348 
L 421.699933 302.431958 
L 422.432593 302.00955 
L 424.630572 299.979698 
L 425.363232 299.707868 
L 426.095892 299.742481 
L 429.026532 300.635986 
L 429.759192 300.69383 
L 430.491852 300.607061 
L 431.957172 300.059083 
L 433.422492 299.50476 
L 434.155152 299.396992 
L 434.887811 299.477578 
L 437.085791 300.183597 
L 437.818451 300.242949 
L 439.283771 299.975707 
L 441.481751 299.429777 
L 442.214411 299.385639 
L 442.947071 299.578211 
L 443.679731 300.00188 
L 445.87771 301.64474 
L 446.61037 301.856124 
L 447.34303 301.808417 
L 448.80835 301.37624 
L 451.00633 300.575339 
L 451.73899 300.430886 
L 452.47165 300.411125 
L 453.93697 300.76314 
L 456.134949 301.525378 
L 457.600269 301.499123 
L 458.332929 301.466747 
L 459.798249 301.713215 
L 461.996229 302.122923 
L 462.728889 302.106552 
L 464.926869 301.675588 
L 465.659529 301.795634 
L 466.392189 302.167989 
L 467.857508 303.234433 
L 468.590168 303.558371 
L 470.055488 303.637972 
L 471.520808 303.562401 
L 472.986128 303.068529 
L 474.451448 302.670998 
L 475.184108 302.69712 
L 475.916768 302.890768 
L 477.382088 303.67316 
L 478.114747 304.078992 
L 478.847407 304.202922 
L 482.510707 303.013406 
L 483.243367 302.842728 
L 483.976027 302.795236 
L 484.708687 302.904918 
L 486.174007 303.526419 
L 487.639327 304.105867 
L 488.371987 304.257183 
L 489.837306 303.770156 
L 491.302626 303.203049 
L 493.500606 302.098106 
L 494.233266 301.975073 
L 494.965926 302.09601 
L 497.896566 303.307343 
L 500.094545 303.284843 
L 500.827205 303.452281 
L 502.292525 303.993767 
L 503.025185 303.725911 
L 505.223165 301.957909 
L 505.955825 301.699105 
L 506.688485 301.728806 
L 508.153805 302.242206 
L 510.351785 303.532084 
L 511.084444 303.70579 
L 511.817104 303.449489 
L 514.747744 301.286604 
L 516.213064 300.860874 
L 517.678384 300.686185 
L 518.411044 300.713395 
L 519.876364 301.140161 
L 520.609024 301.395212 
L 521.341684 301.526389 
L 522.074343 301.44379 
L 523.539663 301.113258 
L 524.272323 301.135451 
L 525.737643 301.569646 
L 529.400943 302.892856 
L 530.133603 302.790053 
L 532.331582 302.162887 
L 533.064242 302.145902 
L 535.994882 302.537544 
L 537.460202 302.301516 
L 538.192862 302.385062 
L 539.658182 302.991616 
L 540.390842 303.30517 
L 541.123502 303.381864 
L 543.321481 302.838796 
L 544.786801 302.916714 
L 545.519461 302.779942 
L 546.252121 302.530129 
L 546.984781 302.417656 
L 547.717441 302.515439 
L 549.182761 303.085589 
L 549.915421 303.384255 
L 550.648081 303.473176 
L 552.113401 303.28095 
L 553.578721 302.813544 
L 554.31138 302.571808 
L 555.04404 302.512861 
L 556.50936 302.864589 
L 557.97468 303.313741 
L 558.70734 303.312597 
L 560.90532 302.894309 
L 562.37064 302.323185 
L 563.83596 301.550849 
L 564.56862 301.277945 
L 566.033939 301.127645 
L 568.964579 301.290543 
L 569.697239 301.486934 
L 571.895219 302.396415 
L 573.360539 302.312221 
L 576.291178 301.763315 
L 577.756498 301.948359 
L 579.221818 302.485768 
L 580.687138 303.077513 
L 581.419798 303.09211 
L 582.885118 302.744947 
L 583.617778 302.469223 
L 585.083098 301.643278 
L 585.815758 301.394386 
L 587.281077 301.406857 
L 588.746397 301.479317 
L 590.944377 301.482081 
L 592.409697 301.747185 
L 593.875017 302.106782 
L 594.607677 302.059239 
L 595.340337 301.746518 
L 596.805657 300.74279 
L 597.538316 300.397721 
L 598.270976 300.31096 
L 599.003636 300.517489 
L 600.468956 301.555133 
L 601.201616 302.08437 
L 601.934276 302.415052 
L 602.666936 302.400578 
L 603.399596 302.029948 
L 604.864916 300.835309 
L 605.597576 300.43422 
L 606.330236 300.26614 
L 607.795556 300.309343 
L 609.260875 300.830029 
L 609.993535 301.095901 
L 610.726195 301.177665 
L 611.458855 300.986921 
L 612.924175 300.374439 
L 614.389495 300.088924 
L 616.587475 300.012275 
L 619.518114 299.507855 
L 620.250774 299.36003 
L 620.983434 299.354983 
L 621.716094 299.531236 
L 623.914074 300.416571 
L 624.646734 300.562912 
L 625.379394 300.536711 
L 626.112054 300.315722 
L 629.042694 298.733876 
L 630.508013 298.572611 
L 631.240673 298.684107 
L 633.438653 299.501757 
L 634.171313 299.50644 
L 634.903973 299.280161 
L 636.369293 298.436769 
L 638.567273 297.094014 
L 640.032593 296.567166 
L 641.497912 296.387047 
L 642.230572 296.421887 
L 642.963232 296.592085 
L 643.695892 296.906559 
L 645.893872 298.262321 
L 646.626532 298.409169 
L 647.359192 298.231128 
L 650.289832 296.785359 
L 651.022492 296.715012 
L 651.755152 296.823146 
L 652.487811 297.111233 
L 653.953131 297.933822 
L 654.685791 298.094678 
L 655.418451 298.046781 
L 656.883771 297.60377 
L 658.349091 297.00366 
L 659.081751 296.916837 
L 659.814411 297.099606 
L 660.547071 297.584871 
L 662.012391 298.725245 
L 662.745051 298.873603 
L 663.47771 298.624319 
L 664.21037 298.092567 
L 665.67569 296.815944 
L 666.40835 296.517016 
L 667.14101 296.59745 
L 668.60633 297.443695 
L 669.33899 297.858452 
L 670.07165 298.039107 
L 670.80431 297.952062 
L 671.53697 297.620993 
L 673.00229 296.713668 
L 673.734949 296.49999 
L 674.467609 296.612921 
L 675.932929 297.328188 
L 677.398249 298.115957 
L 678.130909 298.348167 
L 678.863569 298.353407 
L 679.596229 298.152032 
L 681.061549 297.429237 
L 682.526869 296.684498 
L 683.259529 296.547158 
L 683.992189 296.634909 
L 684.724848 296.959419 
L 687.655488 298.946759 
L 688.388148 298.910256 
L 689.853468 298.171654 
L 691.318788 297.45617 
L 692.051448 297.261274 
L 692.784108 297.196964 
L 693.516768 297.26681 
L 694.249428 297.472289 
L 695.714747 298.272451 
L 697.180067 299.271563 
L 697.912727 299.576605 
L 698.645387 299.656012 
L 699.378047 299.489152 
L 700.843367 298.722613 
L 702.308687 297.852079 
L 703.041347 297.65707 
L 703.774007 297.734532 
L 704.506667 298.073307 
L 706.704646 299.533287 
L 707.437306 299.751515 
L 708.169966 299.673988 
L 708.902626 299.322064 
L 710.367946 298.286731 
L 711.100606 298.017674 
L 711.833266 298.084419 
L 715.496566 299.460943 
L 716.229226 299.427623 
L 716.961886 299.208086 
L 718.427205 298.403559 
L 719.159865 298.180306 
L 719.892525 298.207549 
L 720.625185 298.429015 
L 723.555825 299.866898 
L 724.288485 299.904966 
L 725.753805 299.224339 
L 726.486465 298.939419 
L 727.219125 298.90152 
L 728.684444 299.373572 
L 730.149764 299.755222 
L 731.615084 299.875674 
L 732.347744 299.817394 
L 733.813064 299.387067 
L 734.545724 299.166447 
L 735.278384 299.069942 
L 736.011044 299.138608 
L 740.407003 300.319762 
L 741.872323 300.453312 
L 744.070303 300.116118 
L 744.802963 300.186015 
L 747.000943 300.672141 
L 747.733603 300.509415 
L 750.664242 299.29085 
L 751.396902 299.215325 
L 752.129562 299.354347 
L 753.594882 300.076441 
L 754.327542 300.451668 
L 755.060202 300.633224 
L 755.792862 300.509491 
L 757.990842 299.620813 
L 758.723502 299.515458 
L 759.456162 299.663851 
L 760.188822 300.093826 
L 762.386801 302.034511 
L 763.119461 302.319519 
L 763.852121 302.219391 
L 764.584781 301.779978 
L 766.050101 300.590665 
L 766.782761 300.196469 
L 767.515421 300.03264 
L 768.248081 300.096946 
L 768.980741 300.351375 
L 770.446061 301.041079 
L 771.178721 301.08565 
L 771.91138 300.913048 
L 773.3767 300.325779 
L 774.10936 300.212146 
L 774.84202 300.379496 
L 775.57468 300.74771 
L 777.04 301.712084 
L 777.77266 301.823692 
L 778.50532 301.475347 
L 779.97064 300.384331 
L 780.7033 300.05377 
L 781.43596 299.901967 
L 782.16862 299.883535 
L 783.633939 300.182034 
L 785.099259 300.86874 
L 788.029899 302.572212 
L 788.762559 302.785457 
L 789.495219 302.803234 
L 793.158519 301.86689 
L 795.356498 300.81534 
L 796.089158 300.859628 
L 796.821818 301.242736 
L 798.287138 302.220554 
L 799.019798 302.493197 
L 799.752458 302.603056 
L 800.485118 302.464641 
L 801.950438 301.865857 
L 802.683098 301.703602 
L 803.415758 301.784613 
L 804.148418 302.155086 
L 804.881077 302.660575 
L 805.613737 302.971304 
L 806.346397 302.910772 
L 808.544377 301.836958 
L 809.277037 301.749528 
L 810.009697 301.907113 
L 810.742357 302.300822 
L 811.475017 302.837976 
L 812.207677 303.150828 
L 812.940337 303.119447 
L 814.405657 302.689178 
L 815.138316 302.097869 
L 815.870976 299.464035 
L 816.603636 293.630434 
L 816.603636 293.630434 
" clip-path="url(#p548dbc2049)" style="fill: none; stroke: #2ca02c; stroke-width: 1.2; stroke-linecap: square"/>
   </g>
   <g id="line2d_29">
    <path d="M 84.676364 304.805455 
L 86.874343 201.87087 
L 88.339663 144.164974 
L 89.804983 98.90976 
L 90.537643 81.222485 
L 91.270303 67.057861 
L 92.002963 56.508697 
L 92.735623 49.563948 
L 93.468283 46.158339 
L 94.200943 46.189865 
L 94.933603 49.529301 
L 95.666263 56.030831 
L 96.398923 65.544248 
L 97.131582 77.918031 
L 97.864242 92.998013 
L 99.329562 130.650306 
L 100.794882 177.016263 
L 102.260202 223.051578 
L 102.992862 241.439302 
L 103.725522 255.42313 
L 104.458182 264.522792 
L 105.190842 269.282505 
L 105.923502 271.133585 
L 106.656162 271.382632 
L 107.388822 271.069375 
L 108.121481 271.021892 
L 108.854141 271.889165 
L 111.784781 278.2562 
L 113.250101 280.81797 
L 114.715421 282.724272 
L 116.180741 283.995261 
L 120.5767 286.771998 
L 127.17064 290.75145 
L 129.36862 292.154132 
L 131.566599 293.613412 
L 133.764579 294.990379 
L 135.962559 296.487943 
L 139.625859 298.510636 
L 141.823838 299.305043 
L 143.289158 299.661756 
L 144.754478 299.759259 
L 146.952458 299.539063 
L 149.150438 299.408023 
L 152.081077 299.284816 
L 153.546397 299.03082 
L 155.011717 298.52636 
L 159.407677 296.576029 
L 162.338316 295.583986 
L 175.526195 290.843679 
L 176.991515 290.042395 
L 181.387475 287.076187 
L 183.585455 286.04446 
L 187.248754 284.67272 
L 194.575354 281.950362 
L 198.238653 280.971457 
L 202.634613 279.90663 
L 207.030572 278.623898 
L 212.891852 277.859814 
L 215.089832 277.756268 
L 218.753131 277.753017 
L 220.218451 277.861217 
L 222.416431 278.36087 
L 227.545051 279.812521 
L 229.74303 280.422386 
L 236.33697 283.207707 
L 239.267609 284.488895 
L 241.465589 285.434427 
L 243.663569 286.881956 
L 248.792189 290.355825 
L 256.851448 296.408874 
L 260.514747 299.43102 
L 262.712727 300.804572 
L 264.910707 301.822293 
L 267.108687 302.524763 
L 269.306667 303.021286 
L 270.771987 303.166026 
L 272.237306 303.112055 
L 273.702626 302.836705 
L 275.900606 302.162989 
L 279.563906 300.850481 
L 286.157845 298.756471 
L 288.355825 297.50915 
L 290.553805 296.324992 
L 293.484444 294.87817 
L 298.613064 291.657294 
L 303.009024 289.597709 
L 309.602963 285.55131 
L 313.998923 283.537111 
L 316.196902 282.509175 
L 319.127542 281.05749 
L 321.325522 280.339713 
L 330.117441 278.448668 
L 333.780741 277.928037 
L 335.246061 277.830108 
L 342.57266 278.286284 
L 346.23596 278.843658 
L 349.166599 279.363341 
L 353.562559 279.963027 
L 360.156498 282.016817 
L 361.621818 282.741886 
L 369.681077 287.336017 
L 372.611717 288.867268 
L 383.601616 293.171895 
L 385.799596 294.143709 
L 387.264916 294.52744 
L 388.730236 294.600022 
L 390.928215 294.398448 
L 393.126195 294.214433 
L 395.324175 294.217187 
L 400.452795 294.518894 
L 404.116094 294.291203 
L 409.244714 293.65004 
L 411.442694 292.890249 
L 413.640673 291.913775 
L 417.303973 290.137531 
L 429.026532 285.608096 
L 434.155152 284.241848 
L 436.353131 283.102845 
L 439.283771 281.564727 
L 442.214411 280.303057 
L 445.87771 278.960765 
L 447.34303 278.596323 
L 449.54101 278.358726 
L 451.73899 278.400771 
L 453.93697 278.452709 
L 456.134949 278.304061 
L 460.530909 277.820064 
L 462.728889 277.806882 
L 464.194209 277.944603 
L 472.253468 279.651302 
L 473.718788 280.111096 
L 480.312727 282.858224 
L 483.243367 284.290972 
L 485.441347 285.257685 
L 489.837306 287.800035 
L 494.965926 291.21762 
L 499.361886 294.305316 
L 501.559865 295.762723 
L 504.490505 297.608357 
L 507.421145 299.430586 
L 508.886465 300.105706 
L 510.351785 300.436425 
L 511.817104 300.405725 
L 514.747744 299.880702 
L 517.678384 299.192018 
L 519.876364 298.418291 
L 523.539663 297.068225 
L 527.935623 295.692631 
L 532.331582 293.917331 
L 534.529562 293.225744 
L 536.727542 292.32273 
L 541.856162 290.047865 
L 544.054141 289.024497 
L 550.648081 285.571818 
L 554.31138 283.855612 
L 561.63798 280.945332 
L 563.83596 280.395264 
L 566.766599 279.727811 
L 568.231919 279.416987 
L 569.697239 279.286297 
L 571.895219 279.367445 
L 575.558519 279.663557 
L 588.746397 279.362183 
L 590.211717 279.604931 
L 592.409697 280.218418 
L 598.270976 282.019753 
L 600.468956 283.086481 
L 603.399596 284.770231 
L 605.597576 286.066466 
L 610.726195 288.500425 
L 613.656835 290.151586 
L 623.914074 297.428546 
L 626.112054 299.026629 
L 628.310034 300.361745 
L 629.775354 301.04845 
L 634.171313 302.545131 
L 635.636633 302.871822 
L 637.101953 302.980715 
L 638.567273 302.862789 
L 641.497912 302.276836 
L 645.161212 301.5135 
L 648.091852 300.503857 
L 650.289832 299.848381 
L 652.487811 299.203984 
L 653.953131 298.503998 
L 660.547071 294.874044 
L 664.94303 293.083058 
L 671.53697 289.031547 
L 676.665589 286.147882 
L 678.863569 285.352545 
L 682.526869 284.135924 
L 686.190168 282.785661 
L 688.388148 282.229483 
L 690.586128 281.887772 
L 699.378047 281.108481 
L 705.971987 280.947127 
L 711.100606 281.296632 
L 715.496566 281.372338 
L 720.625185 282.17657 
L 722.823165 282.480738 
L 724.288485 282.937946 
L 727.219125 283.986818 
L 729.417104 284.688101 
L 731.615084 285.687624 
L 737.476364 288.531079 
L 739.674343 289.508602 
L 742.604983 290.836579 
L 746.268283 292.476054 
L 752.129562 295.117275 
L 753.594882 295.518433 
L 755.060202 295.682868 
L 757.990842 295.68855 
L 760.921481 295.746319 
L 764.584781 296.109361 
L 766.782761 295.997593 
L 777.04 294.933511 
L 781.43596 293.678936 
L 782.901279 293.041661 
L 785.099259 291.81477 
L 793.158519 286.76966 
L 794.623838 286.305012 
L 797.554478 285.525221 
L 807.079057 281.80202 
L 811.475017 280.641673 
L 814.405657 280.036318 
L 815.138316 279.110935 
L 815.870976 276.095387 
L 816.603636 269.938461 
L 816.603636 269.938461 
" clip-path="url(#p548dbc2049)" style="fill: none; stroke-dasharray: 3.7,1.6; stroke-dashoffset: 0; stroke: #1f77b4"/>
   </g>
   <g id="patch_3">
    <path d="M 48.08 318.04 
L 48.08 26.88 
" style="fill: none; stroke: #000000; stroke-width: 0.8; stroke-linejoin: miter; stroke-linecap: square"/>
   </g>
   <g id="patch_4">
    <path d="M 853.2 318.04 
L 853.2 26.88 
" style="fill: none; stroke: #000000; stroke-width: 0.8; stroke-linejoin: miter; stroke-linecap: square"/>
   </g>
   <g id="patch_5">
    <path d="M 48.08 318.04 
L 853.2 318.04 
" style="fill: none; stroke: #000000; stroke-width: 0.8; stroke-linejoin: miter; stroke-linecap: square"/>
   </g>
   <g id="patch_6">
    <path d="M 48.08 26.88 
L 853.2 26.88 
" style="fill: none; stroke: #000000; stroke-width: 0.8; stroke-linejoin: miter; stroke-linecap: square"/>
   </g>
   <g id="text_16">
    <!-- Position Error Magnitude — lissajous -->
    <g transform="translate(315.883828 20.88) scale(0.13 -0.13)">
     <defs>
      <path id="DejaVuSans-Bold-50" d="M 588 4666 
L 2584 4666 
Q 3475 4666 3951 4270 
Q 4428 3875 4428 3144 
Q 4428 2409 3951 2014 
Q 3475 1619 2584 1619 
L 1791 1619 
L 1791 0 
L 588 0 
L 588 4666 
z
M 1791 3794 
L 1791 2491 
L 2456 2491 
Q 2806 2491 2997 2661 
Q 3188 2831 3188 3144 
Q 3188 3456 2997 3625 
Q 2806 3794 2456 3794 
L 1791 3794 
z
" transform="scale(0.015625)"/>
      <path id="DejaVuSans-Bold-6f" d="M 2203 2784 
Q 1831 2784 1636 2517 
Q 1441 2250 1441 1747 
Q 1441 1244 1636 976 
Q 1831 709 2203 709 
Q 2569 709 2762 976 
Q 2956 1244 2956 1747 
Q 2956 2250 2762 2517 
Q 2569 2784 2203 2784 
z
M 2203 3584 
Q 3106 3584 3614 3096 
Q 4122 2609 4122 1747 
Q 4122 884 3614 396 
Q 3106 -91 2203 -91 
Q 1297 -91 786 396 
Q 275 884 275 1747 
Q 275 2609 786 3096 
Q 1297 3584 2203 3584 
z
" transform="scale(0.015625)"/>
      <path id="DejaVuSans-Bold-73" d="M 3272 3391 
L 3272 2541 
Q 2913 2691 2578 2766 
Q 2244 2841 1947 2841 
Q 1628 2841 1473 2761 
Q 1319 2681 1319 2516 
Q 1319 2381 1436 2309 
Q 1553 2238 1856 2203 
L 2053 2175 
Q 2913 2066 3209 1816 
Q 3506 1566 3506 1031 
Q 3506 472 3093 190 
Q 2681 -91 1863 -91 
Q 1516 -91 1145 -36 
Q 775 19 384 128 
L 384 978 
Q 719 816 1070 734 
Q 1422 653 1784 653 
Q 2113 653 2278 743 
Q 2444 834 2444 1013 
Q 2444 1163 2330 1236 
Q 2216 1309 1875 1350 
L 1678 1375 
Q 931 1469 631 1722 
Q 331 1975 331 2491 
Q 331 3047 712 3315 
Q 1094 3584 1881 3584 
Q 2191 3584 2531 3537 
Q 2872 3491 3272 3391 
z
" transform="scale(0.015625)"/>
      <path id="DejaVuSans-Bold-69" d="M 538 3500 
L 1656 3500 
L 1656 0 
L 538 0 
L 538 3500 
z
M 538 4863 
L 1656 4863 
L 1656 3950 
L 538 3950 
L 538 4863 
z
" transform="scale(0.015625)"/>
      <path id="DejaVuSans-Bold-74" d="M 1759 4494 
L 1759 3500 
L 2913 3500 
L 2913 2700 
L 1759 2700 
L 1759 1216 
Q 1759 972 1856 886 
Q 1953 800 2241 800 
L 2816 800 
L 2816 0 
L 1856 0 
Q 1194 0 917 276 
Q 641 553 641 1216 
L 641 2700 
L 84 2700 
L 84 3500 
L 641 3500 
L 641 4494 
L 1759 4494 
z
" transform="scale(0.015625)"/>
      <path id="DejaVuSans-Bold-6e" d="M 4056 2131 
L 4056 0 
L 2931 0 
L 2931 347 
L 2931 1631 
Q 2931 2084 2911 2256 
Q 2891 2428 2841 2509 
Q 2775 2619 2662 2680 
Q 2550 2741 2406 2741 
Q 2056 2741 1856 2470 
Q 1656 2200 1656 1722 
L 1656 0 
L 538 0 
L 538 3500 
L 1656 3500 
L 1656 2988 
Q 1909 3294 2193 3439 
Q 2478 3584 2822 3584 
Q 3428 3584 3742 3212 
Q 4056 2841 4056 2131 
z
" transform="scale(0.015625)"/>
      <path id="DejaVuSans-Bold-20" transform="scale(0.015625)"/>
      <path id="DejaVuSans-Bold-45" d="M 588 4666 
L 3834 4666 
L 3834 3756 
L 1791 3756 
L 1791 2888 
L 3713 2888 
L 3713 1978 
L 1791 1978 
L 1791 909 
L 3903 909 
L 3903 0 
L 588 0 
L 588 4666 
z
" transform="scale(0.015625)"/>
      <path id="DejaVuSans-Bold-72" d="M 3138 2547 
Q 2991 2616 2845 2648 
Q 2700 2681 2553 2681 
Q 2122 2681 1889 2404 
Q 1656 2128 1656 1613 
L 1656 0 
L 538 0 
L 538 3500 
L 1656 3500 
L 1656 2925 
Q 1872 3269 2151 3426 
Q 2431 3584 2822 3584 
Q 2878 3584 2943 3579 
Q 3009 3575 3134 3559 
L 3138 2547 
z
" transform="scale(0.015625)"/>
      <path id="DejaVuSans-Bold-4d" d="M 588 4666 
L 2119 4666 
L 3181 2169 
L 4250 4666 
L 5778 4666 
L 5778 0 
L 4641 0 
L 4641 3413 
L 3566 897 
L 2803 897 
L 1728 3413 
L 1728 0 
L 588 0 
L 588 4666 
z
" transform="scale(0.015625)"/>
      <path id="DejaVuSans-Bold-61" d="M 2106 1575 
Q 1756 1575 1579 1456 
Q 1403 1338 1403 1106 
Q 1403 894 1545 773 
Q 1688 653 1941 653 
Q 2256 653 2472 879 
Q 2688 1106 2688 1447 
L 2688 1575 
L 2106 1575 
z
M 3816 1997 
L 3816 0 
L 2688 0 
L 2688 519 
Q 2463 200 2181 54 
Q 1900 -91 1497 -91 
Q 953 -91 614 226 
Q 275 544 275 1050 
Q 275 1666 698 1953 
Q 1122 2241 2028 2241 
L 2688 2241 
L 2688 2328 
Q 2688 2594 2478 2717 
Q 2269 2841 1825 2841 
Q 1466 2841 1156 2769 
Q 847 2697 581 2553 
L 581 3406 
Q 941 3494 1303 3539 
Q 1666 3584 2028 3584 
Q 2975 3584 3395 3211 
Q 3816 2838 3816 1997 
z
" transform="scale(0.015625)"/>
      <path id="DejaVuSans-Bold-67" d="M 2919 594 
Q 2688 288 2409 144 
Q 2131 0 1766 0 
Q 1125 0 706 504 
Q 288 1009 288 1791 
Q 288 2575 706 3076 
Q 1125 3578 1766 3578 
Q 2131 3578 2409 3434 
Q 2688 3291 2919 2981 
L 2919 3500 
L 4044 3500 
L 4044 353 
Q 4044 -491 3511 -936 
Q 2978 -1381 1966 -1381 
Q 1638 -1381 1331 -1331 
Q 1025 -1281 716 -1178 
L 716 -306 
Q 1009 -475 1290 -558 
Q 1572 -641 1856 -641 
Q 2406 -641 2662 -400 
Q 2919 -159 2919 353 
L 2919 594 
z
M 2181 2772 
Q 1834 2772 1640 2515 
Q 1447 2259 1447 1791 
Q 1447 1309 1634 1061 
Q 1822 813 2181 813 
Q 2531 813 2725 1069 
Q 2919 1325 2919 1791 
Q 2919 2259 2725 2515 
Q 2531 2772 2181 2772 
z
" transform="scale(0.015625)"/>
      <path id="DejaVuSans-Bold-75" d="M 500 1363 
L 500 3500 
L 1625 3500 
L 1625 3150 
Q 1625 2866 1622 2436 
Q 1619 2006 1619 1863 
Q 1619 1441 1641 1255 
Q 1663 1069 1716 984 
Q 1784 875 1895 815 
Q 2006 756 2150 756 
Q 2500 756 2700 1025 
Q 2900 1294 2900 1772 
L 2900 3500 
L 4019 3500 
L 4019 0 
L 2900 0 
L 2900 506 
Q 2647 200 2364 54 
Q 2081 -91 1741 -91 
Q 1134 -91 817 281 
Q 500 653 500 1363 
z
" transform="scale(0.015625)"/>
      <path id="DejaVuSans-Bold-64" d="M 2919 2988 
L 2919 4863 
L 4044 4863 
L 4044 0 
L 2919 0 
L 2919 506 
Q 2688 197 2409 53 
Q 2131 -91 1766 -91 
Q 1119 -91 703 423 
Q 288 938 288 1747 
Q 288 2556 703 3070 
Q 1119 3584 1766 3584 
Q 2128 3584 2408 3439 
Q 2688 3294 2919 2988 
z
M 2181 722 
Q 2541 722 2730 984 
Q 2919 1247 2919 1747 
Q 2919 2247 2730 2509 
Q 2541 2772 2181 2772 
Q 1825 2772 1636 2509 
Q 1447 2247 1447 1747 
Q 1447 1247 1636 984 
Q 1825 722 2181 722 
z
" transform="scale(0.015625)"/>
      <path id="DejaVuSans-Bold-65" d="M 4031 1759 
L 4031 1441 
L 1416 1441 
Q 1456 1047 1700 850 
Q 1944 653 2381 653 
Q 2734 653 3104 758 
Q 3475 863 3866 1075 
L 3866 213 
Q 3469 63 3072 -14 
Q 2675 -91 2278 -91 
Q 1328 -91 801 392 
Q 275 875 275 1747 
Q 275 2603 792 3093 
Q 1309 3584 2216 3584 
Q 3041 3584 3536 3087 
Q 4031 2591 4031 1759 
z
M 2881 2131 
Q 2881 2450 2695 2645 
Q 2509 2841 2209 2841 
Q 1884 2841 1681 2658 
Q 1478 2475 1428 2131 
L 2881 2131 
z
" transform="scale(0.015625)"/>
      <path id="DejaVuSans-Bold-2014" d="M 344 2156 
L 6056 2156 
L 6056 1350 
L 344 1350 
L 344 2156 
z
" transform="scale(0.015625)"/>
      <path id="DejaVuSans-Bold-6c" d="M 538 4863 
L 1656 4863 
L 1656 0 
L 538 0 
L 538 4863 
z
" transform="scale(0.015625)"/>
      <path id="DejaVuSans-Bold-6a" d="M 538 3500 
L 1656 3500 
L 1656 63 
Q 1656 -641 1318 -1011 
Q 981 -1381 341 -1381 
L -213 -1381 
L -213 -647 
L -19 -647 
Q 300 -647 419 -503 
Q 538 -359 538 63 
L 538 3500 
z
M 538 4863 
L 1656 4863 
L 1656 3950 
L 538 3950 
L 538 4863 
z
" transform="scale(0.015625)"/>
     </defs>
     <use xlink:href="#DejaVuSans-Bold-50"/>
     <use xlink:href="#DejaVuSans-Bold-6f" transform="translate(73.291016 0)"/>
     <use xlink:href="#DejaVuSans-Bold-73" transform="translate(141.992188 0)"/>
     <use xlink:href="#DejaVuSans-Bold-69" transform="translate(201.513672 0)"/>
     <use xlink:href="#DejaVuSans-Bold-74" transform="translate(235.791016 0)"/>
     <use xlink:href="#DejaVuSans-Bold-69" transform="translate(283.59375 0)"/>
     <use xlink:href="#DejaVuSans-Bold-6f" transform="translate(317.871094 0)"/>
     <use xlink:href="#DejaVuSans-Bold-6e" transform="translate(386.572266 0)"/>
     <use xlink:href="#DejaVuSans-Bold-20" transform="translate(457.763672 0)"/>
     <use xlink:href="#DejaVuSans-Bold-45" transform="translate(492.578125 0)"/>
     <use xlink:href="#DejaVuSans-Bold-72" transform="translate(560.888672 0)"/>
     <use xlink:href="#DejaVuSans-Bold-72" transform="translate(610.205078 0)"/>
     <use xlink:href="#DejaVuSans-Bold-6f" transform="translate(659.521484 0)"/>
     <use xlink:href="#DejaVuSans-Bold-72" transform="translate(728.222656 0)"/>
     <use xlink:href="#DejaVuSans-Bold-20" transform="translate(777.539062 0)"/>
     <use xlink:href="#DejaVuSans-Bold-4d" transform="translate(812.353516 0)"/>
     <use xlink:href="#DejaVuSans-Bold-61" transform="translate(911.865234 0)"/>
     <use xlink:href="#DejaVuSans-Bold-67" transform="translate(979.345703 0)"/>
     <use xlink:href="#DejaVuSans-Bold-6e" transform="translate(1050.927734 0)"/>
     <use xlink:href="#DejaVuSans-Bold-69" transform="translate(1122.119141 0)"/>
     <use xlink:href="#DejaVuSans-Bold-74" transform="translate(1156.396484 0)"/>
     <use xlink:href="#DejaVuSans-Bold-75" transform="translate(1204.199219 0)"/>
     <use xlink:href="#DejaVuSans-Bold-64" transform="translate(1275.390625 0)"/>
     <use xlink:href="#DejaVuSans-Bold-65" transform="translate(1346.972656 0)"/>
     <use xlink:href="#DejaVuSans-Bold-20" transform="translate(1414.794922 0)"/>
     <use xlink:href="#DejaVuSans-Bold-2014" transform="translate(1449.609375 0)"/>
     <use xlink:href="#DejaVuSans-Bold-20" transform="translate(1549.609375 0)"/>
     <use xlink:href="#DejaVuSans-Bold-6c" transform="translate(1584.423828 0)"/>
     <use xlink:href="#DejaVuSans-Bold-69" transform="translate(1618.701172 0)"/>
     <use xlink:href="#DejaVuSans-Bold-73" transform="translate(1652.978516 0)"/>
     <use xlink:href="#DejaVuSans-Bold-73" transform="translate(1712.5 0)"/>
     <use xlink:href="#DejaVuSans-Bold-61" transform="translate(1772.021484 0)"/>
     <use xlink:href="#DejaVuSans-Bold-6a" transform="translate(1839.501953 0)"/>
     <use xlink:href="#DejaVuSans-Bold-6f" transform="translate(1873.779297 0)"/>
     <use xlink:href="#DejaVuSans-Bold-75" transform="translate(1942.480469 0)"/>
     <use xlink:href="#DejaVuSans-Bold-73" transform="translate(2013.671875 0)"/>
    </g>
   </g>
   <g id="legend_1">
    <g id="patch_7">
     <path d="M 778.354688 78.914375 
L 846.2 78.914375 
Q 848.2 78.914375 848.2 76.914375 
L 848.2 33.88 
Q 848.2 31.88 846.2 31.88 
L 778.354688 31.88 
Q 776.354688 31.88 776.354688 33.88 
L 776.354688 76.914375 
Q 776.354688 78.914375 778.354688 78.914375 
z
" style="fill: #ffffff; opacity: 0.8; stroke: #cccccc; stroke-linejoin: miter"/>
    </g>
    <g id="line2d_30">
     <path d="M 780.354688 39.978437 
L 790.354688 39.978437 
L 800.354688 39.978437 
" style="fill: none; stroke: #888888; stroke-opacity: 0.6; stroke-linecap: square"/>
    </g>
    <g id="text_17">
     <!-- PID -->
     <g transform="translate(808.354688 43.478437) scale(0.1 -0.1)">
      <defs>
       <path id="DejaVuSans-50" d="M 1259 4147 
L 1259 2394 
L 2053 2394 
Q 2494 2394 2734 2622 
Q 2975 2850 2975 3272 
Q 2975 3691 2734 3919 
Q 2494 4147 2053 4147 
L 1259 4147 
z
M 628 4666 
L 2053 4666 
Q 2838 4666 3239 4311 
Q 3641 3956 3641 3272 
Q 3641 2581 3239 2228 
Q 2838 1875 2053 1875 
L 1259 1875 
L 1259 0 
L 628 0 
L 628 4666 
z
" transform="scale(0.015625)"/>
       <path id="DejaVuSans-49" d="M 628 4666 
L 1259 4666 
L 1259 0 
L 628 0 
L 628 4666 
z
" transform="scale(0.015625)"/>
       <path id="DejaVuSans-44" d="M 1259 4147 
L 1259 519 
L 2022 519 
Q 2988 519 3436 956 
Q 3884 1394 3884 2338 
Q 3884 3275 3436 3711 
Q 2988 4147 2022 4147 
L 1259 4147 
z
M 628 4666 
L 1925 4666 
Q 3281 4666 3915 4102 
Q 4550 3538 4550 2338 
Q 4550 1131 3912 565 
Q 3275 0 1925 0 
L 628 0 
L 628 4666 
z
" transform="scale(0.015625)"/>
      </defs>
      <use xlink:href="#DejaVuSans-50"/>
      <use xlink:href="#DejaVuSans-49" transform="translate(60.302734 0)"/>
      <use xlink:href="#DejaVuSans-44" transform="translate(89.794922 0)"/>
     </g>
    </g>
    <g id="line2d_31">
     <path d="M 780.354688 54.656563 
L 790.354688 54.656563 
L 800.354688 54.656563 
" style="fill: none; stroke: #2ca02c; stroke-width: 1.2; stroke-linecap: square"/>
    </g>
    <g id="text_18">
     <!-- EDMDc -->
     <g transform="translate(808.354688 58.156563) scale(0.1 -0.1)">
      <defs>
       <path id="DejaVuSans-45" d="M 628 4666 
L 3578 4666 
L 3578 4134 
L 1259 4134 
L 1259 2753 
L 3481 2753 
L 3481 2222 
L 1259 2222 
L 1259 531 
L 3634 531 
L 3634 0 
L 628 0 
L 628 4666 
z
" transform="scale(0.015625)"/>
       <path id="DejaVuSans-4d" d="M 628 4666 
L 1569 4666 
L 2759 1491 
L 3956 4666 
L 4897 4666 
L 4897 0 
L 4281 0 
L 4281 4097 
L 3078 897 
L 2444 897 
L 1241 4097 
L 1241 0 
L 628 0 
L 628 4666 
z
" transform="scale(0.015625)"/>
       <path id="DejaVuSans-63" d="M 3122 3366 
L 3122 2828 
Q 2878 2963 2633 3030 
Q 2388 3097 2138 3097 
Q 1578 3097 1268 2742 
Q 959 2388 959 1747 
Q 959 1106 1268 751 
Q 1578 397 2138 397 
Q 2388 397 2633 464 
Q 2878 531 3122 666 
L 3122 134 
Q 2881 22 2623 -34 
Q 2366 -91 2075 -91 
Q 1284 -91 818 406 
Q 353 903 353 1747 
Q 353 2603 823 3093 
Q 1294 3584 2113 3584 
Q 2378 3584 2631 3529 
Q 2884 3475 3122 3366 
z
" transform="scale(0.015625)"/>
      </defs>
      <use xlink:href="#DejaVuSans-45"/>
      <use xlink:href="#DejaVuSans-44" transform="translate(63.183594 0)"/>
      <use xlink:href="#DejaVuSans-4d" transform="translate(140.185547 0)"/>
      <use xlink:href="#DejaVuSans-44" transform="translate(226.464844 0)"/>
      <use xlink:href="#DejaVuSans-63" transform="translate(303.466797 0)"/>
     </g>
    </g>
    <g id="line2d_32">
     <path d="M 780.354688 69.334687 
L 790.354688 69.334687 
L 800.354688 69.334687 
" style="fill: none; stroke-dasharray: 3.7,1.6; stroke-dashoffset: 0; stroke: #1f77b4"/>
    </g>
    <g id="text_19">
     <!-- Linear -->
     <g transform="translate(808.354688 72.834687) scale(0.1 -0.1)">
      <defs>
       <path id="DejaVuSans-4c" d="M 628 4666 
L 1259 4666 
L 1259 531 
L 3531 531 
L 3531 0 
L 628 0 
L 628 4666 
z
" transform="scale(0.015625)"/>
       <path id="DejaVuSans-69" d="M 603 3500 
L 1178 3500 
L 1178 0 
L 603 0 
L 603 3500 
z
M 603 4863 
L 1178 4863 
L 1178 4134 
L 603 4134 
L 603 4863 
z
" transform="scale(0.015625)"/>
       <path id="DejaVuSans-6e" d="M 3513 2113 
L 3513 0 
L 2938 0 
L 2938 2094 
Q 2938 2591 2744 2837 
Q 2550 3084 2163 3084 
Q 1697 3084 1428 2787 
Q 1159 2491 1159 1978 
L 1159 0 
L 581 0 
L 581 3500 
L 1159 3500 
L 1159 2956 
Q 1366 3272 1645 3428 
Q 1925 3584 2291 3584 
Q 2894 3584 3203 3211 
Q 3513 2838 3513 2113 
z
" transform="scale(0.015625)"/>
       <path id="DejaVuSans-61" d="M 2194 1759 
Q 1497 1759 1228 1600 
Q 959 1441 959 1056 
Q 959 750 1161 570 
Q 1363 391 1709 391 
Q 2188 391 2477 730 
Q 2766 1069 2766 1631 
L 2766 1759 
L 2194 1759 
z
M 3341 1997 
L 3341 0 
L 2766 0 
L 2766 531 
Q 2569 213 2275 61 
Q 1981 -91 1556 -91 
Q 1019 -91 701 211 
Q 384 513 384 1019 
Q 384 1609 779 1909 
Q 1175 2209 1959 2209 
L 2766 2209 
L 2766 2266 
Q 2766 2663 2505 2880 
Q 2244 3097 1772 3097 
Q 1472 3097 1187 3025 
Q 903 2953 641 2809 
L 641 3341 
Q 956 3463 1253 3523 
Q 1550 3584 1831 3584 
Q 2591 3584 2966 3190 
Q 3341 2797 3341 1997 
z
" transform="scale(0.015625)"/>
      </defs>
      <use xlink:href="#DejaVuSans-4c"/>
      <use xlink:href="#DejaVuSans-69" transform="translate(55.712891 0)"/>
      <use xlink:href="#DejaVuSans-6e" transform="translate(83.496094 0)"/>
      <use xlink:href="#DejaVuSans-65" transform="translate(146.875 0)"/>
      <use xlink:href="#DejaVuSans-61" transform="translate(208.398438 0)"/>
      <use xlink:href="#DejaVuSans-72" transform="translate(269.677734 0)"/>
     </g>
    </g>
   </g>
  </g>
 </g>
 <defs>
  <clipPath id="p548dbc2049">
   <rect x="48.08" y="26.88" width="805.12" height="291.16"/>
  </clipPath>
 </defs>
</svg>
