<?xml version="1.0" encoding="utf-8" standalone="no"?>
<!DOCTYPE svg PUBLIC "-//W3C//DTD SVG 1.1//EN"
  "http://www.w3.org/Graphics/SVG/1.1/DTD/svg11.dtd">
<svg xmlns:xlink="http://www.w3.org/1999/xlink" width="864pt" height="360pt" viewBox="0 0 864 360" xmlns="http://www.w3.org/2000/svg" version="1.1">
 <metadata>
  <rdf:RDF xmlns:dc="http://purl.org/dc/elements/1.1/" xmlns:cc="http://creativecommons.org/ns#" xmlns:rdf="http://www.w3.org/1999/02/22-rdf-syntax-ns#">
   <cc:Work>
    <dc:type rdf:resource="http://purl.org/dc/dcmitype/StillImage"/>
    <dc:date>2026-03-30T18:21:15.049641</dc:date>
    <dc:format>image/svg+xml</dc:format>
    <dc:creator>
     <cc:Agent>
      <dc:title>Matplotlib v3.10.8, https://matplotlib.org/</dc:title>
     </cc:Agent>
    </dc:creator>
   </cc:Work>
  </rdf:RDF>
 </metadata>
 <defs>
  <style type="text/css">*{stroke-linejoin: round; stroke-linecap: butt}</style>
 </defs>
 <g id="figure_1">
  <g id="patch_1">
   <path d="M 0 360 
L 864 360 
L 864 0 
L 0 0 
z
" style="fill: #ffffff"/>
  </g>
  <g id="axes_1">
   <g id="patch_2">
    <path d="M 48.08 318.04 
L 853.2 318.04 
L 853.2 26.88 
L 48.08 26.88 
z
" style="fill: #ffffff"/>
   </g>
   <g id="matplotlib.axis_1">
    <g id="xtick_1">
     <g id="line2d_1">
      <path d="M 84.676364 318.04 
L 84.676364 26.88 
" clip-path="url(#p2f1ceec7dc)" style="fill: none; stroke: #b0b0b0; stroke-opacity: 0.3; stroke-width: 0.8; stroke-linecap: square"/>
     </g>
     <g id="line2d_2">
      <defs>
       <path id="m61f64ac320" d="M 0 0 
L 0 3.5 
" style="stroke: #000000; stroke-width: 0.8"/>
      </defs>
      <g>
       <use xlink:href="#m61f64ac320" x="84.676364" y="318.04" style="stroke: #000000; stroke-width: 0.8"/>
      </g>
     </g>
     <g id="text_1">
      <!-- 0 -->
      <g transform="translate(81.495114 332.638438) scale(0.1 -0.1)">
       <defs>
        <path id="DejaVuSans-30" d="M 2034 4250 
Q 1547 4250 1301 3770 
Q 1056 3291 1056 2328 
Q 1056 1369 1301 889 
Q 1547 409 2034 409 
Q 2525 409 2770 889 
Q 3016 1369 3016 2328 
Q 3016 3291 2770 3770 
Q 2525 4250 2034 4250 
z
M 2034 4750 
Q 2819 4750 3233 4129 
Q 3647 3509 3647 2328 
Q 3647 1150 3233 529 
Q 2819 -91 2034 -91 
Q 1250 -91 836 529 
Q 422 1150 422 2328 
Q 422 3509 836 4129 
Q 1250 4750 2034 4750 
z
" transform="scale(0.015625)"/>
       </defs>
       <use xlink:href="#DejaVuSans-30"/>
      </g>
     </g>
    </g>
    <g id="xtick_2">
     <g id="line2d_3">
      <path d="M 231.20835 318.04 
L 231.20835 26.88 
" clip-path="url(#p2f1ceec7dc)" style="fill: none; stroke: #b0b0b0; stroke-opacity: 0.3; stroke-width: 0.8; stroke-linecap: square"/>
     </g>
     <g id="line2d_4">
      <g>
       <use xlink:href="#m61f64ac320" x="231.20835" y="318.04" style="stroke: #000000; stroke-width: 0.8"/>
      </g>
     </g>
     <g id="text_2">
      <!-- 20 -->
      <g transform="translate(224.84585 332.638438) scale(0.1 -0.1)">
       <defs>
        <path id="DejaVuSans-32" d="M 1228 531 
L 3431 531 
L 3431 0 
L 469 0 
L 469 531 
Q 828 903 1448 1529 
Q 2069 2156 2228 2338 
Q 2531 2678 2651 2914 
Q 2772 3150 2772 3378 
Q 2772 3750 2511 3984 
Q 2250 4219 1831 4219 
Q 1534 4219 1204 4116 
Q 875 4013 500 3803 
L 500 4441 
Q 881 4594 1212 4672 
Q 1544 4750 1819 4750 
Q 2544 4750 2975 4387 
Q 3406 4025 3406 3419 
Q 3406 3131 3298 2873 
Q 3191 2616 2906 2266 
Q 2828 2175 2409 1742 
Q 1991 1309 1228 531 
z
" transform="scale(0.015625)"/>
       </defs>
       <use xlink:href="#DejaVuSans-32"/>
       <use xlink:href="#DejaVuSans-30" transform="translate(63.623047 0)"/>
      </g>
     </g>
    </g>
    <g id="xtick_3">
     <g id="line2d_5">
      <path d="M 377.740337 318.04 
L 377.740337 26.88 
" clip-path="url(#p2f1ceec7dc)" style="fill: none; stroke: #b0b0b0; stroke-opacity: 0.3; stroke-width: 0.8; stroke-linecap: square"/>
     </g>
     <g id="line2d_6">
      <g>
       <use xlink:href="#m61f64ac320" x="377.740337" y="318.04" style="stroke: #000000; stroke-width: 0.8"/>
      </g>
     </g>
     <g id="text_3">
      <!-- 40 -->
      <g transform="translate(371.377837 332.638438) scale(0.1 -0.1)">
       <defs>
        <path id="DejaVuSans-34" d="M 2419 4116 
L 825 1625 
L 2419 1625 
L 2419 4116 
z
M 2253 4666 
L 3047 4666 
L 3047 1625 
L 3713 1625 
L 3713 1100 
L 3047 1100 
L 3047 0 
L 2419 0 
L 2419 1100 
L 313 1100 
L 313 1709 
L 2253 4666 
z
" transform="scale(0.015625)"/>
       </defs>
       <use xlink:href="#DejaVuSans-34"/>
       <use xlink:href="#DejaVuSans-30" transform="translate(63.623047 0)"/>
      </g>
     </g>
    </g>
    <g id="xtick_4">
     <g id="line2d_7">
      <path d="M 524.272323 318.04 
L 524.272323 26.88 
" clip-path="url(#p2f1ceec7dc)" style="fill: none; stroke: #b0b0b0; stroke-opacity: 0.3; stroke-width: 0.8; stroke-linecap: square"/>
     </g>
     <g id="line2d_8">
      <g>
       <use xlink:href="#m61f64ac320" x="524.272323" y="318.04" style="stroke: #000000; stroke-width: 0.8"/>
      </g>
     </g>
     <g id="text_4">
      <!-- 60 -->
      <g transform="translate(517.909823 332.638438) scale(0.1 -0.1)">
       <defs>
        <path id="DejaVuSans-36" d="M 2113 2584 
Q 1688 2584 1439 2293 
Q 1191 2003 1191 1497 
Q 1191 994 1439 701 
Q 1688 409 2113 409 
Q 2538 409 2786 701 
Q 3034 994 3034 1497 
Q 3034 2003 2786 2293 
Q 2538 2584 2113 2584 
z
M 3366 4563 
L 3366 3988 
Q 3128 4100 2886 4159 
Q 2644 4219 2406 4219 
Q 1781 4219 1451 3797 
Q 1122 3375 1075 2522 
Q 1259 2794 1537 2939 
Q 1816 3084 2150 3084 
Q 2853 3084 3261 2657 
Q 3669 2231 3669 1497 
Q 3669 778 3244 343 
Q 2819 -91 2113 -91 
Q 1303 -91 875 529 
Q 447 1150 447 2328 
Q 447 3434 972 4092 
Q 1497 4750 2381 4750 
Q 2619 4750 2861 4703 
Q 3103 4656 3366 4563 
z
" transform="scale(0.015625)"/>
       </defs>
       <use xlink:href="#DejaVuSans-36"/>
       <use xlink:href="#DejaVuSans-30" transform="translate(63.623047 0)"/>
      </g>
     </g>
    </g>
    <g id="xtick_5">
     <g id="line2d_9">
      <path d="M 670.80431 318.04 
L 670.80431 26.88 
" clip-path="url(#p2f1ceec7dc)" style="fill: none; stroke: #b0b0b0; stroke-opacity: 0.3; stroke-width: 0.8; stroke-linecap: square"/>
     </g>
     <g id="line2d_10">
      <g>
       <use xlink:href="#m61f64ac320" x="670.80431" y="318.04" style="stroke: #000000; stroke-width: 0.8"/>
      </g>
     </g>
     <g id="text_5">
      <!-- 80 -->
      <g transform="translate(664.44181 332.638438) scale(0.1 -0.1)">
       <defs>
        <path id="DejaVuSans-38" d="M 2034 2216 
Q 1584 2216 1326 1975 
Q 1069 1734 1069 1313 
Q 1069 891 1326 650 
Q 1584 409 2034 409 
Q 2484 409 2743 651 
Q 3003 894 3003 1313 
Q 3003 1734 2745 1975 
Q 2488 2216 2034 2216 
z
M 1403 2484 
Q 997 2584 770 2862 
Q 544 3141 544 3541 
Q 544 4100 942 4425 
Q 1341 4750 2034 4750 
Q 2731 4750 3128 4425 
Q 3525 4100 3525 3541 
Q 3525 3141 3298 2862 
Q 3072 2584 2669 2484 
Q 3125 2378 3379 2068 
Q 3634 1759 3634 1313 
Q 3634 634 3220 271 
Q 2806 -91 2034 -91 
Q 1263 -91 848 271 
Q 434 634 434 1313 
Q 434 1759 690 2068 
Q 947 2378 1403 2484 
z
M 1172 3481 
Q 1172 3119 1398 2916 
Q 1625 2713 2034 2713 
Q 2441 2713 2670 2916 
Q 2900 3119 2900 3481 
Q 2900 3844 2670 4047 
Q 2441 4250 2034 4250 
Q 1625 4250 1398 4047 
Q 1172 3844 1172 3481 
z
" transform="scale(0.015625)"/>
       </defs>
       <use xlink:href="#DejaVuSans-38"/>
       <use xlink:href="#DejaVuSans-30" transform="translate(63.623047 0)"/>
      </g>
     </g>
    </g>
    <g id="xtick_6">
     <g id="line2d_11">
      <path d="M 817.336296 318.04 
L 817.336296 26.88 
" clip-path="url(#p2f1ceec7dc)" style="fill: none; stroke: #b0b0b0; stroke-opacity: 0.3; stroke-width: 0.8; stroke-linecap: square"/>
     </g>
     <g id="line2d_12">
      <g>
       <use xlink:href="#m61f64ac320" x="817.336296" y="318.04" style="stroke: #000000; stroke-width: 0.8"/>
      </g>
     </g>
     <g id="text_6">
      <!-- 100 -->
      <g transform="translate(807.792546 332.638438) scale(0.1 -0.1)">
       <defs>
        <path id="DejaVuSans-31" d="M 794 531 
L 1825 531 
L 1825 4091 
L 703 3866 
L 703 4441 
L 1819 4666 
L 2450 4666 
L 2450 531 
L 3481 531 
L 3481 0 
L 794 0 
L 794 531 
z
" transform="scale(0.015625)"/>
       </defs>
       <use xlink:href="#DejaVuSans-31"/>
       <use xlink:href="#DejaVuSans-30" transform="translate(63.623047 0)"/>
       <use xlink:href="#DejaVuSans-30" transform="translate(127.246094 0)"/>
      </g>
     </g>
    </g>
    <g id="text_7">
     <!-- t [s] -->
     <g transform="translate(440.584531 346.316563) scale(0.1 -0.1)">
      <defs>
       <path id="DejaVuSans-74" d="M 1172 4494 
L 1172 3500 
L 2356 3500 
L 2356 3053 
L 1172 3053 
L 1172 1153 
Q 1172 725 1289 603 
Q 1406 481 1766 481 
L 2356 481 
L 2356 0 
L 1766 0 
Q 1100 0 847 248 
Q 594 497 594 1153 
L 594 3053 
L 172 3053 
L 172 3500 
L 594 3500 
L 594 4494 
L 1172 4494 
z
" transform="scale(0.015625)"/>
       <path id="DejaVuSans-20" transform="scale(0.015625)"/>
       <path id="DejaVuSans-5b" d="M 550 4863 
L 1875 4863 
L 1875 4416 
L 1125 4416 
L 1125 -397 
L 1875 -397 
L 1875 -844 
L 550 -844 
L 550 4863 
z
" transform="scale(0.015625)"/>
       <path id="DejaVuSans-73" d="M 2834 3397 
L 2834 2853 
Q 2591 2978 2328 3040 
Q 2066 3103 1784 3103 
Q 1356 3103 1142 2972 
Q 928 2841 928 2578 
Q 928 2378 1081 2264 
Q 1234 2150 1697 2047 
L 1894 2003 
Q 2506 1872 2764 1633 
Q 3022 1394 3022 966 
Q 3022 478 2636 193 
Q 2250 -91 1575 -91 
Q 1294 -91 989 -36 
Q 684 19 347 128 
L 347 722 
Q 666 556 975 473 
Q 1284 391 1588 391 
Q 1994 391 2212 530 
Q 2431 669 2431 922 
Q 2431 1156 2273 1281 
Q 2116 1406 1581 1522 
L 1381 1569 
Q 847 1681 609 1914 
Q 372 2147 372 2553 
Q 372 3047 722 3315 
Q 1072 3584 1716 3584 
Q 2034 3584 2315 3537 
Q 2597 3491 2834 3397 
z
" transform="scale(0.015625)"/>
       <path id="DejaVuSans-5d" d="M 1947 4863 
L 1947 -844 
L 622 -844 
L 622 -397 
L 1369 -397 
L 1369 4416 
L 622 4416 
L 622 4863 
L 1947 4863 
z
" transform="scale(0.015625)"/>
      </defs>
      <use xlink:href="#DejaVuSans-74"/>
      <use xlink:href="#DejaVuSans-20" transform="translate(39.208984 0)"/>
      <use xlink:href="#DejaVuSans-5b" transform="translate(70.996094 0)"/>
      <use xlink:href="#DejaVuSans-73" transform="translate(110.009766 0)"/>
      <use xlink:href="#DejaVuSans-5d" transform="translate(162.109375 0)"/>
     </g>
    </g>
   </g>
   <g id="matplotlib.axis_2">
    <g id="ytick_1">
     <g id="line2d_13">
      <path d="M 48.08 304.805455 
L 853.2 304.805455 
" clip-path="url(#p2f1ceec7dc)" style="fill: none; stroke: #b0b0b0; stroke-opacity: 0.3; stroke-width: 0.8; stroke-linecap: square"/>
     </g>
     <g id="line2d_14">
      <defs>
       <path id="mb464d3c017" d="M 0 0 
L -3.5 0 
" style="stroke: #000000; stroke-width: 0.8"/>
      </defs>
      <g>
       <use xlink:href="#mb464d3c017" x="48.08" y="304.805455" style="stroke: #000000; stroke-width: 0.8"/>
      </g>
     </g>
     <g id="text_8">
      <!-- 0.0 -->
      <g transform="translate(25.176875 308.604673) scale(0.1 -0.1)">
       <defs>
        <path id="DejaVuSans-2e" d="M 684 794 
L 1344 794 
L 1344 0 
L 684 0 
L 684 794 
z
" transform="scale(0.015625)"/>
       </defs>
       <use xlink:href="#DejaVuSans-30"/>
       <use xlink:href="#DejaVuSans-2e" transform="translate(63.623047 0)"/>
       <use xlink:href="#DejaVuSans-30" transform="translate(95.410156 0)"/>
      </g>
     </g>
    </g>
    <g id="ytick_2">
     <g id="line2d_15">
      <path d="M 48.08 249.783557 
L 853.2 249.783557 
" clip-path="url(#p2f1ceec7dc)" style="fill: none; stroke: #b0b0b0; stroke-opacity: 0.3; stroke-width: 0.8; stroke-linecap: square"/>
     </g>
     <g id="line2d_16">
      <g>
       <use xlink:href="#mb464d3c017" x="48.08" y="249.783557" style="stroke: #000000; stroke-width: 0.8"/>
      </g>
     </g>
     <g id="text_9">
      <!-- 0.2 -->
      <g transform="translate(25.176875 253.582776) scale(0.1 -0.1)">
       <use xlink:href="#DejaVuSans-30"/>
       <use xlink:href="#DejaVuSans-2e" transform="translate(63.623047 0)"/>
       <use xlink:href="#DejaVuSans-32" transform="translate(95.410156 0)"/>
      </g>
     </g>
    </g>
    <g id="ytick_3">
     <g id="line2d_17">
      <path d="M 48.08 194.76166 
L 853.2 194.76166 
" clip-path="url(#p2f1ceec7dc)" style="fill: none; stroke: #b0b0b0; stroke-opacity: 0.3; stroke-width: 0.8; stroke-linecap: square"/>
     </g>
     <g id="line2d_18">
      <g>
       <use xlink:href="#mb464d3c017" x="48.08" y="194.76166" style="stroke: #000000; stroke-width: 0.8"/>
      </g>
     </g>
     <g id="text_10">
      <!-- 0.4 -->
      <g transform="translate(25.176875 198.560879) scale(0.1 -0.1)">
       <use xlink:href="#DejaVuSans-30"/>
       <use xlink:href="#DejaVuSans-2e" transform="translate(63.623047 0)"/>
       <use xlink:href="#DejaVuSans-34" transform="translate(95.410156 0)"/>
      </g>
     </g>
    </g>
    <g id="ytick_4">
     <g id="line2d_19">
      <path d="M 48.08 139.739763 
L 853.2 139.739763 
" clip-path="url(#p2f1ceec7dc)" style="fill: none; stroke: #b0b0b0; stroke-opacity: 0.3; stroke-width: 0.8; stroke-linecap: square"/>
     </g>
     <g id="line2d_20">
      <g>
       <use xlink:href="#mb464d3c017" x="48.08" y="139.739763" style="stroke: #000000; stroke-width: 0.8"/>
      </g>
     </g>
     <g id="text_11">
      <!-- 0.6 -->
      <g transform="translate(25.176875 143.538982) scale(0.1 -0.1)">
       <use xlink:href="#DejaVuSans-30"/>
       <use xlink:href="#DejaVuSans-2e" transform="translate(63.623047 0)"/>
       <use xlink:href="#DejaVuSans-36" transform="translate(95.410156 0)"/>
      </g>
     </g>
    </g>
    <g id="ytick_5">
     <g id="line2d_21">
      <path d="M 48.08 84.717866 
L 853.2 84.717866 
" clip-path="url(#p2f1ceec7dc)" style="fill: none; stroke: #b0b0b0; stroke-opacity: 0.3; stroke-width: 0.8; stroke-linecap: square"/>
     </g>
     <g id="line2d_22">
      <g>
       <use xlink:href="#mb464d3c017" x="48.08" y="84.717866" style="stroke: #000000; stroke-width: 0.8"/>
      </g>
     </g>
     <g id="text_12">
      <!-- 0.8 -->
      <g transform="translate(25.176875 88.517085) scale(0.1 -0.1)">
       <use xlink:href="#DejaVuSans-30"/>
       <use xlink:href="#DejaVuSans-2e" transform="translate(63.623047 0)"/>
       <use xlink:href="#DejaVuSans-38" transform="translate(95.410156 0)"/>
      </g>
     </g>
    </g>
    <g id="ytick_6">
     <g id="line2d_23">
      <path d="M 48.08 29.695969 
L 853.2 29.695969 
" clip-path="url(#p2f1ceec7dc)" style="fill: none; stroke: #b0b0b0; stroke-opacity: 0.3; stroke-width: 0.8; stroke-linecap: square"/>
     </g>
     <g id="line2d_24">
      <g>
       <use xlink:href="#mb464d3c017" x="48.08" y="29.695969" style="stroke: #000000; stroke-width: 0.8"/>
      </g>
     </g>
     <g id="text_13">
      <!-- 1.0 -->
      <g transform="translate(25.176875 33.495188) scale(0.1 -0.1)">
       <use xlink:href="#DejaVuSans-31"/>
       <use xlink:href="#DejaVuSans-2e" transform="translate(63.623047 0)"/>
       <use xlink:href="#DejaVuSans-30" transform="translate(95.410156 0)"/>
      </g>
     </g>
    </g>
    <g id="text_14">
     <!-- ||pos error|| [m] -->
     <g transform="translate(18.819062 212.088125) rotate(-90) scale(0.1 -0.1)">
      <defs>
       <path id="DejaVuSans-7c" d="M 1344 4891 
L 1344 -1509 
L 813 -1509 
L 813 4891 
L 1344 4891 
z
" transform="scale(0.015625)"/>
       <path id="DejaVuSans-70" d="M 1159 525 
L 1159 -1331 
L 581 -1331 
L 581 3500 
L 1159 3500 
L 1159 2969 
Q 1341 3281 1617 3432 
Q 1894 3584 2278 3584 
Q 2916 3584 3314 3078 
Q 3713 2572 3713 1747 
Q 3713 922 3314 415 
Q 2916 -91 2278 -91 
Q 1894 -91 1617 61 
Q 1341 213 1159 525 
z
M 3116 1747 
Q 3116 2381 2855 2742 
Q 2594 3103 2138 3103 
Q 1681 3103 1420 2742 
Q 1159 2381 1159 1747 
Q 1159 1113 1420 752 
Q 1681 391 2138 391 
Q 2594 391 2855 752 
Q 3116 1113 3116 1747 
z
" transform="scale(0.015625)"/>
       <path id="DejaVuSans-6f" d="M 1959 3097 
Q 1497 3097 1228 2736 
Q 959 2375 959 1747 
Q 959 1119 1226 758 
Q 1494 397 1959 397 
Q 2419 397 2687 759 
Q 2956 1122 2956 1747 
Q 2956 2369 2687 2733 
Q 2419 3097 1959 3097 
z
M 1959 3584 
Q 2709 3584 3137 3096 
Q 3566 2609 3566 1747 
Q 3566 888 3137 398 
Q 2709 -91 1959 -91 
Q 1206 -91 779 398 
Q 353 888 353 1747 
Q 353 2609 779 3096 
Q 1206 3584 1959 3584 
z
" transform="scale(0.015625)"/>
       <path id="DejaVuSans-65" d="M 3597 1894 
L 3597 1613 
L 953 1613 
Q 991 1019 1311 708 
Q 1631 397 2203 397 
Q 2534 397 2845 478 
Q 3156 559 3463 722 
L 3463 178 
Q 3153 47 2828 -22 
Q 2503 -91 2169 -91 
Q 1331 -91 842 396 
Q 353 884 353 1716 
Q 353 2575 817 3079 
Q 1281 3584 2069 3584 
Q 2775 3584 3186 3129 
Q 3597 2675 3597 1894 
z
M 3022 2063 
Q 3016 2534 2758 2815 
Q 2500 3097 2075 3097 
Q 1594 3097 1305 2825 
Q 1016 2553 972 2059 
L 3022 2063 
z
" transform="scale(0.015625)"/>
       <path id="DejaVuSans-72" d="M 2631 2963 
Q 2534 3019 2420 3045 
Q 2306 3072 2169 3072 
Q 1681 3072 1420 2755 
Q 1159 2438 1159 1844 
L 1159 0 
L 581 0 
L 581 3500 
L 1159 3500 
L 1159 2956 
Q 1341 3275 1631 3429 
Q 1922 3584 2338 3584 
Q 2397 3584 2469 3576 
Q 2541 3569 2628 3553 
L 2631 2963 
z
" transform="scale(0.015625)"/>
       <path id="DejaVuSans-6d" d="M 3328 2828 
Q 3544 3216 3844 3400 
Q 4144 3584 4550 3584 
Q 5097 3584 5394 3201 
Q 5691 2819 5691 2113 
L 5691 0 
L 5113 0 
L 5113 2094 
Q 5113 2597 4934 2840 
Q 4756 3084 4391 3084 
Q 3944 3084 3684 2787 
Q 3425 2491 3425 1978 
L 3425 0 
L 2847 0 
L 2847 2094 
Q 2847 2600 2669 2842 
Q 2491 3084 2119 3084 
Q 1678 3084 1418 2786 
Q 1159 2488 1159 1978 
L 1159 0 
L 581 0 
L 581 3500 
L 1159 3500 
L 1159 2956 
Q 1356 3278 1631 3431 
Q 1906 3584 2284 3584 
Q 2666 3584 2933 3390 
Q 3200 3197 3328 2828 
z
" transform="scale(0.015625)"/>
      </defs>
      <use xlink:href="#DejaVuSans-7c"/>
      <use xlink:href="#DejaVuSans-7c" transform="translate(33.691406 0)"/>
      <use xlink:href="#DejaVuSans-70" transform="translate(67.382812 0)"/>
      <use xlink:href="#DejaVuSans-6f" transform="translate(130.859375 0)"/>
      <use xlink:href="#DejaVuSans-73" transform="translate(192.041016 0)"/>
      <use xlink:href="#DejaVuSans-20" transform="translate(244.140625 0)"/>
      <use xlink:href="#DejaVuSans-65" transform="translate(275.927734 0)"/>
      <use xlink:href="#DejaVuSans-72" transform="translate(337.451172 0)"/>
      <use xlink:href="#DejaVuSans-72" transform="translate(376.814453 0)"/>
      <use xlink:href="#DejaVuSans-6f" transform="translate(415.677734 0)"/>
      <use xlink:href="#DejaVuSans-72" transform="translate(476.859375 0)"/>
      <use xlink:href="#DejaVuSans-7c" transform="translate(517.972656 0)"/>
      <use xlink:href="#DejaVuSans-7c" transform="translate(551.664062 0)"/>
      <use xlink:href="#DejaVuSans-20" transform="translate(585.355469 0)"/>
      <use xlink:href="#DejaVuSans-5b" transform="translate(617.142578 0)"/>
      <use xlink:href="#DejaVuSans-6d" transform="translate(656.15625 0)"/>
      <use xlink:href="#DejaVuSans-5d" transform="translate(753.568359 0)"/>
     </g>
    </g>
   </g>
   <g id="line2d_25">
    <path d="M 84.676364 304.805455 
L 86.141684 167.902536 
L 86.874343 115.550321 
L 87.607003 76.712566 
L 88.339663 51.970894 
L 89.072323 40.593158 
L 89.804983 40.114545 
L 90.537643 46.384771 
L 92.002963 66.298698 
L 92.735623 79.22397 
L 93.468283 95.274705 
L 95.666263 149.176644 
L 97.131582 179.213434 
L 98.596902 204.352096 
L 100.062222 224.930479 
L 101.527542 241.175868 
L 102.992862 253.332648 
L 103.725522 257.953202 
L 104.458182 261.607438 
L 105.190842 264.268328 
L 105.923502 266.019334 
L 106.656162 267.054437 
L 107.388822 267.555297 
L 108.121481 267.640661 
L 108.854141 267.37006 
L 110.319461 266.169535 
L 113.250101 263.453583 
L 114.715421 262.373222 
L 116.180741 261.633481 
L 117.646061 261.276523 
L 119.11138 261.239174 
L 120.5767 261.483846 
L 122.04202 261.948641 
L 124.24 262.917878 
L 125.70532 263.744226 
L 127.9033 265.306083 
L 130.833939 267.799657 
L 135.229899 271.535214 
L 137.427879 273.264499 
L 140.358519 275.210921 
L 141.823838 276.031776 
L 143.289158 276.616226 
L 145.487138 277.118045 
L 147.685118 277.659104 
L 152.081077 278.927906 
L 154.279057 279.350994 
L 156.477037 279.513276 
L 157.942357 279.50711 
L 162.338316 279.20196 
L 165.268956 279.026408 
L 168.932256 278.709643 
L 174.060875 278.984442 
L 176.991515 279.0607 
L 179.189495 279.004727 
L 181.387475 278.722882 
L 185.050774 278.222242 
L 190.912054 278.06283 
L 196.040673 278.817068 
L 200.436633 279.157879 
L 203.367273 279.785746 
L 207.030572 280.16964 
L 210.693872 280.856318 
L 214.357172 281.053854 
L 218.020471 281.065525 
L 222.416431 281.729156 
L 224.614411 281.804742 
L 228.27771 281.937633 
L 231.20835 281.662514 
L 232.67367 281.893774 
L 234.87165 282.598953 
L 236.33697 283.055343 
L 237.80229 283.301103 
L 239.267609 283.22582 
L 241.465589 282.934262 
L 243.663569 282.955931 
L 249.524848 283.276558 
L 250.990168 283.120339 
L 253.188148 282.599133 
L 256.851448 281.625183 
L 262.712727 280.178207 
L 264.910707 279.90546 
L 266.376027 279.931385 
L 268.574007 280.280492 
L 272.969966 281.272316 
L 275.167946 282.121235 
L 280.296566 284.226298 
L 281.761886 284.67709 
L 283.959865 285.299429 
L 286.157845 286.289368 
L 288.355825 287.305226 
L 289.821145 287.707937 
L 291.286465 287.732356 
L 292.751785 287.461453 
L 298.613064 285.818467 
L 303.741684 285.272821 
L 305.207003 285.43672 
L 308.137643 285.869145 
L 311.068283 285.810927 
L 312.533603 285.612577 
L 315.464242 284.997074 
L 319.860202 284.329716 
L 322.058182 283.520983 
L 330.117441 280.336837 
L 331.582761 279.786876 
L 332.315421 279.611556 
L 333.780741 279.548665 
L 336.71138 279.653038 
L 338.90936 279.955833 
L 341.84 280.454749 
L 343.30532 280.417475 
L 345.5033 280.325971 
L 348.433939 280.417743 
L 349.899259 280.225746 
L 351.364579 280.066327 
L 352.829899 280.272845 
L 356.493199 281.178301 
L 357.958519 281.19507 
L 360.889158 280.766928 
L 363.087138 280.555954 
L 366.017778 280.430997 
L 368.948418 280.288797 
L 373.344377 279.937736 
L 375.542357 279.705383 
L 378.472997 279.14567 
L 381.403636 278.46856 
L 384.334276 278.090752 
L 385.799596 278.058124 
L 390.928215 278.82075 
L 393.858855 279.252335 
L 396.056835 279.597095 
L 397.522155 280.015283 
L 399.720135 280.899097 
L 402.650774 282.065061 
L 406.314074 283.35523 
L 409.244714 284.231349 
L 413.640673 286.096444 
L 415.105993 286.405387 
L 417.303973 286.570602 
L 419.501953 286.832355 
L 421.699933 287.395992 
L 426.095892 288.680617 
L 429.759192 289.460512 
L 434.887811 291.566127 
L 437.085791 292.089859 
L 440.016431 292.471303 
L 445.87771 292.943482 
L 450.27367 293.344848 
L 453.20431 293.831611 
L 455.40229 294.403302 
L 457.600269 295.2097 
L 461.996229 297.126711 
L 464.194209 297.529162 
L 473.718788 298.732438 
L 475.184108 298.63175 
L 477.382088 298.397734 
L 479.580067 298.460967 
L 482.510707 298.621709 
L 484.708687 298.392557 
L 487.639327 297.746934 
L 489.104646 297.249091 
L 500.827205 292.181104 
L 505.223165 290.791486 
L 506.688485 290.652006 
L 508.886465 290.821157 
L 510.351785 290.924555 
L 511.817104 290.825813 
L 516.945724 290.175536 
L 519.876364 289.660821 
L 522.074343 289.147936 
L 525.737643 288.101739 
L 535.262222 285.375899 
L 537.460202 284.878679 
L 545.519461 282.73754 
L 546.984781 282.727343 
L 550.648081 282.937035 
L 555.7767 282.766666 
L 560.17266 282.329416 
L 563.1033 282.141361 
L 572.627879 280.444996 
L 575.558519 280.191912 
L 580.687138 279.54831 
L 585.815758 279.301266 
L 590.944377 279.811824 
L 593.142357 280.149625 
L 594.607677 280.234063 
L 596.072997 280.119493 
L 599.003636 279.750813 
L 603.399596 279.523911 
L 604.864916 279.482286 
L 606.330236 279.649007 
L 610.726195 280.374186 
L 612.924175 280.434595 
L 615.122155 280.227145 
L 618.785455 279.672574 
L 620.250774 279.760369 
L 624.646734 280.473647 
L 630.508013 281.997986 
L 634.903973 283.287296 
L 639.299933 284.37478 
L 643.695892 285.02289 
L 646.626532 285.291128 
L 650.289832 285.811963 
L 652.487811 285.742058 
L 658.349091 285.080797 
L 664.21037 284.094478 
L 666.40835 283.718499 
L 667.87367 283.633044 
L 671.53697 283.614538 
L 683.259529 281.958333 
L 685.457508 281.379279 
L 689.120808 280.299915 
L 691.318788 279.912236 
L 692.784108 279.837752 
L 694.249428 280.062137 
L 697.912727 280.95121 
L 700.843367 280.986539 
L 706.704646 280.337874 
L 711.100606 279.814485 
L 712.565926 279.646824 
L 714.763906 279.767133 
L 722.823165 280.390965 
L 725.021145 280.508332 
L 727.951785 280.783442 
L 730.149764 280.72743 
L 732.347744 280.800157 
L 738.941684 280.765056 
L 742.604983 281.359168 
L 745.535623 281.311292 
L 747.733603 281.127729 
L 749.198923 281.286853 
L 751.396902 281.915093 
L 753.594882 282.523459 
L 759.456162 283.335086 
L 763.119461 283.525408 
L 768.248081 284.065907 
L 770.446061 284.43584 
L 772.64404 284.749946 
L 779.23798 286.083736 
L 781.43596 286.103037 
L 784.366599 286.18558 
L 788.029899 286.373159 
L 793.891178 286.467519 
L 795.356498 286.784621 
L 796.821818 287.375583 
L 798.287138 288.192696 
L 806.346397 293.284625 
L 809.277037 294.732104 
L 813.672997 296.60786 
L 816.603636 297.806104 
L 816.603636 297.806104 
" clip-path="url(#p2f1ceec7dc)" style="fill: none; stroke: #888888; stroke-opacity: 0.6; stroke-linecap: square"/>
   </g>
   <g id="line2d_26">
    <path d="M 84.676364 304.805455 
L 86.141684 170.512917 
L 86.874343 120.526442 
L 87.607003 84.675965 
L 88.339663 63.517175 
L 89.072323 56.371919 
L 89.804983 60.900085 
L 90.537643 73.04287 
L 92.002963 101.050223 
L 93.468283 124.615473 
L 94.200943 139.444772 
L 94.933603 158.53554 
L 95.666263 182.053335 
L 97.864242 267.905399 
L 98.596902 282.25551 
L 99.329562 289.161134 
L 100.062222 293.116698 
L 100.794882 295.96392 
L 101.527542 297.60305 
L 102.260202 297.907204 
L 102.992862 297.594264 
L 103.725522 297.492784 
L 104.458182 298.025962 
L 105.190842 299.280181 
L 105.923502 300.820829 
L 106.656162 301.37535 
L 109.586801 298.693846 
L 111.784781 295.253018 
L 112.517441 295.007439 
L 113.250101 295.877056 
L 114.715421 299.879557 
L 115.448081 300.890433 
L 116.180741 300.415513 
L 117.646061 298.440477 
L 119.11138 295.680351 
L 119.84404 294.306566 
L 120.5767 293.360724 
L 121.30936 293.230501 
L 122.04202 294.186321 
L 123.50734 298.427679 
L 124.24 299.815394 
L 124.97266 299.83227 
L 125.70532 299.225056 
L 126.43798 298.238441 
L 127.17064 296.742238 
L 128.63596 293.22742 
L 129.36862 292.191854 
L 130.101279 292.232266 
L 130.833939 293.417391 
L 133.031919 299.617474 
L 133.764579 300.086461 
L 134.497239 299.756621 
L 135.229899 298.466421 
L 136.695219 294.241927 
L 137.427879 293.083106 
L 138.160539 293.352882 
L 138.893199 294.981847 
L 140.358519 299.66486 
L 141.091178 301.036306 
L 141.823838 300.474871 
L 142.556498 298.74845 
L 144.021818 294.479853 
L 144.754478 293.074177 
L 145.487138 292.853644 
L 146.219798 294.021697 
L 148.417778 300.662384 
L 149.150438 300.992098 
L 149.883098 299.641372 
L 152.081077 293.116188 
L 152.813737 292.273888 
L 153.546397 292.867362 
L 154.279057 294.776069 
L 155.744377 299.368824 
L 156.477037 300.301314 
L 157.209697 299.55236 
L 157.942357 297.769534 
L 159.407677 293.542412 
L 160.140337 292.110621 
L 160.872997 291.57516 
L 161.605657 291.937799 
L 163.070976 293.85229 
L 164.536296 296.230563 
L 165.268956 296.948178 
L 166.001616 296.45379 
L 167.466936 293.165585 
L 168.199596 292.212249 
L 168.932256 292.217852 
L 170.397576 293.840362 
L 171.862896 294.664395 
L 172.595556 295.219667 
L 173.328215 295.493405 
L 174.060875 294.855984 
L 175.526195 291.683479 
L 176.258855 290.570105 
L 176.991515 290.144535 
L 177.724175 290.36951 
L 178.456835 291.157225 
L 179.922155 293.590197 
L 180.654815 294.86046 
L 181.387475 295.551795 
L 182.120135 295.127006 
L 182.852795 293.613105 
L 183.585455 291.776168 
L 184.318114 290.283207 
L 185.050774 289.418243 
L 185.783434 289.262521 
L 186.516094 289.713058 
L 187.981414 291.507197 
L 189.446734 293.358255 
L 190.179394 293.636945 
L 190.912054 292.917102 
L 192.377374 290.138383 
L 193.110034 289.269159 
L 193.842694 289.046431 
L 194.575354 289.366913 
L 195.308013 289.94655 
L 196.773333 291.644948 
L 197.505993 292.54626 
L 198.238653 293.051251 
L 198.971313 292.767853 
L 199.703973 291.614546 
L 201.169293 288.58259 
L 201.901953 287.539754 
L 202.634613 287.006452 
L 203.367273 287.013636 
L 204.099933 287.560816 
L 204.832593 288.565298 
L 206.297912 291.150909 
L 207.030572 292.052133 
L 207.763232 292.12431 
L 208.495892 291.171364 
L 210.693872 286.427281 
L 211.426532 285.296504 
L 212.159192 284.663871 
L 212.891852 284.759252 
L 213.624512 285.748757 
L 215.089832 289.423761 
L 215.822492 291.172646 
L 216.555152 292.276575 
L 217.287811 292.542444 
L 218.020471 291.970481 
L 218.753131 290.710907 
L 220.218451 287.506128 
L 220.951111 286.425369 
L 221.683771 285.991905 
L 222.416431 286.340731 
L 223.149091 287.441015 
L 224.614411 290.317236 
L 225.347071 291.305564 
L 226.079731 291.534817 
L 226.812391 290.866156 
L 229.01037 286.837462 
L 229.74303 286.056503 
L 230.47569 285.872624 
L 231.20835 286.360233 
L 231.94101 287.52436 
L 233.40633 290.324122 
L 234.13899 291.145529 
L 234.87165 291.231063 
L 235.60431 290.57342 
L 237.80229 286.932292 
L 238.534949 286.298737 
L 239.267609 286.192691 
L 240.000269 286.6147 
L 240.732929 287.49976 
L 242.930909 291.262774 
L 243.663569 291.999682 
L 244.396229 291.99247 
L 245.128889 291.093981 
L 246.594209 288.151833 
L 247.326869 287.086265 
L 248.059529 286.569679 
L 248.792189 286.60634 
L 249.524848 287.10994 
L 250.257508 288.051144 
L 251.722828 291.102927 
L 252.455488 292.637545 
L 253.188148 293.715941 
L 253.920808 294.013155 
L 254.653468 293.330954 
L 255.386128 291.788217 
L 256.118788 289.945718 
L 256.851448 288.541012 
L 257.584108 288.021864 
L 258.316768 288.414844 
L 259.049428 289.543089 
L 260.514747 292.600832 
L 261.247407 293.304287 
L 261.980067 292.991665 
L 262.712727 291.733979 
L 264.910707 286.02589 
L 265.643367 285.171306 
L 266.376027 285.343703 
L 267.108687 286.489481 
L 267.841347 288.34176 
L 269.306667 292.671378 
L 270.039327 294.299667 
L 270.771987 295.187504 
L 271.504646 295.21534 
L 272.237306 294.383699 
L 272.969966 292.821407 
L 275.167946 286.905772 
L 275.900606 285.912403 
L 276.633266 285.788564 
L 277.365926 286.436206 
L 278.098586 287.733781 
L 280.296566 292.535687 
L 281.029226 292.982256 
L 281.761886 292.346329 
L 282.494545 290.774525 
L 283.959865 286.916453 
L 284.692525 285.657155 
L 285.425185 285.315811 
L 286.157845 285.816147 
L 286.890505 286.848233 
L 289.088485 290.749513 
L 289.821145 291.543075 
L 290.553805 291.807497 
L 291.286465 291.348374 
L 292.019125 290.079116 
L 293.484444 286.73408 
L 294.217104 285.644498 
L 294.949764 285.349428 
L 295.682424 285.922034 
L 296.415084 287.083374 
L 298.613064 291.176795 
L 299.345724 291.85999 
L 300.078384 291.950294 
L 300.811044 291.494382 
L 301.543704 290.562578 
L 303.009024 287.866671 
L 303.741684 286.431789 
L 304.474343 285.284642 
L 305.207003 284.548622 
L 305.939663 284.3047 
L 306.672323 284.646834 
L 307.404983 285.630185 
L 309.602963 290.287509 
L 310.335623 291.313609 
L 311.068283 291.901967 
L 312.533603 292.649245 
L 313.266263 292.767067 
L 313.998923 292.447835 
L 314.731582 291.514989 
L 315.464242 289.978755 
L 316.929562 286.404827 
L 317.662222 285.075122 
L 318.394882 284.375065 
L 319.127542 284.436624 
L 319.860202 285.208969 
L 320.592862 286.595759 
L 322.790842 292.571449 
L 323.523502 293.613651 
L 324.256162 293.581108 
L 324.988822 292.616167 
L 326.454141 289.411242 
L 327.186801 287.650041 
L 327.919461 286.375067 
L 328.652121 285.838177 
L 329.384781 285.976582 
L 330.117441 286.847557 
L 330.850101 288.405073 
L 332.315421 291.841286 
L 333.048081 292.696703 
L 333.780741 292.706287 
L 334.513401 292.058845 
L 335.246061 290.950652 
L 337.44404 286.735011 
L 338.1767 286.343814 
L 338.90936 286.862932 
L 339.64202 288.097727 
L 341.10734 291.345288 
L 341.84 292.59013 
L 342.57266 293.098883 
L 343.30532 292.86861 
L 344.03798 292.260014 
L 344.77064 291.397855 
L 345.5033 290.175942 
L 346.96862 287.339679 
L 347.701279 286.243595 
L 348.433939 285.589999 
L 349.166599 285.403299 
L 349.899259 285.588673 
L 350.631919 286.028954 
L 351.364579 286.712058 
L 352.097239 287.726599 
L 352.829899 289.153766 
L 355.027879 294.390916 
L 355.760539 295.206268 
L 356.493199 295.411824 
L 357.225859 295.094046 
L 357.958519 294.067342 
L 358.691178 292.367642 
L 360.156498 288.274813 
L 360.889158 286.833796 
L 361.621818 286.363107 
L 362.354478 286.9785 
L 363.087138 288.363335 
L 365.285118 293.570656 
L 366.017778 294.940204 
L 366.750438 295.826869 
L 367.483098 295.910553 
L 368.215758 294.900871 
L 370.413737 289.300949 
L 371.146397 288.075773 
L 371.879057 287.519757 
L 372.611717 287.685255 
L 373.344377 288.519304 
L 374.077037 289.767455 
L 376.275017 294.394939 
L 377.007677 295.163669 
L 377.740337 294.948511 
L 378.472997 293.97159 
L 381.403636 289.239785 
L 382.136296 288.510075 
L 382.868956 288.332518 
L 383.601616 288.876138 
L 384.334276 289.984046 
L 385.799596 292.745351 
L 386.532256 293.664433 
L 387.264916 294.001759 
L 387.997576 294.193138 
L 390.195556 295.545947 
L 390.928215 295.600872 
L 391.660875 295.344372 
L 392.393535 294.868994 
L 393.858855 293.545573 
L 394.591515 292.699317 
L 396.056835 290.414757 
L 396.789495 289.3183 
L 397.522155 288.672022 
L 398.254815 288.782552 
L 398.987475 289.715983 
L 400.452795 292.277405 
L 401.185455 293.184633 
L 401.918114 293.676673 
L 403.383434 294.185437 
L 404.116094 294.327256 
L 404.848754 294.145057 
L 405.581414 293.495047 
L 407.779394 290.510465 
L 408.512054 289.947124 
L 409.244714 289.737786 
L 409.977374 289.892467 
L 410.710034 290.410007 
L 411.442694 291.229429 
L 413.640673 294.119759 
L 414.373333 294.459198 
L 416.571313 294.415161 
L 417.303973 294.436564 
L 418.769293 294.264303 
L 419.501953 294.360939 
L 420.234613 294.752316 
L 421.699933 296.229618 
L 422.432593 296.672823 
L 425.363232 296.71573 
L 426.095892 296.371495 
L 426.828552 295.84156 
L 427.561212 295.524149 
L 428.293872 295.602111 
L 429.759192 296.355373 
L 431.224512 297.214946 
L 431.957172 297.45117 
L 432.689832 297.316368 
L 433.422492 296.665694 
L 434.155152 295.813512 
L 434.887811 295.363755 
L 435.620471 295.609178 
L 436.353131 296.51109 
L 437.818451 298.893891 
L 439.283771 300.662185 
L 440.016431 301.330587 
L 440.749091 301.454033 
L 441.481751 300.96171 
L 442.214411 300.201052 
L 442.947071 299.63523 
L 443.679731 299.497573 
L 446.61037 299.976742 
L 447.34303 300.469867 
L 448.07569 301.242819 
L 448.80835 302.208408 
L 449.54101 302.712338 
L 450.27367 302.278675 
L 452.47165 299.791557 
L 453.20431 299.112882 
L 453.93697 298.858209 
L 454.66963 299.311411 
L 456.134949 301.523882 
L 456.867609 302.01763 
L 458.332929 300.280101 
L 459.065589 300.160601 
L 459.798249 300.598941 
L 460.530909 300.824549 
L 461.996229 300.282988 
L 462.728889 300.385872 
L 463.461549 300.844503 
L 465.659529 302.832394 
L 466.392189 302.358816 
L 468.590168 298.236097 
L 469.322828 297.775581 
L 470.055488 298.064814 
L 470.788148 298.959997 
L 472.253468 301.4212 
L 472.986128 301.754686 
L 474.451448 301.301383 
L 475.916768 301.403714 
L 476.649428 300.973225 
L 477.382088 300.113559 
L 478.847407 298.142393 
L 479.580067 297.497065 
L 480.312727 297.074767 
L 481.045387 296.804753 
L 481.778047 296.66088 
L 482.510707 296.650638 
L 483.243367 296.786613 
L 483.976027 297.070744 
L 485.441347 298.00549 
L 487.639327 299.617437 
L 489.837306 300.583058 
L 490.569966 300.597664 
L 491.302626 300.124677 
L 492.035286 299.200532 
L 493.500606 296.669626 
L 494.233266 295.731323 
L 494.965926 295.464018 
L 495.698586 296.000946 
L 497.163906 298.684541 
L 497.896566 299.235983 
L 498.629226 298.70971 
L 500.827205 295.247939 
L 501.559865 294.463115 
L 502.292525 293.905222 
L 503.025185 293.67215 
L 503.757845 293.78145 
L 504.490505 294.285675 
L 505.223165 295.3271 
L 505.955825 297.030445 
L 507.421145 301.259576 
L 508.153805 302.340272 
L 508.886465 301.818222 
L 509.619125 300.183446 
L 511.817104 294.00075 
L 512.549764 292.458828 
L 513.282424 291.577309 
L 514.015084 291.456403 
L 514.747744 292.121595 
L 515.480404 293.535211 
L 517.678384 299.425605 
L 518.411044 300.754616 
L 519.143704 301.076279 
L 519.876364 300.302703 
L 520.609024 298.708372 
L 522.807003 292.531765 
L 523.539663 291.416917 
L 524.272323 291.320508 
L 525.004983 292.183413 
L 525.737643 293.812644 
L 527.202963 297.545496 
L 527.935623 298.808417 
L 528.668283 299.336081 
L 529.400943 299.015465 
L 530.133603 298.033223 
L 531.598923 295.057429 
L 533.064242 291.977614 
L 533.796902 291.013585 
L 534.529562 290.574916 
L 535.262222 290.792552 
L 535.994882 291.688876 
L 536.727542 293.16778 
L 538.192862 296.757899 
L 538.925522 297.679141 
L 539.658182 297.471829 
L 540.390842 296.244214 
L 542.588822 290.024412 
L 543.321481 288.751238 
L 544.054141 288.229229 
L 544.786801 288.291256 
L 545.519461 288.701296 
L 546.984781 289.927183 
L 548.450101 291.658893 
L 549.915421 293.465678 
L 550.648081 293.77529 
L 551.380741 293.340266 
L 552.846061 291.842499 
L 553.578721 291.495936 
L 555.04404 291.380158 
L 555.7767 290.99896 
L 557.24202 289.485511 
L 557.97468 289.177075 
L 558.70734 289.500072 
L 560.17266 290.89881 
L 560.90532 291.177273 
L 562.37064 290.981596 
L 564.56862 291.25366 
L 565.301279 290.588688 
L 566.766599 288.261301 
L 567.499259 287.396452 
L 568.231919 286.893084 
L 568.964579 286.743734 
L 569.697239 287.044261 
L 570.429899 287.790064 
L 571.895219 290.171873 
L 572.627879 291.446398 
L 573.360539 292.478575 
L 574.093199 293.069788 
L 574.825859 293.190583 
L 575.558519 292.887126 
L 576.291178 292.156239 
L 577.023838 290.95004 
L 579.954478 284.43536 
L 580.687138 283.978477 
L 581.419798 284.275198 
L 582.152458 285.183564 
L 582.885118 286.527848 
L 584.350438 289.805539 
L 585.083098 291.014306 
L 585.815758 291.512131 
L 586.548418 291.238267 
L 587.281077 290.241262 
L 588.013737 288.560065 
L 589.479057 284.748458 
L 590.211717 283.576928 
L 590.944377 283.254913 
L 591.677037 283.816565 
L 592.409697 285.136658 
L 594.607677 290.540584 
L 595.340337 291.282906 
L 596.072997 291.022867 
L 596.805657 289.815053 
L 599.003636 284.762623 
L 599.736296 283.770186 
L 600.468956 283.370728 
L 601.201616 283.62494 
L 601.934276 284.505345 
L 602.666936 285.945152 
L 604.864916 291.340331 
L 605.597576 292.359105 
L 606.330236 292.355425 
L 607.062896 291.346354 
L 609.993535 285.425352 
L 610.726195 284.455323 
L 611.458855 283.827914 
L 612.191515 283.572099 
L 612.924175 283.702744 
L 613.656835 284.195859 
L 614.389495 285.066249 
L 615.122155 286.321128 
L 617.320135 291.01657 
L 618.052795 291.397949 
L 618.785455 290.764079 
L 620.250774 288.177771 
L 621.716094 285.644347 
L 622.448754 284.861177 
L 623.181414 284.691793 
L 623.914074 285.252559 
L 624.646734 286.541264 
L 626.112054 290.303583 
L 626.844714 292.176795 
L 627.577374 293.522292 
L 628.310034 293.958069 
L 629.042694 293.285401 
L 629.775354 291.682651 
L 631.973333 285.953449 
L 632.705993 284.646566 
L 633.438653 283.819889 
L 634.171313 283.503281 
L 634.903973 283.696659 
L 635.636633 284.385172 
L 636.369293 285.593365 
L 637.101953 287.332073 
L 638.567273 291.365537 
L 639.299933 292.697354 
L 640.032593 292.883226 
L 640.765253 291.840437 
L 642.963232 286.132727 
L 643.695892 284.935084 
L 644.428552 284.581674 
L 645.161212 285.193602 
L 645.893872 286.714285 
L 647.359192 290.664791 
L 648.091852 291.977461 
L 648.824512 292.497648 
L 649.557172 292.209477 
L 650.289832 291.237771 
L 651.022492 289.690431 
L 653.220471 284.092975 
L 653.953131 282.925485 
L 654.685791 282.406262 
L 655.418451 282.518879 
L 656.151111 283.186739 
L 656.883771 284.330517 
L 657.616431 285.871337 
L 659.081751 289.642638 
L 659.814411 291.064416 
L 660.547071 291.681063 
L 661.279731 291.418532 
L 662.012391 290.386551 
L 664.21037 285.442828 
L 664.94303 284.709658 
L 665.67569 284.923375 
L 666.40835 286.065078 
L 668.60633 291.221233 
L 669.33899 292.220145 
L 670.07165 292.401588 
L 670.80431 291.591047 
L 671.53697 290.013736 
L 673.00229 286.09101 
L 673.734949 284.544165 
L 674.467609 283.652454 
L 675.200269 283.527796 
L 675.932929 284.205559 
L 676.665589 285.644111 
L 678.863569 291.346017 
L 679.596229 292.372523 
L 680.328889 292.46355 
L 681.061549 291.602256 
L 681.794209 290.041345 
L 683.259529 286.298385 
L 683.992189 285.282734 
L 684.724848 285.361264 
L 685.457508 286.395151 
L 686.922828 289.619472 
L 687.655488 290.898347 
L 688.388148 291.730753 
L 689.120808 291.863144 
L 689.853468 291.080796 
L 691.318788 287.747901 
L 692.051448 286.751583 
L 692.784108 286.736538 
L 693.516768 287.552259 
L 694.982088 290.26084 
L 695.714747 291.265088 
L 696.447407 291.798754 
L 697.180067 291.770218 
L 697.912727 290.966685 
L 699.378047 287.94625 
L 700.110707 287.040297 
L 700.843367 287.149708 
L 701.576027 288.218037 
L 703.041347 291.462515 
L 703.774007 292.475019 
L 704.506667 292.86634 
L 705.239327 292.755535 
L 705.971987 292.009447 
L 708.169966 287.9496 
L 708.902626 287.738604 
L 709.635286 288.544454 
L 710.367946 290.106592 
L 711.833266 293.773581 
L 712.565926 294.697026 
L 713.298586 294.693519 
L 714.031246 294.023598 
L 715.496566 292.218786 
L 717.694545 288.768713 
L 718.427205 288.216412 
L 719.159865 288.512776 
L 719.892525 289.659605 
L 721.357845 292.459959 
L 722.090505 293.185435 
L 723.555825 293.913007 
L 724.288485 294.152877 
L 725.021145 293.819353 
L 725.753805 292.650157 
L 727.219125 289.396428 
L 727.951785 288.503784 
L 728.684444 288.36415 
L 729.417104 288.917083 
L 730.149764 289.905398 
L 733.080404 295.039147 
L 733.813064 295.563096 
L 734.545724 294.971708 
L 735.278384 293.387762 
L 736.011044 291.522224 
L 736.743704 289.999 
L 737.476364 289.059605 
L 738.209024 288.763416 
L 738.941684 289.13825 
L 740.407003 290.829453 
L 741.872323 293.030597 
L 744.070303 296.818852 
L 744.802963 297.360622 
L 745.535623 297.338747 
L 746.268283 296.916189 
L 747.000943 296.197929 
L 747.733603 295.139415 
L 748.466263 293.589514 
L 749.198923 291.667873 
L 749.931582 290.138181 
L 750.664242 289.662741 
L 751.396902 290.387457 
L 753.594882 295.393388 
L 754.327542 295.948219 
L 755.060202 295.568975 
L 755.792862 294.508527 
L 756.525522 293.037524 
L 757.258182 291.826539 
L 757.990842 291.315991 
L 758.723502 291.440978 
L 759.456162 291.903207 
L 760.921481 293.256363 
L 761.654141 294.033963 
L 762.386801 294.522737 
L 763.119461 294.451109 
L 763.852121 293.700493 
L 765.317441 291.119662 
L 766.050101 290.547737 
L 766.782761 290.824624 
L 767.515421 291.82952 
L 768.980741 294.421521 
L 769.713401 295.163844 
L 770.446061 295.203197 
L 771.178721 294.690266 
L 773.3767 291.612436 
L 774.10936 291.435125 
L 774.84202 291.897443 
L 777.04 294.678489 
L 777.77266 295.148081 
L 778.50532 295.141639 
L 779.23798 294.617394 
L 779.97064 293.787574 
L 780.7033 293.231165 
L 781.43596 293.167671 
L 784.366599 294.353926 
L 785.831919 295.569683 
L 787.297239 296.770041 
L 788.029899 297.177227 
L 788.762559 297.347608 
L 789.495219 297.171563 
L 790.960539 295.870289 
L 791.693199 295.689635 
L 792.425859 296.136533 
L 793.158519 296.869046 
L 793.891178 297.272091 
L 795.356498 297.071983 
L 796.089158 297.267222 
L 796.821818 297.761126 
L 799.019798 299.747318 
L 799.752458 300.142018 
L 800.485118 300.035534 
L 801.217778 299.316808 
L 801.950438 298.434596 
L 802.683098 298.095087 
L 803.415758 298.541924 
L 804.881077 300.398639 
L 805.613737 300.920673 
L 806.346397 300.899403 
L 810.009697 299.040582 
L 810.742357 298.900036 
L 811.475017 299.200609 
L 812.207677 300.088508 
L 812.940337 301.158161 
L 813.672997 301.356402 
L 814.405657 299.9412 
L 815.138316 296.406733 
L 815.870976 290.278464 
L 816.603636 275.730501 
L 816.603636 275.730501 
" clip-path="url(#p2f1ceec7dc)" style="fill: none; stroke: #2ca02c; stroke-width: 1.2; stroke-linecap: square"/>
   </g>
   <g id="line2d_27">
    <path d="M 84.676364 304.805455 
L 86.141684 170.51232 
L 86.874343 120.485467 
L 87.607003 84.578614 
L 88.339663 63.394544 
L 89.072323 56.249717 
L 89.804983 60.871069 
L 90.537643 73.443987 
L 93.468283 138.663182 
L 94.200943 157.276388 
L 94.933603 179.046009 
L 96.398923 228.391495 
L 97.131582 247.105295 
L 97.864242 261.248187 
L 98.596902 271.288332 
L 99.329562 275.869303 
L 100.062222 278.11225 
L 100.794882 279.505959 
L 101.527542 280.450954 
L 102.260202 281.073643 
L 102.992862 281.452065 
L 104.458182 281.78877 
L 105.923502 281.827619 
L 107.388822 281.637096 
L 110.319461 281.101268 
L 111.784781 281.152642 
L 113.250101 281.54485 
L 115.448081 282.321273 
L 117.646061 282.788101 
L 119.84404 283.098291 
L 121.30936 282.984145 
L 124.97266 282.368035 
L 125.70532 282.391815 
L 126.43798 282.552016 
L 127.9033 283.265269 
L 130.833939 285.197552 
L 132.299259 286.143864 
L 133.031919 286.396017 
L 133.764579 286.451158 
L 135.229899 286.172664 
L 137.427879 285.378566 
L 139.625859 284.409142 
L 141.091178 283.677615 
L 143.289158 282.91255 
L 145.487138 282.434517 
L 146.952458 282.308964 
L 149.150438 282.442171 
L 152.081077 282.761303 
L 153.546397 283.195784 
L 155.011717 283.898988 
L 157.209697 285.251461 
L 158.675017 286.365536 
L 161.605657 288.942093 
L 162.338316 289.277284 
L 163.070976 289.356272 
L 166.734276 289.095636 
L 171.862896 289.517623 
L 173.328215 289.864424 
L 175.526195 290.650865 
L 176.991515 291.314863 
L 177.724175 291.515004 
L 179.189495 291.563551 
L 180.654815 291.324882 
L 182.852795 290.701251 
L 184.318114 290.482353 
L 185.783434 290.460156 
L 187.248754 290.674175 
L 188.714074 291.069663 
L 190.179394 291.64802 
L 192.377374 292.730868 
L 193.110034 292.927365 
L 193.842694 292.957013 
L 194.575354 292.808554 
L 200.436633 290.271253 
L 201.169293 290.181717 
L 201.901953 290.287584 
L 205.565253 291.443512 
L 207.030572 291.411064 
L 208.495892 291.037109 
L 210.693872 290.057618 
L 211.426532 289.744379 
L 212.159192 289.623102 
L 212.891852 289.753143 
L 215.089832 290.491173 
L 216.555152 290.664514 
L 219.485791 290.678855 
L 220.951111 290.855149 
L 222.416431 291.210703 
L 224.614411 291.913698 
L 226.079731 292.021908 
L 229.74303 291.824021 
L 231.94101 291.881276 
L 234.87165 291.563318 
L 238.534949 290.825939 
L 240.000269 290.767828 
L 242.198249 290.310375 
L 246.594209 289.143988 
L 250.257508 287.482932 
L 253.920808 286.318737 
L 254.653468 286.248574 
L 256.118788 286.447208 
L 257.584108 286.937604 
L 259.049428 287.598472 
L 261.247407 288.919548 
L 264.178047 290.651472 
L 265.643367 291.347579 
L 266.376027 291.494242 
L 267.108687 291.448813 
L 272.237306 289.778346 
L 273.702626 289.101756 
L 280.296566 285.622647 
L 281.761886 285.134812 
L 283.227205 284.869225 
L 284.692525 284.892472 
L 286.157845 285.265913 
L 287.623165 286.057967 
L 289.088485 287.289412 
L 292.019125 290.0596 
L 292.751785 290.46412 
L 295.682424 291.417716 
L 303.009024 292.70111 
L 305.207003 292.496532 
L 308.137643 292.085827 
L 309.602963 292.240524 
L 311.068283 292.672136 
L 313.266263 293.428403 
L 314.731582 293.713007 
L 316.196902 293.561046 
L 318.394882 292.769096 
L 323.523502 290.599244 
L 324.988822 290.385084 
L 327.919461 290.696665 
L 332.315421 291.584543 
L 333.780741 291.893762 
L 335.246061 291.967724 
L 338.90936 291.434207 
L 342.57266 290.622476 
L 344.03798 290.826031 
L 349.166599 292.145606 
L 350.631919 292.204947 
L 352.097239 291.859744 
L 355.760539 290.294368 
L 357.958519 289.888635 
L 361.621818 289.51464 
L 363.087138 289.036648 
L 366.750438 287.499029 
L 370.413737 286.051757 
L 371.146397 285.96214 
L 371.879057 286.006026 
L 373.344377 286.40142 
L 375.542357 287.34101 
L 378.472997 288.919519 
L 379.205657 289.008915 
L 380.670976 288.780704 
L 384.334276 287.965362 
L 390.195556 286.925953 
L 391.660875 286.446994 
L 393.126195 285.726233 
L 394.591515 284.726918 
L 396.056835 283.637509 
L 397.522155 282.85969 
L 398.987475 282.538972 
L 400.452795 282.650451 
L 401.918114 283.085115 
L 404.116094 284.075866 
L 406.314074 285.297864 
L 407.046734 285.48313 
L 407.779394 285.529884 
L 408.512054 285.46064 
L 409.244714 285.264968 
L 409.977374 284.949564 
L 412.908013 283.27669 
L 415.838653 282.248996 
L 418.036633 281.215593 
L 420.234613 280.476644 
L 422.432593 279.951533 
L 423.897912 279.824095 
L 426.828552 279.915073 
L 428.293872 279.933763 
L 430.491852 279.708195 
L 434.155152 279.316556 
L 436.353131 279.375704 
L 437.818451 279.228194 
L 440.016431 278.77821 
L 440.749091 278.78843 
L 441.481751 278.948297 
L 442.947071 279.69134 
L 443.679731 280.068929 
L 445.145051 280.453784 
L 446.61037 280.558276 
L 450.27367 280.466433 
L 453.93697 280.459154 
L 456.867609 280.715882 
L 461.263569 281.281733 
L 464.194209 282.146569 
L 466.392189 282.955494 
L 468.590168 284.070535 
L 470.055488 284.858759 
L 470.788148 284.967896 
L 471.520808 284.899947 
L 472.986128 284.415612 
L 476.649428 282.595913 
L 477.382088 282.475511 
L 480.312727 282.540926 
L 486.174007 281.590647 
L 489.837306 281.709147 
L 491.302626 281.507271 
L 493.500606 280.948375 
L 496.431246 280.191306 
L 497.896566 280.023809 
L 499.361886 280.079106 
L 500.827205 280.298665 
L 502.292525 280.689183 
L 503.757845 281.297493 
L 505.223165 282.173586 
L 510.351785 285.98545 
L 511.817104 286.726368 
L 514.015084 287.536612 
L 516.945724 288.609325 
L 518.411044 289.288014 
L 519.143704 289.489922 
L 519.876364 289.523203 
L 522.807003 289.196327 
L 525.004983 289.373669 
L 526.470303 289.617722 
L 527.935623 290.039345 
L 529.400943 290.461354 
L 530.866263 290.502449 
L 532.331582 290.271576 
L 537.460202 288.862179 
L 538.925522 288.898598 
L 540.390842 289.312097 
L 543.321481 290.785296 
L 547.717441 291.829443 
L 548.450101 291.830578 
L 549.915421 291.496986 
L 551.380741 290.922009 
L 552.846061 290.338492 
L 554.31138 290.190402 
L 555.7767 290.418052 
L 557.24202 291.006705 
L 560.90532 292.945846 
L 561.63798 293.081127 
L 563.1033 292.968492 
L 564.56862 292.684672 
L 570.429899 290.929489 
L 571.895219 290.465709 
L 572.627879 290.388043 
L 573.360539 290.450364 
L 574.093199 290.662309 
L 576.291178 291.724683 
L 577.756498 291.936207 
L 579.954478 291.922232 
L 582.885118 291.535969 
L 584.350438 291.617114 
L 587.281077 292.281903 
L 588.746397 292.183411 
L 591.677037 291.710012 
L 595.340337 291.481366 
L 597.538316 291.088717 
L 604.132256 291.085488 
L 607.795556 290.841749 
L 609.260875 290.558721 
L 610.726195 289.938668 
L 613.656835 288.268462 
L 614.389495 288.14295 
L 615.854815 288.334373 
L 618.052795 288.761248 
L 619.518114 288.830085 
L 620.983434 288.676215 
L 622.448754 288.31364 
L 623.914074 287.757671 
L 625.379394 287.108568 
L 626.844714 286.796604 
L 628.310034 286.930673 
L 631.973333 287.768221 
L 634.903973 288.22554 
L 637.101953 288.337775 
L 638.567273 288.775306 
L 639.299933 289.024262 
L 640.765253 289.163814 
L 642.963232 288.935479 
L 645.893872 289.360706 
L 651.755152 289.246504 
L 653.953131 288.864022 
L 655.418451 288.657525 
L 656.883771 288.746898 
L 658.349091 289.101352 
L 663.47771 291.052734 
L 667.14101 292.056749 
L 668.60633 292.263673 
L 670.80431 292.265734 
L 673.734949 292.205422 
L 675.932929 292.428198 
L 678.130909 292.698664 
L 681.794209 292.967503 
L 683.992189 292.781767 
L 685.457508 292.650207 
L 686.922828 292.839333 
L 689.853468 293.415501 
L 691.318788 293.337833 
L 692.784108 293.147062 
L 695.714747 293.446313 
L 697.180067 293.083469 
L 699.378047 292.339701 
L 700.843367 292.320452 
L 703.041347 292.435811 
L 704.506667 292.694332 
L 706.704646 293.38684 
L 709.635286 294.365527 
L 711.833266 294.848662 
L 713.298586 294.938693 
L 714.763906 294.798583 
L 716.229226 294.404395 
L 717.694545 293.733674 
L 721.357845 291.543963 
L 722.090505 291.355716 
L 722.823165 291.296729 
L 724.288485 291.551753 
L 725.753805 291.793449 
L 727.219125 291.848158 
L 728.684444 291.719359 
L 730.149764 291.408157 
L 731.615084 290.840318 
L 733.080404 290.032386 
L 734.545724 289.087535 
L 735.278384 288.810518 
L 736.011044 288.70282 
L 736.743704 288.773605 
L 737.476364 289.026157 
L 741.872323 291.211719 
L 743.337643 291.442594 
L 745.535623 291.391686 
L 747.000943 291.205882 
L 748.466263 290.838367 
L 752.862222 289.137258 
L 754.327542 288.424798 
L 757.258182 286.40119 
L 757.990842 286.164165 
L 758.723502 286.112864 
L 760.188822 286.299318 
L 766.782761 287.533539 
L 767.515421 287.509007 
L 768.248081 287.299923 
L 769.713401 286.457398 
L 771.178721 285.720908 
L 773.3767 284.775582 
L 775.57468 283.475222 
L 778.50532 281.799407 
L 780.7033 280.850799 
L 782.901279 280.240922 
L 785.099259 279.969642 
L 791.693199 279.592355 
L 793.158519 279.528527 
L 794.623838 279.878976 
L 796.089158 280.189456 
L 797.554478 280.331808 
L 799.752458 280.240502 
L 806.346397 279.627381 
L 810.009697 279.23003 
L 812.940337 279.184106 
L 814.405657 279.18795 
L 815.138316 277.759521 
L 815.870976 271.819453 
L 816.603636 257.180478 
L 816.603636 257.180478 
" clip-path="url(#p2f1ceec7dc)" style="fill: none; stroke-dasharray: 3.7,1.6; stroke-dashoffset: 0; stroke: #1f77b4"/>
   </g>
   <g id="patch_3">
    <path d="M 48.08 318.04 
L 48.08 26.88 
" style="fill: none; stroke: #000000; stroke-width: 0.8; stroke-linejoin: miter; stroke-linecap: square"/>
   </g>
   <g id="patch_4">
    <path d="M 853.2 318.04 
L 853.2 26.88 
" style="fill: none; stroke: #000000; stroke-width: 0.8; stroke-linejoin: miter; stroke-linecap: square"/>
   </g>
   <g id="patch_5">
    <path d="M 48.08 318.04 
L 853.2 318.04 
" style="fill: none; stroke: #000000; stroke-width: 0.8; stroke-linejoin: miter; stroke-linecap: square"/>
   </g>
   <g id="patch_6">
    <path d="M 48.08 26.88 
L 853.2 26.88 
" style="fill: none; stroke: #000000; stroke-width: 0.8; stroke-linejoin: miter; stroke-linecap: square"/>
   </g>
   <g id="text_15">
    <!-- Position Error Magnitude — figure-8_2 -->
    <g transform="translate(310.71125 20.88) scale(0.13 -0.13)">
     <defs>
      <path id="DejaVuSans-Bold-50" d="M 588 4666 
L 2584 4666 
Q 3475 4666 3951 4270 
Q 4428 3875 4428 3144 
Q 4428 2409 3951 2014 
Q 3475 1619 2584 1619 
L 1791 1619 
L 1791 0 
L 588 0 
L 588 4666 
z
M 1791 3794 
L 1791 2491 
L 2456 2491 
Q 2806 2491 2997 2661 
Q 3188 2831 3188 3144 
Q 3188 3456 2997 3625 
Q 2806 3794 2456 3794 
L 1791 3794 
z
" transform="scale(0.015625)"/>
      <path id="DejaVuSans-Bold-6f" d="M 2203 2784 
Q 1831 2784 1636 2517 
Q 1441 2250 1441 1747 
Q 1441 1244 1636 976 
Q 1831 709 2203 709 
Q 2569 709 2762 976 
Q 2956 1244 2956 1747 
Q 2956 2250 2762 2517 
Q 2569 2784 2203 2784 
z
M 2203 3584 
Q 3106 3584 3614 3096 
Q 4122 2609 4122 1747 
Q 4122 884 3614 396 
Q 3106 -91 2203 -91 
Q 1297 -91 786 396 
Q 275 884 275 1747 
Q 275 2609 786 3096 
Q 1297 3584 2203 3584 
z
" transform="scale(0.015625)"/>
      <path id="DejaVuSans-Bold-73" d="M 3272 3391 
L 3272 2541 
Q 2913 2691 2578 2766 
Q 2244 2841 1947 2841 
Q 1628 2841 1473 2761 
Q 1319 2681 1319 2516 
Q 1319 2381 1436 2309 
Q 1553 2238 1856 2203 
L 2053 2175 
Q 2913 2066 3209 1816 
Q 3506 1566 3506 1031 
Q 3506 472 3093 190 
Q 2681 -91 1863 -91 
Q 1516 -91 1145 -36 
Q 775 19 384 128 
L 384 978 
Q 719 816 1070 734 
Q 1422 653 1784 653 
Q 2113 653 2278 743 
Q 2444 834 2444 1013 
Q 2444 1163 2330 1236 
Q 2216 1309 1875 1350 
L 1678 1375 
Q 931 1469 631 1722 
Q 331 1975 331 2491 
Q 331 3047 712 3315 
Q 1094 3584 1881 3584 
Q 2191 3584 2531 3537 
Q 2872 3491 3272 3391 
z
" transform="scale(0.015625)"/>
      <path id="DejaVuSans-Bold-69" d="M 538 3500 
L 1656 3500 
L 1656 0 
L 538 0 
L 538 3500 
z
M 538 4863 
L 1656 4863 
L 1656 3950 
L 538 3950 
L 538 4863 
z
" transform="scale(0.015625)"/>
      <path id="DejaVuSans-Bold-74" d="M 1759 4494 
L 1759 3500 
L 2913 3500 
L 2913 2700 
L 1759 2700 
L 1759 1216 
Q 1759 972 1856 886 
Q 1953 800 2241 800 
L 2816 800 
L 2816 0 
L 1856 0 
Q 1194 0 917 276 
Q 641 553 641 1216 
L 641 2700 
L 84 2700 
L 84 3500 
L 641 3500 
L 641 4494 
L 1759 4494 
z
" transform="scale(0.015625)"/>
      <path id="DejaVuSans-Bold-6e" d="M 4056 2131 
L 4056 0 
L 2931 0 
L 2931 347 
L 2931 1631 
Q 2931 2084 2911 2256 
Q 2891 2428 2841 2509 
Q 2775 2619 2662 2680 
Q 2550 2741 2406 2741 
Q 2056 2741 1856 2470 
Q 1656 2200 1656 1722 
L 1656 0 
L 538 0 
L 538 3500 
L 1656 3500 
L 1656 2988 
Q 1909 3294 2193 3439 
Q 2478 3584 2822 3584 
Q 3428 3584 3742 3212 
Q 4056 2841 4056 2131 
z
" transform="scale(0.015625)"/>
      <path id="DejaVuSans-Bold-20" transform="scale(0.015625)"/>
      <path id="DejaVuSans-Bold-45" d="M 588 4666 
L 3834 4666 
L 3834 3756 
L 1791 3756 
L 1791 2888 
L 3713 2888 
L 3713 1978 
L 1791 1978 
L 1791 909 
L 3903 909 
L 3903 0 
L 588 0 
L 588 4666 
z
" transform="scale(0.015625)"/>
      <path id="DejaVuSans-Bold-72" d="M 3138 2547 
Q 2991 2616 2845 2648 
Q 2700 2681 2553 2681 
Q 2122 2681 1889 2404 
Q 1656 2128 1656 1613 
L 1656 0 
L 538 0 
L 538 3500 
L 1656 3500 
L 1656 2925 
Q 1872 3269 2151 3426 
Q 2431 3584 2822 3584 
Q 2878 3584 2943 3579 
Q 3009 3575 3134 3559 
L 3138 2547 
z
" transform="scale(0.015625)"/>
      <path id="DejaVuSans-Bold-4d" d="M 588 4666 
L 2119 4666 
L 3181 2169 
L 4250 4666 
L 5778 4666 
L 5778 0 
L 4641 0 
L 4641 3413 
L 3566 897 
L 2803 897 
L 1728 3413 
L 1728 0 
L 588 0 
L 588 4666 
z
" transform="scale(0.015625)"/>
      <path id="DejaVuSans-Bold-61" d="M 2106 1575 
Q 1756 1575 1579 1456 
Q 1403 1338 1403 1106 
Q 1403 894 1545 773 
Q 1688 653 1941 653 
Q 2256 653 2472 879 
Q 2688 1106 2688 1447 
L 2688 1575 
L 2106 1575 
z
M 3816 1997 
L 3816 0 
L 2688 0 
L 2688 519 
Q 2463 200 2181 54 
Q 1900 -91 1497 -91 
Q 953 -91 614 226 
Q 275 544 275 1050 
Q 275 1666 698 1953 
Q 1122 2241 2028 2241 
L 2688 2241 
L 2688 2328 
Q 2688 2594 2478 2717 
Q 2269 2841 1825 2841 
Q 1466 2841 1156 2769 
Q 847 2697 581 2553 
L 581 3406 
Q 941 3494 1303 3539 
Q 1666 3584 2028 3584 
Q 2975 3584 3395 3211 
Q 3816 2838 3816 1997 
z
" transform="scale(0.015625)"/>
      <path id="DejaVuSans-Bold-67" d="M 2919 594 
Q 2688 288 2409 144 
Q 2131 0 1766 0 
Q 1125 0 706 504 
Q 288 1009 288 1791 
Q 288 2575 706 3076 
Q 1125 3578 1766 3578 
Q 2131 3578 2409 3434 
Q 2688 3291 2919 2981 
L 2919 3500 
L 4044 3500 
L 4044 353 
Q 4044 -491 3511 -936 
Q 2978 -1381 1966 -1381 
Q 1638 -1381 1331 -1331 
Q 1025 -1281 716 -1178 
L 716 -306 
Q 1009 -475 1290 -558 
Q 1572 -641 1856 -641 
Q 2406 -641 2662 -400 
Q 2919 -159 2919 353 
L 2919 594 
z
M 2181 2772 
Q 1834 2772 1640 2515 
Q 1447 2259 1447 1791 
Q 1447 1309 1634 1061 
Q 1822 813 2181 813 
Q 2531 813 2725 1069 
Q 2919 1325 2919 1791 
Q 2919 2259 2725 2515 
Q 2531 2772 2181 2772 
z
" transform="scale(0.015625)"/>
      <path id="DejaVuSans-Bold-75" d="M 500 1363 
L 500 3500 
L 1625 3500 
L 1625 3150 
Q 1625 2866 1622 2436 
Q 1619 2006 1619 1863 
Q 1619 1441 1641 1255 
Q 1663 1069 1716 984 
Q 1784 875 1895 815 
Q 2006 756 2150 756 
Q 2500 756 2700 1025 
Q 2900 1294 2900 1772 
L 2900 3500 
L 4019 3500 
L 4019 0 
L 2900 0 
L 2900 506 
Q 2647 200 2364 54 
Q 2081 -91 1741 -91 
Q 1134 -91 817 281 
Q 500 653 500 1363 
z
" transform="scale(0.015625)"/>
      <path id="DejaVuSans-Bold-64" d="M 2919 2988 
L 2919 4863 
L 4044 4863 
L 4044 0 
L 2919 0 
L 2919 506 
Q 2688 197 2409 53 
Q 2131 -91 1766 -91 
Q 1119 -91 703 423 
Q 288 938 288 1747 
Q 288 2556 703 3070 
Q 1119 3584 1766 3584 
Q 2128 3584 2408 3439 
Q 2688 3294 2919 2988 
z
M 2181 722 
Q 2541 722 2730 984 
Q 2919 1247 2919 1747 
Q 2919 2247 2730 2509 
Q 2541 2772 2181 2772 
Q 1825 2772 1636 2509 
Q 1447 2247 1447 1747 
Q 1447 1247 1636 984 
Q 1825 722 2181 722 
z
" transform="scale(0.015625)"/>
      <path id="DejaVuSans-Bold-65" d="M 4031 1759 
L 4031 1441 
L 1416 1441 
Q 1456 1047 1700 850 
Q 1944 653 2381 653 
Q 2734 653 3104 758 
Q 3475 863 3866 1075 
L 3866 213 
Q 3469 63 3072 -14 
Q 2675 -91 2278 -91 
Q 1328 -91 801 392 
Q 275 875 275 1747 
Q 275 2603 792 3093 
Q 1309 3584 2216 3584 
Q 3041 3584 3536 3087 
Q 4031 2591 4031 1759 
z
M 2881 2131 
Q 2881 2450 2695 2645 
Q 2509 2841 2209 2841 
Q 1884 2841 1681 2658 
Q 1478 2475 1428 2131 
L 2881 2131 
z
" transform="scale(0.015625)"/>
      <path id="DejaVuSans-Bold-2014" d="M 344 2156 
L 6056 2156 
L 6056 1350 
L 344 1350 
L 344 2156 
z
" transform="scale(0.015625)"/>
      <path id="DejaVuSans-Bold-66" d="M 2841 4863 
L 2841 4128 
L 2222 4128 
Q 1984 4128 1890 4042 
Q 1797 3956 1797 3744 
L 1797 3500 
L 2753 3500 
L 2753 2700 
L 1797 2700 
L 1797 0 
L 678 0 
L 678 2700 
L 122 2700 
L 122 3500 
L 678 3500 
L 678 3744 
Q 678 4316 997 4589 
Q 1316 4863 1984 4863 
L 2841 4863 
z
" transform="scale(0.015625)"/>
      <path id="DejaVuSans-Bold-2d" d="M 347 2297 
L 2309 2297 
L 2309 1388 
L 347 1388 
L 347 2297 
z
" transform="scale(0.015625)"/>
      <path id="DejaVuSans-Bold-38" d="M 2228 2088 
Q 1891 2088 1709 1903 
Q 1528 1719 1528 1375 
Q 1528 1031 1709 848 
Q 1891 666 2228 666 
Q 2563 666 2741 848 
Q 2919 1031 2919 1375 
Q 2919 1722 2741 1905 
Q 2563 2088 2228 2088 
z
M 1350 2484 
Q 925 2613 709 2878 
Q 494 3144 494 3541 
Q 494 4131 934 4440 
Q 1375 4750 2228 4750 
Q 3075 4750 3515 4442 
Q 3956 4134 3956 3541 
Q 3956 3144 3739 2878 
Q 3522 2613 3097 2484 
Q 3572 2353 3814 2058 
Q 4056 1763 4056 1313 
Q 4056 619 3595 264 
Q 3134 -91 2228 -91 
Q 1319 -91 855 264 
Q 391 619 391 1313 
Q 391 1763 633 2058 
Q 875 2353 1350 2484 
z
M 1631 3419 
Q 1631 3141 1786 2991 
Q 1941 2841 2228 2841 
Q 2509 2841 2662 2991 
Q 2816 3141 2816 3419 
Q 2816 3697 2662 3845 
Q 2509 3994 2228 3994 
Q 1941 3994 1786 3844 
Q 1631 3694 1631 3419 
z
" transform="scale(0.015625)"/>
      <path id="DejaVuSans-Bold-5f" d="M 3200 -916 
L 3200 -1509 
L 0 -1509 
L 0 -916 
L 3200 -916 
z
" transform="scale(0.015625)"/>
      <path id="DejaVuSans-Bold-32" d="M 1844 884 
L 3897 884 
L 3897 0 
L 506 0 
L 506 884 
L 2209 2388 
Q 2438 2594 2547 2791 
Q 2656 2988 2656 3200 
Q 2656 3528 2436 3728 
Q 2216 3928 1850 3928 
Q 1569 3928 1234 3808 
Q 900 3688 519 3450 
L 519 4475 
Q 925 4609 1322 4679 
Q 1719 4750 2100 4750 
Q 2938 4750 3402 4381 
Q 3866 4013 3866 3353 
Q 3866 2972 3669 2642 
Q 3472 2313 2841 1759 
L 1844 884 
z
" transform="scale(0.015625)"/>
     </defs>
     <use xlink:href="#DejaVuSans-Bold-50"/>
     <use xlink:href="#DejaVuSans-Bold-6f" transform="translate(73.291016 0)"/>
     <use xlink:href="#DejaVuSans-Bold-73" transform="translate(141.992188 0)"/>
     <use xlink:href="#DejaVuSans-Bold-69" transform="translate(201.513672 0)"/>
     <use xlink:href="#DejaVuSans-Bold-74" transform="translate(235.791016 0)"/>
     <use xlink:href="#DejaVuSans-Bold-69" transform="translate(283.59375 0)"/>
     <use xlink:href="#DejaVuSans-Bold-6f" transform="translate(317.871094 0)"/>
     <use xlink:href="#DejaVuSans-Bold-6e" transform="translate(386.572266 0)"/>
     <use xlink:href="#DejaVuSans-Bold-20" transform="translate(457.763672 0)"/>
     <use xlink:href="#DejaVuSans-Bold-45" transform="translate(492.578125 0)"/>
     <use xlink:href="#DejaVuSans-Bold-72" transform="translate(560.888672 0)"/>
     <use xlink:href="#DejaVuSans-Bold-72" transform="translate(610.205078 0)"/>
     <use xlink:href="#DejaVuSans-Bold-6f" transform="translate(659.521484 0)"/>
     <use xlink:href="#DejaVuSans-Bold-72" transform="translate(728.222656 0)"/>
     <use xlink:href="#DejaVuSans-Bold-20" transform="translate(777.539062 0)"/>
     <use xlink:href="#DejaVuSans-Bold-4d" transform="translate(812.353516 0)"/>
     <use xlink:href="#DejaVuSans-Bold-61" transform="translate(911.865234 0)"/>
     <use xlink:href="#DejaVuSans-Bold-67" transform="translate(979.345703 0)"/>
     <use xlink:href="#DejaVuSans-Bold-6e" transform="translate(1050.927734 0)"/>
     <use xlink:href="#DejaVuSans-Bold-69" transform="translate(1122.119141 0)"/>
     <use xlink:href="#DejaVuSans-Bold-74" transform="translate(1156.396484 0)"/>
     <use xlink:href="#DejaVuSans-Bold-75" transform="translate(1204.199219 0)"/>
     <use xlink:href="#DejaVuSans-Bold-64" transform="translate(1275.390625 0)"/>
     <use xlink:href="#DejaVuSans-Bold-65" transform="translate(1346.972656 0)"/>
     <use xlink:href="#DejaVuSans-Bold-20" transform="translate(1414.794922 0)"/>
     <use xlink:href="#DejaVuSans-Bold-2014" transform="translate(1449.609375 0)"/>
     <use xlink:href="#DejaVuSans-Bold-20" transform="translate(1549.609375 0)"/>
     <use xlink:href="#DejaVuSans-Bold-66" transform="translate(1584.423828 0)"/>
     <use xlink:href="#DejaVuSans-Bold-69" transform="translate(1627.929688 0)"/>
     <use xlink:href="#DejaVuSans-Bold-67" transform="translate(1662.207031 0)"/>
     <use xlink:href="#DejaVuSans-Bold-75" transform="translate(1733.789062 0)"/>
     <use xlink:href="#DejaVuSans-Bold-72" transform="translate(1804.980469 0)"/>
     <use xlink:href="#DejaVuSans-Bold-65" transform="translate(1854.296875 0)"/>
     <use xlink:href="#DejaVuSans-Bold-2d" transform="translate(1922.119141 0)"/>
     <use xlink:href="#DejaVuSans-Bold-38" transform="translate(1963.623047 0)"/>
     <use xlink:href="#DejaVuSans-Bold-5f" transform="translate(2033.203125 0)"/>
     <use xlink:href="#DejaVuSans-Bold-32" transform="translate(2083.203125 0)"/>
    </g>
   </g>
   <g id="legend_1">
    <g id="patch_7">
     <path d="M 778.354688 78.914375 
L 846.2 78.914375 
Q 848.2 78.914375 848.2 76.914375 
L 848.2 33.88 
Q 848.2 31.88 846.2 31.88 
L 778.354688 31.88 
Q 776.354688 31.88 776.354688 33.88 
L 776.354688 76.914375 
Q 776.354688 78.914375 778.354688 78.914375 
z
" style="fill: #ffffff; opacity: 0.8; stroke: #cccccc; stroke-linejoin: miter"/>
    </g>
    <g id="line2d_28">
     <path d="M 780.354688 39.978437 
L 790.354688 39.978437 
L 800.354688 39.978437 
" style="fill: none; stroke: #888888; stroke-opacity: 0.6; stroke-linecap: square"/>
    </g>
    <g id="text_16">
     <!-- PID -->
     <g transform="translate(808.354688 43.478437) scale(0.1 -0.1)">
      <defs>
       <path id="DejaVuSans-50" d="M 1259 4147 
L 1259 2394 
L 2053 2394 
Q 2494 2394 2734 2622 
Q 2975 2850 2975 3272 
Q 2975 3691 2734 3919 
Q 2494 4147 2053 4147 
L 1259 4147 
z
M 628 4666 
L 2053 4666 
Q 2838 4666 3239 4311 
Q 3641 3956 3641 3272 
Q 3641 2581 3239 2228 
Q 2838 1875 2053 1875 
L 1259 1875 
L 1259 0 
L 628 0 
L 628 4666 
z
" transform="scale(0.015625)"/>
       <path id="DejaVuSans-49" d="M 628 4666 
L 1259 4666 
L 1259 0 
L 628 0 
L 628 4666 
z
" transform="scale(0.015625)"/>
       <path id="DejaVuSans-44" d="M 1259 4147 
L 1259 519 
L 2022 519 
Q 2988 519 3436 956 
Q 3884 1394 3884 2338 
Q 3884 3275 3436 3711 
Q 2988 4147 2022 4147 
L 1259 4147 
z
M 628 4666 
L 1925 4666 
Q 3281 4666 3915 4102 
Q 4550 3538 4550 2338 
Q 4550 1131 3912 565 
Q 3275 0 1925 0 
L 628 0 
L 628 4666 
z
" transform="scale(0.015625)"/>
      </defs>
      <use xlink:href="#DejaVuSans-50"/>
      <use xlink:href="#DejaVuSans-49" transform="translate(60.302734 0)"/>
      <use xlink:href="#DejaVuSans-44" transform="translate(89.794922 0)"/>
     </g>
    </g>
    <g id="line2d_29">
     <path d="M 780.354688 54.656563 
L 790.354688 54.656563 
L 800.354688 54.656563 
" style="fill: none; stroke: #2ca02c; stroke-width: 1.2; stroke-linecap: square"/>
    </g>
    <g id="text_17">
     <!-- EDMDc -->
     <g transform="translate(808.354688 58.156563) scale(0.1 -0.1)">
      <defs>
       <path id="DejaVuSans-45" d="M 628 4666 
L 3578 4666 
L 3578 4134 
L 1259 4134 
L 1259 2753 
L 3481 2753 
L 3481 2222 
L 1259 2222 
L 1259 531 
L 3634 531 
L 3634 0 
L 628 0 
L 628 4666 
z
" transform="scale(0.015625)"/>
       <path id="DejaVuSans-4d" d="M 628 4666 
L 1569 4666 
L 2759 1491 
L 3956 4666 
L 4897 4666 
L 4897 0 
L 4281 0 
L 4281 4097 
L 3078 897 
L 2444 897 
L 1241 4097 
L 1241 0 
L 628 0 
L 628 4666 
z
" transform="scale(0.015625)"/>
       <path id="DejaVuSans-63" d="M 3122 3366 
L 3122 2828 
Q 2878 2963 2633 3030 
Q 2388 3097 2138 3097 
Q 1578 3097 1268 2742 
Q 959 2388 959 1747 
Q 959 1106 1268 751 
Q 1578 397 2138 397 
Q 2388 397 2633 464 
Q 2878 531 3122 666 
L 3122 134 
Q 2881 22 2623 -34 
Q 2366 -91 2075 -91 
Q 1284 -91 818 406 
Q 353 903 353 1747 
Q 353 2603 823 3093 
Q 1294 3584 2113 3584 
Q 2378 3584 2631 3529 
Q 2884 3475 3122 3366 
z
" transform="scale(0.015625)"/>
      </defs>
      <use xlink:href="#DejaVuSans-45"/>
      <use xlink:href="#DejaVuSans-44" transform="translate(63.183594 0)"/>
      <use xlink:href="#DejaVuSans-4d" transform="translate(140.185547 0)"/>
      <use xlink:href="#DejaVuSans-44" transform="translate(226.464844 0)"/>
      <use xlink:href="#DejaVuSans-63" transform="translate(303.466797 0)"/>
     </g>
    </g>
    <g id="line2d_30">
     <path d="M 780.354688 69.334687 
L 790.354688 69.334687 
L 800.354688 69.334687 
" style="fill: none; stroke-dasharray: 3.7,1.6; stroke-dashoffset: 0; stroke: #1f77b4"/>
    </g>
    <g id="text_18">
     <!-- Linear -->
     <g transform="translate(808.354688 72.834687) scale(0.1 -0.1)">
      <defs>
       <path id="DejaVuSans-4c" d="M 628 4666 
L 1259 4666 
L 1259 531 
L 3531 531 
L 3531 0 
L 628 0 
L 628 4666 
z
" transform="scale(0.015625)"/>
       <path id="DejaVuSans-69" d="M 603 3500 
L 1178 3500 
L 1178 0 
L 603 0 
L 603 3500 
z
M 603 4863 
L 1178 4863 
L 1178 4134 
L 603 4134 
L 603 4863 
z
" transform="scale(0.015625)"/>
       <path id="DejaVuSans-6e" d="M 3513 2113 
L 3513 0 
L 2938 0 
L 2938 2094 
Q 2938 2591 2744 2837 
Q 2550 3084 2163 3084 
Q 1697 3084 1428 2787 
Q 1159 2491 1159 1978 
L 1159 0 
L 581 0 
L 581 3500 
L 1159 3500 
L 1159 2956 
Q 1366 3272 1645 3428 
Q 1925 3584 2291 3584 
Q 2894 3584 3203 3211 
Q 3513 2838 3513 2113 
z
" transform="scale(0.015625)"/>
       <path id="DejaVuSans-61" d="M 2194 1759 
Q 1497 1759 1228 1600 
Q 959 1441 959 1056 
Q 959 750 1161 570 
Q 1363 391 1709 391 
Q 2188 391 2477 730 
Q 2766 1069 2766 1631 
L 2766 1759 
L 2194 1759 
z
M 3341 1997 
L 3341 0 
L 2766 0 
L 2766 531 
Q 2569 213 2275 61 
Q 1981 -91 1556 -91 
Q 1019 -91 701 211 
Q 384 513 384 1019 
Q 384 1609 779 1909 
Q 1175 2209 1959 2209 
L 2766 2209 
L 2766 2266 
Q 2766 2663 2505 2880 
Q 2244 3097 1772 3097 
Q 1472 3097 1187 3025 
Q 903 2953 641 2809 
L 641 3341 
Q 956 3463 1253 3523 
Q 1550 3584 1831 3584 
Q 2591 3584 2966 3190 
Q 3341 2797 3341 1997 
z
" transform="scale(0.015625)"/>
      </defs>
      <use xlink:href="#DejaVuSans-4c"/>
      <use xlink:href="#DejaVuSans-69" transform="translate(55.712891 0)"/>
      <use xlink:href="#DejaVuSans-6e" transform="translate(83.496094 0)"/>
      <use xlink:href="#DejaVuSans-65" transform="translate(146.875 0)"/>
      <use xlink:href="#DejaVuSans-61" transform="translate(208.398438 0)"/>
      <use xlink:href="#DejaVuSans-72" transform="translate(269.677734 0)"/>
     </g>
    </g>
   </g>
  </g>
 </g>
 <defs>
  <clipPath id="p2f1ceec7dc">
   <rect x="48.08" y="26.88" width="805.12" height="291.16"/>
  </clipPath>
 </defs>
</svg>
