<?xml version="1.0" encoding="utf-8" standalone="no"?>
<!DOCTYPE svg PUBLIC "-//W3C//DTD SVG 1.1//EN"
  "http://www.w3.org/Graphics/SVG/1.1/DTD/svg11.dtd">
<svg xmlns:xlink="http://www.w3.org/1999/xlink" width="864pt" height="360pt" viewBox="0 0 864 360" xmlns="http://www.w3.org/2000/svg" version="1.1">
 <metadata>
  <rdf:RDF xmlns:dc="http://purl.org/dc/elements/1.1/" xmlns:cc="http://creativecommons.org/ns#" xmlns:rdf="http://www.w3.org/1999/02/22-rdf-syntax-ns#">
   <cc:Work>
    <dc:type rdf:resource="http://purl.org/dc/dcmitype/StillImage"/>
    <dc:date>2026-03-30T18:22:16.334908</dc:date>
    <dc:format>image/svg+xml</dc:format>
    <dc:creator>
     <cc:Agent>
      <dc:title>Matplotlib v3.10.8, https://matplotlib.org/</dc:title>
     </cc:Agent>
    </dc:creator>
   </cc:Work>
  </rdf:RDF>
 </metadata>
 <defs>
  <style type="text/css">*{stroke-linejoin: round; stroke-linecap: butt}</style>
 </defs>
 <g id="figure_1">
  <g id="patch_1">
   <path d="M 0 360 
L 864 360 
L 864 0 
L 0 0 
z
" style="fill: #ffffff"/>
  </g>
  <g id="axes_1">
   <g id="patch_2">
    <path d="M 54.38 318.04 
L 853.2 318.04 
L 853.2 26.88 
L 54.38 26.88 
z
" style="fill: #ffffff"/>
   </g>
   <g id="matplotlib.axis_1">
    <g id="xtick_1">
     <g id="line2d_1">
      <path d="M 90.69 318.04 
L 90.69 26.88 
" clip-path="url(#p0a25628751)" style="fill: none; stroke: #b0b0b0; stroke-opacity: 0.3; stroke-width: 0.8; stroke-linecap: square"/>
     </g>
     <g id="line2d_2">
      <defs>
       <path id="m51ccad0bc8" d="M 0 0 
L 0 3.5 
" style="stroke: #000000; stroke-width: 0.8"/>
      </defs>
      <g>
       <use xlink:href="#m51ccad0bc8" x="90.69" y="318.04" style="stroke: #000000; stroke-width: 0.8"/>
      </g>
     </g>
     <g id="text_1">
      <!-- 0 -->
      <g transform="translate(87.50875 332.638438) scale(0.1 -0.1)">
       <defs>
        <path id="DejaVuSans-30" d="M 2034 4250 
Q 1547 4250 1301 3770 
Q 1056 3291 1056 2328 
Q 1056 1369 1301 889 
Q 1547 409 2034 409 
Q 2525 409 2770 889 
Q 3016 1369 3016 2328 
Q 3016 3291 2770 3770 
Q 2525 4250 2034 4250 
z
M 2034 4750 
Q 2819 4750 3233 4129 
Q 3647 3509 3647 2328 
Q 3647 1150 3233 529 
Q 2819 -91 2034 -91 
Q 1250 -91 836 529 
Q 422 1150 422 2328 
Q 422 3509 836 4129 
Q 1250 4750 2034 4750 
z
" transform="scale(0.015625)"/>
       </defs>
       <use xlink:href="#DejaVuSans-30"/>
      </g>
     </g>
    </g>
    <g id="xtick_2">
     <g id="line2d_3">
      <path d="M 236.075385 318.04 
L 236.075385 26.88 
" clip-path="url(#p0a25628751)" style="fill: none; stroke: #b0b0b0; stroke-opacity: 0.3; stroke-width: 0.8; stroke-linecap: square"/>
     </g>
     <g id="line2d_4">
      <g>
       <use xlink:href="#m51ccad0bc8" x="236.075385" y="318.04" style="stroke: #000000; stroke-width: 0.8"/>
      </g>
     </g>
     <g id="text_2">
      <!-- 20 -->
      <g transform="translate(229.712885 332.638438) scale(0.1 -0.1)">
       <defs>
        <path id="DejaVuSans-32" d="M 1228 531 
L 3431 531 
L 3431 0 
L 469 0 
L 469 531 
Q 828 903 1448 1529 
Q 2069 2156 2228 2338 
Q 2531 2678 2651 2914 
Q 2772 3150 2772 3378 
Q 2772 3750 2511 3984 
Q 2250 4219 1831 4219 
Q 1534 4219 1204 4116 
Q 875 4013 500 3803 
L 500 4441 
Q 881 4594 1212 4672 
Q 1544 4750 1819 4750 
Q 2544 4750 2975 4387 
Q 3406 4025 3406 3419 
Q 3406 3131 3298 2873 
Q 3191 2616 2906 2266 
Q 2828 2175 2409 1742 
Q 1991 1309 1228 531 
z
" transform="scale(0.015625)"/>
       </defs>
       <use xlink:href="#DejaVuSans-32"/>
       <use xlink:href="#DejaVuSans-30" transform="translate(63.623047 0)"/>
      </g>
     </g>
    </g>
    <g id="xtick_3">
     <g id="line2d_5">
      <path d="M 381.460771 318.04 
L 381.460771 26.88 
" clip-path="url(#p0a25628751)" style="fill: none; stroke: #b0b0b0; stroke-opacity: 0.3; stroke-width: 0.8; stroke-linecap: square"/>
     </g>
     <g id="line2d_6">
      <g>
       <use xlink:href="#m51ccad0bc8" x="381.460771" y="318.04" style="stroke: #000000; stroke-width: 0.8"/>
      </g>
     </g>
     <g id="text_3">
      <!-- 40 -->
      <g transform="translate(375.098271 332.638438) scale(0.1 -0.1)">
       <defs>
        <path id="DejaVuSans-34" d="M 2419 4116 
L 825 1625 
L 2419 1625 
L 2419 4116 
z
M 2253 4666 
L 3047 4666 
L 3047 1625 
L 3713 1625 
L 3713 1100 
L 3047 1100 
L 3047 0 
L 2419 0 
L 2419 1100 
L 313 1100 
L 313 1709 
L 2253 4666 
z
" transform="scale(0.015625)"/>
       </defs>
       <use xlink:href="#DejaVuSans-34"/>
       <use xlink:href="#DejaVuSans-30" transform="translate(63.623047 0)"/>
      </g>
     </g>
    </g>
    <g id="xtick_4">
     <g id="line2d_7">
      <path d="M 526.846156 318.04 
L 526.846156 26.88 
" clip-path="url(#p0a25628751)" style="fill: none; stroke: #b0b0b0; stroke-opacity: 0.3; stroke-width: 0.8; stroke-linecap: square"/>
     </g>
     <g id="line2d_8">
      <g>
       <use xlink:href="#m51ccad0bc8" x="526.846156" y="318.04" style="stroke: #000000; stroke-width: 0.8"/>
      </g>
     </g>
     <g id="text_4">
      <!-- 60 -->
      <g transform="translate(520.483656 332.638438) scale(0.1 -0.1)">
       <defs>
        <path id="DejaVuSans-36" d="M 2113 2584 
Q 1688 2584 1439 2293 
Q 1191 2003 1191 1497 
Q 1191 994 1439 701 
Q 1688 409 2113 409 
Q 2538 409 2786 701 
Q 3034 994 3034 1497 
Q 3034 2003 2786 2293 
Q 2538 2584 2113 2584 
z
M 3366 4563 
L 3366 3988 
Q 3128 4100 2886 4159 
Q 2644 4219 2406 4219 
Q 1781 4219 1451 3797 
Q 1122 3375 1075 2522 
Q 1259 2794 1537 2939 
Q 1816 3084 2150 3084 
Q 2853 3084 3261 2657 
Q 3669 2231 3669 1497 
Q 3669 778 3244 343 
Q 2819 -91 2113 -91 
Q 1303 -91 875 529 
Q 447 1150 447 2328 
Q 447 3434 972 4092 
Q 1497 4750 2381 4750 
Q 2619 4750 2861 4703 
Q 3103 4656 3366 4563 
z
" transform="scale(0.015625)"/>
       </defs>
       <use xlink:href="#DejaVuSans-36"/>
       <use xlink:href="#DejaVuSans-30" transform="translate(63.623047 0)"/>
      </g>
     </g>
    </g>
    <g id="xtick_5">
     <g id="line2d_9">
      <path d="M 672.231542 318.04 
L 672.231542 26.88 
" clip-path="url(#p0a25628751)" style="fill: none; stroke: #b0b0b0; stroke-opacity: 0.3; stroke-width: 0.8; stroke-linecap: square"/>
     </g>
     <g id="line2d_10">
      <g>
       <use xlink:href="#m51ccad0bc8" x="672.231542" y="318.04" style="stroke: #000000; stroke-width: 0.8"/>
      </g>
     </g>
     <g id="text_5">
      <!-- 80 -->
      <g transform="translate(665.869042 332.638438) scale(0.1 -0.1)">
       <defs>
        <path id="DejaVuSans-38" d="M 2034 2216 
Q 1584 2216 1326 1975 
Q 1069 1734 1069 1313 
Q 1069 891 1326 650 
Q 1584 409 2034 409 
Q 2484 409 2743 651 
Q 3003 894 3003 1313 
Q 3003 1734 2745 1975 
Q 2488 2216 2034 2216 
z
M 1403 2484 
Q 997 2584 770 2862 
Q 544 3141 544 3541 
Q 544 4100 942 4425 
Q 1341 4750 2034 4750 
Q 2731 4750 3128 4425 
Q 3525 4100 3525 3541 
Q 3525 3141 3298 2862 
Q 3072 2584 2669 2484 
Q 3125 2378 3379 2068 
Q 3634 1759 3634 1313 
Q 3634 634 3220 271 
Q 2806 -91 2034 -91 
Q 1263 -91 848 271 
Q 434 634 434 1313 
Q 434 1759 690 2068 
Q 947 2378 1403 2484 
z
M 1172 3481 
Q 1172 3119 1398 2916 
Q 1625 2713 2034 2713 
Q 2441 2713 2670 2916 
Q 2900 3119 2900 3481 
Q 2900 3844 2670 4047 
Q 2441 4250 2034 4250 
Q 1625 4250 1398 4047 
Q 1172 3844 1172 3481 
z
" transform="scale(0.015625)"/>
       </defs>
       <use xlink:href="#DejaVuSans-38"/>
       <use xlink:href="#DejaVuSans-30" transform="translate(63.623047 0)"/>
      </g>
     </g>
    </g>
    <g id="xtick_6">
     <g id="line2d_11">
      <path d="M 817.616927 318.04 
L 817.616927 26.88 
" clip-path="url(#p0a25628751)" style="fill: none; stroke: #b0b0b0; stroke-opacity: 0.3; stroke-width: 0.8; stroke-linecap: square"/>
     </g>
     <g id="line2d_12">
      <g>
       <use xlink:href="#m51ccad0bc8" x="817.616927" y="318.04" style="stroke: #000000; stroke-width: 0.8"/>
      </g>
     </g>
     <g id="text_6">
      <!-- 100 -->
      <g transform="translate(808.073177 332.638438) scale(0.1 -0.1)">
       <defs>
        <path id="DejaVuSans-31" d="M 794 531 
L 1825 531 
L 1825 4091 
L 703 3866 
L 703 4441 
L 1819 4666 
L 2450 4666 
L 2450 531 
L 3481 531 
L 3481 0 
L 794 0 
L 794 531 
z
" transform="scale(0.015625)"/>
       </defs>
       <use xlink:href="#DejaVuSans-31"/>
       <use xlink:href="#DejaVuSans-30" transform="translate(63.623047 0)"/>
       <use xlink:href="#DejaVuSans-30" transform="translate(127.246094 0)"/>
      </g>
     </g>
    </g>
    <g id="text_7">
     <!-- t [s] -->
     <g transform="translate(443.734531 346.316563) scale(0.1 -0.1)">
      <defs>
       <path id="DejaVuSans-74" d="M 1172 4494 
L 1172 3500 
L 2356 3500 
L 2356 3053 
L 1172 3053 
L 1172 1153 
Q 1172 725 1289 603 
Q 1406 481 1766 481 
L 2356 481 
L 2356 0 
L 1766 0 
Q 1100 0 847 248 
Q 594 497 594 1153 
L 594 3053 
L 172 3053 
L 172 3500 
L 594 3500 
L 594 4494 
L 1172 4494 
z
" transform="scale(0.015625)"/>
       <path id="DejaVuSans-20" transform="scale(0.015625)"/>
       <path id="DejaVuSans-5b" d="M 550 4863 
L 1875 4863 
L 1875 4416 
L 1125 4416 
L 1125 -397 
L 1875 -397 
L 1875 -844 
L 550 -844 
L 550 4863 
z
" transform="scale(0.015625)"/>
       <path id="DejaVuSans-73" d="M 2834 3397 
L 2834 2853 
Q 2591 2978 2328 3040 
Q 2066 3103 1784 3103 
Q 1356 3103 1142 2972 
Q 928 2841 928 2578 
Q 928 2378 1081 2264 
Q 1234 2150 1697 2047 
L 1894 2003 
Q 2506 1872 2764 1633 
Q 3022 1394 3022 966 
Q 3022 478 2636 193 
Q 2250 -91 1575 -91 
Q 1294 -91 989 -36 
Q 684 19 347 128 
L 347 722 
Q 666 556 975 473 
Q 1284 391 1588 391 
Q 1994 391 2212 530 
Q 2431 669 2431 922 
Q 2431 1156 2273 1281 
Q 2116 1406 1581 1522 
L 1381 1569 
Q 847 1681 609 1914 
Q 372 2147 372 2553 
Q 372 3047 722 3315 
Q 1072 3584 1716 3584 
Q 2034 3584 2315 3537 
Q 2597 3491 2834 3397 
z
" transform="scale(0.015625)"/>
       <path id="DejaVuSans-5d" d="M 1947 4863 
L 1947 -844 
L 622 -844 
L 622 -397 
L 1369 -397 
L 1369 4416 
L 622 4416 
L 622 4863 
L 1947 4863 
z
" transform="scale(0.015625)"/>
      </defs>
      <use xlink:href="#DejaVuSans-74"/>
      <use xlink:href="#DejaVuSans-20" transform="translate(39.208984 0)"/>
      <use xlink:href="#DejaVuSans-5b" transform="translate(70.996094 0)"/>
      <use xlink:href="#DejaVuSans-73" transform="translate(110.009766 0)"/>
      <use xlink:href="#DejaVuSans-5d" transform="translate(162.109375 0)"/>
     </g>
    </g>
   </g>
   <g id="matplotlib.axis_2">
    <g id="ytick_1">
     <g id="line2d_13">
      <path d="M 54.38 304.805455 
L 853.2 304.805455 
" clip-path="url(#p0a25628751)" style="fill: none; stroke: #b0b0b0; stroke-opacity: 0.3; stroke-width: 0.8; stroke-linecap: square"/>
     </g>
     <g id="line2d_14">
      <defs>
       <path id="m90eb10339e" d="M 0 0 
L -3.5 0 
" style="stroke: #000000; stroke-width: 0.8"/>
      </defs>
      <g>
       <use xlink:href="#m90eb10339e" x="54.38" y="304.805455" style="stroke: #000000; stroke-width: 0.8"/>
      </g>
     </g>
     <g id="text_8">
      <!-- 0.00 -->
      <g transform="translate(25.114375 308.604673) scale(0.1 -0.1)">
       <defs>
        <path id="DejaVuSans-2e" d="M 684 794 
L 1344 794 
L 1344 0 
L 684 0 
L 684 794 
z
" transform="scale(0.015625)"/>
       </defs>
       <use xlink:href="#DejaVuSans-30"/>
       <use xlink:href="#DejaVuSans-2e" transform="translate(63.623047 0)"/>
       <use xlink:href="#DejaVuSans-30" transform="translate(95.410156 0)"/>
       <use xlink:href="#DejaVuSans-30" transform="translate(159.033203 0)"/>
      </g>
     </g>
    </g>
    <g id="ytick_2">
     <g id="line2d_15">
      <path d="M 54.38 268.163833 
L 853.2 268.163833 
" clip-path="url(#p0a25628751)" style="fill: none; stroke: #b0b0b0; stroke-opacity: 0.3; stroke-width: 0.8; stroke-linecap: square"/>
     </g>
     <g id="line2d_16">
      <g>
       <use xlink:href="#m90eb10339e" x="54.38" y="268.163833" style="stroke: #000000; stroke-width: 0.8"/>
      </g>
     </g>
     <g id="text_9">
      <!-- 0.02 -->
      <g transform="translate(25.114375 271.963051) scale(0.1 -0.1)">
       <use xlink:href="#DejaVuSans-30"/>
       <use xlink:href="#DejaVuSans-2e" transform="translate(63.623047 0)"/>
       <use xlink:href="#DejaVuSans-30" transform="translate(95.410156 0)"/>
       <use xlink:href="#DejaVuSans-32" transform="translate(159.033203 0)"/>
      </g>
     </g>
    </g>
    <g id="ytick_3">
     <g id="line2d_17">
      <path d="M 54.38 231.522211 
L 853.2 231.522211 
" clip-path="url(#p0a25628751)" style="fill: none; stroke: #b0b0b0; stroke-opacity: 0.3; stroke-width: 0.8; stroke-linecap: square"/>
     </g>
     <g id="line2d_18">
      <g>
       <use xlink:href="#m90eb10339e" x="54.38" y="231.522211" style="stroke: #000000; stroke-width: 0.8"/>
      </g>
     </g>
     <g id="text_10">
      <!-- 0.04 -->
      <g transform="translate(25.114375 235.321429) scale(0.1 -0.1)">
       <use xlink:href="#DejaVuSans-30"/>
       <use xlink:href="#DejaVuSans-2e" transform="translate(63.623047 0)"/>
       <use xlink:href="#DejaVuSans-30" transform="translate(95.410156 0)"/>
       <use xlink:href="#DejaVuSans-34" transform="translate(159.033203 0)"/>
      </g>
     </g>
    </g>
    <g id="ytick_4">
     <g id="line2d_19">
      <path d="M 54.38 194.880589 
L 853.2 194.880589 
" clip-path="url(#p0a25628751)" style="fill: none; stroke: #b0b0b0; stroke-opacity: 0.3; stroke-width: 0.8; stroke-linecap: square"/>
     </g>
     <g id="line2d_20">
      <g>
       <use xlink:href="#m90eb10339e" x="54.38" y="194.880589" style="stroke: #000000; stroke-width: 0.8"/>
      </g>
     </g>
     <g id="text_11">
      <!-- 0.06 -->
      <g transform="translate(25.114375 198.679807) scale(0.1 -0.1)">
       <use xlink:href="#DejaVuSans-30"/>
       <use xlink:href="#DejaVuSans-2e" transform="translate(63.623047 0)"/>
       <use xlink:href="#DejaVuSans-30" transform="translate(95.410156 0)"/>
       <use xlink:href="#DejaVuSans-36" transform="translate(159.033203 0)"/>
      </g>
     </g>
    </g>
    <g id="ytick_5">
     <g id="line2d_21">
      <path d="M 54.38 158.238967 
L 853.2 158.238967 
" clip-path="url(#p0a25628751)" style="fill: none; stroke: #b0b0b0; stroke-opacity: 0.3; stroke-width: 0.8; stroke-linecap: square"/>
     </g>
     <g id="line2d_22">
      <g>
       <use xlink:href="#m90eb10339e" x="54.38" y="158.238967" style="stroke: #000000; stroke-width: 0.8"/>
      </g>
     </g>
     <g id="text_12">
      <!-- 0.08 -->
      <g transform="translate(25.114375 162.038185) scale(0.1 -0.1)">
       <use xlink:href="#DejaVuSans-30"/>
       <use xlink:href="#DejaVuSans-2e" transform="translate(63.623047 0)"/>
       <use xlink:href="#DejaVuSans-30" transform="translate(95.410156 0)"/>
       <use xlink:href="#DejaVuSans-38" transform="translate(159.033203 0)"/>
      </g>
     </g>
    </g>
    <g id="ytick_6">
     <g id="line2d_23">
      <path d="M 54.38 121.597345 
L 853.2 121.597345 
" clip-path="url(#p0a25628751)" style="fill: none; stroke: #b0b0b0; stroke-opacity: 0.3; stroke-width: 0.8; stroke-linecap: square"/>
     </g>
     <g id="line2d_24">
      <g>
       <use xlink:href="#m90eb10339e" x="54.38" y="121.597345" style="stroke: #000000; stroke-width: 0.8"/>
      </g>
     </g>
     <g id="text_13">
      <!-- 0.10 -->
      <g transform="translate(25.114375 125.396563) scale(0.1 -0.1)">
       <use xlink:href="#DejaVuSans-30"/>
       <use xlink:href="#DejaVuSans-2e" transform="translate(63.623047 0)"/>
       <use xlink:href="#DejaVuSans-31" transform="translate(95.410156 0)"/>
       <use xlink:href="#DejaVuSans-30" transform="translate(159.033203 0)"/>
      </g>
     </g>
    </g>
    <g id="ytick_7">
     <g id="line2d_25">
      <path d="M 54.38 84.955723 
L 853.2 84.955723 
" clip-path="url(#p0a25628751)" style="fill: none; stroke: #b0b0b0; stroke-opacity: 0.3; stroke-width: 0.8; stroke-linecap: square"/>
     </g>
     <g id="line2d_26">
      <g>
       <use xlink:href="#m90eb10339e" x="54.38" y="84.955723" style="stroke: #000000; stroke-width: 0.8"/>
      </g>
     </g>
     <g id="text_14">
      <!-- 0.12 -->
      <g transform="translate(25.114375 88.754941) scale(0.1 -0.1)">
       <use xlink:href="#DejaVuSans-30"/>
       <use xlink:href="#DejaVuSans-2e" transform="translate(63.623047 0)"/>
       <use xlink:href="#DejaVuSans-31" transform="translate(95.410156 0)"/>
       <use xlink:href="#DejaVuSans-32" transform="translate(159.033203 0)"/>
      </g>
     </g>
    </g>
    <g id="ytick_8">
     <g id="line2d_27">
      <path d="M 54.38 48.314101 
L 853.2 48.314101 
" clip-path="url(#p0a25628751)" style="fill: none; stroke: #b0b0b0; stroke-opacity: 0.3; stroke-width: 0.8; stroke-linecap: square"/>
     </g>
     <g id="line2d_28">
      <g>
       <use xlink:href="#m90eb10339e" x="54.38" y="48.314101" style="stroke: #000000; stroke-width: 0.8"/>
      </g>
     </g>
     <g id="text_15">
      <!-- 0.14 -->
      <g transform="translate(25.114375 52.113319) scale(0.1 -0.1)">
       <use xlink:href="#DejaVuSans-30"/>
       <use xlink:href="#DejaVuSans-2e" transform="translate(63.623047 0)"/>
       <use xlink:href="#DejaVuSans-31" transform="translate(95.410156 0)"/>
       <use xlink:href="#DejaVuSans-34" transform="translate(159.033203 0)"/>
      </g>
     </g>
    </g>
    <g id="text_16">
     <!-- ||pos error|| [m] -->
     <g transform="translate(18.756562 212.088125) rotate(-90) scale(0.1 -0.1)">
      <defs>
       <path id="DejaVuSans-7c" d="M 1344 4891 
L 1344 -1509 
L 813 -1509 
L 813 4891 
L 1344 4891 
z
" transform="scale(0.015625)"/>
       <path id="DejaVuSans-70" d="M 1159 525 
L 1159 -1331 
L 581 -1331 
L 581 3500 
L 1159 3500 
L 1159 2969 
Q 1341 3281 1617 3432 
Q 1894 3584 2278 3584 
Q 2916 3584 3314 3078 
Q 3713 2572 3713 1747 
Q 3713 922 3314 415 
Q 2916 -91 2278 -91 
Q 1894 -91 1617 61 
Q 1341 213 1159 525 
z
M 3116 1747 
Q 3116 2381 2855 2742 
Q 2594 3103 2138 3103 
Q 1681 3103 1420 2742 
Q 1159 2381 1159 1747 
Q 1159 1113 1420 752 
Q 1681 391 2138 391 
Q 2594 391 2855 752 
Q 3116 1113 3116 1747 
z
" transform="scale(0.015625)"/>
       <path id="DejaVuSans-6f" d="M 1959 3097 
Q 1497 3097 1228 2736 
Q 959 2375 959 1747 
Q 959 1119 1226 758 
Q 1494 397 1959 397 
Q 2419 397 2687 759 
Q 2956 1122 2956 1747 
Q 2956 2369 2687 2733 
Q 2419 3097 1959 3097 
z
M 1959 3584 
Q 2709 3584 3137 3096 
Q 3566 2609 3566 1747 
Q 3566 888 3137 398 
Q 2709 -91 1959 -91 
Q 1206 -91 779 398 
Q 353 888 353 1747 
Q 353 2609 779 3096 
Q 1206 3584 1959 3584 
z
" transform="scale(0.015625)"/>
       <path id="DejaVuSans-65" d="M 3597 1894 
L 3597 1613 
L 953 1613 
Q 991 1019 1311 708 
Q 1631 397 2203 397 
Q 2534 397 2845 478 
Q 3156 559 3463 722 
L 3463 178 
Q 3153 47 2828 -22 
Q 2503 -91 2169 -91 
Q 1331 -91 842 396 
Q 353 884 353 1716 
Q 353 2575 817 3079 
Q 1281 3584 2069 3584 
Q 2775 3584 3186 3129 
Q 3597 2675 3597 1894 
z
M 3022 2063 
Q 3016 2534 2758 2815 
Q 2500 3097 2075 3097 
Q 1594 3097 1305 2825 
Q 1016 2553 972 2059 
L 3022 2063 
z
" transform="scale(0.015625)"/>
       <path id="DejaVuSans-72" d="M 2631 2963 
Q 2534 3019 2420 3045 
Q 2306 3072 2169 3072 
Q 1681 3072 1420 2755 
Q 1159 2438 1159 1844 
L 1159 0 
L 581 0 
L 581 3500 
L 1159 3500 
L 1159 2956 
Q 1341 3275 1631 3429 
Q 1922 3584 2338 3584 
Q 2397 3584 2469 3576 
Q 2541 3569 2628 3553 
L 2631 2963 
z
" transform="scale(0.015625)"/>
       <path id="DejaVuSans-6d" d="M 3328 2828 
Q 3544 3216 3844 3400 
Q 4144 3584 4550 3584 
Q 5097 3584 5394 3201 
Q 5691 2819 5691 2113 
L 5691 0 
L 5113 0 
L 5113 2094 
Q 5113 2597 4934 2840 
Q 4756 3084 4391 3084 
Q 3944 3084 3684 2787 
Q 3425 2491 3425 1978 
L 3425 0 
L 2847 0 
L 2847 2094 
Q 2847 2600 2669 2842 
Q 2491 3084 2119 3084 
Q 1678 3084 1418 2786 
Q 1159 2488 1159 1978 
L 1159 0 
L 581 0 
L 581 3500 
L 1159 3500 
L 1159 2956 
Q 1356 3278 1631 3431 
Q 1906 3584 2284 3584 
Q 2666 3584 2933 3390 
Q 3200 3197 3328 2828 
z
" transform="scale(0.015625)"/>
      </defs>
      <use xlink:href="#DejaVuSans-7c"/>
      <use xlink:href="#DejaVuSans-7c" transform="translate(33.691406 0)"/>
      <use xlink:href="#DejaVuSans-70" transform="translate(67.382812 0)"/>
      <use xlink:href="#DejaVuSans-6f" transform="translate(130.859375 0)"/>
      <use xlink:href="#DejaVuSans-73" transform="translate(192.041016 0)"/>
      <use xlink:href="#DejaVuSans-20" transform="translate(244.140625 0)"/>
      <use xlink:href="#DejaVuSans-65" transform="translate(275.927734 0)"/>
      <use xlink:href="#DejaVuSans-72" transform="translate(337.451172 0)"/>
      <use xlink:href="#DejaVuSans-72" transform="translate(376.814453 0)"/>
      <use xlink:href="#DejaVuSans-6f" transform="translate(415.677734 0)"/>
      <use xlink:href="#DejaVuSans-72" transform="translate(476.859375 0)"/>
      <use xlink:href="#DejaVuSans-7c" transform="translate(517.972656 0)"/>
      <use xlink:href="#DejaVuSans-7c" transform="translate(551.664062 0)"/>
      <use xlink:href="#DejaVuSans-20" transform="translate(585.355469 0)"/>
      <use xlink:href="#DejaVuSans-5b" transform="translate(617.142578 0)"/>
      <use xlink:href="#DejaVuSans-6d" transform="translate(656.15625 0)"/>
      <use xlink:href="#DejaVuSans-5d" transform="translate(753.568359 0)"/>
     </g>
    </g>
   </g>
   <g id="line2d_29">
    <path d="M 90.69 304.805455 
L 92.143854 141.420622 
L 92.870781 95.398832 
L 93.597708 73.239118 
L 94.324635 59.474527 
L 95.051562 50.123636 
L 95.778488 44.266045 
L 96.505415 41.119315 
L 97.232342 40.114545 
L 97.959269 40.845464 
L 98.686196 43.015315 
L 99.413123 46.401435 
L 100.14005 50.832929 
L 101.593904 62.317488 
L 103.047758 76.658821 
L 104.501612 93.281352 
L 109.5901 156.1623 
L 111.043954 170.62007 
L 113.224735 189.730414 
L 115.405516 207.001555 
L 118.313223 228.28257 
L 121.220931 248.147908 
L 123.401712 261.690298 
L 124.855566 269.070352 
L 125.582492 271.815811 
L 126.309419 273.696036 
L 127.036346 274.574945 
L 127.763273 274.408058 
L 128.4902 273.248984 
L 129.217127 271.243166 
L 129.944054 268.589335 
L 131.397908 262.027759 
L 135.759469 240.450843 
L 137.94025 231.552439 
L 139.394104 226.315062 
L 140.847958 221.832898 
L 141.574885 219.989742 
L 142.301812 218.461749 
L 143.028739 217.238291 
L 143.755666 216.286237 
L 144.482593 215.560887 
L 145.936446 214.585608 
L 148.844154 213.253541 
L 150.298008 212.883534 
L 151.751862 212.829227 
L 153.205716 213.014595 
L 156.84035 213.767077 
L 158.294204 213.889607 
L 159.021131 214.112675 
L 159.748058 214.484536 
L 161.201912 215.62104 
L 165.563473 219.689668 
L 167.744254 221.169734 
L 170.651962 222.947259 
L 172.105816 224.258221 
L 173.55967 225.964976 
L 175.013524 227.98892 
L 182.282793 239.117673 
L 185.190501 243.028713 
L 188.098208 246.648521 
L 189.552062 248.982731 
L 191.732843 253.026465 
L 194.640551 258.744342 
L 196.094404 261.127644 
L 196.821331 262.074751 
L 197.548258 262.816473 
L 199.002112 263.743839 
L 200.455966 264.659767 
L 201.90982 266.001421 
L 206.271381 270.834853 
L 208.452162 272.698546 
L 209.906016 274.315945 
L 215.721431 281.621992 
L 219.356066 286.947384 
L 220.80992 288.595072 
L 222.263774 290.193912 
L 223.717628 292.091382 
L 228.079189 298.423482 
L 228.806116 299.1235 
L 229.533043 299.595253 
L 230.25997 299.822022 
L 230.986897 299.816773 
L 231.713824 299.610079 
L 232.440751 299.224319 
L 233.167678 298.656625 
L 233.894605 297.889332 
L 235.348458 295.830001 
L 236.802312 293.321842 
L 238.983093 289.119906 
L 243.344655 280.185902 
L 244.798509 277.859063 
L 247.706216 273.637879 
L 248.433143 272.77109 
L 249.16007 272.146991 
L 249.886997 271.790615 
L 250.613924 271.70084 
L 251.340851 271.850498 
L 252.067778 272.197066 
L 253.521632 273.276295 
L 256.429339 275.674215 
L 257.883193 276.541503 
L 259.337047 277.036368 
L 260.063974 277.119338 
L 260.790901 277.076157 
L 262.244755 276.598019 
L 263.698609 276.06471 
L 265.152462 275.874213 
L 266.606316 276.064866 
L 270.967878 277.208675 
L 271.694805 277.21111 
L 272.421732 277.087243 
L 274.602513 276.298862 
L 275.329439 276.237171 
L 276.056366 276.363134 
L 276.783293 276.680321 
L 277.51022 277.172946 
L 278.964074 278.570875 
L 283.325636 283.540068 
L 284.052563 284.104093 
L 284.779489 284.484168 
L 285.506416 284.62904 
L 286.233343 284.489705 
L 286.96027 284.074899 
L 287.687197 283.403378 
L 292.048759 278.133839 
L 293.502613 276.566005 
L 294.956466 274.569794 
L 295.683393 273.28328 
L 296.41032 271.749784 
L 297.864174 267.853973 
L 300.044955 261.556233 
L 301.498809 257.953886 
L 304.406517 251.617385 
L 307.314224 245.458083 
L 309.495005 241.450194 
L 311.675786 237.959915 
L 313.856567 234.776638 
L 316.037347 232.06579 
L 317.491201 230.716297 
L 318.945055 229.922883 
L 320.398909 229.562951 
L 322.57969 229.369752 
L 326.941251 229.195987 
L 328.395105 228.865868 
L 332.02974 227.8116 
L 332.756667 227.902319 
L 333.483594 228.17507 
L 334.210521 228.611969 
L 335.664374 229.839608 
L 337.845155 231.908184 
L 339.299009 232.930788 
L 340.752863 233.783951 
L 342.206717 234.961281 
L 343.660571 236.609127 
L 345.841351 239.621202 
L 348.749059 243.918484 
L 350.92984 246.623028 
L 352.383694 248.078321 
L 353.110621 248.621345 
L 354.564474 249.268832 
L 356.018328 249.880666 
L 356.745255 250.377152 
L 358.199109 251.781187 
L 361.833744 255.959154 
L 363.287598 256.981968 
L 364.741451 257.885477 
L 366.195305 259.149787 
L 367.649159 260.884503 
L 369.103013 263.029071 
L 374.918428 272.340831 
L 377.099209 275.688876 
L 378.553063 277.494143 
L 379.27999 278.158545 
L 380.006917 278.61473 
L 380.733844 278.827578 
L 381.460771 278.765339 
L 382.914625 278.073843 
L 385.095405 276.990518 
L 387.276186 276.262326 
L 388.73004 275.988606 
L 390.183894 275.996741 
L 392.364675 276.157708 
L 393.091602 276.106154 
L 393.818529 275.938267 
L 394.545455 275.624536 
L 395.999309 274.638238 
L 397.453163 273.324433 
L 401.814725 268.850495 
L 403.268579 267.91269 
L 408.357067 265.131816 
L 410.537848 263.784915 
L 411.991702 263.199996 
L 413.445556 262.872274 
L 418.534044 262.231769 
L 419.987898 262.153559 
L 421.441752 262.265191 
L 422.895606 262.673447 
L 427.984094 264.629392 
L 431.618729 265.798303 
L 433.072583 266.276164 
L 434.526436 267.10704 
L 435.98029 268.289968 
L 438.887998 270.85128 
L 440.341852 271.748698 
L 443.24956 273.436482 
L 444.703413 274.269999 
L 446.157267 274.830354 
L 447.611121 275.294132 
L 448.338048 275.677706 
L 449.791902 276.830235 
L 451.972683 279.185338 
L 453.426537 280.751133 
L 454.88039 281.94728 
L 455.607317 282.310758 
L 457.788098 282.891818 
L 458.515025 283.243549 
L 459.968879 284.324509 
L 463.603514 287.647372 
L 464.33044 288.027434 
L 465.057367 288.191615 
L 465.784294 288.094339 
L 466.511221 287.703019 
L 467.238148 287.063504 
L 468.692002 285.291558 
L 470.145856 282.951884 
L 473.78049 276.064299 
L 475.961271 272.310354 
L 477.415125 269.31511 
L 478.868979 265.624027 
L 480.322833 261.835102 
L 481.776687 258.614378 
L 483.230541 256.092419 
L 484.684394 254.197426 
L 486.138248 252.784498 
L 487.592102 251.685897 
L 489.045956 250.829219 
L 491.226737 249.910446 
L 492.680591 249.27077 
L 494.134444 248.334135 
L 495.588298 247.055441 
L 497.042152 245.442253 
L 503.584494 237.033752 
L 505.038348 235.526487 
L 506.492202 234.363061 
L 508.672983 233.025453 
L 510.126837 232.337871 
L 511.580691 231.847292 
L 512.307618 231.674087 
L 513.034545 231.643252 
L 513.761471 231.811804 
L 514.488398 232.192329 
L 515.215325 232.768946 
L 516.669179 234.373903 
L 520.303814 238.97537 
L 521.757668 240.297631 
L 524.665375 242.751806 
L 526.846156 244.54063 
L 528.30001 245.543066 
L 531.207718 247.251873 
L 532.661572 248.453197 
L 534.842352 250.785108 
L 537.75006 253.961973 
L 541.384695 257.479934 
L 542.838549 259.408493 
L 547.20011 265.910265 
L 547.927037 266.688952 
L 548.653964 267.283337 
L 550.107818 268.029182 
L 553.742452 269.476977 
L 555.196306 270.502329 
L 557.377087 272.210395 
L 558.830941 272.988752 
L 560.284795 273.270675 
L 561.738649 273.511234 
L 563.192503 274.097619 
L 566.10021 275.667823 
L 567.554064 276.068405 
L 569.007918 276.11289 
L 570.461772 275.81325 
L 573.369479 275.000467 
L 574.823333 275.025286 
L 576.277187 275.277931 
L 577.004114 275.507801 
L 577.731041 275.884894 
L 578.457968 276.42973 
L 579.911822 277.966325 
L 582.81953 281.629425 
L 583.546456 282.360416 
L 585.00031 283.365292 
L 587.908018 285.025993 
L 589.361872 286.13765 
L 592.996507 289.190774 
L 594.45036 290.044818 
L 595.177287 290.280443 
L 595.904214 290.338243 
L 596.631141 290.191655 
L 597.358068 289.846545 
L 598.084995 289.316138 
L 603.173483 284.594874 
L 605.354264 283.145191 
L 606.808118 282.210978 
L 607.535045 281.888277 
L 608.261972 281.793215 
L 608.988899 281.956754 
L 609.715826 282.37346 
L 610.442753 283.01579 
L 611.896607 284.803921 
L 614.804314 288.94383 
L 615.531241 289.788021 
L 616.258168 290.455531 
L 616.985095 290.901146 
L 617.712022 291.085727 
L 618.438949 290.977256 
L 620.61973 289.753357 
L 621.346657 289.783004 
L 622.073584 290.206451 
L 622.800511 291.014408 
L 623.527437 292.15261 
L 625.708218 296.165274 
L 626.435145 297.005156 
L 627.162072 297.256509 
L 627.888999 296.889116 
L 628.615926 296.056767 
L 631.523634 291.816478 
L 632.250561 291.081282 
L 632.977487 290.583331 
L 633.704414 290.343416 
L 634.431341 290.368497 
L 635.158268 290.64804 
L 638.065976 292.517243 
L 638.792903 292.554113 
L 640.246757 292.187437 
L 641.700611 291.463792 
L 643.154464 290.392406 
L 644.608318 288.940343 
L 646.789099 286.300081 
L 648.96988 283.711831 
L 650.423734 282.249265 
L 653.331441 279.596059 
L 654.058368 278.739871 
L 654.785295 277.657554 
L 656.239149 274.710717 
L 661.327638 262.720404 
L 662.781491 259.812566 
L 664.235345 257.459334 
L 664.962272 256.55502 
L 665.689199 255.830102 
L 666.416126 255.27163 
L 667.86998 254.574547 
L 669.323834 254.264724 
L 671.504615 253.916004 
L 672.231542 253.646417 
L 672.958468 253.222539 
L 673.685395 252.631799 
L 675.139249 250.955663 
L 676.593103 248.747659 
L 683.135445 237.674457 
L 684.589299 235.651311 
L 685.316226 234.931098 
L 686.043153 234.491019 
L 686.77008 234.339795 
L 687.497007 234.458631 
L 688.223934 234.811614 
L 689.677788 236.032053 
L 693.312422 239.701485 
L 694.039349 240.160302 
L 694.766276 240.4313 
L 695.493203 240.480237 
L 696.22013 240.313812 
L 696.947057 239.984366 
L 699.127838 238.496762 
L 702.035546 236.571318 
L 703.489399 235.808542 
L 704.216326 235.637171 
L 704.943253 235.632762 
L 705.67018 235.819297 
L 706.397107 236.205761 
L 707.124034 236.773722 
L 708.577888 238.307402 
L 711.485596 241.666951 
L 712.939449 242.795683 
L 714.393303 243.569749 
L 715.847157 244.141687 
L 717.301011 244.507275 
L 719.481792 244.820576 
L 720.208719 245.150534 
L 720.935646 245.65817 
L 722.389499 247.139611 
L 724.57028 249.980564 
L 728.931842 255.823315 
L 730.385696 257.151246 
L 731.83955 258.067206 
L 733.293403 258.64607 
L 735.474184 259.15243 
L 736.201111 259.566441 
L 736.928038 260.205118 
L 737.654965 261.064758 
L 739.108819 263.329837 
L 742.016527 268.849562 
L 743.47038 271.457238 
L 744.924234 273.649122 
L 746.378088 275.278063 
L 747.105015 275.842868 
L 747.831942 276.22279 
L 748.558869 276.426235 
L 750.012723 276.448083 
L 755.101211 275.992037 
L 757.281992 275.573617 
L 761.643554 275.064095 
L 763.097407 274.481268 
L 764.551261 273.57103 
L 766.732042 271.892184 
L 768.912823 270.183101 
L 771.820531 268.203004 
L 775.455165 265.874885 
L 776.909019 265.422768 
L 780.543654 264.65099 
L 782.724434 263.9911 
L 784.178288 263.949719 
L 785.632142 264.254596 
L 788.53985 264.980294 
L 789.266777 265.092533 
L 789.993704 265.330685 
L 790.720631 265.783755 
L 791.447558 266.483074 
L 792.174484 267.422271 
L 793.628338 269.885801 
L 798.716827 279.807463 
L 800.170681 281.946193 
L 801.624535 283.550648 
L 802.351461 284.141286 
L 803.078388 284.579581 
L 805.986096 285.666431 
L 807.43995 286.717145 
L 808.893804 288.15405 
L 811.074585 290.423638 
L 812.528438 291.638276 
L 813.982292 292.518703 
L 816.163073 293.456345 
L 816.89 293.716363 
L 816.89 293.716363 
" clip-path="url(#p0a25628751)" style="fill: none; stroke: #888888; stroke-opacity: 0.6; stroke-linecap: square"/>
   </g>
   <g id="line2d_30">
    <path d="M 90.69 304.805455 
L 91.416927 217.153837 
L 92.143854 144.051783 
L 92.870781 103.930463 
L 93.597708 109.783696 
L 94.324635 152.78512 
L 95.051562 204.138509 
L 95.778488 244.098795 
L 96.505415 265.110636 
L 97.232342 273.018343 
L 99.413123 288.748839 
L 100.14005 287.386492 
L 101.593904 276.295492 
L 102.320831 273.491227 
L 103.047758 273.90307 
L 103.774685 278.826566 
L 104.501612 285.757683 
L 105.228539 287.807321 
L 105.955465 286.177281 
L 106.682392 285.310863 
L 108.136246 288.306191 
L 108.863173 285.472405 
L 110.317027 273.635688 
L 111.043954 271.495236 
L 111.770881 274.793252 
L 112.497808 282.920656 
L 113.224735 289.158475 
L 113.951662 284.353636 
L 114.678589 275.529908 
L 115.405516 270.538448 
L 116.132442 272.238739 
L 116.859369 280.918976 
L 117.586296 293.38111 
L 118.313223 290.640994 
L 119.04015 276.724368 
L 119.767077 268.088249 
L 120.494004 267.326033 
L 121.220931 274.171778 
L 121.947858 285.259206 
L 122.674785 293.73131 
L 123.401712 289.426927 
L 124.128639 281.267566 
L 124.855566 276.69861 
L 125.582492 276.049281 
L 126.309419 277.419515 
L 127.036346 277.588549 
L 127.763273 274.193196 
L 128.4902 269.504761 
L 129.217127 266.356518 
L 129.944054 266.687631 
L 130.670981 270.700607 
L 132.124835 286.097931 
L 132.851762 291.717729 
L 133.578689 291.657424 
L 134.305616 286.388427 
L 135.759469 273.906505 
L 136.486396 269.527654 
L 137.213323 267.063417 
L 137.94025 266.577322 
L 138.667177 268.132886 
L 140.847958 275.184001 
L 141.574885 279.313037 
L 142.301812 285.552985 
L 143.028739 294.303223 
L 143.755666 297.783169 
L 145.20952 273.028846 
L 145.936446 263.801734 
L 146.663373 259.715406 
L 147.3903 260.555278 
L 150.298008 277.449629 
L 151.024935 283.739035 
L 152.478789 297.775099 
L 153.205716 292.857589 
L 155.386496 261.425745 
L 156.113423 255.781917 
L 156.84035 255.153453 
L 157.567277 259.620409 
L 159.021131 273.96836 
L 160.474985 281.519129 
L 161.201912 287.117802 
L 161.928839 295.979711 
L 162.655766 299.615734 
L 164.836547 263.392544 
L 165.563473 257.205468 
L 166.2904 258.178533 
L 167.017327 266.06505 
L 167.744254 278.556258 
L 168.471181 288.351519 
L 169.198108 285.216789 
L 169.925035 281.297898 
L 170.651962 282.336058 
L 171.378889 283.656376 
L 172.105816 277.976137 
L 173.55967 256.248132 
L 174.286597 252.284935 
L 175.013524 256.556753 
L 175.74045 267.372903 
L 176.467377 281.386432 
L 177.194304 289.988778 
L 177.921231 284.445407 
L 178.648158 277.787166 
L 179.375085 276.670104 
L 180.828939 285.610294 
L 181.555866 280.634705 
L 183.00972 256.865289 
L 183.736647 248.976217 
L 184.463574 247.11779 
L 185.190501 252.262078 
L 185.917427 263.27288 
L 187.371281 293.727464 
L 188.098208 296.33786 
L 188.825135 286.022918 
L 189.552062 278.97875 
L 191.005916 270.719915 
L 193.186697 254.21356 
L 193.913624 252.779697 
L 194.640551 254.783256 
L 195.367477 259.983246 
L 196.094404 268.880946 
L 197.548258 292.562928 
L 198.275185 299.870389 
L 199.002112 289.435217 
L 199.729039 281.003196 
L 200.455966 274.383699 
L 202.636747 251.806711 
L 203.363674 249.20268 
L 204.090601 250.295431 
L 204.817528 254.295638 
L 205.544454 261.681503 
L 206.271381 272.156477 
L 207.725235 297.094135 
L 208.452162 294.31375 
L 209.906016 267.745847 
L 210.632943 257.304094 
L 211.35987 251.117942 
L 212.086797 249.789553 
L 212.813724 252.673603 
L 214.267578 263.865783 
L 214.994505 266.326646 
L 215.721431 264.777992 
L 217.175285 257.105538 
L 219.356066 249.007607 
L 220.80992 240.96485 
L 221.536847 239.982112 
L 222.263774 243.136421 
L 222.990701 251.012837 
L 224.444555 272.533869 
L 225.171481 278.925992 
L 225.898408 280.232341 
L 226.625335 280.454812 
L 228.079189 285.762325 
L 228.806116 278.994847 
L 230.25997 253.19081 
L 230.986897 247.066097 
L 231.713824 246.033765 
L 232.440751 247.590195 
L 234.621532 255.069086 
L 235.348458 258.363309 
L 236.075385 262.198214 
L 236.802312 264.605081 
L 237.529239 262.756141 
L 238.256166 257.633306 
L 238.983093 254.438607 
L 239.71002 255.672632 
L 240.436947 261.441885 
L 241.163874 270.760406 
L 241.890801 281.840118 
L 242.617728 289.079409 
L 243.344655 284.703822 
L 244.798509 265.364145 
L 245.525435 259.031496 
L 246.252362 258.363886 
L 246.979289 263.791637 
L 247.706216 272.520269 
L 248.433143 278.723628 
L 249.16007 273.723909 
L 249.886997 262.160179 
L 250.613924 254.634589 
L 251.340851 254.220882 
L 252.067778 259.032319 
L 252.794705 265.256989 
L 253.521632 268.333991 
L 254.248559 266.85219 
L 255.702412 259.14431 
L 256.429339 257.065685 
L 257.156266 257.205138 
L 257.883193 259.366935 
L 258.61012 262.599275 
L 259.337047 264.874508 
L 260.063974 263.213475 
L 261.517828 251.504254 
L 262.244755 248.40531 
L 262.971682 251.158203 
L 263.698609 258.889447 
L 264.425536 268.405694 
L 265.152462 274.504844 
L 265.879389 271.824099 
L 266.606316 264.323224 
L 267.333243 259.279658 
L 268.06017 259.160056 
L 268.787097 261.637924 
L 269.514024 262.298547 
L 270.240951 258.132036 
L 270.967878 251.123633 
L 271.694805 245.978475 
L 272.421732 246.033018 
L 273.148659 251.875033 
L 274.602513 272.524 
L 275.329439 279.599672 
L 276.056366 277.674623 
L 277.51022 261.328179 
L 280.417928 225.348972 
L 281.144855 221.101707 
L 281.871782 221.560693 
L 282.598709 227.148243 
L 283.325636 236.947851 
L 285.506416 272.863645 
L 286.233343 282.438883 
L 286.96027 290.250099 
L 287.687197 290.383796 
L 288.414124 281.252719 
L 289.867978 259.994992 
L 290.594905 251.434229 
L 291.321832 245.775734 
L 292.048759 243.478262 
L 292.775686 243.398584 
L 293.502613 244.02934 
L 294.22954 246.207135 
L 294.956466 251.1778 
L 295.683393 260.194937 
L 296.41032 271.916783 
L 297.137247 281.179548 
L 297.864174 278.95472 
L 299.318028 256.885064 
L 300.044955 248.834614 
L 300.771882 244.342208 
L 301.498809 242.641049 
L 302.225736 242.291911 
L 302.952663 243.141757 
L 303.67959 246.112182 
L 304.406517 252.3051 
L 305.86037 272.817679 
L 306.587297 279.169863 
L 307.314224 274.107511 
L 308.768078 252.898988 
L 309.495005 247.043567 
L 310.221932 245.425181 
L 310.948859 247.015606 
L 311.675786 248.900302 
L 312.402713 248.887999 
L 313.12964 246.461581 
L 313.856567 243.12293 
L 314.583493 242.248383 
L 315.31042 246.136909 
L 316.764274 259.851073 
L 317.491201 261.072009 
L 318.218128 255.580562 
L 318.945055 248.714342 
L 319.671982 245.166631 
L 320.398909 246.926877 
L 321.852763 260.555507 
L 322.57969 263.912528 
L 323.306617 261.202735 
L 324.76047 245.820645 
L 325.487397 241.101117 
L 326.214324 240.424207 
L 327.668178 243.514162 
L 328.395105 246.069433 
L 329.122032 251.003963 
L 329.848959 259.02196 
L 331.302813 279.471413 
L 332.02974 284.264627 
L 332.756667 278.168736 
L 334.210521 252.959049 
L 334.937447 240.534438 
L 335.664374 231.199165 
L 336.391301 228.202033 
L 337.118228 233.256788 
L 337.845155 244.740858 
L 339.299009 273.608591 
L 340.025936 284.877858 
L 340.752863 292.341607 
L 341.47979 293.339052 
L 342.206717 285.737207 
L 345.114424 241.448874 
L 345.841351 237.744274 
L 346.568278 238.416874 
L 348.749059 246.639777 
L 349.475986 252.20902 
L 351.656767 276.689851 
L 352.383694 273.428756 
L 353.837548 249.780332 
L 354.564474 241.684696 
L 355.291401 238.514483 
L 356.018328 238.648656 
L 358.199109 243.488161 
L 358.926036 246.693189 
L 359.652963 252.44643 
L 361.833744 278.026954 
L 362.560671 279.996516 
L 363.287598 274.685365 
L 364.014525 263.052862 
L 365.468378 233.777845 
L 366.195305 222.820441 
L 366.922232 217.533032 
L 367.649159 218.589381 
L 368.376086 224.853169 
L 369.103013 235.089472 
L 371.283794 274.21368 
L 372.010721 283.464399 
L 372.737648 286.881547 
L 373.464575 281.071135 
L 375.645355 245.492974 
L 376.372282 237.411776 
L 377.099209 232.704637 
L 377.826136 229.937959 
L 378.553063 228.265012 
L 379.27999 227.368401 
L 380.006917 227.059634 
L 380.733844 227.933581 
L 381.460771 230.753988 
L 382.187698 235.43754 
L 382.914625 240.851693 
L 383.641552 245.423095 
L 384.368478 247.855467 
L 385.822332 249.782866 
L 386.549259 253.611599 
L 387.276186 261.03921 
L 388.003113 270.072563 
L 388.73004 276.314395 
L 389.456967 273.129251 
L 393.091602 222.907284 
L 393.818529 214.5957 
L 394.545455 208.472208 
L 395.272382 205.941163 
L 395.999309 207.772901 
L 396.726236 213.437136 
L 398.18009 230.238767 
L 401.087798 264.645083 
L 401.814725 272.57812 
L 402.541652 274.727429 
L 403.268579 268.81518 
L 403.995506 260.482111 
L 404.722432 254.014425 
L 405.449359 250.222613 
L 406.176286 248.15751 
L 406.903213 245.063104 
L 407.63014 239.513935 
L 408.357067 232.848839 
L 409.083994 228.434305 
L 409.810921 229.190341 
L 410.537848 235.895432 
L 411.991702 256.08224 
L 412.718629 261.065836 
L 413.445556 259.288628 
L 414.172482 255.536074 
L 414.899409 253.861092 
L 415.626336 254.687278 
L 416.353263 254.897896 
L 417.08019 251.352929 
L 417.807117 243.663679 
L 418.534044 234.696364 
L 419.260971 228.421477 
L 419.987898 227.543425 
L 420.714825 232.869272 
L 422.168679 251.022703 
L 422.895606 255.727837 
L 423.622533 255.807564 
L 424.349459 255.129332 
L 425.076386 256.622147 
L 425.803313 259.371039 
L 426.53024 259.090641 
L 427.257167 253.016303 
L 428.711021 232.853879 
L 429.437948 227.378396 
L 430.164875 227.699534 
L 430.891802 233.3204 
L 431.618729 240.923634 
L 432.345656 246.358199 
L 433.072583 249.02317 
L 433.79951 251.094087 
L 434.526436 255.098924 
L 436.707217 275.306721 
L 437.434144 272.754599 
L 438.161071 263.599646 
L 439.614925 240.516081 
L 440.341852 233.594104 
L 441.068779 232.303233 
L 441.795706 235.148337 
L 442.522633 240.611857 
L 443.976486 254.801606 
L 444.703413 262.801719 
L 445.43034 268.422111 
L 446.157267 268.055556 
L 446.884194 260.136208 
L 448.338048 236.468734 
L 449.064975 229.859355 
L 449.791902 229.891105 
L 450.518829 234.923228 
L 451.245756 242.765538 
L 453.426537 270.930261 
L 454.153463 275.631405 
L 454.88039 271.070611 
L 457.788098 227.51589 
L 458.515025 221.817405 
L 459.241952 220.447112 
L 459.968879 225.383446 
L 460.695806 236.203307 
L 462.14966 265.34993 
L 462.876587 275.614989 
L 463.603514 277.548327 
L 464.33044 272.688221 
L 465.784294 256.454271 
L 467.965075 228.132165 
L 468.692002 222.320231 
L 469.418929 220.238453 
L 470.145856 223.270287 
L 470.872783 232.237271 
L 473.053564 273.654917 
L 473.78049 278.613529 
L 474.507417 274.64551 
L 475.234344 265.504363 
L 476.688198 241.915197 
L 477.415125 233.162965 
L 478.142052 230.955773 
L 478.868979 234.719545 
L 480.322833 249.408988 
L 482.503614 275.529644 
L 483.230541 276.202227 
L 483.957467 267.273124 
L 485.411321 239.905613 
L 486.138248 232.888484 
L 486.865175 233.604012 
L 487.592102 240.117508 
L 489.045956 256.514464 
L 489.772883 261.434515 
L 490.49981 263.534447 
L 491.226737 264.190069 
L 491.953664 263.370452 
L 492.680591 258.763407 
L 494.134444 237.507922 
L 494.861371 231.353024 
L 495.588298 231.605025 
L 496.315225 237.773899 
L 497.769079 259.049157 
L 498.496006 266.616948 
L 499.222933 269.019778 
L 499.94986 264.283963 
L 500.676787 253.254582 
L 501.403714 239.848542 
L 502.130641 229.911685 
L 502.857568 226.407969 
L 503.584494 229.946918 
L 504.311421 238.717306 
L 505.765275 259.334618 
L 507.219129 276.004655 
L 507.946056 282.748829 
L 508.672983 281.569136 
L 509.39991 271.236652 
L 510.853764 246.55983 
L 511.580691 236.432956 
L 512.307618 229.627017 
L 513.034545 227.124407 
L 513.761471 229.880199 
L 514.488398 237.592612 
L 515.215325 249.150793 
L 516.669179 275.670505 
L 517.396106 283.424415 
L 518.123033 280.825188 
L 519.576887 259.952062 
L 521.030741 238.852461 
L 521.757668 230.568086 
L 522.484595 225.850685 
L 523.211522 226.076799 
L 523.938448 231.882645 
L 524.665375 242.150272 
L 526.119229 269.752343 
L 526.846156 280.55267 
L 527.573083 283.331749 
L 528.30001 276.382194 
L 530.480791 244.390484 
L 531.207718 235.387341 
L 531.934645 228.803948 
L 532.661572 225.9421 
L 533.388498 229.162445 
L 534.115425 239.050584 
L 535.569279 268.016735 
L 536.296206 277.344488 
L 537.023133 278.78909 
L 537.75006 276.792255 
L 538.476987 272.788438 
L 539.203914 264.284042 
L 540.657768 237.496293 
L 541.384695 228.127332 
L 542.111622 225.667397 
L 542.838549 230.154953 
L 545.019329 258.082558 
L 545.746256 263.351298 
L 547.20011 271.793974 
L 547.927037 272.573398 
L 548.653964 266.687561 
L 550.107818 243.588109 
L 550.834745 235.355408 
L 551.561672 233.075551 
L 552.288599 236.892189 
L 553.015526 245.100851 
L 554.469379 265.379077 
L 555.196306 269.651821 
L 555.923233 269.435509 
L 556.65016 266.106872 
L 557.377087 259.345467 
L 558.830941 240.8524 
L 559.557868 234.895189 
L 560.284795 234.003291 
L 561.011722 238.053756 
L 561.738649 247.438797 
L 563.192503 272.870849 
L 563.919429 280.121454 
L 564.646356 276.880086 
L 565.373283 266.687495 
L 566.10021 254.867471 
L 566.827137 245.196696 
L 567.554064 240.707742 
L 568.280991 241.025364 
L 569.007918 244.700477 
L 570.461772 253.39326 
L 572.642553 262.928062 
L 573.369479 264.99479 
L 574.096406 261.288794 
L 574.823333 251.812179 
L 575.55026 243.838997 
L 576.277187 241.999437 
L 577.004114 246.747814 
L 577.731041 256.910593 
L 579.184895 281.176366 
L 579.911822 285.997583 
L 580.638749 279.672822 
L 582.092603 254.503292 
L 582.81953 241.748307 
L 583.546456 233.62805 
L 584.273383 233.1158 
L 585.00031 240.323032 
L 585.727237 253.101532 
L 587.181091 281.824558 
L 587.908018 287.568927 
L 588.634945 287.464007 
L 589.361872 283.141047 
L 590.088799 271.617739 
L 591.542653 241.663215 
L 592.26958 235.691111 
L 592.996507 238.849116 
L 593.723433 249.57718 
L 595.177287 279.75771 
L 595.904214 288.339843 
L 596.631141 287.269257 
L 597.358068 282.65917 
L 598.084995 276.406843 
L 598.811922 266.705537 
L 599.538849 255.332102 
L 600.265776 246.675832 
L 600.992703 243.104577 
L 601.71963 244.272703 
L 602.446557 250.185522 
L 603.173483 259.670544 
L 604.627337 282.167041 
L 605.354264 288.457349 
L 606.081191 282.914852 
L 607.535045 259.861401 
L 608.261972 247.883149 
L 608.988899 238.113531 
L 609.715826 232.114689 
L 610.442753 230.813505 
L 611.16968 234.310035 
L 612.623534 248.031635 
L 614.077387 263.665662 
L 616.258168 291.045368 
L 616.985095 292.397696 
L 617.712022 287.429506 
L 618.438949 279.723667 
L 619.165876 267.938251 
L 619.892803 253.629665 
L 620.61973 242.242799 
L 621.346657 237.667021 
L 622.073584 241.31775 
L 622.800511 252.127093 
L 624.254364 280.863442 
L 624.981291 289.908976 
L 625.708218 290.431602 
L 626.435145 286.619022 
L 627.162072 277.41007 
L 628.615926 250.297258 
L 629.342853 242.9007 
L 630.06978 241.473146 
L 630.796707 244.915202 
L 632.250561 255.164301 
L 633.704414 264.007137 
L 634.431341 267.165474 
L 635.158268 265.623888 
L 636.612122 251.825764 
L 637.339049 249.263235 
L 638.065976 253.264793 
L 638.792903 263.190252 
L 639.51983 277.061738 
L 640.246757 288.793567 
L 640.973684 287.726023 
L 642.427538 267.629182 
L 643.881391 246.86211 
L 644.608318 242.561055 
L 645.335245 245.273846 
L 646.062172 254.742604 
L 647.516026 282.252027 
L 648.242953 292.245867 
L 648.96988 295.080078 
L 649.696807 289.229195 
L 650.423734 278.233165 
L 651.877588 252.214615 
L 652.604515 244.965063 
L 653.331441 245.56947 
L 654.058368 253.477975 
L 656.239149 292.778297 
L 656.966076 295.4636 
L 657.693003 290.805871 
L 658.41993 281.549328 
L 659.873784 255.666454 
L 660.600711 246.616653 
L 661.327638 245.677733 
L 662.054565 252.938182 
L 662.781491 266.400604 
L 663.508418 282.11955 
L 664.235345 293.190448 
L 664.962272 292.435086 
L 665.689199 290.814426 
L 666.416126 294.469782 
L 667.143053 293.516264 
L 667.86998 279.882073 
L 669.323834 248.713995 
L 670.050761 239.798895 
L 670.777688 238.607642 
L 671.504615 245.406526 
L 672.231542 258.493643 
L 673.685395 290.401997 
L 674.412322 294.714279 
L 675.139249 290.50964 
L 675.866176 291.236075 
L 676.593103 295.896752 
L 677.32003 288.381929 
L 678.773884 255.703255 
L 679.500811 244.077587 
L 680.227738 239.674616 
L 680.954665 243.419256 
L 681.681592 254.237377 
L 683.135445 285.446412 
L 683.862372 295.015268 
L 684.589299 292.508836 
L 685.316226 291.086546 
L 686.043153 292.997717 
L 686.77008 288.894874 
L 687.497007 276.050903 
L 688.223934 261.088009 
L 688.950861 248.969719 
L 689.677788 242.832949 
L 690.404715 244.150701 
L 691.131642 252.387711 
L 693.312422 292.287006 
L 694.039349 293.434691 
L 694.766276 290.578444 
L 695.493203 289.684395 
L 696.22013 287.429439 
L 696.947057 278.507713 
L 698.400911 254.473617 
L 699.127838 247.40636 
L 699.854765 246.895937 
L 700.581692 253.011681 
L 701.308619 264.63047 
L 702.762472 292.108074 
L 703.489399 292.528562 
L 704.216326 287.109158 
L 704.943253 285.127898 
L 705.67018 285.219965 
L 706.397107 281.794221 
L 708.577888 253.129392 
L 709.304815 249.559103 
L 710.031742 252.514257 
L 710.758669 261.464838 
L 712.212523 288.597941 
L 712.939449 294.085484 
L 713.666376 287.581472 
L 714.393303 283.260624 
L 715.12023 282.591005 
L 715.847157 282.420325 
L 716.574084 277.56151 
L 718.027938 257.4664 
L 718.754865 250.380725 
L 719.481792 249.693956 
L 720.208719 256.822274 
L 720.935646 269.651093 
L 721.662573 285.273582 
L 722.389499 295.346571 
L 723.116426 288.73783 
L 723.843353 284.78712 
L 724.57028 288.952441 
L 725.297207 295.463565 
L 726.024134 285.061919 
L 726.751061 270.182185 
L 727.477988 262.92816 
L 728.204915 265.599896 
L 728.931842 276.185389 
L 729.658769 289.069237 
L 730.385696 291.619944 
L 731.112623 284.127893 
L 731.83955 281.048535 
L 732.566476 285.027801 
L 733.293403 291.607069 
L 734.02033 286.999438 
L 734.747257 273.51728 
L 735.474184 262.890622 
L 736.201111 258.922229 
L 736.928038 261.767071 
L 737.654965 270.014315 
L 738.381892 280.733175 
L 739.108819 288.520363 
L 739.835746 289.187461 
L 740.562673 286.792918 
L 741.2896 283.149347 
L 742.016527 277.075182 
L 743.47038 260.80156 
L 744.197307 257.871232 
L 744.924234 260.246919 
L 747.105015 277.872866 
L 747.831942 280.523763 
L 748.558869 283.68949 
L 749.285796 289.783395 
L 750.012723 294.64075 
L 750.73965 286.591327 
L 751.466577 273.21069 
L 752.193504 262.945579 
L 752.92043 259.226045 
L 753.647357 262.185652 
L 754.374284 270.960906 
L 755.101211 282.48899 
L 755.828138 290.354086 
L 756.555065 289.814737 
L 758.008919 280.414337 
L 759.462773 274.103405 
L 760.1897 269.735111 
L 761.643554 257.911122 
L 762.37048 254.077763 
L 763.097407 254.542066 
L 763.824334 260.511153 
L 764.551261 272.208085 
L 765.278188 287.783321 
L 766.005115 293.870594 
L 766.732042 283.937782 
L 767.458969 279.605141 
L 768.185896 283.119005 
L 768.912823 288.933956 
L 769.63975 284.820812 
L 770.366677 274.354285 
L 771.093604 267.543563 
L 771.820531 268.168203 
L 772.547457 276.323832 
L 773.274384 288.227872 
L 774.001311 291.617712 
L 774.728238 283.97712 
L 775.455165 280.141089 
L 776.182092 282.739319 
L 776.909019 287.394008 
L 777.635946 285.358377 
L 779.0898 265.07002 
L 779.816727 259.325961 
L 780.543654 259.748492 
L 781.270581 264.860915 
L 781.997508 271.280293 
L 782.724434 275.122402 
L 783.451361 275.928446 
L 784.178288 277.160284 
L 784.905215 279.212952 
L 785.632142 282.21267 
L 786.359069 286.786447 
L 787.085996 288.289003 
L 787.812923 282.912902 
L 788.53985 274.619104 
L 789.266777 268.386882 
L 789.993704 267.826535 
L 790.720631 274.516194 
L 791.447558 286.227511 
L 792.174484 292.171113 
L 792.901411 281.584655 
L 793.628338 272.696079 
L 794.355265 272.156344 
L 795.082192 279.207668 
L 795.809119 289.718452 
L 796.536046 291.840787 
L 797.262973 280.645364 
L 797.9899 271.177767 
L 798.716827 267.210771 
L 799.443754 267.541929 
L 800.170681 268.960892 
L 800.897608 268.885135 
L 801.624535 268.187312 
L 802.351461 269.983412 
L 803.078388 276.324024 
L 803.805315 285.089577 
L 804.532242 287.535939 
L 805.986096 275.855496 
L 806.713023 273.445256 
L 807.43995 273.645353 
L 808.166877 274.986776 
L 808.893804 277.391093 
L 809.620731 280.867408 
L 810.347658 283.277328 
L 811.074585 280.839947 
L 812.528438 270.766273 
L 813.255365 269.333151 
L 813.982292 270.325557 
L 814.709219 272.346938 
L 816.163073 275.603984 
L 816.89 277.640483 
L 816.89 277.640483 
" clip-path="url(#p0a25628751)" style="fill: none; stroke: #2ca02c; stroke-width: 1.2; stroke-linecap: square"/>
   </g>
   <g id="line2d_31">
    <path d="M 90.69 304.805455 
L 91.416927 217.092231 
L 92.143854 144.176205 
L 92.870781 104.380022 
L 93.597708 109.066286 
L 95.778488 217.858894 
L 96.505415 239.734161 
L 97.232342 253.257429 
L 97.959269 260.522983 
L 98.686196 263.928764 
L 99.413123 265.430034 
L 100.14005 265.939988 
L 100.866977 265.898791 
L 102.320831 265.148919 
L 103.774685 264.293657 
L 105.228539 263.681496 
L 106.682392 263.327735 
L 107.409319 263.292032 
L 108.136246 263.50564 
L 108.863173 264.030419 
L 109.5901 265.119483 
L 111.043954 268.20672 
L 113.224735 273.014901 
L 113.951662 273.506355 
L 115.405516 273.540881 
L 116.132442 273.276272 
L 116.859369 272.710244 
L 119.04015 270.534378 
L 119.767077 270.018788 
L 120.494004 269.736429 
L 121.220931 269.705777 
L 121.947858 269.916945 
L 123.401712 270.976032 
L 124.128639 271.481341 
L 124.855566 272.295163 
L 126.309419 274.244031 
L 127.036346 274.924196 
L 127.763273 275.293725 
L 128.4902 275.331792 
L 129.217127 275.030838 
L 129.944054 274.408504 
L 130.670981 273.477977 
L 131.397908 272.265858 
L 132.851762 269.062997 
L 135.032543 263.232838 
L 135.759469 261.987751 
L 136.486396 261.283773 
L 137.213323 261.225389 
L 137.94025 261.775624 
L 138.667177 262.782498 
L 139.394104 264.22968 
L 143.028739 272.620465 
L 144.482593 275.625656 
L 145.20952 276.747237 
L 145.936446 277.530495 
L 148.117227 279.028729 
L 148.844154 279.762004 
L 150.298008 281.706465 
L 151.024935 282.186708 
L 151.751862 282.206033 
L 152.478789 281.907361 
L 153.932643 280.78654 
L 154.65957 279.887017 
L 155.386496 278.595509 
L 156.113423 276.888889 
L 159.021131 268.62238 
L 159.748058 266.990611 
L 160.474985 265.696249 
L 161.928839 263.950961 
L 163.382693 261.495539 
L 164.836547 258.94805 
L 165.563473 257.987571 
L 166.2904 257.25537 
L 167.017327 256.751353 
L 167.744254 256.456581 
L 170.651962 255.851254 
L 172.105816 255.315064 
L 172.832743 255.358078 
L 173.55967 256.01349 
L 174.286597 257.20073 
L 175.013524 258.793671 
L 176.467377 262.557159 
L 177.194304 263.520777 
L 177.921231 263.363455 
L 178.648158 262.828597 
L 179.375085 262.714507 
L 180.102012 263.25741 
L 181.555866 265.157964 
L 182.282793 265.719306 
L 183.00972 265.838653 
L 183.736647 265.54504 
L 185.917427 264.21798 
L 186.644354 264.010518 
L 187.371281 264.044996 
L 188.098208 264.331447 
L 188.825135 265.00009 
L 189.552062 266.146437 
L 191.005916 268.744247 
L 191.732843 269.328073 
L 192.45977 269.088639 
L 193.913624 267.061131 
L 194.640551 266.603268 
L 195.367477 266.533349 
L 196.094404 266.654965 
L 196.821331 267.153239 
L 198.275185 268.809039 
L 199.002112 269.237802 
L 199.729039 269.178287 
L 200.455966 268.560821 
L 202.636747 266.133272 
L 203.363674 265.053978 
L 204.090601 263.699366 
L 205.544454 260.13124 
L 206.271381 258.338889 
L 206.998308 256.890114 
L 207.725235 255.891764 
L 208.452162 255.384714 
L 209.179089 255.366282 
L 209.906016 255.806064 
L 211.35987 257.638755 
L 214.267578 261.574008 
L 215.721431 264.063072 
L 216.448358 265.371978 
L 217.175285 266.374231 
L 218.629139 267.555645 
L 220.80992 269.024396 
L 221.536847 269.248478 
L 222.263774 269.126802 
L 223.717628 268.447994 
L 224.444555 268.271063 
L 225.171481 268.386149 
L 225.898408 268.839533 
L 227.352262 270.241566 
L 228.079189 270.648713 
L 228.806116 270.674409 
L 229.533043 270.269296 
L 230.25997 269.348851 
L 230.986897 267.975804 
L 232.440751 264.178187 
L 233.167678 262.199091 
L 233.894605 260.667773 
L 234.621532 259.86727 
L 235.348458 259.92096 
L 236.075385 260.889377 
L 238.256166 266.127783 
L 238.983093 267.144892 
L 240.436947 268.593398 
L 241.163874 269.495998 
L 241.890801 270.686133 
L 242.617728 272.13844 
L 243.344655 273.164765 
L 244.071582 273.562801 
L 244.798509 273.396398 
L 245.525435 272.74679 
L 246.252362 271.456539 
L 246.979289 269.587174 
L 247.706216 268.025084 
L 249.886997 264.926144 
L 250.613924 264.3776 
L 251.340851 264.040778 
L 252.794705 263.760701 
L 253.521632 263.761169 
L 260.790901 264.778148 
L 262.971682 264.806878 
L 267.333243 264.526844 
L 268.787097 264.785985 
L 270.240951 265.394463 
L 271.694805 266.309802 
L 273.148659 267.292304 
L 274.602513 267.909867 
L 280.417928 269.757721 
L 281.871782 270.39918 
L 282.598709 271.050575 
L 285.506416 275.166428 
L 286.233343 275.480399 
L 286.96027 275.214017 
L 287.687197 274.567811 
L 289.867978 272.192126 
L 290.594905 271.667909 
L 292.775686 270.680682 
L 294.22954 270.270113 
L 294.956466 270.19158 
L 296.41032 270.375866 
L 298.591101 270.874533 
L 299.318028 270.889171 
L 300.771882 270.649006 
L 301.498809 270.658733 
L 303.67959 271.210481 
L 304.406517 270.989891 
L 305.133443 270.440905 
L 307.314224 268.291982 
L 308.041151 267.790321 
L 308.768078 267.502896 
L 309.495005 267.439254 
L 310.221932 267.569265 
L 310.948859 267.956482 
L 311.675786 268.709312 
L 313.12964 270.858238 
L 313.856567 272.03837 
L 314.583493 272.853733 
L 315.31042 272.822655 
L 316.764274 271.458015 
L 318.218128 269.929492 
L 318.945055 269.428084 
L 320.398909 268.787867 
L 321.852763 268.512265 
L 323.306617 268.626128 
L 324.76047 269.421429 
L 325.487397 269.419911 
L 326.214324 268.717552 
L 327.668178 265.95492 
L 328.395105 264.55598 
L 329.122032 263.402563 
L 329.848959 263.017337 
L 330.575886 263.53426 
L 331.302813 264.574041 
L 332.756667 267.431087 
L 334.210521 270.329634 
L 334.937447 271.560244 
L 335.664374 272.22925 
L 336.391301 272.207645 
L 337.118228 271.81281 
L 337.845155 271.194623 
L 338.572082 270.330804 
L 340.752863 267.073196 
L 341.47979 266.075477 
L 342.206717 265.483179 
L 342.933644 265.304172 
L 344.387497 265.165776 
L 345.114424 264.96377 
L 345.841351 264.613229 
L 347.295205 263.491857 
L 348.749059 262.307901 
L 349.475986 261.98088 
L 350.202913 262.27076 
L 350.92984 263.473493 
L 353.110621 268.16884 
L 353.837548 269.401176 
L 354.564474 270.328343 
L 355.291401 270.916562 
L 356.018328 271.196795 
L 356.745255 271.18668 
L 357.472182 270.914256 
L 358.199109 270.873851 
L 358.926036 271.056665 
L 360.37989 271.8467 
L 362.560671 273.511125 
L 365.468378 276.061194 
L 366.922232 277.336992 
L 369.103013 278.684308 
L 369.82994 278.423712 
L 370.556867 277.198516 
L 372.010721 273.379677 
L 372.737648 271.973596 
L 373.464575 271.449161 
L 374.191502 271.863717 
L 377.826136 277.189085 
L 378.553063 277.869356 
L 379.27999 277.931585 
L 380.006917 277.341673 
L 380.733844 276.479824 
L 381.460771 275.86454 
L 382.187698 275.899819 
L 382.914625 276.658656 
L 383.641552 277.228183 
L 384.368478 276.828156 
L 385.095405 275.663708 
L 386.549259 273.074664 
L 387.276186 272.261219 
L 388.003113 271.923395 
L 388.73004 271.890775 
L 390.183894 272.040841 
L 390.910821 271.542451 
L 393.091602 269.674118 
L 393.818529 269.247334 
L 394.545455 268.979991 
L 395.272382 268.880916 
L 395.999309 268.960147 
L 396.726236 269.212507 
L 397.453163 269.635934 
L 398.907017 271.037029 
L 401.087798 273.58364 
L 401.814725 274.183564 
L 402.541652 274.634728 
L 403.268579 274.807149 
L 403.995506 274.632298 
L 404.722432 274.229737 
L 405.449359 273.639618 
L 406.903213 272.011936 
L 408.357067 269.93212 
L 410.537848 266.361314 
L 411.264775 265.90159 
L 411.991702 266.522914 
L 412.718629 267.974114 
L 416.353263 277.889155 
L 417.08019 279.143424 
L 417.807117 280.135086 
L 420.714825 283.157353 
L 421.441752 283.659554 
L 422.168679 283.381729 
L 422.895606 282.631336 
L 426.53024 277.834468 
L 427.984094 276.61297 
L 429.437948 275.802466 
L 434.526436 273.131334 
L 435.98029 272.166205 
L 436.707217 271.908612 
L 439.614925 271.617242 
L 443.976486 270.321529 
L 444.703413 270.401227 
L 445.43034 270.732113 
L 446.157267 271.432945 
L 446.884194 272.590578 
L 447.611121 273.415597 
L 448.338048 273.678588 
L 449.064975 273.306981 
L 449.791902 272.776949 
L 450.518829 272.701999 
L 451.245756 273.196384 
L 451.972683 274.265251 
L 453.426537 276.861797 
L 454.153463 277.557778 
L 454.88039 277.666134 
L 455.607317 277.273129 
L 456.334244 276.45619 
L 458.515025 273.418892 
L 459.241952 272.680252 
L 459.968879 272.191409 
L 460.695806 271.982482 
L 461.422733 272.071105 
L 462.14966 272.46838 
L 462.876587 273.181098 
L 464.33044 274.977245 
L 465.057367 275.530636 
L 465.784294 275.712342 
L 466.511221 275.459546 
L 467.238148 274.711642 
L 467.965075 273.749528 
L 468.692002 273.422456 
L 470.145856 273.831081 
L 470.872783 273.392037 
L 472.326637 271.581399 
L 473.053564 271.158863 
L 473.78049 271.487113 
L 474.507417 272.379294 
L 475.961271 274.999504 
L 478.868979 280.80205 
L 480.322833 282.921522 
L 483.230541 286.656014 
L 483.957467 287.169965 
L 484.684394 287.129508 
L 487.592102 285.486745 
L 489.045956 284.249021 
L 489.772883 284.069851 
L 491.226737 284.30359 
L 491.953664 284.034037 
L 492.680591 283.34744 
L 494.134444 281.446124 
L 495.588298 279.178651 
L 496.315225 278.51215 
L 497.042152 278.380659 
L 497.769079 278.544682 
L 498.496006 279.131637 
L 500.676787 282.534764 
L 501.403714 282.933965 
L 502.130641 282.473433 
L 502.857568 281.241287 
L 505.038348 276.314385 
L 505.765275 275.179954 
L 506.492202 274.56596 
L 507.219129 274.520065 
L 508.672983 275.426999 
L 509.39991 275.197091 
L 510.853764 274.017579 
L 511.580691 273.688812 
L 512.307618 273.735341 
L 513.034545 274.204615 
L 513.761471 274.938947 
L 514.488398 275.446091 
L 515.942252 275.316032 
L 516.669179 275.058867 
L 517.396106 274.478899 
L 518.123033 273.41366 
L 519.576887 270.895211 
L 520.303814 269.882642 
L 521.030741 269.178194 
L 521.757668 269.311628 
L 523.938448 271.403471 
L 524.665375 271.839167 
L 525.392302 271.788531 
L 526.119229 271.257444 
L 528.30001 268.844464 
L 529.753864 266.76581 
L 531.207718 264.506976 
L 531.934645 264.051981 
L 532.661572 264.17181 
L 533.388498 264.832119 
L 534.115425 266.111214 
L 535.569279 269.722366 
L 537.023133 273.923306 
L 537.75006 275.418568 
L 538.476987 275.921498 
L 539.203914 275.58202 
L 539.930841 274.647642 
L 540.657768 273.157909 
L 542.111622 269.536867 
L 542.838549 268.129297 
L 543.565475 267.361368 
L 545.019329 266.542114 
L 545.746256 266.370959 
L 546.473183 266.459213 
L 547.20011 266.839914 
L 547.927037 267.525939 
L 548.653964 268.516517 
L 549.380891 269.800447 
L 550.834745 273.139178 
L 551.561672 274.752087 
L 552.288599 275.723068 
L 553.015526 276.329257 
L 553.742452 276.705315 
L 554.469379 276.739334 
L 555.196306 276.389542 
L 555.923233 275.650792 
L 557.377087 273.544308 
L 558.104014 273.006704 
L 559.557868 272.176791 
L 561.738649 270.638888 
L 562.465576 269.95815 
L 563.919429 268.206135 
L 564.646356 267.581265 
L 565.373283 267.597041 
L 566.10021 268.30822 
L 567.554064 270.662676 
L 568.280991 272.193397 
L 569.007918 274.093898 
L 569.734845 275.541455 
L 570.461772 275.817803 
L 573.369479 274.519164 
L 575.55026 270.960692 
L 576.277187 270.65517 
L 577.004114 270.902275 
L 579.184895 272.310325 
L 579.911822 272.59529 
L 580.638749 272.630004 
L 581.365676 272.327315 
L 582.092603 271.64966 
L 582.81953 270.668113 
L 585.00031 267.262314 
L 588.634945 262.571095 
L 590.088799 261.122937 
L 591.542653 259.201478 
L 593.723433 255.965257 
L 594.45036 255.794763 
L 595.177287 256.518196 
L 595.904214 257.999925 
L 596.631141 260.036613 
L 598.084995 265.254367 
L 598.811922 267.881515 
L 599.538849 270.009299 
L 600.265776 271.228919 
L 600.992703 271.513702 
L 601.71963 270.857848 
L 603.173483 268.427155 
L 604.627337 265.793666 
L 605.354264 265.331631 
L 606.081191 265.839323 
L 607.535045 268.128955 
L 608.261972 268.720571 
L 608.988899 268.501266 
L 610.442753 266.516626 
L 612.623534 264.491134 
L 613.35046 263.470003 
L 614.804314 260.808319 
L 615.531241 259.892621 
L 616.258168 259.518391 
L 616.985095 259.786622 
L 617.712022 260.750722 
L 619.165876 264.131111 
L 621.346657 269.828066 
L 622.073584 270.67486 
L 622.800511 270.642968 
L 623.527437 270.336231 
L 624.981291 269.474108 
L 625.708218 269.519697 
L 626.435145 270.145671 
L 627.162072 270.594432 
L 627.888999 270.816662 
L 628.615926 270.838347 
L 629.342853 270.556183 
L 630.06978 269.882837 
L 630.796707 268.761815 
L 632.250561 265.492682 
L 632.977487 263.60257 
L 633.704414 262.07165 
L 634.431341 261.610886 
L 635.158268 261.853941 
L 635.885195 262.458881 
L 638.792903 265.353098 
L 640.246757 266.440365 
L 646.062172 270.253616 
L 646.789099 270.529701 
L 647.516026 270.589124 
L 648.96988 270.214928 
L 650.423734 269.881149 
L 651.150661 269.902165 
L 651.877588 270.07066 
L 653.331441 270.769375 
L 654.785295 271.694053 
L 655.512222 272.007088 
L 656.239149 272.126063 
L 656.966076 272.078249 
L 657.693003 271.857872 
L 658.41993 271.453699 
L 659.146857 270.85402 
L 659.873784 270.045172 
L 661.327638 267.807539 
L 662.054565 266.660432 
L 662.781491 265.793021 
L 663.508418 265.442211 
L 664.235345 265.729533 
L 665.689199 267.357771 
L 666.416126 267.75124 
L 667.143053 267.874495 
L 668.596907 267.632702 
L 671.504615 266.721076 
L 672.958468 266.390196 
L 673.685395 266.593283 
L 674.412322 267.588679 
L 675.139249 269.029762 
L 675.866176 270.062588 
L 676.593103 270.657797 
L 677.32003 270.899807 
L 678.046957 270.706202 
L 679.500811 270.095526 
L 681.681592 269.2331 
L 683.135445 268.435738 
L 683.862372 267.640971 
L 684.589299 266.255713 
L 685.316226 264.622009 
L 686.043153 263.707701 
L 688.223934 262.853186 
L 691.131642 261.555054 
L 691.858569 261.306643 
L 692.585495 261.314318 
L 693.312422 261.682864 
L 694.039349 262.51286 
L 695.493203 264.933736 
L 696.22013 265.514839 
L 696.947057 265.148324 
L 698.400911 262.852206 
L 699.127838 262.295027 
L 699.854765 262.395565 
L 700.581692 263.165228 
L 701.308619 264.581316 
L 702.035546 266.602271 
L 704.216326 273.837967 
L 704.943253 275.225208 
L 705.67018 275.750155 
L 708.577888 275.731063 
L 709.304815 275.518036 
L 710.031742 274.976887 
L 710.758669 274.053346 
L 711.485596 272.743132 
L 713.666376 267.412746 
L 714.393303 266.259 
L 715.847157 264.735679 
L 718.027938 262.205576 
L 718.754865 261.751349 
L 719.481792 261.487543 
L 720.208719 261.390999 
L 720.935646 261.436473 
L 721.662573 261.612143 
L 722.389499 261.956519 
L 723.116426 262.577969 
L 723.843353 263.537599 
L 726.024134 267.127489 
L 727.477988 269.301317 
L 728.204915 269.613064 
L 729.658769 268.693858 
L 731.112623 267.94847 
L 732.566476 266.615712 
L 733.293403 266.226857 
L 735.474184 264.438907 
L 736.201111 264.096568 
L 736.928038 264.0148 
L 737.654965 264.193187 
L 738.381892 264.585448 
L 739.108819 264.841502 
L 739.835746 264.652829 
L 740.562673 263.902926 
L 741.2896 262.613695 
L 742.016527 261.057571 
L 742.743453 260.018049 
L 743.47038 259.62071 
L 744.197307 259.782515 
L 744.924234 260.450604 
L 745.651161 261.590063 
L 747.831942 265.630935 
L 749.285796 267.833815 
L 750.012723 268.660947 
L 750.73965 269.193018 
L 751.466577 269.378475 
L 752.193504 269.172458 
L 752.92043 268.536387 
L 753.647357 267.506739 
L 757.281992 260.99498 
L 758.008919 260.052402 
L 758.735846 259.316555 
L 759.462773 259.175555 
L 760.1897 259.752604 
L 761.643554 261.788393 
L 762.37048 262.489154 
L 763.097407 262.680872 
L 764.551261 262.095219 
L 765.278188 262.325815 
L 766.732042 263.999166 
L 767.458969 264.211654 
L 768.912823 264.149512 
L 769.63975 264.133781 
L 771.093604 263.739413 
L 772.547457 263.204144 
L 773.274384 263.156387 
L 774.001311 263.814655 
L 774.728238 265.159 
L 776.182092 268.273433 
L 776.909019 269.132821 
L 779.816727 271.339268 
L 781.997508 272.634867 
L 782.724434 273.438094 
L 784.178288 275.490708 
L 784.905215 275.978351 
L 785.632142 275.685562 
L 787.085996 274.192894 
L 787.812923 273.846444 
L 788.53985 274.07869 
L 789.266777 274.682592 
L 789.993704 275.014739 
L 790.720631 274.533802 
L 791.447558 273.590587 
L 792.174484 273.017062 
L 793.628338 272.696138 
L 794.355265 271.979762 
L 795.082192 270.579578 
L 796.536046 267.154134 
L 797.262973 266.058271 
L 797.9899 265.66473 
L 798.716827 266.181062 
L 799.443754 267.50167 
L 801.624535 272.151408 
L 802.351461 273.202817 
L 803.078388 273.789584 
L 803.805315 273.840778 
L 804.532242 273.401732 
L 805.259169 272.564886 
L 805.986096 271.384293 
L 806.713023 269.829632 
L 808.893804 264.394401 
L 810.347658 261.488131 
L 811.801512 259.228644 
L 813.255365 257.395512 
L 814.709219 255.839206 
L 815.436146 254.285423 
L 816.163073 247.83818 
L 816.89 230.615393 
L 816.89 230.615393 
" clip-path="url(#p0a25628751)" style="fill: none; stroke-dasharray: 3.7,1.6; stroke-dashoffset: 0; stroke: #1f77b4"/>
   </g>
   <g id="patch_3">
    <path d="M 54.38 318.04 
L 54.38 26.88 
" style="fill: none; stroke: #000000; stroke-width: 0.8; stroke-linejoin: miter; stroke-linecap: square"/>
   </g>
   <g id="patch_4">
    <path d="M 853.2 318.04 
L 853.2 26.88 
" style="fill: none; stroke: #000000; stroke-width: 0.8; stroke-linejoin: miter; stroke-linecap: square"/>
   </g>
   <g id="patch_5">
    <path d="M 54.38 318.04 
L 853.2 318.04 
" style="fill: none; stroke: #000000; stroke-width: 0.8; stroke-linejoin: miter; stroke-linecap: square"/>
   </g>
   <g id="patch_6">
    <path d="M 54.38 26.88 
L 853.2 26.88 
" style="fill: none; stroke: #000000; stroke-width: 0.8; stroke-linejoin: miter; stroke-linecap: square"/>
   </g>
   <g id="text_17">
    <!-- Position Error Magnitude — helix (small) -->
    <g transform="translate(305.429531 20.88) scale(0.13 -0.13)">
     <defs>
      <path id="DejaVuSans-Bold-50" d="M 588 4666 
L 2584 4666 
Q 3475 4666 3951 4270 
Q 4428 3875 4428 3144 
Q 4428 2409 3951 2014 
Q 3475 1619 2584 1619 
L 1791 1619 
L 1791 0 
L 588 0 
L 588 4666 
z
M 1791 3794 
L 1791 2491 
L 2456 2491 
Q 2806 2491 2997 2661 
Q 3188 2831 3188 3144 
Q 3188 3456 2997 3625 
Q 2806 3794 2456 3794 
L 1791 3794 
z
" transform="scale(0.015625)"/>
      <path id="DejaVuSans-Bold-6f" d="M 2203 2784 
Q 1831 2784 1636 2517 
Q 1441 2250 1441 1747 
Q 1441 1244 1636 976 
Q 1831 709 2203 709 
Q 2569 709 2762 976 
Q 2956 1244 2956 1747 
Q 2956 2250 2762 2517 
Q 2569 2784 2203 2784 
z
M 2203 3584 
Q 3106 3584 3614 3096 
Q 4122 2609 4122 1747 
Q 4122 884 3614 396 
Q 3106 -91 2203 -91 
Q 1297 -91 786 396 
Q 275 884 275 1747 
Q 275 2609 786 3096 
Q 1297 3584 2203 3584 
z
" transform="scale(0.015625)"/>
      <path id="DejaVuSans-Bold-73" d="M 3272 3391 
L 3272 2541 
Q 2913 2691 2578 2766 
Q 2244 2841 1947 2841 
Q 1628 2841 1473 2761 
Q 1319 2681 1319 2516 
Q 1319 2381 1436 2309 
Q 1553 2238 1856 2203 
L 2053 2175 
Q 2913 2066 3209 1816 
Q 3506 1566 3506 1031 
Q 3506 472 3093 190 
Q 2681 -91 1863 -91 
Q 1516 -91 1145 -36 
Q 775 19 384 128 
L 384 978 
Q 719 816 1070 734 
Q 1422 653 1784 653 
Q 2113 653 2278 743 
Q 2444 834 2444 1013 
Q 2444 1163 2330 1236 
Q 2216 1309 1875 1350 
L 1678 1375 
Q 931 1469 631 1722 
Q 331 1975 331 2491 
Q 331 3047 712 3315 
Q 1094 3584 1881 3584 
Q 2191 3584 2531 3537 
Q 2872 3491 3272 3391 
z
" transform="scale(0.015625)"/>
      <path id="DejaVuSans-Bold-69" d="M 538 3500 
L 1656 3500 
L 1656 0 
L 538 0 
L 538 3500 
z
M 538 4863 
L 1656 4863 
L 1656 3950 
L 538 3950 
L 538 4863 
z
" transform="scale(0.015625)"/>
      <path id="DejaVuSans-Bold-74" d="M 1759 4494 
L 1759 3500 
L 2913 3500 
L 2913 2700 
L 1759 2700 
L 1759 1216 
Q 1759 972 1856 886 
Q 1953 800 2241 800 
L 2816 800 
L 2816 0 
L 1856 0 
Q 1194 0 917 276 
Q 641 553 641 1216 
L 641 2700 
L 84 2700 
L 84 3500 
L 641 3500 
L 641 4494 
L 1759 4494 
z
" transform="scale(0.015625)"/>
      <path id="DejaVuSans-Bold-6e" d="M 4056 2131 
L 4056 0 
L 2931 0 
L 2931 347 
L 2931 1631 
Q 2931 2084 2911 2256 
Q 2891 2428 2841 2509 
Q 2775 2619 2662 2680 
Q 2550 2741 2406 2741 
Q 2056 2741 1856 2470 
Q 1656 2200 1656 1722 
L 1656 0 
L 538 0 
L 538 3500 
L 1656 3500 
L 1656 2988 
Q 1909 3294 2193 3439 
Q 2478 3584 2822 3584 
Q 3428 3584 3742 3212 
Q 4056 2841 4056 2131 
z
" transform="scale(0.015625)"/>
      <path id="DejaVuSans-Bold-20" transform="scale(0.015625)"/>
      <path id="DejaVuSans-Bold-45" d="M 588 4666 
L 3834 4666 
L 3834 3756 
L 1791 3756 
L 1791 2888 
L 3713 2888 
L 3713 1978 
L 1791 1978 
L 1791 909 
L 3903 909 
L 3903 0 
L 588 0 
L 588 4666 
z
" transform="scale(0.015625)"/>
      <path id="DejaVuSans-Bold-72" d="M 3138 2547 
Q 2991 2616 2845 2648 
Q 2700 2681 2553 2681 
Q 2122 2681 1889 2404 
Q 1656 2128 1656 1613 
L 1656 0 
L 538 0 
L 538 3500 
L 1656 3500 
L 1656 2925 
Q 1872 3269 2151 3426 
Q 2431 3584 2822 3584 
Q 2878 3584 2943 3579 
Q 3009 3575 3134 3559 
L 3138 2547 
z
" transform="scale(0.015625)"/>
      <path id="DejaVuSans-Bold-4d" d="M 588 4666 
L 2119 4666 
L 3181 2169 
L 4250 4666 
L 5778 4666 
L 5778 0 
L 4641 0 
L 4641 3413 
L 3566 897 
L 2803 897 
L 1728 3413 
L 1728 0 
L 588 0 
L 588 4666 
z
" transform="scale(0.015625)"/>
      <path id="DejaVuSans-Bold-61" d="M 2106 1575 
Q 1756 1575 1579 1456 
Q 1403 1338 1403 1106 
Q 1403 894 1545 773 
Q 1688 653 1941 653 
Q 2256 653 2472 879 
Q 2688 1106 2688 1447 
L 2688 1575 
L 2106 1575 
z
M 3816 1997 
L 3816 0 
L 2688 0 
L 2688 519 
Q 2463 200 2181 54 
Q 1900 -91 1497 -91 
Q 953 -91 614 226 
Q 275 544 275 1050 
Q 275 1666 698 1953 
Q 1122 2241 2028 2241 
L 2688 2241 
L 2688 2328 
Q 2688 2594 2478 2717 
Q 2269 2841 1825 2841 
Q 1466 2841 1156 2769 
Q 847 2697 581 2553 
L 581 3406 
Q 941 3494 1303 3539 
Q 1666 3584 2028 3584 
Q 2975 3584 3395 3211 
Q 3816 2838 3816 1997 
z
" transform="scale(0.015625)"/>
      <path id="DejaVuSans-Bold-67" d="M 2919 594 
Q 2688 288 2409 144 
Q 2131 0 1766 0 
Q 1125 0 706 504 
Q 288 1009 288 1791 
Q 288 2575 706 3076 
Q 1125 3578 1766 3578 
Q 2131 3578 2409 3434 
Q 2688 3291 2919 2981 
L 2919 3500 
L 4044 3500 
L 4044 353 
Q 4044 -491 3511 -936 
Q 2978 -1381 1966 -1381 
Q 1638 -1381 1331 -1331 
Q 1025 -1281 716 -1178 
L 716 -306 
Q 1009 -475 1290 -558 
Q 1572 -641 1856 -641 
Q 2406 -641 2662 -400 
Q 2919 -159 2919 353 
L 2919 594 
z
M 2181 2772 
Q 1834 2772 1640 2515 
Q 1447 2259 1447 1791 
Q 1447 1309 1634 1061 
Q 1822 813 2181 813 
Q 2531 813 2725 1069 
Q 2919 1325 2919 1791 
Q 2919 2259 2725 2515 
Q 2531 2772 2181 2772 
z
" transform="scale(0.015625)"/>
      <path id="DejaVuSans-Bold-75" d="M 500 1363 
L 500 3500 
L 1625 3500 
L 1625 3150 
Q 1625 2866 1622 2436 
Q 1619 2006 1619 1863 
Q 1619 1441 1641 1255 
Q 1663 1069 1716 984 
Q 1784 875 1895 815 
Q 2006 756 2150 756 
Q 2500 756 2700 1025 
Q 2900 1294 2900 1772 
L 2900 3500 
L 4019 3500 
L 4019 0 
L 2900 0 
L 2900 506 
Q 2647 200 2364 54 
Q 2081 -91 1741 -91 
Q 1134 -91 817 281 
Q 500 653 500 1363 
z
" transform="scale(0.015625)"/>
      <path id="DejaVuSans-Bold-64" d="M 2919 2988 
L 2919 4863 
L 4044 4863 
L 4044 0 
L 2919 0 
L 2919 506 
Q 2688 197 2409 53 
Q 2131 -91 1766 -91 
Q 1119 -91 703 423 
Q 288 938 288 1747 
Q 288 2556 703 3070 
Q 1119 3584 1766 3584 
Q 2128 3584 2408 3439 
Q 2688 3294 2919 2988 
z
M 2181 722 
Q 2541 722 2730 984 
Q 2919 1247 2919 1747 
Q 2919 2247 2730 2509 
Q 2541 2772 2181 2772 
Q 1825 2772 1636 2509 
Q 1447 2247 1447 1747 
Q 1447 1247 1636 984 
Q 1825 722 2181 722 
z
" transform="scale(0.015625)"/>
      <path id="DejaVuSans-Bold-65" d="M 4031 1759 
L 4031 1441 
L 1416 1441 
Q 1456 1047 1700 850 
Q 1944 653 2381 653 
Q 2734 653 3104 758 
Q 3475 863 3866 1075 
L 3866 213 
Q 3469 63 3072 -14 
Q 2675 -91 2278 -91 
Q 1328 -91 801 392 
Q 275 875 275 1747 
Q 275 2603 792 3093 
Q 1309 3584 2216 3584 
Q 3041 3584 3536 3087 
Q 4031 2591 4031 1759 
z
M 2881 2131 
Q 2881 2450 2695 2645 
Q 2509 2841 2209 2841 
Q 1884 2841 1681 2658 
Q 1478 2475 1428 2131 
L 2881 2131 
z
" transform="scale(0.015625)"/>
      <path id="DejaVuSans-Bold-2014" d="M 344 2156 
L 6056 2156 
L 6056 1350 
L 344 1350 
L 344 2156 
z
" transform="scale(0.015625)"/>
      <path id="DejaVuSans-Bold-68" d="M 4056 2131 
L 4056 0 
L 2931 0 
L 2931 347 
L 2931 1625 
Q 2931 2084 2911 2256 
Q 2891 2428 2841 2509 
Q 2775 2619 2662 2680 
Q 2550 2741 2406 2741 
Q 2056 2741 1856 2470 
Q 1656 2200 1656 1722 
L 1656 0 
L 538 0 
L 538 4863 
L 1656 4863 
L 1656 2988 
Q 1909 3294 2193 3439 
Q 2478 3584 2822 3584 
Q 3428 3584 3742 3212 
Q 4056 2841 4056 2131 
z
" transform="scale(0.015625)"/>
      <path id="DejaVuSans-Bold-6c" d="M 538 4863 
L 1656 4863 
L 1656 0 
L 538 0 
L 538 4863 
z
" transform="scale(0.015625)"/>
      <path id="DejaVuSans-Bold-78" d="M 1422 1791 
L 159 3500 
L 1344 3500 
L 2059 2463 
L 2784 3500 
L 3969 3500 
L 2706 1797 
L 4031 0 
L 2847 0 
L 2059 1106 
L 1281 0 
L 97 0 
L 1422 1791 
z
" transform="scale(0.015625)"/>
      <path id="DejaVuSans-Bold-28" d="M 2413 -844 
L 1484 -844 
Q 1006 -72 778 623 
Q 550 1319 550 2003 
Q 550 2688 779 3389 
Q 1009 4091 1484 4856 
L 2413 4856 
Q 2013 4116 1813 3408 
Q 1613 2700 1613 2009 
Q 1613 1319 1811 609 
Q 2009 -100 2413 -844 
z
" transform="scale(0.015625)"/>
      <path id="DejaVuSans-Bold-6d" d="M 3781 2919 
Q 3994 3244 4286 3414 
Q 4578 3584 4928 3584 
Q 5531 3584 5847 3212 
Q 6163 2841 6163 2131 
L 6163 0 
L 5038 0 
L 5038 1825 
Q 5041 1866 5042 1909 
Q 5044 1953 5044 2034 
Q 5044 2406 4934 2573 
Q 4825 2741 4581 2741 
Q 4263 2741 4089 2478 
Q 3916 2216 3909 1719 
L 3909 0 
L 2784 0 
L 2784 1825 
Q 2784 2406 2684 2573 
Q 2584 2741 2328 2741 
Q 2006 2741 1831 2477 
Q 1656 2213 1656 1722 
L 1656 0 
L 531 0 
L 531 3500 
L 1656 3500 
L 1656 2988 
Q 1863 3284 2130 3434 
Q 2397 3584 2719 3584 
Q 3081 3584 3359 3409 
Q 3638 3234 3781 2919 
z
" transform="scale(0.015625)"/>
      <path id="DejaVuSans-Bold-29" d="M 513 -844 
Q 913 -100 1113 609 
Q 1313 1319 1313 2009 
Q 1313 2700 1113 3408 
Q 913 4116 513 4856 
L 1441 4856 
Q 1916 4091 2145 3389 
Q 2375 2688 2375 2003 
Q 2375 1319 2147 623 
Q 1919 -72 1441 -844 
L 513 -844 
z
" transform="scale(0.015625)"/>
     </defs>
     <use xlink:href="#DejaVuSans-Bold-50"/>
     <use xlink:href="#DejaVuSans-Bold-6f" transform="translate(73.291016 0)"/>
     <use xlink:href="#DejaVuSans-Bold-73" transform="translate(141.992188 0)"/>
     <use xlink:href="#DejaVuSans-Bold-69" transform="translate(201.513672 0)"/>
     <use xlink:href="#DejaVuSans-Bold-74" transform="translate(235.791016 0)"/>
     <use xlink:href="#DejaVuSans-Bold-69" transform="translate(283.59375 0)"/>
     <use xlink:href="#DejaVuSans-Bold-6f" transform="translate(317.871094 0)"/>
     <use xlink:href="#DejaVuSans-Bold-6e" transform="translate(386.572266 0)"/>
     <use xlink:href="#DejaVuSans-Bold-20" transform="translate(457.763672 0)"/>
     <use xlink:href="#DejaVuSans-Bold-45" transform="translate(492.578125 0)"/>
     <use xlink:href="#DejaVuSans-Bold-72" transform="translate(560.888672 0)"/>
     <use xlink:href="#DejaVuSans-Bold-72" transform="translate(610.205078 0)"/>
     <use xlink:href="#DejaVuSans-Bold-6f" transform="translate(659.521484 0)"/>
     <use xlink:href="#DejaVuSans-Bold-72" transform="translate(728.222656 0)"/>
     <use xlink:href="#DejaVuSans-Bold-20" transform="translate(777.539062 0)"/>
     <use xlink:href="#DejaVuSans-Bold-4d" transform="translate(812.353516 0)"/>
     <use xlink:href="#DejaVuSans-Bold-61" transform="translate(911.865234 0)"/>
     <use xlink:href="#DejaVuSans-Bold-67" transform="translate(979.345703 0)"/>
     <use xlink:href="#DejaVuSans-Bold-6e" transform="translate(1050.927734 0)"/>
     <use xlink:href="#DejaVuSans-Bold-69" transform="translate(1122.119141 0)"/>
     <use xlink:href="#DejaVuSans-Bold-74" transform="translate(1156.396484 0)"/>
     <use xlink:href="#DejaVuSans-Bold-75" transform="translate(1204.199219 0)"/>
     <use xlink:href="#DejaVuSans-Bold-64" transform="translate(1275.390625 0)"/>
     <use xlink:href="#DejaVuSans-Bold-65" transform="translate(1346.972656 0)"/>
     <use xlink:href="#DejaVuSans-Bold-20" transform="translate(1414.794922 0)"/>
     <use xlink:href="#DejaVuSans-Bold-2014" transform="translate(1449.609375 0)"/>
     <use xlink:href="#DejaVuSans-Bold-20" transform="translate(1549.609375 0)"/>
     <use xlink:href="#DejaVuSans-Bold-68" transform="translate(1584.423828 0)"/>
     <use xlink:href="#DejaVuSans-Bold-65" transform="translate(1655.615234 0)"/>
     <use xlink:href="#DejaVuSans-Bold-6c" transform="translate(1723.4375 0)"/>
     <use xlink:href="#DejaVuSans-Bold-69" transform="translate(1757.714844 0)"/>
     <use xlink:href="#DejaVuSans-Bold-78" transform="translate(1791.992188 0)"/>
     <use xlink:href="#DejaVuSans-Bold-20" transform="translate(1856.494141 0)"/>
     <use xlink:href="#DejaVuSans-Bold-28" transform="translate(1891.308594 0)"/>
     <use xlink:href="#DejaVuSans-Bold-73" transform="translate(1937.011719 0)"/>
     <use xlink:href="#DejaVuSans-Bold-6d" transform="translate(1996.533203 0)"/>
     <use xlink:href="#DejaVuSans-Bold-61" transform="translate(2100.732422 0)"/>
     <use xlink:href="#DejaVuSans-Bold-6c" transform="translate(2168.212891 0)"/>
     <use xlink:href="#DejaVuSans-Bold-6c" transform="translate(2202.490234 0)"/>
     <use xlink:href="#DejaVuSans-Bold-29" transform="translate(2236.767578 0)"/>
    </g>
   </g>
   <g id="legend_1">
    <g id="patch_7">
     <path d="M 778.354688 78.914375 
L 846.2 78.914375 
Q 848.2 78.914375 848.2 76.914375 
L 848.2 33.88 
Q 848.2 31.88 846.2 31.88 
L 778.354688 31.88 
Q 776.354688 31.88 776.354688 33.88 
L 776.354688 76.914375 
Q 776.354688 78.914375 778.354688 78.914375 
z
" style="fill: #ffffff; opacity: 0.8; stroke: #cccccc; stroke-linejoin: miter"/>
    </g>
    <g id="line2d_32">
     <path d="M 780.354688 39.978437 
L 790.354688 39.978437 
L 800.354688 39.978437 
" style="fill: none; stroke: #888888; stroke-opacity: 0.6; stroke-linecap: square"/>
    </g>
    <g id="text_18">
     <!-- PID -->
     <g transform="translate(808.354688 43.478437) scale(0.1 -0.1)">
      <defs>
       <path id="DejaVuSans-50" d="M 1259 4147 
L 1259 2394 
L 2053 2394 
Q 2494 2394 2734 2622 
Q 2975 2850 2975 3272 
Q 2975 3691 2734 3919 
Q 2494 4147 2053 4147 
L 1259 4147 
z
M 628 4666 
L 2053 4666 
Q 2838 4666 3239 4311 
Q 3641 3956 3641 3272 
Q 3641 2581 3239 2228 
Q 2838 1875 2053 1875 
L 1259 1875 
L 1259 0 
L 628 0 
L 628 4666 
z
" transform="scale(0.015625)"/>
       <path id="DejaVuSans-49" d="M 628 4666 
L 1259 4666 
L 1259 0 
L 628 0 
L 628 4666 
z
" transform="scale(0.015625)"/>
       <path id="DejaVuSans-44" d="M 1259 4147 
L 1259 519 
L 2022 519 
Q 2988 519 3436 956 
Q 3884 1394 3884 2338 
Q 3884 3275 3436 3711 
Q 2988 4147 2022 4147 
L 1259 4147 
z
M 628 4666 
L 1925 4666 
Q 3281 4666 3915 4102 
Q 4550 3538 4550 2338 
Q 4550 1131 3912 565 
Q 3275 0 1925 0 
L 628 0 
L 628 4666 
z
" transform="scale(0.015625)"/>
      </defs>
      <use xlink:href="#DejaVuSans-50"/>
      <use xlink:href="#DejaVuSans-49" transform="translate(60.302734 0)"/>
      <use xlink:href="#DejaVuSans-44" transform="translate(89.794922 0)"/>
     </g>
    </g>
    <g id="line2d_33">
     <path d="M 780.354688 54.656563 
L 790.354688 54.656563 
L 800.354688 54.656563 
" style="fill: none; stroke: #2ca02c; stroke-width: 1.2; stroke-linecap: square"/>
    </g>
    <g id="text_19">
     <!-- EDMDc -->
     <g transform="translate(808.354688 58.156563) scale(0.1 -0.1)">
      <defs>
       <path id="DejaVuSans-45" d="M 628 4666 
L 3578 4666 
L 3578 4134 
L 1259 4134 
L 1259 2753 
L 3481 2753 
L 3481 2222 
L 1259 2222 
L 1259 531 
L 3634 531 
L 3634 0 
L 628 0 
L 628 4666 
z
" transform="scale(0.015625)"/>
       <path id="DejaVuSans-4d" d="M 628 4666 
L 1569 4666 
L 2759 1491 
L 3956 4666 
L 4897 4666 
L 4897 0 
L 4281 0 
L 4281 4097 
L 3078 897 
L 2444 897 
L 1241 4097 
L 1241 0 
L 628 0 
L 628 4666 
z
" transform="scale(0.015625)"/>
       <path id="DejaVuSans-63" d="M 3122 3366 
L 3122 2828 
Q 2878 2963 2633 3030 
Q 2388 3097 2138 3097 
Q 1578 3097 1268 2742 
Q 959 2388 959 1747 
Q 959 1106 1268 751 
Q 1578 397 2138 397 
Q 2388 397 2633 464 
Q 2878 531 3122 666 
L 3122 134 
Q 2881 22 2623 -34 
Q 2366 -91 2075 -91 
Q 1284 -91 818 406 
Q 353 903 353 1747 
Q 353 2603 823 3093 
Q 1294 3584 2113 3584 
Q 2378 3584 2631 3529 
Q 2884 3475 3122 3366 
z
" transform="scale(0.015625)"/>
      </defs>
      <use xlink:href="#DejaVuSans-45"/>
      <use xlink:href="#DejaVuSans-44" transform="translate(63.183594 0)"/>
      <use xlink:href="#DejaVuSans-4d" transform="translate(140.185547 0)"/>
      <use xlink:href="#DejaVuSans-44" transform="translate(226.464844 0)"/>
      <use xlink:href="#DejaVuSans-63" transform="translate(303.466797 0)"/>
     </g>
    </g>
    <g id="line2d_34">
     <path d="M 780.354688 69.334687 
L 790.354688 69.334687 
L 800.354688 69.334687 
" style="fill: none; stroke-dasharray: 3.7,1.6; stroke-dashoffset: 0; stroke: #1f77b4"/>
    </g>
    <g id="text_20">
     <!-- Linear -->
     <g transform="translate(808.354688 72.834687) scale(0.1 -0.1)">
      <defs>
       <path id="DejaVuSans-4c" d="M 628 4666 
L 1259 4666 
L 1259 531 
L 3531 531 
L 3531 0 
L 628 0 
L 628 4666 
z
" transform="scale(0.015625)"/>
       <path id="DejaVuSans-69" d="M 603 3500 
L 1178 3500 
L 1178 0 
L 603 0 
L 603 3500 
z
M 603 4863 
L 1178 4863 
L 1178 4134 
L 603 4134 
L 603 4863 
z
" transform="scale(0.015625)"/>
       <path id="DejaVuSans-6e" d="M 3513 2113 
L 3513 0 
L 2938 0 
L 2938 2094 
Q 2938 2591 2744 2837 
Q 2550 3084 2163 3084 
Q 1697 3084 1428 2787 
Q 1159 2491 1159 1978 
L 1159 0 
L 581 0 
L 581 3500 
L 1159 3500 
L 1159 2956 
Q 1366 3272 1645 3428 
Q 1925 3584 2291 3584 
Q 2894 3584 3203 3211 
Q 3513 2838 3513 2113 
z
" transform="scale(0.015625)"/>
       <path id="DejaVuSans-61" d="M 2194 1759 
Q 1497 1759 1228 1600 
Q 959 1441 959 1056 
Q 959 750 1161 570 
Q 1363 391 1709 391 
Q 2188 391 2477 730 
Q 2766 1069 2766 1631 
L 2766 1759 
L 2194 1759 
z
M 3341 1997 
L 3341 0 
L 2766 0 
L 2766 531 
Q 2569 213 2275 61 
Q 1981 -91 1556 -91 
Q 1019 -91 701 211 
Q 384 513 384 1019 
Q 384 1609 779 1909 
Q 1175 2209 1959 2209 
L 2766 2209 
L 2766 2266 
Q 2766 2663 2505 2880 
Q 2244 3097 1772 3097 
Q 1472 3097 1187 3025 
Q 903 2953 641 2809 
L 641 3341 
Q 956 3463 1253 3523 
Q 1550 3584 1831 3584 
Q 2591 3584 2966 3190 
Q 3341 2797 3341 1997 
z
" transform="scale(0.015625)"/>
      </defs>
      <use xlink:href="#DejaVuSans-4c"/>
      <use xlink:href="#DejaVuSans-69" transform="translate(55.712891 0)"/>
      <use xlink:href="#DejaVuSans-6e" transform="translate(83.496094 0)"/>
      <use xlink:href="#DejaVuSans-65" transform="translate(146.875 0)"/>
      <use xlink:href="#DejaVuSans-61" transform="translate(208.398438 0)"/>
      <use xlink:href="#DejaVuSans-72" transform="translate(269.677734 0)"/>
     </g>
    </g>
   </g>
  </g>
 </g>
 <defs>
  <clipPath id="p0a25628751">
   <rect x="54.38" y="26.88" width="798.82" height="291.16"/>
  </clipPath>
 </defs>
</svg>
