<?xml version="1.0" encoding="utf-8" standalone="no"?>
<!DOCTYPE svg PUBLIC "-//W3C//DTD SVG 1.1//EN"
  "http://www.w3.org/Graphics/SVG/1.1/DTD/svg11.dtd">
<svg xmlns:xlink="http://www.w3.org/1999/xlink" width="864pt" height="360pt" viewBox="0 0 864 360" xmlns="http://www.w3.org/2000/svg" version="1.1">
 <metadata>
  <rdf:RDF xmlns:dc="http://purl.org/dc/elements/1.1/" xmlns:cc="http://creativecommons.org/ns#" xmlns:rdf="http://www.w3.org/1999/02/22-rdf-syntax-ns#">
   <cc:Work>
    <dc:type rdf:resource="http://purl.org/dc/dcmitype/StillImage"/>
    <dc:date>2026-03-30T18:18:59.690484</dc:date>
    <dc:format>image/svg+xml</dc:format>
    <dc:creator>
     <cc:Agent>
      <dc:title>Matplotlib v3.10.8, https://matplotlib.org/</dc:title>
     </cc:Agent>
    </dc:creator>
   </cc:Work>
  </rdf:RDF>
 </metadata>
 <defs>
  <style type="text/css">*{stroke-linejoin: round; stroke-linecap: butt}</style>
 </defs>
 <g id="figure_1">
  <g id="patch_1">
   <path d="M 0 360 
L 864 360 
L 864 0 
L 0 0 
z
" style="fill: #ffffff"/>
  </g>
  <g id="axes_1">
   <g id="patch_2">
    <path d="M 54.38 318.04 
L 853.2 318.04 
L 853.2 26.88 
L 54.38 26.88 
z
" style="fill: #ffffff"/>
   </g>
   <g id="matplotlib.axis_1">
    <g id="xtick_1">
     <g id="line2d_1">
      <path d="M 90.69 318.04 
L 90.69 26.88 
" clip-path="url(#p5ab6ae4d4e)" style="fill: none; stroke: #b0b0b0; stroke-opacity: 0.3; stroke-width: 0.8; stroke-linecap: square"/>
     </g>
     <g id="line2d_2">
      <defs>
       <path id="m1257b2eb8d" d="M 0 0 
L 0 3.5 
" style="stroke: #000000; stroke-width: 0.8"/>
      </defs>
      <g>
       <use xlink:href="#m1257b2eb8d" x="90.69" y="318.04" style="stroke: #000000; stroke-width: 0.8"/>
      </g>
     </g>
     <g id="text_1">
      <!-- 0 -->
      <g transform="translate(87.50875 332.638438) scale(0.1 -0.1)">
       <defs>
        <path id="DejaVuSans-30" d="M 2034 4250 
Q 1547 4250 1301 3770 
Q 1056 3291 1056 2328 
Q 1056 1369 1301 889 
Q 1547 409 2034 409 
Q 2525 409 2770 889 
Q 3016 1369 3016 2328 
Q 3016 3291 2770 3770 
Q 2525 4250 2034 4250 
z
M 2034 4750 
Q 2819 4750 3233 4129 
Q 3647 3509 3647 2328 
Q 3647 1150 3233 529 
Q 2819 -91 2034 -91 
Q 1250 -91 836 529 
Q 422 1150 422 2328 
Q 422 3509 836 4129 
Q 1250 4750 2034 4750 
z
" transform="scale(0.015625)"/>
       </defs>
       <use xlink:href="#DejaVuSans-30"/>
      </g>
     </g>
    </g>
    <g id="xtick_2">
     <g id="line2d_3">
      <path d="M 236.075385 318.04 
L 236.075385 26.88 
" clip-path="url(#p5ab6ae4d4e)" style="fill: none; stroke: #b0b0b0; stroke-opacity: 0.3; stroke-width: 0.8; stroke-linecap: square"/>
     </g>
     <g id="line2d_4">
      <g>
       <use xlink:href="#m1257b2eb8d" x="236.075385" y="318.04" style="stroke: #000000; stroke-width: 0.8"/>
      </g>
     </g>
     <g id="text_2">
      <!-- 20 -->
      <g transform="translate(229.712885 332.638438) scale(0.1 -0.1)">
       <defs>
        <path id="DejaVuSans-32" d="M 1228 531 
L 3431 531 
L 3431 0 
L 469 0 
L 469 531 
Q 828 903 1448 1529 
Q 2069 2156 2228 2338 
Q 2531 2678 2651 2914 
Q 2772 3150 2772 3378 
Q 2772 3750 2511 3984 
Q 2250 4219 1831 4219 
Q 1534 4219 1204 4116 
Q 875 4013 500 3803 
L 500 4441 
Q 881 4594 1212 4672 
Q 1544 4750 1819 4750 
Q 2544 4750 2975 4387 
Q 3406 4025 3406 3419 
Q 3406 3131 3298 2873 
Q 3191 2616 2906 2266 
Q 2828 2175 2409 1742 
Q 1991 1309 1228 531 
z
" transform="scale(0.015625)"/>
       </defs>
       <use xlink:href="#DejaVuSans-32"/>
       <use xlink:href="#DejaVuSans-30" transform="translate(63.623047 0)"/>
      </g>
     </g>
    </g>
    <g id="xtick_3">
     <g id="line2d_5">
      <path d="M 381.460771 318.04 
L 381.460771 26.88 
" clip-path="url(#p5ab6ae4d4e)" style="fill: none; stroke: #b0b0b0; stroke-opacity: 0.3; stroke-width: 0.8; stroke-linecap: square"/>
     </g>
     <g id="line2d_6">
      <g>
       <use xlink:href="#m1257b2eb8d" x="381.460771" y="318.04" style="stroke: #000000; stroke-width: 0.8"/>
      </g>
     </g>
     <g id="text_3">
      <!-- 40 -->
      <g transform="translate(375.098271 332.638438) scale(0.1 -0.1)">
       <defs>
        <path id="DejaVuSans-34" d="M 2419 4116 
L 825 1625 
L 2419 1625 
L 2419 4116 
z
M 2253 4666 
L 3047 4666 
L 3047 1625 
L 3713 1625 
L 3713 1100 
L 3047 1100 
L 3047 0 
L 2419 0 
L 2419 1100 
L 313 1100 
L 313 1709 
L 2253 4666 
z
" transform="scale(0.015625)"/>
       </defs>
       <use xlink:href="#DejaVuSans-34"/>
       <use xlink:href="#DejaVuSans-30" transform="translate(63.623047 0)"/>
      </g>
     </g>
    </g>
    <g id="xtick_4">
     <g id="line2d_7">
      <path d="M 526.846156 318.04 
L 526.846156 26.88 
" clip-path="url(#p5ab6ae4d4e)" style="fill: none; stroke: #b0b0b0; stroke-opacity: 0.3; stroke-width: 0.8; stroke-linecap: square"/>
     </g>
     <g id="line2d_8">
      <g>
       <use xlink:href="#m1257b2eb8d" x="526.846156" y="318.04" style="stroke: #000000; stroke-width: 0.8"/>
      </g>
     </g>
     <g id="text_4">
      <!-- 60 -->
      <g transform="translate(520.483656 332.638438) scale(0.1 -0.1)">
       <defs>
        <path id="DejaVuSans-36" d="M 2113 2584 
Q 1688 2584 1439 2293 
Q 1191 2003 1191 1497 
Q 1191 994 1439 701 
Q 1688 409 2113 409 
Q 2538 409 2786 701 
Q 3034 994 3034 1497 
Q 3034 2003 2786 2293 
Q 2538 2584 2113 2584 
z
M 3366 4563 
L 3366 3988 
Q 3128 4100 2886 4159 
Q 2644 4219 2406 4219 
Q 1781 4219 1451 3797 
Q 1122 3375 1075 2522 
Q 1259 2794 1537 2939 
Q 1816 3084 2150 3084 
Q 2853 3084 3261 2657 
Q 3669 2231 3669 1497 
Q 3669 778 3244 343 
Q 2819 -91 2113 -91 
Q 1303 -91 875 529 
Q 447 1150 447 2328 
Q 447 3434 972 4092 
Q 1497 4750 2381 4750 
Q 2619 4750 2861 4703 
Q 3103 4656 3366 4563 
z
" transform="scale(0.015625)"/>
       </defs>
       <use xlink:href="#DejaVuSans-36"/>
       <use xlink:href="#DejaVuSans-30" transform="translate(63.623047 0)"/>
      </g>
     </g>
    </g>
    <g id="xtick_5">
     <g id="line2d_9">
      <path d="M 672.231542 318.04 
L 672.231542 26.88 
" clip-path="url(#p5ab6ae4d4e)" style="fill: none; stroke: #b0b0b0; stroke-opacity: 0.3; stroke-width: 0.8; stroke-linecap: square"/>
     </g>
     <g id="line2d_10">
      <g>
       <use xlink:href="#m1257b2eb8d" x="672.231542" y="318.04" style="stroke: #000000; stroke-width: 0.8"/>
      </g>
     </g>
     <g id="text_5">
      <!-- 80 -->
      <g transform="translate(665.869042 332.638438) scale(0.1 -0.1)">
       <defs>
        <path id="DejaVuSans-38" d="M 2034 2216 
Q 1584 2216 1326 1975 
Q 1069 1734 1069 1313 
Q 1069 891 1326 650 
Q 1584 409 2034 409 
Q 2484 409 2743 651 
Q 3003 894 3003 1313 
Q 3003 1734 2745 1975 
Q 2488 2216 2034 2216 
z
M 1403 2484 
Q 997 2584 770 2862 
Q 544 3141 544 3541 
Q 544 4100 942 4425 
Q 1341 4750 2034 4750 
Q 2731 4750 3128 4425 
Q 3525 4100 3525 3541 
Q 3525 3141 3298 2862 
Q 3072 2584 2669 2484 
Q 3125 2378 3379 2068 
Q 3634 1759 3634 1313 
Q 3634 634 3220 271 
Q 2806 -91 2034 -91 
Q 1263 -91 848 271 
Q 434 634 434 1313 
Q 434 1759 690 2068 
Q 947 2378 1403 2484 
z
M 1172 3481 
Q 1172 3119 1398 2916 
Q 1625 2713 2034 2713 
Q 2441 2713 2670 2916 
Q 2900 3119 2900 3481 
Q 2900 3844 2670 4047 
Q 2441 4250 2034 4250 
Q 1625 4250 1398 4047 
Q 1172 3844 1172 3481 
z
" transform="scale(0.015625)"/>
       </defs>
       <use xlink:href="#DejaVuSans-38"/>
       <use xlink:href="#DejaVuSans-30" transform="translate(63.623047 0)"/>
      </g>
     </g>
    </g>
    <g id="xtick_6">
     <g id="line2d_11">
      <path d="M 817.616927 318.04 
L 817.616927 26.88 
" clip-path="url(#p5ab6ae4d4e)" style="fill: none; stroke: #b0b0b0; stroke-opacity: 0.3; stroke-width: 0.8; stroke-linecap: square"/>
     </g>
     <g id="line2d_12">
      <g>
       <use xlink:href="#m1257b2eb8d" x="817.616927" y="318.04" style="stroke: #000000; stroke-width: 0.8"/>
      </g>
     </g>
     <g id="text_6">
      <!-- 100 -->
      <g transform="translate(808.073177 332.638438) scale(0.1 -0.1)">
       <defs>
        <path id="DejaVuSans-31" d="M 794 531 
L 1825 531 
L 1825 4091 
L 703 3866 
L 703 4441 
L 1819 4666 
L 2450 4666 
L 2450 531 
L 3481 531 
L 3481 0 
L 794 0 
L 794 531 
z
" transform="scale(0.015625)"/>
       </defs>
       <use xlink:href="#DejaVuSans-31"/>
       <use xlink:href="#DejaVuSans-30" transform="translate(63.623047 0)"/>
       <use xlink:href="#DejaVuSans-30" transform="translate(127.246094 0)"/>
      </g>
     </g>
    </g>
    <g id="text_7">
     <!-- t [s] -->
     <g transform="translate(443.734531 346.316563) scale(0.1 -0.1)">
      <defs>
       <path id="DejaVuSans-74" d="M 1172 4494 
L 1172 3500 
L 2356 3500 
L 2356 3053 
L 1172 3053 
L 1172 1153 
Q 1172 725 1289 603 
Q 1406 481 1766 481 
L 2356 481 
L 2356 0 
L 1766 0 
Q 1100 0 847 248 
Q 594 497 594 1153 
L 594 3053 
L 172 3053 
L 172 3500 
L 594 3500 
L 594 4494 
L 1172 4494 
z
" transform="scale(0.015625)"/>
       <path id="DejaVuSans-20" transform="scale(0.015625)"/>
       <path id="DejaVuSans-5b" d="M 550 4863 
L 1875 4863 
L 1875 4416 
L 1125 4416 
L 1125 -397 
L 1875 -397 
L 1875 -844 
L 550 -844 
L 550 4863 
z
" transform="scale(0.015625)"/>
       <path id="DejaVuSans-73" d="M 2834 3397 
L 2834 2853 
Q 2591 2978 2328 3040 
Q 2066 3103 1784 3103 
Q 1356 3103 1142 2972 
Q 928 2841 928 2578 
Q 928 2378 1081 2264 
Q 1234 2150 1697 2047 
L 1894 2003 
Q 2506 1872 2764 1633 
Q 3022 1394 3022 966 
Q 3022 478 2636 193 
Q 2250 -91 1575 -91 
Q 1294 -91 989 -36 
Q 684 19 347 128 
L 347 722 
Q 666 556 975 473 
Q 1284 391 1588 391 
Q 1994 391 2212 530 
Q 2431 669 2431 922 
Q 2431 1156 2273 1281 
Q 2116 1406 1581 1522 
L 1381 1569 
Q 847 1681 609 1914 
Q 372 2147 372 2553 
Q 372 3047 722 3315 
Q 1072 3584 1716 3584 
Q 2034 3584 2315 3537 
Q 2597 3491 2834 3397 
z
" transform="scale(0.015625)"/>
       <path id="DejaVuSans-5d" d="M 1947 4863 
L 1947 -844 
L 622 -844 
L 622 -397 
L 1369 -397 
L 1369 4416 
L 622 4416 
L 622 4863 
L 1947 4863 
z
" transform="scale(0.015625)"/>
      </defs>
      <use xlink:href="#DejaVuSans-74"/>
      <use xlink:href="#DejaVuSans-20" transform="translate(39.208984 0)"/>
      <use xlink:href="#DejaVuSans-5b" transform="translate(70.996094 0)"/>
      <use xlink:href="#DejaVuSans-73" transform="translate(110.009766 0)"/>
      <use xlink:href="#DejaVuSans-5d" transform="translate(162.109375 0)"/>
     </g>
    </g>
   </g>
   <g id="matplotlib.axis_2">
    <g id="ytick_1">
     <g id="line2d_13">
      <path d="M 54.38 304.805455 
L 853.2 304.805455 
" clip-path="url(#p5ab6ae4d4e)" style="fill: none; stroke: #b0b0b0; stroke-opacity: 0.3; stroke-width: 0.8; stroke-linecap: square"/>
     </g>
     <g id="line2d_14">
      <defs>
       <path id="m2da770b623" d="M 0 0 
L -3.5 0 
" style="stroke: #000000; stroke-width: 0.8"/>
      </defs>
      <g>
       <use xlink:href="#m2da770b623" x="54.38" y="304.805455" style="stroke: #000000; stroke-width: 0.8"/>
      </g>
     </g>
     <g id="text_8">
      <!-- 0.00 -->
      <g transform="translate(25.114375 308.604673) scale(0.1 -0.1)">
       <defs>
        <path id="DejaVuSans-2e" d="M 684 794 
L 1344 794 
L 1344 0 
L 684 0 
L 684 794 
z
" transform="scale(0.015625)"/>
       </defs>
       <use xlink:href="#DejaVuSans-30"/>
       <use xlink:href="#DejaVuSans-2e" transform="translate(63.623047 0)"/>
       <use xlink:href="#DejaVuSans-30" transform="translate(95.410156 0)"/>
       <use xlink:href="#DejaVuSans-30" transform="translate(159.033203 0)"/>
      </g>
     </g>
    </g>
    <g id="ytick_2">
     <g id="line2d_15">
      <path d="M 54.38 253.464303 
L 853.2 253.464303 
" clip-path="url(#p5ab6ae4d4e)" style="fill: none; stroke: #b0b0b0; stroke-opacity: 0.3; stroke-width: 0.8; stroke-linecap: square"/>
     </g>
     <g id="line2d_16">
      <g>
       <use xlink:href="#m2da770b623" x="54.38" y="253.464303" style="stroke: #000000; stroke-width: 0.8"/>
      </g>
     </g>
     <g id="text_9">
      <!-- 0.05 -->
      <g transform="translate(25.114375 257.263522) scale(0.1 -0.1)">
       <defs>
        <path id="DejaVuSans-35" d="M 691 4666 
L 3169 4666 
L 3169 4134 
L 1269 4134 
L 1269 2991 
Q 1406 3038 1543 3061 
Q 1681 3084 1819 3084 
Q 2600 3084 3056 2656 
Q 3513 2228 3513 1497 
Q 3513 744 3044 326 
Q 2575 -91 1722 -91 
Q 1428 -91 1123 -41 
Q 819 9 494 109 
L 494 744 
Q 775 591 1075 516 
Q 1375 441 1709 441 
Q 2250 441 2565 725 
Q 2881 1009 2881 1497 
Q 2881 1984 2565 2268 
Q 2250 2553 1709 2553 
Q 1456 2553 1204 2497 
Q 953 2441 691 2322 
L 691 4666 
z
" transform="scale(0.015625)"/>
       </defs>
       <use xlink:href="#DejaVuSans-30"/>
       <use xlink:href="#DejaVuSans-2e" transform="translate(63.623047 0)"/>
       <use xlink:href="#DejaVuSans-30" transform="translate(95.410156 0)"/>
       <use xlink:href="#DejaVuSans-35" transform="translate(159.033203 0)"/>
      </g>
     </g>
    </g>
    <g id="ytick_3">
     <g id="line2d_17">
      <path d="M 54.38 202.123151 
L 853.2 202.123151 
" clip-path="url(#p5ab6ae4d4e)" style="fill: none; stroke: #b0b0b0; stroke-opacity: 0.3; stroke-width: 0.8; stroke-linecap: square"/>
     </g>
     <g id="line2d_18">
      <g>
       <use xlink:href="#m2da770b623" x="54.38" y="202.123151" style="stroke: #000000; stroke-width: 0.8"/>
      </g>
     </g>
     <g id="text_10">
      <!-- 0.10 -->
      <g transform="translate(25.114375 205.92237) scale(0.1 -0.1)">
       <use xlink:href="#DejaVuSans-30"/>
       <use xlink:href="#DejaVuSans-2e" transform="translate(63.623047 0)"/>
       <use xlink:href="#DejaVuSans-31" transform="translate(95.410156 0)"/>
       <use xlink:href="#DejaVuSans-30" transform="translate(159.033203 0)"/>
      </g>
     </g>
    </g>
    <g id="ytick_4">
     <g id="line2d_19">
      <path d="M 54.38 150.782 
L 853.2 150.782 
" clip-path="url(#p5ab6ae4d4e)" style="fill: none; stroke: #b0b0b0; stroke-opacity: 0.3; stroke-width: 0.8; stroke-linecap: square"/>
     </g>
     <g id="line2d_20">
      <g>
       <use xlink:href="#m2da770b623" x="54.38" y="150.782" style="stroke: #000000; stroke-width: 0.8"/>
      </g>
     </g>
     <g id="text_11">
      <!-- 0.15 -->
      <g transform="translate(25.114375 154.581219) scale(0.1 -0.1)">
       <use xlink:href="#DejaVuSans-30"/>
       <use xlink:href="#DejaVuSans-2e" transform="translate(63.623047 0)"/>
       <use xlink:href="#DejaVuSans-31" transform="translate(95.410156 0)"/>
       <use xlink:href="#DejaVuSans-35" transform="translate(159.033203 0)"/>
      </g>
     </g>
    </g>
    <g id="ytick_5">
     <g id="line2d_21">
      <path d="M 54.38 99.440848 
L 853.2 99.440848 
" clip-path="url(#p5ab6ae4d4e)" style="fill: none; stroke: #b0b0b0; stroke-opacity: 0.3; stroke-width: 0.8; stroke-linecap: square"/>
     </g>
     <g id="line2d_22">
      <g>
       <use xlink:href="#m2da770b623" x="54.38" y="99.440848" style="stroke: #000000; stroke-width: 0.8"/>
      </g>
     </g>
     <g id="text_12">
      <!-- 0.20 -->
      <g transform="translate(25.114375 103.240067) scale(0.1 -0.1)">
       <use xlink:href="#DejaVuSans-30"/>
       <use xlink:href="#DejaVuSans-2e" transform="translate(63.623047 0)"/>
       <use xlink:href="#DejaVuSans-32" transform="translate(95.410156 0)"/>
       <use xlink:href="#DejaVuSans-30" transform="translate(159.033203 0)"/>
      </g>
     </g>
    </g>
    <g id="ytick_6">
     <g id="line2d_23">
      <path d="M 54.38 48.099697 
L 853.2 48.099697 
" clip-path="url(#p5ab6ae4d4e)" style="fill: none; stroke: #b0b0b0; stroke-opacity: 0.3; stroke-width: 0.8; stroke-linecap: square"/>
     </g>
     <g id="line2d_24">
      <g>
       <use xlink:href="#m2da770b623" x="54.38" y="48.099697" style="stroke: #000000; stroke-width: 0.8"/>
      </g>
     </g>
     <g id="text_13">
      <!-- 0.25 -->
      <g transform="translate(25.114375 51.898916) scale(0.1 -0.1)">
       <use xlink:href="#DejaVuSans-30"/>
       <use xlink:href="#DejaVuSans-2e" transform="translate(63.623047 0)"/>
       <use xlink:href="#DejaVuSans-32" transform="translate(95.410156 0)"/>
       <use xlink:href="#DejaVuSans-35" transform="translate(159.033203 0)"/>
      </g>
     </g>
    </g>
    <g id="text_14">
     <!-- ||pos error|| [m] -->
     <g transform="translate(18.756562 212.088125) rotate(-90) scale(0.1 -0.1)">
      <defs>
       <path id="DejaVuSans-7c" d="M 1344 4891 
L 1344 -1509 
L 813 -1509 
L 813 4891 
L 1344 4891 
z
" transform="scale(0.015625)"/>
       <path id="DejaVuSans-70" d="M 1159 525 
L 1159 -1331 
L 581 -1331 
L 581 3500 
L 1159 3500 
L 1159 2969 
Q 1341 3281 1617 3432 
Q 1894 3584 2278 3584 
Q 2916 3584 3314 3078 
Q 3713 2572 3713 1747 
Q 3713 922 3314 415 
Q 2916 -91 2278 -91 
Q 1894 -91 1617 61 
Q 1341 213 1159 525 
z
M 3116 1747 
Q 3116 2381 2855 2742 
Q 2594 3103 2138 3103 
Q 1681 3103 1420 2742 
Q 1159 2381 1159 1747 
Q 1159 1113 1420 752 
Q 1681 391 2138 391 
Q 2594 391 2855 752 
Q 3116 1113 3116 1747 
z
" transform="scale(0.015625)"/>
       <path id="DejaVuSans-6f" d="M 1959 3097 
Q 1497 3097 1228 2736 
Q 959 2375 959 1747 
Q 959 1119 1226 758 
Q 1494 397 1959 397 
Q 2419 397 2687 759 
Q 2956 1122 2956 1747 
Q 2956 2369 2687 2733 
Q 2419 3097 1959 3097 
z
M 1959 3584 
Q 2709 3584 3137 3096 
Q 3566 2609 3566 1747 
Q 3566 888 3137 398 
Q 2709 -91 1959 -91 
Q 1206 -91 779 398 
Q 353 888 353 1747 
Q 353 2609 779 3096 
Q 1206 3584 1959 3584 
z
" transform="scale(0.015625)"/>
       <path id="DejaVuSans-65" d="M 3597 1894 
L 3597 1613 
L 953 1613 
Q 991 1019 1311 708 
Q 1631 397 2203 397 
Q 2534 397 2845 478 
Q 3156 559 3463 722 
L 3463 178 
Q 3153 47 2828 -22 
Q 2503 -91 2169 -91 
Q 1331 -91 842 396 
Q 353 884 353 1716 
Q 353 2575 817 3079 
Q 1281 3584 2069 3584 
Q 2775 3584 3186 3129 
Q 3597 2675 3597 1894 
z
M 3022 2063 
Q 3016 2534 2758 2815 
Q 2500 3097 2075 3097 
Q 1594 3097 1305 2825 
Q 1016 2553 972 2059 
L 3022 2063 
z
" transform="scale(0.015625)"/>
       <path id="DejaVuSans-72" d="M 2631 2963 
Q 2534 3019 2420 3045 
Q 2306 3072 2169 3072 
Q 1681 3072 1420 2755 
Q 1159 2438 1159 1844 
L 1159 0 
L 581 0 
L 581 3500 
L 1159 3500 
L 1159 2956 
Q 1341 3275 1631 3429 
Q 1922 3584 2338 3584 
Q 2397 3584 2469 3576 
Q 2541 3569 2628 3553 
L 2631 2963 
z
" transform="scale(0.015625)"/>
       <path id="DejaVuSans-6d" d="M 3328 2828 
Q 3544 3216 3844 3400 
Q 4144 3584 4550 3584 
Q 5097 3584 5394 3201 
Q 5691 2819 5691 2113 
L 5691 0 
L 5113 0 
L 5113 2094 
Q 5113 2597 4934 2840 
Q 4756 3084 4391 3084 
Q 3944 3084 3684 2787 
Q 3425 2491 3425 1978 
L 3425 0 
L 2847 0 
L 2847 2094 
Q 2847 2600 2669 2842 
Q 2491 3084 2119 3084 
Q 1678 3084 1418 2786 
Q 1159 2488 1159 1978 
L 1159 0 
L 581 0 
L 581 3500 
L 1159 3500 
L 1159 2956 
Q 1356 3278 1631 3431 
Q 1906 3584 2284 3584 
Q 2666 3584 2933 3390 
Q 3200 3197 3328 2828 
z
" transform="scale(0.015625)"/>
      </defs>
      <use xlink:href="#DejaVuSans-7c"/>
      <use xlink:href="#DejaVuSans-7c" transform="translate(33.691406 0)"/>
      <use xlink:href="#DejaVuSans-70" transform="translate(67.382812 0)"/>
      <use xlink:href="#DejaVuSans-6f" transform="translate(130.859375 0)"/>
      <use xlink:href="#DejaVuSans-73" transform="translate(192.041016 0)"/>
      <use xlink:href="#DejaVuSans-20" transform="translate(244.140625 0)"/>
      <use xlink:href="#DejaVuSans-65" transform="translate(275.927734 0)"/>
      <use xlink:href="#DejaVuSans-72" transform="translate(337.451172 0)"/>
      <use xlink:href="#DejaVuSans-72" transform="translate(376.814453 0)"/>
      <use xlink:href="#DejaVuSans-6f" transform="translate(415.677734 0)"/>
      <use xlink:href="#DejaVuSans-72" transform="translate(476.859375 0)"/>
      <use xlink:href="#DejaVuSans-7c" transform="translate(517.972656 0)"/>
      <use xlink:href="#DejaVuSans-7c" transform="translate(551.664062 0)"/>
      <use xlink:href="#DejaVuSans-20" transform="translate(585.355469 0)"/>
      <use xlink:href="#DejaVuSans-5b" transform="translate(617.142578 0)"/>
      <use xlink:href="#DejaVuSans-6d" transform="translate(656.15625 0)"/>
      <use xlink:href="#DejaVuSans-5d" transform="translate(753.568359 0)"/>
     </g>
    </g>
   </g>
   <g id="line2d_25">
    <path d="M 90.69 304.805455 
L 91.416927 261.208635 
L 92.143854 238.950575 
L 92.870781 225.014488 
L 93.597708 216.352662 
L 94.324635 211.886665 
L 95.051562 210.889946 
L 95.778488 212.849441 
L 96.505415 217.12836 
L 97.232342 223.043315 
L 98.686196 238.072309 
L 100.866977 262.458223 
L 101.593904 269.730983 
L 102.320831 275.876745 
L 103.047758 280.156619 
L 103.774685 281.795294 
L 104.501612 280.658808 
L 105.228539 277.376337 
L 106.682392 267.543027 
L 111.043954 234.407473 
L 112.497808 225.029844 
L 113.951662 217.224639 
L 115.405516 211.224348 
L 116.132442 208.955522 
L 116.859369 207.140405 
L 117.586296 205.754155 
L 118.313223 204.832756 
L 119.04015 204.396501 
L 119.767077 204.44284 
L 120.494004 204.969459 
L 121.220931 205.946805 
L 121.947858 207.346284 
L 126.309419 217.269259 
L 127.763273 219.581428 
L 128.4902 220.523633 
L 129.217127 221.238722 
L 129.944054 221.731008 
L 130.670981 221.874959 
L 131.397908 221.691421 
L 132.124835 221.111142 
L 132.851762 220.187287 
L 133.578689 218.887194 
L 134.305616 217.166151 
L 135.032543 215.02751 
L 136.486396 209.66305 
L 137.94025 203.331346 
L 140.121031 193.376951 
L 141.574885 187.856075 
L 143.028739 183.5889 
L 144.482593 179.773586 
L 145.20952 178.241649 
L 145.936446 177.200177 
L 146.663373 176.655008 
L 147.3903 176.438572 
L 148.117227 176.703142 
L 148.844154 177.501532 
L 149.571081 178.857734 
L 150.298008 180.799029 
L 151.751862 185.705904 
L 152.478789 188.921774 
L 153.932643 197.176268 
L 155.386496 207.226337 
L 157.567277 225.263293 
L 159.021131 237.315858 
L 159.748058 242.530516 
L 160.474985 246.770943 
L 161.201912 249.631644 
L 161.928839 250.619449 
L 162.655766 249.501424 
L 163.382693 246.281296 
L 164.10962 241.170679 
L 165.563473 227.195968 
L 169.198108 188.272044 
L 170.651962 175.631699 
L 171.378889 170.478524 
L 172.105816 166.202249 
L 172.832743 162.807071 
L 173.55967 160.460084 
L 174.286597 159.054173 
L 175.013524 158.808783 
L 175.74045 159.788862 
L 176.467377 161.878685 
L 177.194304 165.102089 
L 177.921231 169.510097 
L 178.648158 175.103654 
L 179.375085 181.840019 
L 180.828939 198.51412 
L 182.282793 218.733599 
L 184.463574 252.671785 
L 185.917427 275.86291 
L 186.644354 286.179746 
L 187.371281 291.768351 
L 188.098208 286.834399 
L 189.552062 264.511034 
L 192.45977 217.464343 
L 193.913624 196.764844 
L 195.367477 179.301 
L 196.821331 165.780504 
L 198.275185 155.991947 
L 199.002112 152.297051 
L 199.729039 149.702137 
L 200.455966 148.213311 
L 201.182893 147.846692 
L 201.90982 148.542426 
L 202.636747 150.045538 
L 203.363674 152.407065 
L 204.090601 155.614966 
L 204.817528 159.841931 
L 206.271381 170.880701 
L 207.725235 184.976076 
L 212.086797 232.209386 
L 212.813724 237.671152 
L 213.540651 241.489002 
L 214.267578 243.266229 
L 214.994505 242.766622 
L 215.721431 240.186675 
L 216.448358 236.096126 
L 217.902212 225.413512 
L 220.082993 208.611972 
L 221.536847 199.903387 
L 222.263774 196.613102 
L 222.990701 194.26135 
L 223.717628 192.901394 
L 224.444555 192.325772 
L 225.171481 192.700355 
L 225.898408 194.191507 
L 226.625335 196.633277 
L 227.352262 199.935726 
L 228.079189 204.229447 
L 229.533043 215.009107 
L 233.167678 246.103905 
L 233.894605 250.305507 
L 234.621532 252.754351 
L 235.348458 252.993423 
L 236.075385 250.719913 
L 236.802312 246.234786 
L 237.529239 240.065849 
L 238.983093 224.573397 
L 240.436947 208.16834 
L 241.890801 194.2602 
L 242.617728 188.589435 
L 243.344655 183.952089 
L 244.071582 180.480941 
L 244.798509 178.263862 
L 245.525435 177.356388 
L 246.252362 177.613232 
L 246.979289 179.216582 
L 247.706216 182.26072 
L 248.433143 186.707344 
L 249.16007 192.579764 
L 249.886997 199.865233 
L 251.340851 217.7914 
L 252.794705 239.151209 
L 254.975485 272.44025 
L 255.702412 279.19629 
L 256.429339 278.639545 
L 257.156266 270.8829 
L 258.61012 246.261937 
L 261.517828 194.284612 
L 262.971682 171.404477 
L 264.425536 152.44143 
L 265.152462 144.784508 
L 266.606316 132.838781 
L 267.333243 128.600653 
L 268.06017 125.696575 
L 268.787097 124.106442 
L 269.514024 123.732064 
L 270.240951 124.55392 
L 270.967878 126.544582 
L 271.694805 129.722194 
L 272.421732 134.061439 
L 273.148659 139.523915 
L 273.875586 146.122949 
L 275.329439 162.325874 
L 276.783293 181.350664 
L 280.417928 231.689923 
L 281.144855 238.900753 
L 281.871782 243.210841 
L 282.598709 243.790215 
L 283.325636 240.346632 
L 284.052563 233.527989 
L 284.779489 224.446653 
L 286.233343 202.528951 
L 288.414124 167.538065 
L 289.867978 147.428112 
L 291.321832 131.019214 
L 292.775686 118.58883 
L 293.502613 114.11215 
L 294.22954 110.939258 
L 294.956466 109.056002 
L 295.683393 108.224988 
L 296.41032 108.463007 
L 297.137247 109.878704 
L 297.864174 112.489047 
L 298.591101 116.338838 
L 299.318028 121.38092 
L 300.771882 134.269017 
L 302.225736 150.242609 
L 305.133443 186.955889 
L 306.587297 204.725785 
L 307.314224 212.455229 
L 308.041151 218.88905 
L 308.768078 223.504466 
L 309.495005 225.923151 
L 310.221932 226.160511 
L 310.948859 224.333615 
L 311.675786 220.769761 
L 313.12964 210.459669 
L 315.31042 193.55261 
L 316.764274 184.210318 
L 318.218128 177.047806 
L 318.945055 174.667677 
L 319.671982 173.245462 
L 320.398909 172.778836 
L 321.125836 173.247172 
L 321.852763 174.693843 
L 322.57969 176.95762 
L 323.306617 179.790035 
L 324.76047 186.880158 
L 326.214324 194.364396 
L 327.668178 200.746138 
L 328.395105 203.113588 
L 329.122032 204.79999 
L 329.848959 205.686753 
L 330.575886 205.765787 
L 331.302813 205.242807 
L 332.02974 204.386731 
L 334.210521 200.574628 
L 334.937447 199.774438 
L 335.664374 199.592151 
L 336.391301 200.193658 
L 337.118228 201.489132 
L 337.845155 203.632376 
L 338.572082 206.624326 
L 339.299009 210.706117 
L 340.025936 215.89058 
L 341.47979 229.373465 
L 342.933644 246.761637 
L 345.841351 287.323331 
L 346.568278 291.668751 
L 347.295205 285.654763 
L 348.749059 263.074751 
L 350.92984 229.031588 
L 352.383694 209.855861 
L 353.837548 194.432396 
L 354.564474 188.204729 
L 355.291401 183.225672 
L 356.018328 179.590761 
L 356.745255 177.24833 
L 357.472182 176.351444 
L 358.199109 176.852325 
L 358.926036 178.824505 
L 359.652963 182.274502 
L 360.37989 187.053496 
L 361.106817 193.179248 
L 362.560671 207.979224 
L 364.741451 232.486122 
L 365.468378 239.576002 
L 366.195305 244.786836 
L 366.922232 247.368662 
L 367.649159 246.783618 
L 368.376086 242.881098 
L 369.103013 236.31516 
L 370.556867 218.843415 
L 372.737648 191.883674 
L 374.191502 176.645393 
L 374.918428 170.231466 
L 375.645355 164.956409 
L 376.372282 160.735477 
L 377.099209 157.612977 
L 377.826136 155.648053 
L 378.553063 154.747865 
L 379.27999 155.046368 
L 380.006917 156.385344 
L 380.733844 158.610509 
L 381.460771 161.429022 
L 382.914625 168.375839 
L 385.095405 180.316285 
L 385.822332 183.569634 
L 386.549259 185.946283 
L 387.276186 187.429308 
L 388.003113 188.194048 
L 388.73004 188.158189 
L 389.456967 187.15058 
L 390.183894 185.165527 
L 391.637748 179.841157 
L 393.091602 174.206744 
L 393.818529 171.957422 
L 394.545455 170.37354 
L 395.272382 169.618686 
L 395.999309 169.851933 
L 396.726236 171.102785 
L 397.453163 173.2696 
L 398.18009 176.398225 
L 398.907017 180.563 
L 399.633944 185.689883 
L 400.360871 191.845762 
L 401.814725 206.797391 
L 403.268579 224.498959 
L 405.449359 252.435596 
L 406.176286 260.51944 
L 406.903213 266.610353 
L 407.63014 269.641047 
L 408.357067 269.110238 
L 409.083994 265.632402 
L 409.810921 260.284341 
L 413.445556 228.730268 
L 414.899409 219.988165 
L 415.626336 216.72513 
L 416.353263 214.272944 
L 417.08019 212.80193 
L 417.807117 212.335717 
L 418.534044 212.61927 
L 419.260971 213.489255 
L 419.987898 214.820395 
L 421.441752 218.292299 
L 422.168679 220.065857 
L 422.895606 221.543178 
L 423.622533 222.460478 
L 424.349459 222.616792 
L 425.076386 221.842609 
L 425.803313 219.977642 
L 426.53024 217.146588 
L 427.257167 213.497346 
L 428.711021 204.496325 
L 430.891802 190.642349 
L 432.345656 183.175995 
L 433.072583 180.603439 
L 433.79951 179.05935 
L 434.526436 178.489727 
L 435.253363 178.811982 
L 435.98029 179.997921 
L 436.707217 181.924377 
L 437.434144 184.774694 
L 438.161071 188.404061 
L 438.887998 192.727896 
L 440.341852 203.583151 
L 441.795706 216.352493 
L 443.976486 236.954586 
L 444.703413 242.705791 
L 445.43034 247.455448 
L 446.157267 250.81866 
L 446.884194 252.429836 
L 447.611121 252.259003 
L 448.338048 250.442655 
L 449.064975 247.283509 
L 450.518829 238.275188 
L 454.88039 207.243548 
L 456.334244 198.681306 
L 462.876587 162.454365 
L 466.511221 140.697244 
L 468.692002 129.294586 
L 469.418929 126.202757 
L 470.145856 123.846544 
L 470.872783 122.253133 
L 471.59971 121.35733 
L 472.326637 121.24217 
L 473.053564 121.930117 
L 473.78049 123.504323 
L 474.507417 126.03277 
L 475.234344 129.415741 
L 475.961271 133.60088 
L 477.415125 144.074354 
L 478.868979 156.493889 
L 481.776687 182.789635 
L 483.230541 193.382176 
L 483.957467 197.308026 
L 484.684394 199.925579 
L 485.411321 201.082843 
L 486.138248 200.885448 
L 486.865175 199.404292 
L 487.592102 196.831572 
L 488.319029 193.54422 
L 489.772883 185.462803 
L 491.953664 173.460059 
L 493.407518 167.143921 
L 494.134444 164.968661 
L 494.861371 163.38956 
L 495.588298 162.477713 
L 496.315225 162.431848 
L 497.042152 163.261117 
L 497.769079 164.80228 
L 498.496006 167.217959 
L 499.222933 170.490652 
L 499.94986 174.580395 
L 501.403714 184.799543 
L 502.857568 196.844337 
L 506.492202 229.333415 
L 507.219129 234.240792 
L 507.946056 238.250839 
L 508.672983 241.186087 
L 509.39991 242.78159 
L 510.126837 243.167781 
L 510.853764 242.572183 
L 511.580691 241.051981 
L 515.215325 230.096936 
L 515.942252 228.608378 
L 516.669179 227.510502 
L 517.396106 226.862458 
L 518.123033 226.761791 
L 518.84996 227.224006 
L 519.576887 228.183246 
L 520.303814 229.563818 
L 521.757668 233.205456 
L 523.211522 236.688639 
L 523.938448 237.750205 
L 524.665375 237.986224 
L 525.392302 237.252206 
L 526.119229 235.264937 
L 526.846156 232.155454 
L 527.573083 228.279595 
L 529.026937 218.85423 
L 532.661572 194.176788 
L 533.388498 190.451683 
L 534.115425 187.514694 
L 534.842352 185.403078 
L 535.569279 184.300238 
L 536.296206 184.208637 
L 537.023133 185.220713 
L 537.75006 187.272341 
L 538.476987 190.455651 
L 539.203914 194.822381 
L 539.930841 200.317997 
L 540.657768 206.886355 
L 542.111622 222.949276 
L 544.292402 249.827003 
L 545.019329 256.997429 
L 545.746256 260.899888 
L 546.473183 259.826929 
L 547.20011 253.291131 
L 547.927037 242.401757 
L 549.380891 213.633735 
L 553.742452 118.987865 
L 555.196306 92.305139 
L 556.65016 70.506635 
L 557.377087 61.590262 
L 558.104014 54.172411 
L 558.830941 48.288577 
L 559.557868 43.932719 
L 560.284795 41.107279 
L 561.011722 40.114545 
L 561.738649 40.830374 
L 562.465576 43.185597 
L 563.192503 47.242393 
L 563.919429 53.000961 
L 564.646356 60.406257 
L 566.10021 79.571312 
L 567.554064 103.824158 
L 569.007918 132.208381 
L 572.642553 205.724671 
L 573.369479 216.930818 
L 574.096406 224.944883 
L 574.823333 228.746033 
L 575.55026 227.865981 
L 576.277187 222.744483 
L 577.004114 214.380668 
L 578.457968 191.817189 
L 582.092603 130.41078 
L 583.546456 110.095248 
L 585.00031 93.418914 
L 585.727237 86.684538 
L 586.454164 81.108162 
L 587.181091 76.601119 
L 587.908018 73.107123 
L 588.634945 70.491176 
L 589.361872 69.003962 
L 590.088799 68.589556 
L 590.815726 69.381359 
L 591.542653 71.21313 
L 592.26958 74.147608 
L 592.996507 78.307832 
L 593.723433 83.61068 
L 594.45036 89.998318 
L 595.904214 105.631677 
L 597.358068 124.395584 
L 600.265776 167.634927 
L 601.71963 188.546558 
L 603.173483 206.198212 
L 603.90041 212.889449 
L 604.627337 217.828666 
L 605.354264 221.000419 
L 606.081191 222.631185 
L 606.808118 222.935202 
L 607.535045 222.101735 
L 608.261972 220.381115 
L 611.16968 210.478589 
L 611.896607 208.719687 
L 612.623534 207.514085 
L 613.35046 206.825128 
L 614.077387 206.707351 
L 614.804314 207.167579 
L 615.531241 208.154546 
L 616.985095 210.881889 
L 620.61973 218.383213 
L 621.346657 219.418476 
L 622.073584 220.145629 
L 622.800511 220.49151 
L 623.527437 220.269707 
L 624.254364 219.735223 
L 625.708218 218.2333 
L 627.162072 216.684449 
L 627.888999 216.051881 
L 628.615926 215.612318 
L 629.342853 215.436049 
L 630.06978 215.694743 
L 630.796707 216.458685 
L 631.523634 217.755918 
L 632.250561 219.716846 
L 632.977487 222.284148 
L 633.704414 225.425825 
L 634.431341 229.374356 
L 635.885195 239.268785 
L 637.339049 251.791153 
L 640.973684 285.465634 
L 641.700611 288.336836 
L 642.427538 286.61882 
L 643.154464 280.925736 
L 644.608318 264.731152 
L 647.516026 230.042299 
L 648.96988 214.649369 
L 650.423734 201.69706 
L 651.877588 191.156421 
L 653.331441 183.398185 
L 654.058368 180.385565 
L 654.785295 178.24323 
L 655.512222 177.050627 
L 656.239149 176.699251 
L 656.966076 177.293256 
L 657.693003 178.874521 
L 658.41993 181.235801 
L 659.146857 184.369189 
L 659.873784 188.21819 
L 660.600711 192.917011 
L 661.327638 198.375741 
L 662.781491 212.041015 
L 664.235345 229.012804 
L 667.86998 275.442005 
L 668.596907 278.796838 
L 669.323834 275.853861 
L 670.050761 267.702609 
L 671.504615 244.466357 
L 675.866176 169.932678 
L 677.32003 149.042637 
L 678.773884 130.697576 
L 680.227738 116.269617 
L 680.954665 110.592464 
L 681.681592 106.153444 
L 682.408519 103.052992 
L 683.135445 101.287792 
L 683.862372 100.555698 
L 684.589299 100.882002 
L 685.316226 102.406472 
L 686.043153 105.01757 
L 686.77008 108.63117 
L 687.497007 113.241817 
L 688.950861 125.225664 
L 690.404715 139.972289 
L 694.766276 188.086189 
L 695.493203 194.289281 
L 696.22013 199.435321 
L 696.947057 203.342016 
L 697.673984 205.88703 
L 698.400911 207.226752 
L 699.127838 207.484383 
L 699.854765 206.724125 
L 700.581692 205.201134 
L 702.035546 201.037305 
L 704.943253 191.768305 
L 707.124034 184.364922 
L 708.577888 178.754647 
L 710.031742 172.079618 
L 711.485596 163.696722 
L 715.12023 140.356179 
L 715.847157 136.945978 
L 716.574084 134.218808 
L 717.301011 132.191988 
L 718.027938 130.928265 
L 718.754865 130.735006 
L 719.481792 131.654013 
L 720.208719 133.632074 
L 720.935646 136.734443 
L 721.662573 140.955227 
L 722.389499 146.334912 
L 723.116426 153.002597 
L 724.57028 169.947622 
L 726.024134 190.214568 
L 728.204915 221.638456 
L 728.931842 229.743192 
L 729.658769 234.900039 
L 730.385696 236.349331 
L 731.112623 233.644686 
L 731.83955 227.084499 
L 732.566476 217.712279 
L 734.02033 194.248052 
L 736.201111 157.771482 
L 737.654965 137.882185 
L 738.381892 130.015845 
L 739.108819 123.762447 
L 739.835746 119.320151 
L 740.562673 116.898582 
L 741.2896 116.445533 
L 742.016527 118.050895 
L 742.743453 121.695109 
L 743.47038 127.222689 
L 744.197307 134.645936 
L 744.924234 143.774389 
L 746.378088 166.259442 
L 750.012723 229.103637 
L 750.73965 237.596547 
L 751.466577 241.89575 
L 752.193504 241.01837 
L 752.92043 235.429286 
L 753.647357 226.481376 
L 758.008919 161.212181 
L 758.735846 153.049122 
L 759.462773 146.185125 
L 760.1897 140.676184 
L 760.916627 136.635281 
L 761.643554 134.076633 
L 762.37048 133.101075 
L 763.097407 133.753513 
L 763.824334 135.834912 
L 764.551261 139.299137 
L 765.278188 143.982808 
L 766.005115 149.744015 
L 767.458969 163.850342 
L 769.63975 185.97405 
L 770.366677 191.891826 
L 771.093604 196.294831 
L 771.820531 198.802917 
L 772.547457 199.327923 
L 773.274384 197.92185 
L 774.001311 194.742219 
L 774.728238 190.239363 
L 776.909019 173.481403 
L 778.362873 163.15107 
L 779.0898 159.115284 
L 779.816727 156.248308 
L 780.543654 154.666333 
L 781.270581 154.470732 
L 781.997508 155.755062 
L 782.724434 158.500149 
L 783.451361 162.731939 
L 784.178288 168.332723 
L 785.632142 182.697801 
L 788.53985 215.636256 
L 789.266777 221.814157 
L 789.993704 225.756187 
L 790.720631 226.93404 
L 791.447558 225.275073 
L 792.174484 220.760408 
L 792.901411 214.004863 
L 794.355265 196.29752 
L 796.536046 167.811738 
L 797.9899 151.350295 
L 798.716827 144.551342 
L 799.443754 138.948731 
L 800.170681 134.799566 
L 800.897608 132.033244 
L 801.624535 130.70546 
L 802.351461 130.890423 
L 803.078388 132.567064 
L 803.805315 135.777092 
L 804.532242 140.441978 
L 805.259169 146.571642 
L 805.986096 154.078315 
L 807.43995 172.717165 
L 808.893804 195.266912 
L 811.801512 243.8833 
L 812.528438 252.963193 
L 813.255365 257.596124 
L 813.982292 256.199317 
L 814.709219 249.352079 
L 815.436146 239.031565 
L 816.89 214.170606 
L 816.89 214.170606 
" clip-path="url(#p5ab6ae4d4e)" style="fill: none; stroke: #888888; stroke-opacity: 0.6; stroke-linecap: square"/>
   </g>
   <g id="line2d_26">
    <path d="M 90.69 304.805455 
L 91.416927 265.237879 
L 92.143854 254.650953 
L 92.870781 257.143124 
L 93.597708 266.553195 
L 94.324635 277.808387 
L 95.051562 284.679895 
L 95.778488 282.873469 
L 96.505415 279.269348 
L 97.232342 278.975526 
L 97.959269 282.497671 
L 99.413123 293.62768 
L 100.14005 294.023781 
L 100.866977 291.926388 
L 101.593904 291.758701 
L 102.320831 294.112312 
L 103.047758 295.586054 
L 103.774685 292.563253 
L 104.501612 286.898863 
L 105.228539 282.196888 
L 105.955465 280.576072 
L 106.682392 281.829397 
L 107.409319 284.681875 
L 108.136246 288.058889 
L 108.863173 290.622759 
L 109.5901 291.179483 
L 110.317027 290.899046 
L 111.043954 291.591599 
L 111.770881 293.527298 
L 112.497808 294.655313 
L 113.224735 291.053046 
L 114.678589 275.690616 
L 115.405516 270.594331 
L 116.132442 269.676496 
L 116.859369 272.910091 
L 117.586296 279.233555 
L 118.313223 286.733451 
L 119.04015 291.097938 
L 119.767077 289.07587 
L 120.494004 286.104461 
L 121.220931 286.055937 
L 121.947858 289.61656 
L 123.401712 301.594908 
L 124.855566 291.793602 
L 125.582492 289.898085 
L 126.309419 290.908462 
L 127.036346 292.583947 
L 127.763273 292.896597 
L 128.4902 291.591432 
L 129.217127 290.907858 
L 129.944054 292.340564 
L 131.397908 298.791656 
L 132.124835 297.968497 
L 133.578689 290.633481 
L 134.305616 288.786559 
L 135.759469 287.458919 
L 136.486396 284.531423 
L 137.213323 280.840131 
L 137.94025 278.998454 
L 138.667177 279.20732 
L 139.394104 280.611293 
L 140.121031 281.77249 
L 140.847958 281.351017 
L 141.574885 279.851302 
L 142.301812 279.371973 
L 143.028739 281.281975 
L 143.755666 285.499058 
L 145.20952 296.236349 
L 145.936446 298.651482 
L 146.663373 297.802881 
L 148.117227 293.956724 
L 148.844154 293.055926 
L 149.571081 294.01298 
L 150.298008 295.821401 
L 151.024935 294.537181 
L 152.478789 285.076466 
L 153.205716 281.710301 
L 153.932643 280.086059 
L 154.65957 280.520568 
L 155.386496 283.534854 
L 156.84035 292.526577 
L 157.567277 293.37599 
L 158.294204 291.996336 
L 159.021131 291.819929 
L 160.474985 295.517841 
L 161.201912 294.65433 
L 162.655766 286.599935 
L 163.382693 284.686534 
L 164.10962 285.990891 
L 164.836547 290.294126 
L 165.563473 296.201903 
L 166.2904 300.887891 
L 167.017327 297.401113 
L 167.744254 292.939984 
L 168.471181 290.96578 
L 169.198108 291.796009 
L 169.925035 294.292407 
L 170.651962 295.545413 
L 172.105816 291.085108 
L 172.832743 291.406827 
L 173.55967 294.346208 
L 174.286597 298.831698 
L 175.013524 299.466537 
L 175.74045 295.525623 
L 176.467377 293.986802 
L 177.194304 295.624774 
L 177.921231 298.02802 
L 178.648158 296.297498 
L 179.375085 291.752759 
L 180.102012 288.229259 
L 180.828939 287.029645 
L 181.555866 288.442232 
L 183.00972 295.860578 
L 183.736647 297.864519 
L 184.463574 297.101048 
L 185.190501 295.777023 
L 185.917427 295.704783 
L 186.644354 296.760594 
L 187.371281 296.077137 
L 188.825135 289.868551 
L 189.552062 287.765495 
L 190.278989 286.889138 
L 191.005916 287.437069 
L 191.732843 289.517777 
L 192.45977 293.034684 
L 193.186697 297.61308 
L 193.913624 301.407575 
L 194.640551 298.240918 
L 195.367477 293.755625 
L 196.094404 291.525279 
L 196.821331 292.119023 
L 197.548258 294.01236 
L 198.275185 293.903659 
L 199.729039 287.339279 
L 200.455966 286.567683 
L 201.182893 288.095108 
L 201.90982 290.48988 
L 202.636747 291.695918 
L 203.363674 290.737568 
L 204.090601 289.262166 
L 204.817528 288.665618 
L 205.544454 288.233262 
L 206.271381 286.566408 
L 207.725235 280.847979 
L 208.452162 279.316777 
L 209.179089 279.9127 
L 210.632943 284.553497 
L 211.35987 285.885768 
L 212.086797 286.623198 
L 212.813724 288.098184 
L 213.540651 290.654793 
L 214.267578 292.46665 
L 214.994505 292.102319 
L 215.721431 291.50989 
L 216.448358 292.712303 
L 217.175285 296.317039 
L 217.902212 300.712995 
L 218.629139 296.523198 
L 219.356066 289.027321 
L 220.082993 283.446836 
L 220.80992 281.452871 
L 221.536847 282.742904 
L 222.263774 284.94762 
L 222.990701 285.814385 
L 223.717628 285.203924 
L 224.444555 285.803603 
L 225.171481 288.888439 
L 225.898408 292.852468 
L 226.625335 294.554669 
L 228.079189 290.919203 
L 228.806116 291.390234 
L 229.533043 293.439809 
L 230.25997 294.706785 
L 230.986897 294.229769 
L 231.713824 292.88247 
L 232.440751 291.909077 
L 233.167678 291.673158 
L 233.894605 292.141491 
L 234.621532 293.371049 
L 236.075385 297.598846 
L 236.802312 295.931629 
L 237.529239 291.264819 
L 238.256166 287.394324 
L 238.983093 285.61678 
L 239.71002 285.639213 
L 240.436947 287.197883 
L 242.617728 295.215918 
L 243.344655 296.035687 
L 244.798509 293.693195 
L 245.525435 293.913959 
L 246.252362 295.702112 
L 246.979289 297.831971 
L 247.706216 297.68465 
L 248.433143 294.584142 
L 249.16007 290.850037 
L 249.886997 288.184248 
L 250.613924 287.734423 
L 251.340851 290.102802 
L 252.794705 299.571866 
L 253.521632 299.829855 
L 254.248559 298.540487 
L 254.975485 299.510775 
L 255.702412 300.070359 
L 256.429339 295.926257 
L 257.156266 289.991158 
L 257.883193 286.044243 
L 258.61012 285.407368 
L 259.337047 287.062944 
L 260.063974 289.563074 
L 260.790901 291.539954 
L 261.517828 292.855802 
L 262.244755 292.909382 
L 262.971682 291.738416 
L 264.425536 287.524822 
L 265.152462 286.086812 
L 265.879389 285.669343 
L 266.606316 286.612171 
L 269.514024 294.778917 
L 270.240951 296.208309 
L 270.967878 294.668155 
L 271.694805 291.585397 
L 272.421732 290.683521 
L 273.148659 292.860679 
L 273.875586 295.94067 
L 274.602513 295.291633 
L 276.056366 285.442735 
L 276.783293 282.185267 
L 277.51022 281.605304 
L 278.237147 283.002825 
L 278.964074 284.741196 
L 279.691001 285.151454 
L 280.417928 283.611855 
L 281.871782 279.308621 
L 283.325636 275.92581 
L 284.052563 274.592366 
L 284.779489 273.574951 
L 285.506416 272.848772 
L 286.233343 272.311243 
L 286.96027 272.145014 
L 287.687197 272.938675 
L 288.414124 275.306892 
L 289.867978 282.860589 
L 290.594905 284.965613 
L 292.048759 286.004093 
L 292.775686 288.825236 
L 293.502613 293.905163 
L 294.22954 299.778865 
L 294.956466 300.035708 
L 295.683393 294.544676 
L 296.41032 291.014332 
L 297.137247 290.584605 
L 297.864174 291.973668 
L 298.591101 292.416356 
L 299.318028 290.120487 
L 300.044955 287.002246 
L 300.771882 285.437769 
L 301.498809 286.00812 
L 302.225736 287.036637 
L 302.952663 285.880029 
L 304.406517 279.16843 
L 305.133443 277.587043 
L 305.86037 277.302392 
L 306.587297 276.745162 
L 307.314224 274.924573 
L 308.041151 274.065566 
L 308.768078 276.291289 
L 309.495005 282.033097 
L 310.221932 288.71815 
L 310.948859 292.159949 
L 311.675786 290.538955 
L 312.402713 287.105417 
L 313.12964 284.559069 
L 313.856567 284.307085 
L 314.583493 286.843121 
L 315.31042 292.044078 
L 316.037347 298.324683 
L 316.764274 299.417294 
L 317.491201 294.623982 
L 318.218128 291.61221 
L 318.945055 291.094147 
L 319.671982 291.794074 
L 320.398909 292.14663 
L 321.125836 292.024768 
L 322.57969 291.974583 
L 324.033544 291.358581 
L 324.76047 291.232766 
L 325.487397 290.82672 
L 326.214324 289.76045 
L 327.668178 286.721047 
L 328.395105 285.119887 
L 329.122032 283.804555 
L 329.848959 283.087965 
L 330.575886 283.194571 
L 331.302813 284.320474 
L 332.756667 288.578994 
L 333.483594 289.136516 
L 334.210521 288.281454 
L 334.937447 288.432087 
L 335.664374 291.134553 
L 337.118228 301.291866 
L 337.845155 300.340225 
L 338.572082 295.15407 
L 339.299009 292.722393 
L 340.025936 294.052524 
L 340.752863 297.613935 
L 341.47979 298.651049 
L 343.660571 284.978125 
L 344.387497 283.629292 
L 345.114424 285.200138 
L 346.568278 293.32641 
L 347.295205 294.04976 
L 348.022132 291.335512 
L 348.749059 289.246981 
L 349.475986 289.548102 
L 350.92984 293.510951 
L 351.656767 292.62401 
L 352.383694 288.629745 
L 353.837548 279.417176 
L 355.291401 272.063155 
L 356.018328 269.34969 
L 356.745255 268.389309 
L 357.472182 269.861155 
L 358.199109 273.65907 
L 360.37989 288.967953 
L 361.106817 292.319401 
L 361.833744 294.587063 
L 362.560671 295.359625 
L 364.014525 294.446072 
L 364.741451 294.831005 
L 365.468378 295.682055 
L 366.195305 296.350188 
L 366.922232 296.28374 
L 367.649159 295.406133 
L 369.103013 292.739381 
L 369.82994 291.685269 
L 370.556867 290.43015 
L 371.283794 288.433733 
L 372.010721 285.614016 
L 374.191502 275.704669 
L 374.918428 274.922757 
L 375.645355 277.256825 
L 377.099209 285.649425 
L 377.826136 288.335095 
L 378.553063 289.988815 
L 379.27999 291.096644 
L 380.006917 291.559628 
L 380.733844 291.390887 
L 381.460771 290.560706 
L 382.187698 289.007016 
L 382.914625 287.91659 
L 383.641552 288.53235 
L 384.368478 291.413449 
L 385.095405 296.408603 
L 385.822332 300.264482 
L 386.549259 293.700219 
L 387.276186 285.113624 
L 388.003113 277.990472 
L 388.73004 273.616044 
L 389.456967 272.360606 
L 390.183894 273.782122 
L 392.364675 283.441493 
L 393.091602 284.329534 
L 394.545455 283.177465 
L 395.272382 283.068514 
L 395.999309 282.608179 
L 396.726236 281.086971 
L 397.453163 278.994255 
L 398.18009 277.766267 
L 398.907017 278.493446 
L 399.633944 281.620686 
L 401.087798 292.139044 
L 401.814725 294.657612 
L 402.541652 293.50729 
L 403.268579 292.728532 
L 403.995506 293.950459 
L 404.722432 294.450791 
L 405.449359 290.337114 
L 406.176286 284.114976 
L 406.903213 279.418293 
L 407.63014 278.279573 
L 408.357067 281.585401 
L 409.810921 295.786105 
L 410.537848 291.964493 
L 411.264775 283.968682 
L 411.991702 278.690225 
L 412.718629 277.792474 
L 413.445556 281.084029 
L 414.172482 286.48002 
L 414.899409 290.487594 
L 416.353263 290.607481 
L 417.08019 293.724356 
L 417.807117 299.139085 
L 418.534044 299.59717 
L 419.260971 292.774655 
L 419.987898 287.876683 
L 420.714825 287.262613 
L 421.441752 290.516675 
L 422.168679 294.363008 
L 422.895606 293.847921 
L 424.349459 285.9353 
L 425.076386 284.188947 
L 425.803313 285.330286 
L 427.257167 291.299397 
L 427.984094 291.486891 
L 428.711021 288.940238 
L 430.164875 280.829223 
L 431.618729 271.001629 
L 432.345656 267.891819 
L 433.072583 267.374235 
L 433.79951 270.146402 
L 434.526436 276.108816 
L 435.253363 283.663002 
L 435.98029 289.469603 
L 436.707217 289.977466 
L 438.161071 282.943639 
L 438.887998 280.642017 
L 440.341852 277.03696 
L 441.068779 276.394263 
L 441.795706 277.733132 
L 443.976486 286.193517 
L 444.703413 287.189527 
L 445.43034 287.122215 
L 446.157267 287.709593 
L 446.884194 288.89243 
L 447.611121 289.36052 
L 448.338048 287.65618 
L 449.064975 285.186569 
L 449.791902 284.084992 
L 450.518829 285.146201 
L 451.972683 290.26763 
L 452.69961 290.128896 
L 453.426537 286.968414 
L 454.88039 277.797597 
L 455.607317 275.147884 
L 456.334244 276.043845 
L 457.788098 281.388817 
L 458.515025 282.375154 
L 459.241952 282.974341 
L 459.968879 283.832705 
L 460.695806 283.927985 
L 461.422733 281.874082 
L 462.14966 280.259291 
L 462.876587 281.9748 
L 464.33044 292.888889 
L 465.057367 291.876702 
L 467.238148 273.404009 
L 468.692002 262.750161 
L 469.418929 258.871185 
L 470.145856 257.08121 
L 470.872783 257.675105 
L 471.59971 260.50937 
L 472.326637 265.022868 
L 473.053564 270.925717 
L 475.234344 290.574756 
L 475.961271 294.262153 
L 476.688198 293.868967 
L 477.415125 288.931944 
L 478.142052 282.075968 
L 478.868979 277.621036 
L 479.595906 275.669671 
L 480.322833 274.952659 
L 481.04976 275.309089 
L 481.776687 277.432075 
L 482.503614 281.42029 
L 483.957467 291.140245 
L 484.684394 292.746922 
L 485.411321 291.491825 
L 486.138248 289.560868 
L 486.865175 288.296058 
L 487.592102 287.618674 
L 488.319029 288.325091 
L 489.772883 294.273203 
L 490.49981 293.384913 
L 491.226737 289.310825 
L 491.953664 286.164288 
L 492.680591 286.405222 
L 493.407518 290.469715 
L 494.134444 297.042195 
L 494.861371 297.621156 
L 496.315225 284.513083 
L 497.042152 281.682027 
L 497.769079 282.850043 
L 498.496006 285.856557 
L 499.222933 287.580552 
L 499.94986 287.758501 
L 500.676787 288.861672 
L 501.403714 291.849418 
L 502.130641 295.362857 
L 502.857568 295.319205 
L 503.584494 292.09664 
L 504.311421 289.424825 
L 505.038348 289.203601 
L 505.765275 291.708584 
L 506.492202 295.483322 
L 507.219129 295.584813 
L 508.672983 284.635703 
L 509.39991 281.096813 
L 510.126837 280.946325 
L 510.853764 284.323137 
L 511.580691 289.457696 
L 512.307618 292.725381 
L 513.034545 290.321001 
L 513.761471 285.621195 
L 514.488398 282.405433 
L 515.215325 281.223753 
L 515.942252 282.083151 
L 517.396106 286.692769 
L 518.123033 287.705234 
L 519.576887 288.55134 
L 520.303814 288.508371 
L 521.030741 287.800965 
L 521.757668 287.269395 
L 522.484595 287.748362 
L 523.211522 289.769845 
L 523.938448 293.537944 
L 524.665375 298.347033 
L 525.392302 297.400973 
L 526.119229 291.858026 
L 526.846156 289.166122 
L 527.573083 290.28834 
L 528.30001 293.378972 
L 529.026937 293.236848 
L 531.207718 280.429369 
L 531.934645 278.517189 
L 532.661572 278.724089 
L 534.115425 282.304813 
L 534.842352 282.548813 
L 535.569279 281.633772 
L 536.296206 282.081244 
L 538.476987 287.941839 
L 539.203914 288.219742 
L 539.930841 287.607446 
L 540.657768 288.319159 
L 541.384695 291.858832 
L 542.111622 297.557745 
L 542.838549 300.018696 
L 543.565475 295.246844 
L 544.292402 291.214726 
L 545.019329 290.025431 
L 545.746256 290.854753 
L 546.473183 290.971115 
L 547.20011 288.790768 
L 547.927037 284.614963 
L 549.380891 273.54177 
L 550.834745 261.404082 
L 551.561672 256.364645 
L 552.288599 253.12202 
L 553.015526 251.576187 
L 553.742452 250.904236 
L 554.469379 249.995792 
L 555.923233 246.906474 
L 556.65016 245.895363 
L 557.377087 246.30406 
L 558.104014 248.213414 
L 559.557868 255.249454 
L 561.011722 262.715392 
L 561.738649 267.273471 
L 562.465576 273.252425 
L 563.919429 287.28767 
L 564.646356 291.590887 
L 566.10021 293.094016 
L 567.554064 297.796499 
L 568.280991 295.084936 
L 569.007918 289.497132 
L 569.734845 285.196968 
L 570.461772 284.358003 
L 571.188699 287.128322 
L 572.642553 297.832104 
L 573.369479 299.748901 
L 574.096406 296.119188 
L 574.823333 293.166382 
L 575.55026 292.637537 
L 576.277187 293.733158 
L 577.004114 294.003565 
L 577.731041 292.414887 
L 579.184895 287.379621 
L 579.911822 285.473826 
L 580.638749 284.032581 
L 581.365676 282.941021 
L 582.092603 283.755298 
L 583.546456 288.299931 
L 584.273383 288.171565 
L 585.00031 285.116858 
L 585.727237 281.216243 
L 586.454164 279.102528 
L 587.181091 279.925836 
L 587.908018 283.819945 
L 588.634945 288.92037 
L 589.361872 291.06516 
L 590.088799 289.676089 
L 590.815726 287.795571 
L 591.542653 287.135389 
L 592.26958 287.639547 
L 592.996507 288.454941 
L 593.723433 289.05493 
L 594.45036 289.322722 
L 595.177287 289.026315 
L 595.904214 287.87467 
L 596.631141 285.621126 
L 597.358068 282.897565 
L 598.084995 280.68684 
L 598.811922 279.888977 
L 599.538849 280.991744 
L 600.992703 286.351257 
L 601.71963 288.140682 
L 603.173483 289.8646 
L 603.90041 291.255304 
L 605.354264 294.570447 
L 606.081191 294.510307 
L 606.808118 292.268516 
L 608.261972 285.956014 
L 608.988899 284.42927 
L 609.715826 284.49686 
L 610.442753 285.904011 
L 612.623534 291.912125 
L 614.077387 298.49747 
L 614.804314 301.680209 
L 615.531241 303.309189 
L 616.258168 302.001584 
L 616.985095 299.394868 
L 617.712022 297.670671 
L 618.438949 297.814044 
L 619.165876 300.045519 
L 619.892803 302.878592 
L 620.61973 300.05375 
L 621.346657 296.313176 
L 622.073584 293.718196 
L 622.800511 292.664994 
L 623.527437 292.910135 
L 624.254364 293.657031 
L 624.981291 293.78478 
L 625.708218 292.613989 
L 627.888999 285.976034 
L 628.615926 285.025815 
L 629.342853 285.258687 
L 630.796707 287.343024 
L 631.523634 287.717894 
L 632.977487 285.805347 
L 633.704414 286.475595 
L 634.431341 289.053081 
L 635.158268 292.286063 
L 635.885195 292.903281 
L 636.612122 289.402482 
L 637.339049 284.435506 
L 638.065976 280.397221 
L 638.792903 278.647464 
L 639.51983 279.137806 
L 640.973684 283.065141 
L 641.700611 285.130671 
L 643.154464 291.32745 
L 643.881391 292.695976 
L 644.608318 290.60781 
L 646.062172 281.844968 
L 646.789099 280.307522 
L 647.516026 282.532698 
L 648.242953 288.368525 
L 648.96988 296.446319 
L 649.696807 295.52432 
L 650.423734 286.617972 
L 651.150661 279.47149 
L 651.877588 275.892237 
L 652.604515 276.58878 
L 653.331441 280.833845 
L 655.512222 299.926411 
L 656.239149 303.884159 
L 657.693003 296.155463 
L 658.41993 293.358237 
L 659.146857 292.501316 
L 659.873784 293.653353 
L 660.600711 295.623915 
L 661.327638 295.268737 
L 662.054565 292.279285 
L 662.781491 290.442239 
L 663.508418 291.954569 
L 664.962272 299.976687 
L 665.689199 296.126682 
L 667.143053 284.014332 
L 667.86998 280.295485 
L 668.596907 279.399973 
L 669.323834 281.38049 
L 670.777688 288.94005 
L 671.504615 291.896401 
L 672.231542 293.519867 
L 672.958468 294.160823 
L 673.685395 294.403323 
L 674.412322 293.080213 
L 675.139249 289.504276 
L 676.593103 279.933858 
L 677.32003 276.207978 
L 678.046957 275.442035 
L 678.773884 278.709526 
L 679.500811 285.649467 
L 680.227738 294.475192 
L 680.954665 299.47928 
L 682.408519 285.384565 
L 683.135445 281.796864 
L 683.862372 281.978263 
L 684.589299 284.432979 
L 685.316226 287.404105 
L 686.043153 289.155431 
L 686.77008 289.577842 
L 687.497007 289.654762 
L 688.223934 289.580647 
L 688.950861 288.701222 
L 689.677788 286.236477 
L 690.404715 283.145573 
L 691.131642 280.796322 
L 691.858569 280.619883 
L 692.585495 282.961593 
L 693.312422 286.193982 
L 694.039349 287.147937 
L 694.766276 284.254422 
L 696.22013 275.527772 
L 696.947057 272.60527 
L 697.673984 270.671682 
L 699.127838 268.075907 
L 699.854765 267.054419 
L 700.581692 267.200701 
L 701.308619 269.38708 
L 702.035546 273.883417 
L 704.943253 297.18271 
L 705.67018 296.983874 
L 707.124034 289.077382 
L 707.850961 286.763745 
L 709.304815 283.80415 
L 710.031742 282.39248 
L 711.485596 278.406673 
L 712.212523 277.927673 
L 712.939449 280.083929 
L 713.666376 284.325206 
L 714.393303 286.747215 
L 715.12023 286.676037 
L 715.847157 286.328409 
L 717.301011 286.493872 
L 718.027938 286.480468 
L 718.754865 286.739763 
L 719.481792 287.74587 
L 720.208719 290.351454 
L 720.935646 294.306058 
L 721.662573 294.342138 
L 722.389499 288.098326 
L 723.116426 284.449688 
L 723.843353 283.496904 
L 724.57028 284.685048 
L 725.297207 287.08137 
L 726.024134 290.089048 
L 726.751061 293.890596 
L 727.477988 296.709946 
L 728.204915 293.566777 
L 729.658769 280.50198 
L 730.385696 276.036154 
L 731.112623 274.35329 
L 731.83955 275.598826 
L 732.566476 278.471747 
L 733.293403 280.288269 
L 734.02033 278.888111 
L 735.474184 271.250456 
L 736.201111 268.625846 
L 736.928038 267.987565 
L 737.654965 268.893074 
L 739.108819 271.680998 
L 739.835746 272.663829 
L 740.562673 274.022851 
L 741.2896 277.023994 
L 742.016527 282.722688 
L 743.47038 298.213678 
L 744.924234 284.526192 
L 745.651161 281.805061 
L 746.378088 282.091434 
L 747.105015 285.043762 
L 747.831942 289.544058 
L 748.558869 292.289091 
L 750.012723 290.155406 
L 750.73965 291.570947 
L 751.466577 294.786855 
L 752.193504 296.040611 
L 753.647357 290.071559 
L 754.374284 289.85335 
L 755.101211 292.251335 
L 755.828138 293.957761 
L 756.555065 290.984893 
L 757.281992 285.564169 
L 758.008919 281.521823 
L 758.735846 280.906886 
L 759.462773 283.955941 
L 760.1897 290.060194 
L 760.916627 298.169539 
L 761.643554 300.708711 
L 762.37048 293.526707 
L 763.097407 287.587478 
L 763.824334 286.108272 
L 764.551261 287.675587 
L 765.278188 288.549406 
L 766.732042 286.373307 
L 767.458969 287.111176 
L 768.185896 290.131403 
L 768.912823 294.944853 
L 769.63975 298.247652 
L 770.366677 293.212289 
L 771.820531 278.175728 
L 772.547457 273.749527 
L 773.274384 271.776836 
L 775.455165 269.392203 
L 776.182092 269.172927 
L 776.909019 270.211228 
L 777.635946 272.722512 
L 781.270581 290.180507 
L 782.724434 301.271653 
L 783.451361 293.953805 
L 784.178288 284.329195 
L 784.905215 278.797002 
L 785.632142 276.377734 
L 786.359069 277.117609 
L 787.085996 280.605184 
L 788.53985 291.853917 
L 789.266777 294.294603 
L 790.720631 288.635047 
L 791.447558 289.125542 
L 792.174484 292.927606 
L 792.901411 297.658719 
L 793.628338 294.205907 
L 795.082192 275.739907 
L 795.809119 268.794078 
L 796.536046 264.618157 
L 797.262973 262.399873 
L 797.9899 261.241099 
L 798.716827 260.581476 
L 799.443754 260.770311 
L 800.170681 262.190409 
L 800.897608 265.040819 
L 801.624535 269.432962 
L 802.351461 275.461445 
L 803.805315 290.734508 
L 804.532242 294.87554 
L 805.259169 289.172461 
L 805.986096 284.889963 
L 806.713023 283.058506 
L 807.43995 281.823188 
L 808.166877 280.994126 
L 808.893804 280.844648 
L 809.620731 281.524288 
L 811.074585 284.017994 
L 811.801512 284.317296 
L 812.528438 282.804696 
L 814.709219 272.534958 
L 815.436146 271.862448 
L 816.163073 270.812518 
L 816.89 254.218769 
L 816.89 254.218769 
" clip-path="url(#p5ab6ae4d4e)" style="fill: none; stroke: #2ca02c; stroke-width: 1.2; stroke-linecap: square"/>
   </g>
   <g id="line2d_27">
    <path d="M 90.69 304.805455 
L 91.416927 265.246445 
L 92.143854 256.370466 
L 92.870781 262.229069 
L 94.324635 285.533094 
L 95.051562 293.171073 
L 95.778488 291.925468 
L 97.232342 281.26011 
L 97.959269 276.841476 
L 98.686196 273.189533 
L 99.413123 270.324105 
L 100.866977 265.984673 
L 102.320831 261.971364 
L 103.774685 257.296562 
L 105.228539 253.821367 
L 105.955465 252.649734 
L 106.682392 252.014594 
L 107.409319 251.714424 
L 108.136246 252.166368 
L 108.863173 253.464188 
L 109.5901 255.309406 
L 110.317027 257.889603 
L 111.770881 265.08667 
L 114.678589 281.158119 
L 115.405516 283.909545 
L 116.132442 285.930762 
L 116.859369 286.996859 
L 117.586296 286.683037 
L 118.313223 284.889328 
L 119.04015 281.853296 
L 120.494004 273.839236 
L 121.947858 265.770395 
L 124.855566 251.684216 
L 126.309419 245.844553 
L 127.036346 243.512749 
L 127.763273 242.071118 
L 128.4902 241.480026 
L 129.217127 241.899661 
L 129.944054 243.677983 
L 130.670981 246.743885 
L 131.397908 250.980995 
L 132.851762 262.684525 
L 134.305616 276.001923 
L 135.032543 281.493942 
L 135.759469 285.418205 
L 136.486396 287.457978 
L 137.213323 287.322606 
L 137.94025 285.480467 
L 138.667177 282.708027 
L 140.121031 275.912686 
L 142.301812 265.425647 
L 143.755666 259.590181 
L 145.20952 254.766747 
L 148.117227 246.594038 
L 148.844154 244.908602 
L 149.571081 243.773298 
L 150.298008 242.868976 
L 151.024935 242.387129 
L 151.751862 242.780309 
L 152.478789 243.674968 
L 153.205716 244.996652 
L 153.932643 247.131584 
L 154.65957 250.099935 
L 155.386496 253.645337 
L 156.113423 257.900722 
L 157.567277 268.425467 
L 159.748058 285.592896 
L 160.474985 289.695648 
L 161.201912 291.581557 
L 161.928839 290.300649 
L 162.655766 286.927264 
L 164.10962 277.896658 
L 169.925035 234.924347 
L 172.105816 215.087833 
L 173.55967 204.188119 
L 174.286597 199.894298 
L 175.013524 196.454718 
L 175.74045 193.842428 
L 176.467377 192.403027 
L 177.194304 192.004996 
L 177.921231 192.924322 
L 178.648158 195.155074 
L 179.375085 198.695245 
L 180.102012 203.707129 
L 180.828939 209.882763 
L 182.282793 225.507542 
L 183.736647 244.700099 
L 185.917427 276.890477 
L 186.644354 285.694314 
L 187.371281 291.921398 
L 188.098208 294.163462 
L 188.825135 291.600009 
L 190.278989 281.733307 
L 194.640551 250.671169 
L 196.821331 232.400197 
L 198.275185 220.31951 
L 199.729039 209.358237 
L 200.455966 204.801707 
L 201.182893 201.270312 
L 201.90982 199.159418 
L 202.636747 198.439516 
L 203.363674 199.334737 
L 204.090601 201.697479 
L 204.817528 205.586934 
L 205.544454 210.92688 
L 206.271381 217.575926 
L 206.998308 225.663496 
L 208.452162 245.698333 
L 209.906016 267.550314 
L 210.632943 276.915568 
L 211.35987 284.167412 
L 212.086797 288.725029 
L 212.813724 289.782073 
L 213.540651 287.463023 
L 214.994505 278.342035 
L 217.175285 264.281818 
L 219.356066 251.809047 
L 220.80992 243.784692 
L 222.263774 237.143875 
L 222.990701 234.797523 
L 223.717628 232.907326 
L 224.444555 231.656233 
L 225.171481 231.344169 
L 225.898408 231.819456 
L 226.625335 233.476237 
L 227.352262 236.225859 
L 228.079189 239.795805 
L 228.806116 244.377911 
L 229.533043 249.823955 
L 230.986897 263.147945 
L 232.440751 277.299607 
L 233.167678 283.332537 
L 233.894605 287.852887 
L 234.621532 289.848741 
L 235.348458 288.079795 
L 236.075385 283.600294 
L 237.529239 271.62204 
L 240.436947 246.625445 
L 243.344655 224.2826 
L 244.798509 214.727209 
L 245.525435 210.935643 
L 246.252362 208.069221 
L 246.979289 206.353463 
L 247.706216 205.82612 
L 248.433143 206.5766 
L 249.16007 208.707412 
L 249.886997 212.350464 
L 250.613924 217.688897 
L 251.340851 224.581229 
L 252.067778 232.874228 
L 253.521632 253.258063 
L 255.702412 287.123708 
L 256.429339 293.250454 
L 257.156266 291.435018 
L 262.244755 248.001089 
L 265.152462 220.507165 
L 270.240951 168.123969 
L 270.967878 162.535713 
L 271.694805 158.285416 
L 272.421732 155.548912 
L 273.148659 154.428209 
L 273.875586 155.050564 
L 274.602513 157.669516 
L 275.329439 162.277183 
L 276.056366 168.827628 
L 276.783293 177.285725 
L 277.51022 187.721565 
L 278.237147 200.098369 
L 279.691001 230.369741 
L 281.871782 281.926772 
L 282.598709 291.153748 
L 283.325636 287.350557 
L 285.506416 262.187542 
L 290.594905 210.91849 
L 292.775686 186.407175 
L 294.22954 172.89721 
L 294.956466 167.253693 
L 295.683393 162.580522 
L 296.41032 159.042974 
L 297.137247 156.516786 
L 297.864174 155.392204 
L 298.591101 155.60556 
L 299.318028 157.021631 
L 300.044955 159.750777 
L 300.771882 163.547075 
L 301.498809 168.594278 
L 302.225736 175.140564 
L 302.952663 182.841927 
L 304.406517 202.027477 
L 305.86037 224.571188 
L 308.768078 274.846982 
L 309.495005 282.134479 
L 310.221932 284.113151 
L 310.948859 281.773333 
L 311.675786 277.151851 
L 316.037347 244.246692 
L 317.491201 235.751381 
L 318.945055 228.289792 
L 319.671982 225.21005 
L 320.398909 223.132619 
L 321.125836 222.332501 
L 321.852763 222.59476 
L 322.57969 224.05023 
L 323.306617 226.741853 
L 324.033544 230.527018 
L 326.214324 245.174529 
L 327.668178 254.793704 
L 328.395105 258.627189 
L 329.122032 261.647773 
L 329.848959 263.662635 
L 330.575886 264.586137 
L 331.302813 264.378622 
L 332.02974 263.366194 
L 332.756667 261.71271 
L 333.483594 259.184353 
L 334.937447 252.421849 
L 336.391301 245.465789 
L 337.118228 242.767632 
L 337.845155 240.795694 
L 338.572082 239.72859 
L 339.299009 239.600789 
L 340.025936 240.830038 
L 340.752863 243.362916 
L 341.47979 247.435866 
L 342.206717 252.90855 
L 343.660571 267.50481 
L 344.387497 275.048306 
L 345.114424 281.038961 
L 345.841351 284.737781 
L 346.568278 285.832677 
L 347.295205 284.650917 
L 348.022132 282.004849 
L 348.749059 278.437497 
L 350.202913 269.554018 
L 351.656767 258.185018 
L 353.110621 244.446047 
L 356.018328 215.034583 
L 356.745255 209.280512 
L 357.472182 204.90691 
L 358.199109 202.198554 
L 358.926036 201.285512 
L 359.652963 202.195083 
L 360.37989 204.945891 
L 361.106817 209.358618 
L 361.833744 215.445414 
L 362.560671 223.074925 
L 365.468378 259.118828 
L 366.195305 263.758804 
L 366.922232 265.383546 
L 367.649159 264.993726 
L 368.376086 263.14615 
L 371.283794 251.851244 
L 372.010721 247.990679 
L 373.464575 237.309327 
L 374.918428 224.660821 
L 377.099209 205.308446 
L 377.826136 199.952694 
L 378.553063 195.573678 
L 379.27999 192.576383 
L 380.006917 190.85462 
L 380.733844 190.643528 
L 381.460771 191.878601 
L 382.187698 194.571986 
L 382.914625 198.655726 
L 383.641552 203.776598 
L 386.549259 228.700905 
L 387.276186 231.997786 
L 388.003113 232.19053 
L 388.73004 230.009748 
L 389.456967 226.35029 
L 390.910821 218.094517 
L 391.637748 215.051265 
L 392.364675 212.982545 
L 393.091602 211.551547 
L 393.818529 210.896292 
L 394.545455 211.328352 
L 395.272382 212.573474 
L 395.999309 214.613627 
L 396.726236 217.444088 
L 398.18009 224.604832 
L 399.633944 234.00381 
L 401.087798 245.338734 
L 402.541652 259.190258 
L 405.449359 291.784336 
L 406.176286 294.846659 
L 406.903213 292.179136 
L 409.083994 275.926428 
L 409.810921 271.773055 
L 411.264775 265.294229 
L 412.718629 260.345664 
L 413.445556 258.460454 
L 414.172482 257.093801 
L 414.899409 256.105164 
L 415.626336 255.314001 
L 416.353263 254.930246 
L 417.08019 255.307905 
L 417.807117 256.331822 
L 418.534044 257.588666 
L 419.260971 259.352763 
L 419.987898 261.86512 
L 421.441752 268.846308 
L 422.168679 272.297855 
L 422.895606 275.023066 
L 423.622533 276.951714 
L 424.349459 278.188525 
L 425.076386 278.616397 
L 425.803313 278.196287 
L 426.53024 277.011575 
L 427.257167 275.182455 
L 428.711021 270.258319 
L 433.072583 254.478645 
L 433.79951 252.388732 
L 434.526436 250.852924 
L 435.253363 250.031687 
L 435.98029 249.977495 
L 436.707217 250.763919 
L 437.434144 252.236607 
L 438.161071 254.459807 
L 439.614925 259.715606 
L 441.068779 263.971858 
L 441.795706 265.66118 
L 442.522633 266.989887 
L 443.24956 267.806104 
L 443.976486 267.972649 
L 445.43034 267.58217 
L 446.157267 267.720764 
L 446.884194 268.322495 
L 447.611121 269.19651 
L 448.338048 269.896005 
L 449.791902 271.091949 
L 451.972683 273.979724 
L 454.153463 275.477999 
L 454.88039 275.779131 
L 455.607317 275.840577 
L 456.334244 275.473432 
L 457.061171 274.418232 
L 457.788098 272.481729 
L 459.241952 267.106912 
L 459.968879 263.862457 
L 460.695806 260.071373 
L 462.14966 250.449308 
L 463.603514 238.040491 
L 465.057367 223.073123 
L 467.965075 190.849744 
L 468.692002 184.762686 
L 469.418929 179.656056 
L 470.145856 175.896288 
L 470.872783 173.777895 
L 471.59971 173.281907 
L 472.326637 174.611372 
L 473.053564 177.678206 
L 473.78049 182.568476 
L 474.507417 189.282815 
L 475.234344 197.54042 
L 476.688198 218.196448 
L 479.595906 264.884039 
L 480.322833 272.62106 
L 481.04976 276.757946 
L 481.776687 277.779374 
L 482.503614 276.353757 
L 483.230541 273.245985 
L 486.865175 253.089517 
L 487.592102 250.060997 
L 488.319029 247.925855 
L 489.045956 246.34239 
L 489.772883 245.318302 
L 491.226737 244.510988 
L 491.953664 244.417603 
L 492.680591 244.846291 
L 494.134444 246.514321 
L 495.588298 248.503596 
L 498.496006 253.391558 
L 499.94986 257.945783 
L 501.403714 263.078531 
L 502.857568 268.732019 
L 503.584494 270.633443 
L 504.311421 271.780211 
L 505.038348 272.600575 
L 505.765275 273.188736 
L 506.492202 273.129991 
L 508.672983 271.552192 
L 509.39991 271.143272 
L 510.126837 271.261938 
L 510.853764 271.927828 
L 511.580691 273.078934 
L 513.761471 278.213214 
L 515.942252 283.058328 
L 517.396106 284.954139 
L 518.123033 285.560802 
L 518.84996 285.75232 
L 519.576887 285.550115 
L 520.303814 284.746308 
L 521.030741 283.240746 
L 522.484595 279.288032 
L 524.665375 272.745776 
L 529.026937 257.978481 
L 529.753864 255.89912 
L 530.480791 254.355111 
L 531.207718 253.311624 
L 532.661572 252.179088 
L 533.388498 251.564 
L 534.115425 250.491131 
L 537.023133 244.871475 
L 537.75006 243.661137 
L 538.476987 243.095134 
L 539.203914 242.936789 
L 539.930841 243.476806 
L 540.657768 244.9173 
L 541.384695 247.227151 
L 542.111622 250.480865 
L 542.838549 254.761311 
L 543.565475 260.049561 
L 545.746256 279.264981 
L 546.473183 282.342617 
L 547.20011 281.191814 
L 547.927037 276.622368 
L 549.380891 263.013872 
L 552.288599 230.97525 
L 553.742452 212.649181 
L 555.196306 190.747145 
L 557.377087 152.359899 
L 558.830941 128.160724 
L 560.284795 109.020931 
L 561.011722 101.819248 
L 561.738649 96.233809 
L 562.465576 92.253001 
L 563.192503 89.756656 
L 563.919429 88.837113 
L 564.646356 89.490124 
L 565.373283 91.778734 
L 566.10021 95.60666 
L 566.827137 100.78796 
L 567.554064 107.291953 
L 568.280991 114.948594 
L 569.734845 134.002313 
L 571.188699 157.822727 
L 572.642553 185.763303 
L 574.823333 233.207034 
L 576.277187 265.032274 
L 577.004114 276.986145 
L 577.731041 282.077071 
L 578.457968 279.944044 
L 579.184895 274.136492 
L 582.81953 239.543484 
L 584.273383 221.837906 
L 585.727237 199.678109 
L 589.361872 140.349828 
L 590.088799 130.652839 
L 590.815726 122.519432 
L 591.542653 116.18431 
L 592.26958 111.846604 
L 592.996507 109.809614 
L 593.723433 109.988598 
L 594.45036 112.484081 
L 595.177287 117.241153 
L 595.904214 124.293462 
L 596.631141 133.523638 
L 597.358068 144.82541 
L 598.811922 172.94749 
L 600.265776 206.611222 
L 602.446557 258.473732 
L 603.173483 270.195876 
L 603.90041 275.372568 
L 604.627337 274.701145 
L 605.354264 271.154654 
L 607.535045 258.192218 
L 609.715826 247.324897 
L 611.896607 237.322072 
L 612.623534 233.726632 
L 614.077387 228.198665 
L 614.804314 226.020694 
L 615.531241 224.658748 
L 616.258168 224.123217 
L 616.985095 224.219854 
L 617.712022 225.257779 
L 618.438949 227.287939 
L 619.165876 229.944778 
L 619.892803 233.37673 
L 621.346657 242.348226 
L 623.527437 256.959373 
L 624.254364 260.539344 
L 624.981291 262.61575 
L 625.708218 263.188879 
L 626.435145 262.725367 
L 627.162072 261.733588 
L 627.888999 260.455205 
L 628.615926 258.851645 
L 630.06978 254.917966 
L 630.796707 253.74505 
L 631.523634 253.289813 
L 632.250561 253.488064 
L 632.977487 254.539835 
L 633.704414 256.23547 
L 634.431341 258.513689 
L 636.612122 267.012366 
L 638.065976 273.282353 
L 640.973684 287.242553 
L 641.700611 289.337327 
L 642.427538 290.160564 
L 643.154464 289.66685 
L 643.881391 287.622892 
L 644.608318 284.124696 
L 646.789099 270.644923 
L 651.150661 241.57267 
L 652.604515 234.155875 
L 654.058368 226.76553 
L 656.966076 211.79969 
L 658.41993 205.617008 
L 659.146857 203.592873 
L 659.873784 202.665933 
L 660.600711 202.790995 
L 661.327638 204.12354 
L 662.054565 206.562782 
L 662.781491 210.36393 
L 663.508418 215.387426 
L 664.235345 221.737747 
L 665.689199 237.951692 
L 668.596907 276.146927 
L 669.323834 281.400314 
L 670.050761 282.828522 
L 670.777688 281.01961 
L 671.504615 277.245987 
L 672.958468 267.783503 
L 674.412322 256.902928 
L 677.32003 232.455681 
L 678.773884 217.000535 
L 681.681592 183.275556 
L 683.135445 166.36605 
L 684.589299 153.156292 
L 685.316226 148.512302 
L 686.043153 145.480109 
L 686.77008 144.064752 
L 687.497007 144.437566 
L 688.223934 146.472257 
L 688.950861 150.374408 
L 689.677788 156.03042 
L 690.404715 163.470911 
L 691.131642 172.545368 
L 692.585495 195.126258 
L 694.039349 222.309902 
L 696.22013 264.347629 
L 696.947057 274.320817 
L 697.673984 280.18041 
L 698.400911 281.624708 
L 699.127838 280.012081 
L 699.854765 276.984431 
L 701.308619 270.133604 
L 702.762472 264.464606 
L 704.216326 258.980989 
L 705.67018 252.913462 
L 707.850961 245.677356 
L 709.304815 240.105557 
L 710.031742 237.991515 
L 710.758669 236.442482 
L 712.212523 234.1524 
L 712.939449 233.620971 
L 713.666376 233.465335 
L 715.847157 233.548243 
L 716.574084 234.25616 
L 717.301011 235.385124 
L 718.754865 238.346111 
L 720.208719 241.557448 
L 721.662573 244.293467 
L 722.389499 246.156137 
L 723.116426 248.610802 
L 723.843353 251.807115 
L 724.57028 256.034582 
L 725.297207 261.232178 
L 727.477988 279.568872 
L 728.204915 283.159611 
L 728.931842 284.081406 
L 729.658769 281.943586 
L 730.385696 277.764034 
L 731.83955 267.003343 
L 733.293403 254.19813 
L 734.747257 239.680915 
L 736.201111 222.233569 
L 737.654965 202.940532 
L 738.381892 194.371351 
L 739.108819 187.196013 
L 739.835746 181.747198 
L 740.562673 178.44407 
L 741.2896 177.438222 
L 742.016527 178.751219 
L 742.743453 182.461576 
L 743.47038 188.559884 
L 744.197307 196.936571 
L 744.924234 207.500694 
L 746.378088 233.612605 
L 748.558869 277.025106 
L 749.285796 287.458439 
L 750.012723 290.679018 
L 750.73965 287.245986 
L 753.647357 264.78663 
L 755.101211 255.819022 
L 756.555065 248.401305 
L 761.643554 226.557918 
L 762.37048 224.941497 
L 763.097407 224.683187 
L 763.824334 225.661964 
L 764.551261 227.955387 
L 765.278188 231.56457 
L 766.005115 236.399012 
L 768.185896 253.347934 
L 768.912823 256.215641 
L 769.63975 256.47368 
L 770.366677 254.668933 
L 771.820531 248.276226 
L 773.274384 241.148208 
L 774.001311 237.113291 
L 774.728238 232.372574 
L 775.455165 226.495392 
L 779.0898 192.176196 
L 779.816727 188.30723 
L 780.543654 186.394387 
L 781.270581 186.663678 
L 781.997508 189.181872 
L 782.724434 193.927716 
L 783.451361 200.849529 
L 784.178288 209.688668 
L 785.632142 231.774221 
L 787.812923 269.035328 
L 788.53985 277.261738 
L 789.266777 280.290939 
L 789.993704 279.415934 
L 791.447558 275.060837 
L 792.901411 269.456205 
L 795.809119 256.552193 
L 796.536046 252.781806 
L 797.9899 244.170787 
L 798.716827 241.439058 
L 800.170681 237.290442 
L 800.897608 235.85073 
L 801.624535 235.107673 
L 802.351461 234.922101 
L 803.078388 235.667073 
L 803.805315 237.708121 
L 804.532242 240.939268 
L 805.259169 245.34423 
L 805.986096 251.193886 
L 807.43995 265.795965 
L 808.893804 280.393176 
L 809.620731 285.843306 
L 810.347658 289.411217 
L 811.074585 289.977734 
L 811.801512 287.436249 
L 813.255365 278.494736 
L 813.982292 273.849783 
L 814.709219 270.248042 
L 815.436146 268.696835 
L 816.163073 260.742012 
L 816.89 238.400325 
L 816.89 238.400325 
" clip-path="url(#p5ab6ae4d4e)" style="fill: none; stroke-dasharray: 3.7,1.6; stroke-dashoffset: 0; stroke: #1f77b4"/>
   </g>
   <g id="patch_3">
    <path d="M 54.38 318.04 
L 54.38 26.88 
" style="fill: none; stroke: #000000; stroke-width: 0.8; stroke-linejoin: miter; stroke-linecap: square"/>
   </g>
   <g id="patch_4">
    <path d="M 853.2 318.04 
L 853.2 26.88 
" style="fill: none; stroke: #000000; stroke-width: 0.8; stroke-linejoin: miter; stroke-linecap: square"/>
   </g>
   <g id="patch_5">
    <path d="M 54.38 318.04 
L 853.2 318.04 
" style="fill: none; stroke: #000000; stroke-width: 0.8; stroke-linejoin: miter; stroke-linecap: square"/>
   </g>
   <g id="patch_6">
    <path d="M 54.38 26.88 
L 853.2 26.88 
" style="fill: none; stroke: #000000; stroke-width: 0.8; stroke-linejoin: miter; stroke-linecap: square"/>
   </g>
   <g id="text_15">
    <!-- Position Error Magnitude — hover excitation -->
    <g transform="translate(290.992422 20.88) scale(0.13 -0.13)">
     <defs>
      <path id="DejaVuSans-Bold-50" d="M 588 4666 
L 2584 4666 
Q 3475 4666 3951 4270 
Q 4428 3875 4428 3144 
Q 4428 2409 3951 2014 
Q 3475 1619 2584 1619 
L 1791 1619 
L 1791 0 
L 588 0 
L 588 4666 
z
M 1791 3794 
L 1791 2491 
L 2456 2491 
Q 2806 2491 2997 2661 
Q 3188 2831 3188 3144 
Q 3188 3456 2997 3625 
Q 2806 3794 2456 3794 
L 1791 3794 
z
" transform="scale(0.015625)"/>
      <path id="DejaVuSans-Bold-6f" d="M 2203 2784 
Q 1831 2784 1636 2517 
Q 1441 2250 1441 1747 
Q 1441 1244 1636 976 
Q 1831 709 2203 709 
Q 2569 709 2762 976 
Q 2956 1244 2956 1747 
Q 2956 2250 2762 2517 
Q 2569 2784 2203 2784 
z
M 2203 3584 
Q 3106 3584 3614 3096 
Q 4122 2609 4122 1747 
Q 4122 884 3614 396 
Q 3106 -91 2203 -91 
Q 1297 -91 786 396 
Q 275 884 275 1747 
Q 275 2609 786 3096 
Q 1297 3584 2203 3584 
z
" transform="scale(0.015625)"/>
      <path id="DejaVuSans-Bold-73" d="M 3272 3391 
L 3272 2541 
Q 2913 2691 2578 2766 
Q 2244 2841 1947 2841 
Q 1628 2841 1473 2761 
Q 1319 2681 1319 2516 
Q 1319 2381 1436 2309 
Q 1553 2238 1856 2203 
L 2053 2175 
Q 2913 2066 3209 1816 
Q 3506 1566 3506 1031 
Q 3506 472 3093 190 
Q 2681 -91 1863 -91 
Q 1516 -91 1145 -36 
Q 775 19 384 128 
L 384 978 
Q 719 816 1070 734 
Q 1422 653 1784 653 
Q 2113 653 2278 743 
Q 2444 834 2444 1013 
Q 2444 1163 2330 1236 
Q 2216 1309 1875 1350 
L 1678 1375 
Q 931 1469 631 1722 
Q 331 1975 331 2491 
Q 331 3047 712 3315 
Q 1094 3584 1881 3584 
Q 2191 3584 2531 3537 
Q 2872 3491 3272 3391 
z
" transform="scale(0.015625)"/>
      <path id="DejaVuSans-Bold-69" d="M 538 3500 
L 1656 3500 
L 1656 0 
L 538 0 
L 538 3500 
z
M 538 4863 
L 1656 4863 
L 1656 3950 
L 538 3950 
L 538 4863 
z
" transform="scale(0.015625)"/>
      <path id="DejaVuSans-Bold-74" d="M 1759 4494 
L 1759 3500 
L 2913 3500 
L 2913 2700 
L 1759 2700 
L 1759 1216 
Q 1759 972 1856 886 
Q 1953 800 2241 800 
L 2816 800 
L 2816 0 
L 1856 0 
Q 1194 0 917 276 
Q 641 553 641 1216 
L 641 2700 
L 84 2700 
L 84 3500 
L 641 3500 
L 641 4494 
L 1759 4494 
z
" transform="scale(0.015625)"/>
      <path id="DejaVuSans-Bold-6e" d="M 4056 2131 
L 4056 0 
L 2931 0 
L 2931 347 
L 2931 1631 
Q 2931 2084 2911 2256 
Q 2891 2428 2841 2509 
Q 2775 2619 2662 2680 
Q 2550 2741 2406 2741 
Q 2056 2741 1856 2470 
Q 1656 2200 1656 1722 
L 1656 0 
L 538 0 
L 538 3500 
L 1656 3500 
L 1656 2988 
Q 1909 3294 2193 3439 
Q 2478 3584 2822 3584 
Q 3428 3584 3742 3212 
Q 4056 2841 4056 2131 
z
" transform="scale(0.015625)"/>
      <path id="DejaVuSans-Bold-20" transform="scale(0.015625)"/>
      <path id="DejaVuSans-Bold-45" d="M 588 4666 
L 3834 4666 
L 3834 3756 
L 1791 3756 
L 1791 2888 
L 3713 2888 
L 3713 1978 
L 1791 1978 
L 1791 909 
L 3903 909 
L 3903 0 
L 588 0 
L 588 4666 
z
" transform="scale(0.015625)"/>
      <path id="DejaVuSans-Bold-72" d="M 3138 2547 
Q 2991 2616 2845 2648 
Q 2700 2681 2553 2681 
Q 2122 2681 1889 2404 
Q 1656 2128 1656 1613 
L 1656 0 
L 538 0 
L 538 3500 
L 1656 3500 
L 1656 2925 
Q 1872 3269 2151 3426 
Q 2431 3584 2822 3584 
Q 2878 3584 2943 3579 
Q 3009 3575 3134 3559 
L 3138 2547 
z
" transform="scale(0.015625)"/>
      <path id="DejaVuSans-Bold-4d" d="M 588 4666 
L 2119 4666 
L 3181 2169 
L 4250 4666 
L 5778 4666 
L 5778 0 
L 4641 0 
L 4641 3413 
L 3566 897 
L 2803 897 
L 1728 3413 
L 1728 0 
L 588 0 
L 588 4666 
z
" transform="scale(0.015625)"/>
      <path id="DejaVuSans-Bold-61" d="M 2106 1575 
Q 1756 1575 1579 1456 
Q 1403 1338 1403 1106 
Q 1403 894 1545 773 
Q 1688 653 1941 653 
Q 2256 653 2472 879 
Q 2688 1106 2688 1447 
L 2688 1575 
L 2106 1575 
z
M 3816 1997 
L 3816 0 
L 2688 0 
L 2688 519 
Q 2463 200 2181 54 
Q 1900 -91 1497 -91 
Q 953 -91 614 226 
Q 275 544 275 1050 
Q 275 1666 698 1953 
Q 1122 2241 2028 2241 
L 2688 2241 
L 2688 2328 
Q 2688 2594 2478 2717 
Q 2269 2841 1825 2841 
Q 1466 2841 1156 2769 
Q 847 2697 581 2553 
L 581 3406 
Q 941 3494 1303 3539 
Q 1666 3584 2028 3584 
Q 2975 3584 3395 3211 
Q 3816 2838 3816 1997 
z
" transform="scale(0.015625)"/>
      <path id="DejaVuSans-Bold-67" d="M 2919 594 
Q 2688 288 2409 144 
Q 2131 0 1766 0 
Q 1125 0 706 504 
Q 288 1009 288 1791 
Q 288 2575 706 3076 
Q 1125 3578 1766 3578 
Q 2131 3578 2409 3434 
Q 2688 3291 2919 2981 
L 2919 3500 
L 4044 3500 
L 4044 353 
Q 4044 -491 3511 -936 
Q 2978 -1381 1966 -1381 
Q 1638 -1381 1331 -1331 
Q 1025 -1281 716 -1178 
L 716 -306 
Q 1009 -475 1290 -558 
Q 1572 -641 1856 -641 
Q 2406 -641 2662 -400 
Q 2919 -159 2919 353 
L 2919 594 
z
M 2181 2772 
Q 1834 2772 1640 2515 
Q 1447 2259 1447 1791 
Q 1447 1309 1634 1061 
Q 1822 813 2181 813 
Q 2531 813 2725 1069 
Q 2919 1325 2919 1791 
Q 2919 2259 2725 2515 
Q 2531 2772 2181 2772 
z
" transform="scale(0.015625)"/>
      <path id="DejaVuSans-Bold-75" d="M 500 1363 
L 500 3500 
L 1625 3500 
L 1625 3150 
Q 1625 2866 1622 2436 
Q 1619 2006 1619 1863 
Q 1619 1441 1641 1255 
Q 1663 1069 1716 984 
Q 1784 875 1895 815 
Q 2006 756 2150 756 
Q 2500 756 2700 1025 
Q 2900 1294 2900 1772 
L 2900 3500 
L 4019 3500 
L 4019 0 
L 2900 0 
L 2900 506 
Q 2647 200 2364 54 
Q 2081 -91 1741 -91 
Q 1134 -91 817 281 
Q 500 653 500 1363 
z
" transform="scale(0.015625)"/>
      <path id="DejaVuSans-Bold-64" d="M 2919 2988 
L 2919 4863 
L 4044 4863 
L 4044 0 
L 2919 0 
L 2919 506 
Q 2688 197 2409 53 
Q 2131 -91 1766 -91 
Q 1119 -91 703 423 
Q 288 938 288 1747 
Q 288 2556 703 3070 
Q 1119 3584 1766 3584 
Q 2128 3584 2408 3439 
Q 2688 3294 2919 2988 
z
M 2181 722 
Q 2541 722 2730 984 
Q 2919 1247 2919 1747 
Q 2919 2247 2730 2509 
Q 2541 2772 2181 2772 
Q 1825 2772 1636 2509 
Q 1447 2247 1447 1747 
Q 1447 1247 1636 984 
Q 1825 722 2181 722 
z
" transform="scale(0.015625)"/>
      <path id="DejaVuSans-Bold-65" d="M 4031 1759 
L 4031 1441 
L 1416 1441 
Q 1456 1047 1700 850 
Q 1944 653 2381 653 
Q 2734 653 3104 758 
Q 3475 863 3866 1075 
L 3866 213 
Q 3469 63 3072 -14 
Q 2675 -91 2278 -91 
Q 1328 -91 801 392 
Q 275 875 275 1747 
Q 275 2603 792 3093 
Q 1309 3584 2216 3584 
Q 3041 3584 3536 3087 
Q 4031 2591 4031 1759 
z
M 2881 2131 
Q 2881 2450 2695 2645 
Q 2509 2841 2209 2841 
Q 1884 2841 1681 2658 
Q 1478 2475 1428 2131 
L 2881 2131 
z
" transform="scale(0.015625)"/>
      <path id="DejaVuSans-Bold-2014" d="M 344 2156 
L 6056 2156 
L 6056 1350 
L 344 1350 
L 344 2156 
z
" transform="scale(0.015625)"/>
      <path id="DejaVuSans-Bold-68" d="M 4056 2131 
L 4056 0 
L 2931 0 
L 2931 347 
L 2931 1625 
Q 2931 2084 2911 2256 
Q 2891 2428 2841 2509 
Q 2775 2619 2662 2680 
Q 2550 2741 2406 2741 
Q 2056 2741 1856 2470 
Q 1656 2200 1656 1722 
L 1656 0 
L 538 0 
L 538 4863 
L 1656 4863 
L 1656 2988 
Q 1909 3294 2193 3439 
Q 2478 3584 2822 3584 
Q 3428 3584 3742 3212 
Q 4056 2841 4056 2131 
z
" transform="scale(0.015625)"/>
      <path id="DejaVuSans-Bold-76" d="M 97 3500 
L 1216 3500 
L 2088 1081 
L 2956 3500 
L 4078 3500 
L 2700 0 
L 1472 0 
L 97 3500 
z
" transform="scale(0.015625)"/>
      <path id="DejaVuSans-Bold-78" d="M 1422 1791 
L 159 3500 
L 1344 3500 
L 2059 2463 
L 2784 3500 
L 3969 3500 
L 2706 1797 
L 4031 0 
L 2847 0 
L 2059 1106 
L 1281 0 
L 97 0 
L 1422 1791 
z
" transform="scale(0.015625)"/>
      <path id="DejaVuSans-Bold-63" d="M 3366 3391 
L 3366 2478 
Q 3138 2634 2908 2709 
Q 2678 2784 2431 2784 
Q 1963 2784 1702 2511 
Q 1441 2238 1441 1747 
Q 1441 1256 1702 982 
Q 1963 709 2431 709 
Q 2694 709 2930 787 
Q 3166 866 3366 1019 
L 3366 103 
Q 3103 6 2833 -42 
Q 2563 -91 2291 -91 
Q 1344 -91 809 395 
Q 275 881 275 1747 
Q 275 2613 809 3098 
Q 1344 3584 2291 3584 
Q 2566 3584 2833 3536 
Q 3100 3488 3366 3391 
z
" transform="scale(0.015625)"/>
     </defs>
     <use xlink:href="#DejaVuSans-Bold-50"/>
     <use xlink:href="#DejaVuSans-Bold-6f" transform="translate(73.291016 0)"/>
     <use xlink:href="#DejaVuSans-Bold-73" transform="translate(141.992188 0)"/>
     <use xlink:href="#DejaVuSans-Bold-69" transform="translate(201.513672 0)"/>
     <use xlink:href="#DejaVuSans-Bold-74" transform="translate(235.791016 0)"/>
     <use xlink:href="#DejaVuSans-Bold-69" transform="translate(283.59375 0)"/>
     <use xlink:href="#DejaVuSans-Bold-6f" transform="translate(317.871094 0)"/>
     <use xlink:href="#DejaVuSans-Bold-6e" transform="translate(386.572266 0)"/>
     <use xlink:href="#DejaVuSans-Bold-20" transform="translate(457.763672 0)"/>
     <use xlink:href="#DejaVuSans-Bold-45" transform="translate(492.578125 0)"/>
     <use xlink:href="#DejaVuSans-Bold-72" transform="translate(560.888672 0)"/>
     <use xlink:href="#DejaVuSans-Bold-72" transform="translate(610.205078 0)"/>
     <use xlink:href="#DejaVuSans-Bold-6f" transform="translate(659.521484 0)"/>
     <use xlink:href="#DejaVuSans-Bold-72" transform="translate(728.222656 0)"/>
     <use xlink:href="#DejaVuSans-Bold-20" transform="translate(777.539062 0)"/>
     <use xlink:href="#DejaVuSans-Bold-4d" transform="translate(812.353516 0)"/>
     <use xlink:href="#DejaVuSans-Bold-61" transform="translate(911.865234 0)"/>
     <use xlink:href="#DejaVuSans-Bold-67" transform="translate(979.345703 0)"/>
     <use xlink:href="#DejaVuSans-Bold-6e" transform="translate(1050.927734 0)"/>
     <use xlink:href="#DejaVuSans-Bold-69" transform="translate(1122.119141 0)"/>
     <use xlink:href="#DejaVuSans-Bold-74" transform="translate(1156.396484 0)"/>
     <use xlink:href="#DejaVuSans-Bold-75" transform="translate(1204.199219 0)"/>
     <use xlink:href="#DejaVuSans-Bold-64" transform="translate(1275.390625 0)"/>
     <use xlink:href="#DejaVuSans-Bold-65" transform="translate(1346.972656 0)"/>
     <use xlink:href="#DejaVuSans-Bold-20" transform="translate(1414.794922 0)"/>
     <use xlink:href="#DejaVuSans-Bold-2014" transform="translate(1449.609375 0)"/>
     <use xlink:href="#DejaVuSans-Bold-20" transform="translate(1549.609375 0)"/>
     <use xlink:href="#DejaVuSans-Bold-68" transform="translate(1584.423828 0)"/>
     <use xlink:href="#DejaVuSans-Bold-6f" transform="translate(1655.615234 0)"/>
     <use xlink:href="#DejaVuSans-Bold-76" transform="translate(1724.316406 0)"/>
     <use xlink:href="#DejaVuSans-Bold-65" transform="translate(1789.501953 0)"/>
     <use xlink:href="#DejaVuSans-Bold-72" transform="translate(1857.324219 0)"/>
     <use xlink:href="#DejaVuSans-Bold-20" transform="translate(1906.640625 0)"/>
     <use xlink:href="#DejaVuSans-Bold-65" transform="translate(1941.455078 0)"/>
     <use xlink:href="#DejaVuSans-Bold-78" transform="translate(2009.277344 0)"/>
     <use xlink:href="#DejaVuSans-Bold-63" transform="translate(2073.779297 0)"/>
     <use xlink:href="#DejaVuSans-Bold-69" transform="translate(2133.056641 0)"/>
     <use xlink:href="#DejaVuSans-Bold-74" transform="translate(2167.333984 0)"/>
     <use xlink:href="#DejaVuSans-Bold-61" transform="translate(2215.136719 0)"/>
     <use xlink:href="#DejaVuSans-Bold-74" transform="translate(2282.617188 0)"/>
     <use xlink:href="#DejaVuSans-Bold-69" transform="translate(2330.419922 0)"/>
     <use xlink:href="#DejaVuSans-Bold-6f" transform="translate(2364.697266 0)"/>
     <use xlink:href="#DejaVuSans-Bold-6e" transform="translate(2433.398438 0)"/>
    </g>
   </g>
   <g id="legend_1">
    <g id="patch_7">
     <path d="M 778.354688 78.914375 
L 846.2 78.914375 
Q 848.2 78.914375 848.2 76.914375 
L 848.2 33.88 
Q 848.2 31.88 846.2 31.88 
L 778.354688 31.88 
Q 776.354688 31.88 776.354688 33.88 
L 776.354688 76.914375 
Q 776.354688 78.914375 778.354688 78.914375 
z
" style="fill: #ffffff; opacity: 0.8; stroke: #cccccc; stroke-linejoin: miter"/>
    </g>
    <g id="line2d_28">
     <path d="M 780.354688 39.978437 
L 790.354688 39.978437 
L 800.354688 39.978437 
" style="fill: none; stroke: #888888; stroke-opacity: 0.6; stroke-linecap: square"/>
    </g>
    <g id="text_16">
     <!-- PID -->
     <g transform="translate(808.354688 43.478437) scale(0.1 -0.1)">
      <defs>
       <path id="DejaVuSans-50" d="M 1259 4147 
L 1259 2394 
L 2053 2394 
Q 2494 2394 2734 2622 
Q 2975 2850 2975 3272 
Q 2975 3691 2734 3919 
Q 2494 4147 2053 4147 
L 1259 4147 
z
M 628 4666 
L 2053 4666 
Q 2838 4666 3239 4311 
Q 3641 3956 3641 3272 
Q 3641 2581 3239 2228 
Q 2838 1875 2053 1875 
L 1259 1875 
L 1259 0 
L 628 0 
L 628 4666 
z
" transform="scale(0.015625)"/>
       <path id="DejaVuSans-49" d="M 628 4666 
L 1259 4666 
L 1259 0 
L 628 0 
L 628 4666 
z
" transform="scale(0.015625)"/>
       <path id="DejaVuSans-44" d="M 1259 4147 
L 1259 519 
L 2022 519 
Q 2988 519 3436 956 
Q 3884 1394 3884 2338 
Q 3884 3275 3436 3711 
Q 2988 4147 2022 4147 
L 1259 4147 
z
M 628 4666 
L 1925 4666 
Q 3281 4666 3915 4102 
Q 4550 3538 4550 2338 
Q 4550 1131 3912 565 
Q 3275 0 1925 0 
L 628 0 
L 628 4666 
z
" transform="scale(0.015625)"/>
      </defs>
      <use xlink:href="#DejaVuSans-50"/>
      <use xlink:href="#DejaVuSans-49" transform="translate(60.302734 0)"/>
      <use xlink:href="#DejaVuSans-44" transform="translate(89.794922 0)"/>
     </g>
    </g>
    <g id="line2d_29">
     <path d="M 780.354688 54.656563 
L 790.354688 54.656563 
L 800.354688 54.656563 
" style="fill: none; stroke: #2ca02c; stroke-width: 1.2; stroke-linecap: square"/>
    </g>
    <g id="text_17">
     <!-- EDMDc -->
     <g transform="translate(808.354688 58.156563) scale(0.1 -0.1)">
      <defs>
       <path id="DejaVuSans-45" d="M 628 4666 
L 3578 4666 
L 3578 4134 
L 1259 4134 
L 1259 2753 
L 3481 2753 
L 3481 2222 
L 1259 2222 
L 1259 531 
L 3634 531 
L 3634 0 
L 628 0 
L 628 4666 
z
" transform="scale(0.015625)"/>
       <path id="DejaVuSans-4d" d="M 628 4666 
L 1569 4666 
L 2759 1491 
L 3956 4666 
L 4897 4666 
L 4897 0 
L 4281 0 
L 4281 4097 
L 3078 897 
L 2444 897 
L 1241 4097 
L 1241 0 
L 628 0 
L 628 4666 
z
" transform="scale(0.015625)"/>
       <path id="DejaVuSans-63" d="M 3122 3366 
L 3122 2828 
Q 2878 2963 2633 3030 
Q 2388 3097 2138 3097 
Q 1578 3097 1268 2742 
Q 959 2388 959 1747 
Q 959 1106 1268 751 
Q 1578 397 2138 397 
Q 2388 397 2633 464 
Q 2878 531 3122 666 
L 3122 134 
Q 2881 22 2623 -34 
Q 2366 -91 2075 -91 
Q 1284 -91 818 406 
Q 353 903 353 1747 
Q 353 2603 823 3093 
Q 1294 3584 2113 3584 
Q 2378 3584 2631 3529 
Q 2884 3475 3122 3366 
z
" transform="scale(0.015625)"/>
      </defs>
      <use xlink:href="#DejaVuSans-45"/>
      <use xlink:href="#DejaVuSans-44" transform="translate(63.183594 0)"/>
      <use xlink:href="#DejaVuSans-4d" transform="translate(140.185547 0)"/>
      <use xlink:href="#DejaVuSans-44" transform="translate(226.464844 0)"/>
      <use xlink:href="#DejaVuSans-63" transform="translate(303.466797 0)"/>
     </g>
    </g>
    <g id="line2d_30">
     <path d="M 780.354688 69.334687 
L 790.354688 69.334687 
L 800.354688 69.334687 
" style="fill: none; stroke-dasharray: 3.7,1.6; stroke-dashoffset: 0; stroke: #1f77b4"/>
    </g>
    <g id="text_18">
     <!-- Linear -->
     <g transform="translate(808.354688 72.834687) scale(0.1 -0.1)">
      <defs>
       <path id="DejaVuSans-4c" d="M 628 4666 
L 1259 4666 
L 1259 531 
L 3531 531 
L 3531 0 
L 628 0 
L 628 4666 
z
" transform="scale(0.015625)"/>
       <path id="DejaVuSans-69" d="M 603 3500 
L 1178 3500 
L 1178 0 
L 603 0 
L 603 3500 
z
M 603 4863 
L 1178 4863 
L 1178 4134 
L 603 4134 
L 603 4863 
z
" transform="scale(0.015625)"/>
       <path id="DejaVuSans-6e" d="M 3513 2113 
L 3513 0 
L 2938 0 
L 2938 2094 
Q 2938 2591 2744 2837 
Q 2550 3084 2163 3084 
Q 1697 3084 1428 2787 
Q 1159 2491 1159 1978 
L 1159 0 
L 581 0 
L 581 3500 
L 1159 3500 
L 1159 2956 
Q 1366 3272 1645 3428 
Q 1925 3584 2291 3584 
Q 2894 3584 3203 3211 
Q 3513 2838 3513 2113 
z
" transform="scale(0.015625)"/>
       <path id="DejaVuSans-61" d="M 2194 1759 
Q 1497 1759 1228 1600 
Q 959 1441 959 1056 
Q 959 750 1161 570 
Q 1363 391 1709 391 
Q 2188 391 2477 730 
Q 2766 1069 2766 1631 
L 2766 1759 
L 2194 1759 
z
M 3341 1997 
L 3341 0 
L 2766 0 
L 2766 531 
Q 2569 213 2275 61 
Q 1981 -91 1556 -91 
Q 1019 -91 701 211 
Q 384 513 384 1019 
Q 384 1609 779 1909 
Q 1175 2209 1959 2209 
L 2766 2209 
L 2766 2266 
Q 2766 2663 2505 2880 
Q 2244 3097 1772 3097 
Q 1472 3097 1187 3025 
Q 903 2953 641 2809 
L 641 3341 
Q 956 3463 1253 3523 
Q 1550 3584 1831 3584 
Q 2591 3584 2966 3190 
Q 3341 2797 3341 1997 
z
" transform="scale(0.015625)"/>
      </defs>
      <use xlink:href="#DejaVuSans-4c"/>
      <use xlink:href="#DejaVuSans-69" transform="translate(55.712891 0)"/>
      <use xlink:href="#DejaVuSans-6e" transform="translate(83.496094 0)"/>
      <use xlink:href="#DejaVuSans-65" transform="translate(146.875 0)"/>
      <use xlink:href="#DejaVuSans-61" transform="translate(208.398438 0)"/>
      <use xlink:href="#DejaVuSans-72" transform="translate(269.677734 0)"/>
     </g>
    </g>
   </g>
  </g>
 </g>
 <defs>
  <clipPath id="p5ab6ae4d4e">
   <rect x="54.38" y="26.88" width="798.82" height="291.16"/>
  </clipPath>
 </defs>
</svg>
