<?xml version="1.0" encoding="utf-8" standalone="no"?>
<!DOCTYPE svg PUBLIC "-//W3C//DTD SVG 1.1//EN"
  "http://www.w3.org/Graphics/SVG/1.1/DTD/svg11.dtd">
<svg xmlns:xlink="http://www.w3.org/1999/xlink" width="864pt" height="360pt" viewBox="0 0 864 360" xmlns="http://www.w3.org/2000/svg" version="1.1">
 <metadata>
  <rdf:RDF xmlns:dc="http://purl.org/dc/elements/1.1/" xmlns:cc="http://creativecommons.org/ns#" xmlns:rdf="http://www.w3.org/1999/02/22-rdf-syntax-ns#">
   <cc:Work>
    <dc:type rdf:resource="http://purl.org/dc/dcmitype/StillImage"/>
    <dc:date>2026-03-30T18:21:45.860470</dc:date>
    <dc:format>image/svg+xml</dc:format>
    <dc:creator>
     <cc:Agent>
      <dc:title>Matplotlib v3.10.8, https://matplotlib.org/</dc:title>
     </cc:Agent>
    </dc:creator>
   </cc:Work>
  </rdf:RDF>
 </metadata>
 <defs>
  <style type="text/css">*{stroke-linejoin: round; stroke-linecap: butt}</style>
 </defs>
 <g id="figure_1">
  <g id="patch_1">
   <path d="M 0 360 
L 864 360 
L 864 0 
L 0 0 
z
" style="fill: #ffffff"/>
  </g>
  <g id="axes_1">
   <g id="patch_2">
    <path d="M 48.08 318.04 
L 853.2 318.04 
L 853.2 26.88 
L 48.08 26.88 
z
" style="fill: #ffffff"/>
   </g>
   <g id="matplotlib.axis_1">
    <g id="xtick_1">
     <g id="line2d_1">
      <path d="M 84.676364 318.04 
L 84.676364 26.88 
" clip-path="url(#p1b9c5d7c3b)" style="fill: none; stroke: #b0b0b0; stroke-opacity: 0.3; stroke-width: 0.8; stroke-linecap: square"/>
     </g>
     <g id="line2d_2">
      <defs>
       <path id="m41c764b065" d="M 0 0 
L 0 3.5 
" style="stroke: #000000; stroke-width: 0.8"/>
      </defs>
      <g>
       <use xlink:href="#m41c764b065" x="84.676364" y="318.04" style="stroke: #000000; stroke-width: 0.8"/>
      </g>
     </g>
     <g id="text_1">
      <!-- 0 -->
      <g transform="translate(81.495114 332.638438) scale(0.1 -0.1)">
       <defs>
        <path id="DejaVuSans-30" d="M 2034 4250 
Q 1547 4250 1301 3770 
Q 1056 3291 1056 2328 
Q 1056 1369 1301 889 
Q 1547 409 2034 409 
Q 2525 409 2770 889 
Q 3016 1369 3016 2328 
Q 3016 3291 2770 3770 
Q 2525 4250 2034 4250 
z
M 2034 4750 
Q 2819 4750 3233 4129 
Q 3647 3509 3647 2328 
Q 3647 1150 3233 529 
Q 2819 -91 2034 -91 
Q 1250 -91 836 529 
Q 422 1150 422 2328 
Q 422 3509 836 4129 
Q 1250 4750 2034 4750 
z
" transform="scale(0.015625)"/>
       </defs>
       <use xlink:href="#DejaVuSans-30"/>
      </g>
     </g>
    </g>
    <g id="xtick_2">
     <g id="line2d_3">
      <path d="M 231.20835 318.04 
L 231.20835 26.88 
" clip-path="url(#p1b9c5d7c3b)" style="fill: none; stroke: #b0b0b0; stroke-opacity: 0.3; stroke-width: 0.8; stroke-linecap: square"/>
     </g>
     <g id="line2d_4">
      <g>
       <use xlink:href="#m41c764b065" x="231.20835" y="318.04" style="stroke: #000000; stroke-width: 0.8"/>
      </g>
     </g>
     <g id="text_2">
      <!-- 20 -->
      <g transform="translate(224.84585 332.638438) scale(0.1 -0.1)">
       <defs>
        <path id="DejaVuSans-32" d="M 1228 531 
L 3431 531 
L 3431 0 
L 469 0 
L 469 531 
Q 828 903 1448 1529 
Q 2069 2156 2228 2338 
Q 2531 2678 2651 2914 
Q 2772 3150 2772 3378 
Q 2772 3750 2511 3984 
Q 2250 4219 1831 4219 
Q 1534 4219 1204 4116 
Q 875 4013 500 3803 
L 500 4441 
Q 881 4594 1212 4672 
Q 1544 4750 1819 4750 
Q 2544 4750 2975 4387 
Q 3406 4025 3406 3419 
Q 3406 3131 3298 2873 
Q 3191 2616 2906 2266 
Q 2828 2175 2409 1742 
Q 1991 1309 1228 531 
z
" transform="scale(0.015625)"/>
       </defs>
       <use xlink:href="#DejaVuSans-32"/>
       <use xlink:href="#DejaVuSans-30" transform="translate(63.623047 0)"/>
      </g>
     </g>
    </g>
    <g id="xtick_3">
     <g id="line2d_5">
      <path d="M 377.740337 318.04 
L 377.740337 26.88 
" clip-path="url(#p1b9c5d7c3b)" style="fill: none; stroke: #b0b0b0; stroke-opacity: 0.3; stroke-width: 0.8; stroke-linecap: square"/>
     </g>
     <g id="line2d_6">
      <g>
       <use xlink:href="#m41c764b065" x="377.740337" y="318.04" style="stroke: #000000; stroke-width: 0.8"/>
      </g>
     </g>
     <g id="text_3">
      <!-- 40 -->
      <g transform="translate(371.377837 332.638438) scale(0.1 -0.1)">
       <defs>
        <path id="DejaVuSans-34" d="M 2419 4116 
L 825 1625 
L 2419 1625 
L 2419 4116 
z
M 2253 4666 
L 3047 4666 
L 3047 1625 
L 3713 1625 
L 3713 1100 
L 3047 1100 
L 3047 0 
L 2419 0 
L 2419 1100 
L 313 1100 
L 313 1709 
L 2253 4666 
z
" transform="scale(0.015625)"/>
       </defs>
       <use xlink:href="#DejaVuSans-34"/>
       <use xlink:href="#DejaVuSans-30" transform="translate(63.623047 0)"/>
      </g>
     </g>
    </g>
    <g id="xtick_4">
     <g id="line2d_7">
      <path d="M 524.272323 318.04 
L 524.272323 26.88 
" clip-path="url(#p1b9c5d7c3b)" style="fill: none; stroke: #b0b0b0; stroke-opacity: 0.3; stroke-width: 0.8; stroke-linecap: square"/>
     </g>
     <g id="line2d_8">
      <g>
       <use xlink:href="#m41c764b065" x="524.272323" y="318.04" style="stroke: #000000; stroke-width: 0.8"/>
      </g>
     </g>
     <g id="text_4">
      <!-- 60 -->
      <g transform="translate(517.909823 332.638438) scale(0.1 -0.1)">
       <defs>
        <path id="DejaVuSans-36" d="M 2113 2584 
Q 1688 2584 1439 2293 
Q 1191 2003 1191 1497 
Q 1191 994 1439 701 
Q 1688 409 2113 409 
Q 2538 409 2786 701 
Q 3034 994 3034 1497 
Q 3034 2003 2786 2293 
Q 2538 2584 2113 2584 
z
M 3366 4563 
L 3366 3988 
Q 3128 4100 2886 4159 
Q 2644 4219 2406 4219 
Q 1781 4219 1451 3797 
Q 1122 3375 1075 2522 
Q 1259 2794 1537 2939 
Q 1816 3084 2150 3084 
Q 2853 3084 3261 2657 
Q 3669 2231 3669 1497 
Q 3669 778 3244 343 
Q 2819 -91 2113 -91 
Q 1303 -91 875 529 
Q 447 1150 447 2328 
Q 447 3434 972 4092 
Q 1497 4750 2381 4750 
Q 2619 4750 2861 4703 
Q 3103 4656 3366 4563 
z
" transform="scale(0.015625)"/>
       </defs>
       <use xlink:href="#DejaVuSans-36"/>
       <use xlink:href="#DejaVuSans-30" transform="translate(63.623047 0)"/>
      </g>
     </g>
    </g>
    <g id="xtick_5">
     <g id="line2d_9">
      <path d="M 670.80431 318.04 
L 670.80431 26.88 
" clip-path="url(#p1b9c5d7c3b)" style="fill: none; stroke: #b0b0b0; stroke-opacity: 0.3; stroke-width: 0.8; stroke-linecap: square"/>
     </g>
     <g id="line2d_10">
      <g>
       <use xlink:href="#m41c764b065" x="670.80431" y="318.04" style="stroke: #000000; stroke-width: 0.8"/>
      </g>
     </g>
     <g id="text_5">
      <!-- 80 -->
      <g transform="translate(664.44181 332.638438) scale(0.1 -0.1)">
       <defs>
        <path id="DejaVuSans-38" d="M 2034 2216 
Q 1584 2216 1326 1975 
Q 1069 1734 1069 1313 
Q 1069 891 1326 650 
Q 1584 409 2034 409 
Q 2484 409 2743 651 
Q 3003 894 3003 1313 
Q 3003 1734 2745 1975 
Q 2488 2216 2034 2216 
z
M 1403 2484 
Q 997 2584 770 2862 
Q 544 3141 544 3541 
Q 544 4100 942 4425 
Q 1341 4750 2034 4750 
Q 2731 4750 3128 4425 
Q 3525 4100 3525 3541 
Q 3525 3141 3298 2862 
Q 3072 2584 2669 2484 
Q 3125 2378 3379 2068 
Q 3634 1759 3634 1313 
Q 3634 634 3220 271 
Q 2806 -91 2034 -91 
Q 1263 -91 848 271 
Q 434 634 434 1313 
Q 434 1759 690 2068 
Q 947 2378 1403 2484 
z
M 1172 3481 
Q 1172 3119 1398 2916 
Q 1625 2713 2034 2713 
Q 2441 2713 2670 2916 
Q 2900 3119 2900 3481 
Q 2900 3844 2670 4047 
Q 2441 4250 2034 4250 
Q 1625 4250 1398 4047 
Q 1172 3844 1172 3481 
z
" transform="scale(0.015625)"/>
       </defs>
       <use xlink:href="#DejaVuSans-38"/>
       <use xlink:href="#DejaVuSans-30" transform="translate(63.623047 0)"/>
      </g>
     </g>
    </g>
    <g id="xtick_6">
     <g id="line2d_11">
      <path d="M 817.336296 318.04 
L 817.336296 26.88 
" clip-path="url(#p1b9c5d7c3b)" style="fill: none; stroke: #b0b0b0; stroke-opacity: 0.3; stroke-width: 0.8; stroke-linecap: square"/>
     </g>
     <g id="line2d_12">
      <g>
       <use xlink:href="#m41c764b065" x="817.336296" y="318.04" style="stroke: #000000; stroke-width: 0.8"/>
      </g>
     </g>
     <g id="text_6">
      <!-- 100 -->
      <g transform="translate(807.792546 332.638438) scale(0.1 -0.1)">
       <defs>
        <path id="DejaVuSans-31" d="M 794 531 
L 1825 531 
L 1825 4091 
L 703 3866 
L 703 4441 
L 1819 4666 
L 2450 4666 
L 2450 531 
L 3481 531 
L 3481 0 
L 794 0 
L 794 531 
z
" transform="scale(0.015625)"/>
       </defs>
       <use xlink:href="#DejaVuSans-31"/>
       <use xlink:href="#DejaVuSans-30" transform="translate(63.623047 0)"/>
       <use xlink:href="#DejaVuSans-30" transform="translate(127.246094 0)"/>
      </g>
     </g>
    </g>
    <g id="text_7">
     <!-- t [s] -->
     <g transform="translate(440.584531 346.316563) scale(0.1 -0.1)">
      <defs>
       <path id="DejaVuSans-74" d="M 1172 4494 
L 1172 3500 
L 2356 3500 
L 2356 3053 
L 1172 3053 
L 1172 1153 
Q 1172 725 1289 603 
Q 1406 481 1766 481 
L 2356 481 
L 2356 0 
L 1766 0 
Q 1100 0 847 248 
Q 594 497 594 1153 
L 594 3053 
L 172 3053 
L 172 3500 
L 594 3500 
L 594 4494 
L 1172 4494 
z
" transform="scale(0.015625)"/>
       <path id="DejaVuSans-20" transform="scale(0.015625)"/>
       <path id="DejaVuSans-5b" d="M 550 4863 
L 1875 4863 
L 1875 4416 
L 1125 4416 
L 1125 -397 
L 1875 -397 
L 1875 -844 
L 550 -844 
L 550 4863 
z
" transform="scale(0.015625)"/>
       <path id="DejaVuSans-73" d="M 2834 3397 
L 2834 2853 
Q 2591 2978 2328 3040 
Q 2066 3103 1784 3103 
Q 1356 3103 1142 2972 
Q 928 2841 928 2578 
Q 928 2378 1081 2264 
Q 1234 2150 1697 2047 
L 1894 2003 
Q 2506 1872 2764 1633 
Q 3022 1394 3022 966 
Q 3022 478 2636 193 
Q 2250 -91 1575 -91 
Q 1294 -91 989 -36 
Q 684 19 347 128 
L 347 722 
Q 666 556 975 473 
Q 1284 391 1588 391 
Q 1994 391 2212 530 
Q 2431 669 2431 922 
Q 2431 1156 2273 1281 
Q 2116 1406 1581 1522 
L 1381 1569 
Q 847 1681 609 1914 
Q 372 2147 372 2553 
Q 372 3047 722 3315 
Q 1072 3584 1716 3584 
Q 2034 3584 2315 3537 
Q 2597 3491 2834 3397 
z
" transform="scale(0.015625)"/>
       <path id="DejaVuSans-5d" d="M 1947 4863 
L 1947 -844 
L 622 -844 
L 622 -397 
L 1369 -397 
L 1369 4416 
L 622 4416 
L 622 4863 
L 1947 4863 
z
" transform="scale(0.015625)"/>
      </defs>
      <use xlink:href="#DejaVuSans-74"/>
      <use xlink:href="#DejaVuSans-20" transform="translate(39.208984 0)"/>
      <use xlink:href="#DejaVuSans-5b" transform="translate(70.996094 0)"/>
      <use xlink:href="#DejaVuSans-73" transform="translate(110.009766 0)"/>
      <use xlink:href="#DejaVuSans-5d" transform="translate(162.109375 0)"/>
     </g>
    </g>
   </g>
   <g id="matplotlib.axis_2">
    <g id="ytick_1">
     <g id="line2d_13">
      <path d="M 48.08 304.805455 
L 853.2 304.805455 
" clip-path="url(#p1b9c5d7c3b)" style="fill: none; stroke: #b0b0b0; stroke-opacity: 0.3; stroke-width: 0.8; stroke-linecap: square"/>
     </g>
     <g id="line2d_14">
      <defs>
       <path id="m0d672874b9" d="M 0 0 
L -3.5 0 
" style="stroke: #000000; stroke-width: 0.8"/>
      </defs>
      <g>
       <use xlink:href="#m0d672874b9" x="48.08" y="304.805455" style="stroke: #000000; stroke-width: 0.8"/>
      </g>
     </g>
     <g id="text_8">
      <!-- 0.0 -->
      <g transform="translate(25.176875 308.604673) scale(0.1 -0.1)">
       <defs>
        <path id="DejaVuSans-2e" d="M 684 794 
L 1344 794 
L 1344 0 
L 684 0 
L 684 794 
z
" transform="scale(0.015625)"/>
       </defs>
       <use xlink:href="#DejaVuSans-30"/>
       <use xlink:href="#DejaVuSans-2e" transform="translate(63.623047 0)"/>
       <use xlink:href="#DejaVuSans-30" transform="translate(95.410156 0)"/>
      </g>
     </g>
    </g>
    <g id="ytick_2">
     <g id="line2d_15">
      <path d="M 48.08 249.783557 
L 853.2 249.783557 
" clip-path="url(#p1b9c5d7c3b)" style="fill: none; stroke: #b0b0b0; stroke-opacity: 0.3; stroke-width: 0.8; stroke-linecap: square"/>
     </g>
     <g id="line2d_16">
      <g>
       <use xlink:href="#m0d672874b9" x="48.08" y="249.783557" style="stroke: #000000; stroke-width: 0.8"/>
      </g>
     </g>
     <g id="text_9">
      <!-- 0.2 -->
      <g transform="translate(25.176875 253.582776) scale(0.1 -0.1)">
       <use xlink:href="#DejaVuSans-30"/>
       <use xlink:href="#DejaVuSans-2e" transform="translate(63.623047 0)"/>
       <use xlink:href="#DejaVuSans-32" transform="translate(95.410156 0)"/>
      </g>
     </g>
    </g>
    <g id="ytick_3">
     <g id="line2d_17">
      <path d="M 48.08 194.76166 
L 853.2 194.76166 
" clip-path="url(#p1b9c5d7c3b)" style="fill: none; stroke: #b0b0b0; stroke-opacity: 0.3; stroke-width: 0.8; stroke-linecap: square"/>
     </g>
     <g id="line2d_18">
      <g>
       <use xlink:href="#m0d672874b9" x="48.08" y="194.76166" style="stroke: #000000; stroke-width: 0.8"/>
      </g>
     </g>
     <g id="text_10">
      <!-- 0.4 -->
      <g transform="translate(25.176875 198.560879) scale(0.1 -0.1)">
       <use xlink:href="#DejaVuSans-30"/>
       <use xlink:href="#DejaVuSans-2e" transform="translate(63.623047 0)"/>
       <use xlink:href="#DejaVuSans-34" transform="translate(95.410156 0)"/>
      </g>
     </g>
    </g>
    <g id="ytick_4">
     <g id="line2d_19">
      <path d="M 48.08 139.739763 
L 853.2 139.739763 
" clip-path="url(#p1b9c5d7c3b)" style="fill: none; stroke: #b0b0b0; stroke-opacity: 0.3; stroke-width: 0.8; stroke-linecap: square"/>
     </g>
     <g id="line2d_20">
      <g>
       <use xlink:href="#m0d672874b9" x="48.08" y="139.739763" style="stroke: #000000; stroke-width: 0.8"/>
      </g>
     </g>
     <g id="text_11">
      <!-- 0.6 -->
      <g transform="translate(25.176875 143.538982) scale(0.1 -0.1)">
       <use xlink:href="#DejaVuSans-30"/>
       <use xlink:href="#DejaVuSans-2e" transform="translate(63.623047 0)"/>
       <use xlink:href="#DejaVuSans-36" transform="translate(95.410156 0)"/>
      </g>
     </g>
    </g>
    <g id="ytick_5">
     <g id="line2d_21">
      <path d="M 48.08 84.717866 
L 853.2 84.717866 
" clip-path="url(#p1b9c5d7c3b)" style="fill: none; stroke: #b0b0b0; stroke-opacity: 0.3; stroke-width: 0.8; stroke-linecap: square"/>
     </g>
     <g id="line2d_22">
      <g>
       <use xlink:href="#m0d672874b9" x="48.08" y="84.717866" style="stroke: #000000; stroke-width: 0.8"/>
      </g>
     </g>
     <g id="text_12">
      <!-- 0.8 -->
      <g transform="translate(25.176875 88.517085) scale(0.1 -0.1)">
       <use xlink:href="#DejaVuSans-30"/>
       <use xlink:href="#DejaVuSans-2e" transform="translate(63.623047 0)"/>
       <use xlink:href="#DejaVuSans-38" transform="translate(95.410156 0)"/>
      </g>
     </g>
    </g>
    <g id="ytick_6">
     <g id="line2d_23">
      <path d="M 48.08 29.695969 
L 853.2 29.695969 
" clip-path="url(#p1b9c5d7c3b)" style="fill: none; stroke: #b0b0b0; stroke-opacity: 0.3; stroke-width: 0.8; stroke-linecap: square"/>
     </g>
     <g id="line2d_24">
      <g>
       <use xlink:href="#m0d672874b9" x="48.08" y="29.695969" style="stroke: #000000; stroke-width: 0.8"/>
      </g>
     </g>
     <g id="text_13">
      <!-- 1.0 -->
      <g transform="translate(25.176875 33.495188) scale(0.1 -0.1)">
       <use xlink:href="#DejaVuSans-31"/>
       <use xlink:href="#DejaVuSans-2e" transform="translate(63.623047 0)"/>
       <use xlink:href="#DejaVuSans-30" transform="translate(95.410156 0)"/>
      </g>
     </g>
    </g>
    <g id="text_14">
     <!-- ||pos error|| [m] -->
     <g transform="translate(18.819062 212.088125) rotate(-90) scale(0.1 -0.1)">
      <defs>
       <path id="DejaVuSans-7c" d="M 1344 4891 
L 1344 -1509 
L 813 -1509 
L 813 4891 
L 1344 4891 
z
" transform="scale(0.015625)"/>
       <path id="DejaVuSans-70" d="M 1159 525 
L 1159 -1331 
L 581 -1331 
L 581 3500 
L 1159 3500 
L 1159 2969 
Q 1341 3281 1617 3432 
Q 1894 3584 2278 3584 
Q 2916 3584 3314 3078 
Q 3713 2572 3713 1747 
Q 3713 922 3314 415 
Q 2916 -91 2278 -91 
Q 1894 -91 1617 61 
Q 1341 213 1159 525 
z
M 3116 1747 
Q 3116 2381 2855 2742 
Q 2594 3103 2138 3103 
Q 1681 3103 1420 2742 
Q 1159 2381 1159 1747 
Q 1159 1113 1420 752 
Q 1681 391 2138 391 
Q 2594 391 2855 752 
Q 3116 1113 3116 1747 
z
" transform="scale(0.015625)"/>
       <path id="DejaVuSans-6f" d="M 1959 3097 
Q 1497 3097 1228 2736 
Q 959 2375 959 1747 
Q 959 1119 1226 758 
Q 1494 397 1959 397 
Q 2419 397 2687 759 
Q 2956 1122 2956 1747 
Q 2956 2369 2687 2733 
Q 2419 3097 1959 3097 
z
M 1959 3584 
Q 2709 3584 3137 3096 
Q 3566 2609 3566 1747 
Q 3566 888 3137 398 
Q 2709 -91 1959 -91 
Q 1206 -91 779 398 
Q 353 888 353 1747 
Q 353 2609 779 3096 
Q 1206 3584 1959 3584 
z
" transform="scale(0.015625)"/>
       <path id="DejaVuSans-65" d="M 3597 1894 
L 3597 1613 
L 953 1613 
Q 991 1019 1311 708 
Q 1631 397 2203 397 
Q 2534 397 2845 478 
Q 3156 559 3463 722 
L 3463 178 
Q 3153 47 2828 -22 
Q 2503 -91 2169 -91 
Q 1331 -91 842 396 
Q 353 884 353 1716 
Q 353 2575 817 3079 
Q 1281 3584 2069 3584 
Q 2775 3584 3186 3129 
Q 3597 2675 3597 1894 
z
M 3022 2063 
Q 3016 2534 2758 2815 
Q 2500 3097 2075 3097 
Q 1594 3097 1305 2825 
Q 1016 2553 972 2059 
L 3022 2063 
z
" transform="scale(0.015625)"/>
       <path id="DejaVuSans-72" d="M 2631 2963 
Q 2534 3019 2420 3045 
Q 2306 3072 2169 3072 
Q 1681 3072 1420 2755 
Q 1159 2438 1159 1844 
L 1159 0 
L 581 0 
L 581 3500 
L 1159 3500 
L 1159 2956 
Q 1341 3275 1631 3429 
Q 1922 3584 2338 3584 
Q 2397 3584 2469 3576 
Q 2541 3569 2628 3553 
L 2631 2963 
z
" transform="scale(0.015625)"/>
       <path id="DejaVuSans-6d" d="M 3328 2828 
Q 3544 3216 3844 3400 
Q 4144 3584 4550 3584 
Q 5097 3584 5394 3201 
Q 5691 2819 5691 2113 
L 5691 0 
L 5113 0 
L 5113 2094 
Q 5113 2597 4934 2840 
Q 4756 3084 4391 3084 
Q 3944 3084 3684 2787 
Q 3425 2491 3425 1978 
L 3425 0 
L 2847 0 
L 2847 2094 
Q 2847 2600 2669 2842 
Q 2491 3084 2119 3084 
Q 1678 3084 1418 2786 
Q 1159 2488 1159 1978 
L 1159 0 
L 581 0 
L 581 3500 
L 1159 3500 
L 1159 2956 
Q 1356 3278 1631 3431 
Q 1906 3584 2284 3584 
Q 2666 3584 2933 3390 
Q 3200 3197 3328 2828 
z
" transform="scale(0.015625)"/>
      </defs>
      <use xlink:href="#DejaVuSans-7c"/>
      <use xlink:href="#DejaVuSans-7c" transform="translate(33.691406 0)"/>
      <use xlink:href="#DejaVuSans-70" transform="translate(67.382812 0)"/>
      <use xlink:href="#DejaVuSans-6f" transform="translate(130.859375 0)"/>
      <use xlink:href="#DejaVuSans-73" transform="translate(192.041016 0)"/>
      <use xlink:href="#DejaVuSans-20" transform="translate(244.140625 0)"/>
      <use xlink:href="#DejaVuSans-65" transform="translate(275.927734 0)"/>
      <use xlink:href="#DejaVuSans-72" transform="translate(337.451172 0)"/>
      <use xlink:href="#DejaVuSans-72" transform="translate(376.814453 0)"/>
      <use xlink:href="#DejaVuSans-6f" transform="translate(415.677734 0)"/>
      <use xlink:href="#DejaVuSans-72" transform="translate(476.859375 0)"/>
      <use xlink:href="#DejaVuSans-7c" transform="translate(517.972656 0)"/>
      <use xlink:href="#DejaVuSans-7c" transform="translate(551.664062 0)"/>
      <use xlink:href="#DejaVuSans-20" transform="translate(585.355469 0)"/>
      <use xlink:href="#DejaVuSans-5b" transform="translate(617.142578 0)"/>
      <use xlink:href="#DejaVuSans-6d" transform="translate(656.15625 0)"/>
      <use xlink:href="#DejaVuSans-5d" transform="translate(753.568359 0)"/>
     </g>
    </g>
   </g>
   <g id="line2d_25">
    <path d="M 84.676364 304.805455 
L 86.141684 167.902536 
L 86.874343 115.550321 
L 87.607003 76.712566 
L 88.339663 51.970894 
L 89.072323 40.593158 
L 89.804983 40.114545 
L 90.537643 46.384771 
L 92.002963 66.298698 
L 92.735623 79.22397 
L 93.468283 95.274705 
L 95.666263 149.176644 
L 97.131582 179.213434 
L 98.596902 204.352096 
L 100.062222 224.930479 
L 101.527542 241.175868 
L 102.992862 253.332648 
L 103.725522 257.953202 
L 104.458182 261.607438 
L 105.190842 264.268328 
L 105.923502 266.019334 
L 106.656162 267.054437 
L 107.388822 267.555297 
L 108.121481 267.640661 
L 108.854141 267.37006 
L 110.319461 266.169535 
L 113.250101 263.453583 
L 114.715421 262.373222 
L 116.180741 261.633481 
L 117.646061 261.276523 
L 119.11138 261.239174 
L 120.5767 261.483846 
L 122.04202 261.948641 
L 124.24 262.917878 
L 125.70532 263.744226 
L 127.9033 265.306083 
L 130.833939 267.799657 
L 135.229899 271.535214 
L 137.427879 273.264499 
L 140.358519 275.210921 
L 141.823838 276.031776 
L 143.289158 276.616226 
L 145.487138 277.118045 
L 147.685118 277.659104 
L 152.081077 278.927906 
L 154.279057 279.350994 
L 156.477037 279.513276 
L 157.942357 279.50711 
L 162.338316 279.20196 
L 165.268956 279.026408 
L 168.932256 278.709643 
L 174.060875 278.984442 
L 176.991515 279.0607 
L 179.189495 279.004727 
L 181.387475 278.722882 
L 185.050774 278.222242 
L 190.912054 278.06283 
L 196.040673 278.817068 
L 200.436633 279.157879 
L 203.367273 279.785746 
L 207.030572 280.16964 
L 210.693872 280.856318 
L 214.357172 281.053854 
L 218.020471 281.065525 
L 222.416431 281.729156 
L 224.614411 281.804742 
L 228.27771 281.937633 
L 231.20835 281.662514 
L 232.67367 281.893774 
L 234.87165 282.598953 
L 236.33697 283.055343 
L 237.80229 283.301103 
L 239.267609 283.22582 
L 241.465589 282.934262 
L 243.663569 282.955931 
L 249.524848 283.276558 
L 250.990168 283.120339 
L 253.188148 282.599133 
L 256.851448 281.625183 
L 262.712727 280.178207 
L 264.910707 279.90546 
L 266.376027 279.931385 
L 268.574007 280.280492 
L 272.969966 281.272316 
L 275.167946 282.121235 
L 280.296566 284.226298 
L 281.761886 284.67709 
L 283.959865 285.299429 
L 286.157845 286.289368 
L 288.355825 287.305226 
L 289.821145 287.707937 
L 291.286465 287.732356 
L 292.751785 287.461453 
L 298.613064 285.818467 
L 303.741684 285.272821 
L 305.207003 285.43672 
L 308.137643 285.869145 
L 311.068283 285.810927 
L 312.533603 285.612577 
L 315.464242 284.997074 
L 319.860202 284.329716 
L 322.058182 283.520983 
L 330.117441 280.336837 
L 331.582761 279.786876 
L 332.315421 279.611556 
L 333.780741 279.548665 
L 336.71138 279.653038 
L 338.90936 279.955833 
L 341.84 280.454749 
L 343.30532 280.417475 
L 345.5033 280.325971 
L 348.433939 280.417743 
L 349.899259 280.225746 
L 351.364579 280.066327 
L 352.829899 280.272845 
L 356.493199 281.178301 
L 357.958519 281.19507 
L 360.889158 280.766928 
L 363.087138 280.555954 
L 366.017778 280.430997 
L 368.948418 280.288797 
L 373.344377 279.937736 
L 375.542357 279.705383 
L 378.472997 279.14567 
L 381.403636 278.46856 
L 384.334276 278.090752 
L 385.799596 278.058124 
L 390.928215 278.82075 
L 393.858855 279.252335 
L 396.056835 279.597095 
L 397.522155 280.015283 
L 399.720135 280.899097 
L 402.650774 282.065061 
L 406.314074 283.35523 
L 409.244714 284.231349 
L 413.640673 286.096444 
L 415.105993 286.405387 
L 417.303973 286.570602 
L 419.501953 286.832355 
L 421.699933 287.395992 
L 426.095892 288.680617 
L 429.759192 289.460512 
L 434.887811 291.566127 
L 437.085791 292.089859 
L 440.016431 292.471303 
L 445.87771 292.943482 
L 450.27367 293.344848 
L 453.20431 293.831611 
L 455.40229 294.403302 
L 457.600269 295.2097 
L 461.996229 297.126711 
L 464.194209 297.529162 
L 473.718788 298.732438 
L 475.184108 298.63175 
L 477.382088 298.397734 
L 479.580067 298.460967 
L 482.510707 298.621709 
L 484.708687 298.392557 
L 487.639327 297.746934 
L 489.104646 297.249091 
L 500.827205 292.181104 
L 505.223165 290.791486 
L 506.688485 290.652006 
L 508.886465 290.821157 
L 510.351785 290.924555 
L 511.817104 290.825813 
L 516.945724 290.175536 
L 519.876364 289.660821 
L 522.074343 289.147936 
L 525.737643 288.101739 
L 535.262222 285.375899 
L 537.460202 284.878679 
L 545.519461 282.73754 
L 546.984781 282.727343 
L 550.648081 282.937035 
L 555.7767 282.766666 
L 560.17266 282.329416 
L 563.1033 282.141361 
L 572.627879 280.444996 
L 575.558519 280.191912 
L 580.687138 279.54831 
L 585.815758 279.301266 
L 590.944377 279.811824 
L 593.142357 280.149625 
L 594.607677 280.234063 
L 596.072997 280.119493 
L 599.003636 279.750813 
L 603.399596 279.523911 
L 604.864916 279.482286 
L 606.330236 279.649007 
L 610.726195 280.374186 
L 612.924175 280.434595 
L 615.122155 280.227145 
L 618.785455 279.672574 
L 620.250774 279.760369 
L 624.646734 280.473647 
L 630.508013 281.997986 
L 634.903973 283.287296 
L 639.299933 284.37478 
L 643.695892 285.02289 
L 646.626532 285.291128 
L 650.289832 285.811963 
L 652.487811 285.742058 
L 658.349091 285.080797 
L 664.21037 284.094478 
L 666.40835 283.718499 
L 667.87367 283.633044 
L 671.53697 283.614538 
L 683.259529 281.958333 
L 685.457508 281.379279 
L 689.120808 280.299915 
L 691.318788 279.912236 
L 692.784108 279.837752 
L 694.249428 280.062137 
L 697.912727 280.95121 
L 700.843367 280.986539 
L 706.704646 280.337874 
L 711.100606 279.814485 
L 712.565926 279.646824 
L 714.763906 279.767133 
L 722.823165 280.390965 
L 725.021145 280.508332 
L 727.951785 280.783442 
L 730.149764 280.72743 
L 732.347744 280.800157 
L 738.941684 280.765056 
L 742.604983 281.359168 
L 745.535623 281.311292 
L 747.733603 281.127729 
L 749.198923 281.286853 
L 751.396902 281.915093 
L 753.594882 282.523459 
L 759.456162 283.335086 
L 763.119461 283.525408 
L 768.248081 284.065907 
L 770.446061 284.43584 
L 772.64404 284.749946 
L 779.23798 286.083736 
L 781.43596 286.103037 
L 784.366599 286.18558 
L 788.029899 286.373159 
L 793.891178 286.467519 
L 795.356498 286.784621 
L 796.821818 287.375583 
L 798.287138 288.192696 
L 806.346397 293.284625 
L 809.277037 294.732104 
L 813.672997 296.60786 
L 816.603636 297.806104 
L 816.603636 297.806104 
" clip-path="url(#p1b9c5d7c3b)" style="fill: none; stroke: #888888; stroke-opacity: 0.6; stroke-linecap: square"/>
   </g>
   <g id="line2d_26">
    <path d="M 84.676364 304.805455 
L 86.141684 170.512918 
L 86.874343 120.526443 
L 87.607003 84.675966 
L 88.339663 63.517176 
L 89.072323 56.371921 
L 89.804983 60.900089 
L 90.537643 73.042869 
L 92.002963 101.049996 
L 93.468283 124.603785 
L 94.200943 139.425221 
L 94.933603 158.517453 
L 95.666263 182.040429 
L 97.864242 267.883176 
L 98.596902 282.298096 
L 99.329562 289.25621 
L 100.062222 293.027815 
L 100.794882 295.614207 
L 101.527542 297.530701 
L 102.260202 298.986369 
L 102.992862 299.847723 
L 103.725522 299.359913 
L 105.190842 296.279687 
L 105.923502 295.574069 
L 106.656162 296.020373 
L 107.388822 297.59377 
L 108.121481 299.616875 
L 108.854141 301.237965 
L 109.586801 301.917647 
L 110.319461 301.709318 
L 111.052121 300.859587 
L 111.784781 299.524657 
L 113.250101 296.167335 
L 113.982761 294.930662 
L 114.715421 294.467125 
L 115.448081 294.897022 
L 116.913401 297.332886 
L 117.646061 298.005457 
L 118.378721 298.391569 
L 119.11138 298.973121 
L 119.84404 299.40381 
L 120.5767 299.084506 
L 121.30936 297.948176 
L 122.77468 294.731697 
L 123.50734 293.589876 
L 124.24 293.14284 
L 124.97266 293.508188 
L 127.17064 296.65794 
L 129.36862 298.831798 
L 130.101279 298.956701 
L 130.833939 297.74765 
L 131.566599 295.761561 
L 132.299259 294.153229 
L 133.031919 293.612628 
L 133.764579 294.396354 
L 135.229899 297.978236 
L 135.962559 298.684134 
L 136.695219 298.220737 
L 137.427879 297.117223 
L 139.625859 292.578268 
L 140.358519 292.237565 
L 141.091178 293.09067 
L 141.823838 294.914737 
L 143.289158 299.486999 
L 144.021818 300.919026 
L 144.754478 300.309388 
L 146.952458 294.360827 
L 147.685118 293.651757 
L 148.417778 293.959831 
L 149.883098 295.715958 
L 150.615758 296.764412 
L 151.348418 298.010651 
L 152.081077 298.926973 
L 152.813737 298.44289 
L 154.279057 294.55279 
L 155.011717 293.436774 
L 155.744377 293.544853 
L 157.209697 295.802047 
L 157.942357 296.222349 
L 159.407677 296.255062 
L 160.140337 296.308804 
L 160.872997 295.790281 
L 162.338316 293.452822 
L 163.070976 293.068338 
L 163.803636 293.699985 
L 164.536296 295.030011 
L 165.268956 296.083973 
L 166.001616 296.176808 
L 167.466936 295.531019 
L 168.199596 295.038376 
L 169.664916 292.840931 
L 170.397576 292.270553 
L 171.130236 292.683137 
L 172.595556 295.384984 
L 173.328215 295.99818 
L 174.060875 295.487834 
L 174.793535 294.242453 
L 176.991515 289.377071 
L 177.724175 288.62974 
L 178.456835 288.706642 
L 179.189495 289.442812 
L 179.922155 290.703712 
L 181.387475 293.790613 
L 182.120135 294.945744 
L 182.852795 295.189046 
L 183.585455 294.178591 
L 185.050774 290.854577 
L 185.783434 289.826684 
L 186.516094 289.487869 
L 187.248754 289.792299 
L 188.714074 291.083054 
L 189.446734 291.4318 
L 190.912054 291.789468 
L 191.644714 291.71033 
L 192.377374 291.128488 
L 193.110034 290.271418 
L 193.842694 289.586725 
L 194.575354 289.418716 
L 195.308013 289.892373 
L 196.773333 291.443753 
L 197.505993 291.837115 
L 198.971313 291.92117 
L 200.436633 292.417576 
L 201.169293 292.210698 
L 201.901953 291.269484 
L 202.634613 289.984976 
L 203.367273 289.065429 
L 204.099933 288.917999 
L 204.832593 289.436093 
L 205.565253 290.237111 
L 206.297912 290.748186 
L 207.763232 291.19599 
L 208.495892 291.510537 
L 209.228552 291.510227 
L 209.961212 290.846814 
L 211.426532 288.606411 
L 212.159192 288.066426 
L 212.891852 288.16757 
L 215.089832 289.528816 
L 216.555152 289.903581 
L 217.287811 290.105683 
L 218.020471 290.00676 
L 218.753131 289.321184 
L 219.485791 288.368916 
L 220.218451 287.642562 
L 220.951111 287.491795 
L 221.683771 288.025104 
L 223.149091 289.983985 
L 223.881751 290.599092 
L 224.614411 290.687701 
L 226.079731 290.239353 
L 226.812391 290.366765 
L 227.545051 290.645592 
L 228.27771 290.706818 
L 229.01037 290.270192 
L 229.74303 289.290918 
L 230.47569 288.115613 
L 231.20835 287.170132 
L 231.94101 286.68082 
L 232.67367 286.691454 
L 233.40633 287.15303 
L 234.13899 287.85866 
L 234.87165 288.806224 
L 237.80229 293.353467 
L 238.534949 293.616865 
L 239.267609 293.090023 
L 240.000269 291.784341 
L 240.732929 290.168838 
L 241.465589 288.883297 
L 242.198249 288.307751 
L 242.930909 288.37501 
L 243.663569 288.910687 
L 245.128889 290.301901 
L 246.594209 291.262911 
L 247.326869 291.632543 
L 248.059529 291.627333 
L 248.792189 290.908706 
L 250.257508 288.539105 
L 250.990168 287.804336 
L 251.722828 287.713601 
L 252.455488 288.299652 
L 254.653468 291.169659 
L 256.118788 292.759061 
L 256.851448 293.612173 
L 257.584108 294.193746 
L 258.316768 294.124749 
L 259.049428 293.212839 
L 261.247407 288.199735 
L 261.980067 287.698693 
L 262.712727 288.030329 
L 264.178047 289.919632 
L 265.643367 291.683445 
L 266.376027 292.428842 
L 267.108687 292.906185 
L 267.841347 292.836502 
L 268.574007 292.014659 
L 270.039327 289.041251 
L 270.771987 288.045298 
L 271.504646 287.885672 
L 272.237306 288.521183 
L 274.435286 291.881878 
L 277.365926 294.727636 
L 278.098586 294.979173 
L 278.831246 294.481946 
L 279.563906 293.073199 
L 281.761886 286.999399 
L 282.494545 285.727182 
L 283.227205 285.03819 
L 283.959865 285.016133 
L 284.692525 285.819086 
L 285.425185 287.331588 
L 287.623165 293.455381 
L 288.355825 294.54485 
L 289.088485 294.516588 
L 289.821145 293.399915 
L 290.553805 291.53683 
L 292.019125 287.466324 
L 292.751785 286.263118 
L 293.484444 285.886899 
L 294.217104 286.221512 
L 294.949764 287.161242 
L 295.682424 288.483511 
L 297.880404 293.30777 
L 298.613064 294.415981 
L 299.345724 294.797403 
L 300.078384 294.296176 
L 300.811044 293.050512 
L 303.741684 285.980654 
L 304.474343 284.87028 
L 305.207003 284.48382 
L 305.939663 284.903126 
L 306.672323 286.052862 
L 307.404983 287.849165 
L 308.870303 292.062305 
L 309.602963 293.407564 
L 310.335623 293.763374 
L 311.068283 293.118787 
L 311.800943 291.723524 
L 313.998923 286.221124 
L 314.731582 284.906184 
L 315.464242 284.165523 
L 316.196902 284.01937 
L 316.929562 284.431807 
L 317.662222 285.437982 
L 318.394882 286.970764 
L 320.592862 292.697284 
L 321.325522 293.893033 
L 322.058182 294.100918 
L 322.790842 293.359583 
L 323.523502 292.022912 
L 326.454141 285.606396 
L 327.186801 284.557011 
L 327.919461 284.113189 
L 328.652121 284.400348 
L 329.384781 285.394191 
L 330.117441 286.912976 
L 331.582761 290.327045 
L 332.315421 291.431755 
L 333.048081 292.076454 
L 333.780741 292.231877 
L 334.513401 291.694892 
L 335.246061 290.373897 
L 336.71138 287.339317 
L 337.44404 286.330848 
L 338.1767 285.723865 
L 338.90936 285.446373 
L 339.64202 285.398487 
L 340.37468 285.575935 
L 341.10734 286.062636 
L 341.84 286.861253 
L 344.03798 289.997045 
L 344.77064 291.360214 
L 346.23596 294.578151 
L 346.96862 294.985705 
L 347.701279 294.03791 
L 350.631919 287.212047 
L 351.364579 286.473857 
L 352.097239 286.548298 
L 352.829899 287.455003 
L 355.027879 292.423661 
L 355.760539 292.999001 
L 356.493199 292.592265 
L 357.958519 290.445413 
L 359.423838 287.873829 
L 360.156498 287.041384 
L 360.889158 287.038819 
L 361.621818 287.976385 
L 362.354478 289.601872 
L 363.819798 293.192848 
L 364.552458 294.049394 
L 365.285118 294.116016 
L 366.017778 293.702872 
L 366.750438 292.965932 
L 367.483098 291.777055 
L 368.948418 288.718207 
L 369.681077 288.016525 
L 370.413737 288.302869 
L 373.344377 292.072329 
L 376.275017 294.836479 
L 377.007677 294.847139 
L 379.205657 293.818984 
L 379.938316 293.30856 
L 380.670976 292.413974 
L 382.868956 288.75955 
L 383.601616 288.524594 
L 384.334276 289.102791 
L 385.066936 290.111842 
L 385.799596 291.423164 
L 387.264916 294.550643 
L 387.997576 295.419581 
L 388.730236 295.366508 
L 389.462896 294.536373 
L 390.928215 291.928979 
L 392.393535 289.412337 
L 393.126195 288.782009 
L 393.858855 288.788706 
L 394.591515 289.427161 
L 396.056835 291.668374 
L 396.789495 292.890894 
L 397.522155 293.860736 
L 398.254815 294.240575 
L 398.987475 293.953533 
L 403.383434 290.295375 
L 404.116094 290.102933 
L 404.848754 290.318149 
L 405.581414 290.956664 
L 407.779394 293.322234 
L 408.512054 293.794491 
L 409.244714 293.819061 
L 409.977374 293.257794 
L 411.442694 291.360388 
L 412.175354 290.670837 
L 412.908013 290.401341 
L 413.640673 290.566987 
L 414.373333 291.013788 
L 415.105993 291.748162 
L 417.303973 294.927849 
L 418.036633 295.54066 
L 418.769293 295.603081 
L 419.501953 295.457122 
L 420.234613 295.529345 
L 420.967273 295.781114 
L 421.699933 295.747606 
L 423.165253 294.831167 
L 423.897912 294.560318 
L 424.630572 294.484189 
L 425.363232 294.707017 
L 426.095892 295.386293 
L 427.561212 297.196344 
L 428.293872 297.599517 
L 429.759192 297.877808 
L 430.491852 298.073118 
L 431.224512 298.071766 
L 431.957172 297.829172 
L 432.689832 297.420248 
L 434.887811 295.780971 
L 435.620471 295.926483 
L 436.353131 296.808087 
L 437.818451 299.203715 
L 438.551111 299.966156 
L 441.481751 301.750893 
L 442.214411 301.482801 
L 442.947071 300.964208 
L 443.679731 301.027096 
L 445.145051 302.389929 
L 445.87771 302.262946 
L 448.80835 299.236863 
L 449.54101 299.120483 
L 451.73899 300.146028 
L 453.20431 301.113515 
L 453.93697 300.920396 
L 454.66963 299.905166 
L 455.40229 299.102579 
L 456.134949 299.053055 
L 456.867609 299.441564 
L 457.600269 299.66648 
L 459.065589 299.222138 
L 459.798249 299.636425 
L 461.263569 301.742743 
L 461.996229 301.571589 
L 463.461549 299.076391 
L 464.194209 298.415537 
L 464.926869 298.447862 
L 466.392189 299.526079 
L 467.124848 299.706525 
L 468.590168 299.282895 
L 469.322828 299.416018 
L 470.788148 300.251309 
L 471.520808 299.96586 
L 472.253468 299.126112 
L 472.986128 298.610118 
L 473.718788 298.894261 
L 474.451448 299.854537 
L 475.184108 301.164855 
L 475.916768 302.071941 
L 476.649428 302.035483 
L 478.114747 301.063799 
L 479.580067 300.874996 
L 480.312727 300.51061 
L 481.045387 299.746115 
L 483.243367 296.889259 
L 484.708687 295.514944 
L 486.174007 294.610817 
L 487.639327 293.948841 
L 488.371987 293.891788 
L 489.104646 294.398912 
L 489.837306 295.640034 
L 491.302626 299.361274 
L 492.035286 300.596654 
L 492.767946 300.885612 
L 493.500606 300.36367 
L 494.233266 299.255838 
L 495.698586 296.401398 
L 496.431246 295.374994 
L 497.163906 294.829433 
L 498.629226 294.436753 
L 499.361886 294.541471 
L 500.094545 295.184133 
L 500.827205 296.510334 
L 502.292525 300.21647 
L 503.025185 300.390398 
L 504.490505 298.281785 
L 505.223165 297.718672 
L 506.688485 297.128511 
L 507.421145 296.610469 
L 508.886465 295.320909 
L 510.351785 294.599103 
L 511.084444 294.264258 
L 513.282424 292.937914 
L 514.015084 293.096193 
L 514.747744 293.886382 
L 515.480404 295.249849 
L 517.678384 300.121728 
L 518.411044 301.473601 
L 519.143704 302.47563 
L 519.876364 302.840406 
L 520.609024 302.46729 
L 521.341684 301.311259 
L 522.074343 299.550977 
L 523.539663 294.896736 
L 524.272323 292.599686 
L 525.004983 290.927842 
L 525.737643 290.206181 
L 526.470303 290.44074 
L 527.202963 291.502623 
L 527.935623 293.248188 
L 529.400943 297.375519 
L 530.133603 298.474928 
L 530.866263 298.046091 
L 531.598923 296.549092 
L 533.064242 292.962959 
L 533.796902 291.729148 
L 534.529562 291.114431 
L 535.262222 291.008744 
L 535.994882 291.257051 
L 536.727542 291.713771 
L 537.460202 292.378416 
L 538.925522 294.41071 
L 539.658182 294.961211 
L 540.390842 294.622114 
L 541.856162 293.100596 
L 542.588822 292.945729 
L 544.054141 293.833954 
L 544.786801 293.95717 
L 545.519461 293.555735 
L 547.717441 291.193009 
L 549.182761 290.163844 
L 549.915421 289.708949 
L 550.648081 289.436014 
L 551.380741 289.591012 
L 552.113401 290.346162 
L 554.31138 294.290202 
L 555.04404 295.041641 
L 555.7767 295.02327 
L 556.50936 294.247582 
L 557.24202 292.960434 
L 558.70734 289.534736 
L 559.44 287.772598 
L 560.17266 286.406809 
L 560.90532 285.645185 
L 561.63798 285.605442 
L 562.37064 286.2197 
L 563.1033 287.414321 
L 565.301279 292.056587 
L 566.033939 292.751419 
L 566.766599 292.44773 
L 567.499259 291.37773 
L 568.964579 288.791111 
L 569.697239 287.8105 
L 571.162559 286.484656 
L 571.895219 286.074805 
L 572.627879 286.105894 
L 573.360539 286.788459 
L 574.093199 288.028707 
L 575.558519 290.889593 
L 576.291178 291.373029 
L 577.023838 290.758997 
L 579.954478 285.62439 
L 580.687138 285.02638 
L 581.419798 285.272719 
L 582.152458 286.2967 
L 584.350438 290.749811 
L 585.083098 291.382516 
L 585.815758 291.197215 
L 586.548418 290.185378 
L 587.281077 288.497236 
L 588.746397 284.613445 
L 589.479057 283.143379 
L 590.211717 282.203385 
L 590.944377 281.850954 
L 591.677037 282.175202 
L 592.409697 283.249779 
L 593.142357 284.95768 
L 594.607677 289.12606 
L 595.340337 290.587429 
L 596.072997 291.123329 
L 596.805657 290.725574 
L 597.538316 289.510054 
L 599.736296 284.466431 
L 600.468956 283.221188 
L 601.201616 282.619029 
L 601.934276 282.791039 
L 602.666936 283.750884 
L 603.399596 285.379073 
L 605.597576 291.367681 
L 606.330236 292.532707 
L 607.062896 292.899899 
L 607.795556 292.3932 
L 608.528215 291.104797 
L 610.726195 284.995548 
L 611.458855 284.073919 
L 612.191515 284.302551 
L 612.924175 285.604673 
L 615.122155 291.493479 
L 615.854815 292.306024 
L 616.587475 292.157498 
L 617.320135 291.205354 
L 618.052795 289.583118 
L 619.518114 285.655522 
L 620.250774 284.486528 
L 620.983434 284.304913 
L 621.716094 285.034764 
L 622.448754 286.488014 
L 623.914074 290.096252 
L 624.646734 291.15664 
L 625.379394 291.300772 
L 626.112054 290.501392 
L 628.310034 285.886398 
L 629.042694 285.006659 
L 629.775354 284.806061 
L 630.508013 285.295582 
L 631.240673 286.396256 
L 632.705993 289.214287 
L 633.438653 290.28475 
L 634.171313 290.908507 
L 634.903973 290.930142 
L 635.636633 290.315166 
L 636.369293 289.076117 
L 637.834613 286.012382 
L 638.567273 285.373348 
L 639.299933 285.677104 
L 640.032593 286.775893 
L 641.497912 290.301761 
L 642.230572 291.553369 
L 642.963232 291.785091 
L 643.695892 290.870938 
L 645.893872 285.319308 
L 646.626532 284.190374 
L 647.359192 283.843507 
L 648.091852 284.330427 
L 648.824512 285.474505 
L 649.557172 287.029064 
L 651.755152 292.495771 
L 652.487811 293.623358 
L 653.220471 293.830458 
L 653.953131 293.028802 
L 654.685791 291.432634 
L 656.883771 285.762228 
L 657.616431 284.978266 
L 658.349091 285.105983 
L 659.081751 286.056198 
L 661.279731 290.556835 
L 662.012391 291.33317 
L 662.745051 291.449738 
L 663.47771 290.789708 
L 664.21037 289.422302 
L 665.67569 286.050107 
L 666.40835 285.23898 
L 667.14101 285.379501 
L 667.87367 286.372837 
L 669.33899 289.692911 
L 670.07165 291.353434 
L 670.80431 292.626818 
L 671.53697 293.325681 
L 672.26963 293.442442 
L 673.00229 293.183769 
L 674.467609 292.309079 
L 675.200269 291.601438 
L 675.932929 290.384268 
L 678.130909 285.337506 
L 678.863569 284.821547 
L 679.596229 285.259418 
L 680.328889 286.389675 
L 681.794209 289.454557 
L 682.526869 290.62134 
L 683.259529 291.228829 
L 683.992189 291.103747 
L 684.724848 290.099048 
L 686.190168 286.740938 
L 686.922828 285.608656 
L 687.655488 285.358916 
L 688.388148 286.046007 
L 689.120808 287.349592 
L 692.051448 293.264978 
L 692.784108 294.264942 
L 693.516768 294.425007 
L 694.249428 293.502664 
L 694.982088 291.725525 
L 696.447407 287.661652 
L 697.180067 286.361491 
L 697.912727 285.883353 
L 698.645387 286.251686 
L 699.378047 287.37313 
L 701.576027 291.720957 
L 703.041347 293.860543 
L 703.774007 294.219175 
L 704.506667 293.530983 
L 705.239327 291.846933 
L 706.704646 287.895393 
L 707.437306 286.64407 
L 708.169966 286.080439 
L 708.902626 286.175251 
L 709.635286 286.93666 
L 710.367946 288.445794 
L 712.565926 294.619598 
L 713.298586 295.464587 
L 714.031246 294.96983 
L 714.763906 293.453032 
L 716.229226 289.661302 
L 716.961886 288.692523 
L 717.694545 288.630576 
L 718.427205 289.466039 
L 719.892525 292.808356 
L 720.625185 294.414485 
L 721.357845 295.286343 
L 722.090505 294.818056 
L 722.823165 293.167609 
L 723.555825 291.224812 
L 724.288485 289.749126 
L 725.021145 289.09648 
L 725.753805 289.288577 
L 726.486465 290.142703 
L 728.684444 294.095977 
L 729.417104 294.523628 
L 730.149764 293.792988 
L 731.615084 290.647784 
L 732.347744 289.868399 
L 733.080404 290.086513 
L 733.813064 290.989249 
L 734.545724 292.152771 
L 735.278384 292.983953 
L 736.011044 293.231661 
L 736.743704 293.153972 
L 737.476364 292.952257 
L 738.209024 292.367752 
L 738.941684 291.465957 
L 739.674343 290.904464 
L 740.407003 291.091971 
L 741.139663 292.035839 
L 741.872323 293.476341 
L 742.604983 294.627409 
L 743.337643 294.774354 
L 745.535623 292.913098 
L 747.000943 291.242381 
L 747.733603 291.012967 
L 748.466263 291.631295 
L 750.664242 295.609924 
L 751.396902 296.060304 
L 752.129562 295.620057 
L 752.862222 294.29411 
L 754.327542 290.818343 
L 755.060202 290.190979 
L 755.792862 290.74581 
L 756.525522 292.227821 
L 757.258182 294.007751 
L 757.990842 295.276211 
L 758.723502 295.775476 
L 759.456162 295.57189 
L 760.188822 294.662155 
L 761.654141 291.282572 
L 762.386801 290.240602 
L 763.119461 290.508859 
L 763.852121 291.817274 
L 764.584781 293.52234 
L 765.317441 294.933805 
L 766.050101 295.520902 
L 766.782761 295.517375 
L 767.515421 295.031906 
L 768.248081 293.90889 
L 768.980741 292.232485 
L 769.713401 290.845829 
L 770.446061 290.486157 
L 771.178721 291.258881 
L 772.64404 294.080983 
L 773.3767 295.023635 
L 774.10936 295.315994 
L 774.84202 295.259643 
L 775.57468 294.979343 
L 776.30734 294.241038 
L 777.77266 292.108613 
L 778.50532 291.850193 
L 779.23798 292.398396 
L 781.43596 295.359741 
L 782.16862 295.775449 
L 784.366599 295.853068 
L 785.099259 296.101694 
L 785.831919 296.166505 
L 786.564579 295.769807 
L 788.762559 293.251755 
L 789.495219 293.34632 
L 790.227879 294.106788 
L 792.425859 297.898732 
L 793.158519 298.451062 
L 793.891178 298.767095 
L 794.623838 298.922895 
L 795.356498 298.807073 
L 796.089158 298.344775 
L 796.821818 297.698572 
L 797.554478 297.215612 
L 798.287138 297.110596 
L 799.019798 297.236017 
L 799.752458 297.522952 
L 800.485118 298.17444 
L 801.950438 300.398807 
L 802.683098 301.038147 
L 803.415758 300.978343 
L 804.881077 300.189456 
L 805.613737 300.086837 
L 806.346397 300.306804 
L 807.811717 301.313376 
L 808.544377 301.379091 
L 810.009697 300.367336 
L 811.475017 300.553395 
L 812.207677 300.115082 
L 812.940337 299.347747 
L 813.672997 298.859975 
L 814.405657 298.556798 
L 815.138316 296.920139 
L 815.870976 292.559549 
L 816.603636 278.599511 
L 816.603636 278.599511 
" clip-path="url(#p1b9c5d7c3b)" style="fill: none; stroke: #2ca02c; stroke-width: 1.2; stroke-linecap: square"/>
   </g>
   <g id="line2d_27">
    <path d="M 84.676364 304.805455 
L 86.141684 170.512977 
L 86.874343 120.486992 
L 87.607003 84.545436 
L 88.339663 63.274542 
L 89.072323 56.023853 
L 89.804983 60.557571 
L 90.537643 73.180792 
L 94.200943 154.466235 
L 96.398923 218.62353 
L 97.131582 232.12932 
L 98.596902 251.874435 
L 99.329562 259.221963 
L 100.062222 263.93883 
L 100.794882 267.691935 
L 101.527542 270.8446 
L 102.260202 273.492418 
L 102.992862 275.675185 
L 103.725522 277.431898 
L 104.458182 278.799439 
L 105.190842 279.812889 
L 105.923502 280.509644 
L 106.656162 280.925916 
L 107.388822 281.105858 
L 108.854141 281.180321 
L 111.052121 281.091234 
L 112.517441 281.088303 
L 113.982761 281.078048 
L 115.448081 281.418936 
L 116.913401 282.071833 
L 119.11138 283.2271 
L 119.84404 283.438657 
L 121.30936 283.485852 
L 122.77468 283.495286 
L 123.50734 283.644145 
L 124.97266 284.272379 
L 126.43798 284.947459 
L 127.9033 285.334692 
L 131.566599 285.498092 
L 135.962559 285.651805 
L 136.695219 285.822518 
L 138.893199 286.707669 
L 139.625859 286.862287 
L 140.358519 286.858719 
L 141.091178 286.70828 
L 144.754478 285.34625 
L 146.219798 285.174535 
L 151.348418 285.41221 
L 152.813737 285.754753 
L 157.942357 287.298557 
L 162.338316 288.299518 
L 163.803636 288.888571 
L 166.001616 290.062074 
L 167.466936 290.917949 
L 168.199596 291.169072 
L 168.932256 291.19581 
L 170.397576 290.868089 
L 173.328215 289.663065 
L 175.526195 288.830192 
L 176.991515 288.49726 
L 178.456835 288.481246 
L 179.922155 288.761126 
L 181.387475 289.292068 
L 182.852795 290.107961 
L 185.050774 291.465109 
L 185.783434 291.679758 
L 186.516094 291.686769 
L 187.981414 291.260371 
L 191.644714 289.609314 
L 193.110034 289.249931 
L 194.575354 289.206136 
L 196.040673 289.517266 
L 197.505993 290.204788 
L 199.703973 291.433974 
L 201.169293 291.936992 
L 202.634613 292.161958 
L 209.228552 292.628476 
L 210.693872 292.750116 
L 212.159192 292.686246 
L 213.624512 292.305988 
L 215.089832 291.601336 
L 218.020471 290.106198 
L 219.485791 289.555927 
L 220.951111 289.210295 
L 222.416431 289.194555 
L 223.881751 289.510902 
L 225.347071 289.995632 
L 226.812391 290.240977 
L 229.01037 290.279 
L 230.47569 290.41833 
L 231.94101 290.564204 
L 234.87165 290.554117 
L 236.33697 290.248948 
L 237.80229 289.912752 
L 239.267609 289.884893 
L 240.732929 290.077774 
L 242.198249 289.967531 
L 243.663569 289.486625 
L 246.594209 288.221584 
L 248.059529 287.983957 
L 251.722828 287.443658 
L 253.188148 287.032701 
L 255.386128 286.300438 
L 256.851448 286.252441 
L 258.316768 286.548354 
L 261.247407 287.404507 
L 265.643367 288.906966 
L 267.108687 289.155804 
L 269.306667 289.299974 
L 275.900606 289.455838 
L 280.296566 289.052498 
L 284.692525 289.27424 
L 286.890505 289.988499 
L 287.623165 290.104678 
L 289.088485 290.008613 
L 291.286465 289.813689 
L 292.751785 290.008913 
L 294.217104 290.601399 
L 295.682424 291.149361 
L 296.415084 291.247148 
L 297.147744 291.205522 
L 298.613064 290.766998 
L 301.543704 289.398959 
L 302.276364 289.323397 
L 303.741684 289.460909 
L 305.939663 289.964368 
L 308.870303 291.052437 
L 310.335623 291.854045 
L 311.800943 292.711893 
L 313.266263 293.328628 
L 313.998923 293.516025 
L 314.731582 293.574198 
L 316.196902 293.310554 
L 317.662222 292.885655 
L 320.592862 292.518364 
L 322.058182 292.468713 
L 324.256162 292.685139 
L 325.721481 293.100777 
L 327.186801 293.591303 
L 327.919461 293.669718 
L 329.384781 293.481906 
L 330.850101 293.248574 
L 333.780741 293.164862 
L 338.90936 292.61429 
L 343.30532 292.634188 
L 344.77064 293.048861 
L 346.96862 293.846688 
L 348.433939 294.114137 
L 349.166599 294.099893 
L 349.899259 293.963569 
L 350.631919 293.691635 
L 352.829899 292.493432 
L 354.295219 291.980663 
L 355.760539 291.662078 
L 358.691178 291.241626 
L 360.889158 290.551668 
L 363.087138 289.6988 
L 364.552458 289.526551 
L 366.017778 289.654857 
L 368.948418 290.115008 
L 370.413737 290.107313 
L 371.879057 289.840288 
L 373.344377 289.245761 
L 374.809697 288.307496 
L 377.007677 286.782724 
L 380.670976 284.607044 
L 381.403636 284.255309 
L 382.136296 284.106585 
L 383.601616 284.338271 
L 384.334276 284.593727 
L 385.799596 285.425205 
L 387.264916 286.250904 
L 387.997576 286.483766 
L 388.730236 286.541488 
L 389.462896 286.406555 
L 390.928215 285.812231 
L 392.393535 285.593457 
L 393.858855 285.387217 
L 395.324175 284.872992 
L 400.452795 282.461077 
L 401.918114 281.657146 
L 402.650774 281.442408 
L 404.116094 281.39387 
L 405.581414 281.653652 
L 407.046734 282.094032 
L 409.244714 283.024707 
L 413.640673 285.011403 
L 415.838653 285.698748 
L 417.303973 285.952231 
L 418.769293 285.995922 
L 422.432593 285.778293 
L 423.897912 285.430811 
L 426.095892 284.588149 
L 428.293872 283.469805 
L 430.491852 282.095294 
L 434.155152 279.67928 
L 435.620471 279.156864 
L 436.353131 278.988065 
L 437.085791 278.94354 
L 437.818451 279.050135 
L 439.283771 279.518426 
L 441.481751 279.770763 
L 444.412391 280.285949 
L 446.61037 280.999461 
L 447.34303 281.05098 
L 449.54101 280.646717 
L 451.00633 280.452513 
L 452.47165 280.498597 
L 453.93697 280.814116 
L 456.867609 281.836762 
L 458.332929 282.559056 
L 460.530909 283.802836 
L 461.263569 284.047172 
L 461.996229 284.113431 
L 463.461549 283.960852 
L 465.659529 283.627595 
L 472.986128 283.20047 
L 474.451448 282.837796 
L 475.916768 282.282768 
L 477.382088 281.536873 
L 480.312727 279.849245 
L 481.778047 279.407243 
L 482.510707 279.385425 
L 483.976027 279.663121 
L 489.104646 281.109984 
L 494.965926 282.223959 
L 496.431246 282.422045 
L 500.094545 282.586512 
L 501.559865 282.862329 
L 503.025185 283.31893 
L 504.490505 284.049024 
L 506.688485 285.444282 
L 507.421145 285.735063 
L 508.153805 285.86666 
L 508.886465 285.831802 
L 509.619125 285.640932 
L 511.817104 284.648026 
L 516.945724 283.753076 
L 519.143704 284.235387 
L 520.609024 284.400445 
L 522.074343 284.972687 
L 525.004983 286.191315 
L 527.202963 286.688065 
L 528.668283 287.385142 
L 530.133603 288.319372 
L 533.064242 290.273956 
L 535.262222 291.469123 
L 535.994882 291.792886 
L 536.727542 291.978885 
L 537.460202 291.983938 
L 538.192862 291.797007 
L 539.658182 291.133489 
L 540.390842 290.928561 
L 541.123502 290.845005 
L 541.856162 290.889576 
L 546.252121 291.917046 
L 547.717441 291.829769 
L 549.182761 291.43618 
L 552.846061 290.140531 
L 553.578721 290.079269 
L 555.04404 290.310044 
L 556.50936 290.974189 
L 557.97468 291.726004 
L 559.44 291.969948 
L 561.63798 292.175315 
L 563.83596 292.726481 
L 565.301279 292.739132 
L 571.162559 291.969687 
L 573.360539 292.168596 
L 577.023838 292.671161 
L 578.489158 292.503655 
L 579.954478 292.089574 
L 583.617778 290.571728 
L 585.815758 289.677848 
L 586.548418 289.507396 
L 587.281077 289.455769 
L 588.013737 289.529649 
L 589.479057 289.987421 
L 591.677037 290.75849 
L 593.142357 291.002466 
L 594.607677 290.918608 
L 596.072997 290.479513 
L 597.538316 289.886713 
L 599.003636 289.60165 
L 599.736296 289.590096 
L 600.468956 289.716134 
L 603.399596 290.810303 
L 604.864916 290.981452 
L 606.330236 290.876428 
L 607.795556 290.587024 
L 609.260875 290.137976 
L 612.191515 288.96669 
L 613.656835 288.786166 
L 615.122155 288.919162 
L 616.587475 289.083685 
L 618.052795 288.971136 
L 619.518114 288.654281 
L 620.250774 288.614944 
L 621.716094 288.906178 
L 623.181414 289.142903 
L 625.379394 289.306316 
L 627.577374 289.922199 
L 629.042694 290.308828 
L 629.775354 290.301432 
L 631.973333 289.957657 
L 634.903973 289.950675 
L 636.369293 289.553698 
L 638.567273 288.768068 
L 640.032593 288.574911 
L 641.497912 288.762723 
L 642.963232 289.358555 
L 645.161212 290.527863 
L 647.359192 291.816738 
L 648.091852 292.115406 
L 648.824512 292.2602 
L 650.289832 292.136905 
L 651.755152 292.013835 
L 653.220471 292.13362 
L 654.685791 292.441826 
L 656.151111 292.833026 
L 656.883771 292.901957 
L 657.616431 292.829875 
L 659.081751 292.346686 
L 661.279731 291.536424 
L 662.745051 291.149635 
L 663.47771 291.074191 
L 664.21037 291.126174 
L 668.60633 292.112044 
L 670.07165 292.072021 
L 672.26963 291.880519 
L 676.665589 291.826845 
L 678.130909 291.785212 
L 681.061549 291.920381 
L 683.992189 291.786229 
L 686.922828 291.987097 
L 690.586128 292.273845 
L 692.784108 292.178884 
L 695.714747 291.889708 
L 697.180067 292.250342 
L 700.110707 293.077805 
L 701.576027 293.149044 
L 704.506667 292.943836 
L 707.437306 292.45537 
L 709.635286 292.181287 
L 711.833266 292.145196 
L 715.496566 292.121167 
L 717.694545 291.840807 
L 720.625185 291.22737 
L 721.357845 291.228895 
L 724.288485 291.75578 
L 725.021145 291.677349 
L 727.219125 291.084104 
L 730.149764 290.685117 
L 732.347744 290.53671 
L 733.813064 290.254405 
L 736.011044 289.444938 
L 738.941684 288.14239 
L 740.407003 287.963735 
L 741.872323 288.088821 
L 743.337643 288.444457 
L 745.535623 289.286273 
L 746.268283 289.380877 
L 747.000943 289.312557 
L 748.466263 288.766753 
L 750.664242 287.957977 
L 753.594882 287.138527 
L 755.792862 286.614486 
L 758.723502 286.212148 
L 760.188822 285.688988 
L 761.654141 285.022076 
L 762.386801 284.858411 
L 763.119461 284.881516 
L 763.852121 285.087762 
L 765.317441 285.798028 
L 767.515421 286.933155 
L 768.980741 287.453879 
L 770.446061 287.668956 
L 771.91138 287.523767 
L 773.3767 286.978644 
L 779.97064 283.27217 
L 780.7033 282.972091 
L 785.099259 282.100004 
L 786.564579 281.520123 
L 788.029899 280.943106 
L 788.762559 280.85243 
L 790.227879 281.093304 
L 791.693199 281.632824 
L 793.158519 282.382691 
L 794.623838 283.22313 
L 795.356498 283.487391 
L 796.089158 283.617746 
L 797.554478 283.517783 
L 799.752458 282.913007 
L 801.217778 282.526333 
L 803.415758 282.376486 
L 804.881077 282.387364 
L 807.811717 282.711475 
L 809.277037 282.590226 
L 810.742357 282.151387 
L 813.672997 280.929153 
L 814.405657 280.722763 
L 815.138316 279.132871 
L 815.870976 273.014385 
L 816.603636 258.096064 
L 816.603636 258.096064 
" clip-path="url(#p1b9c5d7c3b)" style="fill: none; stroke-dasharray: 3.7,1.6; stroke-dashoffset: 0; stroke: #1f77b4"/>
   </g>
   <g id="patch_3">
    <path d="M 48.08 318.04 
L 48.08 26.88 
" style="fill: none; stroke: #000000; stroke-width: 0.8; stroke-linejoin: miter; stroke-linecap: square"/>
   </g>
   <g id="patch_4">
    <path d="M 853.2 318.04 
L 853.2 26.88 
" style="fill: none; stroke: #000000; stroke-width: 0.8; stroke-linejoin: miter; stroke-linecap: square"/>
   </g>
   <g id="patch_5">
    <path d="M 48.08 318.04 
L 853.2 318.04 
" style="fill: none; stroke: #000000; stroke-width: 0.8; stroke-linejoin: miter; stroke-linecap: square"/>
   </g>
   <g id="patch_6">
    <path d="M 48.08 26.88 
L 853.2 26.88 
" style="fill: none; stroke: #000000; stroke-width: 0.8; stroke-linejoin: miter; stroke-linecap: square"/>
   </g>
   <g id="text_15">
    <!-- Position Error Magnitude — figure-8_1 -->
    <g transform="translate(310.71125 20.88) scale(0.13 -0.13)">
     <defs>
      <path id="DejaVuSans-Bold-50" d="M 588 4666 
L 2584 4666 
Q 3475 4666 3951 4270 
Q 4428 3875 4428 3144 
Q 4428 2409 3951 2014 
Q 3475 1619 2584 1619 
L 1791 1619 
L 1791 0 
L 588 0 
L 588 4666 
z
M 1791 3794 
L 1791 2491 
L 2456 2491 
Q 2806 2491 2997 2661 
Q 3188 2831 3188 3144 
Q 3188 3456 2997 3625 
Q 2806 3794 2456 3794 
L 1791 3794 
z
" transform="scale(0.015625)"/>
      <path id="DejaVuSans-Bold-6f" d="M 2203 2784 
Q 1831 2784 1636 2517 
Q 1441 2250 1441 1747 
Q 1441 1244 1636 976 
Q 1831 709 2203 709 
Q 2569 709 2762 976 
Q 2956 1244 2956 1747 
Q 2956 2250 2762 2517 
Q 2569 2784 2203 2784 
z
M 2203 3584 
Q 3106 3584 3614 3096 
Q 4122 2609 4122 1747 
Q 4122 884 3614 396 
Q 3106 -91 2203 -91 
Q 1297 -91 786 396 
Q 275 884 275 1747 
Q 275 2609 786 3096 
Q 1297 3584 2203 3584 
z
" transform="scale(0.015625)"/>
      <path id="DejaVuSans-Bold-73" d="M 3272 3391 
L 3272 2541 
Q 2913 2691 2578 2766 
Q 2244 2841 1947 2841 
Q 1628 2841 1473 2761 
Q 1319 2681 1319 2516 
Q 1319 2381 1436 2309 
Q 1553 2238 1856 2203 
L 2053 2175 
Q 2913 2066 3209 1816 
Q 3506 1566 3506 1031 
Q 3506 472 3093 190 
Q 2681 -91 1863 -91 
Q 1516 -91 1145 -36 
Q 775 19 384 128 
L 384 978 
Q 719 816 1070 734 
Q 1422 653 1784 653 
Q 2113 653 2278 743 
Q 2444 834 2444 1013 
Q 2444 1163 2330 1236 
Q 2216 1309 1875 1350 
L 1678 1375 
Q 931 1469 631 1722 
Q 331 1975 331 2491 
Q 331 3047 712 3315 
Q 1094 3584 1881 3584 
Q 2191 3584 2531 3537 
Q 2872 3491 3272 3391 
z
" transform="scale(0.015625)"/>
      <path id="DejaVuSans-Bold-69" d="M 538 3500 
L 1656 3500 
L 1656 0 
L 538 0 
L 538 3500 
z
M 538 4863 
L 1656 4863 
L 1656 3950 
L 538 3950 
L 538 4863 
z
" transform="scale(0.015625)"/>
      <path id="DejaVuSans-Bold-74" d="M 1759 4494 
L 1759 3500 
L 2913 3500 
L 2913 2700 
L 1759 2700 
L 1759 1216 
Q 1759 972 1856 886 
Q 1953 800 2241 800 
L 2816 800 
L 2816 0 
L 1856 0 
Q 1194 0 917 276 
Q 641 553 641 1216 
L 641 2700 
L 84 2700 
L 84 3500 
L 641 3500 
L 641 4494 
L 1759 4494 
z
" transform="scale(0.015625)"/>
      <path id="DejaVuSans-Bold-6e" d="M 4056 2131 
L 4056 0 
L 2931 0 
L 2931 347 
L 2931 1631 
Q 2931 2084 2911 2256 
Q 2891 2428 2841 2509 
Q 2775 2619 2662 2680 
Q 2550 2741 2406 2741 
Q 2056 2741 1856 2470 
Q 1656 2200 1656 1722 
L 1656 0 
L 538 0 
L 538 3500 
L 1656 3500 
L 1656 2988 
Q 1909 3294 2193 3439 
Q 2478 3584 2822 3584 
Q 3428 3584 3742 3212 
Q 4056 2841 4056 2131 
z
" transform="scale(0.015625)"/>
      <path id="DejaVuSans-Bold-20" transform="scale(0.015625)"/>
      <path id="DejaVuSans-Bold-45" d="M 588 4666 
L 3834 4666 
L 3834 3756 
L 1791 3756 
L 1791 2888 
L 3713 2888 
L 3713 1978 
L 1791 1978 
L 1791 909 
L 3903 909 
L 3903 0 
L 588 0 
L 588 4666 
z
" transform="scale(0.015625)"/>
      <path id="DejaVuSans-Bold-72" d="M 3138 2547 
Q 2991 2616 2845 2648 
Q 2700 2681 2553 2681 
Q 2122 2681 1889 2404 
Q 1656 2128 1656 1613 
L 1656 0 
L 538 0 
L 538 3500 
L 1656 3500 
L 1656 2925 
Q 1872 3269 2151 3426 
Q 2431 3584 2822 3584 
Q 2878 3584 2943 3579 
Q 3009 3575 3134 3559 
L 3138 2547 
z
" transform="scale(0.015625)"/>
      <path id="DejaVuSans-Bold-4d" d="M 588 4666 
L 2119 4666 
L 3181 2169 
L 4250 4666 
L 5778 4666 
L 5778 0 
L 4641 0 
L 4641 3413 
L 3566 897 
L 2803 897 
L 1728 3413 
L 1728 0 
L 588 0 
L 588 4666 
z
" transform="scale(0.015625)"/>
      <path id="DejaVuSans-Bold-61" d="M 2106 1575 
Q 1756 1575 1579 1456 
Q 1403 1338 1403 1106 
Q 1403 894 1545 773 
Q 1688 653 1941 653 
Q 2256 653 2472 879 
Q 2688 1106 2688 1447 
L 2688 1575 
L 2106 1575 
z
M 3816 1997 
L 3816 0 
L 2688 0 
L 2688 519 
Q 2463 200 2181 54 
Q 1900 -91 1497 -91 
Q 953 -91 614 226 
Q 275 544 275 1050 
Q 275 1666 698 1953 
Q 1122 2241 2028 2241 
L 2688 2241 
L 2688 2328 
Q 2688 2594 2478 2717 
Q 2269 2841 1825 2841 
Q 1466 2841 1156 2769 
Q 847 2697 581 2553 
L 581 3406 
Q 941 3494 1303 3539 
Q 1666 3584 2028 3584 
Q 2975 3584 3395 3211 
Q 3816 2838 3816 1997 
z
" transform="scale(0.015625)"/>
      <path id="DejaVuSans-Bold-67" d="M 2919 594 
Q 2688 288 2409 144 
Q 2131 0 1766 0 
Q 1125 0 706 504 
Q 288 1009 288 1791 
Q 288 2575 706 3076 
Q 1125 3578 1766 3578 
Q 2131 3578 2409 3434 
Q 2688 3291 2919 2981 
L 2919 3500 
L 4044 3500 
L 4044 353 
Q 4044 -491 3511 -936 
Q 2978 -1381 1966 -1381 
Q 1638 -1381 1331 -1331 
Q 1025 -1281 716 -1178 
L 716 -306 
Q 1009 -475 1290 -558 
Q 1572 -641 1856 -641 
Q 2406 -641 2662 -400 
Q 2919 -159 2919 353 
L 2919 594 
z
M 2181 2772 
Q 1834 2772 1640 2515 
Q 1447 2259 1447 1791 
Q 1447 1309 1634 1061 
Q 1822 813 2181 813 
Q 2531 813 2725 1069 
Q 2919 1325 2919 1791 
Q 2919 2259 2725 2515 
Q 2531 2772 2181 2772 
z
" transform="scale(0.015625)"/>
      <path id="DejaVuSans-Bold-75" d="M 500 1363 
L 500 3500 
L 1625 3500 
L 1625 3150 
Q 1625 2866 1622 2436 
Q 1619 2006 1619 1863 
Q 1619 1441 1641 1255 
Q 1663 1069 1716 984 
Q 1784 875 1895 815 
Q 2006 756 2150 756 
Q 2500 756 2700 1025 
Q 2900 1294 2900 1772 
L 2900 3500 
L 4019 3500 
L 4019 0 
L 2900 0 
L 2900 506 
Q 2647 200 2364 54 
Q 2081 -91 1741 -91 
Q 1134 -91 817 281 
Q 500 653 500 1363 
z
" transform="scale(0.015625)"/>
      <path id="DejaVuSans-Bold-64" d="M 2919 2988 
L 2919 4863 
L 4044 4863 
L 4044 0 
L 2919 0 
L 2919 506 
Q 2688 197 2409 53 
Q 2131 -91 1766 -91 
Q 1119 -91 703 423 
Q 288 938 288 1747 
Q 288 2556 703 3070 
Q 1119 3584 1766 3584 
Q 2128 3584 2408 3439 
Q 2688 3294 2919 2988 
z
M 2181 722 
Q 2541 722 2730 984 
Q 2919 1247 2919 1747 
Q 2919 2247 2730 2509 
Q 2541 2772 2181 2772 
Q 1825 2772 1636 2509 
Q 1447 2247 1447 1747 
Q 1447 1247 1636 984 
Q 1825 722 2181 722 
z
" transform="scale(0.015625)"/>
      <path id="DejaVuSans-Bold-65" d="M 4031 1759 
L 4031 1441 
L 1416 1441 
Q 1456 1047 1700 850 
Q 1944 653 2381 653 
Q 2734 653 3104 758 
Q 3475 863 3866 1075 
L 3866 213 
Q 3469 63 3072 -14 
Q 2675 -91 2278 -91 
Q 1328 -91 801 392 
Q 275 875 275 1747 
Q 275 2603 792 3093 
Q 1309 3584 2216 3584 
Q 3041 3584 3536 3087 
Q 4031 2591 4031 1759 
z
M 2881 2131 
Q 2881 2450 2695 2645 
Q 2509 2841 2209 2841 
Q 1884 2841 1681 2658 
Q 1478 2475 1428 2131 
L 2881 2131 
z
" transform="scale(0.015625)"/>
      <path id="DejaVuSans-Bold-2014" d="M 344 2156 
L 6056 2156 
L 6056 1350 
L 344 1350 
L 344 2156 
z
" transform="scale(0.015625)"/>
      <path id="DejaVuSans-Bold-66" d="M 2841 4863 
L 2841 4128 
L 2222 4128 
Q 1984 4128 1890 4042 
Q 1797 3956 1797 3744 
L 1797 3500 
L 2753 3500 
L 2753 2700 
L 1797 2700 
L 1797 0 
L 678 0 
L 678 2700 
L 122 2700 
L 122 3500 
L 678 3500 
L 678 3744 
Q 678 4316 997 4589 
Q 1316 4863 1984 4863 
L 2841 4863 
z
" transform="scale(0.015625)"/>
      <path id="DejaVuSans-Bold-2d" d="M 347 2297 
L 2309 2297 
L 2309 1388 
L 347 1388 
L 347 2297 
z
" transform="scale(0.015625)"/>
      <path id="DejaVuSans-Bold-38" d="M 2228 2088 
Q 1891 2088 1709 1903 
Q 1528 1719 1528 1375 
Q 1528 1031 1709 848 
Q 1891 666 2228 666 
Q 2563 666 2741 848 
Q 2919 1031 2919 1375 
Q 2919 1722 2741 1905 
Q 2563 2088 2228 2088 
z
M 1350 2484 
Q 925 2613 709 2878 
Q 494 3144 494 3541 
Q 494 4131 934 4440 
Q 1375 4750 2228 4750 
Q 3075 4750 3515 4442 
Q 3956 4134 3956 3541 
Q 3956 3144 3739 2878 
Q 3522 2613 3097 2484 
Q 3572 2353 3814 2058 
Q 4056 1763 4056 1313 
Q 4056 619 3595 264 
Q 3134 -91 2228 -91 
Q 1319 -91 855 264 
Q 391 619 391 1313 
Q 391 1763 633 2058 
Q 875 2353 1350 2484 
z
M 1631 3419 
Q 1631 3141 1786 2991 
Q 1941 2841 2228 2841 
Q 2509 2841 2662 2991 
Q 2816 3141 2816 3419 
Q 2816 3697 2662 3845 
Q 2509 3994 2228 3994 
Q 1941 3994 1786 3844 
Q 1631 3694 1631 3419 
z
" transform="scale(0.015625)"/>
      <path id="DejaVuSans-Bold-5f" d="M 3200 -916 
L 3200 -1509 
L 0 -1509 
L 0 -916 
L 3200 -916 
z
" transform="scale(0.015625)"/>
      <path id="DejaVuSans-Bold-31" d="M 750 831 
L 1813 831 
L 1813 3847 
L 722 3622 
L 722 4441 
L 1806 4666 
L 2950 4666 
L 2950 831 
L 4013 831 
L 4013 0 
L 750 0 
L 750 831 
z
" transform="scale(0.015625)"/>
     </defs>
     <use xlink:href="#DejaVuSans-Bold-50"/>
     <use xlink:href="#DejaVuSans-Bold-6f" transform="translate(73.291016 0)"/>
     <use xlink:href="#DejaVuSans-Bold-73" transform="translate(141.992188 0)"/>
     <use xlink:href="#DejaVuSans-Bold-69" transform="translate(201.513672 0)"/>
     <use xlink:href="#DejaVuSans-Bold-74" transform="translate(235.791016 0)"/>
     <use xlink:href="#DejaVuSans-Bold-69" transform="translate(283.59375 0)"/>
     <use xlink:href="#DejaVuSans-Bold-6f" transform="translate(317.871094 0)"/>
     <use xlink:href="#DejaVuSans-Bold-6e" transform="translate(386.572266 0)"/>
     <use xlink:href="#DejaVuSans-Bold-20" transform="translate(457.763672 0)"/>
     <use xlink:href="#DejaVuSans-Bold-45" transform="translate(492.578125 0)"/>
     <use xlink:href="#DejaVuSans-Bold-72" transform="translate(560.888672 0)"/>
     <use xlink:href="#DejaVuSans-Bold-72" transform="translate(610.205078 0)"/>
     <use xlink:href="#DejaVuSans-Bold-6f" transform="translate(659.521484 0)"/>
     <use xlink:href="#DejaVuSans-Bold-72" transform="translate(728.222656 0)"/>
     <use xlink:href="#DejaVuSans-Bold-20" transform="translate(777.539062 0)"/>
     <use xlink:href="#DejaVuSans-Bold-4d" transform="translate(812.353516 0)"/>
     <use xlink:href="#DejaVuSans-Bold-61" transform="translate(911.865234 0)"/>
     <use xlink:href="#DejaVuSans-Bold-67" transform="translate(979.345703 0)"/>
     <use xlink:href="#DejaVuSans-Bold-6e" transform="translate(1050.927734 0)"/>
     <use xlink:href="#DejaVuSans-Bold-69" transform="translate(1122.119141 0)"/>
     <use xlink:href="#DejaVuSans-Bold-74" transform="translate(1156.396484 0)"/>
     <use xlink:href="#DejaVuSans-Bold-75" transform="translate(1204.199219 0)"/>
     <use xlink:href="#DejaVuSans-Bold-64" transform="translate(1275.390625 0)"/>
     <use xlink:href="#DejaVuSans-Bold-65" transform="translate(1346.972656 0)"/>
     <use xlink:href="#DejaVuSans-Bold-20" transform="translate(1414.794922 0)"/>
     <use xlink:href="#DejaVuSans-Bold-2014" transform="translate(1449.609375 0)"/>
     <use xlink:href="#DejaVuSans-Bold-20" transform="translate(1549.609375 0)"/>
     <use xlink:href="#DejaVuSans-Bold-66" transform="translate(1584.423828 0)"/>
     <use xlink:href="#DejaVuSans-Bold-69" transform="translate(1627.929688 0)"/>
     <use xlink:href="#DejaVuSans-Bold-67" transform="translate(1662.207031 0)"/>
     <use xlink:href="#DejaVuSans-Bold-75" transform="translate(1733.789062 0)"/>
     <use xlink:href="#DejaVuSans-Bold-72" transform="translate(1804.980469 0)"/>
     <use xlink:href="#DejaVuSans-Bold-65" transform="translate(1854.296875 0)"/>
     <use xlink:href="#DejaVuSans-Bold-2d" transform="translate(1922.119141 0)"/>
     <use xlink:href="#DejaVuSans-Bold-38" transform="translate(1963.623047 0)"/>
     <use xlink:href="#DejaVuSans-Bold-5f" transform="translate(2033.203125 0)"/>
     <use xlink:href="#DejaVuSans-Bold-31" transform="translate(2083.203125 0)"/>
    </g>
   </g>
   <g id="legend_1">
    <g id="patch_7">
     <path d="M 778.354688 78.914375 
L 846.2 78.914375 
Q 848.2 78.914375 848.2 76.914375 
L 848.2 33.88 
Q 848.2 31.88 846.2 31.88 
L 778.354688 31.88 
Q 776.354688 31.88 776.354688 33.88 
L 776.354688 76.914375 
Q 776.354688 78.914375 778.354688 78.914375 
z
" style="fill: #ffffff; opacity: 0.8; stroke: #cccccc; stroke-linejoin: miter"/>
    </g>
    <g id="line2d_28">
     <path d="M 780.354688 39.978437 
L 790.354688 39.978437 
L 800.354688 39.978437 
" style="fill: none; stroke: #888888; stroke-opacity: 0.6; stroke-linecap: square"/>
    </g>
    <g id="text_16">
     <!-- PID -->
     <g transform="translate(808.354688 43.478437) scale(0.1 -0.1)">
      <defs>
       <path id="DejaVuSans-50" d="M 1259 4147 
L 1259 2394 
L 2053 2394 
Q 2494 2394 2734 2622 
Q 2975 2850 2975 3272 
Q 2975 3691 2734 3919 
Q 2494 4147 2053 4147 
L 1259 4147 
z
M 628 4666 
L 2053 4666 
Q 2838 4666 3239 4311 
Q 3641 3956 3641 3272 
Q 3641 2581 3239 2228 
Q 2838 1875 2053 1875 
L 1259 1875 
L 1259 0 
L 628 0 
L 628 4666 
z
" transform="scale(0.015625)"/>
       <path id="DejaVuSans-49" d="M 628 4666 
L 1259 4666 
L 1259 0 
L 628 0 
L 628 4666 
z
" transform="scale(0.015625)"/>
       <path id="DejaVuSans-44" d="M 1259 4147 
L 1259 519 
L 2022 519 
Q 2988 519 3436 956 
Q 3884 1394 3884 2338 
Q 3884 3275 3436 3711 
Q 2988 4147 2022 4147 
L 1259 4147 
z
M 628 4666 
L 1925 4666 
Q 3281 4666 3915 4102 
Q 4550 3538 4550 2338 
Q 4550 1131 3912 565 
Q 3275 0 1925 0 
L 628 0 
L 628 4666 
z
" transform="scale(0.015625)"/>
      </defs>
      <use xlink:href="#DejaVuSans-50"/>
      <use xlink:href="#DejaVuSans-49" transform="translate(60.302734 0)"/>
      <use xlink:href="#DejaVuSans-44" transform="translate(89.794922 0)"/>
     </g>
    </g>
    <g id="line2d_29">
     <path d="M 780.354688 54.656563 
L 790.354688 54.656563 
L 800.354688 54.656563 
" style="fill: none; stroke: #2ca02c; stroke-width: 1.2; stroke-linecap: square"/>
    </g>
    <g id="text_17">
     <!-- EDMDc -->
     <g transform="translate(808.354688 58.156563) scale(0.1 -0.1)">
      <defs>
       <path id="DejaVuSans-45" d="M 628 4666 
L 3578 4666 
L 3578 4134 
L 1259 4134 
L 1259 2753 
L 3481 2753 
L 3481 2222 
L 1259 2222 
L 1259 531 
L 3634 531 
L 3634 0 
L 628 0 
L 628 4666 
z
" transform="scale(0.015625)"/>
       <path id="DejaVuSans-4d" d="M 628 4666 
L 1569 4666 
L 2759 1491 
L 3956 4666 
L 4897 4666 
L 4897 0 
L 4281 0 
L 4281 4097 
L 3078 897 
L 2444 897 
L 1241 4097 
L 1241 0 
L 628 0 
L 628 4666 
z
" transform="scale(0.015625)"/>
       <path id="DejaVuSans-63" d="M 3122 3366 
L 3122 2828 
Q 2878 2963 2633 3030 
Q 2388 3097 2138 3097 
Q 1578 3097 1268 2742 
Q 959 2388 959 1747 
Q 959 1106 1268 751 
Q 1578 397 2138 397 
Q 2388 397 2633 464 
Q 2878 531 3122 666 
L 3122 134 
Q 2881 22 2623 -34 
Q 2366 -91 2075 -91 
Q 1284 -91 818 406 
Q 353 903 353 1747 
Q 353 2603 823 3093 
Q 1294 3584 2113 3584 
Q 2378 3584 2631 3529 
Q 2884 3475 3122 3366 
z
" transform="scale(0.015625)"/>
      </defs>
      <use xlink:href="#DejaVuSans-45"/>
      <use xlink:href="#DejaVuSans-44" transform="translate(63.183594 0)"/>
      <use xlink:href="#DejaVuSans-4d" transform="translate(140.185547 0)"/>
      <use xlink:href="#DejaVuSans-44" transform="translate(226.464844 0)"/>
      <use xlink:href="#DejaVuSans-63" transform="translate(303.466797 0)"/>
     </g>
    </g>
    <g id="line2d_30">
     <path d="M 780.354688 69.334687 
L 790.354688 69.334687 
L 800.354688 69.334687 
" style="fill: none; stroke-dasharray: 3.7,1.6; stroke-dashoffset: 0; stroke: #1f77b4"/>
    </g>
    <g id="text_18">
     <!-- Linear -->
     <g transform="translate(808.354688 72.834687) scale(0.1 -0.1)">
      <defs>
       <path id="DejaVuSans-4c" d="M 628 4666 
L 1259 4666 
L 1259 531 
L 3531 531 
L 3531 0 
L 628 0 
L 628 4666 
z
" transform="scale(0.015625)"/>
       <path id="DejaVuSans-69" d="M 603 3500 
L 1178 3500 
L 1178 0 
L 603 0 
L 603 3500 
z
M 603 4863 
L 1178 4863 
L 1178 4134 
L 603 4134 
L 603 4863 
z
" transform="scale(0.015625)"/>
       <path id="DejaVuSans-6e" d="M 3513 2113 
L 3513 0 
L 2938 0 
L 2938 2094 
Q 2938 2591 2744 2837 
Q 2550 3084 2163 3084 
Q 1697 3084 1428 2787 
Q 1159 2491 1159 1978 
L 1159 0 
L 581 0 
L 581 3500 
L 1159 3500 
L 1159 2956 
Q 1366 3272 1645 3428 
Q 1925 3584 2291 3584 
Q 2894 3584 3203 3211 
Q 3513 2838 3513 2113 
z
" transform="scale(0.015625)"/>
       <path id="DejaVuSans-61" d="M 2194 1759 
Q 1497 1759 1228 1600 
Q 959 1441 959 1056 
Q 959 750 1161 570 
Q 1363 391 1709 391 
Q 2188 391 2477 730 
Q 2766 1069 2766 1631 
L 2766 1759 
L 2194 1759 
z
M 3341 1997 
L 3341 0 
L 2766 0 
L 2766 531 
Q 2569 213 2275 61 
Q 1981 -91 1556 -91 
Q 1019 -91 701 211 
Q 384 513 384 1019 
Q 384 1609 779 1909 
Q 1175 2209 1959 2209 
L 2766 2209 
L 2766 2266 
Q 2766 2663 2505 2880 
Q 2244 3097 1772 3097 
Q 1472 3097 1187 3025 
Q 903 2953 641 2809 
L 641 3341 
Q 956 3463 1253 3523 
Q 1550 3584 1831 3584 
Q 2591 3584 2966 3190 
Q 3341 2797 3341 1997 
z
" transform="scale(0.015625)"/>
      </defs>
      <use xlink:href="#DejaVuSans-4c"/>
      <use xlink:href="#DejaVuSans-69" transform="translate(55.712891 0)"/>
      <use xlink:href="#DejaVuSans-6e" transform="translate(83.496094 0)"/>
      <use xlink:href="#DejaVuSans-65" transform="translate(146.875 0)"/>
      <use xlink:href="#DejaVuSans-61" transform="translate(208.398438 0)"/>
      <use xlink:href="#DejaVuSans-72" transform="translate(269.677734 0)"/>
     </g>
    </g>
   </g>
  </g>
 </g>
 <defs>
  <clipPath id="p1b9c5d7c3b">
   <rect x="48.08" y="26.88" width="805.12" height="291.16"/>
  </clipPath>
 </defs>
</svg>
