<?xml version="1.0" encoding="utf-8" standalone="no"?>
<!DOCTYPE svg PUBLIC "-//W3C//DTD SVG 1.1//EN"
  "http://www.w3.org/Graphics/SVG/1.1/DTD/svg11.dtd">
<svg xmlns:xlink="http://www.w3.org/1999/xlink" width="864pt" height="360pt" viewBox="0 0 864 360" xmlns="http://www.w3.org/2000/svg" version="1.1">
 <metadata>
  <rdf:RDF xmlns:dc="http://purl.org/dc/elements/1.1/" xmlns:cc="http://creativecommons.org/ns#" xmlns:rdf="http://www.w3.org/1999/02/22-rdf-syntax-ns#">
   <cc:Work>
    <dc:type rdf:resource="http://purl.org/dc/dcmitype/StillImage"/>
    <dc:date>2026-03-30T18:20:01.676133</dc:date>
    <dc:format>image/svg+xml</dc:format>
    <dc:creator>
     <cc:Agent>
      <dc:title>Matplotlib v3.10.8, https://matplotlib.org/</dc:title>
     </cc:Agent>
    </dc:creator>
   </cc:Work>
  </rdf:RDF>
 </metadata>
 <defs>
  <style type="text/css">*{stroke-linejoin: round; stroke-linecap: butt}</style>
 </defs>
 <g id="figure_1">
  <g id="patch_1">
   <path d="M 0 360 
L 864 360 
L 864 0 
L 0 0 
z
" style="fill: #ffffff"/>
  </g>
  <g id="axes_1">
   <g id="patch_2">
    <path d="M 48.08 318.04 
L 853.2 318.04 
L 853.2 26.88 
L 48.08 26.88 
z
" style="fill: #ffffff"/>
   </g>
   <g id="matplotlib.axis_1">
    <g id="xtick_1">
     <g id="line2d_1">
      <path d="M 84.676364 318.04 
L 84.676364 26.88 
" clip-path="url(#p39e7d5edb5)" style="fill: none; stroke: #b0b0b0; stroke-opacity: 0.3; stroke-width: 0.8; stroke-linecap: square"/>
     </g>
     <g id="line2d_2">
      <defs>
       <path id="m653d182088" d="M 0 0 
L 0 3.5 
" style="stroke: #000000; stroke-width: 0.8"/>
      </defs>
      <g>
       <use xlink:href="#m653d182088" x="84.676364" y="318.04" style="stroke: #000000; stroke-width: 0.8"/>
      </g>
     </g>
     <g id="text_1">
      <!-- 0 -->
      <g transform="translate(81.495114 332.638438) scale(0.1 -0.1)">
       <defs>
        <path id="DejaVuSans-30" d="M 2034 4250 
Q 1547 4250 1301 3770 
Q 1056 3291 1056 2328 
Q 1056 1369 1301 889 
Q 1547 409 2034 409 
Q 2525 409 2770 889 
Q 3016 1369 3016 2328 
Q 3016 3291 2770 3770 
Q 2525 4250 2034 4250 
z
M 2034 4750 
Q 2819 4750 3233 4129 
Q 3647 3509 3647 2328 
Q 3647 1150 3233 529 
Q 2819 -91 2034 -91 
Q 1250 -91 836 529 
Q 422 1150 422 2328 
Q 422 3509 836 4129 
Q 1250 4750 2034 4750 
z
" transform="scale(0.015625)"/>
       </defs>
       <use xlink:href="#DejaVuSans-30"/>
      </g>
     </g>
    </g>
    <g id="xtick_2">
     <g id="line2d_3">
      <path d="M 231.20835 318.04 
L 231.20835 26.88 
" clip-path="url(#p39e7d5edb5)" style="fill: none; stroke: #b0b0b0; stroke-opacity: 0.3; stroke-width: 0.8; stroke-linecap: square"/>
     </g>
     <g id="line2d_4">
      <g>
       <use xlink:href="#m653d182088" x="231.20835" y="318.04" style="stroke: #000000; stroke-width: 0.8"/>
      </g>
     </g>
     <g id="text_2">
      <!-- 20 -->
      <g transform="translate(224.84585 332.638438) scale(0.1 -0.1)">
       <defs>
        <path id="DejaVuSans-32" d="M 1228 531 
L 3431 531 
L 3431 0 
L 469 0 
L 469 531 
Q 828 903 1448 1529 
Q 2069 2156 2228 2338 
Q 2531 2678 2651 2914 
Q 2772 3150 2772 3378 
Q 2772 3750 2511 3984 
Q 2250 4219 1831 4219 
Q 1534 4219 1204 4116 
Q 875 4013 500 3803 
L 500 4441 
Q 881 4594 1212 4672 
Q 1544 4750 1819 4750 
Q 2544 4750 2975 4387 
Q 3406 4025 3406 3419 
Q 3406 3131 3298 2873 
Q 3191 2616 2906 2266 
Q 2828 2175 2409 1742 
Q 1991 1309 1228 531 
z
" transform="scale(0.015625)"/>
       </defs>
       <use xlink:href="#DejaVuSans-32"/>
       <use xlink:href="#DejaVuSans-30" transform="translate(63.623047 0)"/>
      </g>
     </g>
    </g>
    <g id="xtick_3">
     <g id="line2d_5">
      <path d="M 377.740337 318.04 
L 377.740337 26.88 
" clip-path="url(#p39e7d5edb5)" style="fill: none; stroke: #b0b0b0; stroke-opacity: 0.3; stroke-width: 0.8; stroke-linecap: square"/>
     </g>
     <g id="line2d_6">
      <g>
       <use xlink:href="#m653d182088" x="377.740337" y="318.04" style="stroke: #000000; stroke-width: 0.8"/>
      </g>
     </g>
     <g id="text_3">
      <!-- 40 -->
      <g transform="translate(371.377837 332.638438) scale(0.1 -0.1)">
       <defs>
        <path id="DejaVuSans-34" d="M 2419 4116 
L 825 1625 
L 2419 1625 
L 2419 4116 
z
M 2253 4666 
L 3047 4666 
L 3047 1625 
L 3713 1625 
L 3713 1100 
L 3047 1100 
L 3047 0 
L 2419 0 
L 2419 1100 
L 313 1100 
L 313 1709 
L 2253 4666 
z
" transform="scale(0.015625)"/>
       </defs>
       <use xlink:href="#DejaVuSans-34"/>
       <use xlink:href="#DejaVuSans-30" transform="translate(63.623047 0)"/>
      </g>
     </g>
    </g>
    <g id="xtick_4">
     <g id="line2d_7">
      <path d="M 524.272323 318.04 
L 524.272323 26.88 
" clip-path="url(#p39e7d5edb5)" style="fill: none; stroke: #b0b0b0; stroke-opacity: 0.3; stroke-width: 0.8; stroke-linecap: square"/>
     </g>
     <g id="line2d_8">
      <g>
       <use xlink:href="#m653d182088" x="524.272323" y="318.04" style="stroke: #000000; stroke-width: 0.8"/>
      </g>
     </g>
     <g id="text_4">
      <!-- 60 -->
      <g transform="translate(517.909823 332.638438) scale(0.1 -0.1)">
       <defs>
        <path id="DejaVuSans-36" d="M 2113 2584 
Q 1688 2584 1439 2293 
Q 1191 2003 1191 1497 
Q 1191 994 1439 701 
Q 1688 409 2113 409 
Q 2538 409 2786 701 
Q 3034 994 3034 1497 
Q 3034 2003 2786 2293 
Q 2538 2584 2113 2584 
z
M 3366 4563 
L 3366 3988 
Q 3128 4100 2886 4159 
Q 2644 4219 2406 4219 
Q 1781 4219 1451 3797 
Q 1122 3375 1075 2522 
Q 1259 2794 1537 2939 
Q 1816 3084 2150 3084 
Q 2853 3084 3261 2657 
Q 3669 2231 3669 1497 
Q 3669 778 3244 343 
Q 2819 -91 2113 -91 
Q 1303 -91 875 529 
Q 447 1150 447 2328 
Q 447 3434 972 4092 
Q 1497 4750 2381 4750 
Q 2619 4750 2861 4703 
Q 3103 4656 3366 4563 
z
" transform="scale(0.015625)"/>
       </defs>
       <use xlink:href="#DejaVuSans-36"/>
       <use xlink:href="#DejaVuSans-30" transform="translate(63.623047 0)"/>
      </g>
     </g>
    </g>
    <g id="xtick_5">
     <g id="line2d_9">
      <path d="M 670.80431 318.04 
L 670.80431 26.88 
" clip-path="url(#p39e7d5edb5)" style="fill: none; stroke: #b0b0b0; stroke-opacity: 0.3; stroke-width: 0.8; stroke-linecap: square"/>
     </g>
     <g id="line2d_10">
      <g>
       <use xlink:href="#m653d182088" x="670.80431" y="318.04" style="stroke: #000000; stroke-width: 0.8"/>
      </g>
     </g>
     <g id="text_5">
      <!-- 80 -->
      <g transform="translate(664.44181 332.638438) scale(0.1 -0.1)">
       <defs>
        <path id="DejaVuSans-38" d="M 2034 2216 
Q 1584 2216 1326 1975 
Q 1069 1734 1069 1313 
Q 1069 891 1326 650 
Q 1584 409 2034 409 
Q 2484 409 2743 651 
Q 3003 894 3003 1313 
Q 3003 1734 2745 1975 
Q 2488 2216 2034 2216 
z
M 1403 2484 
Q 997 2584 770 2862 
Q 544 3141 544 3541 
Q 544 4100 942 4425 
Q 1341 4750 2034 4750 
Q 2731 4750 3128 4425 
Q 3525 4100 3525 3541 
Q 3525 3141 3298 2862 
Q 3072 2584 2669 2484 
Q 3125 2378 3379 2068 
Q 3634 1759 3634 1313 
Q 3634 634 3220 271 
Q 2806 -91 2034 -91 
Q 1263 -91 848 271 
Q 434 634 434 1313 
Q 434 1759 690 2068 
Q 947 2378 1403 2484 
z
M 1172 3481 
Q 1172 3119 1398 2916 
Q 1625 2713 2034 2713 
Q 2441 2713 2670 2916 
Q 2900 3119 2900 3481 
Q 2900 3844 2670 4047 
Q 2441 4250 2034 4250 
Q 1625 4250 1398 4047 
Q 1172 3844 1172 3481 
z
" transform="scale(0.015625)"/>
       </defs>
       <use xlink:href="#DejaVuSans-38"/>
       <use xlink:href="#DejaVuSans-30" transform="translate(63.623047 0)"/>
      </g>
     </g>
    </g>
    <g id="xtick_6">
     <g id="line2d_11">
      <path d="M 817.336296 318.04 
L 817.336296 26.88 
" clip-path="url(#p39e7d5edb5)" style="fill: none; stroke: #b0b0b0; stroke-opacity: 0.3; stroke-width: 0.8; stroke-linecap: square"/>
     </g>
     <g id="line2d_12">
      <g>
       <use xlink:href="#m653d182088" x="817.336296" y="318.04" style="stroke: #000000; stroke-width: 0.8"/>
      </g>
     </g>
     <g id="text_6">
      <!-- 100 -->
      <g transform="translate(807.792546 332.638438) scale(0.1 -0.1)">
       <defs>
        <path id="DejaVuSans-31" d="M 794 531 
L 1825 531 
L 1825 4091 
L 703 3866 
L 703 4441 
L 1819 4666 
L 2450 4666 
L 2450 531 
L 3481 531 
L 3481 0 
L 794 0 
L 794 531 
z
" transform="scale(0.015625)"/>
       </defs>
       <use xlink:href="#DejaVuSans-31"/>
       <use xlink:href="#DejaVuSans-30" transform="translate(63.623047 0)"/>
       <use xlink:href="#DejaVuSans-30" transform="translate(127.246094 0)"/>
      </g>
     </g>
    </g>
    <g id="text_7">
     <!-- t [s] -->
     <g transform="translate(440.584531 346.316563) scale(0.1 -0.1)">
      <defs>
       <path id="DejaVuSans-74" d="M 1172 4494 
L 1172 3500 
L 2356 3500 
L 2356 3053 
L 1172 3053 
L 1172 1153 
Q 1172 725 1289 603 
Q 1406 481 1766 481 
L 2356 481 
L 2356 0 
L 1766 0 
Q 1100 0 847 248 
Q 594 497 594 1153 
L 594 3053 
L 172 3053 
L 172 3500 
L 594 3500 
L 594 4494 
L 1172 4494 
z
" transform="scale(0.015625)"/>
       <path id="DejaVuSans-20" transform="scale(0.015625)"/>
       <path id="DejaVuSans-5b" d="M 550 4863 
L 1875 4863 
L 1875 4416 
L 1125 4416 
L 1125 -397 
L 1875 -397 
L 1875 -844 
L 550 -844 
L 550 4863 
z
" transform="scale(0.015625)"/>
       <path id="DejaVuSans-73" d="M 2834 3397 
L 2834 2853 
Q 2591 2978 2328 3040 
Q 2066 3103 1784 3103 
Q 1356 3103 1142 2972 
Q 928 2841 928 2578 
Q 928 2378 1081 2264 
Q 1234 2150 1697 2047 
L 1894 2003 
Q 2506 1872 2764 1633 
Q 3022 1394 3022 966 
Q 3022 478 2636 193 
Q 2250 -91 1575 -91 
Q 1294 -91 989 -36 
Q 684 19 347 128 
L 347 722 
Q 666 556 975 473 
Q 1284 391 1588 391 
Q 1994 391 2212 530 
Q 2431 669 2431 922 
Q 2431 1156 2273 1281 
Q 2116 1406 1581 1522 
L 1381 1569 
Q 847 1681 609 1914 
Q 372 2147 372 2553 
Q 372 3047 722 3315 
Q 1072 3584 1716 3584 
Q 2034 3584 2315 3537 
Q 2597 3491 2834 3397 
z
" transform="scale(0.015625)"/>
       <path id="DejaVuSans-5d" d="M 1947 4863 
L 1947 -844 
L 622 -844 
L 622 -397 
L 1369 -397 
L 1369 4416 
L 622 4416 
L 622 4863 
L 1947 4863 
z
" transform="scale(0.015625)"/>
      </defs>
      <use xlink:href="#DejaVuSans-74"/>
      <use xlink:href="#DejaVuSans-20" transform="translate(39.208984 0)"/>
      <use xlink:href="#DejaVuSans-5b" transform="translate(70.996094 0)"/>
      <use xlink:href="#DejaVuSans-73" transform="translate(110.009766 0)"/>
      <use xlink:href="#DejaVuSans-5d" transform="translate(162.109375 0)"/>
     </g>
    </g>
   </g>
   <g id="matplotlib.axis_2">
    <g id="ytick_1">
     <g id="line2d_13">
      <path d="M 48.08 304.805455 
L 853.2 304.805455 
" clip-path="url(#p39e7d5edb5)" style="fill: none; stroke: #b0b0b0; stroke-opacity: 0.3; stroke-width: 0.8; stroke-linecap: square"/>
     </g>
     <g id="line2d_14">
      <defs>
       <path id="mf4337842f6" d="M 0 0 
L -3.5 0 
" style="stroke: #000000; stroke-width: 0.8"/>
      </defs>
      <g>
       <use xlink:href="#mf4337842f6" x="48.08" y="304.805455" style="stroke: #000000; stroke-width: 0.8"/>
      </g>
     </g>
     <g id="text_8">
      <!-- 0.0 -->
      <g transform="translate(25.176875 308.604673) scale(0.1 -0.1)">
       <defs>
        <path id="DejaVuSans-2e" d="M 684 794 
L 1344 794 
L 1344 0 
L 684 0 
L 684 794 
z
" transform="scale(0.015625)"/>
       </defs>
       <use xlink:href="#DejaVuSans-30"/>
       <use xlink:href="#DejaVuSans-2e" transform="translate(63.623047 0)"/>
       <use xlink:href="#DejaVuSans-30" transform="translate(95.410156 0)"/>
      </g>
     </g>
    </g>
    <g id="ytick_2">
     <g id="line2d_15">
      <path d="M 48.08 247.041643 
L 853.2 247.041643 
" clip-path="url(#p39e7d5edb5)" style="fill: none; stroke: #b0b0b0; stroke-opacity: 0.3; stroke-width: 0.8; stroke-linecap: square"/>
     </g>
     <g id="line2d_16">
      <g>
       <use xlink:href="#mf4337842f6" x="48.08" y="247.041643" style="stroke: #000000; stroke-width: 0.8"/>
      </g>
     </g>
     <g id="text_9">
      <!-- 0.2 -->
      <g transform="translate(25.176875 250.840862) scale(0.1 -0.1)">
       <use xlink:href="#DejaVuSans-30"/>
       <use xlink:href="#DejaVuSans-2e" transform="translate(63.623047 0)"/>
       <use xlink:href="#DejaVuSans-32" transform="translate(95.410156 0)"/>
      </g>
     </g>
    </g>
    <g id="ytick_3">
     <g id="line2d_17">
      <path d="M 48.08 189.277831 
L 853.2 189.277831 
" clip-path="url(#p39e7d5edb5)" style="fill: none; stroke: #b0b0b0; stroke-opacity: 0.3; stroke-width: 0.8; stroke-linecap: square"/>
     </g>
     <g id="line2d_18">
      <g>
       <use xlink:href="#mf4337842f6" x="48.08" y="189.277831" style="stroke: #000000; stroke-width: 0.8"/>
      </g>
     </g>
     <g id="text_10">
      <!-- 0.4 -->
      <g transform="translate(25.176875 193.07705) scale(0.1 -0.1)">
       <use xlink:href="#DejaVuSans-30"/>
       <use xlink:href="#DejaVuSans-2e" transform="translate(63.623047 0)"/>
       <use xlink:href="#DejaVuSans-34" transform="translate(95.410156 0)"/>
      </g>
     </g>
    </g>
    <g id="ytick_4">
     <g id="line2d_19">
      <path d="M 48.08 131.514019 
L 853.2 131.514019 
" clip-path="url(#p39e7d5edb5)" style="fill: none; stroke: #b0b0b0; stroke-opacity: 0.3; stroke-width: 0.8; stroke-linecap: square"/>
     </g>
     <g id="line2d_20">
      <g>
       <use xlink:href="#mf4337842f6" x="48.08" y="131.514019" style="stroke: #000000; stroke-width: 0.8"/>
      </g>
     </g>
     <g id="text_11">
      <!-- 0.6 -->
      <g transform="translate(25.176875 135.313238) scale(0.1 -0.1)">
       <use xlink:href="#DejaVuSans-30"/>
       <use xlink:href="#DejaVuSans-2e" transform="translate(63.623047 0)"/>
       <use xlink:href="#DejaVuSans-36" transform="translate(95.410156 0)"/>
      </g>
     </g>
    </g>
    <g id="ytick_5">
     <g id="line2d_21">
      <path d="M 48.08 73.750208 
L 853.2 73.750208 
" clip-path="url(#p39e7d5edb5)" style="fill: none; stroke: #b0b0b0; stroke-opacity: 0.3; stroke-width: 0.8; stroke-linecap: square"/>
     </g>
     <g id="line2d_22">
      <g>
       <use xlink:href="#mf4337842f6" x="48.08" y="73.750208" style="stroke: #000000; stroke-width: 0.8"/>
      </g>
     </g>
     <g id="text_12">
      <!-- 0.8 -->
      <g transform="translate(25.176875 77.549427) scale(0.1 -0.1)">
       <use xlink:href="#DejaVuSans-30"/>
       <use xlink:href="#DejaVuSans-2e" transform="translate(63.623047 0)"/>
       <use xlink:href="#DejaVuSans-38" transform="translate(95.410156 0)"/>
      </g>
     </g>
    </g>
    <g id="text_13">
     <!-- ||pos error|| [m] -->
     <g transform="translate(18.819062 212.088125) rotate(-90) scale(0.1 -0.1)">
      <defs>
       <path id="DejaVuSans-7c" d="M 1344 4891 
L 1344 -1509 
L 813 -1509 
L 813 4891 
L 1344 4891 
z
" transform="scale(0.015625)"/>
       <path id="DejaVuSans-70" d="M 1159 525 
L 1159 -1331 
L 581 -1331 
L 581 3500 
L 1159 3500 
L 1159 2969 
Q 1341 3281 1617 3432 
Q 1894 3584 2278 3584 
Q 2916 3584 3314 3078 
Q 3713 2572 3713 1747 
Q 3713 922 3314 415 
Q 2916 -91 2278 -91 
Q 1894 -91 1617 61 
Q 1341 213 1159 525 
z
M 3116 1747 
Q 3116 2381 2855 2742 
Q 2594 3103 2138 3103 
Q 1681 3103 1420 2742 
Q 1159 2381 1159 1747 
Q 1159 1113 1420 752 
Q 1681 391 2138 391 
Q 2594 391 2855 752 
Q 3116 1113 3116 1747 
z
" transform="scale(0.015625)"/>
       <path id="DejaVuSans-6f" d="M 1959 3097 
Q 1497 3097 1228 2736 
Q 959 2375 959 1747 
Q 959 1119 1226 758 
Q 1494 397 1959 397 
Q 2419 397 2687 759 
Q 2956 1122 2956 1747 
Q 2956 2369 2687 2733 
Q 2419 3097 1959 3097 
z
M 1959 3584 
Q 2709 3584 3137 3096 
Q 3566 2609 3566 1747 
Q 3566 888 3137 398 
Q 2709 -91 1959 -91 
Q 1206 -91 779 398 
Q 353 888 353 1747 
Q 353 2609 779 3096 
Q 1206 3584 1959 3584 
z
" transform="scale(0.015625)"/>
       <path id="DejaVuSans-65" d="M 3597 1894 
L 3597 1613 
L 953 1613 
Q 991 1019 1311 708 
Q 1631 397 2203 397 
Q 2534 397 2845 478 
Q 3156 559 3463 722 
L 3463 178 
Q 3153 47 2828 -22 
Q 2503 -91 2169 -91 
Q 1331 -91 842 396 
Q 353 884 353 1716 
Q 353 2575 817 3079 
Q 1281 3584 2069 3584 
Q 2775 3584 3186 3129 
Q 3597 2675 3597 1894 
z
M 3022 2063 
Q 3016 2534 2758 2815 
Q 2500 3097 2075 3097 
Q 1594 3097 1305 2825 
Q 1016 2553 972 2059 
L 3022 2063 
z
" transform="scale(0.015625)"/>
       <path id="DejaVuSans-72" d="M 2631 2963 
Q 2534 3019 2420 3045 
Q 2306 3072 2169 3072 
Q 1681 3072 1420 2755 
Q 1159 2438 1159 1844 
L 1159 0 
L 581 0 
L 581 3500 
L 1159 3500 
L 1159 2956 
Q 1341 3275 1631 3429 
Q 1922 3584 2338 3584 
Q 2397 3584 2469 3576 
Q 2541 3569 2628 3553 
L 2631 2963 
z
" transform="scale(0.015625)"/>
       <path id="DejaVuSans-6d" d="M 3328 2828 
Q 3544 3216 3844 3400 
Q 4144 3584 4550 3584 
Q 5097 3584 5394 3201 
Q 5691 2819 5691 2113 
L 5691 0 
L 5113 0 
L 5113 2094 
Q 5113 2597 4934 2840 
Q 4756 3084 4391 3084 
Q 3944 3084 3684 2787 
Q 3425 2491 3425 1978 
L 3425 0 
L 2847 0 
L 2847 2094 
Q 2847 2600 2669 2842 
Q 2491 3084 2119 3084 
Q 1678 3084 1418 2786 
Q 1159 2488 1159 1978 
L 1159 0 
L 581 0 
L 581 3500 
L 1159 3500 
L 1159 2956 
Q 1356 3278 1631 3431 
Q 1906 3584 2284 3584 
Q 2666 3584 2933 3390 
Q 3200 3197 3328 2828 
z
" transform="scale(0.015625)"/>
      </defs>
      <use xlink:href="#DejaVuSans-7c"/>
      <use xlink:href="#DejaVuSans-7c" transform="translate(33.691406 0)"/>
      <use xlink:href="#DejaVuSans-70" transform="translate(67.382812 0)"/>
      <use xlink:href="#DejaVuSans-6f" transform="translate(130.859375 0)"/>
      <use xlink:href="#DejaVuSans-73" transform="translate(192.041016 0)"/>
      <use xlink:href="#DejaVuSans-20" transform="translate(244.140625 0)"/>
      <use xlink:href="#DejaVuSans-65" transform="translate(275.927734 0)"/>
      <use xlink:href="#DejaVuSans-72" transform="translate(337.451172 0)"/>
      <use xlink:href="#DejaVuSans-72" transform="translate(376.814453 0)"/>
      <use xlink:href="#DejaVuSans-6f" transform="translate(415.677734 0)"/>
      <use xlink:href="#DejaVuSans-72" transform="translate(476.859375 0)"/>
      <use xlink:href="#DejaVuSans-7c" transform="translate(517.972656 0)"/>
      <use xlink:href="#DejaVuSans-7c" transform="translate(551.664062 0)"/>
      <use xlink:href="#DejaVuSans-20" transform="translate(585.355469 0)"/>
      <use xlink:href="#DejaVuSans-5b" transform="translate(617.142578 0)"/>
      <use xlink:href="#DejaVuSans-6d" transform="translate(656.15625 0)"/>
      <use xlink:href="#DejaVuSans-5d" transform="translate(753.568359 0)"/>
     </g>
    </g>
   </g>
   <g id="line2d_23">
    <path d="M 84.676364 304.805455 
L 85.409024 291.077101 
L 86.141684 256.49872 
L 89.072323 72.744813 
L 89.804983 48.383241 
L 90.537643 40.114545 
L 91.270303 48.538252 
L 93.468283 109.461418 
L 94.933603 137.144348 
L 96.398923 158.496447 
L 97.864242 175.561286 
L 99.329562 189.60268 
L 100.794882 201.465117 
L 102.260202 211.680493 
L 103.725522 220.610251 
L 105.190842 228.516436 
L 107.388822 238.878699 
L 109.586801 247.870804 
L 111.784781 255.842911 
L 113.982761 263.040181 
L 116.180741 269.471307 
L 117.646061 273.199241 
L 119.11138 276.491041 
L 120.5767 279.399515 
L 122.77468 283.172046 
L 124.97266 286.395056 
L 127.17064 289.211155 
L 130.101279 292.515349 
L 133.031919 295.462532 
L 136.695219 298.806135 
L 139.625859 301.246346 
L 141.091178 302.325402 
L 142.556498 303.112394 
L 143.289158 303.280005 
L 144.021818 303.238044 
L 145.487138 302.675051 
L 148.417778 300.951496 
L 151.348418 299.284357 
L 154.279057 297.89645 
L 156.477037 297.068636 
L 158.675017 296.443529 
L 161.605657 295.875853 
L 164.536296 295.535655 
L 168.199596 295.348445 
L 171.862896 295.396738 
L 176.258855 295.732395 
L 181.387475 296.376249 
L 183.585455 296.716807 
L 184.318114 296.695299 
L 185.050774 296.3764 
L 185.783434 295.444156 
L 186.516094 293.387444 
L 187.248754 289.674458 
L 187.981414 283.904703 
L 188.714074 276.105317 
L 190.912054 248.326133 
L 191.644714 240.835378 
L 192.377374 235.021916 
L 193.110034 230.803387 
L 193.842694 227.828906 
L 194.575354 225.723644 
L 195.308013 224.15886 
L 196.773333 221.887221 
L 198.238653 220.262189 
L 198.971313 219.668226 
L 199.703973 219.241246 
L 201.169293 218.796252 
L 202.634613 218.769836 
L 204.099933 219.101976 
L 205.565253 219.756259 
L 207.030572 220.688361 
L 208.495892 221.854586 
L 210.693872 223.958322 
L 212.891852 226.392749 
L 215.822492 230.009986 
L 219.485791 234.936265 
L 224.614411 242.286447 
L 231.94101 253.251551 
L 243.663569 271.247904 
L 256.118788 290.352749 
L 259.049428 294.242642 
L 261.980067 297.752375 
L 264.178047 300.145283 
L 265.643367 301.510472 
L 267.108687 302.578967 
L 267.841347 302.939065 
L 268.574007 303.127047 
L 269.306667 303.116268 
L 270.771987 302.641108 
L 273.702626 301.100069 
L 277.365926 299.202584 
L 280.296566 297.972572 
L 282.494545 297.280239 
L 285.425185 296.626356 
L 287.623165 296.316018 
L 288.355825 296.332348 
L 289.088485 296.522001 
L 290.553805 297.231183 
L 291.286465 296.953659 
L 292.019125 294.574079 
L 292.751785 289.083061 
L 293.484444 280.89789 
L 295.682424 252.121704 
L 296.415084 244.606323 
L 297.147744 238.812425 
L 297.880404 234.536979 
L 298.613064 231.405363 
L 299.345724 229.06724 
L 300.078384 227.25915 
L 301.543704 224.430199 
L 303.009024 222.099051 
L 304.474343 220.268878 
L 305.939663 218.923649 
L 307.404983 218.004477 
L 308.137643 217.707471 
L 308.870303 217.544707 
L 309.602963 217.522673 
L 310.335623 217.636261 
L 311.068283 217.879284 
L 312.533603 218.719231 
L 313.998923 219.973643 
L 315.464242 221.575964 
L 317.662222 224.471641 
L 321.325522 229.883976 
L 327.919461 240.171903 
L 344.03798 265.595391 
L 347.701279 270.704198 
L 352.097239 276.387622 
L 357.958519 283.552912 
L 365.285118 292.168747 
L 367.483098 294.50022 
L 369.681077 296.509837 
L 371.879057 298.213844 
L 374.077037 299.67196 
L 377.007677 301.331269 
L 380.670976 303.091129 
L 383.601616 304.320224 
L 384.334276 304.577615 
L 385.066936 304.598445 
L 388.730236 303.298094 
L 393.858855 301.494413 
L 394.591515 300.795141 
L 395.324175 299.33248 
L 396.056835 296.593635 
L 396.789495 292.029458 
L 397.522155 285.371457 
L 398.987475 267.134945 
L 400.452795 248.737717 
L 401.185455 241.61266 
L 401.918114 236.195273 
L 402.650774 232.241772 
L 403.383434 229.415281 
L 404.116094 227.341264 
L 405.581414 224.26428 
L 407.046734 221.857323 
L 408.512054 220.14517 
L 409.977374 219.023236 
L 411.442694 218.41942 
L 412.908013 218.220515 
L 414.373333 218.450863 
L 415.838653 219.096512 
L 417.303973 220.034798 
L 419.501953 221.757202 
L 422.432593 224.395187 
L 426.095892 228.013404 
L 429.026532 231.214552 
L 431.957172 234.866951 
L 434.887811 238.894127 
L 438.551111 244.28642 
L 444.412391 253.376837 
L 454.66963 269.794496 
L 460.530909 278.979255 
L 462.728889 281.927774 
L 464.926869 284.468423 
L 467.124848 286.687623 
L 470.055488 289.291578 
L 473.718788 292.179423 
L 478.114747 295.336397 
L 484.708687 299.763243 
L 492.035286 304.491795 
L 492.767946 304.625747 
L 497.163906 301.80521 
L 498.629226 300.71647 
L 499.361886 300.028049 
L 500.094545 299.098892 
L 500.827205 297.669741 
L 501.559865 295.516072 
L 502.292525 292.442762 
L 503.757845 284.098456 
L 505.223165 275.765449 
L 505.955825 272.529814 
L 506.688485 270.058098 
L 507.421145 268.25623 
L 508.153805 266.894065 
L 508.886465 265.83889 
L 510.351785 264.301922 
L 511.817104 263.093197 
L 513.282424 262.225722 
L 514.747744 261.764106 
L 516.213064 261.700507 
L 517.678384 261.989269 
L 519.876364 262.800544 
L 526.470303 265.670141 
L 541.856162 272.476602 
L 544.786801 274.13279 
L 547.717441 276.041376 
L 552.113401 279.209015 
L 563.1033 287.326281 
L 570.429899 292.233669 
L 574.093199 294.507634 
L 577.023838 296.07168 
L 579.221818 296.971659 
L 580.687138 297.382898 
L 582.152458 297.60659 
L 583.617778 297.627915 
L 585.815758 297.39168 
L 590.944377 296.692299 
L 593.875017 296.52527 
L 597.538316 296.567089 
L 601.934276 296.877244 
L 603.399596 297.111631 
L 604.864916 297.400226 
L 605.597576 297.232459 
L 606.330236 296.376989 
L 607.062896 294.43742 
L 607.795556 291.441181 
L 609.993535 280.685545 
L 610.726195 277.893174 
L 611.458855 275.76961 
L 612.191515 274.167768 
L 612.924175 272.931564 
L 614.389495 271.081686 
L 615.854815 269.630771 
L 617.320135 268.461488 
L 618.785455 267.604735 
L 620.250774 267.011939 
L 621.716094 266.703628 
L 626.112054 266.29089 
L 631.240673 265.849371 
L 633.438653 265.93209 
L 635.636633 266.308821 
L 637.834613 266.973412 
L 640.032593 267.910643 
L 642.230572 269.090435 
L 645.161212 270.956169 
L 648.824512 273.614486 
L 653.220471 277.09747 
L 659.814411 282.625364 
L 675.932929 296.291342 
L 678.863569 298.518122 
L 681.061549 299.928391 
L 682.526869 300.61721 
L 683.992189 301.010793 
L 685.457508 301.072661 
L 686.922828 300.829931 
L 688.388148 300.356846 
L 690.586128 299.376943 
L 693.516768 297.801072 
L 697.180067 295.791252 
L 700.110707 294.503856 
L 702.308687 293.749621 
L 704.506667 293.189235 
L 708.169966 292.45508 
L 708.902626 292.161721 
L 709.635286 291.648447 
L 710.367946 290.751695 
L 711.100606 289.366214 
L 711.833266 287.417321 
L 713.298586 282.285972 
L 714.763906 277.437933 
L 715.496566 275.770269 
L 716.229226 274.671606 
L 716.961886 274.041292 
L 717.694545 273.737199 
L 719.159865 273.623772 
L 720.625185 273.678373 
L 722.823165 274.057751 
L 739.674343 277.993733 
L 741.872323 278.817828 
L 744.802963 280.160947 
L 748.466263 282.117911 
L 753.594882 285.15849 
L 774.84202 298.153129 
L 777.04 299.216457 
L 779.23798 300.013466 
L 780.7033 300.318869 
L 782.16862 300.394831 
L 783.633939 300.239998 
L 785.831919 299.715739 
L 795.356498 296.98328 
L 799.019798 296.378194 
L 801.950438 296.168103 
L 804.881077 296.210154 
L 808.544377 296.51121 
L 812.940337 296.927311 
L 813.672997 296.677055 
L 814.405657 295.981058 
L 815.138316 294.607946 
L 815.870976 292.31611 
L 816.603636 289.142521 
L 816.603636 289.142521 
" clip-path="url(#p39e7d5edb5)" style="fill: none; stroke: #888888; stroke-opacity: 0.6; stroke-linecap: square"/>
   </g>
   <g id="line2d_24">
    <path d="M 84.676364 304.805455 
L 85.409024 291.171512 
L 86.141684 257.081628 
L 88.339663 117.012718 
L 89.072323 84.582464 
L 89.804983 67.714217 
L 90.537643 68.674715 
L 91.270303 88.133805 
L 92.735623 158.369279 
L 94.200943 230.749379 
L 94.933603 257.666613 
L 95.666263 276.261256 
L 96.398923 287.586825 
L 97.131582 293.588207 
L 97.864242 296.270126 
L 98.596902 297.081403 
L 99.329562 297.216513 
L 100.062222 297.475974 
L 100.794882 298.258581 
L 103.725522 302.560968 
L 104.458182 303.243744 
L 105.190842 303.205409 
L 106.656162 301.647151 
L 107.388822 300.604187 
L 108.121481 299.328969 
L 108.854141 298.651041 
L 109.586801 299.110563 
L 110.319461 300.572106 
L 111.052121 302.437488 
L 111.784781 303.637035 
L 112.517441 302.512367 
L 113.250101 301.811694 
L 113.982761 302.183868 
L 114.715421 303.073427 
L 115.448081 302.464682 
L 116.180741 301.020637 
L 116.913401 300.206289 
L 117.646061 300.424509 
L 118.378721 301.504776 
L 119.11138 303.234711 
L 119.84404 303.766162 
L 120.5767 301.642868 
L 121.30936 300.005822 
L 122.04202 299.222293 
L 122.77468 299.409623 
L 123.50734 300.492284 
L 124.24 301.831003 
L 124.97266 302.315872 
L 125.70532 302.13281 
L 126.43798 302.383574 
L 127.9033 304.14198 
L 128.63596 302.659251 
L 130.101279 298.743448 
L 130.833939 297.70371 
L 131.566599 297.619766 
L 132.299259 298.575263 
L 133.764579 302.196425 
L 134.497239 302.981592 
L 135.229899 303.040158 
L 135.962559 302.930023 
L 136.695219 302.007278 
L 138.893199 296.59185 
L 139.625859 295.56164 
L 140.358519 295.451859 
L 141.091178 296.368152 
L 143.289158 301.595577 
L 144.021818 301.898984 
L 144.754478 301.366931 
L 145.487138 300.1485 
L 147.685118 295.020178 
L 148.417778 293.847069 
L 149.150438 293.46626 
L 149.883098 293.99423 
L 150.615758 295.285485 
L 152.081077 298.691289 
L 152.813737 299.348358 
L 153.546397 298.87446 
L 154.279057 297.541748 
L 156.477037 292.571501 
L 157.209697 291.315233 
L 157.942357 290.70438 
L 158.675017 290.896807 
L 159.407677 291.777719 
L 160.872997 294.835882 
L 161.605657 295.810483 
L 162.338316 295.722245 
L 163.070976 294.598075 
L 164.536296 291.744568 
L 165.268956 290.996851 
L 166.001616 290.728739 
L 168.199596 290.435795 
L 169.664916 290.741839 
L 170.397576 290.678981 
L 171.130236 290.209503 
L 171.862896 289.405753 
L 172.595556 288.387831 
L 175.526195 283.497355 
L 176.258855 282.854584 
L 176.991515 282.646357 
L 177.724175 282.874725 
L 178.456835 283.491502 
L 179.922155 285.066625 
L 180.654815 285.675578 
L 181.387475 286.121108 
L 182.120135 286.418589 
L 182.852795 286.559823 
L 183.585455 286.469368 
L 185.050774 285.849336 
L 185.783434 286.036744 
L 186.516094 287.252366 
L 187.981414 291.597825 
L 188.714074 293.00782 
L 189.446734 293.619821 
L 190.179394 292.838394 
L 190.912054 289.860771 
L 191.644714 286.242318 
L 192.377374 283.577384 
L 193.110034 282.78724 
L 193.842694 283.505854 
L 194.575354 284.565497 
L 195.308013 285.060272 
L 196.040673 284.474724 
L 196.773333 282.839449 
L 198.971313 276.044656 
L 199.703973 275.202736 
L 200.436633 275.657726 
L 201.169293 277.248405 
L 203.367273 284.474591 
L 204.099933 285.84728 
L 204.832593 286.000792 
L 205.565253 284.991478 
L 206.297912 283.180359 
L 208.495892 276.614205 
L 209.228552 275.506042 
L 209.961212 275.323071 
L 210.693872 275.857425 
L 211.426532 276.795061 
L 214.357172 281.368495 
L 215.089832 282.048918 
L 215.822492 282.416111 
L 217.287811 282.632392 
L 218.020471 283.200194 
L 220.218451 286.254262 
L 220.951111 286.339863 
L 221.683771 285.501957 
L 222.416431 283.951708 
L 225.347071 276.277065 
L 226.079731 275.561671 
L 226.812391 275.739483 
L 227.545051 276.574715 
L 229.01037 279.058033 
L 232.67367 285.871697 
L 233.40633 286.667788 
L 234.13899 286.688415 
L 234.87165 285.847455 
L 236.33697 283.385103 
L 237.06963 282.486486 
L 239.267609 280.753953 
L 240.732929 279.703616 
L 241.465589 279.336519 
L 242.198249 279.117859 
L 243.663569 279.059644 
L 245.128889 279.130762 
L 245.861549 279.332452 
L 246.594209 280.113933 
L 247.326869 281.655738 
L 249.524848 288.087167 
L 250.257508 289.130371 
L 250.990168 289.082306 
L 251.722828 287.929809 
L 252.455488 285.981443 
L 254.653468 279.141913 
L 255.386128 277.606727 
L 256.118788 276.796736 
L 256.851448 276.742708 
L 257.584108 277.266532 
L 258.316768 278.143414 
L 261.980067 283.405472 
L 262.712727 284.189045 
L 263.445387 284.784445 
L 264.910707 285.488182 
L 266.376027 286.168039 
L 267.108687 286.075053 
L 267.841347 285.421311 
L 268.574007 284.336668 
L 272.237306 277.631582 
L 272.969966 276.650921 
L 273.702626 276.021599 
L 274.435286 275.911541 
L 275.167946 276.42751 
L 275.900606 277.574882 
L 277.365926 281.016178 
L 279.563906 286.584462 
L 280.296566 287.822513 
L 281.029226 288.257563 
L 281.761886 287.726259 
L 284.692525 282.390839 
L 286.157845 280.942976 
L 287.623165 279.88275 
L 289.088485 279.112257 
L 289.821145 278.999846 
L 291.286465 279.217387 
L 292.019125 278.64578 
L 292.751785 277.119387 
L 293.484444 275.076721 
L 294.217104 273.429223 
L 294.949764 273.133568 
L 295.682424 274.421056 
L 297.147744 278.699599 
L 297.880404 280.362558 
L 298.613064 281.380687 
L 299.345724 281.804784 
L 300.078384 281.684106 
L 300.811044 280.98392 
L 301.543704 279.611836 
L 302.276364 277.904842 
L 303.009024 276.628329 
L 303.741684 276.416427 
L 304.474343 277.389188 
L 306.672323 283.048773 
L 307.404983 283.384232 
L 308.137643 282.44969 
L 309.602963 278.665019 
L 310.335623 277.386954 
L 311.068283 277.189104 
L 311.800943 278.031305 
L 312.533603 279.677082 
L 313.266263 281.713366 
L 313.998923 283.333455 
L 314.731582 283.990989 
L 315.464242 283.490831 
L 316.196902 282.026184 
L 316.929562 280.254014 
L 317.662222 278.879363 
L 318.394882 278.343104 
L 319.127542 278.90852 
L 319.860202 280.430248 
L 321.325522 284.300311 
L 322.058182 284.99561 
L 322.790842 284.379393 
L 323.523502 282.746743 
L 324.988822 278.971039 
L 325.721481 278.058076 
L 326.454141 278.214853 
L 327.186801 279.184881 
L 329.384781 283.096545 
L 330.117441 284.095334 
L 330.850101 284.783143 
L 331.582761 285.103404 
L 332.315421 285.01074 
L 333.048081 284.452111 
L 333.780741 283.402762 
L 335.246061 280.556186 
L 335.978721 279.43096 
L 336.71138 278.741407 
L 337.44404 278.566052 
L 338.1767 278.947576 
L 338.90936 279.998076 
L 339.64202 281.743113 
L 341.10734 286.406593 
L 341.84 288.099318 
L 342.57266 288.502142 
L 343.30532 287.598719 
L 344.77064 283.772569 
L 345.5033 282.479154 
L 346.23596 282.179577 
L 346.96862 282.707608 
L 348.433939 284.951808 
L 349.166599 285.771916 
L 349.899259 286.215165 
L 350.631919 285.955742 
L 351.364579 284.859922 
L 352.097239 283.534685 
L 352.829899 282.627006 
L 353.562559 282.521199 
L 354.295219 283.275989 
L 355.760539 285.867762 
L 356.493199 286.505776 
L 357.225859 286.202835 
L 357.958519 285.135418 
L 359.423838 281.864296 
L 360.156498 280.69954 
L 360.889158 280.377369 
L 361.621818 281.06616 
L 362.354478 282.586362 
L 363.819798 286.292236 
L 364.552458 287.360504 
L 365.285118 287.651728 
L 366.017778 287.114892 
L 367.483098 285.110009 
L 368.215758 284.667187 
L 368.948418 285.007875 
L 369.681077 285.935499 
L 370.413737 287.131433 
L 371.146397 288.054907 
L 371.879057 288.152532 
L 372.611717 287.411919 
L 373.344377 286.066995 
L 374.809697 282.881796 
L 375.542357 282.021826 
L 376.275017 282.071447 
L 377.007677 283.070056 
L 379.205657 288.012166 
L 379.938316 288.808393 
L 380.670976 288.911633 
L 381.403636 288.255616 
L 382.868956 286.244048 
L 383.601616 285.825736 
L 384.334276 286.037979 
L 385.799596 287.116053 
L 386.532256 287.211839 
L 387.264916 286.881106 
L 388.730236 285.591225 
L 390.195556 283.996165 
L 391.660875 281.964445 
L 392.393535 281.376184 
L 393.126195 281.441177 
L 394.591515 282.648857 
L 395.324175 282.904209 
L 396.056835 282.332352 
L 396.789495 280.724513 
L 398.254815 276.219735 
L 398.987475 275.719012 
L 399.720135 277.287652 
L 401.918114 286.501413 
L 402.650774 288.13859 
L 403.383434 288.44536 
L 404.116094 287.642034 
L 406.314074 283.466851 
L 407.046734 283.486238 
L 407.779394 284.558223 
L 409.244714 288.367822 
L 409.977374 290.23864 
L 410.710034 291.787394 
L 411.442694 292.747633 
L 412.175354 292.627145 
L 412.908013 291.343131 
L 415.105993 285.072476 
L 415.838653 284.251343 
L 416.571313 284.644668 
L 417.303973 285.969496 
L 419.501953 291.680846 
L 420.234613 292.095939 
L 420.967273 291.385513 
L 422.432593 288.111766 
L 423.165253 286.477059 
L 423.897912 285.172597 
L 424.630572 284.373984 
L 425.363232 284.316976 
L 426.095892 285.168484 
L 428.293872 290.106559 
L 429.026532 290.663628 
L 429.759192 290.286826 
L 430.491852 289.053287 
L 431.957172 286.080641 
L 432.689832 285.052407 
L 433.422492 284.499907 
L 434.155152 284.425808 
L 435.620471 285.185095 
L 436.353131 285.614073 
L 437.085791 286.179887 
L 437.818451 287.050163 
L 440.016431 290.697534 
L 440.749091 291.107006 
L 441.481751 290.648474 
L 442.214411 289.403009 
L 442.947071 287.73043 
L 443.679731 286.415499 
L 444.412391 285.859065 
L 445.145051 285.879675 
L 446.61037 286.371216 
L 447.34303 286.660017 
L 448.07569 287.080463 
L 449.54101 288.371084 
L 450.27367 288.743477 
L 451.00633 288.495563 
L 452.47165 287.025351 
L 453.20431 286.784692 
L 453.93697 287.127737 
L 454.66963 287.706598 
L 455.40229 288.131778 
L 456.134949 288.008739 
L 458.332929 286.181556 
L 459.065589 286.015213 
L 460.530909 286.166189 
L 461.263569 286.131547 
L 461.996229 286.35159 
L 462.728889 287.084267 
L 464.926869 290.322943 
L 465.659529 290.592534 
L 466.392189 290.221273 
L 467.857508 289.086562 
L 469.322828 288.369051 
L 470.788148 287.353149 
L 471.520808 287.160946 
L 472.253468 287.439769 
L 473.718788 288.480623 
L 474.451448 288.702669 
L 475.184108 288.406584 
L 475.916768 287.480205 
L 477.382088 284.97882 
L 478.114747 284.185237 
L 478.847407 283.935193 
L 479.580067 284.2199 
L 480.312727 284.895135 
L 481.045387 285.765563 
L 483.243367 289.379543 
L 483.976027 290.120754 
L 484.708687 290.123614 
L 485.441347 289.28479 
L 486.174007 287.77988 
L 487.639327 284.140137 
L 488.371987 282.852479 
L 489.104646 282.206731 
L 489.837306 282.435514 
L 490.569966 283.54671 
L 492.035286 287.132621 
L 492.767946 288.915293 
L 493.500606 290.210051 
L 494.233266 290.63211 
L 494.965926 290.070008 
L 495.698586 288.717861 
L 497.896566 282.901603 
L 498.629226 281.565509 
L 499.361886 280.898836 
L 500.094545 280.907973 
L 500.827205 281.600218 
L 501.559865 282.85791 
L 502.292525 284.430381 
L 503.025185 285.718596 
L 503.757845 286.427993 
L 504.490505 286.520785 
L 505.955825 285.972598 
L 509.619125 285.648306 
L 510.351785 285.92611 
L 511.817104 286.744661 
L 512.549764 286.563699 
L 513.282424 285.57508 
L 514.747744 282.658841 
L 515.480404 281.724273 
L 516.213064 281.514996 
L 516.945724 282.123405 
L 518.411044 284.881693 
L 519.143704 286.190333 
L 519.876364 286.896712 
L 520.609024 286.950271 
L 522.074343 286.667418 
L 522.807003 286.258553 
L 523.539663 285.349929 
L 525.004983 282.874678 
L 525.737643 282.154619 
L 526.470303 282.145857 
L 527.202963 282.953774 
L 529.400943 287.174247 
L 530.133603 287.934701 
L 530.866263 288.035733 
L 531.598923 287.737257 
L 532.331582 287.653151 
L 533.064242 288.065429 
L 534.529562 289.475833 
L 535.262222 289.700488 
L 535.994882 289.345496 
L 536.727542 288.418761 
L 537.460202 287.008064 
L 538.925522 283.776716 
L 539.658182 282.664969 
L 540.390842 282.112311 
L 541.123502 282.135201 
L 541.856162 282.659595 
L 543.321481 284.612742 
L 544.054141 285.62445 
L 544.786801 286.424185 
L 545.519461 286.996451 
L 546.252121 287.321984 
L 546.984781 287.298897 
L 547.717441 286.609858 
L 548.450101 285.436901 
L 549.182761 284.557488 
L 549.915421 284.481159 
L 550.648081 285.204364 
L 552.113401 287.645276 
L 552.846061 288.324277 
L 553.578721 288.343896 
L 554.31138 287.865269 
L 555.7767 286.270569 
L 557.97468 283.472595 
L 558.70734 283.011593 
L 559.44 283.096165 
L 560.17266 283.823183 
L 560.90532 285.221063 
L 563.1033 290.551113 
L 563.83596 291.214341 
L 564.56862 290.664363 
L 565.301279 289.131471 
L 566.766599 285.182324 
L 567.499259 283.71715 
L 568.231919 283.376862 
L 568.964579 284.296941 
L 569.697239 286.19297 
L 571.162559 290.76505 
L 571.895219 292.532537 
L 572.627879 293.248447 
L 573.360539 292.702414 
L 574.093199 291.110297 
L 575.558519 286.040343 
L 576.291178 284.267086 
L 577.023838 284.072536 
L 577.756498 285.382655 
L 579.954478 292.310386 
L 580.687138 293.387173 
L 581.419798 293.095761 
L 582.152458 291.65479 
L 584.350438 285.021727 
L 585.083098 284.584918 
L 585.815758 285.617428 
L 586.548418 287.698271 
L 587.281077 290.132877 
L 588.013737 292.12648 
L 588.746397 293.069998 
L 589.479057 292.674349 
L 590.211717 291.12077 
L 591.677037 286.638936 
L 592.409697 284.994155 
L 593.142357 284.3212 
L 593.875017 284.808649 
L 594.607677 286.420907 
L 596.805657 293.170677 
L 597.538316 294.272346 
L 598.270976 294.275227 
L 599.003636 293.08647 
L 601.201616 286.633997 
L 601.934276 285.521292 
L 602.666936 285.485678 
L 603.399596 286.36258 
L 604.864916 288.825393 
L 605.597576 289.230249 
L 606.330236 288.958352 
L 607.062896 288.544233 
L 607.795556 288.396218 
L 608.528215 288.661578 
L 609.993535 289.493417 
L 610.726195 289.61857 
L 611.458855 289.372934 
L 612.191515 288.565604 
L 613.656835 285.929852 
L 614.389495 284.974251 
L 615.122155 284.710091 
L 615.854815 285.322628 
L 616.587475 286.87051 
L 618.785455 293.564609 
L 619.518114 295.081642 
L 620.250774 295.693867 
L 620.983434 295.349229 
L 621.716094 294.154013 
L 622.448754 292.210235 
L 623.914074 287.7784 
L 624.646734 286.349591 
L 625.379394 285.84785 
L 626.112054 286.3818 
L 626.844714 287.900091 
L 629.042694 293.985335 
L 629.775354 294.95554 
L 630.508013 294.890724 
L 631.240673 293.903517 
L 631.973333 292.106301 
L 633.438653 287.26433 
L 634.171313 285.356826 
L 634.903973 284.299985 
L 635.636633 284.251013 
L 636.369293 285.21928 
L 637.101953 286.974251 
L 638.567273 290.985701 
L 639.299933 292.563659 
L 640.032593 293.715845 
L 640.765253 294.444407 
L 641.497912 294.638877 
L 642.230572 294.166066 
L 642.963232 293.043411 
L 645.161212 288.914384 
L 647.359192 285.84843 
L 648.091852 285.098005 
L 648.824512 284.740899 
L 649.557172 284.95099 
L 650.289832 285.802286 
L 652.487811 289.938822 
L 653.953131 291.407307 
L 654.685791 292.170674 
L 656.151111 294.251512 
L 656.883771 294.939023 
L 657.616431 294.889626 
L 658.349091 294.041136 
L 659.081751 292.631208 
L 659.814411 290.795206 
L 662.012391 284.287736 
L 662.745051 282.83663 
L 663.47771 282.20457 
L 664.21037 282.540207 
L 664.94303 283.901323 
L 666.40835 288.55791 
L 667.14101 290.923002 
L 667.87367 292.575187 
L 668.60633 293.052553 
L 669.33899 292.460287 
L 670.07165 291.113734 
L 670.80431 289.172646 
L 672.26963 284.642956 
L 673.00229 283.084651 
L 673.734949 282.541837 
L 674.467609 283.155688 
L 675.200269 284.696752 
L 677.398249 291.360868 
L 678.130909 292.556853 
L 678.863569 292.581093 
L 679.596229 291.616169 
L 680.328889 289.99651 
L 682.526869 283.486585 
L 683.259529 282.392021 
L 683.992189 282.515582 
L 684.724848 283.747608 
L 686.190168 287.725455 
L 686.922828 289.768094 
L 687.655488 291.331835 
L 688.388148 292.051329 
L 689.120808 291.718046 
L 689.853468 290.440412 
L 690.586128 288.428249 
L 692.051448 283.939999 
L 692.784108 282.55503 
L 693.516768 282.123191 
L 694.249428 282.718492 
L 694.982088 284.201158 
L 696.447407 288.563491 
L 697.180067 290.119546 
L 697.912727 290.465352 
L 698.645387 289.742992 
L 699.378047 288.378136 
L 702.308687 281.827168 
L 703.041347 281.012749 
L 703.774007 280.859748 
L 704.506667 281.370007 
L 705.239327 282.362419 
L 706.704646 285.080394 
L 709.635286 291.138944 
L 710.367946 292.249169 
L 711.100606 292.723464 
L 711.833266 292.345166 
L 712.565926 291.070814 
L 714.763906 285.292426 
L 715.496566 284.353732 
L 716.229226 284.269991 
L 716.961886 285.012916 
L 719.159865 288.94677 
L 719.892525 289.443644 
L 720.625185 289.098592 
L 722.090505 287.113589 
L 723.555825 285.23953 
L 725.753805 282.659112 
L 727.219125 280.756461 
L 728.684444 279.236883 
L 729.417104 278.744051 
L 730.149764 278.550444 
L 730.882424 278.875801 
L 731.615084 279.854417 
L 732.347744 281.379959 
L 735.278384 288.811699 
L 736.011044 289.709427 
L 736.743704 289.682549 
L 737.476364 288.724405 
L 738.941684 285.584344 
L 739.674343 284.371748 
L 740.407003 283.502413 
L 741.139663 282.90097 
L 744.070303 281.222562 
L 745.535623 280.705324 
L 746.268283 280.65475 
L 747.000943 280.999947 
L 747.733603 281.936559 
L 748.466263 283.431908 
L 750.664242 289.293056 
L 751.396902 290.346078 
L 752.129562 290.504473 
L 752.862222 289.700283 
L 753.594882 287.984493 
L 755.792862 281.386254 
L 756.525522 280.371341 
L 757.258182 280.380453 
L 757.990842 281.331669 
L 759.456162 284.898833 
L 760.921481 288.446473 
L 761.654141 289.610057 
L 762.386801 289.861699 
L 763.119461 289.064396 
L 763.852121 287.50437 
L 766.050101 281.919054 
L 766.782761 280.916844 
L 767.515421 280.670239 
L 768.248081 281.196843 
L 768.980741 282.474685 
L 771.178721 287.753992 
L 771.91138 289.040326 
L 772.64404 289.426571 
L 773.3767 288.727596 
L 774.10936 287.231559 
L 775.57468 283.64112 
L 776.30734 282.154677 
L 777.04 281.207538 
L 777.77266 280.905352 
L 778.50532 281.318013 
L 779.23798 282.45414 
L 780.7033 285.928292 
L 781.43596 287.676889 
L 782.16862 288.819723 
L 782.901279 288.984145 
L 783.633939 288.10811 
L 785.099259 284.828771 
L 785.831919 283.171443 
L 786.564579 281.825498 
L 787.297239 280.992668 
L 788.029899 280.791013 
L 788.762559 281.298747 
L 789.495219 282.509384 
L 791.693199 287.70349 
L 792.425859 288.727023 
L 793.158519 288.734326 
L 793.891178 287.733639 
L 796.821818 281.407733 
L 797.554478 280.634622 
L 798.287138 280.519623 
L 799.019798 281.135293 
L 799.752458 282.441808 
L 801.950438 287.693242 
L 802.683098 288.697239 
L 803.415758 288.661321 
L 804.148418 287.617254 
L 807.079057 281.500371 
L 807.811717 280.672653 
L 808.544377 280.417904 
L 809.277037 280.857434 
L 810.009697 282.02876 
L 811.475017 285.473523 
L 812.940337 288.717388 
L 813.672997 289.639432 
L 814.405657 289.746036 
L 815.138316 288.946882 
L 815.870976 287.256635 
L 816.603636 284.842435 
L 816.603636 284.842435 
" clip-path="url(#p39e7d5edb5)" style="fill: none; stroke: #2ca02c; stroke-width: 1.2; stroke-linecap: square"/>
   </g>
   <g id="line2d_25">
    <path d="M 84.676364 304.805455 
L 85.409024 291.168677 
L 86.141684 257.169899 
L 88.339663 116.437575 
L 89.072323 81.567649 
L 89.804983 61.145693 
L 90.537643 57.704251 
L 91.270303 72.547022 
L 92.002963 103.587185 
L 93.468283 175.488592 
L 94.200943 201.105929 
L 94.933603 217.551134 
L 95.666263 227.231801 
L 96.398923 233.015031 
L 97.864242 241.461415 
L 98.596902 244.932406 
L 99.329562 247.785103 
L 100.062222 250.02499 
L 100.794882 251.739757 
L 101.527542 252.984743 
L 102.260202 253.801267 
L 102.992862 254.246403 
L 103.725522 254.418789 
L 104.458182 254.379965 
L 105.923502 253.942483 
L 107.388822 253.224787 
L 108.854141 252.806145 
L 109.586801 252.826638 
L 111.052121 253.242722 
L 112.517441 253.60512 
L 113.982761 253.720733 
L 115.448081 253.558239 
L 116.913401 253.275965 
L 118.378721 253.295904 
L 119.84404 253.443096 
L 121.30936 253.360943 
L 123.50734 253.090278 
L 126.43798 252.874048 
L 128.63596 252.446592 
L 130.101279 252.154786 
L 133.764579 251.699503 
L 135.962559 251.162338 
L 137.427879 250.779591 
L 141.823838 250.019568 
L 143.289158 249.708213 
L 144.754478 249.676232 
L 148.417778 250.034974 
L 155.011717 249.84644 
L 157.942357 249.510683 
L 160.140337 249.876504 
L 162.338316 250.162641 
L 163.803636 250.163994 
L 165.268956 250.110797 
L 168.199596 250.166869 
L 170.397576 249.933644 
L 172.595556 249.542962 
L 174.060875 249.580326 
L 176.991515 249.94445 
L 179.922155 250.1241 
L 182.120135 250.294109 
L 182.852795 250.283365 
L 183.585455 249.970182 
L 184.318114 248.902087 
L 185.050774 246.635176 
L 185.783434 242.913402 
L 187.981414 228.199706 
L 188.714074 226.9856 
L 189.446734 230.360713 
L 190.179394 238.682138 
L 192.377374 272.853793 
L 193.110034 279.43595 
L 193.842694 283.101071 
L 194.575354 284.474139 
L 195.308013 284.68125 
L 197.505993 284.301432 
L 198.971313 284.36888 
L 201.169293 284.833286 
L 201.901953 284.778101 
L 204.099933 284.154124 
L 205.565253 284.137375 
L 207.030572 284.443051 
L 209.228552 285.20345 
L 211.426532 286.337992 
L 214.357172 287.890882 
L 215.822492 288.388985 
L 216.555152 288.481245 
L 218.753131 288.338975 
L 220.951111 287.973613 
L 222.416431 287.455497 
L 223.881751 286.602905 
L 226.079731 284.977451 
L 228.27771 283.206122 
L 229.01037 282.856205 
L 230.47569 282.551698 
L 231.94101 282.428197 
L 233.40633 282.611272 
L 234.87165 283.193266 
L 238.534949 285.068693 
L 240.000269 285.268775 
L 240.732929 285.212216 
L 242.198249 284.749655 
L 245.128889 283.353338 
L 245.861549 283.167529 
L 247.326869 283.140527 
L 249.524848 283.540593 
L 258.316768 285.768779 
L 260.514747 286.502184 
L 261.980067 287.281027 
L 265.643367 289.670275 
L 267.108687 290.230369 
L 269.306667 290.841523 
L 270.771987 290.934697 
L 275.167946 290.943227 
L 276.633266 290.990211 
L 282.494545 290.48533 
L 283.959865 290.485333 
L 286.157845 290.151955 
L 286.890505 289.981666 
L 287.623165 289.591241 
L 288.355825 288.779717 
L 289.088485 287.26335 
L 289.821145 284.673099 
L 290.553805 280.780153 
L 292.019125 270.569975 
L 292.751785 266.718983 
L 293.484444 265.843266 
L 294.217104 268.920718 
L 294.949764 275.837478 
L 295.682424 284.939808 
L 296.415084 290.748831 
L 297.147744 288.79244 
L 298.613064 278.066533 
L 299.345724 274.137629 
L 300.078384 271.41096 
L 300.811044 269.622362 
L 301.543704 268.493172 
L 302.276364 267.792917 
L 303.009024 267.368376 
L 303.741684 267.161215 
L 304.474343 267.126613 
L 305.939663 267.368676 
L 308.137643 268.09969 
L 310.335623 269.078262 
L 311.800943 269.71449 
L 313.266263 270.105629 
L 314.731582 270.210999 
L 316.196902 270.034342 
L 317.662222 269.774373 
L 319.127542 269.829287 
L 326.454141 271.245469 
L 334.513401 271.14002 
L 335.978721 271.250632 
L 339.64202 271.774156 
L 341.84 271.602101 
L 344.03798 271.130576 
L 348.433939 269.960993 
L 350.631919 269.79491 
L 351.364579 269.585468 
L 352.097239 269.246274 
L 354.295219 267.935535 
L 355.027879 267.747762 
L 356.493199 267.785453 
L 357.958519 267.80189 
L 360.156498 267.555228 
L 362.354478 267.290253 
L 364.552458 267.251191 
L 366.750438 267.192306 
L 368.948418 267.16824 
L 372.611717 267.322411 
L 374.077037 266.967761 
L 375.542357 266.221031 
L 377.007677 265.35443 
L 377.740337 265.196141 
L 378.472997 265.290174 
L 379.938316 265.891183 
L 381.403636 266.954815 
L 383.601616 268.880757 
L 385.066936 269.816888 
L 386.532256 270.382519 
L 387.997576 270.561134 
L 389.462896 270.387473 
L 390.928215 269.946112 
L 391.660875 269.654332 
L 392.393535 269.101484 
L 393.126195 268.029791 
L 393.858855 266.157943 
L 394.591515 263.10465 
L 395.324175 258.703676 
L 396.789495 248.15041 
L 397.522155 244.700451 
L 398.254815 244.889846 
L 398.987475 250.010064 
L 399.720135 260.314948 
L 401.185455 288.511042 
L 401.918114 298.455699 
L 402.650774 296.919389 
L 403.383434 291.453865 
L 404.116094 287.439605 
L 404.848754 284.967225 
L 405.581414 283.701191 
L 406.314074 283.30169 
L 407.046734 283.447027 
L 409.244714 284.502909 
L 410.710034 284.88366 
L 412.175354 285.016044 
L 414.373333 284.954572 
L 416.571313 284.590428 
L 420.967273 283.559889 
L 422.432593 283.080214 
L 423.897912 282.570698 
L 424.630572 282.491604 
L 425.363232 282.578645 
L 426.095892 282.858014 
L 427.561212 283.924854 
L 429.026532 285.016276 
L 430.491852 285.87708 
L 431.957172 286.469782 
L 433.422492 286.827834 
L 434.887811 286.891355 
L 436.353131 286.530971 
L 437.818451 285.895086 
L 440.749091 284.249459 
L 441.481751 284.083015 
L 443.679731 284.135087 
L 445.145051 284.261753 
L 446.61037 284.636967 
L 448.07569 285.311757 
L 449.54101 286.242437 
L 451.73899 287.762775 
L 453.20431 288.318466 
L 454.66963 288.559384 
L 456.134949 288.44688 
L 457.600269 288.09104 
L 459.798249 287.333647 
L 461.263569 286.647128 
L 464.194209 284.916985 
L 464.926869 284.768832 
L 466.392189 284.796309 
L 467.857508 285.143223 
L 470.788148 286.31762 
L 472.253468 286.424715 
L 473.718788 286.260297 
L 476.649428 285.769564 
L 480.312727 286.217181 
L 481.045387 286.072559 
L 483.243367 285.264701 
L 483.976027 285.159925 
L 484.708687 285.232635 
L 485.441347 285.492072 
L 488.371987 287.044156 
L 489.104646 287.240641 
L 489.837306 287.264613 
L 490.569966 287.098937 
L 493.500606 285.704431 
L 494.233266 285.671969 
L 495.698586 285.90457 
L 496.431246 285.92028 
L 497.163906 285.807781 
L 497.896566 285.54606 
L 498.629226 284.939685 
L 499.361886 283.831727 
L 500.094545 282.159642 
L 501.559865 278.226185 
L 502.292525 277.317241 
L 503.025185 278.197598 
L 503.757845 281.308432 
L 505.223165 291.120317 
L 505.955825 294.425454 
L 506.688485 295.671668 
L 507.421145 295.556089 
L 508.886465 294.649773 
L 509.619125 294.422709 
L 510.351785 294.363748 
L 511.817104 294.576355 
L 517.678384 295.993625 
L 519.876364 296.246126 
L 522.807003 296.325301 
L 524.272323 296.25196 
L 525.004983 296.09547 
L 527.935623 295.081374 
L 530.133603 294.975837 
L 531.598923 294.575268 
L 533.796902 293.886638 
L 534.529562 293.864152 
L 535.262222 293.987502 
L 538.192862 294.818131 
L 539.658182 295.171892 
L 541.856162 295.924496 
L 542.588822 295.967878 
L 544.054141 295.562031 
L 546.252121 294.52206 
L 549.182761 293.119683 
L 549.915421 292.952778 
L 550.648081 292.947567 
L 552.113401 293.377487 
L 555.04404 294.494014 
L 556.50936 294.687698 
L 558.70734 294.907841 
L 560.17266 295.31401 
L 562.37064 296.020706 
L 563.83596 296.261389 
L 564.56862 296.216403 
L 566.766599 295.786213 
L 573.360539 295.9873 
L 576.291178 296.288962 
L 577.023838 296.237597 
L 578.489158 295.732223 
L 579.954478 295.344942 
L 581.419798 295.284323 
L 582.885118 295.488501 
L 587.281077 296.434341 
L 589.479057 296.600649 
L 591.677037 296.553034 
L 593.875017 296.315691 
L 596.805657 295.732457 
L 600.468956 294.891047 
L 601.934276 295.069368 
L 603.399596 295.398441 
L 604.132256 295.43133 
L 604.864916 295.278355 
L 605.597576 294.988984 
L 606.330236 294.857875 
L 607.062896 295.439358 
L 607.795556 296.933612 
L 608.528215 299.147354 
L 609.260875 301.729546 
L 609.993535 303.576639 
L 610.726195 302.004463 
L 611.458855 300.027646 
L 612.191515 298.492797 
L 612.924175 297.481136 
L 613.656835 296.854003 
L 614.389495 296.479836 
L 615.854815 296.120416 
L 616.587475 296.113383 
L 618.785455 296.346844 
L 620.250774 296.212946 
L 623.181414 295.739389 
L 624.646734 296.072751 
L 626.112054 296.513272 
L 627.577374 296.74143 
L 629.042694 296.768542 
L 633.438653 296.448602 
L 638.567273 296.951745 
L 641.497912 296.894224 
L 645.161212 296.548291 
L 649.557172 296.131052 
L 654.685791 295.936399 
L 660.547071 295.857627 
L 662.012391 296.149426 
L 663.47771 296.728858 
L 664.21037 296.854091 
L 665.67569 296.744837 
L 667.14101 296.635946 
L 669.33899 296.735166 
L 670.80431 296.794384 
L 672.26963 296.59387 
L 673.734949 296.288067 
L 674.467609 296.248097 
L 678.863569 296.623516 
L 681.061549 296.692816 
L 683.259529 296.499338 
L 685.457508 296.039399 
L 688.388148 295.107413 
L 691.318788 294.240766 
L 693.516768 293.798649 
L 696.447407 293.460188 
L 700.110707 293.328397 
L 703.041347 293.425339 
L 705.239327 293.707916 
L 707.437306 294.251074 
L 711.100606 295.412686 
L 713.298586 296.530146 
L 714.031246 296.489649 
L 715.496566 295.54204 
L 716.229226 295.124354 
L 717.694545 294.659353 
L 719.159865 294.42318 
L 720.625185 294.685332 
L 722.090505 295.17419 
L 723.555825 295.263407 
L 725.021145 295.353798 
L 726.486465 295.766076 
L 728.684444 296.548926 
L 730.149764 296.679504 
L 733.080404 296.597281 
L 735.278384 296.042424 
L 736.743704 296.066868 
L 739.674343 296.39454 
L 743.337643 297.080736 
L 745.535623 297.433476 
L 747.000943 297.376337 
L 759.456162 295.273344 
L 763.852121 294.173374 
L 767.515421 293.528626 
L 771.91138 293.027616 
L 778.50532 292.558252 
L 785.099259 292.246897 
L 787.297239 292.35951 
L 789.495219 292.673858 
L 792.425859 293.349256 
L 796.089158 294.47762 
L 801.950438 296.448107 
L 803.415758 296.648595 
L 804.881077 296.661802 
L 806.346397 296.500554 
L 807.811717 296.177052 
L 811.475017 295.131787 
L 812.940337 294.841703 
L 813.672997 294.438339 
L 815.138316 293.144628 
L 815.870976 293.142237 
L 816.603636 294.281279 
L 816.603636 294.281279 
" clip-path="url(#p39e7d5edb5)" style="fill: none; stroke-dasharray: 3.7,1.6; stroke-dashoffset: 0; stroke: #1f77b4"/>
   </g>
   <g id="patch_3">
    <path d="M 48.08 318.04 
L 48.08 26.88 
" style="fill: none; stroke: #000000; stroke-width: 0.8; stroke-linejoin: miter; stroke-linecap: square"/>
   </g>
   <g id="patch_4">
    <path d="M 853.2 318.04 
L 853.2 26.88 
" style="fill: none; stroke: #000000; stroke-width: 0.8; stroke-linejoin: miter; stroke-linecap: square"/>
   </g>
   <g id="patch_5">
    <path d="M 48.08 318.04 
L 853.2 318.04 
" style="fill: none; stroke: #000000; stroke-width: 0.8; stroke-linejoin: miter; stroke-linecap: square"/>
   </g>
   <g id="patch_6">
    <path d="M 48.08 26.88 
L 853.2 26.88 
" style="fill: none; stroke: #000000; stroke-width: 0.8; stroke-linejoin: miter; stroke-linecap: square"/>
   </g>
   <g id="text_14">
    <!-- Position Error Magnitude — waypoint -->
    <g transform="translate(314.147109 20.88) scale(0.13 -0.13)">
     <defs>
      <path id="DejaVuSans-Bold-50" d="M 588 4666 
L 2584 4666 
Q 3475 4666 3951 4270 
Q 4428 3875 4428 3144 
Q 4428 2409 3951 2014 
Q 3475 1619 2584 1619 
L 1791 1619 
L 1791 0 
L 588 0 
L 588 4666 
z
M 1791 3794 
L 1791 2491 
L 2456 2491 
Q 2806 2491 2997 2661 
Q 3188 2831 3188 3144 
Q 3188 3456 2997 3625 
Q 2806 3794 2456 3794 
L 1791 3794 
z
" transform="scale(0.015625)"/>
      <path id="DejaVuSans-Bold-6f" d="M 2203 2784 
Q 1831 2784 1636 2517 
Q 1441 2250 1441 1747 
Q 1441 1244 1636 976 
Q 1831 709 2203 709 
Q 2569 709 2762 976 
Q 2956 1244 2956 1747 
Q 2956 2250 2762 2517 
Q 2569 2784 2203 2784 
z
M 2203 3584 
Q 3106 3584 3614 3096 
Q 4122 2609 4122 1747 
Q 4122 884 3614 396 
Q 3106 -91 2203 -91 
Q 1297 -91 786 396 
Q 275 884 275 1747 
Q 275 2609 786 3096 
Q 1297 3584 2203 3584 
z
" transform="scale(0.015625)"/>
      <path id="DejaVuSans-Bold-73" d="M 3272 3391 
L 3272 2541 
Q 2913 2691 2578 2766 
Q 2244 2841 1947 2841 
Q 1628 2841 1473 2761 
Q 1319 2681 1319 2516 
Q 1319 2381 1436 2309 
Q 1553 2238 1856 2203 
L 2053 2175 
Q 2913 2066 3209 1816 
Q 3506 1566 3506 1031 
Q 3506 472 3093 190 
Q 2681 -91 1863 -91 
Q 1516 -91 1145 -36 
Q 775 19 384 128 
L 384 978 
Q 719 816 1070 734 
Q 1422 653 1784 653 
Q 2113 653 2278 743 
Q 2444 834 2444 1013 
Q 2444 1163 2330 1236 
Q 2216 1309 1875 1350 
L 1678 1375 
Q 931 1469 631 1722 
Q 331 1975 331 2491 
Q 331 3047 712 3315 
Q 1094 3584 1881 3584 
Q 2191 3584 2531 3537 
Q 2872 3491 3272 3391 
z
" transform="scale(0.015625)"/>
      <path id="DejaVuSans-Bold-69" d="M 538 3500 
L 1656 3500 
L 1656 0 
L 538 0 
L 538 3500 
z
M 538 4863 
L 1656 4863 
L 1656 3950 
L 538 3950 
L 538 4863 
z
" transform="scale(0.015625)"/>
      <path id="DejaVuSans-Bold-74" d="M 1759 4494 
L 1759 3500 
L 2913 3500 
L 2913 2700 
L 1759 2700 
L 1759 1216 
Q 1759 972 1856 886 
Q 1953 800 2241 800 
L 2816 800 
L 2816 0 
L 1856 0 
Q 1194 0 917 276 
Q 641 553 641 1216 
L 641 2700 
L 84 2700 
L 84 3500 
L 641 3500 
L 641 4494 
L 1759 4494 
z
" transform="scale(0.015625)"/>
      <path id="DejaVuSans-Bold-6e" d="M 4056 2131 
L 4056 0 
L 2931 0 
L 2931 347 
L 2931 1631 
Q 2931 2084 2911 2256 
Q 2891 2428 2841 2509 
Q 2775 2619 2662 2680 
Q 2550 2741 2406 2741 
Q 2056 2741 1856 2470 
Q 1656 2200 1656 1722 
L 1656 0 
L 538 0 
L 538 3500 
L 1656 3500 
L 1656 2988 
Q 1909 3294 2193 3439 
Q 2478 3584 2822 3584 
Q 3428 3584 3742 3212 
Q 4056 2841 4056 2131 
z
" transform="scale(0.015625)"/>
      <path id="DejaVuSans-Bold-20" transform="scale(0.015625)"/>
      <path id="DejaVuSans-Bold-45" d="M 588 4666 
L 3834 4666 
L 3834 3756 
L 1791 3756 
L 1791 2888 
L 3713 2888 
L 3713 1978 
L 1791 1978 
L 1791 909 
L 3903 909 
L 3903 0 
L 588 0 
L 588 4666 
z
" transform="scale(0.015625)"/>
      <path id="DejaVuSans-Bold-72" d="M 3138 2547 
Q 2991 2616 2845 2648 
Q 2700 2681 2553 2681 
Q 2122 2681 1889 2404 
Q 1656 2128 1656 1613 
L 1656 0 
L 538 0 
L 538 3500 
L 1656 3500 
L 1656 2925 
Q 1872 3269 2151 3426 
Q 2431 3584 2822 3584 
Q 2878 3584 2943 3579 
Q 3009 3575 3134 3559 
L 3138 2547 
z
" transform="scale(0.015625)"/>
      <path id="DejaVuSans-Bold-4d" d="M 588 4666 
L 2119 4666 
L 3181 2169 
L 4250 4666 
L 5778 4666 
L 5778 0 
L 4641 0 
L 4641 3413 
L 3566 897 
L 2803 897 
L 1728 3413 
L 1728 0 
L 588 0 
L 588 4666 
z
" transform="scale(0.015625)"/>
      <path id="DejaVuSans-Bold-61" d="M 2106 1575 
Q 1756 1575 1579 1456 
Q 1403 1338 1403 1106 
Q 1403 894 1545 773 
Q 1688 653 1941 653 
Q 2256 653 2472 879 
Q 2688 1106 2688 1447 
L 2688 1575 
L 2106 1575 
z
M 3816 1997 
L 3816 0 
L 2688 0 
L 2688 519 
Q 2463 200 2181 54 
Q 1900 -91 1497 -91 
Q 953 -91 614 226 
Q 275 544 275 1050 
Q 275 1666 698 1953 
Q 1122 2241 2028 2241 
L 2688 2241 
L 2688 2328 
Q 2688 2594 2478 2717 
Q 2269 2841 1825 2841 
Q 1466 2841 1156 2769 
Q 847 2697 581 2553 
L 581 3406 
Q 941 3494 1303 3539 
Q 1666 3584 2028 3584 
Q 2975 3584 3395 3211 
Q 3816 2838 3816 1997 
z
" transform="scale(0.015625)"/>
      <path id="DejaVuSans-Bold-67" d="M 2919 594 
Q 2688 288 2409 144 
Q 2131 0 1766 0 
Q 1125 0 706 504 
Q 288 1009 288 1791 
Q 288 2575 706 3076 
Q 1125 3578 1766 3578 
Q 2131 3578 2409 3434 
Q 2688 3291 2919 2981 
L 2919 3500 
L 4044 3500 
L 4044 353 
Q 4044 -491 3511 -936 
Q 2978 -1381 1966 -1381 
Q 1638 -1381 1331 -1331 
Q 1025 -1281 716 -1178 
L 716 -306 
Q 1009 -475 1290 -558 
Q 1572 -641 1856 -641 
Q 2406 -641 2662 -400 
Q 2919 -159 2919 353 
L 2919 594 
z
M 2181 2772 
Q 1834 2772 1640 2515 
Q 1447 2259 1447 1791 
Q 1447 1309 1634 1061 
Q 1822 813 2181 813 
Q 2531 813 2725 1069 
Q 2919 1325 2919 1791 
Q 2919 2259 2725 2515 
Q 2531 2772 2181 2772 
z
" transform="scale(0.015625)"/>
      <path id="DejaVuSans-Bold-75" d="M 500 1363 
L 500 3500 
L 1625 3500 
L 1625 3150 
Q 1625 2866 1622 2436 
Q 1619 2006 1619 1863 
Q 1619 1441 1641 1255 
Q 1663 1069 1716 984 
Q 1784 875 1895 815 
Q 2006 756 2150 756 
Q 2500 756 2700 1025 
Q 2900 1294 2900 1772 
L 2900 3500 
L 4019 3500 
L 4019 0 
L 2900 0 
L 2900 506 
Q 2647 200 2364 54 
Q 2081 -91 1741 -91 
Q 1134 -91 817 281 
Q 500 653 500 1363 
z
" transform="scale(0.015625)"/>
      <path id="DejaVuSans-Bold-64" d="M 2919 2988 
L 2919 4863 
L 4044 4863 
L 4044 0 
L 2919 0 
L 2919 506 
Q 2688 197 2409 53 
Q 2131 -91 1766 -91 
Q 1119 -91 703 423 
Q 288 938 288 1747 
Q 288 2556 703 3070 
Q 1119 3584 1766 3584 
Q 2128 3584 2408 3439 
Q 2688 3294 2919 2988 
z
M 2181 722 
Q 2541 722 2730 984 
Q 2919 1247 2919 1747 
Q 2919 2247 2730 2509 
Q 2541 2772 2181 2772 
Q 1825 2772 1636 2509 
Q 1447 2247 1447 1747 
Q 1447 1247 1636 984 
Q 1825 722 2181 722 
z
" transform="scale(0.015625)"/>
      <path id="DejaVuSans-Bold-65" d="M 4031 1759 
L 4031 1441 
L 1416 1441 
Q 1456 1047 1700 850 
Q 1944 653 2381 653 
Q 2734 653 3104 758 
Q 3475 863 3866 1075 
L 3866 213 
Q 3469 63 3072 -14 
Q 2675 -91 2278 -91 
Q 1328 -91 801 392 
Q 275 875 275 1747 
Q 275 2603 792 3093 
Q 1309 3584 2216 3584 
Q 3041 3584 3536 3087 
Q 4031 2591 4031 1759 
z
M 2881 2131 
Q 2881 2450 2695 2645 
Q 2509 2841 2209 2841 
Q 1884 2841 1681 2658 
Q 1478 2475 1428 2131 
L 2881 2131 
z
" transform="scale(0.015625)"/>
      <path id="DejaVuSans-Bold-2014" d="M 344 2156 
L 6056 2156 
L 6056 1350 
L 344 1350 
L 344 2156 
z
" transform="scale(0.015625)"/>
      <path id="DejaVuSans-Bold-77" d="M 225 3500 
L 1313 3500 
L 1900 1088 
L 2491 3500 
L 3425 3500 
L 4013 1113 
L 4603 3500 
L 5691 3500 
L 4769 0 
L 3547 0 
L 2956 2406 
L 2369 0 
L 1147 0 
L 225 3500 
z
" transform="scale(0.015625)"/>
      <path id="DejaVuSans-Bold-79" d="M 78 3500 
L 1197 3500 
L 2138 1125 
L 2938 3500 
L 4056 3500 
L 2584 -331 
Q 2363 -916 2067 -1148 
Q 1772 -1381 1288 -1381 
L 641 -1381 
L 641 -647 
L 991 -647 
Q 1275 -647 1404 -556 
Q 1534 -466 1606 -231 
L 1638 -134 
L 78 3500 
z
" transform="scale(0.015625)"/>
      <path id="DejaVuSans-Bold-70" d="M 1656 506 
L 1656 -1331 
L 538 -1331 
L 538 3500 
L 1656 3500 
L 1656 2988 
Q 1888 3294 2169 3439 
Q 2450 3584 2816 3584 
Q 3463 3584 3878 3070 
Q 4294 2556 4294 1747 
Q 4294 938 3878 423 
Q 3463 -91 2816 -91 
Q 2450 -91 2169 54 
Q 1888 200 1656 506 
z
M 2400 2772 
Q 2041 2772 1848 2508 
Q 1656 2244 1656 1747 
Q 1656 1250 1848 986 
Q 2041 722 2400 722 
Q 2759 722 2948 984 
Q 3138 1247 3138 1747 
Q 3138 2247 2948 2509 
Q 2759 2772 2400 2772 
z
" transform="scale(0.015625)"/>
     </defs>
     <use xlink:href="#DejaVuSans-Bold-50"/>
     <use xlink:href="#DejaVuSans-Bold-6f" transform="translate(73.291016 0)"/>
     <use xlink:href="#DejaVuSans-Bold-73" transform="translate(141.992188 0)"/>
     <use xlink:href="#DejaVuSans-Bold-69" transform="translate(201.513672 0)"/>
     <use xlink:href="#DejaVuSans-Bold-74" transform="translate(235.791016 0)"/>
     <use xlink:href="#DejaVuSans-Bold-69" transform="translate(283.59375 0)"/>
     <use xlink:href="#DejaVuSans-Bold-6f" transform="translate(317.871094 0)"/>
     <use xlink:href="#DejaVuSans-Bold-6e" transform="translate(386.572266 0)"/>
     <use xlink:href="#DejaVuSans-Bold-20" transform="translate(457.763672 0)"/>
     <use xlink:href="#DejaVuSans-Bold-45" transform="translate(492.578125 0)"/>
     <use xlink:href="#DejaVuSans-Bold-72" transform="translate(560.888672 0)"/>
     <use xlink:href="#DejaVuSans-Bold-72" transform="translate(610.205078 0)"/>
     <use xlink:href="#DejaVuSans-Bold-6f" transform="translate(659.521484 0)"/>
     <use xlink:href="#DejaVuSans-Bold-72" transform="translate(728.222656 0)"/>
     <use xlink:href="#DejaVuSans-Bold-20" transform="translate(777.539062 0)"/>
     <use xlink:href="#DejaVuSans-Bold-4d" transform="translate(812.353516 0)"/>
     <use xlink:href="#DejaVuSans-Bold-61" transform="translate(911.865234 0)"/>
     <use xlink:href="#DejaVuSans-Bold-67" transform="translate(979.345703 0)"/>
     <use xlink:href="#DejaVuSans-Bold-6e" transform="translate(1050.927734 0)"/>
     <use xlink:href="#DejaVuSans-Bold-69" transform="translate(1122.119141 0)"/>
     <use xlink:href="#DejaVuSans-Bold-74" transform="translate(1156.396484 0)"/>
     <use xlink:href="#DejaVuSans-Bold-75" transform="translate(1204.199219 0)"/>
     <use xlink:href="#DejaVuSans-Bold-64" transform="translate(1275.390625 0)"/>
     <use xlink:href="#DejaVuSans-Bold-65" transform="translate(1346.972656 0)"/>
     <use xlink:href="#DejaVuSans-Bold-20" transform="translate(1414.794922 0)"/>
     <use xlink:href="#DejaVuSans-Bold-2014" transform="translate(1449.609375 0)"/>
     <use xlink:href="#DejaVuSans-Bold-20" transform="translate(1549.609375 0)"/>
     <use xlink:href="#DejaVuSans-Bold-77" transform="translate(1584.423828 0)"/>
     <use xlink:href="#DejaVuSans-Bold-61" transform="translate(1676.806641 0)"/>
     <use xlink:href="#DejaVuSans-Bold-79" transform="translate(1741.162109 0)"/>
     <use xlink:href="#DejaVuSans-Bold-70" transform="translate(1806.347656 0)"/>
     <use xlink:href="#DejaVuSans-Bold-6f" transform="translate(1877.929688 0)"/>
     <use xlink:href="#DejaVuSans-Bold-69" transform="translate(1946.630859 0)"/>
     <use xlink:href="#DejaVuSans-Bold-6e" transform="translate(1980.908203 0)"/>
     <use xlink:href="#DejaVuSans-Bold-74" transform="translate(2052.099609 0)"/>
    </g>
   </g>
   <g id="legend_1">
    <g id="patch_7">
     <path d="M 778.354688 78.914375 
L 846.2 78.914375 
Q 848.2 78.914375 848.2 76.914375 
L 848.2 33.88 
Q 848.2 31.88 846.2 31.88 
L 778.354688 31.88 
Q 776.354688 31.88 776.354688 33.88 
L 776.354688 76.914375 
Q 776.354688 78.914375 778.354688 78.914375 
z
" style="fill: #ffffff; opacity: 0.8; stroke: #cccccc; stroke-linejoin: miter"/>
    </g>
    <g id="line2d_26">
     <path d="M 780.354688 39.978437 
L 790.354688 39.978437 
L 800.354688 39.978437 
" style="fill: none; stroke: #888888; stroke-opacity: 0.6; stroke-linecap: square"/>
    </g>
    <g id="text_15">
     <!-- PID -->
     <g transform="translate(808.354688 43.478437) scale(0.1 -0.1)">
      <defs>
       <path id="DejaVuSans-50" d="M 1259 4147 
L 1259 2394 
L 2053 2394 
Q 2494 2394 2734 2622 
Q 2975 2850 2975 3272 
Q 2975 3691 2734 3919 
Q 2494 4147 2053 4147 
L 1259 4147 
z
M 628 4666 
L 2053 4666 
Q 2838 4666 3239 4311 
Q 3641 3956 3641 3272 
Q 3641 2581 3239 2228 
Q 2838 1875 2053 1875 
L 1259 1875 
L 1259 0 
L 628 0 
L 628 4666 
z
" transform="scale(0.015625)"/>
       <path id="DejaVuSans-49" d="M 628 4666 
L 1259 4666 
L 1259 0 
L 628 0 
L 628 4666 
z
" transform="scale(0.015625)"/>
       <path id="DejaVuSans-44" d="M 1259 4147 
L 1259 519 
L 2022 519 
Q 2988 519 3436 956 
Q 3884 1394 3884 2338 
Q 3884 3275 3436 3711 
Q 2988 4147 2022 4147 
L 1259 4147 
z
M 628 4666 
L 1925 4666 
Q 3281 4666 3915 4102 
Q 4550 3538 4550 2338 
Q 4550 1131 3912 565 
Q 3275 0 1925 0 
L 628 0 
L 628 4666 
z
" transform="scale(0.015625)"/>
      </defs>
      <use xlink:href="#DejaVuSans-50"/>
      <use xlink:href="#DejaVuSans-49" transform="translate(60.302734 0)"/>
      <use xlink:href="#DejaVuSans-44" transform="translate(89.794922 0)"/>
     </g>
    </g>
    <g id="line2d_27">
     <path d="M 780.354688 54.656563 
L 790.354688 54.656563 
L 800.354688 54.656563 
" style="fill: none; stroke: #2ca02c; stroke-width: 1.2; stroke-linecap: square"/>
    </g>
    <g id="text_16">
     <!-- EDMDc -->
     <g transform="translate(808.354688 58.156563) scale(0.1 -0.1)">
      <defs>
       <path id="DejaVuSans-45" d="M 628 4666 
L 3578 4666 
L 3578 4134 
L 1259 4134 
L 1259 2753 
L 3481 2753 
L 3481 2222 
L 1259 2222 
L 1259 531 
L 3634 531 
L 3634 0 
L 628 0 
L 628 4666 
z
" transform="scale(0.015625)"/>
       <path id="DejaVuSans-4d" d="M 628 4666 
L 1569 4666 
L 2759 1491 
L 3956 4666 
L 4897 4666 
L 4897 0 
L 4281 0 
L 4281 4097 
L 3078 897 
L 2444 897 
L 1241 4097 
L 1241 0 
L 628 0 
L 628 4666 
z
" transform="scale(0.015625)"/>
       <path id="DejaVuSans-63" d="M 3122 3366 
L 3122 2828 
Q 2878 2963 2633 3030 
Q 2388 3097 2138 3097 
Q 1578 3097 1268 2742 
Q 959 2388 959 1747 
Q 959 1106 1268 751 
Q 1578 397 2138 397 
Q 2388 397 2633 464 
Q 2878 531 3122 666 
L 3122 134 
Q 2881 22 2623 -34 
Q 2366 -91 2075 -91 
Q 1284 -91 818 406 
Q 353 903 353 1747 
Q 353 2603 823 3093 
Q 1294 3584 2113 3584 
Q 2378 3584 2631 3529 
Q 2884 3475 3122 3366 
z
" transform="scale(0.015625)"/>
      </defs>
      <use xlink:href="#DejaVuSans-45"/>
      <use xlink:href="#DejaVuSans-44" transform="translate(63.183594 0)"/>
      <use xlink:href="#DejaVuSans-4d" transform="translate(140.185547 0)"/>
      <use xlink:href="#DejaVuSans-44" transform="translate(226.464844 0)"/>
      <use xlink:href="#DejaVuSans-63" transform="translate(303.466797 0)"/>
     </g>
    </g>
    <g id="line2d_28">
     <path d="M 780.354688 69.334687 
L 790.354688 69.334687 
L 800.354688 69.334687 
" style="fill: none; stroke-dasharray: 3.7,1.6; stroke-dashoffset: 0; stroke: #1f77b4"/>
    </g>
    <g id="text_17">
     <!-- Linear -->
     <g transform="translate(808.354688 72.834687) scale(0.1 -0.1)">
      <defs>
       <path id="DejaVuSans-4c" d="M 628 4666 
L 1259 4666 
L 1259 531 
L 3531 531 
L 3531 0 
L 628 0 
L 628 4666 
z
" transform="scale(0.015625)"/>
       <path id="DejaVuSans-69" d="M 603 3500 
L 1178 3500 
L 1178 0 
L 603 0 
L 603 3500 
z
M 603 4863 
L 1178 4863 
L 1178 4134 
L 603 4134 
L 603 4863 
z
" transform="scale(0.015625)"/>
       <path id="DejaVuSans-6e" d="M 3513 2113 
L 3513 0 
L 2938 0 
L 2938 2094 
Q 2938 2591 2744 2837 
Q 2550 3084 2163 3084 
Q 1697 3084 1428 2787 
Q 1159 2491 1159 1978 
L 1159 0 
L 581 0 
L 581 3500 
L 1159 3500 
L 1159 2956 
Q 1366 3272 1645 3428 
Q 1925 3584 2291 3584 
Q 2894 3584 3203 3211 
Q 3513 2838 3513 2113 
z
" transform="scale(0.015625)"/>
       <path id="DejaVuSans-61" d="M 2194 1759 
Q 1497 1759 1228 1600 
Q 959 1441 959 1056 
Q 959 750 1161 570 
Q 1363 391 1709 391 
Q 2188 391 2477 730 
Q 2766 1069 2766 1631 
L 2766 1759 
L 2194 1759 
z
M 3341 1997 
L 3341 0 
L 2766 0 
L 2766 531 
Q 2569 213 2275 61 
Q 1981 -91 1556 -91 
Q 1019 -91 701 211 
Q 384 513 384 1019 
Q 384 1609 779 1909 
Q 1175 2209 1959 2209 
L 2766 2209 
L 2766 2266 
Q 2766 2663 2505 2880 
Q 2244 3097 1772 3097 
Q 1472 3097 1187 3025 
Q 903 2953 641 2809 
L 641 3341 
Q 956 3463 1253 3523 
Q 1550 3584 1831 3584 
Q 2591 3584 2966 3190 
Q 3341 2797 3341 1997 
z
" transform="scale(0.015625)"/>
      </defs>
      <use xlink:href="#DejaVuSans-4c"/>
      <use xlink:href="#DejaVuSans-69" transform="translate(55.712891 0)"/>
      <use xlink:href="#DejaVuSans-6e" transform="translate(83.496094 0)"/>
      <use xlink:href="#DejaVuSans-65" transform="translate(146.875 0)"/>
      <use xlink:href="#DejaVuSans-61" transform="translate(208.398438 0)"/>
      <use xlink:href="#DejaVuSans-72" transform="translate(269.677734 0)"/>
     </g>
    </g>
   </g>
  </g>
 </g>
 <defs>
  <clipPath id="p39e7d5edb5">
   <rect x="48.08" y="26.88" width="805.12" height="291.16"/>
  </clipPath>
 </defs>
</svg>
