<?xml version="1.0" encoding="utf-8" standalone="no"?>
<!DOCTYPE svg PUBLIC "-//W3C//DTD SVG 1.1//EN"
  "http://www.w3.org/Graphics/SVG/1.1/DTD/svg11.dtd">
<svg xmlns:xlink="http://www.w3.org/1999/xlink" width="1008pt" height="360pt" viewBox="0 0 1008 360" xmlns="http://www.w3.org/2000/svg" version="1.1">
 <metadata>
  <rdf:RDF xmlns:dc="http://purl.org/dc/elements/1.1/" xmlns:cc="http://creativecommons.org/ns#" xmlns:rdf="http://www.w3.org/1999/02/22-rdf-syntax-ns#">
   <cc:Work>
    <dc:type rdf:resource="http://purl.org/dc/dcmitype/StillImage"/>
    <dc:date>2026-03-30T18:24:49.448226</dc:date>
    <dc:format>image/svg+xml</dc:format>
    <dc:creator>
     <cc:Agent>
      <dc:title>Matplotlib v3.10.8, https://matplotlib.org/</dc:title>
     </cc:Agent>
    </dc:creator>
   </cc:Work>
  </rdf:RDF>
 </metadata>
 <defs>
  <style type="text/css">*{stroke-linejoin: round; stroke-linecap: butt}</style>
 </defs>
 <g id="figure_1">
  <g id="patch_1">
   <path d="M 0 360 
L 1008 360 
L 1008 0 
L 0 0 
z
" style="fill: #ffffff"/>
  </g>
  <g id="axes_1">
   <g id="patch_2">
    <path d="M 53.66 317.32 
L 997.2 317.32 
L 997.2 41.856 
L 53.66 41.856 
z
" style="fill: #ffffff"/>
   </g>
   <g id="line2d_1">
    <path d="M 96.548182 54.377091 
L 97.406804 54.630746 
L 98.265426 55.315389 
L 99.124049 56.35518 
L 100.841293 59.11716 
L 104.275782 65.538895 
L 215.896676 278.07009 
L 216.755298 279.353935 
L 217.61392 280.38419 
L 218.472543 281.076456 
L 219.331165 281.371144 
L 220.189787 281.253075 
L 221.048409 280.756803 
L 221.907032 279.954685 
L 223.624276 277.776365 
L 227.058765 272.68777 
L 337.821036 105.518775 
L 339.538281 103.495143 
L 340.396903 102.823192 
L 341.255526 102.481071 
L 342.114148 102.51736 
L 342.97277 102.936815 
L 343.831392 103.698696 
L 344.690015 104.730658 
L 346.407259 107.286104 
L 350.70037 114.445431 
L 460.604019 299.587205 
L 462.321264 302.000069 
L 463.179886 302.926495 
L 464.038509 303.585406 
L 464.897131 303.94121 
L 465.755753 303.993908 
L 466.614375 303.779091 
L 467.472998 303.355895 
L 469.190242 302.136076 
L 473.483353 298.513189 
L 585.962869 202.228133 
L 588.538736 200.338651 
L 592.831847 197.57288 
L 700.15963 130.735065 
L 706.169985 127.055612 
L 707.88723 126.189991 
L 709.604474 125.64336 
L 711.321719 125.519511 
L 713.038964 125.746061 
L 716.473453 126.620953 
L 798.901189 149.668927 
L 828.952968 157.989472 
L 830.670213 158.2159 
L 831.528835 158.199618 
L 832.387457 158.068992 
L 834.104702 157.449974 
L 835.821946 156.457621 
L 839.256436 154.046912 
L 952.594574 72.065986 
L 953.453196 71.682232 
L 954.311818 71.437036 
L 954.311818 71.437036 
" clip-path="url(#p01567d5cee)" style="fill: none; stroke: #000000; stroke-width: 2.5; stroke-linecap: square"/>
   </g>
   <g id="matplotlib.axis_1">
    <g id="xtick_1">
     <g id="line2d_2">
      <path d="M 96.548182 317.32 
L 96.548182 41.856 
" clip-path="url(#p01567d5cee)" style="fill: none; stroke: #b0b0b0; stroke-opacity: 0.3; stroke-width: 0.8; stroke-linecap: square"/>
     </g>
     <g id="line2d_3">
      <defs>
       <path id="m86fb9316f4" d="M 0 0 
L 0 3.5 
" style="stroke: #000000; stroke-width: 0.8"/>
      </defs>
      <g>
       <use xlink:href="#m86fb9316f4" x="96.548182" y="317.32" style="stroke: #000000; stroke-width: 0.8"/>
      </g>
     </g>
     <g id="text_1">
      <!-- 0 -->
      <g transform="translate(93.366932 331.918437) scale(0.1 -0.1)">
       <defs>
        <path id="DejaVuSans-30" d="M 2034 4250 
Q 1547 4250 1301 3770 
Q 1056 3291 1056 2328 
Q 1056 1369 1301 889 
Q 1547 409 2034 409 
Q 2525 409 2770 889 
Q 3016 1369 3016 2328 
Q 3016 3291 2770 3770 
Q 2525 4250 2034 4250 
z
M 2034 4750 
Q 2819 4750 3233 4129 
Q 3647 3509 3647 2328 
Q 3647 1150 3233 529 
Q 2819 -91 2034 -91 
Q 1250 -91 836 529 
Q 422 1150 422 2328 
Q 422 3509 836 4129 
Q 1250 4750 2034 4750 
z
" transform="scale(0.015625)"/>
       </defs>
       <use xlink:href="#DejaVuSans-30"/>
      </g>
     </g>
    </g>
    <g id="xtick_2">
     <g id="line2d_4">
      <path d="M 268.272634 317.32 
L 268.272634 41.856 
" clip-path="url(#p01567d5cee)" style="fill: none; stroke: #b0b0b0; stroke-opacity: 0.3; stroke-width: 0.8; stroke-linecap: square"/>
     </g>
     <g id="line2d_5">
      <g>
       <use xlink:href="#m86fb9316f4" x="268.272634" y="317.32" style="stroke: #000000; stroke-width: 0.8"/>
      </g>
     </g>
     <g id="text_2">
      <!-- 20 -->
      <g transform="translate(261.910134 331.918437) scale(0.1 -0.1)">
       <defs>
        <path id="DejaVuSans-32" d="M 1228 531 
L 3431 531 
L 3431 0 
L 469 0 
L 469 531 
Q 828 903 1448 1529 
Q 2069 2156 2228 2338 
Q 2531 2678 2651 2914 
Q 2772 3150 2772 3378 
Q 2772 3750 2511 3984 
Q 2250 4219 1831 4219 
Q 1534 4219 1204 4116 
Q 875 4013 500 3803 
L 500 4441 
Q 881 4594 1212 4672 
Q 1544 4750 1819 4750 
Q 2544 4750 2975 4387 
Q 3406 4025 3406 3419 
Q 3406 3131 3298 2873 
Q 3191 2616 2906 2266 
Q 2828 2175 2409 1742 
Q 1991 1309 1228 531 
z
" transform="scale(0.015625)"/>
       </defs>
       <use xlink:href="#DejaVuSans-32"/>
       <use xlink:href="#DejaVuSans-30" transform="translate(63.623047 0)"/>
      </g>
     </g>
    </g>
    <g id="xtick_3">
     <g id="line2d_6">
      <path d="M 439.997085 317.32 
L 439.997085 41.856 
" clip-path="url(#p01567d5cee)" style="fill: none; stroke: #b0b0b0; stroke-opacity: 0.3; stroke-width: 0.8; stroke-linecap: square"/>
     </g>
     <g id="line2d_7">
      <g>
       <use xlink:href="#m86fb9316f4" x="439.997085" y="317.32" style="stroke: #000000; stroke-width: 0.8"/>
      </g>
     </g>
     <g id="text_3">
      <!-- 40 -->
      <g transform="translate(433.634585 331.918437) scale(0.1 -0.1)">
       <defs>
        <path id="DejaVuSans-34" d="M 2419 4116 
L 825 1625 
L 2419 1625 
L 2419 4116 
z
M 2253 4666 
L 3047 4666 
L 3047 1625 
L 3713 1625 
L 3713 1100 
L 3047 1100 
L 3047 0 
L 2419 0 
L 2419 1100 
L 313 1100 
L 313 1709 
L 2253 4666 
z
" transform="scale(0.015625)"/>
       </defs>
       <use xlink:href="#DejaVuSans-34"/>
       <use xlink:href="#DejaVuSans-30" transform="translate(63.623047 0)"/>
      </g>
     </g>
    </g>
    <g id="xtick_4">
     <g id="line2d_8">
      <path d="M 611.721537 317.32 
L 611.721537 41.856 
" clip-path="url(#p01567d5cee)" style="fill: none; stroke: #b0b0b0; stroke-opacity: 0.3; stroke-width: 0.8; stroke-linecap: square"/>
     </g>
     <g id="line2d_9">
      <g>
       <use xlink:href="#m86fb9316f4" x="611.721537" y="317.32" style="stroke: #000000; stroke-width: 0.8"/>
      </g>
     </g>
     <g id="text_4">
      <!-- 60 -->
      <g transform="translate(605.359037 331.918437) scale(0.1 -0.1)">
       <defs>
        <path id="DejaVuSans-36" d="M 2113 2584 
Q 1688 2584 1439 2293 
Q 1191 2003 1191 1497 
Q 1191 994 1439 701 
Q 1688 409 2113 409 
Q 2538 409 2786 701 
Q 3034 994 3034 1497 
Q 3034 2003 2786 2293 
Q 2538 2584 2113 2584 
z
M 3366 4563 
L 3366 3988 
Q 3128 4100 2886 4159 
Q 2644 4219 2406 4219 
Q 1781 4219 1451 3797 
Q 1122 3375 1075 2522 
Q 1259 2794 1537 2939 
Q 1816 3084 2150 3084 
Q 2853 3084 3261 2657 
Q 3669 2231 3669 1497 
Q 3669 778 3244 343 
Q 2819 -91 2113 -91 
Q 1303 -91 875 529 
Q 447 1150 447 2328 
Q 447 3434 972 4092 
Q 1497 4750 2381 4750 
Q 2619 4750 2861 4703 
Q 3103 4656 3366 4563 
z
" transform="scale(0.015625)"/>
       </defs>
       <use xlink:href="#DejaVuSans-36"/>
       <use xlink:href="#DejaVuSans-30" transform="translate(63.623047 0)"/>
      </g>
     </g>
    </g>
    <g id="xtick_5">
     <g id="line2d_10">
      <path d="M 783.445989 317.32 
L 783.445989 41.856 
" clip-path="url(#p01567d5cee)" style="fill: none; stroke: #b0b0b0; stroke-opacity: 0.3; stroke-width: 0.8; stroke-linecap: square"/>
     </g>
     <g id="line2d_11">
      <g>
       <use xlink:href="#m86fb9316f4" x="783.445989" y="317.32" style="stroke: #000000; stroke-width: 0.8"/>
      </g>
     </g>
     <g id="text_5">
      <!-- 80 -->
      <g transform="translate(777.083489 331.918437) scale(0.1 -0.1)">
       <defs>
        <path id="DejaVuSans-38" d="M 2034 2216 
Q 1584 2216 1326 1975 
Q 1069 1734 1069 1313 
Q 1069 891 1326 650 
Q 1584 409 2034 409 
Q 2484 409 2743 651 
Q 3003 894 3003 1313 
Q 3003 1734 2745 1975 
Q 2488 2216 2034 2216 
z
M 1403 2484 
Q 997 2584 770 2862 
Q 544 3141 544 3541 
Q 544 4100 942 4425 
Q 1341 4750 2034 4750 
Q 2731 4750 3128 4425 
Q 3525 4100 3525 3541 
Q 3525 3141 3298 2862 
Q 3072 2584 2669 2484 
Q 3125 2378 3379 2068 
Q 3634 1759 3634 1313 
Q 3634 634 3220 271 
Q 2806 -91 2034 -91 
Q 1263 -91 848 271 
Q 434 634 434 1313 
Q 434 1759 690 2068 
Q 947 2378 1403 2484 
z
M 1172 3481 
Q 1172 3119 1398 2916 
Q 1625 2713 2034 2713 
Q 2441 2713 2670 2916 
Q 2900 3119 2900 3481 
Q 2900 3844 2670 4047 
Q 2441 4250 2034 4250 
Q 1625 4250 1398 4047 
Q 1172 3844 1172 3481 
z
" transform="scale(0.015625)"/>
       </defs>
       <use xlink:href="#DejaVuSans-38"/>
       <use xlink:href="#DejaVuSans-30" transform="translate(63.623047 0)"/>
      </g>
     </g>
    </g>
    <g id="xtick_6">
     <g id="line2d_12">
      <path d="M 955.17044 317.32 
L 955.17044 41.856 
" clip-path="url(#p01567d5cee)" style="fill: none; stroke: #b0b0b0; stroke-opacity: 0.3; stroke-width: 0.8; stroke-linecap: square"/>
     </g>
     <g id="line2d_13">
      <g>
       <use xlink:href="#m86fb9316f4" x="955.17044" y="317.32" style="stroke: #000000; stroke-width: 0.8"/>
      </g>
     </g>
     <g id="text_6">
      <!-- 100 -->
      <g transform="translate(945.62669 331.918437) scale(0.1 -0.1)">
       <defs>
        <path id="DejaVuSans-31" d="M 794 531 
L 1825 531 
L 1825 4091 
L 703 3866 
L 703 4441 
L 1819 4666 
L 2450 4666 
L 2450 531 
L 3481 531 
L 3481 0 
L 794 0 
L 794 531 
z
" transform="scale(0.015625)"/>
       </defs>
       <use xlink:href="#DejaVuSans-31"/>
       <use xlink:href="#DejaVuSans-30" transform="translate(63.623047 0)"/>
       <use xlink:href="#DejaVuSans-30" transform="translate(127.246094 0)"/>
      </g>
     </g>
    </g>
    <g id="text_7">
     <!-- Time [s] -->
     <g transform="translate(503.068203 346.356406) scale(0.11 -0.11)">
      <defs>
       <path id="DejaVuSans-54" d="M -19 4666 
L 3928 4666 
L 3928 4134 
L 2272 4134 
L 2272 0 
L 1638 0 
L 1638 4134 
L -19 4134 
L -19 4666 
z
" transform="scale(0.015625)"/>
       <path id="DejaVuSans-69" d="M 603 3500 
L 1178 3500 
L 1178 0 
L 603 0 
L 603 3500 
z
M 603 4863 
L 1178 4863 
L 1178 4134 
L 603 4134 
L 603 4863 
z
" transform="scale(0.015625)"/>
       <path id="DejaVuSans-6d" d="M 3328 2828 
Q 3544 3216 3844 3400 
Q 4144 3584 4550 3584 
Q 5097 3584 5394 3201 
Q 5691 2819 5691 2113 
L 5691 0 
L 5113 0 
L 5113 2094 
Q 5113 2597 4934 2840 
Q 4756 3084 4391 3084 
Q 3944 3084 3684 2787 
Q 3425 2491 3425 1978 
L 3425 0 
L 2847 0 
L 2847 2094 
Q 2847 2600 2669 2842 
Q 2491 3084 2119 3084 
Q 1678 3084 1418 2786 
Q 1159 2488 1159 1978 
L 1159 0 
L 581 0 
L 581 3500 
L 1159 3500 
L 1159 2956 
Q 1356 3278 1631 3431 
Q 1906 3584 2284 3584 
Q 2666 3584 2933 3390 
Q 3200 3197 3328 2828 
z
" transform="scale(0.015625)"/>
       <path id="DejaVuSans-65" d="M 3597 1894 
L 3597 1613 
L 953 1613 
Q 991 1019 1311 708 
Q 1631 397 2203 397 
Q 2534 397 2845 478 
Q 3156 559 3463 722 
L 3463 178 
Q 3153 47 2828 -22 
Q 2503 -91 2169 -91 
Q 1331 -91 842 396 
Q 353 884 353 1716 
Q 353 2575 817 3079 
Q 1281 3584 2069 3584 
Q 2775 3584 3186 3129 
Q 3597 2675 3597 1894 
z
M 3022 2063 
Q 3016 2534 2758 2815 
Q 2500 3097 2075 3097 
Q 1594 3097 1305 2825 
Q 1016 2553 972 2059 
L 3022 2063 
z
" transform="scale(0.015625)"/>
       <path id="DejaVuSans-20" transform="scale(0.015625)"/>
       <path id="DejaVuSans-5b" d="M 550 4863 
L 1875 4863 
L 1875 4416 
L 1125 4416 
L 1125 -397 
L 1875 -397 
L 1875 -844 
L 550 -844 
L 550 4863 
z
" transform="scale(0.015625)"/>
       <path id="DejaVuSans-73" d="M 2834 3397 
L 2834 2853 
Q 2591 2978 2328 3040 
Q 2066 3103 1784 3103 
Q 1356 3103 1142 2972 
Q 928 2841 928 2578 
Q 928 2378 1081 2264 
Q 1234 2150 1697 2047 
L 1894 2003 
Q 2506 1872 2764 1633 
Q 3022 1394 3022 966 
Q 3022 478 2636 193 
Q 2250 -91 1575 -91 
Q 1294 -91 989 -36 
Q 684 19 347 128 
L 347 722 
Q 666 556 975 473 
Q 1284 391 1588 391 
Q 1994 391 2212 530 
Q 2431 669 2431 922 
Q 2431 1156 2273 1281 
Q 2116 1406 1581 1522 
L 1381 1569 
Q 847 1681 609 1914 
Q 372 2147 372 2553 
Q 372 3047 722 3315 
Q 1072 3584 1716 3584 
Q 2034 3584 2315 3537 
Q 2597 3491 2834 3397 
z
" transform="scale(0.015625)"/>
       <path id="DejaVuSans-5d" d="M 1947 4863 
L 1947 -844 
L 622 -844 
L 622 -397 
L 1369 -397 
L 1369 4416 
L 622 4416 
L 622 4863 
L 1947 4863 
z
" transform="scale(0.015625)"/>
      </defs>
      <use xlink:href="#DejaVuSans-54"/>
      <use xlink:href="#DejaVuSans-69" transform="translate(57.958984 0)"/>
      <use xlink:href="#DejaVuSans-6d" transform="translate(85.742188 0)"/>
      <use xlink:href="#DejaVuSans-65" transform="translate(183.154297 0)"/>
      <use xlink:href="#DejaVuSans-20" transform="translate(244.677734 0)"/>
      <use xlink:href="#DejaVuSans-5b" transform="translate(276.464844 0)"/>
      <use xlink:href="#DejaVuSans-73" transform="translate(315.478516 0)"/>
      <use xlink:href="#DejaVuSans-5d" transform="translate(367.578125 0)"/>
     </g>
    </g>
   </g>
   <g id="matplotlib.axis_2">
    <g id="ytick_1">
     <g id="line2d_14">
      <path d="M 53.66 303.122408 
L 997.2 303.122408 
" clip-path="url(#p01567d5cee)" style="fill: none; stroke: #b0b0b0; stroke-opacity: 0.3; stroke-width: 0.8; stroke-linecap: square"/>
     </g>
     <g id="line2d_15">
      <defs>
       <path id="mdd739667e1" d="M 0 0 
L -3.5 0 
" style="stroke: #000000; stroke-width: 0.8"/>
      </defs>
      <g>
       <use xlink:href="#mdd739667e1" x="53.66" y="303.122408" style="stroke: #000000; stroke-width: 0.8"/>
      </g>
     </g>
     <g id="text_8">
      <!-- −30 -->
      <g transform="translate(25.555312 306.921626) scale(0.1 -0.1)">
       <defs>
        <path id="DejaVuSans-2212" d="M 678 2272 
L 4684 2272 
L 4684 1741 
L 678 1741 
L 678 2272 
z
" transform="scale(0.015625)"/>
        <path id="DejaVuSans-33" d="M 2597 2516 
Q 3050 2419 3304 2112 
Q 3559 1806 3559 1356 
Q 3559 666 3084 287 
Q 2609 -91 1734 -91 
Q 1441 -91 1130 -33 
Q 819 25 488 141 
L 488 750 
Q 750 597 1062 519 
Q 1375 441 1716 441 
Q 2309 441 2620 675 
Q 2931 909 2931 1356 
Q 2931 1769 2642 2001 
Q 2353 2234 1838 2234 
L 1294 2234 
L 1294 2753 
L 1863 2753 
Q 2328 2753 2575 2939 
Q 2822 3125 2822 3475 
Q 2822 3834 2567 4026 
Q 2313 4219 1838 4219 
Q 1578 4219 1281 4162 
Q 984 4106 628 3988 
L 628 4550 
Q 988 4650 1302 4700 
Q 1616 4750 1894 4750 
Q 2613 4750 3031 4423 
Q 3450 4097 3450 3541 
Q 3450 3153 3228 2886 
Q 3006 2619 2597 2516 
z
" transform="scale(0.015625)"/>
       </defs>
       <use xlink:href="#DejaVuSans-2212"/>
       <use xlink:href="#DejaVuSans-33" transform="translate(83.789062 0)"/>
       <use xlink:href="#DejaVuSans-30" transform="translate(147.412109 0)"/>
      </g>
     </g>
    </g>
    <g id="ytick_2">
     <g id="line2d_16">
      <path d="M 53.66 261.664855 
L 997.2 261.664855 
" clip-path="url(#p01567d5cee)" style="fill: none; stroke: #b0b0b0; stroke-opacity: 0.3; stroke-width: 0.8; stroke-linecap: square"/>
     </g>
     <g id="line2d_17">
      <g>
       <use xlink:href="#mdd739667e1" x="53.66" y="261.664855" style="stroke: #000000; stroke-width: 0.8"/>
      </g>
     </g>
     <g id="text_9">
      <!-- −25 -->
      <g transform="translate(25.555312 265.464074) scale(0.1 -0.1)">
       <defs>
        <path id="DejaVuSans-35" d="M 691 4666 
L 3169 4666 
L 3169 4134 
L 1269 4134 
L 1269 2991 
Q 1406 3038 1543 3061 
Q 1681 3084 1819 3084 
Q 2600 3084 3056 2656 
Q 3513 2228 3513 1497 
Q 3513 744 3044 326 
Q 2575 -91 1722 -91 
Q 1428 -91 1123 -41 
Q 819 9 494 109 
L 494 744 
Q 775 591 1075 516 
Q 1375 441 1709 441 
Q 2250 441 2565 725 
Q 2881 1009 2881 1497 
Q 2881 1984 2565 2268 
Q 2250 2553 1709 2553 
Q 1456 2553 1204 2497 
Q 953 2441 691 2322 
L 691 4666 
z
" transform="scale(0.015625)"/>
       </defs>
       <use xlink:href="#DejaVuSans-2212"/>
       <use xlink:href="#DejaVuSans-32" transform="translate(83.789062 0)"/>
       <use xlink:href="#DejaVuSans-35" transform="translate(147.412109 0)"/>
      </g>
     </g>
    </g>
    <g id="ytick_3">
     <g id="line2d_18">
      <path d="M 53.66 220.207302 
L 997.2 220.207302 
" clip-path="url(#p01567d5cee)" style="fill: none; stroke: #b0b0b0; stroke-opacity: 0.3; stroke-width: 0.8; stroke-linecap: square"/>
     </g>
     <g id="line2d_19">
      <g>
       <use xlink:href="#mdd739667e1" x="53.66" y="220.207302" style="stroke: #000000; stroke-width: 0.8"/>
      </g>
     </g>
     <g id="text_10">
      <!-- −20 -->
      <g transform="translate(25.555312 224.006521) scale(0.1 -0.1)">
       <use xlink:href="#DejaVuSans-2212"/>
       <use xlink:href="#DejaVuSans-32" transform="translate(83.789062 0)"/>
       <use xlink:href="#DejaVuSans-30" transform="translate(147.412109 0)"/>
      </g>
     </g>
    </g>
    <g id="ytick_4">
     <g id="line2d_20">
      <path d="M 53.66 178.749749 
L 997.2 178.749749 
" clip-path="url(#p01567d5cee)" style="fill: none; stroke: #b0b0b0; stroke-opacity: 0.3; stroke-width: 0.8; stroke-linecap: square"/>
     </g>
     <g id="line2d_21">
      <g>
       <use xlink:href="#mdd739667e1" x="53.66" y="178.749749" style="stroke: #000000; stroke-width: 0.8"/>
      </g>
     </g>
     <g id="text_11">
      <!-- −15 -->
      <g transform="translate(25.555312 182.548968) scale(0.1 -0.1)">
       <use xlink:href="#DejaVuSans-2212"/>
       <use xlink:href="#DejaVuSans-31" transform="translate(83.789062 0)"/>
       <use xlink:href="#DejaVuSans-35" transform="translate(147.412109 0)"/>
      </g>
     </g>
    </g>
    <g id="ytick_5">
     <g id="line2d_22">
      <path d="M 53.66 137.292196 
L 997.2 137.292196 
" clip-path="url(#p01567d5cee)" style="fill: none; stroke: #b0b0b0; stroke-opacity: 0.3; stroke-width: 0.8; stroke-linecap: square"/>
     </g>
     <g id="line2d_23">
      <g>
       <use xlink:href="#mdd739667e1" x="53.66" y="137.292196" style="stroke: #000000; stroke-width: 0.8"/>
      </g>
     </g>
     <g id="text_12">
      <!-- −10 -->
      <g transform="translate(25.555312 141.091415) scale(0.1 -0.1)">
       <use xlink:href="#DejaVuSans-2212"/>
       <use xlink:href="#DejaVuSans-31" transform="translate(83.789062 0)"/>
       <use xlink:href="#DejaVuSans-30" transform="translate(147.412109 0)"/>
      </g>
     </g>
    </g>
    <g id="ytick_6">
     <g id="line2d_24">
      <path d="M 53.66 95.834644 
L 997.2 95.834644 
" clip-path="url(#p01567d5cee)" style="fill: none; stroke: #b0b0b0; stroke-opacity: 0.3; stroke-width: 0.8; stroke-linecap: square"/>
     </g>
     <g id="line2d_25">
      <g>
       <use xlink:href="#mdd739667e1" x="53.66" y="95.834644" style="stroke: #000000; stroke-width: 0.8"/>
      </g>
     </g>
     <g id="text_13">
      <!-- −5 -->
      <g transform="translate(31.917812 99.633862) scale(0.1 -0.1)">
       <use xlink:href="#DejaVuSans-2212"/>
       <use xlink:href="#DejaVuSans-35" transform="translate(83.789062 0)"/>
      </g>
     </g>
    </g>
    <g id="ytick_7">
     <g id="line2d_26">
      <path d="M 53.66 54.377091 
L 997.2 54.377091 
" clip-path="url(#p01567d5cee)" style="fill: none; stroke: #b0b0b0; stroke-opacity: 0.3; stroke-width: 0.8; stroke-linecap: square"/>
     </g>
     <g id="line2d_27">
      <g>
       <use xlink:href="#mdd739667e1" x="53.66" y="54.377091" style="stroke: #000000; stroke-width: 0.8"/>
      </g>
     </g>
     <g id="text_14">
      <!-- 0 -->
      <g transform="translate(40.2975 58.17631) scale(0.1 -0.1)">
       <use xlink:href="#DejaVuSans-30"/>
      </g>
     </g>
    </g>
    <g id="text_15">
     <!-- y [m] -->
     <g transform="translate(19.267656 194.240344) rotate(-90) scale(0.11 -0.11)">
      <defs>
       <path id="DejaVuSans-79" d="M 2059 -325 
Q 1816 -950 1584 -1140 
Q 1353 -1331 966 -1331 
L 506 -1331 
L 506 -850 
L 844 -850 
Q 1081 -850 1212 -737 
Q 1344 -625 1503 -206 
L 1606 56 
L 191 3500 
L 800 3500 
L 1894 763 
L 2988 3500 
L 3597 3500 
L 2059 -325 
z
" transform="scale(0.015625)"/>
      </defs>
      <use xlink:href="#DejaVuSans-79"/>
      <use xlink:href="#DejaVuSans-20" transform="translate(59.179688 0)"/>
      <use xlink:href="#DejaVuSans-5b" transform="translate(90.966797 0)"/>
      <use xlink:href="#DejaVuSans-6d" transform="translate(129.980469 0)"/>
      <use xlink:href="#DejaVuSans-5d" transform="translate(227.392578 0)"/>
     </g>
    </g>
   </g>
   <g id="line2d_28">
    <path d="M 96.548182 54.377091 
L 98.265426 54.442534 
L 99.124049 54.643148 
L 99.982671 55.046205 
L 100.841293 55.698814 
L 101.699915 56.631971 
L 102.558538 57.865088 
L 103.41716 59.407787 
L 115.437872 84.658429 
L 126.599961 106.917805 
L 141.196539 135.538801 
L 161.803473 175.223694 
L 197.865608 244.22708 
L 215.038054 276.839068 
L 216.755298 279.728792 
L 217.61392 280.91015 
L 218.472543 281.80808 
L 219.331165 282.348743 
L 220.189787 282.488122 
L 221.048409 282.230944 
L 221.907032 281.62921 
L 222.765654 280.764368 
L 224.482898 278.566279 
L 228.77601 272.309812 
L 237.362232 259.374031 
L 254.534677 233.006506 
L 319.789969 132.572417 
L 337.821036 105.391005 
L 339.538281 103.203705 
L 340.396903 102.38132 
L 341.255526 101.844072 
L 342.114148 101.659089 
L 342.97277 101.857562 
L 343.831392 102.422211 
L 344.690015 103.29219 
L 346.407259 105.63185 
L 348.983126 109.748763 
L 358.427971 125.499912 
L 370.448682 145.981244 
L 435.703974 257.638125 
L 460.604019 299.683161 
L 462.321264 302.21899 
L 463.179886 303.258381 
L 464.038509 304.06197 
L 464.897131 304.58227 
L 465.755753 304.798909 
L 466.614375 304.729158 
L 467.472998 304.423538 
L 469.190242 303.355189 
L 471.766109 301.308625 
L 480.352331 294.062551 
L 490.655799 285.099563 
L 573.083535 213.169789 
L 585.962869 202.054308 
L 588.538736 200.129674 
L 592.831847 197.32767 
L 616.873271 182.296013 
L 648.642294 162.818628 
L 676.976829 145.372965 
L 707.88723 126.228534 
L 709.604474 125.535505 
L 711.321719 125.233456 
L 713.038964 125.312825 
L 715.61483 125.82557 
L 724.201053 128.036236 
L 739.656254 132.244031 
L 756.828699 137.178529 
L 806.62879 151.871289 
L 827.235724 157.878781 
L 829.811591 158.493629 
L 831.528835 158.654168 
L 832.387457 158.593492 
L 833.24608 158.418496 
L 834.963324 157.729871 
L 836.680569 156.704273 
L 840.115058 154.280376 
L 865.015103 136.113737 
L 891.632393 116.41028 
L 935.422128 84.028751 
L 950.877329 72.871216 
L 952.594574 71.782187 
L 954.311818 71.025301 
L 954.311818 71.025301 
" clip-path="url(#p01567d5cee)" style="fill: none; stroke: #888888; stroke-opacity: 0.6; stroke-width: 1.2; stroke-linecap: square"/>
   </g>
   <g id="patch_3">
    <path d="M 53.66 317.32 
L 53.66 41.856 
" style="fill: none; stroke: #000000; stroke-width: 0.8; stroke-linejoin: miter; stroke-linecap: square"/>
   </g>
   <g id="patch_4">
    <path d="M 997.2 317.32 
L 997.2 41.856 
" style="fill: none; stroke: #000000; stroke-width: 0.8; stroke-linejoin: miter; stroke-linecap: square"/>
   </g>
   <g id="patch_5">
    <path d="M 53.66 317.32 
L 997.2 317.32 
" style="fill: none; stroke: #000000; stroke-width: 0.8; stroke-linejoin: miter; stroke-linecap: square"/>
   </g>
   <g id="patch_6">
    <path d="M 53.66 41.856 
L 997.2 41.856 
" style="fill: none; stroke: #000000; stroke-width: 0.8; stroke-linejoin: miter; stroke-linecap: square"/>
   </g>
   <g id="line2d_29">
    <path d="M 96.548182 54.377091 
L 98.265426 54.454319 
L 99.124049 54.671834 
L 99.982671 55.10242 
L 100.841293 55.816756 
L 101.699915 56.855016 
L 102.558538 58.235449 
L 103.41716 59.966725 
L 105.134404 64.324696 
L 107.710271 71.084564 
L 109.427516 75.043073 
L 112.003382 80.153917 
L 118.013738 91.663801 
L 122.30685 99.946478 
L 127.458583 109.682268 
L 131.751694 117.921007 
L 136.044806 126.047097 
L 142.055162 137.63419 
L 146.348273 145.727306 
L 153.217251 158.946075 
L 157.510362 167.075715 
L 163.520718 178.657237 
L 167.813829 186.735183 
L 174.682807 199.965928 
L 178.975919 208.081485 
L 184.986274 219.69591 
L 189.279386 227.778032 
L 195.289742 239.339342 
L 200.441475 249.114928 
L 205.593209 259.073388 
L 215.896676 278.257341 
L 216.755298 279.46837 
L 217.61392 280.413621 
L 218.472543 281.051412 
L 219.331165 281.363097 
L 220.189787 281.346579 
L 221.048409 281.00347 
L 221.907032 280.343454 
L 222.765654 279.420739 
L 224.482898 277.04784 
L 241.655344 251.117871 
L 245.089833 245.849879 
L 249.382944 239.273886 
L 254.534677 231.590654 
L 258.827789 224.988094 
L 263.979522 217.295523 
L 269.989878 208.070444 
L 276.858856 197.7644 
L 282.01059 189.873583 
L 288.879568 179.572607 
L 293.172679 173.005576 
L 298.324413 165.379097 
L 304.334768 156.116324 
L 309.486502 148.471957 
L 315.496858 139.22347 
L 320.648591 131.57722 
L 326.658947 122.341641 
L 330.952058 115.942486 
L 336.103792 108.049346 
L 337.821036 105.68921 
L 338.679659 104.680905 
L 339.538281 103.875387 
L 340.396903 103.327788 
L 341.255526 103.083404 
L 342.114148 103.167782 
L 342.97277 103.568802 
L 343.831392 104.2447 
L 344.690015 105.154662 
L 346.407259 107.513358 
L 349.841748 113.107663 
L 355.852104 123.085669 
L 364.438327 137.763803 
L 391.914239 184.039683 
L 397.065972 192.832537 
L 401.359084 199.942752 
L 408.228062 211.65771 
L 412.521173 218.840169 
L 420.248773 232.079865 
L 450.300552 282.762739 
L 456.310908 293.000965 
L 460.604019 300.031887 
L 462.321264 302.333533 
L 463.179886 303.188667 
L 464.038509 303.792814 
L 464.897131 304.127424 
L 465.755753 304.190273 
L 466.614375 304.003378 
L 467.472998 303.612347 
L 469.190242 302.438557 
L 474.341976 298.325941 
L 491.514421 283.461087 
L 495.807532 279.842562 
L 500.959266 275.343501 
L 505.252377 271.822838 
L 516.414466 262.168401 
L 518.990333 259.950258 
L 523.283444 256.10297 
L 530.152422 250.344972 
L 534.445534 246.52803 
L 540.45589 241.531425 
L 545.607623 236.947791 
L 551.617979 231.947922 
L 556.769712 227.359055 
L 562.780068 222.369522 
L 567.931802 217.773457 
L 573.942158 212.795044 
L 579.093891 208.179264 
L 588.538736 200.585474 
L 591.114603 198.926164 
L 595.407714 196.365071 
L 604.852559 190.266697 
L 609.14567 187.736282 
L 616.014648 183.249531 
L 623.742249 178.563485 
L 628.893982 175.189276 
L 633.187093 172.695087 
L 636.621582 170.654996 
L 644.349183 165.695015 
L 647.783672 163.672366 
L 658.087139 157.104818 
L 662.38025 154.568371 
L 671.825095 148.59558 
L 674.400962 147.022387 
L 679.552695 143.647072 
L 684.704429 140.583734 
L 688.99754 137.840475 
L 693.290652 135.214344 
L 698.442385 131.866294 
L 703.594119 128.782124 
L 706.169985 127.126542 
L 707.88723 126.240993 
L 709.604474 125.692187 
L 711.321719 125.531985 
L 713.038964 125.739165 
L 715.61483 126.487326 
L 719.049319 127.532234 
L 725.918297 129.292951 
L 731.070031 130.897512 
L 737.080387 132.400444 
L 742.23212 134.030735 
L 749.101098 135.784557 
L 753.39421 137.163188 
L 761.12181 139.204998 
L 764.556299 140.289366 
L 772.283899 142.323329 
L 775.718388 143.426073 
L 779.152877 144.242328 
L 782.587366 145.128184 
L 789.456345 147.219966 
L 793.749456 148.246676 
L 800.618434 150.274638 
L 804.052923 151.13609 
L 811.780523 153.451612 
L 816.073635 154.493418 
L 823.801235 156.818534 
L 830.670213 158.293438 
L 831.528835 158.325063 
L 832.387457 158.242637 
L 833.24608 158.034885 
L 834.963324 157.248682 
L 836.680569 156.09696 
L 840.97368 152.984548 
L 844.408169 150.58316 
L 850.418525 146.101784 
L 854.711636 143.114835 
L 860.721992 138.621878 
L 864.156481 136.228559 
L 870.166837 131.752436 
L 873.601326 129.377428 
L 880.470304 124.273381 
L 883.904793 121.880149 
L 891.632393 116.145965 
L 895.925505 113.124545 
L 901.93586 108.593044 
L 907.087594 105.016203 
L 913.956572 99.885608 
L 919.108306 96.271701 
L 925.118661 91.733853 
L 931.129017 87.524924 
L 937.139373 83.001281 
L 942.291107 79.420707 
L 949.160085 74.26267 
L 951.735951 72.579766 
L 953.453196 71.722644 
L 954.311818 71.478071 
L 954.311818 71.478071 
" clip-path="url(#p01567d5cee)" style="fill: none; stroke: #2ca02c; stroke-width: 1.5; stroke-linecap: square"/>
   </g>
   <g id="line2d_30">
    <path d="M 96.548182 54.377091 
L 98.265426 54.456299 
L 99.124049 54.678254 
L 99.982671 55.111867 
L 100.841293 55.803814 
L 101.699915 56.789233 
L 102.558538 58.089206 
L 103.41716 59.714036 
L 105.134404 63.856119 
L 106.851649 68.227713 
L 109.427516 73.939606 
L 112.862005 80.930719 
L 118.872361 92.460237 
L 136.903428 126.73221 
L 214.179431 273.954134 
L 215.896676 276.750928 
L 216.755298 277.912749 
L 217.61392 278.857685 
L 218.472543 279.549045 
L 219.331165 279.965028 
L 220.189787 280.103752 
L 221.048409 279.975796 
L 221.907032 279.574589 
L 222.765654 278.876653 
L 224.482898 276.864249 
L 227.058765 273.209053 
L 237.362232 257.687268 
L 336.962414 107.259191 
L 338.679659 105.216991 
L 339.538281 104.441223 
L 340.396903 103.884871 
L 341.255526 103.580556 
L 342.114148 103.54263 
L 342.97277 103.766474 
L 343.831392 104.239588 
L 344.690015 104.975541 
L 345.548637 105.945869 
L 347.265881 108.340905 
L 349.841748 112.441939 
L 357.569348 125.41253 
L 385.903883 173.278499 
L 446.007441 274.543386 
L 458.028153 294.772043 
L 460.604019 298.796635 
L 462.321264 300.989561 
L 463.179886 301.831661 
L 464.038509 302.469375 
L 464.897131 302.89372 
L 465.755753 303.111859 
L 466.614375 303.139815 
L 467.472998 302.972801 
L 468.33162 302.617254 
L 470.048864 301.526702 
L 472.624731 299.474681 
L 485.504065 288.463842 
L 582.52838 205.27981 
L 586.821491 201.831875 
L 589.397358 200.02239 
L 595.407714 196.194356 
L 620.30776 180.660661 
L 632.328471 173.168568 
L 707.028608 126.805552 
L 708.745852 126.058321 
L 710.463097 125.640578 
L 712.180341 125.605817 
L 713.897586 125.867729 
L 717.332075 126.738052 
L 829.811591 158.069869 
L 831.528835 158.159635 
L 833.24608 157.853535 
L 834.963324 157.126689 
L 836.680569 156.093222 
L 840.97368 153.063604 
L 872.742704 129.942503 
L 951.735951 72.853089 
L 953.453196 72.002962 
L 954.311818 71.727563 
L 954.311818 71.727563 
" clip-path="url(#p01567d5cee)" style="fill: none; stroke-dasharray: 4.44,1.92; stroke-dashoffset: 0; stroke: #1f77b4; stroke-width: 1.2"/>
   </g>
   <g id="text_16">
    <!-- waypoint — Y Position Tracking -->
    <g transform="translate(410.91625 21.197281) scale(0.13 -0.13)">
     <defs>
      <path id="DejaVuSans-Bold-77" d="M 225 3500 
L 1313 3500 
L 1900 1088 
L 2491 3500 
L 3425 3500 
L 4013 1113 
L 4603 3500 
L 5691 3500 
L 4769 0 
L 3547 0 
L 2956 2406 
L 2369 0 
L 1147 0 
L 225 3500 
z
" transform="scale(0.015625)"/>
      <path id="DejaVuSans-Bold-61" d="M 2106 1575 
Q 1756 1575 1579 1456 
Q 1403 1338 1403 1106 
Q 1403 894 1545 773 
Q 1688 653 1941 653 
Q 2256 653 2472 879 
Q 2688 1106 2688 1447 
L 2688 1575 
L 2106 1575 
z
M 3816 1997 
L 3816 0 
L 2688 0 
L 2688 519 
Q 2463 200 2181 54 
Q 1900 -91 1497 -91 
Q 953 -91 614 226 
Q 275 544 275 1050 
Q 275 1666 698 1953 
Q 1122 2241 2028 2241 
L 2688 2241 
L 2688 2328 
Q 2688 2594 2478 2717 
Q 2269 2841 1825 2841 
Q 1466 2841 1156 2769 
Q 847 2697 581 2553 
L 581 3406 
Q 941 3494 1303 3539 
Q 1666 3584 2028 3584 
Q 2975 3584 3395 3211 
Q 3816 2838 3816 1997 
z
" transform="scale(0.015625)"/>
      <path id="DejaVuSans-Bold-79" d="M 78 3500 
L 1197 3500 
L 2138 1125 
L 2938 3500 
L 4056 3500 
L 2584 -331 
Q 2363 -916 2067 -1148 
Q 1772 -1381 1288 -1381 
L 641 -1381 
L 641 -647 
L 991 -647 
Q 1275 -647 1404 -556 
Q 1534 -466 1606 -231 
L 1638 -134 
L 78 3500 
z
" transform="scale(0.015625)"/>
      <path id="DejaVuSans-Bold-70" d="M 1656 506 
L 1656 -1331 
L 538 -1331 
L 538 3500 
L 1656 3500 
L 1656 2988 
Q 1888 3294 2169 3439 
Q 2450 3584 2816 3584 
Q 3463 3584 3878 3070 
Q 4294 2556 4294 1747 
Q 4294 938 3878 423 
Q 3463 -91 2816 -91 
Q 2450 -91 2169 54 
Q 1888 200 1656 506 
z
M 2400 2772 
Q 2041 2772 1848 2508 
Q 1656 2244 1656 1747 
Q 1656 1250 1848 986 
Q 2041 722 2400 722 
Q 2759 722 2948 984 
Q 3138 1247 3138 1747 
Q 3138 2247 2948 2509 
Q 2759 2772 2400 2772 
z
" transform="scale(0.015625)"/>
      <path id="DejaVuSans-Bold-6f" d="M 2203 2784 
Q 1831 2784 1636 2517 
Q 1441 2250 1441 1747 
Q 1441 1244 1636 976 
Q 1831 709 2203 709 
Q 2569 709 2762 976 
Q 2956 1244 2956 1747 
Q 2956 2250 2762 2517 
Q 2569 2784 2203 2784 
z
M 2203 3584 
Q 3106 3584 3614 3096 
Q 4122 2609 4122 1747 
Q 4122 884 3614 396 
Q 3106 -91 2203 -91 
Q 1297 -91 786 396 
Q 275 884 275 1747 
Q 275 2609 786 3096 
Q 1297 3584 2203 3584 
z
" transform="scale(0.015625)"/>
      <path id="DejaVuSans-Bold-69" d="M 538 3500 
L 1656 3500 
L 1656 0 
L 538 0 
L 538 3500 
z
M 538 4863 
L 1656 4863 
L 1656 3950 
L 538 3950 
L 538 4863 
z
" transform="scale(0.015625)"/>
      <path id="DejaVuSans-Bold-6e" d="M 4056 2131 
L 4056 0 
L 2931 0 
L 2931 347 
L 2931 1631 
Q 2931 2084 2911 2256 
Q 2891 2428 2841 2509 
Q 2775 2619 2662 2680 
Q 2550 2741 2406 2741 
Q 2056 2741 1856 2470 
Q 1656 2200 1656 1722 
L 1656 0 
L 538 0 
L 538 3500 
L 1656 3500 
L 1656 2988 
Q 1909 3294 2193 3439 
Q 2478 3584 2822 3584 
Q 3428 3584 3742 3212 
Q 4056 2841 4056 2131 
z
" transform="scale(0.015625)"/>
      <path id="DejaVuSans-Bold-74" d="M 1759 4494 
L 1759 3500 
L 2913 3500 
L 2913 2700 
L 1759 2700 
L 1759 1216 
Q 1759 972 1856 886 
Q 1953 800 2241 800 
L 2816 800 
L 2816 0 
L 1856 0 
Q 1194 0 917 276 
Q 641 553 641 1216 
L 641 2700 
L 84 2700 
L 84 3500 
L 641 3500 
L 641 4494 
L 1759 4494 
z
" transform="scale(0.015625)"/>
      <path id="DejaVuSans-Bold-20" transform="scale(0.015625)"/>
      <path id="DejaVuSans-Bold-2014" d="M 344 2156 
L 6056 2156 
L 6056 1350 
L 344 1350 
L 344 2156 
z
" transform="scale(0.015625)"/>
      <path id="DejaVuSans-Bold-59" d="M -63 4666 
L 1253 4666 
L 2316 3003 
L 3378 4666 
L 4697 4666 
L 2919 1966 
L 2919 0 
L 1716 0 
L 1716 1966 
L -63 4666 
z
" transform="scale(0.015625)"/>
      <path id="DejaVuSans-Bold-50" d="M 588 4666 
L 2584 4666 
Q 3475 4666 3951 4270 
Q 4428 3875 4428 3144 
Q 4428 2409 3951 2014 
Q 3475 1619 2584 1619 
L 1791 1619 
L 1791 0 
L 588 0 
L 588 4666 
z
M 1791 3794 
L 1791 2491 
L 2456 2491 
Q 2806 2491 2997 2661 
Q 3188 2831 3188 3144 
Q 3188 3456 2997 3625 
Q 2806 3794 2456 3794 
L 1791 3794 
z
" transform="scale(0.015625)"/>
      <path id="DejaVuSans-Bold-73" d="M 3272 3391 
L 3272 2541 
Q 2913 2691 2578 2766 
Q 2244 2841 1947 2841 
Q 1628 2841 1473 2761 
Q 1319 2681 1319 2516 
Q 1319 2381 1436 2309 
Q 1553 2238 1856 2203 
L 2053 2175 
Q 2913 2066 3209 1816 
Q 3506 1566 3506 1031 
Q 3506 472 3093 190 
Q 2681 -91 1863 -91 
Q 1516 -91 1145 -36 
Q 775 19 384 128 
L 384 978 
Q 719 816 1070 734 
Q 1422 653 1784 653 
Q 2113 653 2278 743 
Q 2444 834 2444 1013 
Q 2444 1163 2330 1236 
Q 2216 1309 1875 1350 
L 1678 1375 
Q 931 1469 631 1722 
Q 331 1975 331 2491 
Q 331 3047 712 3315 
Q 1094 3584 1881 3584 
Q 2191 3584 2531 3537 
Q 2872 3491 3272 3391 
z
" transform="scale(0.015625)"/>
      <path id="DejaVuSans-Bold-54" d="M 31 4666 
L 4331 4666 
L 4331 3756 
L 2784 3756 
L 2784 0 
L 1581 0 
L 1581 3756 
L 31 3756 
L 31 4666 
z
" transform="scale(0.015625)"/>
      <path id="DejaVuSans-Bold-72" d="M 3138 2547 
Q 2991 2616 2845 2648 
Q 2700 2681 2553 2681 
Q 2122 2681 1889 2404 
Q 1656 2128 1656 1613 
L 1656 0 
L 538 0 
L 538 3500 
L 1656 3500 
L 1656 2925 
Q 1872 3269 2151 3426 
Q 2431 3584 2822 3584 
Q 2878 3584 2943 3579 
Q 3009 3575 3134 3559 
L 3138 2547 
z
" transform="scale(0.015625)"/>
      <path id="DejaVuSans-Bold-63" d="M 3366 3391 
L 3366 2478 
Q 3138 2634 2908 2709 
Q 2678 2784 2431 2784 
Q 1963 2784 1702 2511 
Q 1441 2238 1441 1747 
Q 1441 1256 1702 982 
Q 1963 709 2431 709 
Q 2694 709 2930 787 
Q 3166 866 3366 1019 
L 3366 103 
Q 3103 6 2833 -42 
Q 2563 -91 2291 -91 
Q 1344 -91 809 395 
Q 275 881 275 1747 
Q 275 2613 809 3098 
Q 1344 3584 2291 3584 
Q 2566 3584 2833 3536 
Q 3100 3488 3366 3391 
z
" transform="scale(0.015625)"/>
      <path id="DejaVuSans-Bold-6b" d="M 538 4863 
L 1656 4863 
L 1656 2216 
L 2944 3500 
L 4244 3500 
L 2534 1894 
L 4378 0 
L 3022 0 
L 1656 1459 
L 1656 0 
L 538 0 
L 538 4863 
z
" transform="scale(0.015625)"/>
      <path id="DejaVuSans-Bold-67" d="M 2919 594 
Q 2688 288 2409 144 
Q 2131 0 1766 0 
Q 1125 0 706 504 
Q 288 1009 288 1791 
Q 288 2575 706 3076 
Q 1125 3578 1766 3578 
Q 2131 3578 2409 3434 
Q 2688 3291 2919 2981 
L 2919 3500 
L 4044 3500 
L 4044 353 
Q 4044 -491 3511 -936 
Q 2978 -1381 1966 -1381 
Q 1638 -1381 1331 -1331 
Q 1025 -1281 716 -1178 
L 716 -306 
Q 1009 -475 1290 -558 
Q 1572 -641 1856 -641 
Q 2406 -641 2662 -400 
Q 2919 -159 2919 353 
L 2919 594 
z
M 2181 2772 
Q 1834 2772 1640 2515 
Q 1447 2259 1447 1791 
Q 1447 1309 1634 1061 
Q 1822 813 2181 813 
Q 2531 813 2725 1069 
Q 2919 1325 2919 1791 
Q 2919 2259 2725 2515 
Q 2531 2772 2181 2772 
z
" transform="scale(0.015625)"/>
     </defs>
     <use xlink:href="#DejaVuSans-Bold-77"/>
     <use xlink:href="#DejaVuSans-Bold-61" transform="translate(92.382812 0)"/>
     <use xlink:href="#DejaVuSans-Bold-79" transform="translate(156.738281 0)"/>
     <use xlink:href="#DejaVuSans-Bold-70" transform="translate(221.923828 0)"/>
     <use xlink:href="#DejaVuSans-Bold-6f" transform="translate(293.505859 0)"/>
     <use xlink:href="#DejaVuSans-Bold-69" transform="translate(362.207031 0)"/>
     <use xlink:href="#DejaVuSans-Bold-6e" transform="translate(396.484375 0)"/>
     <use xlink:href="#DejaVuSans-Bold-74" transform="translate(467.675781 0)"/>
     <use xlink:href="#DejaVuSans-Bold-20" transform="translate(515.478516 0)"/>
     <use xlink:href="#DejaVuSans-Bold-2014" transform="translate(550.292969 0)"/>
     <use xlink:href="#DejaVuSans-Bold-20" transform="translate(650.292969 0)"/>
     <use xlink:href="#DejaVuSans-Bold-59" transform="translate(685.107422 0)"/>
     <use xlink:href="#DejaVuSans-Bold-20" transform="translate(757.519531 0)"/>
     <use xlink:href="#DejaVuSans-Bold-50" transform="translate(792.333984 0)"/>
     <use xlink:href="#DejaVuSans-Bold-6f" transform="translate(865.625 0)"/>
     <use xlink:href="#DejaVuSans-Bold-73" transform="translate(934.326172 0)"/>
     <use xlink:href="#DejaVuSans-Bold-69" transform="translate(993.847656 0)"/>
     <use xlink:href="#DejaVuSans-Bold-74" transform="translate(1028.125 0)"/>
     <use xlink:href="#DejaVuSans-Bold-69" transform="translate(1075.927734 0)"/>
     <use xlink:href="#DejaVuSans-Bold-6f" transform="translate(1110.205078 0)"/>
     <use xlink:href="#DejaVuSans-Bold-6e" transform="translate(1178.90625 0)"/>
     <use xlink:href="#DejaVuSans-Bold-20" transform="translate(1250.097656 0)"/>
     <use xlink:href="#DejaVuSans-Bold-54" transform="translate(1284.912109 0)"/>
     <use xlink:href="#DejaVuSans-Bold-72" transform="translate(1342.125 0)"/>
     <use xlink:href="#DejaVuSans-Bold-61" transform="translate(1391.441406 0)"/>
     <use xlink:href="#DejaVuSans-Bold-63" transform="translate(1458.921875 0)"/>
     <use xlink:href="#DejaVuSans-Bold-6b" transform="translate(1518.199219 0)"/>
     <use xlink:href="#DejaVuSans-Bold-69" transform="translate(1584.703125 0)"/>
     <use xlink:href="#DejaVuSans-Bold-6e" transform="translate(1618.980469 0)"/>
     <use xlink:href="#DejaVuSans-Bold-67" transform="translate(1690.171875 0)"/>
    </g>
    <!-- PID=0.0919m   EDMDc=0.0531m   Linear=0.0673m -->
    <g transform="translate(338.817031 35.856) scale(0.13 -0.13)">
     <defs>
      <path id="DejaVuSans-Bold-49" d="M 588 4666 
L 1791 4666 
L 1791 0 
L 588 0 
L 588 4666 
z
" transform="scale(0.015625)"/>
      <path id="DejaVuSans-Bold-44" d="M 1791 3756 
L 1791 909 
L 2222 909 
Q 2959 909 3348 1275 
Q 3738 1641 3738 2338 
Q 3738 3031 3350 3393 
Q 2963 3756 2222 3756 
L 1791 3756 
z
M 588 4666 
L 1856 4666 
Q 2919 4666 3439 4514 
Q 3959 4363 4331 4000 
Q 4659 3684 4818 3271 
Q 4978 2859 4978 2338 
Q 4978 1809 4818 1395 
Q 4659 981 4331 666 
Q 3956 303 3431 151 
Q 2906 0 1856 0 
L 588 0 
L 588 4666 
z
" transform="scale(0.015625)"/>
      <path id="DejaVuSans-Bold-3d" d="M 678 3084 
L 4684 3084 
L 4684 2350 
L 678 2350 
L 678 3084 
z
M 678 1663 
L 4684 1663 
L 4684 922 
L 678 922 
L 678 1663 
z
" transform="scale(0.015625)"/>
      <path id="DejaVuSans-Bold-30" d="M 2944 2338 
Q 2944 3213 2780 3570 
Q 2616 3928 2228 3928 
Q 1841 3928 1675 3570 
Q 1509 3213 1509 2338 
Q 1509 1453 1675 1090 
Q 1841 728 2228 728 
Q 2613 728 2778 1090 
Q 2944 1453 2944 2338 
z
M 4147 2328 
Q 4147 1169 3647 539 
Q 3147 -91 2228 -91 
Q 1306 -91 806 539 
Q 306 1169 306 2328 
Q 306 3491 806 4120 
Q 1306 4750 2228 4750 
Q 3147 4750 3647 4120 
Q 4147 3491 4147 2328 
z
" transform="scale(0.015625)"/>
      <path id="DejaVuSans-Bold-2e" d="M 653 1209 
L 1778 1209 
L 1778 0 
L 653 0 
L 653 1209 
z
" transform="scale(0.015625)"/>
      <path id="DejaVuSans-Bold-39" d="M 641 103 
L 641 966 
Q 928 831 1190 764 
Q 1453 697 1709 697 
Q 2247 697 2547 995 
Q 2847 1294 2900 1881 
Q 2688 1725 2447 1647 
Q 2206 1569 1925 1569 
Q 1209 1569 770 1986 
Q 331 2403 331 3084 
Q 331 3838 820 4291 
Q 1309 4744 2131 4744 
Q 3044 4744 3544 4128 
Q 4044 3513 4044 2388 
Q 4044 1231 3459 570 
Q 2875 -91 1856 -91 
Q 1528 -91 1228 -42 
Q 928 6 641 103 
z
M 2125 2350 
Q 2441 2350 2600 2554 
Q 2759 2759 2759 3169 
Q 2759 3575 2600 3781 
Q 2441 3988 2125 3988 
Q 1809 3988 1650 3781 
Q 1491 3575 1491 3169 
Q 1491 2759 1650 2554 
Q 1809 2350 2125 2350 
z
" transform="scale(0.015625)"/>
      <path id="DejaVuSans-Bold-31" d="M 750 831 
L 1813 831 
L 1813 3847 
L 722 3622 
L 722 4441 
L 1806 4666 
L 2950 4666 
L 2950 831 
L 4013 831 
L 4013 0 
L 750 0 
L 750 831 
z
" transform="scale(0.015625)"/>
      <path id="DejaVuSans-Bold-6d" d="M 3781 2919 
Q 3994 3244 4286 3414 
Q 4578 3584 4928 3584 
Q 5531 3584 5847 3212 
Q 6163 2841 6163 2131 
L 6163 0 
L 5038 0 
L 5038 1825 
Q 5041 1866 5042 1909 
Q 5044 1953 5044 2034 
Q 5044 2406 4934 2573 
Q 4825 2741 4581 2741 
Q 4263 2741 4089 2478 
Q 3916 2216 3909 1719 
L 3909 0 
L 2784 0 
L 2784 1825 
Q 2784 2406 2684 2573 
Q 2584 2741 2328 2741 
Q 2006 2741 1831 2477 
Q 1656 2213 1656 1722 
L 1656 0 
L 531 0 
L 531 3500 
L 1656 3500 
L 1656 2988 
Q 1863 3284 2130 3434 
Q 2397 3584 2719 3584 
Q 3081 3584 3359 3409 
Q 3638 3234 3781 2919 
z
" transform="scale(0.015625)"/>
      <path id="DejaVuSans-Bold-45" d="M 588 4666 
L 3834 4666 
L 3834 3756 
L 1791 3756 
L 1791 2888 
L 3713 2888 
L 3713 1978 
L 1791 1978 
L 1791 909 
L 3903 909 
L 3903 0 
L 588 0 
L 588 4666 
z
" transform="scale(0.015625)"/>
      <path id="DejaVuSans-Bold-4d" d="M 588 4666 
L 2119 4666 
L 3181 2169 
L 4250 4666 
L 5778 4666 
L 5778 0 
L 4641 0 
L 4641 3413 
L 3566 897 
L 2803 897 
L 1728 3413 
L 1728 0 
L 588 0 
L 588 4666 
z
" transform="scale(0.015625)"/>
      <path id="DejaVuSans-Bold-35" d="M 678 4666 
L 3669 4666 
L 3669 3781 
L 1638 3781 
L 1638 3059 
Q 1775 3097 1914 3117 
Q 2053 3138 2203 3138 
Q 3056 3138 3531 2711 
Q 4006 2284 4006 1522 
Q 4006 766 3489 337 
Q 2972 -91 2053 -91 
Q 1656 -91 1267 -14 
Q 878 63 494 219 
L 494 1166 
Q 875 947 1217 837 
Q 1559 728 1863 728 
Q 2300 728 2551 942 
Q 2803 1156 2803 1522 
Q 2803 1891 2551 2103 
Q 2300 2316 1863 2316 
Q 1603 2316 1309 2248 
Q 1016 2181 678 2041 
L 678 4666 
z
" transform="scale(0.015625)"/>
      <path id="DejaVuSans-Bold-33" d="M 2981 2516 
Q 3453 2394 3698 2092 
Q 3944 1791 3944 1325 
Q 3944 631 3412 270 
Q 2881 -91 1863 -91 
Q 1503 -91 1142 -33 
Q 781 25 428 141 
L 428 1069 
Q 766 900 1098 814 
Q 1431 728 1753 728 
Q 2231 728 2486 893 
Q 2741 1059 2741 1369 
Q 2741 1688 2480 1852 
Q 2219 2016 1709 2016 
L 1228 2016 
L 1228 2791 
L 1734 2791 
Q 2188 2791 2409 2933 
Q 2631 3075 2631 3366 
Q 2631 3634 2415 3781 
Q 2200 3928 1806 3928 
Q 1516 3928 1219 3862 
Q 922 3797 628 3669 
L 628 4550 
Q 984 4650 1334 4700 
Q 1684 4750 2022 4750 
Q 2931 4750 3382 4451 
Q 3834 4153 3834 3553 
Q 3834 3144 3618 2883 
Q 3403 2622 2981 2516 
z
" transform="scale(0.015625)"/>
      <path id="DejaVuSans-Bold-4c" d="M 588 4666 
L 1791 4666 
L 1791 909 
L 3903 909 
L 3903 0 
L 588 0 
L 588 4666 
z
" transform="scale(0.015625)"/>
      <path id="DejaVuSans-Bold-65" d="M 4031 1759 
L 4031 1441 
L 1416 1441 
Q 1456 1047 1700 850 
Q 1944 653 2381 653 
Q 2734 653 3104 758 
Q 3475 863 3866 1075 
L 3866 213 
Q 3469 63 3072 -14 
Q 2675 -91 2278 -91 
Q 1328 -91 801 392 
Q 275 875 275 1747 
Q 275 2603 792 3093 
Q 1309 3584 2216 3584 
Q 3041 3584 3536 3087 
Q 4031 2591 4031 1759 
z
M 2881 2131 
Q 2881 2450 2695 2645 
Q 2509 2841 2209 2841 
Q 1884 2841 1681 2658 
Q 1478 2475 1428 2131 
L 2881 2131 
z
" transform="scale(0.015625)"/>
      <path id="DejaVuSans-Bold-36" d="M 2316 2303 
Q 2000 2303 1842 2098 
Q 1684 1894 1684 1484 
Q 1684 1075 1842 870 
Q 2000 666 2316 666 
Q 2634 666 2792 870 
Q 2950 1075 2950 1484 
Q 2950 1894 2792 2098 
Q 2634 2303 2316 2303 
z
M 3803 4544 
L 3803 3681 
Q 3506 3822 3243 3889 
Q 2981 3956 2731 3956 
Q 2194 3956 1894 3657 
Q 1594 3359 1544 2772 
Q 1750 2925 1990 3001 
Q 2231 3078 2516 3078 
Q 3231 3078 3670 2659 
Q 4109 2241 4109 1563 
Q 4109 813 3618 361 
Q 3128 -91 2303 -91 
Q 1394 -91 895 523 
Q 397 1138 397 2266 
Q 397 3422 980 4083 
Q 1563 4744 2578 4744 
Q 2900 4744 3203 4694 
Q 3506 4644 3803 4544 
z
" transform="scale(0.015625)"/>
      <path id="DejaVuSans-Bold-37" d="M 428 4666 
L 3944 4666 
L 3944 3988 
L 2125 0 
L 953 0 
L 2675 3781 
L 428 3781 
L 428 4666 
z
" transform="scale(0.015625)"/>
     </defs>
     <use xlink:href="#DejaVuSans-Bold-50"/>
     <use xlink:href="#DejaVuSans-Bold-49" transform="translate(73.291016 0)"/>
     <use xlink:href="#DejaVuSans-Bold-44" transform="translate(110.498047 0)"/>
     <use xlink:href="#DejaVuSans-Bold-3d" transform="translate(193.505859 0)"/>
     <use xlink:href="#DejaVuSans-Bold-30" transform="translate(277.294922 0)"/>
     <use xlink:href="#DejaVuSans-Bold-2e" transform="translate(346.875 0)"/>
     <use xlink:href="#DejaVuSans-Bold-30" transform="translate(384.863281 0)"/>
     <use xlink:href="#DejaVuSans-Bold-39" transform="translate(454.443359 0)"/>
     <use xlink:href="#DejaVuSans-Bold-31" transform="translate(524.023438 0)"/>
     <use xlink:href="#DejaVuSans-Bold-39" transform="translate(593.603516 0)"/>
     <use xlink:href="#DejaVuSans-Bold-6d" transform="translate(663.183594 0)"/>
     <use xlink:href="#DejaVuSans-Bold-20" transform="translate(767.382812 0)"/>
     <use xlink:href="#DejaVuSans-Bold-20" transform="translate(802.197266 0)"/>
     <use xlink:href="#DejaVuSans-Bold-20" transform="translate(837.011719 0)"/>
     <use xlink:href="#DejaVuSans-Bold-45" transform="translate(871.826172 0)"/>
     <use xlink:href="#DejaVuSans-Bold-44" transform="translate(940.136719 0)"/>
     <use xlink:href="#DejaVuSans-Bold-4d" transform="translate(1023.144531 0)"/>
     <use xlink:href="#DejaVuSans-Bold-44" transform="translate(1122.65625 0)"/>
     <use xlink:href="#DejaVuSans-Bold-63" transform="translate(1205.664062 0)"/>
     <use xlink:href="#DejaVuSans-Bold-3d" transform="translate(1264.941406 0)"/>
     <use xlink:href="#DejaVuSans-Bold-30" transform="translate(1348.730469 0)"/>
     <use xlink:href="#DejaVuSans-Bold-2e" transform="translate(1418.310547 0)"/>
     <use xlink:href="#DejaVuSans-Bold-30" transform="translate(1456.298828 0)"/>
     <use xlink:href="#DejaVuSans-Bold-35" transform="translate(1525.878906 0)"/>
     <use xlink:href="#DejaVuSans-Bold-33" transform="translate(1595.458984 0)"/>
     <use xlink:href="#DejaVuSans-Bold-31" transform="translate(1665.039062 0)"/>
     <use xlink:href="#DejaVuSans-Bold-6d" transform="translate(1734.619141 0)"/>
     <use xlink:href="#DejaVuSans-Bold-20" transform="translate(1838.818359 0)"/>
     <use xlink:href="#DejaVuSans-Bold-20" transform="translate(1873.632812 0)"/>
     <use xlink:href="#DejaVuSans-Bold-20" transform="translate(1908.447266 0)"/>
     <use xlink:href="#DejaVuSans-Bold-4c" transform="translate(1943.261719 0)"/>
     <use xlink:href="#DejaVuSans-Bold-69" transform="translate(2006.982422 0)"/>
     <use xlink:href="#DejaVuSans-Bold-6e" transform="translate(2041.259766 0)"/>
     <use xlink:href="#DejaVuSans-Bold-65" transform="translate(2112.451172 0)"/>
     <use xlink:href="#DejaVuSans-Bold-61" transform="translate(2180.273438 0)"/>
     <use xlink:href="#DejaVuSans-Bold-72" transform="translate(2247.753906 0)"/>
     <use xlink:href="#DejaVuSans-Bold-3d" transform="translate(2297.070312 0)"/>
     <use xlink:href="#DejaVuSans-Bold-30" transform="translate(2380.859375 0)"/>
     <use xlink:href="#DejaVuSans-Bold-2e" transform="translate(2450.439453 0)"/>
     <use xlink:href="#DejaVuSans-Bold-30" transform="translate(2488.427734 0)"/>
     <use xlink:href="#DejaVuSans-Bold-36" transform="translate(2558.007812 0)"/>
     <use xlink:href="#DejaVuSans-Bold-37" transform="translate(2627.587891 0)"/>
     <use xlink:href="#DejaVuSans-Bold-33" transform="translate(2697.167969 0)"/>
     <use xlink:href="#DejaVuSans-Bold-6d" transform="translate(2766.748047 0)"/>
    </g>
   </g>
   <g id="legend_1">
    <g id="patch_7">
     <path d="M 60.66 312.32 
L 153.324062 312.32 
Q 155.324062 312.32 155.324062 310.32 
L 155.324062 252.6075 
Q 155.324062 250.6075 153.324062 250.6075 
L 60.66 250.6075 
Q 58.66 250.6075 58.66 252.6075 
L 58.66 310.32 
Q 58.66 312.32 60.66 312.32 
z
" style="fill: #ffffff; opacity: 0.8; stroke: #cccccc; stroke-linejoin: miter"/>
    </g>
    <g id="line2d_31">
     <path d="M 62.66 258.705938 
L 72.66 258.705938 
L 82.66 258.705938 
" style="fill: none; stroke: #000000; stroke-width: 2.5; stroke-linecap: square"/>
    </g>
    <g id="text_17">
     <!-- Reference -->
     <g transform="translate(90.66 262.205938) scale(0.1 -0.1)">
      <defs>
       <path id="DejaVuSans-52" d="M 2841 2188 
Q 3044 2119 3236 1894 
Q 3428 1669 3622 1275 
L 4263 0 
L 3584 0 
L 2988 1197 
Q 2756 1666 2539 1819 
Q 2322 1972 1947 1972 
L 1259 1972 
L 1259 0 
L 628 0 
L 628 4666 
L 2053 4666 
Q 2853 4666 3247 4331 
Q 3641 3997 3641 3322 
Q 3641 2881 3436 2590 
Q 3231 2300 2841 2188 
z
M 1259 4147 
L 1259 2491 
L 2053 2491 
Q 2509 2491 2742 2702 
Q 2975 2913 2975 3322 
Q 2975 3731 2742 3939 
Q 2509 4147 2053 4147 
L 1259 4147 
z
" transform="scale(0.015625)"/>
       <path id="DejaVuSans-66" d="M 2375 4863 
L 2375 4384 
L 1825 4384 
Q 1516 4384 1395 4259 
Q 1275 4134 1275 3809 
L 1275 3500 
L 2222 3500 
L 2222 3053 
L 1275 3053 
L 1275 0 
L 697 0 
L 697 3053 
L 147 3053 
L 147 3500 
L 697 3500 
L 697 3744 
Q 697 4328 969 4595 
Q 1241 4863 1831 4863 
L 2375 4863 
z
" transform="scale(0.015625)"/>
       <path id="DejaVuSans-72" d="M 2631 2963 
Q 2534 3019 2420 3045 
Q 2306 3072 2169 3072 
Q 1681 3072 1420 2755 
Q 1159 2438 1159 1844 
L 1159 0 
L 581 0 
L 581 3500 
L 1159 3500 
L 1159 2956 
Q 1341 3275 1631 3429 
Q 1922 3584 2338 3584 
Q 2397 3584 2469 3576 
Q 2541 3569 2628 3553 
L 2631 2963 
z
" transform="scale(0.015625)"/>
       <path id="DejaVuSans-6e" d="M 3513 2113 
L 3513 0 
L 2938 0 
L 2938 2094 
Q 2938 2591 2744 2837 
Q 2550 3084 2163 3084 
Q 1697 3084 1428 2787 
Q 1159 2491 1159 1978 
L 1159 0 
L 581 0 
L 581 3500 
L 1159 3500 
L 1159 2956 
Q 1366 3272 1645 3428 
Q 1925 3584 2291 3584 
Q 2894 3584 3203 3211 
Q 3513 2838 3513 2113 
z
" transform="scale(0.015625)"/>
       <path id="DejaVuSans-63" d="M 3122 3366 
L 3122 2828 
Q 2878 2963 2633 3030 
Q 2388 3097 2138 3097 
Q 1578 3097 1268 2742 
Q 959 2388 959 1747 
Q 959 1106 1268 751 
Q 1578 397 2138 397 
Q 2388 397 2633 464 
Q 2878 531 3122 666 
L 3122 134 
Q 2881 22 2623 -34 
Q 2366 -91 2075 -91 
Q 1284 -91 818 406 
Q 353 903 353 1747 
Q 353 2603 823 3093 
Q 1294 3584 2113 3584 
Q 2378 3584 2631 3529 
Q 2884 3475 3122 3366 
z
" transform="scale(0.015625)"/>
      </defs>
      <use xlink:href="#DejaVuSans-52"/>
      <use xlink:href="#DejaVuSans-65" transform="translate(64.982422 0)"/>
      <use xlink:href="#DejaVuSans-66" transform="translate(126.505859 0)"/>
      <use xlink:href="#DejaVuSans-65" transform="translate(161.710938 0)"/>
      <use xlink:href="#DejaVuSans-72" transform="translate(223.234375 0)"/>
      <use xlink:href="#DejaVuSans-65" transform="translate(262.097656 0)"/>
      <use xlink:href="#DejaVuSans-6e" transform="translate(323.621094 0)"/>
      <use xlink:href="#DejaVuSans-63" transform="translate(387 0)"/>
      <use xlink:href="#DejaVuSans-65" transform="translate(441.980469 0)"/>
     </g>
    </g>
    <g id="line2d_32">
     <path d="M 62.66 273.384063 
L 72.66 273.384063 
L 82.66 273.384063 
" style="fill: none; stroke: #888888; stroke-opacity: 0.6; stroke-width: 1.2; stroke-linecap: square"/>
    </g>
    <g id="text_18">
     <!-- PID -->
     <g transform="translate(90.66 276.884063) scale(0.1 -0.1)">
      <defs>
       <path id="DejaVuSans-50" d="M 1259 4147 
L 1259 2394 
L 2053 2394 
Q 2494 2394 2734 2622 
Q 2975 2850 2975 3272 
Q 2975 3691 2734 3919 
Q 2494 4147 2053 4147 
L 1259 4147 
z
M 628 4666 
L 2053 4666 
Q 2838 4666 3239 4311 
Q 3641 3956 3641 3272 
Q 3641 2581 3239 2228 
Q 2838 1875 2053 1875 
L 1259 1875 
L 1259 0 
L 628 0 
L 628 4666 
z
" transform="scale(0.015625)"/>
       <path id="DejaVuSans-49" d="M 628 4666 
L 1259 4666 
L 1259 0 
L 628 0 
L 628 4666 
z
" transform="scale(0.015625)"/>
       <path id="DejaVuSans-44" d="M 1259 4147 
L 1259 519 
L 2022 519 
Q 2988 519 3436 956 
Q 3884 1394 3884 2338 
Q 3884 3275 3436 3711 
Q 2988 4147 2022 4147 
L 1259 4147 
z
M 628 4666 
L 1925 4666 
Q 3281 4666 3915 4102 
Q 4550 3538 4550 2338 
Q 4550 1131 3912 565 
Q 3275 0 1925 0 
L 628 0 
L 628 4666 
z
" transform="scale(0.015625)"/>
      </defs>
      <use xlink:href="#DejaVuSans-50"/>
      <use xlink:href="#DejaVuSans-49" transform="translate(60.302734 0)"/>
      <use xlink:href="#DejaVuSans-44" transform="translate(89.794922 0)"/>
     </g>
    </g>
    <g id="line2d_33">
     <path d="M 62.66 288.062187 
L 72.66 288.062187 
L 82.66 288.062187 
" style="fill: none; stroke: #2ca02c; stroke-width: 1.5; stroke-linecap: square"/>
    </g>
    <g id="text_19">
     <!-- EDMDc MPC -->
     <g transform="translate(90.66 291.562187) scale(0.1 -0.1)">
      <defs>
       <path id="DejaVuSans-45" d="M 628 4666 
L 3578 4666 
L 3578 4134 
L 1259 4134 
L 1259 2753 
L 3481 2753 
L 3481 2222 
L 1259 2222 
L 1259 531 
L 3634 531 
L 3634 0 
L 628 0 
L 628 4666 
z
" transform="scale(0.015625)"/>
       <path id="DejaVuSans-4d" d="M 628 4666 
L 1569 4666 
L 2759 1491 
L 3956 4666 
L 4897 4666 
L 4897 0 
L 4281 0 
L 4281 4097 
L 3078 897 
L 2444 897 
L 1241 4097 
L 1241 0 
L 628 0 
L 628 4666 
z
" transform="scale(0.015625)"/>
       <path id="DejaVuSans-43" d="M 4122 4306 
L 4122 3641 
Q 3803 3938 3442 4084 
Q 3081 4231 2675 4231 
Q 1875 4231 1450 3742 
Q 1025 3253 1025 2328 
Q 1025 1406 1450 917 
Q 1875 428 2675 428 
Q 3081 428 3442 575 
Q 3803 722 4122 1019 
L 4122 359 
Q 3791 134 3420 21 
Q 3050 -91 2638 -91 
Q 1578 -91 968 557 
Q 359 1206 359 2328 
Q 359 3453 968 4101 
Q 1578 4750 2638 4750 
Q 3056 4750 3426 4639 
Q 3797 4528 4122 4306 
z
" transform="scale(0.015625)"/>
      </defs>
      <use xlink:href="#DejaVuSans-45"/>
      <use xlink:href="#DejaVuSans-44" transform="translate(63.183594 0)"/>
      <use xlink:href="#DejaVuSans-4d" transform="translate(140.185547 0)"/>
      <use xlink:href="#DejaVuSans-44" transform="translate(226.464844 0)"/>
      <use xlink:href="#DejaVuSans-63" transform="translate(303.466797 0)"/>
      <use xlink:href="#DejaVuSans-20" transform="translate(358.447266 0)"/>
      <use xlink:href="#DejaVuSans-4d" transform="translate(390.234375 0)"/>
      <use xlink:href="#DejaVuSans-50" transform="translate(476.513672 0)"/>
      <use xlink:href="#DejaVuSans-43" transform="translate(536.816406 0)"/>
     </g>
    </g>
    <g id="line2d_34">
     <path d="M 62.66 302.740313 
L 72.66 302.740313 
L 82.66 302.740313 
" style="fill: none; stroke-dasharray: 4.44,1.92; stroke-dashoffset: 0; stroke: #1f77b4; stroke-width: 1.2"/>
    </g>
    <g id="text_20">
     <!-- Linear MPC -->
     <g transform="translate(90.66 306.240313) scale(0.1 -0.1)">
      <defs>
       <path id="DejaVuSans-4c" d="M 628 4666 
L 1259 4666 
L 1259 531 
L 3531 531 
L 3531 0 
L 628 0 
L 628 4666 
z
" transform="scale(0.015625)"/>
       <path id="DejaVuSans-61" d="M 2194 1759 
Q 1497 1759 1228 1600 
Q 959 1441 959 1056 
Q 959 750 1161 570 
Q 1363 391 1709 391 
Q 2188 391 2477 730 
Q 2766 1069 2766 1631 
L 2766 1759 
L 2194 1759 
z
M 3341 1997 
L 3341 0 
L 2766 0 
L 2766 531 
Q 2569 213 2275 61 
Q 1981 -91 1556 -91 
Q 1019 -91 701 211 
Q 384 513 384 1019 
Q 384 1609 779 1909 
Q 1175 2209 1959 2209 
L 2766 2209 
L 2766 2266 
Q 2766 2663 2505 2880 
Q 2244 3097 1772 3097 
Q 1472 3097 1187 3025 
Q 903 2953 641 2809 
L 641 3341 
Q 956 3463 1253 3523 
Q 1550 3584 1831 3584 
Q 2591 3584 2966 3190 
Q 3341 2797 3341 1997 
z
" transform="scale(0.015625)"/>
      </defs>
      <use xlink:href="#DejaVuSans-4c"/>
      <use xlink:href="#DejaVuSans-69" transform="translate(55.712891 0)"/>
      <use xlink:href="#DejaVuSans-6e" transform="translate(83.496094 0)"/>
      <use xlink:href="#DejaVuSans-65" transform="translate(146.875 0)"/>
      <use xlink:href="#DejaVuSans-61" transform="translate(208.398438 0)"/>
      <use xlink:href="#DejaVuSans-72" transform="translate(269.677734 0)"/>
      <use xlink:href="#DejaVuSans-20" transform="translate(310.791016 0)"/>
      <use xlink:href="#DejaVuSans-4d" transform="translate(342.578125 0)"/>
      <use xlink:href="#DejaVuSans-50" transform="translate(428.857422 0)"/>
      <use xlink:href="#DejaVuSans-43" transform="translate(489.160156 0)"/>
     </g>
    </g>
   </g>
  </g>
 </g>
 <defs>
  <clipPath id="p01567d5cee">
   <rect x="53.66" y="41.856" width="943.54" height="275.464"/>
  </clipPath>
 </defs>
</svg>
